<?xml version="1.0" encoding="UTF-8"?>
<svg width="107.59mm" height="31.258mm" version="1.1" viewBox="0 0 107.59 31.258" xml:space="preserve" xmlns="http://www.w3.org/2000/svg"><g transform="translate(275.96 -14.597)"><g transform="translate(83.648 -27.883)" stroke-width=".092882"><path d="m-338.03 73.671c-1.4755-0.20136-3.4276-0.84737-4.5512-1.5062-2.5866-1.5166-4.444-3.8932-5.1175-6.5481-0.28579-1.1266-0.41113-2.5866-0.21503-2.5047 1.0285 0.42928 1.4087 0.56856 2.0962 0.7678 0.4455 0.1291 0.82072 0.24545 0.83383 0.25856 0.0131 0.01311 0.0916 0.35169 0.17433 0.7524 0.90283 4.3709 4.2987 7.772 8.3118 8.3247 1.8784 0.25869 4.1011-0.28738 5.7291-1.4075 1.6212-1.1154 3.0341-3.1009 3.6932-5.1898 0.72896-2.3103 0.65983-5.094-0.18452-7.4305-1.1987-3.3172-3.734-5.7716-6.8291-6.6112-0.65536-0.17778-1.0032-0.21142-2.1301-0.20599-1.1827 0.0057-1.4463 0.03674-2.1638 0.25472-2.3988 0.7288-4.3199 2.361-5.4711 4.6482-0.7688 1.5275-1.093 2.7917-1.1773 4.5908l-0.058 1.2369-0.85543-0.54028c-0.47048-0.29716-1.0857-0.7401-1.3671-0.98432-0.59115-0.513-0.58968-0.49088-0.12178-1.8316 0.35206-1.0087 0.57494-1.4445 1.2716-2.486 0.95503-1.4278 2.4872-2.8386 3.9835-3.6679 0.31468-0.17441 0.55328-0.33597 0.53022-0.35902-0.0231-0.02305 0.0292-0.04671 0.11621-0.05257 0.087-0.0059 0.52707-0.16269 0.97801-0.34851 3.2749-1.3495 7.2661-1.2192 10.419 0.34012 3.1352 1.5507 5.2357 4.1914 5.9031 7.4215 0.27557 1.3336 0.21702 3.2413-0.13933 4.5395-1.1417 4.159-4.7534 7.3989-9.3213 8.3616-1.0491 0.22109-3.333 0.3145-4.3375 0.17741zm21.763-2.658c0.067-0.02683 0.14716-0.02353 0.17802 0.0073 0.0309 0.03086-0.024 0.05282-0.1219 0.04878-0.10821-0.0045-0.13021-0.02647-0.0561-0.05612zm12.26 0c0.067-0.02683 0.14716-0.02353 0.17802 0.0073 0.0309 0.03086-0.024 0.05282-0.1219 0.04878-0.10821-0.0045-0.13021-0.02647-0.0561-0.05612zm18.756 0.0019c0.0639-0.02577 0.16835-0.02577 0.23221 0 0.0639 0.02577 0.0116 0.04685-0.11611 0.04685s-0.17996-0.02108-0.1161-0.04685zm-10.728-0.09539c0.0894-0.02336 0.23569-0.02336 0.32509 0s0.0163 0.04248-0.16255 0.04248c-0.17879 0-0.25194-0.01912-0.16254-0.04248zm5.0156 0c0.0894-0.02336 0.23569-0.02336 0.32509 0s0.0162 0.04248-0.16255 0.04248c-0.17879 0-0.25194-0.01912-0.16254-0.04248zm26.147-0.0017c0.11553-0.02222 0.28272-0.02137 0.37152 0.0019 0.0888 0.02325-6e-3 0.04143-0.21007 0.04039-0.20434-1e-3 -0.277-0.02005-0.16145-0.04227zm-88.413-0.18973c-0.11554-0.14732-0.11225-0.1506 0.0351-0.03507 0.0894 0.07011 0.16254 0.14326 0.16254 0.16254 0 0.07644-0.0763 0.02724-0.19761-0.12748zm61.482-0.27243c0.067-0.02683 0.14716-0.02353 0.17802 0.0073 0.0309 0.03086-0.024 0.05282-0.1219 0.04878-0.10821-0.0045-0.13022-0.02647-0.0561-0.05611zm0.55729 0c0.067-0.02683 0.14716-0.02353 0.17802 0.0073 0.0309 0.03086-0.024 0.05282-0.1219 0.04878-0.10821-0.0045-0.13021-0.02647-0.0561-0.05611zm25.635 0c0.067-0.02683 0.14716-0.02353 0.17803 0.0073 0.0309 0.03086-0.024 0.05282-0.12191 0.04878-0.10821-0.0045-0.13021-0.02647-0.0561-0.05611zm-4.5085-0.86537c0-0.22988 0.0181-0.32392 0.0403-0.20898 0.0221 0.11494 0.0221 0.30303 0 0.41797s-0.0403 0.0209-0.0403-0.20898zm-23.484-2.0898c-6e-5 -1.2771 0.013-1.8125 0.0291-1.1896 0.016 0.62282 0.0161 1.6677 9e-5 2.322-0.016 0.65431-0.0291 0.14473-0.0292-1.1324zm26.192-0.04644c0-1.0983 0.0134-1.5476 0.0299-0.99848 0.0164 0.54916 0.0164 1.4478 0 1.997-0.0164 0.54916-0.0299 0.09985-0.0299-0.99848zm6.3875 1.6254c2e-3 -0.15326 0.0227-0.20471 0.0463-0.11434 0.0236 0.09037 0.022 0.21576-3e-3 0.27865-0.0254 0.06288-0.0447-0.01106-0.0428-0.16431zm-10.154-0.30187c-0.11553-0.14732-0.11225-0.1506 0.0351-0.03507 0.15472 0.12134 0.20392 0.19761 0.12747 0.19761-0.0193 0-0.0924-0.07314-0.16254-0.16254zm-44.305-0.18576c-0.11553-0.14732-0.11224-0.1506 0.0351-0.03507 0.15472 0.12134 0.20392 0.19761 0.12748 0.19761-0.0193 0-0.0924-0.07315-0.16255-0.16254zm50.964-0.23621c0.0349-0.0916 0.0868-0.14315 0.11541-0.11455 0.0286 0.0286 6e-5 0.10354-0.0634 0.16655-0.0917 0.09105-0.1024 0.08038-0.052-0.052zm-37.184-0.43718c0-0.1788 0.0191-0.25194 0.0425-0.16254 0.0234 0.0894 0.0234 0.23569 0 0.32509-0.0234 0.0894-0.0425 0.01626-0.0425-0.16254zm-8.7699-0.06345c0.067-0.02683 0.14717-0.02353 0.17803 0.0073 0.0309 0.03086-0.024 0.05282-0.12191 0.04878-0.1082-0.0045-0.13021-0.02647-0.0561-0.05612zm35.424-0.26164c2e-3 -0.15326 0.0227-0.20471 0.0463-0.11434 0.0236 0.09037 0.022 0.21576-3e-3 0.27865-0.0254 0.06288-0.0447-0.01106-0.0428-0.16431zm-41.684-0.06966-0.17694-0.20898 0.20899 0.17694c0.11494 0.09732 0.20898 0.19136 0.20898 0.20898 0 0.07433-0.0747 0.01945-0.24103-0.17694zm46.053-0.25542c0-0.1788 0.0191-0.25194 0.0425-0.16254 0.0234 0.0894 0.0234 0.23569 0 0.32509-0.0234 0.0894-0.0425 0.01625-0.0425-0.16254zm-37.631-1.2616c4e-3 -0.1082 0.0265-0.13021 0.0561-0.05612 0.0268 0.06705 0.0235 0.14716-7e-3 0.17802-0.0309 0.03086-0.0528-0.02399-0.0488-0.12191zm34.068-0.38701c-0.11553-0.14732-0.11225-0.1506 0.0351-0.03507 0.15472 0.12134 0.20392 0.19761 0.12747 0.19761-0.0193 0-0.0924-0.07315-0.16254-0.16254zm-1.3548-0.34831c7.5e-4 -0.25542 0.0187-0.34889 0.0401-0.20771s0.0208 0.35017-1e-3 0.46441c-0.022 0.11424-0.0395-0.0013-0.0388-0.2567zm14.571 0.04644c0-0.12771 0.0211-0.17996 0.0469-0.1161 0.0258 0.06386 0.0258 0.16835 0 0.2322-0.0258 0.06386-0.0469 0.01161-0.0469-0.1161zm-50.705-0.80958c0.14048-0.02128 0.37036-0.02128 0.51085 0 0.14048 0.02128 0.0255 0.03869-0.25543 0.03869-0.28097 0-0.39591-0.01741-0.25542-0.03869zm13.282 0c0.14049-0.02128 0.37037-0.02128 0.51085 0 0.14049 0.02128 0.0256 0.03869-0.25542 0.03869-0.28097 0-0.39591-0.01741-0.25543-0.03869zm5.6658-0.0023c0.34482-0.01787 0.90908-0.01787 1.2539 0s0.0627 0.03249-0.62695 0.03249-0.97178-0.01462-0.62695-0.03249zm12.585-3.72e-4c0.52362-0.01656 1.3805-0.01656 1.9041 0s0.0952 0.0301-0.95204 0.0301-1.4757-0.01355-0.95204-0.0301zm9.6608 0.0036c0.11554-0.02222 0.28273-0.02137 0.37153 0.0019 0.0888 0.02325-6e-3 0.04143-0.21007 0.04039-0.20434-1e-3 -0.27699-0.02005-0.16146-0.04227zm3.9464-0.0032c0.34482-0.01787 0.90908-0.01787 1.2539 0s0.0627 0.03249-0.62695 0.03249-0.97178-0.01462-0.62695-0.03249zm4.8311 0.0022c0.14119-0.02135 0.35018-0.02078 0.46441 0.0013 0.11425 0.02205-1e-3 0.03951-0.2567 0.03882-0.25542-7.43e-4 -0.34889-0.01874-0.20771-0.04009zm4.1733-3.6951c2e-3 -0.15326 0.0227-0.20471 0.0463-0.11433 0.0235 0.09037 0.022 0.21576-3e-3 0.27864-0.0254 0.06288-0.0447-0.01106-0.0428-0.16431zm-33.995-0.65017c2e-3 -0.15326 0.0227-0.20471 0.0462-0.11434 0.0236 0.09037 0.022 0.21576-3e-3 0.27864-0.0254 0.06288-0.0447-0.01105-0.0428-0.16431zm11.421 0.04644c0-0.12771 0.0211-0.17996 0.0468-0.1161 0.0258 0.06386 0.0258 0.16835 0 0.2322-0.0258 0.06386-0.0468 0.01161-0.0468-0.1161zm-18.398-0.05418c4e-3 -0.1082 0.0265-0.13021 0.0561-0.05612 0.0268 0.06705 0.0235 0.14716-7e-3 0.17802-0.0309 0.03086-0.0528-0.02399-0.0488-0.12191zm44.505-0.22446c0-0.1788 0.0191-0.25194 0.0425-0.16254 0.0234 0.0894 0.0234 0.23569 0 0.32509-0.0234 0.0894-0.0425 0.01626-0.0425-0.16254zm-21.344-2.0898c6e-5 -1.226 0.0133-1.7148 0.0294-1.086 0.0161 0.62872 0.016 1.6318-9e-5 2.2292-0.0162 0.59732-0.0293 0.08291-0.0293-1.1431zm-16.194 0.92108c4e-3 -0.1082 0.0265-0.13021 0.0561-0.05612 0.0268 0.06705 0.0235 0.14716-7e-3 0.17802-0.0309 0.03086-0.0528-0.02399-0.0488-0.12191zm-12.802-0.19561c0.0894-0.02336 0.23569-0.02336 0.32508 0 0.0894 0.02336 0.0163 0.04248-0.16254 0.04248-0.1788 0-0.25194-0.01911-0.16254-0.04248zm40.309-0.77191c0-0.1788 0.0191-0.25194 0.0425-0.16254 0.0234 0.0894 0.0234 0.23569 0 0.32509-0.0234 0.0894-0.0425 0.01625-0.0425-0.16254zm-23.699-0.23994c4e-3 -0.1082 0.0265-0.13021 0.0561-0.05612 0.0268 0.06705 0.0235 0.14716-7e-3 0.17802-0.0309 0.03086-0.0528-0.02399-0.0488-0.12191zm15.151-0.8282c2e-3 -0.15326 0.0227-0.20471 0.0463-0.11434 0.0236 0.09037 0.022 0.21576-3e-3 0.27865-0.0254 0.06288-0.0447-0.01106-0.0428-0.16431zm18.58-0.97526c0-0.1788 0.0191-0.25194 0.0425-0.16254 0.0234 0.0894 0.0234 0.23569 0 0.32509-0.0234 0.0894-0.0425 0.01625-0.0425-0.16254zm-102.47-0.13932c0.11998-0.12771 0.23904-0.2322 0.26459-0.2322 0.0255 0-0.0517 0.10449-0.17171 0.2322-0.11998 0.12771-0.23904 0.2322-0.26458 0.2322-0.0255 0 0.0517-0.10449 0.1717-0.2322zm98.926-0.0077c4e-3 -0.1082 0.0265-0.13021 0.0561-0.05612 0.0268 0.06705 0.0235 0.14716-7e-3 0.17802-0.0309 0.03086-0.0528-0.02399-0.0488-0.12191zm-42.379-0.28791c0.067-0.02683 0.14716-0.02353 0.17802 0.0073 0.0309 0.03086-0.024 0.05282-0.1219 0.04878-0.10821-0.0045-0.13021-0.02647-0.0561-0.05612zm-47.654-3.4404c0.16602-0.0206 0.4377-0.0206 0.60373 0 0.16602 0.0206 0.0302 0.03746-0.30187 0.03746-0.33205 0-0.46789-0.01686-0.30186-0.03746zm53.5-0.277c0.11494-0.02214 0.30303-0.02214 0.41797 0s0.0209 0.04025-0.20899 0.04025c-0.22988 0-0.32392-0.01811-0.20898-0.04025zm-22.338-0.09386c0.14049-0.02128 0.37037-0.02128 0.51085 0 0.14049 0.02128 0.0256 0.03869-0.25542 0.03869-0.28097 0-0.39591-0.01741-0.25543-0.03869zm12.215 8.36e-4c0.11554-0.02222 0.28273-0.02137 0.37153 0.0019 0.0888 0.02325-6e-3 0.04142-0.21007 0.04039-0.20434-1e-3 -0.27699-0.02005-0.16146-0.04227zm8.1261-8.36e-4c0.14048-0.02128 0.37037-0.02128 0.51085 0s0.0255 0.03869-0.25543 0.03869c-0.28096 0-0.3959-0.01741-0.25542-0.03869zm6.9197 9.77e-4c0.11495-0.02214 0.30303-0.02214 0.41797 0s0.0209 0.04025-0.20898 0.04025-0.32393-0.01811-0.20899-0.04025zm3.9068 0.0021c0.067-0.02683 0.14716-0.02353 0.17802 0.0073 0.0309 0.03086-0.024 0.05282-0.12191 0.04878-0.1082-0.0045-0.13021-0.02647-0.0561-0.05612zm12.349-0.0022c0.11554-0.02222 0.28273-0.02137 0.37153 0.0019 0.0888 0.02325-6e-3 0.04143-0.21006 0.04039-0.20434-1e-3 -0.277-0.02005-0.16147-0.04227zm3.9058 0.0022c0.0671-0.02683 0.14716-0.02353 0.17803 0.0073 0.0309 0.03086-0.024 0.05282-0.12191 0.04878-0.1082-0.0045-0.13021-0.02647-0.0561-0.05612zm-6.5364-3.0017c0-1.4048 0.0129-1.9795 0.0287-1.2771 0.0158 0.70242 0.0158 1.8518 0 2.5542s-0.0287 0.12771-0.0287-1.2771zm-28.902 1.7648c0-0.22988 0.0181-0.32393 0.0403-0.20898 0.0221 0.11494 0.0221 0.30303 0 0.41797-0.0221 0.11494-0.0403 0.0209-0.0403-0.20898zm4.7927-0.53407c-0.11553-0.14732-0.11225-0.1506 0.0351-0.03507 0.15472 0.12134 0.20392 0.19761 0.12748 0.19761-0.0193 0-0.0924-0.07314-0.16255-0.16254zm4.5091-1.9737c0-0.99616 0.0137-1.4037 0.0304-0.9056 0.0167 0.49808 0.0167 1.3131 0 1.8112-0.0167 0.49808-0.0304 0.09056-0.0304-0.9056zm-8.6588 1.4397c2e-3 -0.15326 0.0227-0.20471 0.0463-0.11434 0.0235 0.09037 0.022 0.21576-3e-3 0.27865-0.0254 0.06288-0.0447-0.01106-0.0428-0.16431zm4.3689-0.13932c0-0.1788 0.0191-0.25194 0.0425-0.16254 0.0234 0.0894 0.0234 0.23569 0 0.32509-0.0234 0.0894-0.0425 0.01626-0.0425-0.16254zm0.56231-0.32509c7.4e-4 -0.25542 0.0187-0.34889 0.0401-0.20771 0.0213 0.14119 0.0208 0.35017-1e-3 0.46441-0.022 0.11424-0.0395-0.0013-0.0388-0.2567zm-3.6113-0.44119-0.17694-0.20898 0.20899 0.17694c0.11494 0.09732 0.20898 0.19136 0.20898 0.20898 0 0.07433-0.0747 0.01946-0.24103-0.17694zm12.337-0.06966c0-0.1788 0.0191-0.25194 0.0425-0.16254 0.0234 0.0894 0.0234 0.23569 0 0.32509-0.0234 0.0894-0.0425 0.01625-0.0425-0.16254zm-24.379-0.34434c0.11554-0.02222 0.28273-0.02137 0.37153 0.0019 0.0888 0.02325-6e-3 0.04142-0.21007 0.04039-0.20434-1e-3 -0.27699-0.02005-0.16146-0.04227zm11.904-1.2114-0.22517-0.25542 0.25542 0.22517c0.23874 0.21046 0.29802 0.28568 0.22518 0.28568-0.0166 0-0.13158-0.11494-0.25543-0.25542zm22.926-1.6637c0.0639-0.02577 0.16835-0.02577 0.2322 0 0.0639 0.02577 0.0116 0.04685-0.1161 0.04685-0.12771 0-0.17996-0.02108-0.1161-0.04685z" fill="#49b2bc"/><path d="m-343.6 64.295c-4.0427-0.42729-7.494-2.6176-9.236-5.8614-0.81578-1.5191-1.1467-2.8582-1.1567-4.68-0.012-2.1925 0.50462-3.9168 1.7287-5.7702 2.9594-4.4809 8.7858-6.536 14.169-4.9976 0.44624 0.12754 1.3178 0.47906 1.9369 0.78116 3.5888 1.7514 5.8304 4.9718 6.1004 8.7642 0.0515 0.72396 0.12309 0.70016-0.86353 0.2872-0.33205-0.13898-0.85066-0.3225-1.1525-0.40781l-0.54873-0.15511-0.2148-0.96922c-0.76808-3.4657-2.955-6.3091-5.8686-7.6302-2.0094-0.9111-4.4153-0.97351-6.4952-0.16849-2.7836 1.0774-4.9256 3.7881-5.6534 7.1545-0.23901 1.1056-0.24245 3.5427-7e-3 4.6441 0.79613 3.7172 3.1295 6.6951 6.2236 7.9427 1.88 0.75806 4.1619 0.81249 5.9276 0.14138 0.27356-0.10398 0.51061-0.18907 0.52678-0.1891 0.0162-2.5e-5 0.0162 0.11342 0 0.2521-0.0253 0.21725-0.1003 0.27365-0.54173 0.40759-1.2812 0.38875-3.5201 0.59732-4.8748 0.45414zm7.9414-2.3309c0-0.43385 0.0366-0.51446 0.43282-0.95204 1.6332-1.8039 2.6323-4.4431 2.6323-6.9535 0-0.84555 0.0145-0.92306 0.16254-0.86761 0.31961 0.11972 1.1637 0.66286 1.6804 1.0812 0.6209 0.5028 0.63399 0.60239 0.24342 1.8518-0.52635 1.6836-1.4194 3.1429-2.7333 4.466-0.7838 0.7893-2.1244 1.8482-2.3398 1.8482-0.0431 0-0.0783-0.21329-0.0783-0.47398z" fill="#97c239"/><path d="m-349.22 73.712c-2.9822-0.37838-5.4569-1.5203-7.3092-3.3726-4.2325-4.2325-4.0804-10.657 0.35329-14.92 0.7221-0.69426 2.0016-1.6866 2.0725-1.6072 0.0169 0.01893 0.059 0.3063 0.0935 0.63859l0.0628 0.60416-0.49952 0.62684c-0.97165 1.2193-1.7626 3.0426-2.0602 4.7488-0.1836 1.0528-0.18425 2.8633-1e-3 3.9227 0.54011 3.1296 2.25 5.8452 4.6943 7.4555 1.5481 1.0198 2.943 1.4405 4.7766 1.4402 1.4253-1.85e-4 2.3384-0.20252 3.5525-0.78727 0.75892-0.36555 0.76879-0.36751 1.0681-0.21234l0.30213 0.15662-0.58973 0.2637c-0.77934 0.34848-1.9483 0.70044-2.9066 0.87515-0.77721 0.14169-2.9979 0.24427-3.6091 0.16672zm86.012-0.66402c2e-3 -0.03705 0.16314-0.17765 0.35823-0.31244 0.20827-0.1439 0.44647-0.4315 0.57699-0.69661 0.21996-0.44684 0.22257-0.48593 0.2508-3.7601 0.0316-3.6639 0.0398-3.6111-0.56149-3.6111-0.15812 0-0.25616-0.03135-0.21787-0.06966 0.0934-0.09348 2.562-0.10859 2.562-0.01568 0 0.04015-0.11398 0.08623-0.25327 0.10239-0.46743 0.05424-0.49446 0.2384-0.47465 3.2338 0.0204 3.0878-0.0224 3.3648-0.63031 4.075-0.46434 0.54248-1.6234 1.3014-1.6105 1.0544zm-77.779-1.7988-0.34343-0.28308 0.5519-0.58998c1.035-1.1064 1.8517-2.6658 2.3049-4.4012 0.31413-1.2027 0.3951-3.2656 0.1812-4.6161-0.3711-2.343-1.3691-4.417-2.9295-6.0878l-0.64191-0.68735 0.33878-0.28273c0.73031-0.60949 0.76642-0.62003 1.179-0.34401 4.4687 2.9899 5.9617 8.5531 3.56 13.265-0.69677 1.367-1.8684 2.7878-3.0938 3.7519-0.76781 0.60406-0.72211 0.59269-1.1071 0.27535zm23.741-0.404c-0.29594-0.12862-0.30174-0.1427-0.29534-0.7162 4e-3 -0.32175 0.0384-0.66634 0.0773-0.76576 0.0574-0.14674 0.0912-0.10304 0.17963 0.2322 0.18346 0.69571 0.56903 1.0169 1.2201 1.0164 0.57982-4.64e-4 0.98445-0.26322 1.1243-0.73008 0.0972-0.32446 0.0863-0.41705-0.0923-0.78611-0.12537-0.25899-0.39144-0.56409-0.69854-0.80102-0.7379-0.56929-1.4025-1.311-1.5353-1.7136-0.25714-0.77913 0.0516-1.5549 0.77105-1.9375 0.31135-0.16557 0.54115-0.20598 1.1764-0.20688 1.1108-0.0016 1.1146 0.0011 1.1146 0.78547 0 0.37347-0.0398 0.65309-0.0929 0.65309-0.0511 0-0.0929-0.08506-0.0929-0.18903 0-0.68554-0.97866-1.1447-1.6737-0.78527-0.32908 0.17018-0.46255 0.40002-0.46255 0.79656 0 0.31442-0.0127 0.30009 1.645 1.8496 0.52054 0.48654 0.66938 0.68963 0.76679 1.0462 0.25545 0.93518-0.0932 1.7551-0.92755 2.1814-0.32655 0.16683-0.55963 0.20825-1.1556 0.20535-0.43068-0.0021-0.87433-0.05915-1.0485-0.13484zm12.033-0.02283c-1.3093-0.49094-2.1174-1.6701-2.1174-3.0896 0-2.2848 1.9818-3.749 4.3841-3.2393 1.0562 0.2241 1.788 0.77548 2.2028 1.6598 0.20827 0.44397 0.23975 0.63391 0.23868 1.4402-1e-3 0.80606-0.0334 0.99781-0.24476 1.4508-0.3415 0.732-0.83368 1.2375-1.5466 1.5885-0.54806 0.26981-0.70861 0.3038-1.5458 0.32723-0.71485 0.02001-1.0368-0.01231-1.371-0.13764zm2.3981-0.38792c0.78614-0.357 1.1682-1.1782 1.1706-2.5159 1e-3 -0.69197-0.0433-1.0002-0.20638-1.4286-0.47964-1.2598-1.6416-1.9425-2.7872-1.6375-0.60355 0.16068-1.0078 0.50855-1.2848 1.1057-0.21092 0.45468-0.24098 0.63867-0.2368 1.4496 6e-3 1.0952 0.23005 1.7995 0.7605 2.3867 0.68922 0.76288 1.7403 1.0232 2.584 0.64008zm16.199 0.40032c-0.6895-0.18528-1.2025-0.50186-1.6866-1.0409-1.072-1.1936-1.027-3.262 0.0954-4.3806 0.91974-0.9166 2.2667-1.2067 4.1896-0.90229l0.69662 0.11027 0.0268 0.81272c0.027 0.81643-0.0917 1.0996-0.20579 0.49124-0.12845-0.6847-0.92271-1.1155-2.0502-1.112-1.0499 0.0033-1.7099 0.4024-2.1003 1.2703-0.18092 0.40218-0.21985 0.64394-0.22071 1.3707-9.3e-4 0.75731 0.0331 0.95479 0.23954 1.3932 0.34569 0.73404 0.66608 1.0692 1.3387 1.4003 0.54297 0.2673 0.65471 0.2889 1.3348 0.25802 0.86547-0.0393 1.1539-0.19717 1.463-0.80074 0.10855-0.21199 0.21716-0.36566 0.24133-0.34148 0.0426 0.04265-0.056 0.80642-0.15772 1.2213-0.0342 0.13944-0.16119 0.23563-0.39781 0.30135-0.50416 0.14001-2.2108 0.1088-2.8067-0.05133zm13.947-2.2358-2.3519-2.3914 0.0609 1.9469c0.0727 2.3232 0.11205 2.5003 0.58376 2.6257 0.27667 0.07359 0.11709 0.09168-0.81722 0.09267-0.88334 9.29e-4 -1.088-0.01985-0.85549-0.08689 0.19472-0.05615 0.33789-0.17322 0.39475-0.32276 0.0491-0.12906 0.0892-1.1032 0.0892-2.1647 0-2.0455 0.0842-3.9097 0.17666-3.909 0.0306 1.86e-4 1.1214 1.104 2.424 2.4529 1.3027 1.3489 2.3839 2.41 2.4027 2.3582 0.0189-0.05184 4e-3 -1.032-0.0337-2.178-0.074-2.27-0.096-2.3548-0.61094-2.3548-0.14961 0-0.27201-0.03773-0.27201-0.08385 0-0.09996 2.09-0.08642 2.1905 0.01419 0.0383 0.03831-0.0395 0.06966-0.1728 0.06966-0.4677 0-0.53157 0.24502-0.53194 2.0408-4.7e-4 2.3543-0.10061 4.2744-0.22309 4.2784-0.0559 0.0018-1.16-1.0728-2.4535-2.3881zm-39.774 2.1705c0.21365-0.07371 0.34281-0.18867 0.38549-0.34306 0.0353-0.12771 0.0684-1.41 0.0734-2.8495 0.0102-2.8805 5e-3 -2.9092-0.55467-2.9092-0.1496 0-0.27201-0.03757-0.27201-0.08349 0-0.04711 0.7385-0.07431 1.6951-0.06242 1.5437 0.01919 1.7307 0.03942 2.0935 0.22656 0.5911 0.30488 0.77935 0.66405 0.74205 1.4157-0.024 0.48406-0.0853 0.69685-0.28957 1.0055-0.32123 0.48542-1.0268 0.84353-1.6404 0.83256l-0.41796-0.0075 0.32169-0.0923c0.76575-0.21971 1.1877-0.87991 1.094-1.7117-0.0827-0.7335-0.74318-1.3709-1.3662-1.3184l-0.32804 0.02762-0.0246 2.6585c-0.0135 1.4622 0.0118 2.7569 0.0563 2.8773 0.0571 0.15424 0.20142 0.25102 0.48904 0.32786 0.36331 0.09706 0.25524 0.10944-0.98515 0.1129-1.1938 0.0033-1.3472-0.01199-1.0719-0.10698zm13.332 0.0072c0.15326-0.05471 0.30935-0.14546 0.34689-0.20165 0.0375-0.0562 0.0689-0.63594 0.0697-1.2883l1e-3 -1.1861-0.36817 0.18782c-0.36604 0.18674-0.36873 0.18677-0.46632 0.0044-0.0868-0.16224-0.0443-0.21067 0.36817-0.41971l0.46632-0.2363v-1.3731c0-1.4841-0.0339-1.596-0.48299-1.596-0.14303 0-0.26007-0.03562-0.26007-0.07915 0-0.09703 2.4646-0.08791 2.562 0.0095 0.0383 0.03831-0.0543 0.06966-0.2059 0.06966-0.45522 0-0.49847 0.11857-0.49847 1.3667v1.1438l0.56098-0.28318c0.57356-0.28953 0.74221-0.29317 0.73565-0.01587-2e-3 0.10245-0.2285 0.26044-0.65018 0.45438l-0.64645 0.29732v1.1913c0 1.5773 0.0179 1.6042 1.0658 1.6042 0.42715 0 0.84763-0.02724 0.93441-0.06054 0.0868-0.0333 0.23923-0.23183 0.33879-0.44119l0.18101-0.38064-0.0432 0.5742c-0.0237 0.31581-0.0708 0.61884-0.10447 0.67339-0.0407 0.06587-0.75355 0.09673-2.1224 0.09186-1.5838-0.0056-1.9966-0.03037-1.7825-0.10681zm5.1334-0.0022c0.20459-0.06559 0.32574-0.17608 0.37152-0.33882 0.0374-0.13283 0.0679-1.4158 0.0679-2.851 0-2.8474-0.0125-2.917-0.52222-2.917-0.147 0-0.26728-0.03345-0.26728-0.07434s0.90236-0.07223 2.0052-0.06966l2.0052 0.0047-0.0537 0.32509c-0.0295 0.1788-0.0541 0.44003-0.0547 0.58051-1e-3 0.33085-0.16549 0.33258-0.20383 0.0022-0.0408-0.35184-0.36331-0.48678-1.1672-0.48841l-0.67339-0.0014v2.3348l0.85916-0.03258c0.47253-0.01792 0.92185-0.06315 0.99848-0.10052 0.11843-0.05775 0.1347 0.02973 0.10848 0.5835-0.017 0.35829-0.0692 0.65144-0.11611 0.65144-0.0469 0-0.0853-0.08061-0.0853-0.17913 0-0.3586-0.24547-0.47104-1.0283-0.47104h-0.73642v1.2008c0 0.93642 0.0303 1.2311 0.13748 1.3383 0.30478 0.30478 1.5737 0.30272 1.8287-3e-3 0.068-0.08156 0.17255-0.25715 0.23226-0.3902 0.1046-0.23308 0.10883-0.22773 0.1161 0.1468 4e-3 0.21379-0.0332 0.49591-0.083 0.62695l-0.0906 0.23825-1.976-0.0095c-1.5195-0.0073-1.9059-0.03197-1.6724-0.10681zm11.725 0.02424c0-0.05232 0.79501-1.3267 1.7667-2.8319 0.97168-1.5052 1.7933-2.8062 1.8259-2.891 0.0539-0.14038-0.058-0.15048-1.246-0.11257-1.466 0.04679-1.7057 0.13176-1.9377 0.68694-0.19349 0.46308-0.2573 0.39042-0.18646-0.21233 0.12119-1.0311-0.16462-0.92841 2.4537-0.88182 1.2611 0.02244 2.3097 0.05611 2.3302 0.07482 0.0508 0.0464-0.41869 0.8029-2.1445 3.4551-0.80782 1.2415-1.4688 2.2789-1.4688 2.3054 0 0.02647 0.64494 0.03474 1.4332 0.01837 1.6126-0.03348 1.8397-0.11427 2.056-0.7315 0.17657-0.50384 0.25055-0.13148 0.11252 0.56636l-0.11865 0.59979-2.4381 0.02476c-1.6181 0.01644-2.4382-0.0072-2.4382-0.07037zm14.468-0.02425c0.20506-0.06574 0.32538-0.17571 0.37072-0.33882 0.0369-0.13282 0.0675-1.4158 0.0679-2.851 8.8e-4 -2.8475-0.0115-2.917-0.52141-2.917-0.147 0-0.26728-0.03345-0.26728-0.07434s0.90172-0.07223 2.0038-0.06966l2.0038 0.0047-0.0533 0.26704c-0.0293 0.14687-0.0533 0.4081-0.0533 0.58051 0 0.37408-0.16085 0.42182-0.20282 0.0602-0.0408-0.35184-0.3633-0.48678-1.1672-0.48841l-0.67339-0.0014v2.322h0.7956c0.43758 0 0.87645-0.04327 0.97526-0.09615 0.16807-0.08994 0.17957-0.06147 0.17824 0.44119-9.3e-4 0.29554-0.0419 0.60003-0.0915 0.67666-0.0733 0.1134-0.0903 0.10167-0.0915-0.06303-3e-3 -0.38311-0.23428-0.49426-1.0298-0.49426h-0.73642v1.1897c0 1.5329 0.01 1.5479 1.0005 1.5479 0.80904 0 0.9669-0.0728 1.1895-0.54849 0.13058-0.27912 0.1325-0.27403 0.0932 0.24668-0.0221 0.29242-0.0666 0.57455-0.099 0.62695-0.0375 0.06075-0.77202 0.09183-2.0271 0.08579-1.514-0.0073-1.8982-0.03194-1.6647-0.10681zm9.5743-7.8486c0.68841-0.68841 0.71067-0.83107 0.71067-4.5542 0-3.4735 0.0182-3.3592-0.53407-3.3622-0.14048-7.43e-4 -0.25542-0.04322-0.25542-0.0943 0-0.05733 0.47989-0.09288 1.2539-0.09288s1.2539 0.03555 1.2539 0.09288c0 0.05109-0.0994 0.09288-0.22084 0.09288-0.12145 0-0.26503 0.05326-0.31905 0.11835-0.0631 0.07605-0.10868 1.1799-0.12748 3.0883-0.0283 2.8705-0.0364 2.9855-0.24282 3.4344-0.24798 0.53924-0.72341 1.0568-1.3271 1.4446-0.62176 0.39942-0.69489 0.33542-0.1917-0.16777zm-28.129-1.7513c-1.1476-0.30834-2.0793-1.1338-2.3648-2.0952-0.18629-0.6273-0.18286-1.6265 7e-3 -2.1873 0.48855-1.4392 1.7218-2.1752 3.6071-2.1527 1.0446 0.01247 2.0505 0.17946 2.0378 0.33828-5e-3 0.06386-0.0156 0.42958-0.0232 0.81272-0.015 0.74821-0.13935 0.92552-0.23401 0.33356-0.11249-0.70349-1.1099-1.1908-2.2499-1.0993-1.1599 0.0931-1.8731 0.78575-2.0815 2.0214-0.20469 1.2135 0.12717 2.2783 0.93693 3.0064 0.71104 0.63929 1.6858 0.86782 2.6084 0.61156 0.3482-0.09671 0.91324-0.63954 0.91324-0.87735 0-0.07184 0.0474-0.15993 0.10541-0.19576 0.11813-0.07301 0.0479 0.61987-0.11543 1.1389-0.081 0.25747-0.15227 0.30798-0.55686 0.39475-0.64856 0.13909-1.983 0.1134-2.5907-0.04988zm23.887 0.05c-1.0431-0.20527-1.9921-0.90963-2.4315-1.8047-0.19576-0.39873-0.22828-0.59702-0.22999-1.4021-2e-3 -0.8901 0.0145-0.97005 0.3231-1.5755 0.3619-0.71003 0.94234-1.2273 1.6719-1.4899 0.95286-0.34301 3.7723-0.21403 3.754 0.17172-4e-3 0.0894-0.0147 0.45512-0.0232 0.81272-9e-3 0.36121-0.0568 0.65017-0.10837 0.65017-0.0511 0-0.0929-0.12218-0.0929-0.27152 0-0.15742-0.10225-0.39304-0.24332-0.56069-0.37488-0.44552-0.79877-0.59043-1.7536-0.59951-0.99651-0.0095-1.4615 0.18535-1.9056 0.79839-0.36709 0.50675-0.49171 0.98667-0.49111 1.8912 0 0.61808 0.0455 0.84728 0.26135 1.3283 0.46692 1.0404 1.426 1.6871 2.5002 1.686 0.91522-1e-3 1.4589-0.30634 1.7357-0.97474 0.0963-0.2325 0.1201-0.24788 0.14393-0.09288 0.0157 0.10217-0.0231 0.43654-0.0863 0.74306-0.11441 0.55543-0.11618 0.55765-0.53276 0.66592-0.48358 0.12568-1.9056 0.13949-2.4914 0.02419zm-54.956-0.08638c0.0316-0.05109 0.16047-0.09288 0.28643-0.09288 0.16038 0 0.25617-0.07141 0.3196-0.23825 0.12425-0.32679 0.11924-5.3862-6e-3 -5.6194-0.0612-0.11434-0.19427-0.17966-0.36605-0.17966-0.14844 0-0.29573-0.0418-0.3273-0.09288-0.0986-0.15962 2.9002-0.11804 3.4592 0.04797 0.8031 0.2385 1.1961 0.90788 1.0361 1.7646-0.17259 0.92388-0.8213 1.4962-1.8118 1.5984-0.38834 0.04008-0.51196 0.02602-0.46331-0.0527 0.0365-0.05905 0.14956-0.10737 0.25125-0.10737 0.56245 0 1.106-0.69321 1.1024-1.4059-5e-3 -0.90756-0.60343-1.5957-1.3447-1.5452l-0.37153 0.0253-0.0226 2.6471c-0.025 2.9256 2.8e-4 3.0882 0.48918 3.1419 0.15207 0.0167 0.3162 0.06895 0.36473 0.1161 0.054 0.0525-0.44309 0.08573-1.2826 0.08573-0.89024 0-1.3507-0.03256-1.3134-0.09288zm3.9475 0c0-0.05109 0.11811-0.09288 0.26246-0.09288 0.1527 0 0.34367-0.08739 0.45668-0.20898 0.10683-0.11494 0.70314-1.4833 1.3251-3.0408s1.1743-2.913 1.2274-3.0122c0.0915-0.17103 0.10269-0.17187 0.21642-0.01633 0.0659 0.09019 0.61426 1.3965 1.2185 2.903 1.1694 2.9156 1.4275 3.3753 1.8948 3.3753 0.14954 0 0.27188 0.0418 0.27188 0.09288 0 0.05654-0.41796 0.09288-1.0681 0.09288-0.96427 0-1.245-0.06548-0.98084-0.22875 0.0523-0.03235 0.0389-0.17399-0.0337-0.35379-0.0665-0.16491-0.23485-0.60286-0.37406-0.97323l-0.2531-0.67339h-2.0025l-0.29097 0.77095c-0.36415 0.96482-0.37968 1.2724-0.0643 1.2724 0.1247 0 0.25256 0.0418 0.28413 0.09288 0.037 0.05987-0.32412 0.09288-1.0162 0.09288-0.65382 0-1.0736-0.03632-1.0736-0.09288zm3.9726-2.6239c-0.0227-0.06386-0.20062-0.56751-0.3954-1.1192-0.19478-0.55172-0.38655-0.96969-0.42616-0.92882-0.0617 0.06368-0.82894 2.0354-0.82894 2.1303 0 0.01861 0.38064 0.03384 0.84587 0.03384 0.63678 0 0.83568-0.0287 0.80463-0.1161zm3.1794 2.6239c0-0.05109 0.10553-0.09288 0.2345-0.09288 0.16626 0 0.26087-0.06933 0.32509-0.23825 0.13802-0.36303 0.11899-5.5477-0.0209-5.6876-0.0613-0.0613-0.22602-0.11146-0.36604-0.11146s-0.28289-0.04579-0.31748-0.10176c-0.045-0.07283 0.43526-0.09205 1.6896-0.06761 1.5991 0.03116 1.7869 0.05237 2.146 0.24233 0.46129 0.24405 0.76753 0.76206 0.76753 1.2983 0 0.45787-0.3873 1.2353-0.7927 1.5913l-0.31579 0.27727 0.61422 0.77179c1.1517 1.4472 1.7956 2.0257 2.2544 2.0257 0.10471 0 0.19038 0.04691 0.19038 0.10424 0 0.07214-0.25207 0.09219-0.81861 0.0651-1.0437-0.0499-1.191-0.15128-2.2084-1.5194-0.42653-0.57356-0.84289-1.0687-0.92525-1.1003-0.0824-0.0316-0.29261-0.05746-0.46723-0.05746h-0.31749v1.0742c0 1.2567 0.0634 1.4336 0.51412 1.4336 0.177 0 0.32182 0.0418 0.32182 0.09288 0 0.05733-0.47989 0.09288-1.2539 0.09288-0.77401 0-1.2539-0.03555-1.2539-0.09288zm3.0934-3.232c0.43568-0.45475 0.4985-1.5304 0.12285-2.1037-0.23919-0.36506-0.59679-0.55162-1.0681-0.55724l-0.42988-0.0051-0.0259 1.3425c-0.0142 0.73838-5e-3 1.3967 0.0203 1.4629 0.0305 0.07958 0.23017 0.12037 0.58902 0.12037 0.47313 0 0.57479-0.03336 0.79169-0.25975zm4.1049 3.232c0.0316-0.05109 0.15496-0.09288 0.27419-0.09288s0.25074-0.07314 0.29223-0.16254c0.0415-0.0894 0.0911-1.3901 0.11028-2.8904l0.0348-2.7279-0.94964 0.03814c-0.94946 0.03814-0.94969 0.0382-1.2149 0.3559-0.29884 0.35796-0.32439 0.28448-0.1629-0.4685 0.0908-0.42346 0.12488-0.47129 0.30186-0.42381 0.10973 0.02944 1.8047 0.0541 3.7666 0.05479 3.5515 0.0013 3.5664 0.0021 3.4004 0.18553-0.1622 0.17923-0.1457 0.22105 0.60469 1.5326 0.42429 0.74156 0.79859 1.3483 0.83177 1.3483 0.0332 0 0.13004-0.13584 0.21524-0.30186 0.0852-0.16603 0.38494-0.71983 0.66607-1.2307 0.55026-0.99987 0.60333-1.2119 0.35123-1.4033-0.1384-0.10506-0.0134-0.12383 0.84141-0.12634 0.64637-0.0019 0.98352 0.03013 0.94656 0.08993-0.0316 0.05109-0.15456 0.09288-0.27332 0.09288-0.28394 0-0.72062 0.49113-1.3698 1.5406-1.0503 1.698-1.0504 1.6983-1.0504 3.0196 0 1.2905 0.0653 1.4771 0.51674 1.4771 0.14398 0 0.28762 0.0418 0.3192 0.09288 0.0372 0.06024-0.40153 0.09288-1.2484 0.09288-0.80863 0-1.3058-0.03536-1.3058-0.09288 0-0.05109 0.10302-0.09288 0.22893-0.09288 0.13128 0 0.26995-0.07663 0.32509-0.17966 0.14925-0.27887 0.12096-2.1819-0.0381-2.5625-0.21219-0.50786-1.5541-2.6472-1.8737-2.9871-0.44378-0.47201-0.59122-0.4165-0.60034 0.22603l-8e-3 0.53407-0.13004-0.29703c-0.15802-0.36096-0.54375-0.4912-1.457-0.49195l-0.62695-5.18e-4v2.6411c0 1.4913 0.0394 2.7448 0.0906 2.8793 0.0732 0.19249 0.1524 0.23825 0.41248 0.23825 0.17705 0 0.34774 0.0418 0.37931 0.09288 0.0373 0.0603-0.41883 0.09288-1.3003 0.09288-0.88152 0-1.3376-0.03258-1.3004-0.09288zm18.391 0c0.0316-0.05109 0.15863-0.09288 0.28236-0.09288 0.30383 0 0.36785-0.26681 0.36767-1.5326-1.8e-4 -1.1585 0.0171-1.112-1.0497-2.8329-0.66403-1.0712-1.176-1.6719-1.4249-1.6719-0.0888 0-0.18727-0.0418-0.21884-0.09288-0.0371-0.06006 0.34663-0.09184 1.0859-0.08993 0.97068 0.0025 1.1187 0.02158 0.98074 0.12634-0.0894 0.06786-0.16254 0.17464-0.16254 0.23729 0 0.08142 1.375 2.5734 1.5255 2.7647 0.0326 0.04141 1.2202-2.1634 1.333-2.4747 0.10966-0.30263 0.10272-0.33921-0.0929-0.48976-0.20534-0.15804-0.18266-0.16275 0.79257-0.16476 0.9478-2e-3 1.2329 0.09393 0.63486 0.21353-0.31649 0.0633-0.60299 0.40934-1.3595 1.642-0.92701 1.5105-0.97397 1.6506-0.97501 2.9087-1e-3 1.2762 0.0619 1.4568 0.50773 1.4568 0.17398 0 0.34217 0.0418 0.37374 0.09288 0.0373 0.0603-0.41883 0.09288-1.3004 0.09288-0.88151 0-1.3376-0.03258-1.3003-0.09288zm4.737 0c0.0316-0.05109 0.13342-0.09288 0.22631-0.09288 0.40107 0 0.42386-0.16232 0.42386-3.0184 0-2.9577-0.0106-3.019-0.52222-3.019-0.147 0-0.26727-0.04578-0.26727-0.10174 0-0.07119 0.50903-0.09211 1.6951-0.06966 1.6069 0.03041 1.7164 0.04416 2.1038 0.26428 1.5146 0.86044 0.57031 3.2509-1.2842 3.2509-0.17406 0-0.27286-0.03837-0.23917-0.09288 0.0316-0.05109 0.16361-0.09288 0.29342-0.09288 0.32677 0 0.82703-0.52609 0.95612-1.0055 0.26145-0.97096-0.40575-1.9655-1.3192-1.9664l-0.3483-3.48e-4v2.7461c0 1.7153 0.0361 2.8136 0.0961 2.9258 0.0667 0.12455 0.19486 0.17966 0.41797 0.17966 0.177 0 0.32182 0.0418 0.32182 0.09288 0 0.05752-0.4972 0.09288-1.3058 0.09288-0.84689 0-1.2856-0.03264-1.2484-0.09288zm3.901 0c0.0316-0.05109 0.16259-0.09288 0.29115-0.09288 0.12857 0 0.31815-0.09475 0.42131-0.21056 0.10315-0.11581 0.71954-1.5365 1.3698-3.157 0.65021-1.6206 1.2112-2.9755 1.2466-3.0109 0.0354-0.03544 0.1009-0.02542 0.14546 0.02226 0.0446 0.04768 0.54886 1.257 1.1206 2.6874 1.2492 3.125 1.4357 3.4962 1.8139 3.6102 0.57952 0.17465 0.53052 0.19865-0.45843 0.22449-1.0694 0.02794-1.4052-0.01866-1.1722-0.16266 0.13242-0.08184-8e-3 -0.57399-0.47064-1.655l-0.17046-0.39791-1.9981 0.05276-0.31513 0.85405c-0.17332 0.46973-0.29019 0.91904-0.2597 0.99848 0.0305 0.07944 0.16122 0.14443 0.29054 0.14443 0.12931 0 0.23512 0.0418 0.23512 0.09288 0 0.05656-0.4198 0.09288-1.0736 0.09288-0.6921 0-1.0532-0.03301-1.0162-0.09288zm3.9475-2.6331c0-0.15527-0.64736-1.9366-0.74126-2.0397-0.0612-0.06725-0.83773 1.8564-0.83773 2.0753 0 0.05051 0.3444 0.08959 0.7895 0.08959 0.60042 0 0.78949-0.02999 0.78949-0.12525zm13.514 2.6331c0.0316-0.05109 0.15495-0.09288 0.27419-0.09288 0.11923 0 0.24988-0.07314 0.29033-0.16254 0.10655-0.23554 0.16467-5.1191 0.0655-5.5038-0.063-0.24418-0.13985-0.33227-0.3104-0.35566-0.1247-0.0171-0.26643-0.06934-0.31496-0.1161-0.0536-0.0516 0.39371-0.08502 1.1378-0.08502 0.75544 0 1.226 0.03565 1.226 0.09288 0 0.05109-0.0961 0.09288-0.21362 0.09288-0.1175 0-0.26379 0.05016-0.32509 0.11146-0.14528 0.14527-0.15948 5.4768-0.0153 5.7462 0.0662 0.12363 0.19479 0.17966 0.41249 0.17966 0.17399 0 0.34217 0.0418 0.37374 0.09288 0.0373 0.0603-0.41883 0.09288-1.3004 0.09288-0.88151 0-1.3376-0.03258-1.3003-0.09288zm-88.423-7.3947c-0.10217-0.07921-0.50835-0.30756-0.90264-0.50745-1.9953-1.0115-4.3582-1.1942-6.4117-0.4958-0.36279 0.1234-0.67321 0.22436-0.6898 0.22436-0.0166 0-0.0302-0.12204-0.0302-0.2712 0-0.25889 0.0284-0.27764 0.62695-0.41299 1.173-0.26528 1.8329-0.33611 3.1348-0.33643 1.9675-4.65e-4 3.5767 0.32269 5.1527 1.0348l0.60149 0.27181-0.57987 0.3214c-0.66123 0.36648-0.6524 0.3648-0.90177 0.17146zm66.271-0.0747c0-0.02138 0.14665-0.12951 0.3259-0.24029 0.52915-0.32703 0.78934-0.8783 0.88597-1.8771 0.0981-1.0137 0.1071-5.247 0.0123-5.7851-0.0609-0.34553-0.0946-0.37913-0.48228-0.48016-0.37261-0.0971-0.27392-0.10864 0.92994-0.10877 1.0606-1.12e-4 1.2876 0.02074 1.0681 0.09812-0.15326 0.05405-0.29954 0.11683-0.32509 0.13951-0.0255 0.02269-0.0673 1.4067-0.0929 3.0756l-0.0464 3.0344-0.26064 0.53077c-0.27551 0.56104-0.89104 1.176-1.4772 1.4757-0.32867 0.16808-0.53777 0.22149-0.53777 0.13737zm-33.361-2.1341c-0.62768-0.16901-1.0801-0.55401-1.3641-1.1608-0.23735-0.50715-0.24457-0.5772-0.27606-2.6761-0.0222-1.483-0.0659-2.183-0.1398-2.244-0.0591-0.04879-0.25375-0.13051-0.43255-0.18159-0.2544-0.07268-0.0322-0.09311 1.0217-0.09392 1.068-8.27e-4 1.2891 0.01955 1.0681 0.09843-0.15325 0.05471-0.30935 0.14546-0.34688 0.20165-0.10525 0.1576-0.0825 4.1442 0.0259 4.5344 0.11424 0.41134 0.47443 0.86297 0.8383 1.0511 0.14464 0.07479 0.48448 0.1353 0.75522 0.13446 0.63915-2e-3 1.1517-0.28786 1.4128-0.78797 0.17825-0.3414 0.19634-0.55284 0.22304-2.6077 0.0318-2.4491 0.0505-2.3618-0.53991-2.5305-0.2584-0.07382-0.0774-0.09288 0.88238-0.09288 0.87292 0 1.1271 0.02331 0.91727 0.08413-0.1596 0.04627-0.33365 0.13655-0.38678 0.20061-0.0578 0.06964-0.11257 0.95672-0.13631 2.2063-0.0456 2.3974-0.0949 2.6214-0.71853 3.265-0.64835 0.6691-1.7055 0.89508-2.8039 0.59934zm9.4568-1.4651c-0.88336-0.88536-1.9546-1.9855-2.3805-2.4448l-0.77438-0.83508 0.0645 2.0863c0.0717 2.3162 0.11932 2.5096 0.61842 2.5096 0.15208 0 0.27651 0.03631 0.27651 0.08069 0 0.10334-2.2212 0.10029-2.2851-0.0031-0.0264-0.04265 0.0748-0.07755 0.22482-0.07755 0.51629 0 0.5236-0.04209 0.57415-3.3039 0.0255-1.6484 0.0694-3.0198 0.0974-3.0477 0.028-0.0279 1.113 1.045 2.411 2.3842 1.298 1.3392 2.3904 2.4479 2.4275 2.4638 0.089 0.03816-0.0182-4.0578-0.11288-4.314-0.0462-0.12493-0.20446-0.23302-0.42798-0.29227-0.29223-0.07746-0.15025-0.09423 0.80634-0.09524 0.86869-9.2e-4 1.0856 0.02058 0.8613 0.08538-0.16485 0.04763-0.33861 0.15926-0.38614 0.24807-0.0475 0.08881-0.11716 1.4893-0.15474 3.1122-0.0376 1.6229-0.10565 2.9738-0.15127 3.002-0.0456 0.02819-0.80568-0.67313-1.689-1.5585zm20.189 1.4743c-1.124-0.25776-1.9828-0.89337-2.41-1.7837-0.32694-0.68132-0.37584-1.9382-0.10351-2.6608 0.27516-0.73013 0.81464-1.3089 1.5642-1.678 0.5878-0.2895 0.67996-0.30655 1.7831-0.32994 1.1067-0.02346 2.2495 0.11962 2.2368 0.28008-3e-3 0.03831-5e-3 0.40404-5e-3 0.81272 0 0.77712-0.12173 0.995-0.21834 0.39081-0.10918-0.68273-0.90724-1.1344-2.0024-1.1333-0.72724 7.24e-4 -1.172 0.14608-1.5829 0.51729-0.86667 0.78298-1.0812 2.5298-0.45629 3.7159 0.27322 0.51862 0.70487 0.9462 1.2412 1.2296 0.38871 0.20534 0.58555 0.24563 1.2075 0.24713 0.9151 0.0022 1.304-0.18564 1.579-0.76267 0.24565-0.5155 0.35179-0.49871 0.27058 0.04281-0.11175 0.74519-0.1805 0.90295-0.45066 1.0341-0.36077 0.17516-2.0168 0.22387-2.6528 0.07803zm-36.874-0.08509c0-0.04026 0.10303-0.07319 0.22894-0.07319 0.13128 0 0.26995-0.07663 0.32509-0.17966 0.06-0.1122 0.0962-1.2088 0.0962-2.9205 0-2.727-1e-3 -2.7416-0.20643-2.8854-0.11354-0.07952-0.31207-0.15347-0.44119-0.16432-0.16217-0.01363 3.751-0.13083 3.9614-0.11864 0.0626 0.0036-0.1055 1.1601-0.16865 1.1601-0.044 0-0.08-0.10302-0.08-0.22894 0-0.32975-0.25084-0.42124-1.1549-0.42124h-0.7956v2.322h0.76883c0.55483 0 0.82796-0.04142 0.98126-0.1488 0.11684-0.08184 0.22149-0.13408 0.23256-0.1161 0.061 0.09914-0.0617 1.2866-0.13294 1.2866-0.0467 0-0.085-0.08122-0.085-0.1805 0-0.31737-0.35308-0.46968-1.0888-0.46968h-0.67595v1.3529c0 0.75496 0.0425 1.4323 0.0962 1.5326 0.0667 0.12455 0.19485 0.17966 0.41797 0.17966 0.177 0 0.32182 0.03584 0.32182 0.07964s-0.58516 0.07674-1.3004 0.07319c-0.71519-0.0035-1.3004-0.03939-1.3004-0.07964zm20.527-0.0035c-3e-5 -0.03831 0.10548-0.06966 0.23446-0.06966 0.16626 0 0.26086-0.06933 0.32508-0.23825 0.1421-0.37373 0.11879-5.5673-0.0255-5.6864-0.0639-0.05273-0.2624-0.13768-0.44119-0.18876-0.60296-0.17227 3.5149-0.13631 4.2784 0.03736 0.80106 0.1822 1.4293 0.58968 1.8273 1.1852 0.40672 0.60858 0.51595 1.0758 0.47124 2.0158-0.033 0.6946-0.0787 0.86865-0.36567 1.3932-0.40369 0.73796-1.0097 1.2266-1.844 1.487-0.53743 0.1677-0.80856 0.18495-2.531 0.16101-1.061-0.01475-1.9291-0.05816-1.9291-0.09647zm4.3654-0.48048c0.85851-0.44419 1.1372-0.97117 1.1893-2.2486 0.0353-0.86681 0.0186-0.98509-0.21193-1.4988-0.30917-0.68892-0.67499-1.0514-1.3913-1.3788-0.45596-0.20836-0.69152-0.25416-1.3396-0.26045l-0.78638-0.0076-0.0881 0.32509c-0.0935 0.34482-0.0301 4.6712 0.0724 4.9342 0.10793 0.27712 0.44172 0.35901 1.3482 0.33074 0.6268-0.01955 0.97653-0.07623 1.2075-0.19572zm2.322 0.49332c0-0.04537 0.1181-0.0825 0.26245-0.0825 0.15529 0 0.34607-0.089 0.46722-0.21796 0.11262-0.11988 0.73876-1.5514 1.3914-3.1812 0.69064-1.7246 1.2363-2.9632 1.3054-2.9632 0.0687 0 0.55998 1.097 1.1648 2.6007 1.4583 3.6255 1.5358 3.7617 2.1421 3.7617 0.13888 0 0.21909 0.03997 0.18639 0.09288-0.0316 0.05109-0.40499 0.09288-0.82981 0.09288-0.88005 0-1.427-0.08256-1.2543-0.18933 0.0847-0.05237 0.0217-0.32054-0.24794-1.0545l-0.36156-0.98426-2.0485-0.001081-0.30736 0.82943c-0.35305 0.95269-0.35112 1.1551 0.0114 1.1969 0.14004 0.01617 0.25463 0.05866 0.25463 0.09445 0 0.03578-0.48067 0.07013-1.0681 0.07633-0.58748 0.0062-1.0681-0.02585-1.0681-0.07123zm3.9935-2.66c-2.8e-4 -0.03831-0.14719-0.46673-0.32655-0.95204-0.17935-0.48531-0.34732-0.94061-0.37326-1.0118-0.0259-0.07117-0.0692-0.1074-0.096-0.08052-0.0602 0.06019-0.78269 1.9471-0.78269 2.0441 0 0.03845 0.35528 0.0699 0.7895 0.0699s0.78929-0.03135 0.78904-0.06966zm12.261 2.6595c0-0.04509 0.11811-0.08198 0.26246-0.08198 0.15274 0 0.34359-0.08736 0.45655-0.20898 0.10675-0.11494 0.72443-1.5362 1.3726-3.1584 0.64818-1.6222 1.2206-2.9755 1.2722-3.0073s0.12998-2.69e-4 0.1744 0.07013c0.0444 0.0704 0.5876 1.3928 1.2071 2.9386 1.1771 2.9372 1.4175 3.3661 1.8866 3.3661 0.13275 0 0.24138 0.0418 0.24138 0.09288 0 0.05453-0.32122 0.09288-0.77789 0.09288-0.87895 0-1.4326-0.08252-1.2618-0.18807 0.0819-0.05059 0.0148-0.32553-0.25159-1.0318l-0.36318-0.96284-2.0576-0.0523-0.29949 0.83058c-0.34497 0.95671-0.3416 1.1599 0.02 1.2016 0.14005 0.01617 0.25463 0.06047 0.25463 0.09847 0 0.03799-0.48066 0.07211-1.0681 0.07581-0.58747 0.0037-1.0681-0.03016-1.0681-0.07525zm3.9939-2.6252c0-0.0726-0.66087-1.8579-0.74025-1.9997-0.0914-0.16338-0.075-0.19658-0.56809 1.1473-0.14886 0.40569-0.27065 0.77141-0.27065 0.81272 0 0.04131 0.35527 0.0751 0.78949 0.0751 0.43423 0 0.7895-0.01591 0.7895-0.03536z" fill="#6d7073"/></g></g></svg>
