<?xml version="1.0" encoding="UTF-8" standalone="no"?>
<!-- Created with Inkscape (http://www.inkscape.org/) -->

<svg
   xmlns:dc="http://purl.org/dc/elements/1.1/"
   xmlns:cc="http://creativecommons.org/ns#"
   xmlns:rdf="http://www.w3.org/1999/02/22-rdf-syntax-ns#"
   xmlns:svg="http://www.w3.org/2000/svg"
   xmlns="http://www.w3.org/2000/svg"
   xmlns:sodipodi="http://sodipodi.sourceforge.net/DTD/sodipodi-0.dtd"
   xmlns:inkscape="http://www.inkscape.org/namespaces/inkscape"
   width="73.659996mm"
   height="73.659996mm"
   viewBox="0 0 73.659996 73.659996"
   version="1.1"
   id="svg8"
   inkscape:version="0.92.1 r15371"
   sodipodi:docname="messenger.svg">
  <defs
     id="defs2" />
  <sodipodi:namedview
     id="base"
     pagecolor="#ffffff"
     bordercolor="#666666"
     borderopacity="1.0"
     inkscape:pageopacity="0.0"
     inkscape:pageshadow="2"
     inkscape:zoom="2.4007812"
     inkscape:cx="133.31079"
     inkscape:cy="145.66854"
     inkscape:document-units="mm"
     inkscape:current-layer="g4537"
     showgrid="false"
     fit-margin-top="0"
     fit-margin-left="0"
     fit-margin-right="0"
     fit-margin-bottom="0"
     inkscape:window-width="1920"
     inkscape:window-height="1051"
     inkscape:window-x="-9"
     inkscape:window-y="-9"
     inkscape:window-maximized="1" />
  <metadata
     id="metadata5">
    <rdf:RDF>
      <cc:Work
         rdf:about="">
        <dc:format>image/svg+xml</dc:format>
        <dc:type
           rdf:resource="http://purl.org/dc/dcmitype/StillImage" />
        <dc:title></dc:title>
      </cc:Work>
    </rdf:RDF>
  </metadata>
  <g
     inkscape:label="Layer 1"
     inkscape:groupmode="layer"
     id="layer1"
     transform="translate(-143.12732,-148.00345)">
    <g
       id="g4496"
       transform="translate(59.952706,93.896518)">
      <g
         id="g4537">
        <g
           id="g4566"
           transform="matrix(0.83809882,0,0,0.83809882,50.482671,-8.5493397)"
           style="fill:#ffffff;fill-opacity:1">
          <path
             style="fill:#ffffff;fill-opacity:1;stroke-width:0.21166666"
             d="m 65.667825,144.24573 c -0.0776,-0.0776 -0.14111,-2.1847 -0.14111,-4.68243 v -4.54133 l -1.943,-1.82631 c -1.06865,-1.00447 -2.512025,-2.58832 -3.207507,-3.51965 -1.610073,-2.15608 -3.344644,-5.75164 -4.084484,-8.46666 -0.522154,-1.91617 -0.577856,-2.46755 -0.588042,-5.82083 -0.0096,-3.15818 0.05842,-3.97997 0.46144,-5.57529 2.211379,-8.75358 8.561733,-15.469184 17.435353,-18.438175 3.08156,-1.031048 5.67901,-1.444732 9.07124,-1.444732 12.79236,0 23.515695,8.043706 26.506575,19.882907 0.40302,1.59532 0.47104,2.41711 0.46144,5.57529 -0.0102,3.35328 -0.0659,3.90466 -0.58804,5.82083 -1.94217,7.12726 -6.9607,13.11289 -13.826915,16.49143 -3.75775,1.84902 -7.07121,2.66034 -11.49473,2.81455 -2.92656,0.10202 -4.13869,0.006 -7.53302,-0.59415 l -1.50052,-0.26549 -4.2533,2.36558 c -2.33931,1.30106 -4.33902,2.36557 -4.44379,2.36557 -0.10476,0 -0.25398,-0.0635 -0.33159,-0.14111 z m 25.99972,-26.88415 c 7.19593,-7.62662 7.81228,-8.30717 7.66081,-8.45864 -0.0655,-0.0655 -2.80531,1.36697 -6.08848,3.18325 -3.28317,1.81628 -6.12769,3.30233 -6.32116,3.30233 -0.19347,0 -1.80705,-1.524 -3.58573,-3.38667 -1.77869,-1.86267 -3.35908,-3.38667 -3.51199,-3.38667 -0.29478,0 -13.87095,14.33372 -13.87095,14.64495 0,0.23556 0.3138,0.0736 6.9746,-3.59981 l 5.59877,-3.08771 3.38606,3.53545 c 1.86234,1.9445 3.48627,3.53533 3.60874,3.53518 0.12246,-1.5e-4 2.88966,-2.8269 6.14933,-6.28166 z"
             id="path4568"
             inkscape:connector-curvature="0" />
        </g>
      </g>
    </g>
  </g>
</svg>
