<?xml version="1.0" encoding="UTF-8" standalone="no"?>
<!-- Created with Inkscape (http://www.inkscape.org/) -->

<svg
   xmlns:dc="http://purl.org/dc/elements/1.1/"
   xmlns:cc="http://creativecommons.org/ns#"
   xmlns:rdf="http://www.w3.org/1999/02/22-rdf-syntax-ns#"
   xmlns:svg="http://www.w3.org/2000/svg"
   xmlns="http://www.w3.org/2000/svg"
   xmlns:sodipodi="http://sodipodi.sourceforge.net/DTD/sodipodi-0.dtd"
   xmlns:inkscape="http://www.inkscape.org/namespaces/inkscape"
   width="103.7225mm"
   height="30.781658mm"
   viewBox="0 0 103.7225 30.781659"
   version="1.1"
   id="svg8"
   inkscape:version="0.92.1 r15371"
   sodipodi:docname="mountains.svg">
  <defs
     id="defs2">
    <clipPath
       clipPathUnits="userSpaceOnUse"
       id="clipPath4555">
      <rect
         style="opacity:0.5;fill:#000000;fill-opacity:1;fill-rule:nonzero;stroke:none;stroke-width:341.40615845;stroke-linecap:round;stroke-linejoin:miter;stroke-miterlimit:4;stroke-dasharray:none;stroke-dashoffset:0;stroke-opacity:1;paint-order:markers stroke fill"
         id="rect4557"
         width="103.7225"
         height="30.859583"
         x="65.909477"
         y="116.52648" />
    </clipPath>
  </defs>
  <sodipodi:namedview
     id="base"
     pagecolor="#ffffff"
     bordercolor="#666666"
     borderopacity="1.0"
     inkscape:pageopacity="0.0"
     inkscape:pageshadow="2"
     inkscape:zoom="9.603125"
     inkscape:cx="25.27048"
     inkscape:cy="39.541208"
     inkscape:document-units="mm"
     inkscape:current-layer="g4553"
     showgrid="false"
     fit-margin-top="0"
     fit-margin-left="0"
     fit-margin-right="0"
     fit-margin-bottom="0"
     inkscape:window-width="1920"
     inkscape:window-height="1051"
     inkscape:window-x="-9"
     inkscape:window-y="-9"
     inkscape:window-maximized="1"
     inkscape:lockguides="false" />
  <metadata
     id="metadata5">
    <rdf:RDF>
      <cc:Work
         rdf:about="">
        <dc:format>image/svg+xml</dc:format>
        <dc:type
           rdf:resource="http://purl.org/dc/dcmitype/StillImage" />
        <dc:title></dc:title>
      </cc:Work>
    </rdf:RDF>
  </metadata>
  <g
     inkscape:label="Layer 1"
     inkscape:groupmode="layer"
     id="layer1"
     transform="translate(-11.136509,-52.992043)">
    <g
       id="g4496"
       transform="translate(-59.952706,-39.894999)">
      <g
         id="g4515"
         transform="translate(5.1797375,-23.63944)">
        <g
           id="g4553"
           clip-path="url(#clipPath4555)">
          <path
             inkscape:connector-curvature="0"
             id="path4523"
             d="m 65.945905,125.58519 c 1.095584,-1.30855 1.103726,-1.31253 1.795816,-0.87702 0.382383,0.24062 0.832641,0.60908 1.000572,0.81881 0.201363,0.25148 0.36434,0.28583 0.478635,0.1009 0.09532,-0.15423 0.797814,-0.28042 1.5611,-0.28042 1.452907,0 3.13374,0.82238 4.244381,2.07663 0.277215,0.31306 0.675554,0.56921 0.885197,0.56921 0.209644,0 0.697206,0.21875 1.083473,0.48611 0.386266,0.26736 0.911538,0.56162 1.167272,0.6539 0.255734,0.0923 0.788481,0.70338 1.183881,1.358 0.520883,0.86235 0.939411,1.23599 1.519405,1.35644 0.440271,0.0914 1.060309,0.3306 1.377861,0.53148 0.524972,0.3321 0.624209,0.30094 1.093551,-0.34336 0.489074,-0.67139 0.548939,-0.68686 1.139872,-0.29449 0.553157,0.36728 0.691232,0.36986 1.220962,0.0228 0.549241,-0.35987 0.641242,-0.34106 1.144032,0.23401 0.394338,0.45102 0.586547,0.52865 0.689489,0.27845 0.112019,-0.27225 0.246218,-0.25325 0.623657,0.0883 0.450763,0.40793 0.534469,0.38406 1.334717,-0.3807 0.78336,-0.74862 1.833645,-1.09971 1.833645,-0.61295 0,0.11164 0.554439,0.83679 1.232088,1.61144 1.077462,1.2317 1.333095,1.39364 2.036905,1.29034 0.464648,-0.0682 1.296948,0.0996 1.969164,0.39693 0.64039,0.28327 1.405358,0.45202 1.699924,0.37499 0.312267,-0.0817 0.840574,0.0854 1.267056,0.40074 l 0.73147,0.54081 1.88162,-0.59385 c 1.03488,-0.32662 2.50271,-0.994 3.26183,-1.48307 0.75912,-0.48908 1.63755,-0.88923 1.95206,-0.88923 0.31451,0 0.70624,-0.16194 0.8705,-0.35986 0.16426,-0.19793 0.57531,-0.30698 0.91344,-0.24235 0.44697,0.0855 0.73785,-0.0703 1.06568,-0.57065 0.37405,-0.57087 0.53957,-0.64072 0.97105,-0.40981 0.35154,0.18814 0.68085,0.19235 1.01599,0.013 0.3771,-0.20182 0.5988,-0.15164 0.92564,0.20951 0.50356,0.55643 1.97922,0.45613 2.4337,-0.16542 0.16011,-0.21896 0.82424,-0.42395 1.5254,-0.47083 1.15375,-0.0771 1.38125,-0.22381 3.20794,-2.06837 l 1.96612,-1.98535 1.46345,0.15104 c 1.40409,0.14491 1.52214,0.10674 2.90995,-0.94107 1.22396,-0.9241 1.62176,-1.45754 2.58578,-3.46743 l 1.13929,-2.37532 1.78038,1.59707 c 2.50355,2.24577 2.71783,2.18643 4.87314,-1.34957 0.93135,-1.52797 1.79305,-2.81229 1.9149,-2.85405 0.12184,-0.0418 1.11818,0.52378 2.21408,1.25677 1.09591,0.73298 2.22867,1.3327 2.51726,1.3327 1.59719,0 2.06564,-0.30246 3.10783,-2.00658 0.96469,-1.57741 1.10522,-1.69759 1.98504,-1.69759 1.11083,0 2.26743,1.05934 3.79296,3.47399 0.65546,1.03749 1.16564,1.5454 1.68088,1.6734 0.40688,0.10107 1.35712,0.82973 2.11165,1.61924 1.19934,1.25493 1.50091,1.43546 2.39789,1.43546 0.78834,0 1.19745,-0.17893 1.766,-0.77237 0.72323,-0.75488 0.76611,-0.76449 1.89528,-0.42466 0.6467,0.19463 1.44198,0.68838 1.80648,1.12157 0.35815,0.42564 1.11592,0.98345 1.68393,1.23959 0.9391,0.42347 1.11905,0.42965 1.98437,0.0681 0.52339,-0.21868 1.19721,-0.33339 1.49738,-0.25489 0.53992,0.14119 0.54576,0.25697 0.54576,10.82748 l -1e-5,10.68477 h -56.88541 c -23.110232,0.9722 -47.187468,0.77872 -47.187468,0.77872 z"
             style="fill:#252525;stroke-width:0.26458332"
             sodipodi:nodetypes="ccccssscccccccccccssccccccccscccccccccccscccsccscscccsccccccscccc" />
          <path
             inkscape:connector-curvature="0"
             id="path4521"
             d="m 65.923425,125.63713 1.190625,-1.33497 0.859896,0.54863 c 0.472943,0.30175 0.859896,0.67059 0.859896,0.81964 0,0.16916 0.137524,0.15686 0.365976,-0.0327 0.282897,-0.23478 0.402334,-0.20899 0.526136,0.11364 0.08809,0.22955 0.06014,0.35555 -0.06211,0.28 -0.204955,-0.12667 -0.830003,1.51531 -0.830003,2.18039 0,0.15913 0.323036,0.58886 0.717857,0.95496 0.394821,0.3661 0.905124,1.05553 1.134006,1.53206 0.285139,0.59367 0.579741,0.84803 0.935789,0.80798 0.285802,-0.0321 0.370811,0.008 0.18891,0.0882 -0.181901,0.0806 -0.331427,0.34508 -0.33228,0.58761 -8.47e-4,0.24254 -0.744994,1.23284 -1.653646,2.20067 -1.612756,1.71779 -1.691184,1.76405 -3.293749,1.94281 0,0 0.198206,3.21683 0.822934,5.6216 0.299805,1.15209 -1.118574,0.8167 0,0 0.450298,-0.32878 1.354506,-0.88545 2.009349,-1.23704 0.654844,-0.3516 1.250157,-0.70948 1.322917,-0.7953 0.07276,-0.0858 0.641193,-0.39235 1.263183,-0.68119 0.658855,-0.30596 1.191428,-0.75779 1.275922,-1.08249 0.147674,-0.56749 -0.831315,-4.26347 -1.250523,-4.72111 -0.437419,-0.47751 -0.251451,-1.20385 0.308227,-1.20385 0.470564,0 0.500792,-0.0751 0.239674,-0.59531 -0.202903,-0.40425 -0.05472,-0.31934 0.46171,0.26458 0.759264,0.85849 1.491775,1.09864 1.80503,0.59178 0.261285,-0.42276 0.237743,-1.88085 -0.03346,-2.07219 -0.439593,-0.31016 -1.159248,-1.59813 -1.1634,-2.08216 -0.0035,-0.4047 -0.04304,-0.41551 -0.276423,-0.0754 -0.225397,0.32843 -0.261585,0.30561 -0.209826,-0.13229 0.0344,-0.29104 -0.02982,-0.80333 -0.142703,-1.13841 -0.174882,-0.51911 -0.267081,-0.55825 -0.62319,-0.26458 -0.369121,0.30439 -0.383063,0.27918 -0.11935,-0.21587 0.294304,-0.55247 0.190393,-0.89468 -0.271668,-0.89468 -0.129856,0 -0.162517,0.11906 -0.07258,0.26458 0.08994,0.14552 0.03041,0.26458 -0.132292,0.26458 -0.162697,0 -0.222228,0.11907 -0.132291,0.26459 0.257721,0.417 -0.295762,0.30834 -0.659041,-0.12938 -0.179827,-0.21668 -0.450927,-0.31735 -0.602444,-0.22371 -0.152128,0.094 -0.197204,0.0436 -0.100664,-0.1126 0.09615,-0.15558 0.02525,-0.34317 -0.157557,-0.41687 -0.182808,-0.0737 0.19298,-0.1434 0.835084,-0.15489 1.2031,-0.0215 3.064991,0.92536 4.126941,2.0988 0.261884,0.28938 0.632159,0.52615 0.822833,0.52615 0.511289,0 2.752199,1.47817 3.191301,2.10507 0.208676,0.29793 0.294586,0.67894 0.190911,0.84669 -0.109971,0.17794 -0.07279,0.23349 0.08924,0.13334 0.152756,-0.0944 0.341701,-0.005 0.419877,0.19876 0.07818,0.20372 0.537137,0.45441 1.019912,0.55709 0.482776,0.10268 1.097401,0.38068 1.365835,0.61779 0.456681,0.40338 0.529532,0.38288 1.133102,-0.31881 0.607547,-0.70632 0.680961,-0.72637 1.262959,-0.34503 0.555236,0.3638 0.677236,0.36333 1.202616,-0.005 0.542417,-0.37992 0.613892,-0.36785 0.988409,0.16685 0.241438,0.34469 0.56569,0.51422 0.806673,0.42175 0.221628,-0.085 0.55137,-0.0315 0.732763,0.11908 0.430491,0.35728 1.13012,0.0783 1.322327,-0.5273 0.225843,-0.71157 1.479643,-0.95291 1.814473,-0.34926 0.146338,0.26383 0.810659,1.05221 1.476269,1.75195 1.071459,1.12641 1.285891,1.24386 1.87044,1.02448 0.498922,-0.18724 0.912194,-0.1202 1.691429,0.27437 0.640185,0.32416 1.306123,0.46715 1.756283,0.37712 0.514575,-0.10291 0.86084,0.005 1.192633,0.3716 0.257146,0.28415 0.657438,0.51411 0.889548,0.51105 0.81285,-0.0108 4.01954,-1.27864 5.28074,-2.08795 0.70016,-0.44929 1.52346,-0.81689 1.82955,-0.81689 0.30609,0 0.63012,-0.11906 0.72005,-0.26458 0.0899,-0.14552 0.49999,-0.26459 0.91123,-0.26459 0.50361,0 0.8878,-0.21381 1.17685,-0.65495 0.3757,-0.57339 0.5103,-0.61797 1.08092,-0.35797 0.48443,0.22072 0.7454,0.21929 1.01634,-0.006 0.28228,-0.23427 0.47182,-0.18401 0.8399,0.22271 0.35207,0.38903 0.68842,0.48809 1.29693,0.38196 0.45187,-0.0788 0.86173,-0.25744 0.91079,-0.39693 0.1774,-0.50439 1.11541,-0.82992 1.49165,-0.51767 0.24566,0.20388 0.40969,0.20959 0.52787,0.0184 0.0943,-0.15258 0.35263,-0.27743 0.57406,-0.27743 0.22143,0 1.28687,-0.88427 2.36765,-1.96505 l 1.96505,-1.96505 1.40746,0.14527 c 1.27381,0.13146 1.53871,0.0605 2.78963,-0.74693 1.21731,-0.78578 1.52571,-1.18412 2.58552,-3.33959 0.66184,-1.34607 1.26763,-2.4474 1.3462,-2.4474 0.0786,0 0.88873,0.65485 1.80036,1.45521 2.50122,2.19595 2.75536,2.11914 4.87751,-1.47414 1.16237,-1.96814 1.83168,-2.85669 2.08005,-2.76138 0.20142,0.0773 1.18679,0.69108 2.18971,1.36397 1.70432,1.14347 1.9042,1.21237 3.05842,1.05416 0.6792,-0.0931 1.25566,-0.19851 1.28101,-0.23427 0.0254,-0.0358 0.54522,-0.80915 1.15525,-1.71865 0.98158,-1.46345 1.20836,-1.65365 1.97164,-1.65365 1.01972,0 2.21743,1.13061 3.70638,3.49874 0.67267,1.06987 1.168,1.56497 1.68751,1.68676 1.04877,0.24585 1.67108,1.10462 1.37149,1.89261 -0.15464,0.40671 -0.1455,0.5681 0.0261,0.46202 0.14508,-0.0897 0.26378,-0.33459 0.26378,-0.54428 0,-0.63912 0.46566,-0.42922 1.20856,0.54478 0.97622,1.27989 2.15126,1.29035 3.29872,0.0294 l 0.81595,-0.89667 1.2858,0.41118 c 0.77076,0.24648 1.41129,0.64566 1.59908,0.99655 0.17231,0.32196 0.86882,0.84557 1.54782,1.1636 1.00781,0.47203 1.37039,0.52657 1.97424,0.29699 0.40683,-0.15468 1.11889,-0.26742 1.58237,-0.25054 0.46346,0.0169 0.66407,0.0792 0.44579,0.13844 -0.30987,0.0841 -0.37722,0.45443 -0.30723,1.6891 0.0851,1.50068 0.0581,1.58273 -0.52916,1.60836 -0.51893,0.0226 -0.48001,0.0715 0.24108,0.30286 l 0.85989,0.27585 v 8.69297 8.69298 h -55.35671 c -23.892024,-0.0802 -48.151901,-0.73266 -48.151901,-0.73266 0,0 0.263845,-11.88315 -0.472594,-20.9375 z m 6.278339,19.9234 c -0.08792,-0.0879 -0.316122,-0.0973 -0.507118,-0.0209 -0.211067,0.0845 -0.148372,0.14716 0.159853,0.15985 0.278914,0.0115 0.435184,-0.051 0.347265,-0.13896 z m 73.228956,-2.75057 c 0.0899,-0.14552 0.0472,-0.26458 -0.095,-0.26458 -0.14221,0 -0.47276,-0.0822 -0.73455,-0.18266 -0.42516,-0.16315 -0.43454,-0.13596 -0.0878,0.25452 0.45271,0.50981 0.69053,0.55977 0.91738,0.19272 z m -2.24896,-0.89773 c 0,-0.0572 -0.18478,-0.17489 -0.41062,-0.26155 -0.23546,-0.0904 -0.34166,-0.046 -0.24897,0.10398 0.15538,0.25141 0.65959,0.37186 0.65959,0.15757 z m -33.67374,-0.32045 c -0.0879,-0.0879 -0.31613,-0.0973 -0.50712,-0.0209 -0.21107,0.0845 -0.14838,0.14715 0.15985,0.15985 0.27891,0.0115 0.43518,-0.0511 0.34727,-0.13896 z m 1.39457,-0.6339 c 0,-0.14552 -0.0525,-0.26458 -0.11668,-0.26458 -0.0642,0 -0.19026,0.11906 -0.2802,0.26458 -0.0899,0.14552 -0.0374,0.26458 0.11668,0.26458 0.15411,0 0.2802,-0.11906 0.2802,-0.26458 z m 31.48542,0 c 0,-0.14552 -0.0525,-0.26458 -0.11668,-0.26458 -0.0642,0 -0.19026,0.11906 -0.2802,0.26458 -0.0899,0.14552 -0.0374,0.26458 0.11668,0.26458 0.15411,0 0.2802,-0.11906 0.2802,-0.26458 z m -56.836915,-0.58649 c -0.189854,-0.18986 -0.313089,-0.20548 -0.313089,-0.0397 0,0.35316 0.312899,0.66606 0.489479,0.48948 0.07519,-0.0752 -0.0042,-0.27759 -0.17639,-0.44979 z m -1.636006,-0.20726 c 0,-0.14552 -0.119062,-0.26458 -0.264583,-0.26458 -0.145521,0 -0.264584,0.11906 -0.264584,0.26458 0,0.14552 0.119063,0.26458 0.264584,0.26458 0.145521,0 0.264583,-0.11906 0.264583,-0.26458 z m -2.559692,-0.37202 c 0.07852,-0.20461 -0.05757,-0.55257 -0.302422,-0.77326 -0.493533,-0.44484 -2.736504,-1.2818 -2.92634,-1.09196 -0.142623,0.14262 -0.225848,0.0656 1.376949,1.27425 1.410482,1.06362 1.64208,1.13753 1.851813,0.59097 z m 1.501359,-0.42173 c 0,-0.14552 -0.185621,-0.26458 -0.412491,-0.26458 -0.226869,0 -0.338904,0.11906 -0.248968,0.26458 0.08994,0.14552 0.275559,0.26458 0.412491,0.26458 0.136933,0 0.248968,-0.11906 0.248968,-0.26458 z m 18.184594,0.10473 c -0.0879,-0.0879 -0.31612,-0.0973 -0.50712,-0.0209 -0.21107,0.0845 -0.14837,0.14716 0.15985,0.15985 0.27892,0.0115 0.43519,-0.051 0.34727,-0.13896 z m 42.43729,-0.54791 c -0.3119,-0.53636 -0.38722,-0.36469 -0.1319,0.30066 0.0907,0.23646 0.22071,0.37419 0.28883,0.30607 0.0681,-0.0681 -0.002,-0.34115 -0.15693,-0.60673 z m -59.034384,0.1786 c 0,-0.14552 -0.119063,-0.26459 -0.264584,-0.26459 -0.14552,0 -0.264583,0.11907 -0.264583,0.26459 0,0.14552 0.119063,0.26458 0.264583,0.26458 0.145521,0 0.264584,-0.11906 0.264584,-0.26458 z m 15.539236,-0.18336 c -0.257432,-0.0671 -0.614619,-0.0627 -0.79375,0.01 -0.179131,0.0725 0.03149,0.12737 0.468056,0.12197 0.436562,-0.005 0.583122,-0.0647 0.325694,-0.13177 z m 8.730778,-2.62233 c -0.0879,-0.0879 -0.31613,-0.0973 -0.50712,-0.0209 -0.21107,0.0845 -0.14838,0.14716 0.15985,0.15985 0.27891,0.0115 0.43518,-0.051 0.34727,-0.13896 z m 32.2848,-0.30317 c 0.0646,-0.19399 -0.11778,-0.33073 -0.4411,-0.33073 -0.32499,0 -0.55121,0.17084 -0.55121,0.41628 0,0.48627 0.82561,0.41509 0.99231,-0.0856 z m 0.55336,-0.98585 c 0.0704,-0.3534 -0.0324,-0.41526 -0.46302,-0.2786 -0.62963,0.19984 -0.7157,-0.13659 -0.23277,-0.90988 0.39201,-0.62771 0.23233,-0.82809 -0.50601,-0.63501 -0.43729,0.11436 -0.57884,0.39048 -0.6499,1.26778 l -0.0908,1.12158 0.92604,-0.0558 c 0.63477,-0.0383 0.9545,-0.19868 1.01651,-0.51007 z m -73.053047,-0.4749 c 0.31438,0.12064 0.383063,0.0509 0.261573,-0.26574 -0.115976,-0.30222 -0.05124,-0.38577 0.218649,-0.28221 0.229121,0.0879 0.3834,-0.0115 0.3834,-0.2472 0,-0.21687 0.267891,-0.47575 0.595313,-0.57528 0.363382,-0.11045 0.46582,-0.23436 0.262935,-0.31804 -0.182808,-0.0754 -0.265078,-0.24597 -0.182823,-0.37907 0.08226,-0.13309 -0.255079,-0.24198 -0.749632,-0.24198 -0.701233,0 -0.96522,0.14493 -1.199139,0.65832 -0.164974,0.36208 -0.230878,0.83833 -0.146454,1.05834 0.08442,0.22 0.03284,0.40001 -0.114622,0.40001 -0.151511,0 -0.19495,0.25891 -0.09988,0.59531 l 0.168242,0.59531 0.08806,-0.58068 c 0.06218,-0.41005 0.213333,-0.53261 0.514381,-0.41709 z m 10.124039,0.23233 c 0,-0.70512 -0.769301,-1.15743 -1.088939,-0.64025 -0.112863,0.18262 -0.145674,0.39156 -0.07291,0.46432 0.07276,0.0728 0.2367,-0.0366 0.36431,-0.24312 0.177627,-0.28741 0.274015,-0.20808 0.411171,0.33839 0.221709,0.88336 0.386371,0.91773 0.386371,0.0807 z m 61.912498,-2.5198 c 0,-0.27892 0.13809,-0.55315 0.30687,-0.60941 0.22967,-0.0766 0.2317,-0.23183 0.008,-0.61736 -0.28803,-0.49648 -0.29911,-0.49414 -0.30686,0.0646 -0.004,0.31883 -0.12711,0.65328 -0.27263,0.74321 -0.14552,0.0899 -0.26458,0.33509 -0.26458,0.54479 0,0.20969 0.11906,0.38126 0.26458,0.38126 0.14552,0 0.26458,-0.22821 0.26458,-0.50712 z m 18.08793,-5.70907 c -0.0834,-0.21745 -0.27101,-0.32163 -0.41681,-0.23151 -0.16301,0.10074 -0.12686,0.25144 0.0939,0.3913 0.48175,0.30526 0.49827,0.29709 0.32294,-0.15979 z m -29.72959,-0.26611 c 0,-0.21828 -0.0468,-0.39687 -0.10399,-0.39687 -0.0572,0 -0.17251,0.17859 -0.25628,0.39687 -0.0838,0.21829 -0.037,0.39688 0.10399,0.39688 0.14095,0 0.25628,-0.17859 0.25628,-0.39688 z m 39.6875,0.2802 c 0,-0.27926 -0.50777,-0.39658 -0.65879,-0.15222 -0.0914,0.1479 0.0194,0.2689 0.2463,0.2689 0.22687,0 0.41249,-0.0525 0.41249,-0.11668 z m -39.24218,-1.25585 c -0.0845,-0.21106 -0.14716,-0.14837 -0.15985,0.15986 -0.0115,0.27891 0.0511,0.43518 0.13896,0.34726 0.0879,-0.0879 0.0973,-0.31612 0.0209,-0.50712 z m 27.10752,-0.95257 c -0.19089,-0.0636 -0.47286,0.0101 -0.62661,0.16386 -0.19634,0.19634 -0.093,0.23078 0.34706,0.11569 0.35777,-0.0936 0.47771,-0.21349 0.27955,-0.27955 z m -1.7731,-0.0284 c 0.0805,-0.13027 -0.0255,-0.3028 -0.2355,-0.3834 -0.25473,-0.0977 -0.33289,-0.0189 -0.23475,0.23686 0.17055,0.44445 0.26746,0.47465 0.47025,0.14654 z m -13.17164,-1.2282 c 0.1709,-0.44538 -0.59889,-1.45784 -1.04066,-1.36871 -0.1517,0.0306 -0.35527,-0.24201 -0.4524,-0.60581 -0.15607,-0.58459 -0.19306,-0.53847 -0.31825,0.39687 -0.0982,0.73374 -0.0184,1.20035 0.26033,1.52136 0.49639,0.57178 1.3414,0.60244 1.55098,0.0563 z m -1.5838,-0.29883 c -0.097,-0.097 -0.17456,-0.30537 -0.17234,-0.46302 0.002,-0.15764 0.1213,-0.10803 0.26459,0.11025 0.21602,0.32907 0.30008,0.33555 0.49204,0.0379 0.14246,-0.2209 0.29453,-0.257 0.39536,-0.0939 0.0901,0.14581 -0.0238,0.33712 -0.25315,0.42513 -0.51653,0.19821 -0.51181,0.19831 -0.7265,-0.0164 z m 13.59996,-0.32747 c -0.30095,-0.42265 -0.54718,-0.85021 -0.54718,-0.95013 0,-0.0999 -0.41672,-0.66852 -0.92604,-1.26355 -0.50932,-0.59503 -0.92604,-1.18801 -0.92604,-1.31773 0,-0.40254 -0.77539,-1.03439 -1.05631,-0.86077 -0.14663,0.0906 -0.26661,0.0317 -0.26661,-0.13104 0,-0.1627 -0.121,-0.22103 -0.2689,-0.12962 -0.14789,0.0914 -0.2004,0.27702 -0.11667,0.41249 0.25715,0.41608 -0.0573,0.2728 -0.44193,-0.20137 -0.24674,-0.30418 -0.25712,-0.38398 -0.0324,-0.24897 0.1819,0.10929 0.33072,0.0726 0.33072,-0.0815 0,-0.15411 -0.18562,-0.2802 -0.41249,-0.2802 -0.22687,0 -0.3389,-0.11906 -0.24896,-0.26458 0.0899,-0.14552 -0.0221,-0.26458 -0.24897,-0.26458 -0.52823,0 -0.52082,0.25677 0.0301,1.04334 0.27762,0.39636 0.3114,0.55083 0.0906,0.41438 -0.26992,-0.16682 -0.31228,-0.0691 -0.18165,0.41913 0.0937,0.35018 0.1734,0.87481 0.17711,1.16585 0.008,0.63629 2.69143,2.59461 3.37484,2.463 0.25081,-0.0483 0.66574,0.1219 0.92208,0.37824 0.25633,0.25633 0.65276,0.46606 0.88095,0.46606 0.34643,0 0.3246,-0.1268 -0.1323,-0.76845 z m -1.90317,-1.06159 c -0.0528,-0.8805 -0.0876,-1.02464 -0.29765,-1.23472 -0.10915,-0.10914 -0.19482,-0.32742 -0.1904,-0.48507 0.004,-0.15765 0.15015,-0.0485 0.32382,0.24253 0.34088,0.57123 0.37644,0.68536 0.43287,1.38907 0.0321,0.40064 0.0749,0.40955 0.31779,0.0661 0.2283,-0.3228 0.26149,-0.32589 0.17785,-0.0165 -0.16544,0.61195 -0.72817,0.64036 -0.76428,0.0386 z m -5.26264,0.97014 c -0.002,-0.1819 -0.11947,-0.50932 -0.26054,-0.7276 -0.19986,-0.30927 -0.25737,-0.23626 -0.26053,0.33073 -0.002,0.40018 0.11501,0.7276 0.26053,0.7276 0.14553,0 0.26276,-0.14883 0.26054,-0.33073 z m -0.52917,-1.8677 c 0.002,-0.11773 -0.11501,-0.14047 -0.26053,-0.0505 -0.14552,0.0899 -0.26276,0.36486 -0.26053,0.61093 0.003,0.38557 0.0395,0.39255 0.26053,0.0505 0.14106,-0.21828 0.2583,-0.4932 0.26053,-0.61093 z m -4.24341,-0.54165 c -0.25476,-0.23481 -0.28996,-0.19401 -0.15711,0.18203 0.0942,0.26657 0.18505,0.62375 0.20193,0.79375 0.0169,0.17 0.0876,0.0881 0.1571,-0.18203 0.0695,-0.27012 -0.0213,-0.62731 -0.20192,-0.79375 z m -69.042125,8.04736 c 0,-0.13693 0.117699,-0.32171 0.261553,-0.41062 0.149982,-0.0927 0.194339,0.0135 0.103984,0.24897 -0.175892,0.45837 -0.365537,0.54224 -0.365537,0.16165 z"
             style="fill:#171717;stroke-width:0.26458332"
             sodipodi:nodetypes="cccscccssccccscccccsccscsccccccccscscccccccsccccsccccccccccccccccscscccsccccsscccssccccccssccccsccccccccccccccccccccccccsccccsccscccccsscsssscsscscccssssscccccsscsscccccccscssssscccccccccccssccccccccccccccscccscsscccccccccccccccccsscccccccsscssscsscccccccccccccccccccccccccccccssscsccscsscscccccssccccccccccccccscccccccccccsccs" />
          <path
             inkscape:connector-curvature="0"
             id="path4519"
             d="m 65.948105,125.60225 1.215313,-1.36981 0.929425,0.81605 c 0.511183,0.44883 1.023192,0.72946 1.137796,0.62363 0.185542,-0.17133 0.110587,0.35363 -0.31786,2.22617 -0.08873,0.38782 0.153066,0.88856 0.766579,1.5875 0.930424,1.05999 1.535727,2.20634 1.535727,2.90843 0,0.53454 -3.142538,3.80111 -3.65678,3.80111 -0.218847,0 0.370059,-0.76045 1.30868,-1.68988 0.93862,-0.92944 1.662408,-1.8224 1.608417,-1.98438 -0.134254,-0.40276 -2.04332,-0.37355 -2.367912,0.0362 -0.144084,0.1819 -0.472073,0.98557 -0.728864,1.78594 l 0.179679,1.85212 c 4.162476,3.78562 -0.01802,5.9148 1.197657,5.03299 0.922749,-0.51362 1.182521,-0.56147 1.521354,-0.28026 0.224731,0.18651 0.408602,0.48467 0.408602,0.66258 0,0.49817 0.90155,1.19923 1.542188,1.19923 0.315963,0 0.574479,-0.11906 0.574479,-0.26458 0,-0.14552 0.535781,-0.26458 1.190625,-0.26458 1.332553,0 1.329292,0.005 0.830932,-1.15064 -0.197831,-0.45856 -0.507988,-1.19093 -0.689238,-1.62749 -0.374545,-0.90213 -2.124027,-6.51051 -2.12526,-6.81302 -0.002,-0.48602 1.072324,-0.1308 1.588323,0.52519 0.551708,0.70138 0.578587,0.70748 0.874341,0.19844 1.076125,-1.85221 1.386339,-4.75001 0.543134,-5.07357 -0.196754,-0.0755 -0.29186,-0.24387 -0.211347,-0.37414 0.08051,-0.13027 0.03022,-0.23686 -0.111763,-0.23686 -0.141983,0 -0.326504,0.14883 -0.410048,0.33073 -0.08354,0.1819 -0.08544,0.0628 -0.0042,-0.26458 0.187715,-0.7567 -0.101412,-0.77969 -0.378701,-0.0301 -0.187837,0.50777 -0.277222,0.43511 -0.879557,-0.71495 -0.368759,-0.70409 -0.823188,-1.33107 -1.009842,-1.39329 -0.199487,-0.0665 -0.263226,0.0101 -0.154636,0.18578 0.101606,0.1644 0.05162,0.29891 -0.111077,0.29891 -0.162697,0 -0.222228,0.11907 -0.132291,0.26459 0.289555,0.46851 -0.166732,0.28264 -0.974294,-0.39688 l -0.786099,-0.66146 h 1.192027 c 0.706801,0 1.353578,0.16155 1.588902,0.39688 0.218281,0.21828 0.497907,0.39687 0.621391,0.39687 0.315136,0 2.07459,1.64408 2.005139,1.87365 -0.0314,0.10381 0.155661,0.13311 0.415704,0.0651 0.742273,-0.19411 3.060718,1.40277 3.707553,2.55365 0.420204,0.74766 0.806424,1.07338 1.429782,1.20584 0.469734,0.0998 1.062421,0.36528 1.317083,0.58991 0.418216,0.36892 0.509902,0.36601 0.947512,-0.03 0.26647,-0.24115 0.570421,-0.35253 0.675442,-0.24751 0.105024,0.10502 0.11239,-0.0138 0.01638,-0.264 -0.102093,-0.26603 -0.04951,-0.45496 0.126603,-0.45496 0.165655,0 0.366069,0.16906 0.445362,0.37569 0.09075,0.23651 0.389604,0.33119 0.806633,0.25557 0.464822,-0.0843 0.60448,-0.0263 0.468106,0.19435 -0.123375,0.19963 -0.08122,0.24456 0.115419,0.12303 0.170379,-0.1053 0.246364,-0.29406 0.168857,-0.41947 -0.292314,-0.47298 0.44789,-0.56054 0.789477,-0.0934 0.274799,0.37581 0.286017,0.57605 0.04854,0.86645 -0.188362,0.23034 -0.01968,0.18948 0.432337,-0.10473 0.558073,-0.36323 0.816274,-0.40733 1.045105,-0.1785 0.434504,0.43451 0.553262,0.39518 1.479346,-0.48983 0.804688,-0.769 1.629151,-1.04759 1.629151,-0.55049 0,0.13379 0.592079,0.89109 1.31573,1.68288 0.723652,0.79179 1.23511,1.52024 1.136574,1.61877 -0.09854,0.0985 0.229303,0.007 0.728533,-0.20249 0.827778,-0.34806 0.998892,-0.33513 1.94366,0.14686 0.569786,0.29068 1.355334,0.48164 1.745661,0.42435 0.725241,-0.10644 1.44649,0.36519 1.117584,0.7308 -0.100394,0.1116 -0.04193,0.12234 0.129913,0.0239 0.171847,-0.0985 0.380809,-0.0684 0.464362,0.0668 0.278225,0.45018 5.403985,-1.57899 6.447145,-2.55227 0.19496,-0.1819 0.6366,-0.33073 0.98142,-0.33073 0.34482,0 0.70053,-0.11906 0.79046,-0.26458 0.0899,-0.14553 0.49999,-0.26459 0.91123,-0.26459 0.50361,0 0.8878,-0.21381 1.17685,-0.65495 0.37903,-0.57848 0.50699,-0.61947 1.09594,-0.35113 0.49559,0.2258 0.74355,0.22706 0.96571,0.005 0.22217,-0.22217 0.49967,-0.13 1.08076,0.35896 0.60698,0.51074 0.86324,0.59033 1.14575,0.35587 0.20015,-0.16611 0.53795,-0.23523 0.75067,-0.1536 0.25244,0.0969 0.33838,0.0223 0.24743,-0.21469 -0.19931,-0.5194 0.88459,-1.06027 1.35027,-0.67379 0.25941,0.21529 0.40554,0.2163 0.53693,0.004 0.0993,-0.16065 0.37777,-0.25229 0.61885,-0.20366 0.24111,0.0486 0.65625,-0.18403 0.92257,-0.51704 0.26631,-0.333 0.59237,-0.53861 0.72458,-0.45691 0.1322,0.0817 0.17298,-0.027 0.0906,-0.24164 -0.0983,-0.25626 0.3114,-0.73449 1.19365,-1.39314 0.73887,-0.55161 1.34339,-1.08798 1.34339,-1.19192 0,-0.10395 0.63472,-0.12348 1.41048,-0.0434 1.29817,0.13398 1.52634,0.0687 2.86539,-0.82042 1.16206,-0.77157 1.60687,-1.28401 2.21003,-2.54594 0.8006,-1.67506 0.89808,-1.76304 1.39869,-1.26245 0.21241,0.21242 0.3175,0.22179 0.3175,0.0283 0,-0.15906 -0.16936,-0.35418 -0.37634,-0.43361 -0.38204,-0.1466 -0.29437,-1.11641 0.12432,-1.37518 0.11731,-0.0725 0.97364,0.51323 1.90294,1.30162 2.60241,2.20778 2.73608,2.172 4.83655,-1.29473 0.96958,-1.60024 1.80203,-2.94963 1.84988,-2.99863 0.0479,-0.049 1.03116,0.51654 2.18512,1.25677 1.53554,0.98501 2.3393,1.3388 2.99771,1.3195 0.83044,-0.0243 2.48808,-0.41643 2.01423,-0.47642 -0.11456,-0.0145 0.27683,-0.74075 0.86975,-1.61388 0.94743,-1.39514 1.18256,-1.5875 1.94054,-1.5875 1.00419,0 2.12388,1.06053 3.69577,3.5005 0.66168,1.02707 1.20812,1.57419 1.69408,1.69616 0.63716,0.15992 3.25295,2.47039 3.25295,2.87327 0,0.0867 -0.42207,-0.25228 -0.93793,-0.75327 -0.64192,-0.62343 -1.10391,-0.86749 -1.4639,-0.77335 -0.63391,0.16577 -1.7469,-0.7123 -1.27363,-1.0048 0.20122,-0.12436 0.12611,-0.24602 -0.21966,-0.35576 -0.289,-0.0917 -0.7446,-0.57371 -1.01245,-1.07108 -0.26785,-0.49736 -0.60131,-0.83365 -0.74101,-0.74731 -0.13971,0.0863 -0.17535,0.0297 -0.0792,-0.12588 0.0962,-0.15557 0.0797,-0.3228 -0.0365,-0.37161 -0.11625,-0.0488 -0.4904,-0.54577 -0.83146,-1.10435 -0.41185,-0.67455 -0.68646,-0.90823 -0.81771,-0.69586 -0.14411,0.23317 -0.26615,0.19728 -0.45075,-0.13258 -0.13922,-0.24878 -0.30196,-0.43397 -0.36164,-0.41154 -0.0597,0.0224 -0.322,-0.0411 -0.58294,-0.14127 -0.26094,-0.10013 -0.52588,-0.13061 -0.58877,-0.0677 -0.0629,0.0629 0.005,0.85617 0.15116,1.76286 0.35289,2.19124 1.14971,2.96928 4.28482,4.18384 1.06022,0.41074 1.28127,0.61982 1.41741,1.34067 0.0887,0.46973 0.11644,1.32449 0.0616,1.89946 l -0.0997,1.04541 1.98958,0.0849 c 1.09426,0.0467 2.36026,0.044 2.81333,-0.006 l 0.82375,-0.0909 -0.88862,-0.96746 -0.88863,-0.96746 1.06438,-0.15105 c 0.76913,-0.10915 1.28673,-0.40272 1.86598,-1.05833 0.44088,-0.49901 0.75456,-0.72869 0.69706,-0.51041 -0.0575,0.21828 0.0845,0.55453 0.31556,0.74722 0.23105,0.1927 0.27949,0.28005 0.10765,0.19413 -0.17185,-0.0859 -0.38193,-0.0438 -0.46686,0.0936 -0.0849,0.13742 0.0854,0.32597 0.37859,0.41902 0.29316,0.093 0.53301,0.39927 0.53301,0.68051 0,0.61592 -0.0222,0.61383 1.01684,0.0955 0.69101,-0.34472 0.78881,-0.49947 0.57185,-0.90485 -0.14394,-0.26896 -0.68732,-0.62949 -1.20751,-0.80116 -1.22792,-0.40525 -1.04621,-0.59736 0.20252,-0.21411 0.52451,0.16097 1.09632,0.55924 1.27068,0.88503 0.17436,0.32579 0.87255,0.85255 1.55155,1.17058 1.00781,0.47203 1.37039,0.52657 1.97424,0.29699 0.40683,-0.15468 1.11889,-0.26723 1.58237,-0.25011 0.64672,0.0239 0.53606,0.0824 -0.47588,0.25149 -0.72521,0.1212 -1.35798,0.33863 -1.40616,0.48318 -0.0482,0.14455 -0.22874,0.20858 -0.40124,0.14229 -0.22324,-0.0858 -0.28709,0.26343 -0.22154,1.21159 l 0.0921,1.33212 1.54827,0.43046 1.54828,0.43046 0.0194,8.55927 0.0194,8.55927 H 122.17042 74.423942 l -0.594816,-1.05833 c -0.327149,-0.58209 -0.691955,-1.05834 -0.81068,-1.05834 -0.118719,0 -0.215857,-0.23812 -0.215857,-0.52916 0,-0.29105 -0.05655,-0.52917 -0.125666,-0.52917 -0.06912,0 -0.898193,0.35382 -1.842393,0.78628 -0.9442,0.43245 3.981509,2.29031 3.589412,2.38872 -0.633673,0.15904 -8.982032,0.4934 -8.59215,0.77849 z m 34.371155,20.38271 c 0,-0.14552 -0.506019,-0.24891 -1.124483,-0.22975 l -1.124479,0.0348 0.926042,0.19492 c 0.509323,0.10721 1.01534,0.2106 1.12448,0.22976 0.10914,0.0191 0.19844,-0.0842 0.19844,-0.22976 z m 4.89479,-0.52916 c 0.0899,-0.14553 -0.0221,-0.26459 -0.24897,-0.26459 -0.22687,0 -0.41249,0.11906 -0.41249,0.26459 0,0.14552 0.11203,0.26458 0.24897,0.26458 0.13693,0 0.32255,-0.11906 0.41249,-0.26458 z m 6.35,-0.26459 c 0.0899,-0.14552 -0.0221,-0.26458 -0.24897,-0.26458 -0.22687,0 -0.41249,0.11906 -0.41249,0.26458 0,0.14552 0.11204,0.26459 0.24897,0.26459 0.13693,0 0.32255,-0.11907 0.41249,-0.26459 z m -6.63215,-0.50212 c 0.38598,-0.15115 0.42744,-0.25236 0.16886,-0.41217 -0.18851,-0.11651 -0.41874,-0.0913 -0.5116,0.056 -0.0929,0.14733 -0.40699,0.32736 -0.69803,0.40008 l -0.52917,0.13221 0.52917,0.0121 c 0.29104,0.007 0.75939,-0.0781 1.04077,-0.18825 z m 8.28076,0.0542 c -0.25743,-0.0671 -0.61462,-0.0627 -0.79375,0.01 -0.17913,0.0725 0.0315,0.12736 0.46805,0.12197 0.43657,-0.005 0.58313,-0.0647 0.3257,-0.13178 z m -27.373074,-1.43427 c -0.248099,-0.42 -0.612743,-0.76363 -0.810318,-0.76363 -0.201993,0 -0.317569,-0.20267 -0.264054,-0.46302 0.05235,-0.25466 -0.07617,-0.59379 -0.285605,-0.75361 -0.648758,-0.4951 -0.100726,-0.95507 0.594876,-0.49929 0.685393,0.44908 0.957271,0.29641 0.957271,-0.53755 0,-0.44445 -0.391951,-0.77672 -1.698496,-1.43989 -1.670269,-0.84778 -2.270254,-0.88147 -2.270254,-0.12748 0,0.51151 -0.336674,0.48033 -1.427194,-0.13218 -0.502767,-0.28238 -1.369592,-0.58864 -1.926277,-0.68057 l -1.012154,-0.16714 1.322916,1.2091 c 1.609202,1.47075 2.127451,1.66694 2.798708,1.05946 0.669869,-0.60622 0.847833,-0.38385 0.628491,0.78534 -0.130356,0.69486 -0.314189,0.95308 -0.678519,0.95308 -0.844835,0 -0.554246,0.70784 0.492466,1.19959 0.545703,0.25637 1.051719,0.54515 1.124479,0.64172 0.221033,0.29338 1.954044,0.71377 2.444563,0.593 0.434909,-0.10707 0.435409,-0.15525 0.0091,-0.87693 z m -2.23869,-1.73812 c 0.190995,-0.0764 0.419198,-0.067 0.507119,0.0209 0.08792,0.0879 -0.06835,0.15045 -0.347265,0.13896 -0.308227,-0.0127 -0.37092,-0.0754 -0.159854,-0.15985 z m 13.234996,2.06548 c 0.268457,-0.17017 0.22089,-0.2584 -0.198437,-0.36805 -0.365914,-0.0957 -0.551532,-0.019 -0.551532,0.22787 0,0.42203 0.235802,0.46611 0.749969,0.14018 z m 16.712528,-0.55505 c 0.8486,-0.22411 0.98373,-1.08662 0.38,-2.42545 -0.43109,-0.956 -0.90916,-1.3537 -0.90916,-0.75632 0,0.14552 -0.47625,0.26458 -1.05834,0.26458 -0.58208,0 -1.05833,0.11906 -1.05833,0.26458 0,0.14552 -0.2311,0.26459 -0.51355,0.26459 -0.28245,0 -0.5788,0.10556 -0.65854,0.23459 -0.0797,0.12902 -0.56302,0.31301 -1.07394,0.40886 -1.34353,0.25205 -1.14105,0.78721 0.46009,1.21602 0.91952,0.24626 1.19658,0.40239 0.81964,0.4619 -0.31319,0.0494 -1.23597,-0.0842 -2.05063,-0.2969 -0.81466,-0.21274 -1.4216,-0.29035 -1.34875,-0.17247 0.0729,0.11788 -0.37358,0.16534 -0.99207,0.10548 -1.60084,-0.15496 -0.90518,0.10693 1.40324,0.52826 1.88662,0.34434 5.10702,0.29666 6.60034,-0.0977 z m 33.3375,0.31677 c 0,-0.11309 0.35844,-0.59805 0.79653,-1.07769 l 0.79652,-0.87209 -0.93363,-0.90667 c -0.51349,-0.49867 -1.04633,-0.90668 -1.18409,-0.90668 -0.13775,0 -0.3779,-0.23812 -0.53366,-0.52916 -0.15576,-0.29105 -0.43515,-0.52917 -0.62088,-0.52917 -0.18572,0 -0.61086,-0.25451 -0.94475,-0.56558 -0.70079,-0.65288 -0.62595,-0.72458 -1.98053,1.89741 l -0.8931,1.7287 1.22744,0.49077 c 0.6751,0.26993 1.58463,0.6422 2.0212,0.82727 1.56944,0.66534 2.24895,0.79916 2.24895,0.44289 z m -47.88958,-0.58813 c 0,-0.15032 -0.657014,-0.24742 -1.521355,-0.22484 l -1.521354,0.0397 1.190625,0.1851 c 1.818783,0.28277 1.852084,0.28277 1.852084,0 z m -2.764896,-0.76532 c 0.138244,-0.12989 1.918229,-0.30015 3.955516,-0.37836 2.0373,-0.0782 3.88277,-0.19093 4.10105,-0.25051 0.21828,-0.0596 0.84336,-0.20023 1.38906,-0.31256 0.5457,-0.11232 0.99219,-0.28814 0.99219,-0.39071 0,-0.10257 0.74414,-0.5358 1.65364,-0.96274 0.90951,-0.42694 1.69499,-0.87052 1.74552,-0.98574 0.0505,-0.11521 0.25889,-0.0709 0.46303,0.0986 0.29155,0.24197 0.37114,0.21931 0.37114,-0.10564 0,-0.656 -0.44956,-0.76422 -1.31515,-0.31661 -0.44083,0.22796 -0.80152,0.34407 -0.80152,0.258 0,-0.31117 0.62386,-1.31841 0.97883,-1.58035 0.28953,-0.21364 0.20692,-0.36036 -0.40709,-0.72306 -0.74226,-0.43847 -0.84078,-0.43107 -2.7052,0.20306 -1.06419,0.36195 -2.00178,0.56503 -2.08353,0.45127 -0.0817,-0.11375 -0.82204,-0.41449 -1.64509,-0.6683 -1.20294,-0.37097 -1.62945,-0.40089 -2.17451,-0.15254 -0.37294,0.16992 -0.60387,0.42899 -0.51319,0.57572 0.0935,0.1513 0.0329,0.1852 -0.14004,0.0783 -0.319507,-0.19747 -1.89351,0.59846 -1.89351,0.95749 0,0.11414 0.707347,0.20753 1.571884,0.20753 0.864536,0 1.645466,0.11907 1.735406,0.26459 0.0947,0.15322 -0.16033,0.26458 -0.60592,0.26458 -0.4232,0 -1.710146,0.0705 -2.859888,0.1566 l -2.090441,0.15661 0.79375,-0.55174 0.79375,-0.55173 -0.727604,-0.002 c -0.400182,-9.6e-4 -0.727604,0.11732 -0.727604,0.26284 0,0.14552 -0.238125,0.26459 -0.529167,0.26459 -0.5856,0 -0.716918,0.40931 -0.198437,0.61852 0.181901,0.0734 0.06284,0.14285 -0.264584,0.15434 -0.672327,0.0236 -0.831246,0.55005 -0.166042,0.55005 0.329116,0 0.360519,0.0828 0.134589,0.35508 -0.162076,0.19529 -0.216342,0.43341 -0.120592,0.52916 0.09575,0.0957 -0.08279,0.1741 -0.396761,0.1741 -0.527035,0 -0.507098,0.0609 0.259728,0.79375 0.899009,0.85914 1.045078,0.91622 1.426787,0.55759 z m 12.289896,-1.35134 c 0.21828,-0.14107 0.27781,-0.25648 0.13229,-0.25648 -0.14552,0 -0.44318,0.11541 -0.66146,0.25648 -0.21828,0.14106 -0.27781,0.25648 -0.13229,0.25648 0.14552,0 0.44318,-0.11542 0.66146,-0.25648 z m -20.256051,-0.57777 c -0.126931,-0.39992 -0.08387,-0.49141 0.16025,-0.34053 0.216937,0.13407 0.267711,0.0994 0.145024,-0.0992 -0.222901,-0.36066 -0.933538,-0.39239 -1.450867,-0.0648 -0.303689,0.19232 -0.30711,0.29698 -0.01976,0.60459 0.191132,0.20461 0.570576,0.38882 0.843208,0.40936 0.386104,0.0291 0.457325,-0.0836 0.322141,-0.50949 z m 24.153141,-0.64042 c -0.0879,-0.0879 -0.31612,-0.0973 -0.50712,-0.0209 -0.21106,0.0845 -0.14837,0.14716 0.15986,0.15985 0.27891,0.0115 0.43518,-0.051 0.34726,-0.13896 z m 0.86541,-0.6339 c 0,-0.14552 -0.0525,-0.26458 -0.11668,-0.26458 -0.0642,0 -0.19026,0.11906 -0.28019,0.26458 -0.0899,0.14552 -0.0374,0.26459 0.11667,0.26459 0.15411,0 0.2802,-0.11907 0.2802,-0.26459 z m 43.39167,0 c 0,-0.14552 -0.11906,-0.26458 -0.26459,-0.26458 -0.14552,0 -0.26458,0.11906 -0.26458,0.26458 0,0.14552 0.11906,0.26459 0.26458,0.26459 0.14553,0 0.26459,-0.11907 0.26459,-0.26459 z m -1.29845,-1.65364 c -0.11572,-1.06827 -0.13021,-1.0848 -0.28973,-0.33073 -0.13104,0.61943 0.0819,1.45521 0.3708,1.45521 0.0224,0 -0.0141,-0.50602 -0.0811,-1.12448 z m -16.9882,-1.15281 c -0.92953,-0.51523 -1.17764,-0.4423 -0.46326,0.13617 0.34282,0.2776 0.72928,0.43922 0.85881,0.35917 0.12953,-0.08 -0.0485,-0.30296 -0.39555,-0.49534 z m 3.53817,-0.60738 c 0.59748,-0.67106 0.93296,-0.82015 1.85208,-0.82311 1.74047,-0.006 2.09521,-0.20203 3.3714,-1.86678 1.18261,-1.54269 1.19997,-1.55319 2.57969,-1.56117 1.0619,-0.006 1.38906,0.0855 1.38906,0.38885 0,0.2787 0.28138,0.39688 0.94494,0.39688 0.51971,0 1.12353,-0.1786 1.34181,-0.39688 0.21829,-0.21828 0.32465,-0.39687 0.23638,-0.39687 -0.0883,0 -0.0428,-0.21989 0.10101,-0.48864 0.40706,-0.76059 -0.10342,-1.07395 -1.30844,-0.8032 -0.62067,0.13945 -1.29115,0.12915 -1.69955,-0.0261 -0.66439,-0.2526 -0.88798,-0.6703 -0.45113,-0.8428 0.34894,-0.13778 0.025,-2.07257 -0.347,-2.07257 -0.18169,0 -0.45202,0.50602 -0.60074,1.12448 -0.25266,1.05072 -0.27249,1.0697 -0.30218,0.28936 -0.0259,-0.6813 -0.12374,-0.81108 -0.53107,-0.70456 -0.69107,0.18072 -0.81018,-0.11888 -0.85419,-2.1485 -0.0241,-1.10876 -0.17507,-1.90362 -0.40547,-2.13402 -0.20193,-0.20194 -0.35093,-0.46283 -0.3311,-0.57977 0.0901,-0.53142 -0.0576,-0.70637 -0.29119,-0.3449 -0.1928,0.29834 -0.25849,0.16696 -0.26458,-0.52917 -0.004,-0.50932 -0.12622,-1.10464 -0.27058,-1.32292 -0.22257,-0.33652 -0.34379,-0.29628 -0.79713,0.26459 -1.77871,2.20059 -1.80477,2.38125 -0.3434,2.38125 0.96104,0 1.20427,0.49441 0.35277,0.71708 -0.29104,0.0761 -0.52916,0.24356 -0.52916,0.37211 0,0.12855 -0.17585,0.23372 -0.39078,0.23372 -0.21493,0 -0.59561,0.32742 -0.84596,0.72761 -0.25035,0.40018 -0.4977,0.78368 -0.54965,0.85223 -0.052,0.0686 -0.19375,-0.036 -0.31508,-0.23233 -0.36205,-0.58581 -0.78973,-0.0714 -0.67756,0.81496 0.10376,0.81982 0.66236,1.71837 0.66236,1.06545 0,-0.19403 0.41158,-0.3175 1.05833,-0.3175 h 1.05834 v 1.32292 c 0,1.46534 0.14622,1.56801 1.13053,0.79375 0.37,-0.29105 0.76363,-0.52917 0.87474,-0.52917 0.11111,0 0.41225,-0.19026 0.6692,-0.42279 0.25695,-0.23254 0.59375,-0.34458 0.74844,-0.24897 0.4138,0.25574 0.3422,0.67176 -0.11562,0.67176 -0.28056,0 -0.39962,0.2908 -0.40625,0.99219 -0.0138,1.46446 -0.46834,2.03424 -1.71042,2.14425 -0.58208,0.0516 -1.12895,0.20696 -1.21527,0.34535 -0.20149,0.32304 -2.46877,-0.87682 -3.59717,-1.90364 -1.11721,-1.01664 -1.498,-1.00706 -1.34523,0.0339 0.16078,1.09548 -0.36988,1.25861 -1.29718,0.39877 -0.93725,-0.86907 -1.34173,-0.52291 -1.44303,1.23496 -0.0681,1.1823 0.008,1.34815 1.20858,2.64584 1.87261,2.02343 2.24237,2.0724 3.65645,0.48417 z m 12.8333,0.30075 c 0.0605,-0.18422 -0.25773,-0.67848 -0.7072,-1.09834 -0.84058,-0.78522 -1.05218,-1.34483 -0.50852,-1.34483 0.16977,0 0.25387,-0.0548 0.18688,-0.12179 -0.067,-0.067 -0.38449,-0.0531 -0.70556,0.0308 -0.47553,0.12436 -0.58376,0.34315 -0.58376,1.18013 0,0.73693 0.11224,1.02748 0.39688,1.02748 0.21828,0 0.39687,0.1865 0.39687,0.41445 0,0.50667 1.3548,0.42851 1.52441,-0.088 z m -75.293497,-1.73147 c 0.501372,-1.02228 0.620058,-1.52827 0.435731,-1.85765 -0.139332,-0.24897 -0.363712,-0.38446 -0.498622,-0.30108 -0.134911,0.0834 -0.174033,-0.0341 -0.08694,-0.26106 0.222958,-0.58102 -0.676022,-1.92342 -0.969777,-1.44812 -0.120047,0.19424 -0.153439,0.67731 -0.0742,1.07348 0.09567,0.47836 -0.09604,1.21107 -0.570748,2.18134 -0.791335,1.61743 -0.72136,2.01806 0.352479,2.01806 0.610353,0 0.830391,-0.21893 1.41208,-1.40497 z m -0.120216,-1.2737 c 0.179476,-0.18082 0.39297,-0.26211 0.474432,-0.18065 0.08146,0.0815 -0.06538,0.22941 -0.32632,0.32877 -0.377084,0.14358 -0.407475,0.11319 -0.148112,-0.14812 z m 53.420003,2.28342 c 0.41681,-0.21738 1.02574,-0.39597 1.35316,-0.39687 0.32742,-9e-4 0.59531,-0.12069 0.59531,-0.26621 0,-0.14552 -0.11078,-0.26459 -0.24618,-0.26459 -0.1354,0 -0.28423,-0.26549 -0.33073,-0.58999 -0.1084,-0.75642 -1.27575,-1.20273 -2.129,-0.81397 -0.53383,0.24323 -0.59832,0.43204 -0.51318,1.50253 0.10763,1.35326 0.1778,1.39905 1.27062,0.8291 z m -0.69736,-0.92767 c 0,-0.14552 0.24515,-0.26458 0.54478,-0.26458 0.29963,0 0.4712,0.11906 0.38126,0.26458 -0.0899,0.14552 -0.33509,0.26459 -0.54478,0.26459 -0.2097,0 -0.38126,-0.11907 -0.38126,-0.26459 z m 0.19843,-0.96898 c 0.18191,-0.0734 0.47956,-0.0734 0.66146,0 0.1819,0.0734 0.0331,0.13346 -0.33073,0.13346 -0.3638,0 -0.51263,-0.0601 -0.33073,-0.13346 z m 16.7349,1.12958 c 0,-0.0572 -0.17859,-0.17252 -0.39687,-0.25628 -0.21829,-0.0838 -0.39688,-0.037 -0.39688,0.10399 0,0.14095 0.17859,0.25628 0.39688,0.25628 0.21828,0 0.39687,-0.0468 0.39687,-0.10399 z m 1.78902,-0.0778 c -0.25296,-0.0662 -0.72921,-0.0686 -1.05833,-0.005 -0.32912,0.0633 -0.12215,0.11747 0.45994,0.1204 0.58208,0.003 0.85136,-0.0488 0.59839,-0.11506 z m -58.145271,-0.50815 c 0,-0.21898 -0.513749,-0.34281 -0.631536,-0.15223 -0.07641,0.12364 0.03442,0.22481 0.2463,0.22481 0.211879,0 0.385236,-0.0327 0.385236,-0.0726 z m -1.232408,-1.01638 c 0.09814,-0.25575 0.01998,-0.33461 -0.234754,-0.23686 -0.210034,0.0806 -0.316008,0.25313 -0.235495,0.3834 0.202785,0.32811 0.299699,0.29791 0.470249,-0.14654 z m 42.771989,-0.41035 c 0,-0.14552 -0.11203,-0.26458 -0.24896,-0.26458 -0.13694,0 -0.32256,0.11906 -0.41249,0.26458 -0.0899,0.14552 0.0221,0.26458 0.24896,0.26458 0.22687,0 0.41249,-0.11906 0.41249,-0.26458 z m -66.796018,-1.65365 c 0.195529,-0.79752 -0.282648,-1.04974 -0.501615,-0.26458 -0.521322,1.86934 -0.517737,1.8105 -0.08463,1.38906 0.224323,-0.21828 0.488133,-0.72429 0.586245,-1.12448 z m 97.884568,-0.85989 c 0,-0.26679 -0.13416,-0.52979 -0.29813,-0.58445 -0.34848,-0.11616 -0.70216,0.64714 -0.47223,1.01917 0.2464,0.39869 0.77036,0.10302 0.77036,-0.43472 z m 1.71979,0.13229 c 0,-0.14552 -0.0498,-0.26458 -0.11065,-0.26458 -0.0609,0 -0.29899,-0.0723 -0.52917,-0.1606 -0.27463,-0.10539 -0.41852,-0.0144 -0.41852,0.26458 0,0.24879 0.21953,0.42518 0.52917,0.42518 0.29104,0 0.52917,-0.11906 0.52917,-0.26458 z m -36.98415,-3.45111 c 0.92914,-0.25805 0.97442,-0.32019 0.81829,-1.12301 -0.19651,-1.01046 -0.67145,-1.40861 -0.9233,-0.774 -0.12842,0.3236 -0.18522,0.34421 -0.1985,0.072 -0.0154,-0.31494 -0.0762,-0.30873 -0.34932,0.0357 -0.1819,0.22935 -0.50932,0.48084 -0.72761,0.55885 -0.30286,0.10824 -0.28271,0.14678 0.085,0.16272 0.43811,0.019 0.44412,0.0587 0.0661,0.43667 -0.8792,0.8792 -0.4527,1.09815 1.22925,0.63103 z m -0.25032,-2.66738 c 0.15172,-0.10064 0.14176,-0.23182 -0.0254,-0.33516 -0.33443,-0.20669 -1.14611,0.88089 -0.92474,1.23908 0.0868,0.14049 0.28005,0.0318 0.42937,-0.24156 0.14933,-0.27335 0.38369,-0.57141 0.5208,-0.66236 z m 12.8928,-0.68305 c 0,-0.18821 0.1216,-0.34221 0.27021,-0.34221 0.14862,0 -0.12181,-0.74414 -0.60094,-1.65365 -0.7799,-1.48044 -1.53298,-2.11302 -1.65364,-1.38906 -0.0243,0.14552 0.006,0.17455 0.0667,0.0645 0.22852,-0.41269 0.59476,0.12746 0.59476,0.87716 0,0.86646 -0.15795,0.95077 -0.77291,0.41255 -0.22974,-0.20107 -0.67391,-0.4435 -0.98705,-0.53875 -0.54195,-0.16484 -0.55782,-0.12189 -0.32993,0.89236 0.13167,0.58604 0.20928,1.17271 0.17246,1.3037 -0.0368,0.131 0.2003,0.47289 0.52692,0.75977 0.51679,0.4539 0.73139,0.48488 1.65364,0.23872 0.58289,-0.15558 1.05979,-0.43687 1.05979,-0.62509 z m 6.4558,-0.84514 c -0.16896,-1.05663 -0.19699,-1.08406 -0.67023,-0.65578 -0.27165,0.24584 -0.4939,0.55826 -0.4939,0.69429 0,0.25408 1.1311,1.27157 1.26554,1.13843 0.0412,-0.0408 -0.004,-0.57043 -0.10141,-1.17694 z m -17.32576,-0.0924 c -0.0606,-0.0364 -0.42609,-0.34391 -0.81211,-0.6834 -0.62429,-0.54903 -0.6974,-0.56365 -0.66146,-0.13229 0.0407,0.48874 0.51714,0.82891 1.20898,0.86324 0.20616,0.0102 0.32522,-0.0112 0.26459,-0.0476 z"
             style="fill:#0b0b0b;stroke-width:0.26458332"
             sodipodi:nodetypes="ccccccsscccccccsssscscccccsccccccscscscsccccccccsccccccccccsscccccccsscsccccccccccccccsccccscccccccccscssccccccccccccccccccccccccscsccccsccccscccccccccccccccsssccccccccccccsssccssscccccccccccccccscccscsccccccscccccccccccscccsssscsccccccccscccscscccccsccccccccccscccsssccccccccsscscccccssccsccsccccscsccccccccccccccsscsssssssccsccccccccccsscsccccsccscccccccscssccccsscscsccsccccccccccccsscsssccccccccsscccccccsssccscsscsscsscscssscccccccsccccccsscssccscsccssscssscccccccccccccccccscccscccccsccccscccccccc" />
        </g>
      </g>
    </g>
  </g>
</svg>
