<?xml version="1.0" encoding="UTF-8"?>
<svg width="166.83mm" height="24.58mm" version="1.1" viewBox="0 0 166.83 24.58" xml:space="preserve" xmlns="http://www.w3.org/2000/svg"><g transform="translate(380.97 -95.08)"><path d="m-264.12 119.47c-0.23405-0.23406-0.14101-11.12 0.0963-11.267 0.28075-0.17351 5.3785 4.9491 5.6468 5.6743 0.17762 0.48015 0.44901 0.52094 3.4425 0.51735 3.722-5e-3 4.4314-0.23424 4.8111-1.5584 0.23076-0.8046 0.18381-0.95662-0.46883-1.518-0.67996-0.58487-0.93606-0.62385-4.0987-0.62385h-3.3735l-6.2011-6.0534 0.0726-4.4312 0.0726-4.4312 0.92604-0.24708c0.52774-0.14081 3.8066-0.18626 7.6233-0.10567 6.569 0.1387 6.7247 0.15482 8.1291 0.84195 1.78 0.87086 3.0196 2.2896 3.6684 4.1983 0.62336 1.8339 0.465 3.2279-0.62998 5.5454l-0.80286 1.6993 0.7095 1.2694c0.54707 0.97881 0.73467 1.7292 0.81945 3.2778 0.10019 1.8299 0.0406 2.1376-0.67037 3.4635-0.42918 0.80037-1.2704 1.8329-1.8694 2.2944-1.9541 1.5058-3.157 1.6865-10.877 1.6336-3.7913-0.026-6.9529-0.10678-7.0257-0.17963zm13.735-15.675c0.84569-1.005 0.85393-1.3413 0.0557-2.2693-0.61775-0.71817-0.69369-0.73362-4.1316-0.84074-3.8529-0.12005-3.9588-0.081-3.9662 1.4633-3e-3 0.61643 0.22965 1.0655 0.85585 1.6524 0.84696 0.79382 0.90231 0.80595 3.6806 0.80716l2.8207 1e-3 0.68498-0.81405zm21.018 15.507c-0.6769-0.19364-1.5699-0.53458-1.9844-0.75763s-1.1108-0.57849-1.5474-0.78988c-1.2811-0.62031-2.6456-2.2716-3.8665-4.6792-1.0656-2.1014-1.1474-2.4166-1.2464-4.8036-0.0868-2.0914-7.9e-4 -2.8944 0.47394-4.4285 0.55019-1.7777 1.6505-3.4679 2.2576-3.4679 0.1534 0 1.0984 0.82587 2.1001 1.8353l1.8212 1.8353-0.47314 1.2389c-0.91963 2.408-0.0812 5.6789 1.8292 7.1361 1.4062 1.0725 2.8919 1.4217 4.8844 1.148 0.93229-0.12808 1.864-0.37305 2.0704-0.54437 0.30501-0.25314 0.72014 0.0559 2.2155 1.6491 1.0121 1.0784 1.806 2.138 1.7642 2.3547-0.10844 0.5631-1.6531 1.5373-3.2238 2.0333-1.7825 0.56284-5.5058 0.68942-7.0749 0.24051zm-108.71-0.0618-2.2572-0.0984-2.2451-2.3056c-1.2348-1.2681-4.5977-4.6995-7.473-7.6252l-5.2279-5.3196 0.0729-4.3377 0.0729-4.3377h8.8635c8.1365 0 8.9395 0.04041 9.7896 0.49264 2.3292 1.2391 3.6722 3.2622 3.9762 5.9897 0.16544 1.4846 0.10122 1.955-0.46954 3.4396-1.0048 2.6134-2.4638 3.9298-5.2926 4.7749-0.61847 0.18477-1.1245 0.46734-1.1245 0.62794s1.609 1.9574 3.5755 3.993c4.4582 4.6147 4.4655 4.6262 2.9823 4.63-0.62358 2e-3 -1.5505 0.0416-2.0598 0.089-0.50933 0.0473-1.9418 0.0418-3.1832-0.0124zm-0.98268-15.768c0.2629-0.33034 0.43507-0.92778 0.39688-1.3772l-0.0675-0.79375-4.8286-0.0499c-3.5842-0.037-4.8269 0.0312-4.822 0.26458 9e-3 0.45072 2 2.4987 2.5627 2.6366 0.26039 0.0638 1.7831 0.0681 3.3838 0.01 2.6149-0.0957 2.9576-0.16573 3.3747-0.68994zm13.828 15.688c-0.31143-0.54689-0.25073-12.965 0.0634-12.965 0.36174 0 4.2255 3.8126 4.9309 4.8656 0.75291 1.1239 0.84551 2.2034 0.51969 6.058l-0.1697 2.0075-2.6345 0.0829c-1.449 0.0456-2.6684 0.0234-2.7098-0.0494zm8.1541-8.1028-8.2913-8.3674v-3.5232c0-2.0138 0.111-3.5918 0.25911-3.6834 0.29241-0.18072 1.1111 0.20188 1.6385 0.76569 3.0558 3.2671 13.849 13.862 14.016 13.759 0.12429-0.0768 0.22729-1.8293 0.22889-3.8944 4e-3 -5.5108-0.0544-5.3322 2.7107-8.2526 1.3089-1.3824 2.55-2.5135 2.758-2.5135 0.32468 0 0.3544 1.6562 0.21011 11.708-0.0924 6.4393-0.21428 11.857-0.27075 12.039-0.0724 0.23316-0.82037 0.33073-2.5354 0.33073h-2.4327zm19.755 7.7995c0-0.31236 0.44648-1.222 0.99219-2.0213 0.5457-0.79936 1.4116-2.1809 1.9241-3.0701 1.4829-2.5725 1.9072-3.2708 3.1254-5.1444 0.63082-0.97018 1.6068-2.5478 2.1687-3.5058 1.5733-2.682 1.6327-2.6945 2.794-0.58803 0.54601 0.9904 1.2104 2.1168 1.4764 2.503 0.50465 0.73274 0.65349 1.8112 0.24996 1.8112-0.12855 0-0.306 0.20836-0.39434 0.46303-0.20899 0.60247-1.3863 2.6669-1.8156 3.1836-0.18397 0.22145-0.83244 1.2477-1.441 2.2806-0.60861 1.0329-1.4384 2.4365-1.8441 3.1191-0.40563 0.68261-0.97924 1.3061-1.2747 1.3854-0.29546 0.0794-1.7576 0.14597-3.2492 0.14796-2.5984 3e-3 -2.712-0.0202-2.712-0.56432zm21.828-0.27321c-1.8447-2.9206-2.2647-3.6072-2.6413-4.3182-1.0499-1.9821-1.3241-2.4627-2.1134-3.7042-3.868-6.0836-6.0367-9.8845-5.8516-10.255 0.0901-0.18046 0.51512-0.8639 0.94439-1.5187 0.42928-0.65484 1.0289-1.6446 1.3325-2.1995 0.35566-0.65002 0.70848-0.97878 0.99184-0.92421 0.55089 0.10609 0.99983 0.80138 6.117 9.4737 2.4803 4.2035 6.2983 10.605 7.2214 12.108 0.24455 0.39819 0.52535 1.0514 0.624 1.4516l0.17936 0.72761-6.2751-4e-3 -0.52916-0.83779zm-105.27 0.38898c-0.23516-0.23515-0.17748-13.045 0.0587-13.033 0.60889 0.0294 5.1072 5.097 5.4879 6.1824l0.28786 0.82065 6.5913 0.13229c3.6252 0.0728 6.7401 0.22861 6.922 0.34634 0.36145 0.23394 0.42972 2.0984 0.15928 4.35l-0.16685 1.3891h-9.5763c-5.267 0-9.6608-0.0844-9.7639-0.18757zm25.399-0.22204c-0.44116-1.1496-0.0394-11.232 0.4476-11.232 0.14773 0 1.3804 1.1609 2.7393 2.5797l2.4707 2.5797-0.133 6.35-2.6803 0.075c-2.2685 0.0635-2.7054 9e-3 -2.8443-0.35237zm137.16-4.5528c-0.50616-0.54492-1.3158-1.4334-1.7993-1.9745l-0.87901-0.98371 0.41024-1.2084c1.0818-3.1862-0.0978-6.4341-2.849-7.8448-1.4446-0.74072-3.2458-0.88926-4.6783-0.38581-0.65485 0.23015-1.3794 0.4202-1.6102 0.42231-0.23079 2e-3 -1.228-0.83347-2.216-1.8569-1.7318-1.7939-1.7798-1.879-1.3361-2.3693 1.3728-1.517 5.221-2.5661 8.4344-2.2995 2.055 0.17047 4.5286 1.2589 6.5465 2.8805 1.0466 0.84105 3.1461 3.8546 3.1461 4.5158 0 0.19275 0.10022 0.46356 0.22272 0.6018 0.12249 0.13825 0.35618 0.9062 0.5193 1.7066 0.54066 2.6526-0.29511 6.8145-1.7176 8.5531-0.33656 0.41134-0.61192 0.85783-0.61192 0.99218 0 0.5282-0.70556 0.19395-1.5818-0.74933zm-158.11-6.7409c-1.3174-1.3486-2.9021-3.0229-3.5215-3.7207l-1.1263-1.2687 0.0826-3.626 0.0826-3.626 19.976-0.13866v2.6397c0 2.2452-0.0692 2.676-0.46302 2.8823-0.25538 0.13383-2.8362 0.1976-5.7547 0.1422-5.5491-0.10532-6.8291-2e-3 -6.6955 0.53909 0.0445 0.18019 0.70993 0.88365 1.4788 1.5632l1.3979 1.2356 4.4891 0.0331c2.469 0.0182 4.6379 0.048 4.8198 0.0661 0.24149 0.0242 0.33073 0.78273 0.33073 2.8112v2.7781l-12.701 0.1414z" fill="#57978e" stroke-width=".26458"/></g></svg>
