<?xml version="1.0" encoding="UTF-8" standalone="no"?>
<!-- Created with Inkscape (http://www.inkscape.org/) -->

<svg
   width="247.87041mm"
   height="60.446712mm"
   viewBox="0 0 247.87041 60.446713"
   version="1.1"
   id="svg5"
   xml:space="preserve"
   inkscape:version="1.2-rc (6364d40632, 2022-05-08)"
   sodipodi:docname="kuznia_ekspertow.svg"
   xmlns:inkscape="http://www.inkscape.org/namespaces/inkscape"
   xmlns:sodipodi="http://sodipodi.sourceforge.net/DTD/sodipodi-0.dtd"
   xmlns="http://www.w3.org/2000/svg"
   xmlns:svg="http://www.w3.org/2000/svg"><sodipodi:namedview
     id="namedview7"
     pagecolor="#505050"
     bordercolor="#eeeeee"
     borderopacity="1"
     inkscape:showpageshadow="0"
     inkscape:pageopacity="0"
     inkscape:pagecheckerboard="0"
     inkscape:deskcolor="#505050"
     inkscape:document-units="mm"
     showgrid="false"
     inkscape:zoom="0.66898373"
     inkscape:cx="-196.56681"
     inkscape:cy="48.581152"
     inkscape:window-width="2400"
     inkscape:window-height="1271"
     inkscape:window-x="1314"
     inkscape:window-y="951"
     inkscape:window-maximized="1"
     inkscape:current-layer="g451" /><defs
     id="defs2" /><g
     inkscape:label="Warstwa 1"
     inkscape:groupmode="layer"
     id="layer1"
     transform="translate(258.63413,-11.160949)"><g
       id="g451"
       transform="translate(83.648335,-27.882778)"><g
         id="g574"
         transform="matrix(0.94438816,0,0,0.94438816,296.57752,45.871487)"><path
           style="fill:#ba141a;stroke-width:0.264583"
           d="m -676.4803,39.282321 v -17.26788 l 3.43958,-3.431948 3.43958,-3.431947 v 20.699828 20.699828 h -3.43958 -3.43958 z m 19.57916,7.610589 -9.65457,-9.657291 h 4.97386 4.97387 l 9.57686,9.43928 c 5.26727,5.191604 9.68997,9.537385 9.82821,9.657292 0.13825,0.119906 -2.06502,0.218011 -4.89615,0.218011 h -5.1475 z m 68.39479,-20.163703 c -3.46879,-0.322074 -6.38641,-2.173967 -7.8052,-4.954185 l -0.92605,-1.814634 -0.0812,-9.618635 -0.0812,-9.61863461 h 3.3125 3.3125 l 0.076,9.15010191 0.076,9.1501007 0.84819,0.757589 c 1.52625,1.363208 3.92112,1.363208 5.44736,0 l 0.8482,-0.757589 0.076,-9.1501007 0.076,-9.15010191 h 3.31233 3.31232 l -0.0862,9.72343761 c -0.0944,10.639338 -0.0509,10.32755 -1.76996,12.692488 -1.73542,2.387463 -6.06636,3.950534 -9.9476,3.590163 z M -619.59489,13.55541 V 0.72311839 h 3.30105 3.30104 l 0.0724,4.56406251 0.0724,4.5640625 1.56905,-2.1166666 c 0.86299,-1.1641667 2.38079,-3.2179949 3.37291,-4.5640626 l 1.80384,-2.44739581 h 4.10401 4.104 l -4.84405,5.88697921 c -2.66422,3.2378385 -4.92949,6.0276514 -5.03392,6.1995834 -0.1482,0.243995 4.84278,7.075123 9.67878,13.247292 0.20499,0.261625 -0.61835,0.329536 -3.94046,0.325024 l -4.19958,-0.0057 -3.175,-4.486508 c -1.74625,-2.467578 -3.2643,-4.489074 -3.37344,-4.492212 -0.10914,-0.0031 -0.19843,2.018358 -0.19843,4.492212 v 4.497917 h -3.3073 -3.30729 z m 45.7783,11.7845 c -0.294,-0.576287 -0.53455,-1.172356 -0.53455,-1.324597 0,-0.152242 2.44078,-4.070946 5.42396,-8.708232 2.98318,-4.637284 5.42396,-8.5060596 5.42396,-8.5972778 0,-0.091218 -2.26219,-0.1658515 -5.02708,-0.1658515 h -5.02709 V 3.6301931 0.71643422 l 9.43017,0.0694881 9.43017,0.0694878 0.61056,0.96486458 0.61055,0.9648642 -5.31104,8.4278441 c -2.92107,4.635314 -5.36854,8.576672 -5.43882,8.758573 -0.0995,0.257503 0.99153,0.330729 4.9276,0.330729 h 5.0554 v 3.042708 3.042709 h -9.51963 -9.51962 z m 23.01337,-11.7845 V 0.72311839 l 3.10885,0.005919 3.10886,0.005919 3.07981,5.48418491 c 1.6939,3.0163029 3.57503,6.6152807 4.18029,7.9977277 0.60526,1.382448 1.02112,2.156355 0.92413,1.719792 -0.097,-0.436562 -0.23189,-4.038203 -0.29978,-8.0036462 l -0.12344,-7.20989587 h 3.1971 3.19709 V 13.55541 26.387702 h -3.28199 -3.28199 l -2.82704,-4.91027 c -2.59281,-4.503449 -3.55675,-6.378977 -4.73836,-9.219417 -0.2363,-0.568046 -0.47585,-0.984765 -0.53232,-0.926042 -0.0565,0.05872 0.0579,0.999739 0.25413,2.091145 0.2201,1.224022 0.36215,4.088022 0.37074,7.47448 l 0.0139,5.490104 h -3.175 -3.175 z m 24.34166,0 V 0.72311839 h 3.3073 3.30729 V 13.55541 26.387702 h -3.30729 -3.3073 z m 8.52653,12.501563 c 0.0641,-0.181901 2.0711,-5.955872 4.46008,-12.831043 l 4.3436,-12.50031341 3.05098,-0.001249 3.05098,-0.001249 4.46433,12.50156241 c 2.45539,6.875859 4.51823,12.650391 4.5841,12.832292 0.092,0.254127 -0.70444,0.330729 -3.43873,0.330729 h -3.5585 l -0.79103,-2.579688 -0.79102,-2.579687 h -3.41395 -3.41394 l -0.79532,2.579687 -0.79531,2.579688 h -3.53637 c -2.71483,0 -3.50932,-0.07683 -3.4199,-0.330729 z m 13.68846,-10.847917 c -0.006,-0.181901 -0.39734,-1.938073 -0.87074,-3.902604 l -0.86071,-3.5718752 -0.83565,3.1750002 c -0.4596,1.74625 -0.91412,3.502422 -1.01003,3.902604 l -0.17439,0.727604 h 1.88077 c 1.33356,0 1.87785,-0.09622 1.87075,-0.330729 z m -61.40246,-19.3145835 1.82344,-2.9765625 3.47449,-0.073867 3.47448,-0.073867 -2.40972,3.05043 -2.40972,3.0504296 h -2.88821 -2.8882 z"
           id="path578" /><path
           style="fill:#364d58;stroke-width:0.264583"
           d="m -571.58041,56.333484 c -0.73167,-0.27292 -1.80323,-0.799449 -2.38125,-1.170066 -1.24359,-0.797378 -3.13636,-2.703754 -2.99927,-3.020825 0.0529,-0.122431 0.96088,-1.047181 2.01765,-2.055003 l 1.9214,-1.832404 0.72443,0.692328 c 1.09482,1.046294 2.91989,1.769448 4.4823,1.776044 1.72171,0.0073 2.60217,-0.383188 2.99328,-1.327422 0.60148,-1.4521 -0.57774,-2.344648 -4.04601,-3.062396 -5.21931,-1.080119 -7.93422,-3.819758 -7.96721,-8.039788 -0.0174,-2.222497 0.44633,-3.514707 1.78073,-4.962356 3.71419,-4.029424 11.32758,-3.960622 15.32822,0.138525 l 0.99897,1.023557 -2.11273,1.637657 -2.11272,1.637657 -1.1352,-0.787932 c -1.66261,-1.154006 -3.32266,-1.528852 -4.60659,-1.040183 -1.81405,0.690431 -2.2166,2.566239 -0.75609,3.523203 0.37044,0.24272 1.87296,0.738081 3.33894,1.100801 5.76012,1.425202 7.90001,3.57137 7.90001,7.923181 0,3.600103 -1.79786,6.032778 -5.58357,7.555111 -2.04743,0.823322 -5.96472,0.969399 -7.78529,0.290311 z m 109.14802,0.102691 c -2.9063,-0.808686 -5.36597,-2.728791 -6.38618,-4.985274 -0.60267,-1.332987 -0.62528,-1.617372 -0.62528,-7.865282 v -6.482292 l 0.73549,-1.497685 c 1.36002,-2.769444 3.92215,-4.443383 7.70002,-5.030716 5.16881,-0.803576 10.0615,1.200328 12.02261,4.92411 0.69635,1.322245 0.7067,1.419781 0.79442,7.482846 0.0727,5.021852 0.0122,6.406748 -0.33098,7.587363 -0.77819,2.676883 -3.77339,5.20712 -7.06127,5.965111 -1.573,0.362641 -5.38932,0.30793 -6.84883,-0.09818 z m 5.92705,-6.075733 c 1.66129,-0.694132 1.74587,-1.022332 1.74587,-6.774823 0,-5.752492 -0.0846,-6.080692 -1.74587,-6.774823 -1.19604,-0.499737 -3.65613,-0.46695 -4.77424,0.06362 -1.53659,0.729163 -1.68198,1.321065 -1.68198,6.847745 0,2.875923 0.11349,5.137385 0.27276,5.434967 0.73063,1.365208 4.18644,2.037715 6.18346,1.20331 z M -619.59489,43.585619 V 30.621035 h 8.99584 8.99583 v 3.175 3.175 h -5.70013 -5.70014 l 0.0777,1.918229 0.0777,1.91823 5.22552,0.07174 5.22552,0.07174 v 2.772532 2.772531 h -5.30326 -5.30326 l 0.0777,1.918229 0.0777,1.91823 5.62239,0.07141 5.6224,0.07141 v 3.037446 3.037446 h -8.99583 -8.99584 z m 21.43125,0 V 30.621035 h 3.30119 3.30119 l 0.0722,4.688504 0.0723,4.688504 3.42373,-4.688504 3.42373,-4.688504 h 4.08314 c 3.22451,0 4.03017,0.06955 3.83119,0.330729 -0.13857,0.181901 -2.41534,2.97923 -5.05948,6.216285 -2.64413,3.237053 -4.80752,5.953387 -4.80752,6.036297 0,0.140483 8.86044,11.862348 9.73801,12.882835 0.37688,0.438259 0.17267,0.463021 -3.81847,0.463021 h -4.21664 l -3.16655,-4.487106 c -1.74161,-2.467909 -3.25586,-4.491971 -3.365,-4.497917 -0.10914,-0.0059 -0.19843,2.013252 -0.19843,4.487106 v 4.497917 h -3.3073 -3.30729 z m 42.8625,-0.03291 V 30.555217 l 6.28386,0.133443 c 7.02324,0.14914 7.73751,0.291441 9.96717,1.985685 0.86178,0.654836 1.62226,1.570942 2.24896,2.70919 0.90835,1.649796 0.94689,1.827477 0.94689,4.365625 0,2.30197 -0.0901,2.837932 -0.69316,4.123923 -0.84768,1.807581 -2.18544,3.18539 -4.01204,4.13213 -1.22878,0.636884 -1.75763,0.731235 -4.8198,0.859872 l -3.43959,0.144492 -0.0734,3.770312 -0.0734,3.770313 h -3.16773 -3.16774 z m 11.8462,-0.935739 c 1.05075,-0.777245 1.54902,-2.487898 1.08204,-3.714853 -0.61607,-1.618665 -1.48433,-2.049899 -4.14186,-2.057117 l -2.30409,-0.0063 -0.0756,2.893411 c -0.0416,1.591379 -0.01,3.064722 0.0705,3.2741 0.23526,0.613053 4.4246,0.309301 5.36902,-0.389284 z m 9.84963,0.968648 V 30.621035 h 8.99584 8.99583 v 3.175 3.175 h -5.70013 -5.70013 l 0.0777,1.918229 0.0777,1.91823 5.22552,0.07174 5.22552,0.07174 v 2.772532 2.772531 h -5.30326 -5.30325 l 0.0777,1.918229 0.0777,1.91823 5.6224,0.07141 5.62239,0.07141 v 3.037446 3.037446 h -8.99583 -8.99584 z m 21.43125,0 V 30.621035 l 5.09323,0.0082 c 8.33552,0.01336 10.58939,0.537051 12.77531,2.968318 1.56634,1.742152 2.07429,3.462888 1.92539,6.522508 -0.16862,3.464912 -1.70043,6.250824 -3.94911,7.182255 -0.41996,0.173956 -0.76357,0.391856 -0.76357,0.484227 0,0.09237 1.55243,2.105036 3.44984,4.472588 l 3.44984,4.304642 -4.17299,-0.07292 -4.17299,-0.07292 -2.91487,-4.023741 c -2.24471,-3.098644 -3.05174,-4.026305 -3.51018,-4.034896 -0.59224,-0.0111 -0.59531,0.01004 -0.59531,4.089887 v 4.101042 h -3.30729 -3.3073 z m 12.1962,-1.405147 c 1.41637,-0.936972 1.7016,-2.836574 0.61909,-4.123063 -0.82009,-0.974619 -2.04001,-1.34752 -4.41476,-1.349481 l -1.78594,-0.0015 v 3.074268 3.074268 l 2.44739,-0.110078 c 1.72258,-0.07748 2.65081,-0.244641 3.13422,-0.564438 z m 15.58505,4.580147 v -9.789584 h -3.43958 -3.43958 v -3.175 -3.175 h 10.18646 10.18645 v 3.175 3.175 h -3.43958 -3.43958 v 9.789584 9.789583 h -3.30729 -3.3073 z m 44.45,9.668436 c 0,-0.109191 -6.7475,-23.527714 -7.30256,-25.344999 -0.12964,-0.424434 0.14441,-0.463021 3.28842,-0.463021 h 3.42986 l 1.59855,6.548438 c 0.87921,3.60164 1.67279,7.381875 1.76353,8.400521 0.27071,3.039041 0.48221,3.099342 0.80694,0.23006 0.20881,-1.845043 0.7473,-4.091958 1.7279,-7.209896 l 1.42456,-4.529539 2.51838,5.29e-4 2.51838,5.29e-4 1.29185,4.426818 c 0.71051,2.434748 1.50306,5.678916 1.76122,7.209261 0.25816,1.530344 0.48051,2.713873 0.49409,2.630064 0.0136,-0.08381 0.20376,-1.393497 0.42258,-2.910417 0.21883,-1.51692 1.08203,-5.436941 1.91823,-8.71116 l 1.52037,-5.953125 3.37343,-0.07405 c 1.85539,-0.04073 3.37344,-0.01452 3.37344,0.05822 0,0.148212 -6.74521,23.606679 -7.17489,24.952807 l -0.27448,0.859896 h -3.00025 -3.00025 l -1.19312,-3.638021 c -0.65621,-2.000911 -1.3389,-4.709583 -1.51708,-6.019271 -0.17818,-1.309687 -0.40155,-2.532795 -0.49637,-2.718019 -0.0948,-0.185225 -0.3788,0.945869 -0.63107,2.513541 -0.25227,1.567881 -0.90609,4.398333 -1.45293,6.290104 l -0.99425,3.439583 -3.09724,0.07454 c -1.70348,0.041 -3.09724,0.01247 -3.09724,-0.0634 z m -197.91227,-4.529469 -2.5096,-2.536534 3.96875,-3.799718 3.96875,-3.799718 0.0723,4.80477 0.0723,4.804769 -1.53148,1.531483 -1.53148,1.531482 z m -10.31481,-10.188453 -2.51354,-2.377326 8.99583,-8.814443 8.99584,-8.814443 0.0723,4.780605 0.0723,4.780603 -6.42031,6.424329 c -3.53117,3.533379 -6.48076,6.418403 -6.55463,6.411164 -0.0739,-0.0072 -1.26541,-1.082961 -2.64786,-2.390489 z m -1.61494,-23.988535 c 9.36655,-9.2769535 17.13356,-16.90687544 17.26002,-16.9553823 0.12646,-0.0485071 0.22992,2.0951034 0.22992,4.7635785 v 4.8517728 l -12.10575,12.10361 -12.10576,12.103608 h -5.15426 -5.15427 z m 187.36889,10.980208 c 0.009,-0.181901 0.76217,-1.521354 1.67362,-2.976562 l 1.65719,-2.645834 3.3782,-0.07424 c 1.85801,-0.04083 3.3373,0.02418 3.28731,0.144458 -0.05,0.120282 -1.09564,1.493141 -2.32367,3.050799 l -2.23277,2.832105 h -2.72816 c -2.01492,0 -2.72387,-0.08647 -2.71172,-0.330729 z"
           id="path576" /></g></g></g></svg>
