<svg width="276.06mm" height="182.91mm" version="1.1" viewBox="0 0 276.06 182.91" xml:space="preserve" xmlns="http://www.w3.org/2000/svg" xmlns:xlink="http://www.w3.org/1999/xlink"><defs><linearGradient id="linearGradient10208" x1="-309.43" x2="-339.93" y1="160.02" y2="76.388" gradientUnits="userSpaceOnUse"><stop stop-color="#fad6b8" offset="0"/><stop stop-color="#fefdfd" offset="1"/></linearGradient><linearGradient id="linearGradient13468" x1="-316.1" x2="-340.82" y1="116.77" y2="77.418" gradientUnits="userSpaceOnUse"><stop stop-color="#28161e" offset="0"/><stop stop-color="#bf7058" offset="1"/></linearGradient><linearGradient id="linearGradient21218" x1="-347.45" x2="-267.26" y1="134.96" y2="134.96" gradientUnits="userSpaceOnUse"><stop stop-color="#352427" offset="0"/><stop stop-color="#241924" offset="1"/></linearGradient><radialGradient id="radialGradient31955" cx="-53.446" cy="274.63" r="138.03" gradientTransform="matrix(.0015448 -.82159 1.1975 .0022516 -389.32 195.3)" gradientUnits="userSpaceOnUse"><stop stop-color="#c58a66" offset="0"/><stop stop-color="#2b2327" offset="1"/></radialGradient><linearGradient id="linearGradient38565" x1="-389.85" x2="-322.98" y1="207.72" y2="207.92" gradientUnits="userSpaceOnUse"><stop stop-color="#f9c87e" offset="0"/><stop stop-color="#4e8c9f" offset="1"/></linearGradient></defs><g transform="translate(526.44 -64.899)">
<path transform="translate(-217.13 -5.1415)" d="m-241.68 208.99c-14.377 2.1186-25.208 10.619-35.694 19.742l-31.937 24.224c92.015-1.1358 184.04-0.65874 276.06-0.65874v-163.74c-24.57 19.451-59.653 68.239-73.709 58.353-3.5544-3.2618-6.3186-7.1602-19.054-3.0261-3.6466-0.18923-7.994-6.1568-10.896-6.527-2.8721-4.6773-3.8965-5.4746-5.646-3.465-5.8291-3.3122-8.4864-6.1891-12.116-5.088-1.9764 1.1216 0.84749 5.9641-4.7439 3.8512-1.3786-1.4766-3.4247-1.785-5.537-1.9775l-11.47 3.5595c-6.2948-0.46575-7.0114-5.4084-17.402-3.164-4.7893 2.077-6.9737 3.8245-10.679 12.854 1.416 24.677 14.988 24.136 14.831 33.815-1.4328 2.9588-1.3982 5.2887-1.582 7.7123 2.7298 9.3112-0.2638 9.4649-0.85098 13.469-2.1048 3.0357-8.5364 2.9736-16.613 2.1653-7.5429 0.49122-12.275 3.4948-18.329 11.062-4.877-1.0557-8.6354-3.4163-14.634-3.164z" fill="url(#radialGradient31955)"/>
<path d="m-389.79 210.43c0.0546 0.70843-0.0175 1.3408 0.2472 2.1753 0.49155 0.62642 1.9328 0.80968 3.0651 1.1371l76.719 9.0068c2.7542 0.0456 5.4285 0.37866 8.4947-0.69915l38.034-16.5c0.74511-0.51936 0.23421-1.7633 0.20975-2.7267l0.0134-135.39c-0.0179-0.68356 0.15263-1.3391-1.1233-1.896-0.82588-0.25967-1.7881-0.58131-1.879-0.50689l0.24472 139.82-3.1147 0.13065-34.568 14.125c0.0633 0.0905-0.63453 0.837-0.86517 0.93931-0.291 0.12908-4.1711 0.37561-4.2022 0.19775z" fill="#181119"/>
<path d="m-267.65 201.01-76.925-7.91 0.19775-119.24 77.065-5.518-0.33758-1.8976-79.792 5.6359 0.0989 123.79 80.089 7.6134z" fill="url(#linearGradient21218)"/>
<path d="m-266.51 64.949-81.832 5.1539c-0.6167 0.10363-1.1373 0.38018-1.2917 1.316l0.76393 124.79 1.3859-0.30753-0.41947-124.31 80.962-5.4534z" fill="#f1d1a8"/>
<path d="m-348.93 196.24 0.0851-124.42c2e-3 -0.577 0.27199-0.83956 0.75161-0.85646l81.511-6.0648c0.74659-0.0083 1.4864 0.46845 1.4955 1.5449l-0.61799 137.86c2e-3 0.48824-0.18567 0.7866-0.74155 0.71685l-82.486-8.7741 2.5169-1.5119 78.148 7.883c-0.1532-44.769-0.32447-89.538-0.48938-134.31-9e-3 -0.6665 0.0213-0.66006-0.66421-0.62924l-77.239 5.1038 0.24472 121.96z" fill="url(#linearGradient13468)"/>
<path d="m-349.02 194.5-40.83 13.284 0.13983 2.6568 85.576 10.487 36.915-16.36-79.983-8.6695z" fill="url(#linearGradient38565)"/>
<path transform="translate(1e-5)" d="m-344.88 193.8 0.59324-120.03 75.505-5.6508 2.2105 134.58z" fill="url(#linearGradient10208)"/><g fill="#4a3233">
<path d="m-385.92 207.69 6.3929-2.3553c29.504 4.2605 52.878 6.1127 82.382 9.5105l-6.7818 3.6356c-29.415-3.5391-52.762-5.8319-81.948-10.432-0.12137-0.0191-0.18602-0.25241-0.0454-0.35901z"/>
<path d="m-275.58 203.92-21.518 10.499-8.214-0.69068 21.661-10.63z"/>
<path d="m-306.18 213.6 21.821-10.54-16.456-1.8997-22.954 10.552c5.7014 0.6037 11.935 0.94555 17.588 1.8877z"/>
<path d="m-324.41 211.64 22.992-10.572-15.729-1.6949-22.542 10.714z"/>
<path d="m-340.38 209.94 22.794-10.566-16.882-1.8383-25.708 10.039z"/>
<path d="m-378.92 205.11 18.047 2.3277 25.655-10.001-13.848-1.2895z"/></g>
<path d="m-267.18 204.6-36.88 16.364-85.7-10.505-0.16068-2.6573 1.8106-0.58089c-0.65195 0.36614-1.6124 0.60568-1.0506 0.84044l85.515 11.111 31.324-15.264z" fill="#38242a"/></g></svg>
