<?xml version="1.0" encoding="UTF-8" standalone="no"?>
<!-- Created with Inkscape (http://www.inkscape.org/) -->

<svg
   xmlns:dc="http://purl.org/dc/elements/1.1/"
   xmlns:cc="http://creativecommons.org/ns#"
   xmlns:rdf="http://www.w3.org/1999/02/22-rdf-syntax-ns#"
   xmlns:svg="http://www.w3.org/2000/svg"
   xmlns="http://www.w3.org/2000/svg"
   xmlns:sodipodi="http://sodipodi.sourceforge.net/DTD/sodipodi-0.dtd"
   xmlns:inkscape="http://www.inkscape.org/namespaces/inkscape"
   width="73.659996mm"
   height="73.659996mm"
   viewBox="0 0 73.659996 73.659996"
   version="1.1"
   id="svg8"
   inkscape:version="0.92.1 r15371"
   sodipodi:docname="facebook.svg">
  <defs
     id="defs2" />
  <sodipodi:namedview
     id="base"
     pagecolor="#ffffff"
     bordercolor="#666666"
     borderopacity="1.0"
     inkscape:pageopacity="0.0"
     inkscape:pageshadow="2"
     inkscape:zoom="1.6976087"
     inkscape:cx="112.8537"
     inkscape:cy="181.63523"
     inkscape:document-units="mm"
     inkscape:current-layer="g4600"
     showgrid="false"
     fit-margin-top="0"
     fit-margin-left="0"
     fit-margin-right="0"
     fit-margin-bottom="0"
     inkscape:window-width="1920"
     inkscape:window-height="1051"
     inkscape:window-x="-9"
     inkscape:window-y="-9"
     inkscape:window-maximized="1" />
  <metadata
     id="metadata5">
    <rdf:RDF>
      <cc:Work
         rdf:about="">
        <dc:format>image/svg+xml</dc:format>
        <dc:type
           rdf:resource="http://purl.org/dc/dcmitype/StillImage" />
        <dc:title></dc:title>
      </cc:Work>
    </rdf:RDF>
  </metadata>
  <g
     inkscape:label="Layer 1"
     inkscape:groupmode="layer"
     id="layer1"
     transform="translate(-238.96598,-182.20927)">
    <g
       id="g4496"
       transform="translate(59.952706,93.896518)">
      <g
         id="g4537">
        <g
           id="g4583">
          <g
             id="g4600">
            <path
               style="fill:#ffffff;fill-opacity:1;stroke-width:0.21166666"
               d="m 221.76554,161.86691 c -0.24269,-0.38378 -0.27704,-25.70327 -0.0357,-26.08319 0.11904,-0.18738 1.31142,-0.27594 4.27523,-0.3175 l 4.11015,-0.0576 0.15759,-0.74083 c 0.22894,-1.07627 1.44547,-8.82072 1.44547,-9.20192 0,-0.27989 -0.62966,-0.32351 -4.70959,-0.32632 -2.59027,-0.002 -4.83582,-0.0833 -4.99012,-0.1811 -0.22174,-0.14059 -0.2661,-1.08253 -0.21166,-4.49468 0.0629,-3.94041 0.1086,-4.39064 0.52452,-5.16348 0.52963,-0.98414 1.15352,-1.59375 2.19018,-2.14006 0.59592,-0.31404 1.32048,-0.40294 3.70417,-0.45448 1.62983,-0.0352 3.17957,-0.11112 3.44386,-0.16862 l 0.48053,-0.10455 -0.0572,-4.38064 -0.0572,-4.38064 -1.5875,-0.29167 c -0.94936,-0.17442 -3.20413,-0.30083 -5.60917,-0.31447 -3.95518,-0.0224 -4.0515,-0.0123 -5.82592,0.61269 -3.27543,1.15366 -5.47388,3.03179 -6.87911,5.8768 -1.32262,2.67775 -1.41773,3.26707 -1.52509,9.44981 -0.0587,3.37847 -0.18393,5.71438 -0.31497,5.87375 -0.16141,0.19628 -1.3593,0.26458 -4.64042,0.26458 h -4.42285 l 0.0567,5.13292 0.0567,5.13291 4.55084,0.10584 4.55083,0.10583 0.055,10.14734 c 0.0303,5.58103 -0.0174,16.03941 -0.10583,16.12649 z"
               id="path4602"
               inkscape:connector-curvature="0"
               sodipodi:nodetypes="cccccsccccccccccccccccscccccccc" />
          </g>
        </g>
      </g>
    </g>
  </g>
</svg>
