<?xml version="1.0" encoding="UTF-8" standalone="no"?>
<!-- Created with Inkscape (http://www.inkscape.org/) -->

<svg
   xmlns:dc="http://purl.org/dc/elements/1.1/"
   xmlns:cc="http://creativecommons.org/ns#"
   xmlns:rdf="http://www.w3.org/1999/02/22-rdf-syntax-ns#"
   xmlns:svg="http://www.w3.org/2000/svg"
   xmlns="http://www.w3.org/2000/svg"
   xmlns:sodipodi="http://sodipodi.sourceforge.net/DTD/sodipodi-0.dtd"
   xmlns:inkscape="http://www.inkscape.org/namespaces/inkscape"
   width="108.37334mm"
   height="108.37334mm"
   viewBox="0 0 108.37334 108.37334"
   version="1.1"
   id="svg8"
   inkscape:version="0.92.1 r15371"
   sodipodi:docname="github.svg">
  <defs
     id="defs2" />
  <sodipodi:namedview
     id="base"
     pagecolor="#ffffff"
     bordercolor="#666666"
     borderopacity="1.0"
     inkscape:pageopacity="0.0"
     inkscape:pageshadow="2"
     inkscape:zoom="1.2003906"
     inkscape:cx="119.78488"
     inkscape:cy="323.27708"
     inkscape:document-units="mm"
     inkscape:current-layer="layer1"
     showgrid="false"
     fit-margin-top="0"
     fit-margin-left="0"
     fit-margin-right="0"
     fit-margin-bottom="0"
     inkscape:window-width="1920"
     inkscape:window-height="1051"
     inkscape:window-x="-9"
     inkscape:window-y="-9"
     inkscape:window-maximized="1" />
  <metadata
     id="metadata5">
    <rdf:RDF>
      <cc:Work
         rdf:about="">
        <dc:format>image/svg+xml</dc:format>
        <dc:type
           rdf:resource="http://purl.org/dc/dcmitype/StillImage" />
        <dc:title></dc:title>
      </cc:Work>
    </rdf:RDF>
  </metadata>
  <g
     inkscape:label="Layer 1"
     inkscape:groupmode="layer"
     id="layer1"
     transform="translate(-61.090043,-125.99372)">
    <path
       style="fill:#000000;stroke-width:0.21166667"
       d="m 61.090043,180.18039 v -54.18667 h 54.186667 54.18667 v 54.18667 54.18667 H 115.27671 61.090043 Z m 43.973757,37.77785 c 0.45852,-0.52772 0.47625,-0.70026 0.47625,-4.6354 v -4.08727 l -0.89959,0.17402 c -1.27159,0.246 -4.46074,0.22928 -6.085407,-0.0319 -3.14798,-0.50606 -4.90377,-1.85851 -6.30371,-4.85562 -1.30156,-2.78651 -2.55223,-4.47403 -4.08956,-5.51801 -2.15824,-1.46562 -2.19411,-2.41953 -0.0899,-2.38912 2.15086,0.0311 4.70498,1.72832 6.12925,4.07292 0.92348,1.5202 2.5673,3.08188 3.88456,3.69043 1.2987,0.59997 4.232207,0.62406 5.972647,0.049 1.51063,-0.49908 1.61404,-0.59442 1.78163,-1.64244 0.17356,-1.08542 1.02574,-2.8294 1.75966,-3.60116 0.62678,-0.6591 0.5791,-0.69442 -1.21296,-0.89833 -4.17181,-0.47469 -8.540717,-2.35242 -11.064867,-4.75561 -1.77804,-1.69283 -2.70692,-3.13654 -3.6623,-5.69213 -1.53493,-4.10585 -1.81879,-10.20928 -0.6367,-13.68977 0.57924,-1.70547 2.06902,-4.35011 2.84724,-5.05439 0.40103,-0.36293 0.40454,-0.41946 0.0782,-1.26112 -0.24855,-0.64106 -0.34516,-1.63094 -0.35452,-3.63282 -0.0109,-2.33864 0.0642,-3.00117 0.50067,-4.41387 l 0.51355,-1.66219 1.39145,0.0889 c 1.74402,0.11141 5.158717,1.42557 7.664617,2.94975 l 1.77016,1.07668 1.48167,-0.33863 c 5.35044,-1.22283 10.60689,-1.25975 16.11479,-0.11321 l 2.14479,0.44647 1.18873,-0.76042 c 2.94803,-1.88583 6.54241,-3.30597 8.36742,-3.30597 1.02946,0 1.08345,0.0296 1.38909,0.76108 0.97944,2.34413 1.21093,6.62437 0.47191,8.72577 l -0.32156,0.91436 0.98607,1.30814 c 2.32523,3.08471 3.09352,5.87049 2.92928,10.62148 -0.13086,3.78533 -0.71344,6.36407 -2.07401,9.18036 -2.06091,4.26594 -6.65098,7.28424 -12.67567,8.33518 -3.28404,0.57286 -3.09133,0.47457 -2.4425,1.24566 1.75221,2.08239 2.01092,3.57614 2.01549,11.63734 0.004,6.20255 0.0222,6.50376 0.43618,7.03005 0.6573,0.83563 1.53721,0.89705 3.37915,0.23588 11.3733,-4.08246 20.66868,-13.92062 24.13623,-25.54559 5.5169,-18.49541 -2.97788,-38.03849 -20.30687,-46.71795 -7.24213,-3.62732 -16.41637,-4.8967 -24.55942,-3.39813 -8.425977,1.55064 -16.833787,6.31066 -22.354007,12.65555 -10.4231,11.98023 -12.76866,28.72285 -6.01917,42.96486 1.8289,3.85913 4.19935,7.21266 7.4953,10.60374 4.22687,4.34888 8.61861,7.22927 14.294537,9.3753 1.88619,0.71315 2.8424,0.67495 3.55216,-0.1419 z"
       id="path4496"
       inkscape:connector-curvature="0" />
  </g>
</svg>
