<?xml version="1.0" encoding="UTF-8" standalone="no"?>
<!-- Created with Inkscape (http://www.inkscape.org/) -->

<svg
   xmlns:dc="http://purl.org/dc/elements/1.1/"
   xmlns:cc="http://creativecommons.org/ns#"
   xmlns:rdf="http://www.w3.org/1999/02/22-rdf-syntax-ns#"
   xmlns:svg="http://www.w3.org/2000/svg"
   xmlns="http://www.w3.org/2000/svg"
   xmlns:sodipodi="http://sodipodi.sourceforge.net/DTD/sodipodi-0.dtd"
   xmlns:inkscape="http://www.inkscape.org/namespaces/inkscape"
   width="73.659996mm"
   height="73.659996mm"
   viewBox="0 0 73.659996 73.659996"
   version="1.1"
   id="svg8"
   inkscape:version="0.92.1 r15371"
   sodipodi:docname="instagram.svg">
  <defs
     id="defs2" />
  <sodipodi:namedview
     id="base"
     pagecolor="#ffffff"
     bordercolor="#666666"
     borderopacity="1.0"
     inkscape:pageopacity="0.0"
     inkscape:pageshadow="2"
     inkscape:zoom="2.4007812"
     inkscape:cx="97.719025"
     inkscape:cy="131.79187"
     inkscape:document-units="mm"
     inkscape:current-layer="g4583"
     showgrid="false"
     fit-margin-top="0"
     fit-margin-left="0"
     fit-margin-right="0"
     fit-margin-bottom="0"
     inkscape:window-width="1920"
     inkscape:window-height="1051"
     inkscape:window-x="-9"
     inkscape:window-y="-9"
     inkscape:window-maximized="1" />
  <metadata
     id="metadata5">
    <rdf:RDF>
      <cc:Work
         rdf:about="">
        <dc:format>image/svg+xml</dc:format>
        <dc:type
           rdf:resource="http://purl.org/dc/dcmitype/StillImage" />
        <dc:title></dc:title>
      </cc:Work>
    </rdf:RDF>
  </metadata>
  <g
     inkscape:label="Layer 1"
     inkscape:groupmode="layer"
     id="layer1"
     transform="translate(-194.57328,-162.79201)">
    <g
       id="g4496"
       transform="translate(59.952706,93.896518)">
      <g
         id="g4537">
        <g
           id="g4583">
          <path
             style="fill:#ffffff;stroke-width:0.21166666;fill-opacity:1"
             d="m 179.4939,128.79948 c 5.87102,-0.31578 8.37518,-1.18045 11.02444,-3.80667 1.49864,-1.48561 2.69561,-3.58073 3.26828,-5.72065 0.58375,-2.18133 0.79089,-7.15824 0.66951,-16.08667 -0.13188,-9.700191 -0.24398,-10.631937 -1.62583,-13.512674 -1.40817,-2.935634 -3.77743,-4.994982 -7.00166,-6.085816 -2.4337,-0.82338 -5.30227,-0.978552 -16.19164,-0.875869 -8.13409,0.0767 -10.19527,0.155211 -11.37635,0.433322 -4.71398,1.110009 -8.16222,4.440619 -9.35229,9.03325 -0.49746,1.91976 -0.7325,6.355213 -0.72912,13.759457 0.005,10.30392 0.3084,13.09292 1.74908,16.06181 0.78031,1.60804 2.74917,3.81744 4.27142,4.79328 1.38875,0.89027 3.82323,1.75505 5.57819,1.9815 1.94407,0.25085 15.20872,0.26817 19.71597,0.0257 z m -17.67416,-4.2332 c -1.92221,-0.14673 -3.92757,-0.62541 -5.0485,-1.20506 -1.01265,-0.52366 -2.47374,-2.00239 -2.99511,-3.03127 -1.26952,-2.50528 -1.26973,-2.50763 -1.26973,-14.49863 0,-10.028578 0.0344,-11.128089 0.38749,-12.37311 0.94153,-3.320192 2.53653,-4.983677 5.75085,-5.997765 1.44983,-0.457409 1.72044,-0.467453 12.59416,-0.467453 11.88945,0 12.33599,0.03361 14.43844,1.086922 2.02858,1.016304 3.18973,2.454613 4.04139,5.006072 0.41446,1.241664 0.44372,1.882354 0.52237,11.438324 0.11331,13.76659 -0.0594,14.89371 -2.68451,17.51894 -1.72606,1.72614 -3.04915,2.23185 -6.6099,2.52639 -2.69773,0.22315 -16.19073,0.22079 -19.12695,-0.003 z m 12.45778,-7.32299 c 4.11265,-1.06102 7.59877,-4.60704 8.61806,-8.76613 0.15692,-0.64029 0.28286,-1.92617 0.27986,-2.8575 -0.0204,-6.351185 -5.45097,-11.740151 -11.83071,-11.740151 -5.171,0 -10.12804,3.812405 -11.42339,8.785611 -0.42579,1.63469 -0.41885,4.77784 0.0138,6.24987 1.17793,4.00787 4.47516,7.28136 8.39854,8.33807 1.49888,0.40371 4.3594,0.399 5.94384,-0.01 z m -4.44513,-3.89386 c -3.31433,-0.70241 -5.8648,-3.57911 -6.1459,-6.93203 -0.19052,-2.27257 0.43431,-4.10539 1.96219,-5.75568 0.72306,-0.780989 1.63867,-1.497358 2.37764,-1.860245 1.07172,-0.526297 1.43077,-0.59015 3.31841,-0.59015 1.89307,0 2.245,0.06302 3.33152,0.596557 5.2172,2.561938 5.91918,9.598918 1.30746,13.106628 -1.70967,1.30038 -4.12622,1.86409 -6.15132,1.43492 z m 15.39813,-17.632089 c 0.46242,-0.310646 0.83024,-0.801874 1.03019,-1.375833 0.27352,-0.785169 0.27352,-1.000197 0,-1.785366 -0.44745,-1.284444 -1.46178,-1.927557 -2.83785,-1.799262 -2.61266,0.24359 -3.39288,3.48041 -1.19582,4.961007 0.9304,0.627004 2.06961,0.626796 3.00348,-6.35e-4 z"
             id="path4585"
             inkscape:connector-curvature="0"
             sodipodi:nodetypes="ccsscsssscccscccccscssssssscccccscccccccscscccccccccc" />
        </g>
      </g>
    </g>
  </g>
</svg>
