<?xml version="1.0" encoding="UTF-8" standalone="no"?>
<!-- Created with Inkscape (http://www.inkscape.org/) -->

<svg
   width="103.7225mm"
   height="30.781658mm"
   viewBox="0 0 103.7225 30.781659"
   version="1.1"
   id="svg8"
   inkscape:version="1.2-rc (6364d40632, 2022-05-08)"
   sodipodi:docname="mountains.svg"
   xmlns:inkscape="http://www.inkscape.org/namespaces/inkscape"
   xmlns:sodipodi="http://sodipodi.sourceforge.net/DTD/sodipodi-0.dtd"
   xmlns="http://www.w3.org/2000/svg"
   xmlns:svg="http://www.w3.org/2000/svg"
   xmlns:rdf="http://www.w3.org/1999/02/22-rdf-syntax-ns#"
   xmlns:cc="http://creativecommons.org/ns#"
   xmlns:dc="http://purl.org/dc/elements/1.1/">
  <defs
     id="defs2">
    <clipPath
       clipPathUnits="userSpaceOnUse"
       id="clipPath4555">
      <rect
         style="opacity:0.5;fill:#FFFFFF;fill-opacity:1;fill-rule:nonzero;stroke:none;stroke-width:341.40615845;stroke-linecap:round;stroke-linejoin:miter;stroke-miterlimit:4;stroke-dasharray:none;stroke-dashoffset:0;stroke-opacity:1;paint-order:markers stroke fill"
         id="rect4557"
         width="103.7225"
         height="30.859583"
         x="65.909477"
         y="116.52648" />
    </clipPath>
  </defs>
  <sodipodi:namedview
     id="base"
     pagecolor="#ffffff"
     bordercolor="#666666"
     borderopacity="1.0"
     inkscape:pageopacity="0.0"
     inkscape:pageshadow="2"
     inkscape:zoom="3.3952174"
     inkscape:cx="213.97746"
     inkscape:cy="120.90537"
     inkscape:document-units="mm"
     inkscape:current-layer="g4553"
     showgrid="false"
     fit-margin-top="0"
     fit-margin-left="0"
     fit-margin-right="0"
     fit-margin-bottom="0"
     inkscape:window-width="2400"
     inkscape:window-height="1271"
     inkscape:window-x="1304"
     inkscape:window-y="951"
     inkscape:window-maximized="1"
     inkscape:lockguides="false"
     inkscape:showpageshadow="0"
     inkscape:pagecheckerboard="0"
     inkscape:deskcolor="#d1d1d1" />
  <metadata
     id="metadata5">
    <rdf:RDF>
      <cc:Work
         rdf:about="">
        <dc:format>image/svg+xml</dc:format>
        <dc:type
           rdf:resource="http://purl.org/dc/dcmitype/StillImage" />
        <dc:title />
      </cc:Work>
    </rdf:RDF>
  </metadata>
  <g
     inkscape:label="Layer 1"
     inkscape:groupmode="layer"
     id="layer1"
     transform="translate(-11.136509,-52.992043)">
    <g
       id="g4496"
       transform="translate(-59.952706,-39.894999)">
      <g
         id="g4515"
         transform="translate(5.1797375,-23.63944)">
        <g
           id="g4553"
           clip-path="url(#clipPath4555)">
          <path
             inkscape:connector-curvature="0"
             id="path4523"
             d="m 65.945905,125.58519 c 1.095584,-1.30855 1.103726,-1.31253 1.795816,-0.87702 0.382383,0.24062 0.832641,0.60908 1.000572,0.81881 0.201363,0.25148 0.36434,0.28583 0.478635,0.1009 0.09532,-0.15423 0.797814,-0.28042 1.5611,-0.28042 1.452907,0 3.13374,0.82238 4.244381,2.07663 0.277215,0.31306 0.675554,0.56921 0.885197,0.56921 0.209644,0 0.697206,0.21875 1.083473,0.48611 0.386266,0.26736 0.911538,0.56162 1.167272,0.6539 0.255734,0.0923 0.788481,0.70338 1.183881,1.358 0.520883,0.86235 0.939411,1.23599 1.519405,1.35644 0.440271,0.0914 1.060309,0.3306 1.377861,0.53148 0.524972,0.3321 0.624209,0.30094 1.093551,-0.34336 0.489074,-0.67139 0.548939,-0.68686 1.139872,-0.29449 0.553157,0.36728 0.691232,0.36986 1.220962,0.0228 0.549241,-0.35987 0.641242,-0.34106 1.144032,0.23401 0.394338,0.45102 0.586547,0.52865 0.689489,0.27845 0.112019,-0.27225 0.246218,-0.25325 0.623657,0.0883 0.450763,0.40793 0.534469,0.38406 1.334717,-0.3807 0.78336,-0.74862 1.833645,-1.09971 1.833645,-0.61295 0,0.11164 0.554439,0.83679 1.232088,1.61144 1.077462,1.2317 1.333095,1.39364 2.036905,1.29034 0.464648,-0.0682 1.296948,0.0996 1.969164,0.39693 0.64039,0.28327 1.405358,0.45202 1.699924,0.37499 0.312267,-0.0817 0.840574,0.0854 1.267056,0.40074 l 0.73147,0.54081 1.88162,-0.59385 c 1.03488,-0.32662 2.50271,-0.994 3.26183,-1.48307 0.75912,-0.48908 1.63755,-0.88923 1.95206,-0.88923 0.31451,0 0.70624,-0.16194 0.8705,-0.35986 0.16426,-0.19793 0.57531,-0.30698 0.91344,-0.24235 0.44697,0.0855 0.73785,-0.0703 1.06568,-0.57065 0.37405,-0.57087 0.53957,-0.64072 0.97105,-0.40981 0.35154,0.18814 0.68085,0.19235 1.01599,0.013 0.3771,-0.20182 0.5988,-0.15164 0.92564,0.20951 0.50356,0.55643 1.97922,0.45613 2.4337,-0.16542 0.16011,-0.21896 0.82424,-0.42395 1.5254,-0.47083 1.15375,-0.0771 1.38125,-0.22381 3.20794,-2.06837 l 1.96612,-1.98535 1.46345,0.15104 c 1.40409,0.14491 1.52214,0.10674 2.90995,-0.94107 1.22396,-0.9241 1.62176,-1.45754 2.58578,-3.46743 l 1.13929,-2.37532 1.78038,1.59707 c 2.50355,2.24577 2.71783,2.18643 4.87314,-1.34957 0.93135,-1.52797 1.79305,-2.81229 1.9149,-2.85405 0.12184,-0.0418 1.11818,0.52378 2.21408,1.25677 1.09591,0.73298 2.22867,1.3327 2.51726,1.3327 1.59719,0 2.06564,-0.30246 3.10783,-2.00658 0.96469,-1.57741 1.10522,-1.69759 1.98504,-1.69759 1.11083,0 2.26743,1.05934 3.79296,3.47399 0.65546,1.03749 1.16564,1.5454 1.68088,1.6734 0.40688,0.10107 1.35712,0.82973 2.11165,1.61924 1.19934,1.25493 1.50091,1.43546 2.39789,1.43546 0.78834,0 1.19745,-0.17893 1.766,-0.77237 0.72323,-0.75488 0.76611,-0.76449 1.89528,-0.42466 0.6467,0.19463 1.44198,0.68838 1.80648,1.12157 0.35815,0.42564 1.11592,0.98345 1.68393,1.23959 0.9391,0.42347 1.11905,0.42965 1.98437,0.0681 0.52339,-0.21868 1.19721,-0.33339 1.49738,-0.25489 0.53992,0.14119 0.54576,0.25697 0.54576,10.82748 l -1e-5,10.68477 h -56.88541 c -23.110232,0.9722 -47.187468,0.77872 -47.187468,0.77872 z"
             style="fill:#252525;stroke-width:0.26458332"
             sodipodi:nodetypes="ccccssscccccccccccssccccccccscccccccccccscccsccscscccsccccccscccc" />
          <path
             inkscape:connector-curvature="0"
             id="path4521"
             d="m 65.923425,125.63713 1.190625,-1.33497 0.859896,0.54863 c 0.472943,0.30175 0.859896,0.67059 0.859896,0.81964 0,0.16916 0.137524,0.15686 0.365976,-0.0327 0.282897,-0.23478 0.402334,-0.20899 0.526136,0.11364 0.08809,0.22955 0.06014,0.35555 -0.06211,0.28 -0.204955,-0.12667 -0.830003,1.51531 -0.830003,2.18039 0,0.15913 0.323036,0.58886 0.717857,0.95496 0.394821,0.3661 0.905124,1.05553 1.134006,1.53206 0.285139,0.59367 0.579741,0.84803 0.935789,0.80798 0.285802,-0.0321 0.370811,0.008 0.18891,0.0882 -0.181901,0.0806 -0.331427,0.34508 -0.33228,0.58761 -8.47e-4,0.24254 -0.744994,1.23284 -1.653646,2.20067 -1.612756,1.71779 -1.691184,1.76405 -3.293749,1.94281 0,0 0.198206,3.21683 0.822934,5.6216 0.299805,1.15209 -1.118574,0.8167 0,0 0.450298,-0.32878 1.354506,-0.88545 2.009349,-1.23704 0.654844,-0.3516 1.250157,-0.70948 1.322917,-0.7953 0.07276,-0.0858 0.641193,-0.39235 1.263183,-0.68119 0.658855,-0.30596 1.191428,-0.75779 1.275922,-1.08249 0.147674,-0.56749 -0.831315,-4.26347 -1.250523,-4.72111 -0.437419,-0.47751 -0.251451,-1.20385 0.308227,-1.20385 0.470564,0 0.500792,-0.0751 0.239674,-0.59531 -0.202903,-0.40425 -0.05472,-0.31934 0.46171,0.26458 0.759264,0.85849 1.491775,1.09864 1.80503,0.59178 0.261285,-0.42276 0.237743,-1.88085 -0.03346,-2.07219 -0.439593,-0.31016 -1.159248,-1.59813 -1.1634,-2.08216 -0.0035,-0.4047 -0.04304,-0.41551 -0.276423,-0.0754 -0.225397,0.32843 -0.261585,0.30561 -0.209826,-0.13229 0.0344,-0.29104 -0.02982,-0.80333 -0.142703,-1.13841 -0.174882,-0.51911 -0.267081,-0.55825 -0.62319,-0.26458 -0.369121,0.30439 -0.383063,0.27918 -0.11935,-0.21587 0.294304,-0.55247 0.190393,-0.89468 -0.271668,-0.89468 -0.129856,0 -0.162517,0.11906 -0.07258,0.26458 0.08994,0.14552 0.03041,0.26458 -0.132292,0.26458 -0.162697,0 -0.222228,0.11907 -0.132291,0.26459 0.257721,0.417 -0.295762,0.30834 -0.659041,-0.12938 -0.179827,-0.21668 -0.450927,-0.31735 -0.602444,-0.22371 -0.152128,0.094 -0.197204,0.0436 -0.100664,-0.1126 0.09615,-0.15558 0.02525,-0.34317 -0.157557,-0.41687 -0.182808,-0.0737 0.19298,-0.1434 0.835084,-0.15489 1.2031,-0.0215 3.064991,0.92536 4.126941,2.0988 0.261884,0.28938 0.632159,0.52615 0.822833,0.52615 0.511289,0 2.752199,1.47817 3.191301,2.10507 0.208676,0.29793 0.294586,0.67894 0.190911,0.84669 -0.109971,0.17794 -0.07279,0.23349 0.08924,0.13334 0.152756,-0.0944 0.341701,-0.005 0.419877,0.19876 0.07818,0.20372 0.537137,0.45441 1.019912,0.55709 0.482776,0.10268 1.097401,0.38068 1.365835,0.61779 0.456681,0.40338 0.529532,0.38288 1.133102,-0.31881 0.607547,-0.70632 0.680961,-0.72637 1.262959,-0.34503 0.555236,0.3638 0.677236,0.36333 1.202616,-0.005 0.542417,-0.37992 0.613892,-0.36785 0.988409,0.16685 0.241438,0.34469 0.56569,0.51422 0.806673,0.42175 0.221628,-0.085 0.55137,-0.0315 0.732763,0.11908 0.430491,0.35728 1.13012,0.0783 1.322327,-0.5273 0.225843,-0.71157 1.479643,-0.95291 1.814473,-0.34926 0.146338,0.26383 0.810659,1.05221 1.476269,1.75195 1.071459,1.12641 1.285891,1.24386 1.87044,1.02448 0.498922,-0.18724 0.912194,-0.1202 1.691429,0.27437 0.640185,0.32416 1.306123,0.46715 1.756283,0.37712 0.514575,-0.10291 0.86084,0.005 1.192633,0.3716 0.257146,0.28415 0.657438,0.51411 0.889548,0.51105 0.81285,-0.0108 4.01954,-1.27864 5.28074,-2.08795 0.70016,-0.44929 1.52346,-0.81689 1.82955,-0.81689 0.30609,0 0.63012,-0.11906 0.72005,-0.26458 0.0899,-0.14552 0.49999,-0.26459 0.91123,-0.26459 0.50361,0 0.8878,-0.21381 1.17685,-0.65495 0.3757,-0.57339 0.5103,-0.61797 1.08092,-0.35797 0.48443,0.22072 0.7454,0.21929 1.01634,-0.006 0.28228,-0.23427 0.47182,-0.18401 0.8399,0.22271 0.35207,0.38903 0.68842,0.48809 1.29693,0.38196 0.45187,-0.0788 0.86173,-0.25744 0.91079,-0.39693 0.1774,-0.50439 1.11541,-0.82992 1.49165,-0.51767 0.24566,0.20388 0.40969,0.20959 0.52787,0.0184 0.0943,-0.15258 0.35263,-0.27743 0.57406,-0.27743 0.22143,0 1.28687,-0.88427 2.36765,-1.96505 l 1.96505,-1.96505 1.40746,0.14527 c 1.27381,0.13146 1.53871,0.0605 2.78963,-0.74693 1.21731,-0.78578 1.52571,-1.18412 2.58552,-3.33959 0.66184,-1.34607 1.26763,-2.4474 1.3462,-2.4474 0.0786,0 0.88873,0.65485 1.80036,1.45521 2.50122,2.19595 2.75536,2.11914 4.87751,-1.47414 1.16237,-1.96814 1.83168,-2.85669 2.08005,-2.76138 0.20142,0.0773 1.18679,0.69108 2.18971,1.36397 1.70432,1.14347 1.9042,1.21237 3.05842,1.05416 0.6792,-0.0931 1.25566,-0.19851 1.28101,-0.23427 0.0254,-0.0358 0.54522,-0.80915 1.15525,-1.71865 0.98158,-1.46345 1.20836,-1.65365 1.97164,-1.65365 1.01972,0 2.21743,1.13061 3.70638,3.49874 0.67267,1.06987 1.168,1.56497 1.68751,1.68676 1.04877,0.24585 1.67108,1.10462 1.37149,1.89261 -0.15464,0.40671 -0.1455,0.5681 0.0261,0.46202 0.14508,-0.0897 0.26378,-0.33459 0.26378,-0.54428 0,-0.63912 0.46566,-0.42922 1.20856,0.54478 0.97622,1.27989 2.15126,1.29035 3.29872,0.0294 l 0.81595,-0.89667 1.2858,0.41118 c 0.77076,0.24648 1.41129,0.64566 1.59908,0.99655 0.17231,0.32196 0.86882,0.84557 1.54782,1.1636 1.00781,0.47203 1.37039,0.52657 1.97424,0.29699 0.40683,-0.15468 1.11889,-0.26742 1.58237,-0.25054 0.46346,0.0169 0.66407,0.0792 0.44579,0.13844 -0.30987,0.0841 -0.37722,0.45443 -0.30723,1.6891 0.0851,1.50068 0.0581,1.58273 -0.52916,1.60836 -0.51893,0.0226 -0.48001,0.0715 0.24108,0.30286 l 0.85989,0.27585 v 8.69297 8.69298 h -55.35671 c -23.892024,-0.0802 -48.151901,-0.73266 -48.151901,-0.73266 0,0 0.263845,-11.88315 -0.472594,-20.9375 z m 6.278339,19.9234 c -0.08792,-0.0879 -0.316122,-0.0973 -0.507118,-0.0209 -0.211067,0.0845 -0.148372,0.14716 0.159853,0.15985 0.278914,0.0115 0.435184,-0.051 0.347265,-0.13896 z m 73.228956,-2.75057 c 0.0899,-0.14552 0.0472,-0.26458 -0.095,-0.26458 -0.14221,0 -0.47276,-0.0822 -0.73455,-0.18266 -0.42516,-0.16315 -0.43454,-0.13596 -0.0878,0.25452 0.45271,0.50981 0.69053,0.55977 0.91738,0.19272 z m -2.24896,-0.89773 c 0,-0.0572 -0.18478,-0.17489 -0.41062,-0.26155 -0.23546,-0.0904 -0.34166,-0.046 -0.24897,0.10398 0.15538,0.25141 0.65959,0.37186 0.65959,0.15757 z m -33.67374,-0.32045 c -0.0879,-0.0879 -0.31613,-0.0973 -0.50712,-0.0209 -0.21107,0.0845 -0.14838,0.14715 0.15985,0.15985 0.27891,0.0115 0.43518,-0.0511 0.34727,-0.13896 z m 1.39457,-0.6339 c 0,-0.14552 -0.0525,-0.26458 -0.11668,-0.26458 -0.0642,0 -0.19026,0.11906 -0.2802,0.26458 -0.0899,0.14552 -0.0374,0.26458 0.11668,0.26458 0.15411,0 0.2802,-0.11906 0.2802,-0.26458 z m 31.48542,0 c 0,-0.14552 -0.0525,-0.26458 -0.11668,-0.26458 -0.0642,0 -0.19026,0.11906 -0.2802,0.26458 -0.0899,0.14552 -0.0374,0.26458 0.11668,0.26458 0.15411,0 0.2802,-0.11906 0.2802,-0.26458 z m -56.836915,-0.58649 c -0.189854,-0.18986 -0.313089,-0.20548 -0.313089,-0.0397 0,0.35316 0.312899,0.66606 0.489479,0.48948 0.07519,-0.0752 -0.0042,-0.27759 -0.17639,-0.44979 z m -1.636006,-0.20726 c 0,-0.14552 -0.119062,-0.26458 -0.264583,-0.26458 -0.145521,0 -0.264584,0.11906 -0.264584,0.26458 0,0.14552 0.119063,0.26458 0.264584,0.26458 0.145521,0 0.264583,-0.11906 0.264583,-0.26458 z m -2.559692,-0.37202 c 0.07852,-0.20461 -0.05757,-0.55257 -0.302422,-0.77326 -0.493533,-0.44484 -2.736504,-1.2818 -2.92634,-1.09196 -0.142623,0.14262 -0.225848,0.0656 1.376949,1.27425 1.410482,1.06362 1.64208,1.13753 1.851813,0.59097 z m 1.501359,-0.42173 c 0,-0.14552 -0.185621,-0.26458 -0.412491,-0.26458 -0.226869,0 -0.338904,0.11906 -0.248968,0.26458 0.08994,0.14552 0.275559,0.26458 0.412491,0.26458 0.136933,0 0.248968,-0.11906 0.248968,-0.26458 z m 18.184594,0.10473 c -0.0879,-0.0879 -0.31612,-0.0973 -0.50712,-0.0209 -0.21107,0.0845 -0.14837,0.14716 0.15985,0.15985 0.27892,0.0115 0.43519,-0.051 0.34727,-0.13896 z m 42.43729,-0.54791 c -0.3119,-0.53636 -0.38722,-0.36469 -0.1319,0.30066 0.0907,0.23646 0.22071,0.37419 0.28883,0.30607 0.0681,-0.0681 -0.002,-0.34115 -0.15693,-0.60673 z m -59.034384,0.1786 c 0,-0.14552 -0.119063,-0.26459 -0.264584,-0.26459 -0.14552,0 -0.264583,0.11907 -0.264583,0.26459 0,0.14552 0.119063,0.26458 0.264583,0.26458 0.145521,0 0.264584,-0.11906 0.264584,-0.26458 z m 15.539236,-0.18336 c -0.257432,-0.0671 -0.614619,-0.0627 -0.79375,0.01 -0.179131,0.0725 0.03149,0.12737 0.468056,0.12197 0.436562,-0.005 0.583122,-0.0647 0.325694,-0.13177 z m 8.730778,-2.62233 c -0.0879,-0.0879 -0.31613,-0.0973 -0.50712,-0.0209 -0.21107,0.0845 -0.14838,0.14716 0.15985,0.15985 0.27891,0.0115 0.43518,-0.051 0.34727,-0.13896 z m 32.2848,-0.30317 c 0.0646,-0.19399 -0.11778,-0.33073 -0.4411,-0.33073 -0.32499,0 -0.55121,0.17084 -0.55121,0.41628 0,0.48627 0.82561,0.41509 0.99231,-0.0856 z m 0.55336,-0.98585 c 0.0704,-0.3534 -0.0324,-0.41526 -0.46302,-0.2786 -0.62963,0.19984 -0.7157,-0.13659 -0.23277,-0.90988 0.39201,-0.62771 0.23233,-0.82809 -0.50601,-0.63501 -0.43729,0.11436 -0.57884,0.39048 -0.6499,1.26778 l -0.0908,1.12158 0.92604,-0.0558 c 0.63477,-0.0383 0.9545,-0.19868 1.01651,-0.51007 z m -73.053047,-0.4749 c 0.31438,0.12064 0.383063,0.0509 0.261573,-0.26574 -0.115976,-0.30222 -0.05124,-0.38577 0.218649,-0.28221 0.229121,0.0879 0.3834,-0.0115 0.3834,-0.2472 0,-0.21687 0.267891,-0.47575 0.595313,-0.57528 0.363382,-0.11045 0.46582,-0.23436 0.262935,-0.31804 -0.182808,-0.0754 -0.265078,-0.24597 -0.182823,-0.37907 0.08226,-0.13309 -0.255079,-0.24198 -0.749632,-0.24198 -0.701233,0 -0.96522,0.14493 -1.199139,0.65832 -0.164974,0.36208 -0.230878,0.83833 -0.146454,1.05834 0.08442,0.22 0.03284,0.40001 -0.114622,0.40001 -0.151511,0 -0.19495,0.25891 -0.09988,0.59531 l 0.168242,0.59531 0.08806,-0.58068 c 0.06218,-0.41005 0.213333,-0.53261 0.514381,-0.41709 z m 10.124039,0.23233 c 0,-0.70512 -0.769301,-1.15743 -1.088939,-0.64025 -0.112863,0.18262 -0.145674,0.39156 -0.07291,0.46432 0.07276,0.0728 0.2367,-0.0366 0.36431,-0.24312 0.177627,-0.28741 0.274015,-0.20808 0.411171,0.33839 0.221709,0.88336 0.386371,0.91773 0.386371,0.0807 z m 61.912498,-2.5198 c 0,-0.27892 0.13809,-0.55315 0.30687,-0.60941 0.22967,-0.0766 0.2317,-0.23183 0.008,-0.61736 -0.28803,-0.49648 -0.29911,-0.49414 -0.30686,0.0646 -0.004,0.31883 -0.12711,0.65328 -0.27263,0.74321 -0.14552,0.0899 -0.26458,0.33509 -0.26458,0.54479 0,0.20969 0.11906,0.38126 0.26458,0.38126 0.14552,0 0.26458,-0.22821 0.26458,-0.50712 z m 18.08793,-5.70907 c -0.0834,-0.21745 -0.27101,-0.32163 -0.41681,-0.23151 -0.16301,0.10074 -0.12686,0.25144 0.0939,0.3913 0.48175,0.30526 0.49827,0.29709 0.32294,-0.15979 z m -29.72959,-0.26611 c 0,-0.21828 -0.0468,-0.39687 -0.10399,-0.39687 -0.0572,0 -0.17251,0.17859 -0.25628,0.39687 -0.0838,0.21829 -0.037,0.39688 0.10399,0.39688 0.14095,0 0.25628,-0.17859 0.25628,-0.39688 z m 39.6875,0.2802 c 0,-0.27926 -0.50777,-0.39658 -0.65879,-0.15222 -0.0914,0.1479 0.0194,0.2689 0.2463,0.2689 0.22687,0 0.41249,-0.0525 0.41249,-0.11668 z m -39.24218,-1.25585 c -0.0845,-0.21106 -0.14716,-0.14837 -0.15985,0.15986 -0.0115,0.27891 0.0511,0.43518 0.13896,0.34726 0.0879,-0.0879 0.0973,-0.31612 0.0209,-0.50712 z m 27.10752,-0.95257 c -0.19089,-0.0636 -0.47286,0.0101 -0.62661,0.16386 -0.19634,0.19634 -0.093,0.23078 0.34706,0.11569 0.35777,-0.0936 0.47771,-0.21349 0.27955,-0.27955 z m -1.7731,-0.0284 c 0.0805,-0.13027 -0.0255,-0.3028 -0.2355,-0.3834 -0.25473,-0.0977 -0.33289,-0.0189 -0.23475,0.23686 0.17055,0.44445 0.26746,0.47465 0.47025,0.14654 z m -13.17164,-1.2282 c 0.1709,-0.44538 -0.59889,-1.45784 -1.04066,-1.36871 -0.1517,0.0306 -0.35527,-0.24201 -0.4524,-0.60581 -0.15607,-0.58459 -0.19306,-0.53847 -0.31825,0.39687 -0.0982,0.73374 -0.0184,1.20035 0.26033,1.52136 0.49639,0.57178 1.3414,0.60244 1.55098,0.0563 z m -1.5838,-0.29883 c -0.097,-0.097 -0.17456,-0.30537 -0.17234,-0.46302 0.002,-0.15764 0.1213,-0.10803 0.26459,0.11025 0.21602,0.32907 0.30008,0.33555 0.49204,0.0379 0.14246,-0.2209 0.29453,-0.257 0.39536,-0.0939 0.0901,0.14581 -0.0238,0.33712 -0.25315,0.42513 -0.51653,0.19821 -0.51181,0.19831 -0.7265,-0.0164 z m 13.59996,-0.32747 c -0.30095,-0.42265 -0.54718,-0.85021 -0.54718,-0.95013 0,-0.0999 -0.41672,-0.66852 -0.92604,-1.26355 -0.50932,-0.59503 -0.92604,-1.18801 -0.92604,-1.31773 0,-0.40254 -0.77539,-1.03439 -1.05631,-0.86077 -0.14663,0.0906 -0.26661,0.0317 -0.26661,-0.13104 0,-0.1627 -0.121,-0.22103 -0.2689,-0.12962 -0.14789,0.0914 -0.2004,0.27702 -0.11667,0.41249 0.25715,0.41608 -0.0573,0.2728 -0.44193,-0.20137 -0.24674,-0.30418 -0.25712,-0.38398 -0.0324,-0.24897 0.1819,0.10929 0.33072,0.0726 0.33072,-0.0815 0,-0.15411 -0.18562,-0.2802 -0.41249,-0.2802 -0.22687,0 -0.3389,-0.11906 -0.24896,-0.26458 0.0899,-0.14552 -0.0221,-0.26458 -0.24897,-0.26458 -0.52823,0 -0.52082,0.25677 0.0301,1.04334 0.27762,0.39636 0.3114,0.55083 0.0906,0.41438 -0.26992,-0.16682 -0.31228,-0.0691 -0.18165,0.41913 0.0937,0.35018 0.1734,0.87481 0.17711,1.16585 0.008,0.63629 2.69143,2.59461 3.37484,2.463 0.25081,-0.0483 0.66574,0.1219 0.92208,0.37824 0.25633,0.25633 0.65276,0.46606 0.88095,0.46606 0.34643,0 0.3246,-0.1268 -0.1323,-0.76845 z m -1.90317,-1.06159 c -0.0528,-0.8805 -0.0876,-1.02464 -0.29765,-1.23472 -0.10915,-0.10914 -0.19482,-0.32742 -0.1904,-0.48507 0.004,-0.15765 0.15015,-0.0485 0.32382,0.24253 0.34088,0.57123 0.37644,0.68536 0.43287,1.38907 0.0321,0.40064 0.0749,0.40955 0.31779,0.0661 0.2283,-0.3228 0.26149,-0.32589 0.17785,-0.0165 -0.16544,0.61195 -0.72817,0.64036 -0.76428,0.0386 z m -5.26264,0.97014 c -0.002,-0.1819 -0.11947,-0.50932 -0.26054,-0.7276 -0.19986,-0.30927 -0.25737,-0.23626 -0.26053,0.33073 -0.002,0.40018 0.11501,0.7276 0.26053,0.7276 0.14553,0 0.26276,-0.14883 0.26054,-0.33073 z m -0.52917,-1.8677 c 0.002,-0.11773 -0.11501,-0.14047 -0.26053,-0.0505 -0.14552,0.0899 -0.26276,0.36486 -0.26053,0.61093 0.003,0.38557 0.0395,0.39255 0.26053,0.0505 0.14106,-0.21828 0.2583,-0.4932 0.26053,-0.61093 z m -4.24341,-0.54165 c -0.25476,-0.23481 -0.28996,-0.19401 -0.15711,0.18203 0.0942,0.26657 0.18505,0.62375 0.20193,0.79375 0.0169,0.17 0.0876,0.0881 0.1571,-0.18203 0.0695,-0.27012 -0.0213,-0.62731 -0.20192,-0.79375 z m -69.042125,8.04736 c 0,-0.13693 0.117699,-0.32171 0.261553,-0.41062 0.149982,-0.0927 0.194339,0.0135 0.103984,0.24897 -0.175892,0.45837 -0.365537,0.54224 -0.365537,0.16165 z"
             style="fill:var(--dark-rocks);stroke-width:0.26458332"
             sodipodi:nodetypes="cccscccssccccscccccsccscsccccccccscscccccccsccccsccccccccccccccccscscccsccccsscccssccccccssccccsccccccccccccccccccccccccsccccsccscccccsscsssscsscscccssssscccccsscsscccccccscssssscccccccccccssccccccccccccccscccscsscccccccccccccccccsscccccccsscssscsscccccccccccccccccccccccccccccssscsccscsscscccccssccccccccccccccscccccccccccsccs" />
        </g>
      </g>
    </g>
  </g>
</svg>
