<?xml version="1.0" encoding="UTF-8" standalone="no"?>
<!-- Created with Inkscape (http://www.inkscape.org/) -->

<svg
   xmlns:dc="http://purl.org/dc/elements/1.1/"
   xmlns:cc="http://creativecommons.org/ns#"
   xmlns:rdf="http://www.w3.org/1999/02/22-rdf-syntax-ns#"
   xmlns:svg="http://www.w3.org/2000/svg"
   xmlns="http://www.w3.org/2000/svg"
   xmlns:sodipodi="http://sodipodi.sourceforge.net/DTD/sodipodi-0.dtd"
   xmlns:inkscape="http://www.inkscape.org/namespaces/inkscape"
   width="185.20833mm"
   height="185.20833mm"
   viewBox="0 0 185.20833 185.20833"
   version="1.1"
   id="svg8"
   inkscape:version="0.92.1 r15371"
   sodipodi:docname="anadar.svg"
   inkscape:export-filename="C:\xampp\htdocs\portfolio\img\projects\anadar.png"
   inkscape:export-xdpi="96"
   inkscape:export-ydpi="96">
  <defs
     id="defs2" />
  <sodipodi:namedview
     id="base"
     pagecolor="#ffffff"
     bordercolor="#666666"
     borderopacity="1.0"
     inkscape:pageopacity="0.0"
     inkscape:pageshadow="2"
     inkscape:zoom="0.7277834"
     inkscape:cx="113.14786"
     inkscape:cy="160.11552"
     inkscape:document-units="mm"
     inkscape:current-layer="layer1"
     showgrid="false"
     fit-margin-top="0"
     fit-margin-left="0"
     fit-margin-right="0"
     fit-margin-bottom="0"
     inkscape:window-width="1920"
     inkscape:window-height="1051"
     inkscape:window-x="-9"
     inkscape:window-y="-9"
     inkscape:window-maximized="1" />
  <metadata
     id="metadata5">
    <rdf:RDF>
      <cc:Work
         rdf:about="">
        <dc:format>image/svg+xml</dc:format>
        <dc:type
           rdf:resource="http://purl.org/dc/dcmitype/StillImage" />
        <dc:title />
      </cc:Work>
    </rdf:RDF>
  </metadata>
  <g
     inkscape:label="Layer 1"
     inkscape:groupmode="layer"
     id="layer1"
     transform="translate(6.6425629,-88.237465)">
    <path
       style="fill:#000000;stroke-width:0.26458332"
       d="m 80.405352,240.37508 c -8.108219,-0.82601 -14.28152,-2.62084 -21.563541,-6.26939 -22.515594,-11.28113 -35.686899,-36.73181 -32.015514,-61.86302 4.895241,-33.5087 36.990789,-56.39267 70.307992,-50.12925 16.536591,3.10876 30.848911,12.98843 39.689211,27.39709 9.52765,15.52897 11.50827,34.56169 5.36794,51.58297 -2.98263,8.26797 -7.70261,15.63105 -14.15723,22.08498 -9.13943,9.13846 -20.4863,14.85264 -33.341358,16.79043 -3.331019,0.50212 -11.160794,0.72472 -14.2875,0.40619 z m 10.451042,-3.4085 c 1.809639,-0.16178 1.850988,-0.18191 1.804281,-0.8785 -0.06916,-1.03143 -3.504909,-9.47977 -10.362478,-25.48083 L 76.288399,196.58434 H 56.881116 37.473834 l -1.450179,3.68661 c -1.709068,4.34475 -1.737532,4.0281 0.753266,8.37977 7.575055,13.23434 20.595259,23.06042 35.55864,26.83537 1.89177,0.47726 4.570677,0.99817 5.953125,1.15759 1.382447,0.15941 2.870729,0.33149 3.307291,0.38238 1.328002,0.15481 7.291816,0.11651 9.260417,-0.0595 z m 23.354356,-7.2405 c 4.32444,-2.5953 7.04795,-4.77927 11.45199,-9.18331 4.54401,-4.54401 6.77771,-7.36238 9.22828,-11.64376 7.90143,-13.80455 9.57708,-30.23555 4.64215,-45.51988 -1.86147,-5.76529 -4.74301,-11.42627 -8.05036,-15.81545 -3.37774,-4.48259 -10.29784,-11.10865 -14.56496,-13.94608 -5.89189,-3.91782 -13.7436,-6.95807 -21.984717,-8.51265 -3.634171,-0.68554 -14.117301,-0.68253 -17.835072,0.005 -5.526524,1.02221 -10.451042,2.53662 -10.451042,3.21396 0,0.31694 8.726239,20.82211 36.569401,85.93182 5.9973,14.02436 7.52481,17.37719 7.86064,17.25384 0.22926,-0.0842 1.63942,-0.88683 3.13369,-1.78362 z M 36.294882,193.40934 c 8.002498,-18.31647 26.912554,-63.03685 26.912554,-63.64548 0,-0.82106 -2.855632,0.60777 -8.202083,4.10393 -3.877866,2.53583 -5.968778,4.22547 -8.839975,7.14348 -8.341855,8.47789 -13.682377,18.89421 -15.944739,31.09911 -0.662395,3.57347 -0.6678,13.29446 -0.0096,17.21284 1.057132,6.293 2.498243,11.29474 3.077588,10.68156 0.127545,-0.13499 1.480344,-3.10294 3.006223,-6.59544 z m 33.203779,0.68887 c 2.659811,-0.1105 4.94392,-0.3107 5.075799,-0.44489 0.271242,-0.276 -0.762336,-2.872 -6.786346,-17.04502 -6.141505,-14.44947 -10.713246,-24.66805 -10.927749,-24.42531 -0.486265,0.55029 -18.105027,41.52436 -17.91331,41.65906 0.02805,0.0197 2.432256,0.11688 5.342673,0.21592 7.528255,0.2562 19.548837,0.27539 25.208933,0.0402 z"
       id="path4496"
       inkscape:connector-curvature="0" />
  </g>
</svg>
