<?xml version="1.0" encoding="UTF-8" standalone="no"?>
<!-- Created with Inkscape (http://www.inkscape.org/) -->

<svg
   xmlns:dc="http://purl.org/dc/elements/1.1/"
   xmlns:cc="http://creativecommons.org/ns#"
   xmlns:rdf="http://www.w3.org/1999/02/22-rdf-syntax-ns#"
   xmlns:svg="http://www.w3.org/2000/svg"
   xmlns="http://www.w3.org/2000/svg"
   xmlns:sodipodi="http://sodipodi.sourceforge.net/DTD/sodipodi-0.dtd"
   xmlns:inkscape="http://www.inkscape.org/namespaces/inkscape"
   width="224.89583mm"
   height="224.89583mm"
   viewBox="0 0 224.89584 224.89583"
   version="1.1"
   id="svg8"
   inkscape:version="0.92.1 r15371"
   sodipodi:docname="jbu.svg">
  <defs
     id="defs2" />
  <sodipodi:namedview
     id="base"
     pagecolor="#ff7659"
     bordercolor="#666666"
     borderopacity="1.0"
     inkscape:pageopacity="0"
     inkscape:pageshadow="2"
     inkscape:zoom="0.64305344"
     inkscape:cx="468.90308"
     inkscape:cy="395.92345"
     inkscape:document-units="mm"
     inkscape:current-layer="g5284"
     showgrid="false"
     fit-margin-top="0"
     fit-margin-left="0"
     fit-margin-right="0"
     fit-margin-bottom="0"
     inkscape:window-width="1536"
     inkscape:window-height="841"
     inkscape:window-x="-8"
     inkscape:window-y="-8"
     inkscape:window-maximized="1" />
  <metadata
     id="metadata5">
    <rdf:RDF>
      <cc:Work
         rdf:about="">
        <dc:format>image/svg+xml</dc:format>
        <dc:type
           rdf:resource="http://purl.org/dc/dcmitype/StillImage" />
        <dc:title></dc:title>
      </cc:Work>
    </rdf:RDF>
  </metadata>
  <g
     inkscape:label="Layer 1"
     inkscape:groupmode="layer"
     id="layer1"
     transform="translate(292.76678,238.34428)">
    <g
       id="g4496"
       transform="translate(-171.41717,58.14693)">
      <g
         id="g4538"
         transform="translate(145.65313,113.63854)">
        <g
           id="g4567"
           transform="translate(-190.86895,62.30846)">
          <g
             id="g5155">
            <g
               id="g5184">
              <g
                 id="g5215"
                 transform="translate(-0.2057242,-0.20572424)">
                <g
                   id="g5244">
                  <g
                     id="g5284">
                    <g
                       id="g5440">
                      <path
                         style="fill:#d2d2d2;stroke-width:0.26458332"
                         d="M -66.667645,-359.78456 V -400.5304 H 36.519853 139.70735 v 40.74584 40.74583 H 36.519853 -66.667645 Z m 28.407026,-0.0192 c 0.64022,-0.5036 0.693055,-0.69262 0.647112,-2.31511 l -0.05003,-1.76673 -0.09731,1.5833 c -0.10984,1.78703 -0.58491,2.51985 -1.629574,2.51369 -1.052457,-0.006 -1.421929,-0.37619 -1.624891,-1.62711 l -0.186098,-1.14697 -0.03311,1.00422 c -0.02447,0.7421 0.136393,1.17372 0.616315,1.65364 0.793388,0.79339 1.442093,0.8212 2.357594,0.10107 z m 61.683597,-0.27965 c 0.45892,-0.44068 0.540396,-0.91996 0.613757,-3.61037 0.04653,-1.70623 -0.03522,-3.39989 -0.181666,-3.76369 -0.198879,-0.49407 -0.272632,0.27592 -0.291444,3.04271 -0.01794,2.63798 -0.126354,3.83744 -0.376668,4.16718 -0.420775,0.55431 -1.822196,0.61478 -2.251774,0.0972 -0.189928,-0.22885 -0.325821,-1.76457 -0.362886,-4.10104 -0.03259,-2.05435 -0.148662,-3.73519 -0.257935,-3.73519 -0.295926,0 -0.240421,6.73492 0.06206,7.5305 0.470141,1.23657 1.957472,1.41853 3.046555,0.37273 z m -72.99986,0.007 c 0.397324,-0.43874 0.523604,-1.05488 0.5965,-2.91042 0.0625,-1.59092 -0.0019,-2.35385 -0.198438,-2.35385 -0.190269,0 -0.290909,0.83657 -0.290909,2.41823 0,1.99278 -0.08146,2.48006 -0.463021,2.7697 -0.664018,0.50407 -1.844389,0.45328 -2.149821,-0.0925 -0.141837,-0.25345 -0.343313,-0.37539 -0.447725,-0.27098 -0.388903,0.38891 0.503952,0.99638 1.464457,0.99638 0.664962,0 1.148669,-0.1808 1.488957,-0.55656 z m 30.798819,0.27636 c 0,-0.15411 0.113993,-0.20975 0.253315,-0.12364 0.286798,0.17725 1.069602,-1.18906 1.069602,-1.8669 0,-0.24471 -0.251383,-0.85167 -0.558631,-1.34881 -0.529132,-0.85615 -0.534683,-0.93034 -0.105137,-1.40498 0.249417,-0.27561 0.39593,-0.65682 0.325583,-0.84714 -0.07753,-0.20976 -0.240843,-0.0624 -0.414669,0.37417 -0.272301,0.6839 -0.581114,0.83961 -2.157563,1.08792 -0.449987,0.0709 -0.344252,0.1157 0.330729,0.14021 0.985639,0.0358 2.019515,0.74421 2.079808,1.4251 0.147309,1.6635 -0.623808,2.56435 -2.203148,2.5738 l -0.983237,0.006 -0.08505,-2.84428 -0.08505,-2.84427 -0.05619,2.97657 -0.05619,2.97656 h 1.322917 c 0.754705,0 1.322916,-0.12035 1.322916,-0.2802 z m 10.3343313,-2.10463 c 0.028882,-1.23496 0.1802765,-2.42397 0.3364336,-2.64225 0.2327407,-0.32533 0.2181966,-0.33839 -0.080666,-0.0725 -0.451821,0.40206 -1.0650987,-0.0229 -1.0650987,-0.73809 0,-0.26463 -0.1238356,-0.55769 -0.2751878,-0.65123 -0.2983177,-0.18437 -0.093181,0.98353 0.3117876,1.7751 0.1253914,0.24509 0.2279835,1.32658 0.2279835,2.4033 0,1.67868 0.1561942,2.50703 0.4225079,2.24072 0.038351,-0.0383 0.093358,-1.08015 0.1222401,-2.3151 z m 11.692231,2.18893 -1.6536458,-0.0939 v -1.42697 c 0,-1.33355 -0.3284246,-2.03021 -0.74520687,-1.58076 -0.0994595,0.10725 -0.0320066,0.24816 0.1498944,0.31312 0.20934097,0.0748 0.33072917,0.64414 0.33072917,1.55128 v 1.43316 l 1.7859375,-0.051 1.7859374,-0.051 z m 29.1046267,-2.10368 c 0.05346,-0.90097 7.94e-4,-1.57855 -0.116991,-1.50574 -0.117811,0.0728 -0.200387,0.98856 -0.183507,2.035 0.03445,2.13531 0.154982,1.92301 0.300498,-0.52926 z m 11.57506,1.49021 c 0,-0.4722 -0.11022,-0.74124 -0.264583,-0.64584 -0.145521,0.0899 -0.264583,0.45415 -0.264583,0.80937 0,0.35521 0.119062,0.64584 0.264583,0.64584 0.145521,0 0.264583,-0.36422 0.264583,-0.80937 z m 10.847917,0.30184 c 0,-0.91885 0.27705,-1.29023 0.876982,-1.17556 0.570603,0.10906 0.570378,0.10704 -0.01709,-0.15301 -0.356978,-0.15802 -0.595312,-0.49644 -0.595312,-0.84531 0,-0.97951 -0.226859,-0.42276 -0.476557,1.16955 -0.130392,0.83152 -0.136041,1.51186 -0.01255,1.51186 0.123489,0 0.224528,-0.22839 0.224527,-0.50753 z m 3.270779,-1.61844 c -0.22434,-1.08629 -0.448352,-2.01631 -0.497806,-2.0667 -0.224335,-0.22862 0.111752,2.56591 0.402445,3.34628 0.506034,1.35846 0.541602,0.8812 0.09536,-1.27958 z m 10.900005,1.75042 c 0.463359,-0.33882 0.513591,-0.71611 0.513591,-3.85778 0,-3.14168 -0.05023,-3.51897 -0.513591,-3.85779 -0.282475,-0.20655 -0.639662,-0.36615 -0.79375,-0.35466 -0.154088,0.0115 -0.128826,0.0818 0.05614,0.15619 0.759116,0.30543 1.118912,1.64305 1.118912,4.15979 0,1.49548 -0.114305,2.58171 -0.28262,2.68574 -0.155443,0.0961 -0.216337,0.3474 -0.135324,0.55852 0.08102,0.21112 0.03783,0.3162 -0.09597,0.23351 -0.133797,-0.0827 -0.318056,-0.0294 -0.409459,0.11855 -0.0914,0.14789 -0.641379,0.2689 -1.222166,0.2689 h -1.055976 l 0.0794,-3.96915 c 0.04367,-2.18303 -0.0099,-3.96897 -0.119033,-3.96875 -0.109141,2.2e-4 -0.198437,1.84586 -0.198437,4.10144 v 4.10104 h 1.272346 c 0.699792,0 1.503463,-0.169 1.785938,-0.37555 z m 10.772095,0.18459 c -0.469697,-0.0584 -1.303134,-0.0594 -1.852084,-0.002 -0.548946,0.0573 -0.16465,0.1051 0.853996,0.10628 1.018646,0.001 1.467787,-0.0457 0.998088,-0.10414 z m 19.637538,-0.0706 c 0.09269,-0.14998 -0.01352,-0.19433 -0.248967,-0.10398 -0.45837,0.17589 -0.542235,0.36554 -0.16165,0.36554 0.136932,0 0.321712,-0.1177 0.410617,-0.26156 z m 9.06048,-3.77334 c -0.0534,-0.76398 -0.0972,-0.1389 -0.0972,1.38907 0,1.52796 0.0437,2.15304 0.0972,1.38906 0.0534,-0.76399 0.0534,-2.01414 0,-2.77813 z m -11.254648,3.45282 c -0.190249,-0.19025 -0.3175,-1.10929 -0.3175,-2.29306 0,-2.51703 -0.226822,-2.36031 -0.29147,0.20138 -0.03552,1.40737 0.05159,1.99786 0.319765,2.16768 0.52392,0.33175 0.660953,0.29574 0.289205,-0.076 z m -19.319081,-1.07157 c 0.507304,-0.96959 1.798868,-3.90825 1.80244,-4.10104 7.93e-4,-0.0364 -0.09493,-0.0661 -0.21244,-0.0661 -0.20239,0 -1.109252,1.81502 -1.109252,2.22008 0,0.17272 -0.958315,2.39743 -1.237633,2.87314 -0.06408,0.10914 -0.05237,0.19844 0.02601,0.19844 0.07839,0 0.407284,-0.50601 0.730869,-1.12448 z m 22.437109,-2.59971 c 0.004,-3.00918 -0.009,-3.07395 -0.721657,-3.70417 l -0.72571,-0.64143 0.527273,0.62422 c 0.466656,0.55245 0.527274,1.01347 0.527274,4.01007 0,1.86222 0.08747,3.2482 0.19439,3.07995 0.10691,-0.16825 0.19621,-1.68414 0.19843,-3.36864 z m 10.97296,2.68414 c 0.0837,-0.13547 0.0511,-0.30882 -0.0726,-0.38523 -0.12365,-0.0764 -0.22481,0.0344 -0.22481,0.2463 0,0.44613 0.0834,0.48511 0.29738,0.13893 z m 0.58892,-0.33247 c -0.0845,-0.21107 -0.14716,-0.14838 -0.15985,0.15985 -0.0115,0.27891 0.051,0.43518 0.13896,0.34726 0.0879,-0.0879 0.0973,-0.31612 0.0209,-0.50711 z m 10.27948,-2.38633 c 0.23359,-0.61216 0.27733,-1.04062 0.11639,-1.1401 -0.14183,-0.0876 -0.25786,-0.0252 -0.25786,0.13867 0,0.17767 -0.21381,0.23017 -0.52943,0.12999 -0.47751,-0.15155 -0.50345,-0.0997 -0.26458,0.52856 0.14566,0.38313 0.27865,1.0758 0.29553,1.53927 0.0192,0.52814 0.0746,0.64516 0.1482,0.3135 0.0646,-0.29104 0.28591,-0.97049 0.49175,-1.50989 z m -9.93105,-1.26823 c 0,-1.76389 -0.10423,-2.91042 -0.26459,-2.91042 -0.1565,0 -0.26311,0.94568 -0.26097,2.31511 0.003,2.12507 0.17035,3.50573 0.42412,3.50573 0.0558,0 0.10144,-1.30969 0.10144,-2.91042 z m -110.0230003,1.59954 c 0.3397832,-0.28442 0.9749763,-0.83459 1.4115388,-1.22259 l 0.79375,-0.70547 -0.9745345,0.69343 c -1.542587,1.09762 -1.7651968,0.9677 -1.871972,-1.09252 -0.087572,-1.68973 -0.095351,-1.66122 -0.1443805,0.52917 -0.028501,1.27331 -0.00238,2.31511 0.057994,2.31511 0.060399,0 0.387821,-0.23271 0.7276042,-0.51713 z m 108.0870703,-0.0616 c -0.0845,-0.21107 -0.14716,-0.14837 -0.15985,0.15985 -0.0115,0.27892 0.051,0.43519 0.13896,0.34727 0.0879,-0.0879 0.0973,-0.31613 0.0209,-0.50712 z m -54.684907,-0.21497 c 0,-0.29105 -0.04565,-0.52917 -0.101434,-0.52917 -0.05579,0 -0.163703,0.23812 -0.239813,0.52917 -0.07611,0.29104 -0.03046,0.52916 0.101434,0.52916 0.131897,0 0.239813,-0.23812 0.239813,-0.52916 z m -8.466667,-2.11667 c 0,-0.90615 -0.14319,-1.37049 -0.530788,-1.72126 -0.291934,-0.2642 -0.59032,-0.42083 -0.663081,-0.34807 -0.07276,0.0728 0.106564,0.34845 0.398497,0.61265 0.642144,0.58114 0.724451,2.28949 0.133914,2.7796 -0.218281,0.18115 -0.396875,0.45231 -0.396875,0.60257 0,0.15025 0.238125,0.0577 0.529167,-0.2057 0.385876,-0.34921 0.529166,-0.81491 0.529166,-1.71979 z m -12.13341,-0.79857 c 0.699354,-1.319 0.685136,-1.84445 -0.01955,-0.72279 -1.153419,1.8359 -1.380837,2.3138 -1.037497,2.18023 0.196998,-0.0766 0.672676,-0.73249 1.05706,-1.45744 z m 74.417574,0.60013 c -0.23606,-0.5457 -0.48967,-1.20055 -0.56358,-1.45521 -0.27306,-0.94082 -0.60133,-0.42124 -0.58506,0.92604 0.0136,1.12755 0.063,1.27379 0.26234,0.77676 0.27825,-0.69378 0.77922,-0.54524 0.77922,0.23105 0,0.28245 0.12066,0.51355 0.26813,0.51355 0.15249,0 0.083,-0.42792 -0.16105,-0.99219 z m 13.65844,-0.35744 c 0.1607,-0.59677 0.22762,-1.14959 0.14872,-1.22849 -0.0789,-0.0789 -0.1953,0.0224 -0.25867,0.22514 -0.0634,0.20273 -0.23857,0.75556 -0.38934,1.2285 -0.15672,0.49162 -0.17107,0.8599 -0.0335,0.8599 0.13234,0 0.3721,-0.48827 0.53279,-1.08505 z m -42.803386,-0.37824 c 0.187148,-0.979 -0.159639,-0.78681 -0.491095,0.27217 -0.22896,0.73151 -0.220941,0.86848 0.03825,0.65337 0.180366,-0.14969 0.384146,-0.56619 0.452842,-0.92554 z m 40.421986,0.30387 c -0.244,-1.08186 -0.47502,-1.48642 -0.8488,-1.48642 -0.1908,0 -0.19561,0.10646 -0.0149,0.33073 0.14654,0.1819 0.34917,0.71768 0.4503,1.19063 0.10112,0.47294 0.28093,0.85989 0.39956,0.85989 0.11863,0 0.12488,-0.40267 0.0139,-0.89483 z m -138.640853,-0.678 c -0.160078,-0.29911 -0.400388,-0.54383 -0.534019,-0.54383 -0.133633,0 -0.04015,0.35448 0.207746,0.78774 0.493604,0.86271 0.797094,0.63583 0.326273,-0.24391 z m -22.080939,-0.77983 c -0.134728,-0.057 -0.46215,0.16451 -0.727604,0.49233 -0.736703,0.90979 -0.574723,1.12278 0.244964,0.32211 0.400183,-0.39091 0.617371,-0.7574 0.48264,-0.81444 z m 29.909598,0.59012 c -0.471536,-0.8701 -0.54935,-0.70729 -0.156189,0.3268 0.149593,0.39346 0.3375022,0.64986 0.417581,0.56979 0.080076,-0.0801 -0.03755,-0.48355 -0.261392,-0.89659 z m 66.77599,-0.0895 c 0,-0.29104 -0.119062,-0.52917 -0.264583,-0.52917 -0.145521,0 -0.264584,0.23813 -0.264584,0.52917 0,0.29104 0.119063,0.52917 0.264584,0.52917 0.145521,0 0.264583,-0.23813 0.264583,-0.52917 z m -11.713324,-0.42444 c -0.08792,-0.0879 -0.316124,-0.0973 -0.507118,-0.0209 -0.211067,0.0845 -0.148374,0.14715 0.159853,0.15985 0.278913,0.0115 0.435184,-0.0511 0.347265,-0.13897 z"
                         id="path5454"
                         inkscape:connector-curvature="0" />
                      <path
                         style="fill:#afafaf;stroke-width:0.26458332"
                         d="M -66.667645,-359.78456 V -400.5304 H 36.519853 139.70735 v 40.74584 40.74583 H 36.519853 -66.667645 Z m 17.178712,-0.16798 c 0.466109,-0.59256 0.548371,-1.06884 0.548371,-3.175 0,-1.47552 -0.10703,-2.47786 -0.264584,-2.47786 -0.156371,0 -0.264583,0.95351 -0.264583,2.33136 0,1.99998 -0.07869,2.41583 -0.553631,2.92561 -0.678023,0.72778 -1.599199,0.65068 -1.956505,-0.16374 -0.307131,-0.70005 -0.664864,-0.78244 -0.664864,-0.15312 0,1.42488 2.204064,1.92268 3.155796,0.71275 z m 11.540604,0.0477 c 0.544875,-0.54488 0.649433,-0.90444 0.649433,-2.23334 0,-1.62759 -0.3458,-2.33346 -0.627766,-1.28144 -0.08731,0.32578 -0.160385,1.08985 -0.162372,1.69792 -0.0083,2.52991 -2.497111,2.65453 -2.834124,0.1419 -0.209098,-1.55894 -0.714021,-1.43573 -0.537411,0.13114 0.237069,2.10327 2.123569,2.93249 3.51224,1.54382 z m 20.012991,-0.19701 c 0.590229,-0.76706 0.610555,-2.15852 0.04551,-3.11507 -0.40319,-0.68255 -0.40319,-0.78083 0,-1.35646 0.970016,-1.3849 0.146667,-3.43631 -1.361559,-3.39239 -0.410673,0.012 -0.547642,0.0833 -0.320421,0.16682 0.880192,0.32364 1.322917,0.97206 1.322917,1.93757 0,1.19756 -0.475343,1.64224 -1.636363,1.5308 -0.735026,-0.0706 -0.890747,-0.20211 -0.960898,-0.81181 -0.0925,-0.80386 -0.432676,-0.95809 -0.681723,-0.30909 -0.230984,0.60194 -0.19843,5.80443 0.03784,6.04714 0.109141,0.11211 0.848201,0.13801 1.642359,0.0575 1.087006,-0.11013 1.559708,-0.29677 1.912345,-0.75506 z m -2.628662,0.14205 c -0.216591,-0.0874 -0.330729,-0.72223 -0.330729,-1.8395 0,-1.89068 0.294486,-2.23176 1.54669,-1.79138 1.45591,0.51202 1.641216,2.71845 0.287115,3.41868 -0.784836,0.40586 -0.961374,0.43078 -1.503076,0.2122 z m 25.4578504,0.45323 c 0.089226,-0.14437 -0.494747,-0.28499 -1.3734494,-0.33073 l -1.5286725,-0.0796 -0.078227,-1.63262 -0.078224,-1.63263 1.2027033,-0.82748 c 0.66149,-0.45511 1.2027058,-0.94082 1.2027058,-1.07935 0,-0.38087 -0.3261757,-0.29541 -1.0583333,0.27729 -1.1162877,0.87317 -1.2930161,0.69496 -1.3774711,-1.38906 -0.1119717,-2.76301 -0.5922221,-2.39063 -0.6829848,0.52958 -0.070496,2.2682 -0.12388322,2.47912 -0.72760417,2.8747 -0.84193326,0.55165 -0.83655957,0.95172 0.009948,0.73926 0.63871747,-0.1603 0.66145837,-0.12106 0.66145837,1.14149 0,0.71913 0.079375,1.38688 0.1763898,1.48389 0.2734892,0.27349 3.4770747,0.2079 3.6517738,-0.0748 z m 18.5411536,-0.39827 c 0.629991,-0.62999 0.649433,-0.76465 0.649433,-4.49792 0,-2.38926 -0.100323,-3.84848 -0.264584,-3.84848 -0.163618,0 -0.264583,1.39448 -0.264583,3.65428 0,3.31182 -0.05055,3.70854 -0.539475,4.23333 -0.65496,0.70301 -1.34911,0.74046 -1.925243,0.10384 -0.345191,-0.38143 -0.444659,-1.20381 -0.504026,-4.16719 -0.0943,-4.70699 -0.573392,-4.97817 -0.679604,-0.38468 -0.04206,1.81901 -0.0093,3.57821 0.07288,3.90934 0.403363,1.62601 2.283809,2.16888 3.455205,0.99748 z m 20.493182,-0.42452 c 0,-0.42797 -0.119062,-0.77813 -0.264583,-0.77813 -0.145521,0 -0.264583,0.42374 -0.264583,0.94166 0,0.56039 0.107124,0.87544 0.264583,0.77813 0.145521,-0.0899 0.264583,-0.51368 0.264583,-0.94166 z m 10.997261,0.14791 c 0.361135,-0.86432 0.466487,-0.92604 1.580613,-0.92604 1.11648,0 1.204028,0.0517 1.353539,0.79925 0.166354,0.83177 0.489291,1.21488 0.715516,0.84884 0.244342,-0.39536 -1.192639,-5.9478 -1.468028,-5.67241 -0.168915,0.16892 -0.128402,0.77167 0.116501,1.73325 0.418465,1.64302 0.341128,1.7619 -1.146209,1.7619 -0.856319,0 -0.92008,-0.23421 -0.525965,-1.93203 0.34544,-1.48813 -0.300469,-1.11589 -0.67886,0.39123 -0.419246,1.66983 -0.709038,3.92205 -0.504653,3.92205 0.09384,0 0.344736,-0.41672 0.557546,-0.92604 z m 13.496933,0.77128 c 1.067313,-0.2866 1.434973,-1.41962 1.434973,-4.42214 0,-2.69764 -0.02154,-2.79851 -0.767612,-3.5972 -0.806376,-0.86323 -1.585003,-1.02071 -2.787039,-0.5637 l -0.678683,0.25804 v 4.06349 c 0,2.23492 0.07937,4.14287 0.17639,4.23988 0.212984,0.21299 1.858814,0.22656 2.621971,0.0216 z m -1.828221,-0.55079 c -0.09701,-0.097 -0.17639,-1.82342 -0.17639,-3.83646 v -3.66007 h 1.049025 c 1.417932,0 1.596809,0.42782 1.596809,3.81906 0,2.44274 -0.06678,2.8623 -0.529167,3.32469 -0.514535,0.51453 -1.584063,0.70899 -1.940277,0.35278 z m 13.978818,0.44097 c 0.100836,-0.16315 -0.352798,-0.26458 -1.183314,-0.26458 -0.914405,0 -1.392764,-0.11969 -1.48988,-0.37278 -0.117265,-0.30558 0.892953,-3.06577 2.042393,-5.58035 0.133041,-0.29104 0.350848,-0.91612 0.484021,-1.38906 l 0.242134,-0.8599 -1.899762,0.0477 c -1.576406,0.0396 -1.67459,0.0648 -0.576842,0.14817 0.727605,0.0553 1.41024,0.1866 1.516968,0.29188 0.106727,0.10527 -0.522314,1.90435 -1.397871,3.99796 -1.216972,2.90999 -1.511948,3.8573 -1.252384,4.02201 0.485148,0.30783 3.319373,0.27474 3.514537,-0.041 z m 8.083259,-4.19484 c 0.02508,-2.64633 -0.06273,-4.16234 -0.252068,-4.35168 -0.211032,-0.21103 -0.290566,0.96958 -0.290566,4.31319 0,2.91678 0.09237,4.51138 0.252069,4.35168 0.138636,-0.13864 0.269391,-2.07957 0.290565,-4.31319 z m 10.514317,4.28989 c 1.022367,-0.27387 1.378467,-1.38541 1.378467,-4.3028 0,-1.45558 -0.13451,-2.94173 -0.29891,-3.30254 -0.560058,-1.22921 -2.607087,-1.5209 -3.460551,-0.49311 -0.225253,0.27126 -0.373237,1.51889 -0.434527,3.66344 -0.09123,3.19199 -0.08045,3.26457 0.583287,3.92831 0.689298,0.6893 1.155509,0.79513 2.232234,0.5067 z m -1.945772,-1.00982 c -0.344737,-0.52614 -0.409001,-1.2348 -0.336828,-3.71429 0.09414,-3.23428 0.225359,-3.56012 1.437245,-3.56897 1.166122,-0.009 1.430071,0.73172 1.430071,4.01067 0,2.61588 -0.06846,3.10897 -0.483854,3.48489 -0.694815,0.6288 -1.553914,0.53968 -2.046634,-0.2123 z m 11.496999,-1.88729 c -0.0902,-3.92815 0.22182,-4.00743 1.49356,-0.37951 0.92363,2.63486 1.20255,3.18157 1.62318,3.18157 0.27894,0 0.35217,-0.90779 0.35217,-4.36563 0,-2.73402 -0.0989,-4.36562 -0.26459,-4.36562 -0.16179,0 -0.26458,1.24207 -0.26458,3.19705 0,2.42622 -0.0791,3.17068 -0.32807,3.08769 -0.18044,-0.0601 -0.80552,-1.35315 -1.38906,-2.87335 -1.19572,-3.11497 -1.39196,-3.48336 -1.74074,-3.2678 -0.27301,0.16873 -0.34622,8.39954 -0.0771,8.66866 0.47326,0.47327 0.65239,-0.39433 0.59523,-2.88306 z m 13.25849,0.9646 c 0,-1.33728 0.20574,-2.38082 0.79244,-4.01928 0.43584,-1.21718 0.79303,-2.3874 0.79375,-2.60048 0.003,-0.76314 -0.68174,0.32654 -1.1987,1.90878 -0.27339,0.83675 -0.58163,1.52136 -0.68498,1.52136 -0.10335,0 -0.38779,-0.56555 -0.63207,-1.25678 -0.76067,-2.15234 -0.9031,-2.44739 -1.18144,-2.44739 -0.41145,0 -0.33985,0.31075 0.55758,2.41998 0.77927,1.83152 0.91301,2.67123 1.0182,6.39303 0.003,0.11773 0.12511,0.14047 0.27064,0.0505 0.14552,-0.0899 0.26458,-0.97633 0.26458,-1.96975 z m -130.439583,0.15093 c 0,-0.92759 0.1798637,-2.19632 0.3997007,-2.81939 0.4373801,-1.23968 0.3265885,-1.68563 -0.2297562,-0.92479 -0.4113212,0.56252 -0.4819359,0.47476 -1.232744,-1.53195 -0.3094963,-0.8272 -0.6732295,-1.50401 -0.8082945,-1.50401 -0.378949,0 -0.306826,0.33639 0.5481774,2.5568 0.6202309,1.61072 0.7937499,2.482 0.7937499,3.9856 0,1.10646 0.112448,1.92427 0.2645834,1.92427 0.148717,0 0.2645833,-0.73856 0.2645833,-1.68653 z m 41.010416,0.0816 c 0,-0.88269 0.11656,-1.82269 0.259024,-2.08888 0.188064,-0.3514 0.15212,-0.57271 -0.131212,-0.80786 -0.307543,-0.25523 -0.35438,-0.70965 -0.22103,-2.14445 0.14696,-1.58123 0.112035,-1.82058 -0.265663,-1.82058 -0.385318,0 -0.434869,0.48238 -0.434869,4.23334 0,3.58657 0.06064,4.23333 0.396875,4.23333 0.309158,0 0.396875,-0.35471 0.396875,-1.6049 z m 14.682369,1.14188 c -0.105002,-0.25466 -0.419251,-1.0961 -0.698333,-1.86986 l -0.507423,-1.40682 0.698354,-0.82995 c 0.593741,-0.70562 0.678223,-1.00856 0.563957,-2.02231 -0.176726,-1.56791 -0.873215,-2.13929 -2.607704,-2.13929 h -1.303907 l 0.07645,2.3151 0.07645,2.31511 0.956014,0.08 c 0.920969,0.077 1.557528,0.77004 1.557528,1.69566 0,0.51539 0.885439,2.32542 1.13756,2.32542 0.133083,0 0.156062,-0.20836 0.05106,-0.46302 z m -3.305286,-5.75469 c 0,-1.79771 0.02572,-1.8312 1.322917,-1.7234 1.01364,0.0842 1.322917,0.49255 1.322917,1.74649 0,1.28968 -0.440124,1.6967 -1.83469,1.6967 h -0.811144 z m -9.24865,3.07256 c -0.710176,-1.80173 -0.6873,-2.13957 0.252817,-3.73402 0.843555,-1.43067 0.986994,-1.96059 0.485436,-1.79341 -0.169574,0.0565 -0.794652,1.02256 -1.389062,2.14675 -0.950823,1.79825 -1.029256,2.07406 -0.652426,2.29425 0.23558,0.13766 0.559814,0.58053 0.720519,0.98416 0.160708,0.40363 0.433186,1.09106 0.605507,1.52763 0.214685,0.54388 0.345551,0.66047 0.415726,0.37037 0.05633,-0.23286 -0.141004,-1.04094 -0.438517,-1.79573 z m 21.287192,-3.20485 c 0.192659,-0.60702 0.422145,-0.66265 0.873125,-0.21167 0.246943,0.24695 0.3175,0.19198 0.3175,-0.24736 0,-0.88074 -0.498904,-1.97641 -0.847098,-1.86034 -0.2969,0.099 -0.396589,0.35224 -0.834798,2.12093 -0.206189,0.83222 0.233717,1.00991 0.491271,0.19844 z m -63.0405716,-0.92604 c 0.3245221,-0.87561 0.3555365,-1.19063 0.1172263,-1.19063 -0.1782286,0 -0.4483576,0.53578 -0.6002893,1.19063 -0.1519317,0.65484 -0.2046816,1.19062 -0.1172263,1.19062 0.087455,0 0.357587,-0.53578 0.6002893,-1.19062 z m -32.8783704,-0.79138 c 0.754684,-0.23952 1.538732,0.065 1.731573,0.67262 0.211511,0.66641 0.657162,0.66741 0.657162,0.002 0,-0.65226 -0.964317,-1.33792 -1.881643,-1.33792 -0.782132,0 -1.767176,0.70865 -1.838888,1.32291 -0.11202,0.95954 0.08859,1.12428 0.427336,0.35094 0.202293,-0.46183 0.609301,-0.91634 0.90446,-1.01002 z m 19.388214,-0.30989 c -0.181901,-0.0734 -0.479558,-0.0734 -0.661459,0 -0.181901,0.0734 -0.03307,0.13345 0.33073,0.13345 0.363802,0 0.51263,-0.0601 0.330729,-0.13345 z"
                         id="path5452"
                         inkscape:connector-curvature="0" />
                      <path
                         style="fill:#8f8f8f;stroke-width:0.26458332"
                         d="M -66.667645,-359.78456 V -400.5304 H 36.519853 139.70735 v 40.74584 40.74583 H 36.519853 -66.667645 Z m 17.197916,0 c 0.46197,-0.46198 0.529167,-0.88195 0.529167,-3.3073 0,-1.52797 -0.106326,-2.77812 -0.236276,-2.77812 -0.414143,0 -0.557474,0.77954 -0.557474,3.03195 0,2.4291 -0.248341,2.88765 -1.48495,2.74185 -0.539811,-0.0636 -0.78401,-0.28654 -0.963004,-0.87901 -0.475919,-1.57529 -0.465481,-1.55802 -0.762486,-1.26102 -0.384949,0.38495 -0.03475,1.85229 0.591546,2.47858 0.675189,0.67519 2.195553,0.66099 2.883477,-0.0269 z m 11.631358,-0.0499 c 0.432478,-0.46421 0.539475,-0.9334 0.539475,-2.36564 0,-1.72602 -0.303652,-2.52254 -0.633735,-1.66236 -0.08801,0.22935 -0.160015,1.03829 -0.160015,1.79765 0,1.55056 -0.309986,2.01565 -1.343438,2.01565 -1.048845,0 -1.272288,-0.46029 -1.487265,-3.06378 -0.189473,-2.29464 -0.199988,-2.32344 -0.378703,-1.03726 -0.356399,2.56494 -0.270828,3.62679 0.345109,4.28243 0.774766,0.8247 2.365452,0.84169 3.118572,0.0333 z m 19.733792,-0.0704 c 0.779349,-0.77935 0.884248,-2.45039 0.217686,-3.4677 -0.399272,-0.60937 -0.399272,-0.69481 0,-1.136 0.248417,-0.2745 0.431747,-0.9283 0.431747,-1.53971 0,-1.46213 -0.661466,-2.00823 -2.602526,-2.14863 l -1.524363,-0.11026 -0.06509,4.52586 -0.06509,4.52587 h 1.479103 c 1.217631,0 1.593911,-0.1148 2.128536,-0.64943 z m -2.613761,-0.32071 c -0.09701,-0.097 -0.176389,-0.87092 -0.176389,-1.71979 v -1.5434 h 1.049025 c 0.76635,0 1.122828,0.1379 1.322916,0.51177 0.425667,0.79537 0.323483,2.00717 -0.209962,2.48993 -0.484725,0.43867 -1.654376,0.59271 -1.98559,0.26149 z m 0.0479,-4.25538 c -0.02217,-0.10914 -0.05983,-0.3175 -0.08368,-0.46302 -0.02387,-0.14552 -0.138877,-0.6726 -0.255587,-1.17129 -0.170776,-0.7297 -0.118743,-0.97504 0.266546,-1.25677 0.673558,-0.49251 1.24379,-0.43612 1.915218,0.18941 0.756767,0.70504 0.795997,2.23622 0.06728,2.62622 -0.592632,0.31716 -1.850594,0.36687 -1.909776,0.0754 z m 12.5008375,2.69101 c 0.1087438,-1.63052 0.3746103,-2.91433 0.8598958,-4.15226 0.7783857,-1.9856 0.8511249,-2.40271 0.3923427,-2.24978 -0.1705742,0.0569 -0.5722858,0.80592 -0.8926883,1.66458 -0.3204051,0.85866 -0.6941184,1.59838 -0.8304741,1.64384 -0.1363557,0.0455 -0.4510379,-0.56172 -0.6992885,-1.34927 -0.4407032,-1.39807 -1.0583701,-2.2562 -1.3192411,-1.83284 -0.07161,0.11621 0.274113,1.28285 0.7682675,2.59253 0.7219738,1.9135 0.8988372,2.76239 0.9003877,4.32153 0.00132,1.4334 0.088326,1.91176 0.3326553,1.83112 0.2149713,-0.0709 0.385826,-0.93528 0.488143,-2.46945 z m 13.1390441,2.20378 c -0.065754,-0.19933 -0.7052072,-0.36225 -1.6095477,-0.41008 l -1.5004521,-0.0793 v -1.54947 -1.54948 l 1.3890625,-1.00711 c 1.0217282,-0.74079 1.2666715,-1.03234 0.9262428,-1.10252 -0.2545504,-0.0525 -0.7766235,0.15144 -1.1601609,0.45313 -0.3835373,0.30169 -0.800346,0.54853 -0.9262427,0.54853 -0.1258967,0 -0.2289017,-0.90289 -0.2289017,-2.00642 0,-1.48718 -0.08559,-1.97808 -0.3307291,-1.89688 -0.2217976,0.0735 -0.3557297,0.85286 -0.4066381,2.36635 -0.067397,2.00383 -0.1489578,2.32543 -0.72760419,2.86904 -0.8110167,0.76191 -0.83049797,1.10728 -0.0563827,0.99964 0.5220626,-0.0726 0.60459143,0.0475 0.67071609,0.97556 0.1218962,1.71089 0.1332177,1.71979 2.1872998,1.71979 1.3877449,0 1.8537661,-0.0869 1.773338,-0.33073 z m 18.5755254,-0.24832 c 0.492847,-0.52901 0.539475,-0.91969 0.539475,-4.51997 0,-2.96832 -0.07911,-3.91454 -0.320541,-3.83406 -0.353639,0.11788 -0.354808,0.12993 -0.424367,4.36902 -0.04241,2.58479 -0.118489,3.04621 -0.578009,3.50573 -0.291042,0.29104 -0.648229,0.52917 -0.79375,0.52917 -0.145521,0 -0.502708,-0.23813 -0.79375,-0.52917 -0.478769,-0.47877 -0.529167,-0.88195 -0.529167,-4.23333 0,-3.11621 -0.063,-3.70417 -0.396875,-3.70417 -0.334359,0 -0.396875,0.59869 -0.396875,3.80078 0,3.44451 0.0514,3.86612 0.54837,4.49791 0.722146,0.91806 2.343494,0.97893 3.145489,0.11809 z m 9.006141,-1.02584 c 0,-1.60468 0.315733,-2.62844 0.810623,-2.62844 0.14456,0 0.572653,0.71437 0.951317,1.5875 0.378664,0.87312 0.805857,1.5875 0.949322,1.5875 0.322175,0 0.166026,-0.72348 -0.599612,-2.77813 l -0.591561,-1.5875 0.966494,-1.69099 c 0.531569,-0.93005 0.909058,-1.74843 0.838864,-1.81863 -0.344678,-0.34468 -0.979111,0.33597 -1.896753,2.03492 -0.555987,1.02937 -1.104889,1.87158 -1.21979,1.87158 -0.114897,0 -0.208904,-0.89297 -0.208904,-1.98438 0,-1.5875 -0.07937,-1.98437 -0.396875,-1.98437 -0.337214,0 -0.396875,0.67616 -0.396875,4.49792 0,3.82175 0.05966,4.49791 0.396875,4.49791 0.309158,0 0.396875,-0.35471 0.396875,-1.60489 z m 11.377083,0.52451 c 0,-0.74601 -0.102359,-1.04667 -0.330729,-0.97146 -0.625205,0.20589 -0.573167,2.05184 0.05784,2.05184 0.150088,0 0.272886,-0.48617 0.272886,-1.08038 z m 3.439584,0.70544 c 0,-0.20622 -0.238125,-0.93046 -0.529167,-1.60943 -0.624327,-1.45649 -0.679381,-2.47251 -0.14509,-2.67754 0.520441,-0.19971 1.00076,-1.74612 0.795891,-2.5624 -0.315407,-1.25667 -1.217211,-1.81066 -2.800461,-1.72035 l -1.422215,0.0811 -0.08479,1.32292 c -0.04664,0.7276 -0.01021,1.8246 0.08092,2.43777 0.162393,1.09258 0.185237,1.11373 1.143124,1.05833 0.937628,-0.0542 0.993897,-0.008 1.382194,1.13411 0.855885,2.51753 1.031544,2.91041 1.301253,2.91041 0.15309,0 0.278347,-0.16872 0.278347,-0.37494 z m -3.331422,-4.75191 c -0.0769,-0.20039 -0.102926,-0.94453 -0.05784,-1.65364 0.08002,-1.25858 0.103754,-1.29137 0.996334,-1.37627 1.093155,-0.10398 1.599179,0.43712 1.599179,1.71004 0,0.58924 -0.185352,0.99029 -0.58804,1.27234 -0.727691,0.5097 -1.762601,0.53493 -1.949632,0.0475 z m 10.946143,4.26696 c 0.204774,-0.7949 0.312936,-0.8659 1.430853,-0.93924 1.19588,-0.0784 1.211295,-0.0689 1.385536,0.8599 0.105944,0.56473 0.329668,0.93923 0.561086,0.93923 0.524491,0 0.480348,-0.51539 -0.294608,-3.43958 -0.732819,-2.76519 -0.812094,-3.11294 -1.04044,-4.56406 -0.116467,-0.74015 -0.282739,-0.99219 -0.654547,-0.99219 -0.391996,0 -0.563854,0.3152 -0.804873,1.47619 -0.168553,0.8119 -0.237556,1.54509 -0.153348,1.6293 0.08421,0.0842 0.03399,0.29665 -0.111606,0.47208 -0.197133,0.23753 -1.318191,4.77338 -1.318191,5.33345 0,0.0466 0.175188,0.0848 0.38931,0.0848 0.217393,0 0.48713,-0.37972 0.610828,-0.85989 z m 0.495049,-1.72126 c -0.11139,-0.18023 0.153474,-2.13144 0.505166,-3.7215 0.250891,-1.13432 0.74544,-0.4259 1.077193,1.54304 0.180993,1.07418 0.269936,2.04875 0.197651,2.16571 -0.166491,0.26939 -1.614987,0.27977 -1.78001,0.0128 z m 13.874218,1.76839 c 0.415824,-0.54097 0.494757,-1.12741 0.49971,-3.71267 0.0056,-2.91241 -0.02812,-3.10691 -0.655748,-3.78413 -0.582224,-0.62823 -0.828334,-0.70432 -2.050521,-0.63395 l -1.388888,0.08 -0.07269,4.46404 -0.07269,4.46405 1.623499,-0.11743 c 1.328195,-0.0961 1.713323,-0.23429 2.117326,-0.75988 z m -2.818559,-0.32639 c -0.0729,-0.18998 -0.09893,-1.82709 -0.05784,-3.63802 l 0.0747,-3.29262 0.83448,-0.081 c 1.330277,-0.12915 1.679062,0.62965 1.679062,3.65289 0,2.93305 -0.335325,3.70416 -1.610808,3.70416 -0.432876,0 -0.846695,-0.15543 -0.919596,-0.3454 z m 14.105472,0.80842 c -0.06549,-0.19567 -0.617924,-0.34294 -1.352823,-0.36063 -0.68317,-0.0165 -1.31032,-0.0981 -1.393663,-0.18145 -0.08335,-0.0833 0.462589,-1.58258 1.213188,-3.33163 0.750599,-1.74906 1.387872,-3.51288 1.416164,-3.91961 0.05111,-0.73468 0.03983,-0.74 -1.734497,-0.81772 -1.443744,-0.0632 -1.785938,-0.002 -1.785938,0.31752 0,0.29254 0.372034,0.41646 1.426425,0.47511 l 1.426424,0.0793 -1.544934,3.57188 c -0.849714,1.96453 -1.551138,3.78023 -1.558718,4.03489 -0.01196,0.40148 0.252904,0.46302 1.992643,0.46302 1.487789,0 1.97781,-0.0855 1.895729,-0.33073 z m 8.13639,-4.18923 c 0,-3.68457 -0.06021,-4.34358 -0.396875,-4.34358 -0.303165,0 -0.417383,0.40608 -0.483728,1.71979 -0.13907,2.75376 0.222303,7.1868 0.576239,7.06882 0.21295,-0.071 0.304364,-1.40603 0.304364,-4.44503 z m 11.124525,3.87053 c 0.617909,-0.6179 0.649439,-0.80474 0.649439,-3.84848 0,-3.04375 -0.0315,-3.23059 -0.649439,-3.84849 -0.802855,-0.80286 -2.190584,-0.86856 -2.971845,-0.1407 -0.45551,0.42437 -0.577517,0.97025 -0.735759,3.29187 -0.104336,1.53073 -0.109757,3.14712 -0.01204,3.59198 0.356946,1.62518 2.49901,2.17446 3.71965,0.95382 z m -2.077572,-0.065 c -0.732221,-0.18977 -0.977162,-1.19612 -0.977162,-4.01471 0,-2.71813 0.194852,-3.28111 1.243237,-3.59204 0.401035,-0.11894 0.75038,-0.004 1.12448,0.37016 0.48143,0.48143 0.5427,0.87128 0.5427,3.45312 0,2.55763 -0.06414,2.97455 -0.529167,3.43958 -0.543549,0.54355 -0.589894,0.5549 -1.404088,0.34389 z m 10.929091,-2.34388 c 0,-1.68208 0.10191,-2.99534 0.22646,-2.91836 0.12456,0.077 0.60954,1.18533 1.07774,2.46301 1.08644,2.96478 1.35903,3.51367 1.74496,3.51367 0.56722,0 0.94336,-7.86633 0.41595,-8.699 -0.54082,-0.85386 -0.85741,0.0538 -0.80588,2.31047 0.10091,4.4202 0.003,4.43951 -1.54128,0.30312 -0.67816,-1.81681 -1.18833,-2.80773 -1.47434,-2.86367 -0.39302,-0.0769 -0.43736,0.37244 -0.43736,4.43177 0,3.839 0.0596,4.51731 0.39688,4.51731 0.32988,0 0.39687,-0.5162 0.39687,-3.05832 z m 13.49375,0.52385 c 0.0973,-1.73674 0.33216,-2.87111 0.88882,-4.29372 0.4161,-1.06337 0.68912,-2.00081 0.60673,-2.08321 -0.38361,-0.3836 -0.87738,0.25729 -1.34349,1.74378 -0.28017,0.8935 -0.63598,1.58235 -0.79069,1.53078 -0.15472,-0.0516 -0.46129,-0.67961 -0.68128,-1.39565 -0.45482,-1.48038 -0.71974,-1.96334 -1.07695,-1.96334 -0.40493,0 -0.29411,0.55629 0.54478,2.73486 0.62012,1.61042 0.79375,2.48209 0.79375,3.98477 0,1.05788 0.0819,2.00528 0.1819,2.10533 0.49484,0.49483 0.75564,-0.20852 0.87643,-2.3636 z m -161.689339,-5.53532 c 0.736769,0 0.97301,0.15078 1.356434,0.86571 l 0.464285,0.86571 0.166675,-0.66407 c 0.303133,-1.20779 -0.578205,-1.9933 -2.223056,-1.98136 -0.869934,0.006 -1.511258,0.51811 -1.72716,1.37834 -0.288301,1.14868 0.164677,1.45443 0.645649,0.4358 0.359701,-0.76178 0.562139,-0.90013 1.317173,-0.90013 z m -9.500129,-0.19844 c 0.0022,-0.25466 -0.115012,-0.46302 -0.260533,-0.46302 -0.145521,0 -0.26276,0.38695 -0.260532,0.8599 0.0031,0.65252 0.0659,0.76418 0.260532,0.46302 0.141066,-0.21828 0.258305,-0.60524 0.260533,-0.8599 z"
                         id="path5450"
                         inkscape:connector-curvature="0" />
                      <path
                         style="fill:#6c6c6c;stroke-width:0.26458332"
                         d="M -66.667645,-359.78456 V -400.5304 H 36.519853 139.70735 v 40.74584 40.74583 H 36.519853 -66.667645 Z m 118.345411,10.05416 c -0.07611,-0.29104 -0.184026,-0.52917 -0.239813,-0.52917 -0.05579,0 -0.101434,0.23813 -0.101434,0.52917 0,0.29104 0.107916,0.52917 0.239813,0.52917 0.131898,0 0.177544,-0.23813 0.101434,-0.52917 z m -34.075621,0 c 0.08994,-0.14552 0.03743,-0.26458 -0.116676,-0.26458 -0.154109,0 -0.280199,0.11906 -0.280199,0.26458 0,0.14552 0.0525,0.26458 0.116676,0.26458 0.06417,0 0.190262,-0.11906 0.280199,-0.26458 z m -66.99818,-10.01027 c 0.672243,-0.67224 0.812353,-1.96339 0.593373,-5.46805 -0.260916,-4.17585 -0.695989,-3.83584 -0.860143,0.67222 -0.145463,3.99475 -0.312914,4.55788 -1.319387,4.43706 -0.730782,-0.0877 -1.011514,-0.44639 -1.254944,-1.60335 -0.167215,-0.79474 -0.937668,-1.01269 -0.935284,-0.26459 0.0034,1.05653 0.563732,2.38439 1.124455,2.66453 0.761153,0.38029 2.045934,0.16818 2.65193,-0.43782 z m 11.218762,0.23483 c 1.058169,-0.64522 1.251162,-1.74211 0.956805,-5.4381 l -0.21072,-2.64583 -0.926041,-0.44549 c -0.549831,-0.26451 -1.228191,-0.38509 -1.669778,-0.2968 -1.284745,0.25685 -1.531135,0.99428 -1.576739,4.7191 l -0.04116,3.36192 0.732555,0.63011 c 0.887663,0.76354 1.620998,0.79439 2.735082,0.11509 z m -2.291397,-1.06271 c -0.40037,-0.7481 -0.432046,-5.5654 -0.04139,-6.29362 0.389966,-0.72693 1.372473,-0.78224 1.979527,-0.11146 0.343488,0.37955 0.437883,1.03177 0.437883,3.02549 0,3.18481 -0.239413,3.89899 -1.30706,3.89899 -0.515242,0 -0.887894,-0.18107 -1.068964,-0.5194 z m 63.21917,1.27735 c 1.31082,-0.45696 1.59852,-1.45248 1.59852,-5.53135 0,-3.15969 -0.0411,-3.45963 -0.463021,-3.37898 -0.407641,0.0779 -0.478843,0.54034 -0.595312,3.86621 -0.137483,3.92597 -0.2485,4.27194 -1.374061,4.28212 -1.000728,0.009 -1.271773,-0.98944 -1.271773,-4.68503 0,-2.94628 -0.06402,-3.513 -0.396875,-3.513 -0.335219,0 -0.395568,0.60627 -0.388461,3.9026 0.0089,4.15252 0.122687,4.58327 1.338506,5.0694 0.350599,0.14018 0.649454,0.26242 0.66412,0.27164 0.01466,0.009 0.414425,-0.1184 0.888357,-0.28361 z m 77.3355,-0.5506 c 0.38958,-0.4464 0.46302,-1.07146 0.46302,-3.94083 0,-3.05749 -0.0547,-3.46501 -0.52917,-3.93943 -0.80435,-0.80436 -2.466814,-0.79059 -3.30729,0.0274 -0.461258,0.44891 -0.540255,0.93069 -0.615584,3.75424 -0.07902,2.96183 -0.03891,3.29962 0.468294,3.94443 0.867253,1.10253 2.625902,1.17957 3.52073,0.15422 z m -2.659065,-0.52485 c -0.210449,-0.21045 -0.3175,-1.35231 -0.3175,-3.38666 0,-3.25339 0.150593,-3.70417 1.237443,-3.70417 1.135243,0 1.467067,0.99597 1.366595,4.10181 -0.06877,2.12595 -0.185764,2.85758 -0.487371,3.04794 -0.55164,0.34816 -1.420545,0.3197 -1.799167,-0.0589 z m -115.792788,0.90876 c 0.565389,-0.39262 1.175245,-1.52097 1.17366,-2.17148 -7.93e-4,-0.36781 -0.183202,-1.01692 -0.405124,-1.44249 -0.363498,-0.69704 -0.361522,-0.8622 0.01992,-1.66604 0.456845,-0.96273 0.353057,-1.9808 -0.289476,-2.83948 -0.295267,-0.3946 -0.792744,-0.54263 -2.104151,-0.62614 l -1.717458,-0.10936 v 4.52874 4.52874 l 1.521354,-0.004 c 0.836744,-0.002 1.647317,-0.0915 1.801272,-0.19843 z m -2.264293,-2.31105 c 0,-1.71367 0.0027,-1.71979 0.752742,-1.71979 0.414009,0 0.949791,0.21773 1.190625,0.48385 0.963602,1.06477 0.143484,2.95573 -1.281909,2.95573 -0.637714,0 -0.661458,-0.0617 -0.661458,-1.71979 z m -0.08749,-3.87459 c -0.193514,-1.63391 -0.105984,-1.81395 0.881848,-1.81395 0.81352,0 1.586889,0.80236 1.586889,1.64637 0,0.66881 -0.946611,1.52863 -1.682938,1.52863 -0.554577,0 -0.642676,-0.15259 -0.785799,-1.36105 z m 12.5229033,4.41137 c 0,-1.53669 0.1767047,-2.46094 0.79375,-4.15168 0.8936778,-2.44873 0.9547728,-2.86739 0.4184465,-2.86739 -0.2273432,0 -0.6040173,0.68728 -0.9554395,1.74331 -0.3190743,0.95882 -0.6713352,1.64343 -0.7827989,1.52135 -0.1114637,-0.12207 -0.4082812,-0.85552 -0.6595904,-1.62988 -0.4152609,-1.27954 -0.987121,-1.93147 -1.363819,-1.55478 -0.07996,0.08 0.222835,1.18187 0.67287,2.4487 0.6256552,1.76117 0.818248,2.75182 0.818248,4.20883 0,1.95566 0.094551,2.2583 0.7055564,2.2583 0.2625011,0 0.3527769,-0.50585 0.3527769,-1.97676 z m 13.2291665,1.59309 c 0,-0.28149 -0.4051776,-0.4048 -1.5213541,-0.46302 l -1.5213542,-0.0794 -0.079452,-1.374 c -0.079383,-1.37286 -0.078338,-1.37483 1.2567708,-2.37158 0.7349225,-0.54867 1.3362225,-1.0842 1.3362225,-1.19007 0,-0.52933 -0.6462527,-0.46181 -1.4503743,0.15153 -0.4940856,0.37685 -0.952291,0.59542 -1.0182331,0.4857 -0.065942,-0.10972 -0.1187847,-0.94947 -0.1174327,-1.86611 0.00267,-1.81174 -0.091104,-2.05139 -0.70984,-1.81396 -0.32602487,0.12511 -0.40828647,0.63509 -0.40828647,2.53122 0,2.12344 -0.0596397,2.41633 -0.56394878,2.76956 -0.36568856,0.25614 -0.50411327,0.55094 -0.39374498,0.83855 0.13818658,0.36011 0.24427656,0.38208 0.56394879,0.11677 0.33959535,-0.28184 0.39374497,-0.14645 0.39374497,0.98444 0,0.72117 0.079375,1.39059 0.17638977,1.4876 0.0970121,0.097 1.0495121,0.17639 2.1166666,0.17639 1.5186237,0 1.9402769,-0.0834 1.9402769,-0.38367 z M 32.5511,-360.81359 c 0,-1.10674 0.138097,-1.72873 0.476655,-2.14683 l 0.476652,-0.58864 0.738693,1.73808 c 0.691039,1.62594 1.337625,2.52457 1.616122,2.24607 0.105159,-0.10516 -0.494445,-1.89908 -1.428985,-4.2753 -0.259628,-0.66015 -0.181041,-0.95093 0.666647,-2.46673 0.647176,-1.15726 0.87368,-1.80566 0.693658,-1.98568 -0.366075,-0.36608 -1.074862,0.4363 -2.000832,2.26503 -0.409726,0.80918 -0.85603,1.53989 -0.991785,1.62379 -0.144397,0.0892 -0.246825,-0.67742 -0.246825,-1.84744 0,-1.51571 -0.08765,-1.99999 -0.361987,-1.99999 -0.286017,0 -0.38958,0.90234 -0.493461,4.29948 -0.07231,2.36471 -0.08098,4.38877 -0.01926,4.49791 0.06171,0.10914 0.283768,0.19844 0.493461,0.19844 0.288798,0 0.38126,-0.37788 0.38126,-1.55819 z m 11.521231,-0.3905 c -0.154644,-1.65026 -0.117965,-1.97349 0.239498,-2.11066 0.594773,-0.22824 1.404887,0.67342 1.615967,1.79856 0.09737,0.51904 0.282606,1.00896 0.41163,1.0887 0.129024,0.0797 0.234591,0.37609 0.234591,0.65854 0,0.34586 0.182038,0.51355 0.557474,0.51355 0.336031,0 0.507989,-0.13137 0.432898,-0.33073 -0.06852,-0.1819 -0.396206,-1.07855 -0.7282,-1.99255 l -0.603625,-1.66183 0.633746,-0.6746 c 0.494434,-0.52629 0.633748,-0.96585 0.633748,-1.99956 0,-1.79421 -0.650372,-2.33656 -2.801953,-2.33656 h -1.552707 l 0.05256,4.49792 c 0.04934,4.22259 0.0833,4.49791 0.554768,4.49791 0.464299,0 0.488426,-0.14711 0.319606,-1.94869 z m 0.120436,-4.66589 c 0,-1.56828 0.0091,-1.5875 0.752742,-1.5875 1.329341,0 2.036191,1.38969 1.354616,2.66323 -0.189886,0.3548 -0.555069,0.51177 -1.190625,0.51177 h -0.91673 z m 10.848244,5.81944 c 0.137004,-0.58036 0.29672,-0.66007 1.322589,-0.66007 1.026522,0 1.185537,0.0795 1.322916,0.66146 0.100738,0.42673 0.339696,0.66146 0.673386,0.66146 0.610743,0 0.607079,-0.052 -0.260892,-3.70417 -0.345848,-1.4552 -0.729102,-3.18161 -0.851681,-3.83645 -0.174614,-0.93285 -0.346776,-1.20829 -0.795157,-1.2722 -0.625526,-0.0892 -0.714534,0.0827 -1.138516,2.19824 -0.145822,0.7276 -0.50502,2.38844 -0.798218,3.69076 -0.293198,1.30232 -0.533088,2.53144 -0.533088,2.73138 0,0.62289 0.894384,0.22548 1.058661,-0.47041 z m 0.663766,-3.37205 c 0.218776,-1.92387 0.365294,-2.44739 0.684956,-2.44739 0.311475,0 0.375901,0.21797 0.684244,2.3151 l 0.243139,1.65365 h -0.892673 -0.892669 z m 13.503139,3.51776 c 0.620099,-0.6201 0.649434,-0.7985 0.649434,-3.94955 0,-3.26799 -0.0069,-3.30557 -0.71247,-3.86054 -0.554856,-0.43645 -1.008473,-0.54313 -2.050521,-0.48222 l -1.338051,0.0782 -0.07254,4.43177 -0.07254,4.43177 h 1.473634 c 1.211818,0 1.589013,-0.11538 2.123061,-0.64943 z m -2.534689,-0.4089 c -0.005,-0.14552 -0.0091,-1.69333 -0.0091,-3.43958 0,-1.74625 0.0041,-3.29407 0.0091,-3.43959 0.01283,-0.37192 1.424765,-0.33061 1.808289,0.0529 0.512805,0.5128 0.429858,6.14693 -0.09827,6.67506 -0.459401,0.4594 -1.695619,0.5687 -1.710015,0.15119 z m 14.296622,0.66146 c 0,-0.30468 -0.338079,-0.39688 -1.455208,-0.39688 -1.010515,0 -1.455208,-0.10411 -1.455208,-0.34071 0,-0.18739 0.426101,-1.34825 0.946891,-2.57969 0.520787,-1.23143 1.073845,-2.59616 1.229013,-3.03272 0.155167,-0.43657 0.397232,-0.94107 0.537919,-1.12111 0.140687,-0.18005 0.186679,-0.50747 0.102206,-0.72761 -0.203044,-0.52912 -4.248261,-0.59814 -4.074052,-0.0695 0.06354,0.1928 0.679591,0.36408 1.477256,0.4107 0.752547,0.044 1.368267,0.178 1.368267,0.29781 0,0.11981 -0.31209,0.91725 -0.693531,1.77211 -1.338842,3.00049 -2.215081,5.26285 -2.215978,5.72146 -7.94e-4,0.40246 0.275928,0.46302 2.115759,0.46302 1.705091,0 2.116666,-0.0772 2.116666,-0.39687 z m 7.9375,-4.12044 c 0,-4.15968 -0.03666,-4.51028 -0.463021,-4.42844 -0.413281,0.0793 -0.470897,0.52787 -0.536355,4.17548 -0.07863,4.38195 -0.03026,4.77027 0.594199,4.77027 0.348027,0 0.405177,-0.63717 0.405177,-4.51731 z m 19.843751,1.73919 c 0,-1.52797 0.10136,-2.77813 0.22524,-2.77813 0.12388,0 0.69153,1.22039 1.26144,2.71198 0.83259,2.17907 1.13927,2.71198 1.5607,2.71198 0.49918,0 0.528,-0.21394 0.59704,-4.43177 0.0703,-4.29692 0.0562,-4.43177 -0.46302,-4.43177 -0.50541,0 -0.53556,0.16474 -0.53556,2.92603 0,1.63595 -0.10353,2.86205 -0.23481,2.78091 -0.12915,-0.0798 -0.68278,-1.40247 -1.2303,-2.93923 -0.8682,-2.43684 -1.06654,-2.78397 -1.55113,-2.71477 -0.53339,0.0762 -0.55858,0.24317 -0.62897,4.16928 -0.0786,4.38536 -0.0303,4.77361 0.59419,4.77361 0.33813,0 0.40518,-0.45976 0.40518,-2.77812 z m 13.49375,0.7003 c 0,-1.59264 0.16052,-2.50393 0.68741,-3.90261 1.01177,-2.68585 1.07567,-3.0876 0.47295,-2.97393 -0.33799,0.0638 -0.66802,0.58478 -1.02326,1.61542 -0.28839,0.83672 -0.64421,1.48136 -0.79069,1.43253 -0.14649,-0.0488 -0.4602,-0.73415 -0.69713,-1.52295 -0.3273,-1.08962 -0.5664,-1.45449 -0.99524,-1.51873 -0.68373,-0.10241 -0.68242,-0.22075 -0.017,1.54349 0.3011,0.79831 0.71782,1.91293 0.92604,2.47693 0.20822,0.564 0.37859,1.90345 0.37859,2.97656 0,1.77472 0.0478,1.95111 0.52917,1.95111 0.48424,0 0.52916,-0.17639 0.52916,-2.07782 z"
                         id="path5448"
                         inkscape:connector-curvature="0" />
                      <path
                         style="fill:#4e4f4f;stroke-width:0.26458332"
                         d="M -66.667645,-359.78456 V -400.5304 H 36.519853 139.70735 v 40.74584 40.74583 H 36.519853 -66.667645 Z m 57.5468737,11.92829 c 0,-0.35167 -0.1785938,-0.69846 -0.396875,-0.77063 -0.3363357,-0.1112 -0.3429503,-0.0659 -0.043368,0.29709 0.4033229,0.48867 0.2058512,0.98066 -0.39361,0.98066 -0.3257527,0 -0.3878787,-0.28203 -0.3151137,-1.43056 0.04985,-0.7868 0.0013,-1.37509 -0.107804,-1.3073 -0.252074,0.15657 -0.261401,2.58671 -0.01088,2.83722 0.103154,0.10315 0.4305754,0.15276 0.7276045,0.11024 0.3733774,-0.0534 0.5400543,-0.27465 0.5400543,-0.71672 z m 14.0884802,0.24254 c 0.087979,-0.32629 0.061635,-0.33202 -0.1481323,-0.0323 -0.4394279,0.62798 -0.8434731,0.0508 -0.8434731,-1.20484 0,-1.13963 0.035885,-1.19899 0.653452,-1.08093 0.3593968,0.0687 0.5904971,0.023 0.513551,-0.10145 -0.076943,-0.1245 -0.43053,-0.22637 -0.7857437,-0.22637 -0.6137963,0 -0.6458426,0.0797 -0.6458426,1.60591 0,1.49778 0.038685,1.60021 0.5745876,1.52135 0.3160237,-0.0465 0.6227445,-0.26314 0.6816011,-0.48142 z m 13.2918431,-0.19844 c -0.0029,-0.52953 -0.06831,-0.6261 -0.240104,-0.35472 -0.129828,0.20508 -0.174799,0.5325 -0.09993,0.7276 0.214699,0.5595 0.344438,0.41723 0.340037,-0.37288 z m 12.24103,0.55238 c -0.181901,-0.0734 -0.330729,-0.32197 -0.330729,-0.55238 0,-0.23041 -0.07424,-0.34468 -0.164978,-0.25394 -0.258114,0.25811 0.110125,0.9839 0.487405,0.96066 0.265546,-0.0164 0.267345,-0.0498 0.0083,-0.15434 z m 21.019291,-0.81193 c -0.06708,-0.25743 -0.126381,-0.11087 -0.131773,0.3257 -0.0054,0.43656 0.04949,0.64718 0.12197,0.46805 0.07248,-0.17913 0.07689,-0.53632 0.0098,-0.79375 z m 21.517462,-0.66601 -0.12731,-1.65413 -0.08695,1.2893 c -0.07639,1.13258 0.04066,2.01701 0.267124,2.01848 0.04095,2.6e-4 0.01714,-0.74388 -0.05286,-1.65365 z m 14.547101,1.54918 c 0,-0.0572 -0.184777,-0.17489 -0.410618,-0.26155 -0.235458,-0.0904 -0.341662,-0.046 -0.248967,0.10398 0.155379,0.25141 0.659585,0.37186 0.659585,0.15757 z m -111.875328,-1.60547 c -0.01739,-0.86628 0.07945,-1.20096 0.347496,-1.20096 0.545425,0 0.759494,0.49629 0.400597,0.92873 -0.171807,0.20702 -0.267652,0.51056 -0.212989,0.67455 0.05466,0.16399 0.260334,-0.003 0.457046,-0.37013 0.467929,-0.87433 0.205539,-1.49774 -0.630393,-1.49774 -0.637831,0 -0.669761,0.0715 -0.669761,1.49931 0,0.82462 0.07472,1.42458 0.166055,1.33325 0.09133,-0.0913 0.155207,-0.70649 0.141949,-1.36701 z m 7.483036,0.90436 c -0.577377,-0.20967 -0.991685,-0.0673 -0.783635,0.26937 0.07528,0.12181 0.398269,0.15311 0.717751,0.0696 0.552548,-0.14449 0.555762,-0.16102 0.06588,-0.33893 z m 27.84985,-1.11313 c -0.06306,-0.32743 -0.114662,-0.0595 -0.114662,0.59531 0,0.65484 0.0516,0.92273 0.114662,0.59531 0.06307,-0.32742 0.06307,-0.8632 0,-1.19062 z m 6.427859,1.07412 c 0,-0.34777 -0.601339,-0.13 -0.733176,0.26551 -0.06445,0.19334 0.05651,0.25247 0.314193,0.15359 0.230441,-0.0884 0.418983,-0.27702 0.418983,-0.4191 z m 13.677104,-0.40763 c -0.06708,-0.25743 -0.126381,-0.11087 -0.131773,0.32569 -0.0054,0.43657 0.04949,0.64719 0.12197,0.46806 0.07248,-0.17913 0.07689,-0.53632 0.0098,-0.79375 z m 6.5553,-1.65868 c 0.198549,0 0.421053,0.14883 0.494451,0.33073 0.08427,0.20885 0.14115,0.17053 0.154339,-0.10399 0.02627,-0.54676 -0.611243,-0.81169 -1.005202,-0.41773 -0.163256,0.16325 -0.274801,0.89809 -0.247883,1.63297 l 0.04894,1.33614 0.09718,-1.38906 c 0.06643,-0.9495 0.211413,-1.38906 0.458176,-1.38906 z m 7.137977,1.5875 c 0.190341,0 0.494295,-0.1786 0.675452,-0.39688 0.207703,-0.25026 0.225438,-0.39687 0.04801,-0.39687 -0.154749,0 -0.354949,0.11906 -0.444886,0.26458 -0.297391,0.48119 -0.661458,0.27489 -0.661458,-0.37483 0,-0.35167 0.148828,-0.69946 0.330729,-0.77286 0.197575,-0.0797 0.144314,-0.14186 -0.132292,-0.15434 -0.393649,-0.0178 -0.457623,0.20705 -0.426989,1.50047 0.01982,0.83674 0.08763,1.25346 0.150693,0.92604 0.06307,-0.32742 0.270396,-0.59531 0.46074,-0.59531 z m 0.591608,0.47956 c -0.08446,-0.21107 -0.147156,-0.14838 -0.15985,0.15985 -0.01148,0.27891 0.05105,0.43518 0.138964,0.34726 0.08792,-0.0879 0.09732,-0.31612 0.02088,-0.50711 z m 7.492177,-0.0671 c 0,-0.66913 -0.389001,-1.11792 -0.630412,-0.72731 -0.19295,0.3122 0.113549,1.37315 0.396687,1.37315 0.128548,0 0.233725,-0.29063 0.233725,-0.64584 z m 14.239756,0.0712 c -0.0465,-0.31602 -0.263141,-0.63304 -0.481422,-0.70448 -0.336318,-0.11008 -0.342935,-0.0645 -0.04337,0.29841 0.194429,0.23557 0.276698,0.55259 0.182821,0.70449 -0.09388,0.15189 -0.03631,0.27617 0.127916,0.27617 0.164232,0 0.260554,-0.25856 0.214053,-0.57459 z m 13.759455,0.36922 c 0.238551,0.23855 0.311206,0.2134 0.311206,-0.10774 0,-0.23677 -0.287634,-0.47393 -0.661459,-0.5454 -0.525758,-0.1005 -0.661458,-0.0188 -0.661458,0.39843 0,0.40551 0.07966,0.45877 0.350253,0.23419 0.255772,-0.21227 0.434202,-0.20674 0.661458,0.0205 z m 6.68515,-1.22435 c -0.711557,-0.75742 -0.723429,-1.32237 -0.02394,-1.13945 0.291041,0.0761 0.529166,0.0222 0.529166,-0.11983 0,-0.44492 -1.180766,-0.1125 -1.270336,0.35763 -0.04681,0.24571 0.16033,0.6922 0.46032,0.99219 0.299987,0.29999 0.559244,0.75379 0.576125,1.00845 0.0276,0.41634 0.04335,0.41396 0.156239,-0.0236 0.07038,-0.2728 -0.117491,-0.74532 -0.42757,-1.07538 z m 7.565128,0.85095 c -0.08446,-0.21107 -0.147156,-0.14838 -0.15985,0.15985 -0.01148,0.27891 0.05105,0.43518 0.138964,0.34726 0.08792,-0.0879 0.09732,-0.31612 0.02088,-0.50711 z m 7.227592,0.0172 c 0,-0.43979 -0.077,-0.49766 -0.35507,-0.26688 -0.19529,0.16208 -0.4255,0.22426 -0.51157,0.13819 -0.0861,-0.0861 -0.31324,-0.0578 -0.50482,0.0628 -0.24478,0.15413 -0.11238,0.27068 0.44542,0.39207 0.43656,0.095 0.82352,0.18683 0.8599,0.20405 0.0364,0.0172 0.0661,-0.2214 0.0661,-0.53026 z m -43.391664,0.1803 c 0,-0.0642 -0.119062,-0.19026 -0.264583,-0.2802 -0.145521,-0.0899 -0.264584,-0.0374 -0.264584,0.11668 0,0.15411 0.119063,0.2802 0.264584,0.2802 0.145521,0 0.264583,-0.0525 0.264583,-0.11668 z m 1.241687,-1.39964 c -0.06708,-0.25743 -0.126381,-0.11087 -0.131773,0.32569 -0.0054,0.43657 0.04949,0.64719 0.12197,0.46806 0.07247,-0.17913 0.07688,-0.53632 0.0098,-0.79375 z m -63.0579227,0.32721 c -0.083442,-0.21744 -0.2582995,-0.32948 -0.3885698,-0.24897 -0.3735731,0.23088 -0.2762223,0.64433 0.1517121,0.64433 0.2360295,0 0.329012,-0.15521 0.2368577,-0.39536 z m 32.8928087,-0.18342 c -0.08446,-0.21106 -0.147156,-0.14837 -0.15985,0.15986 -0.01148,0.27891 0.05105,0.43518 0.138964,0.34726 0.08792,-0.0879 0.09732,-0.31612 0.02088,-0.50712 z m 64.642176,0.0172 c 0,-0.46733 -0.06611,-0.5067 -0.393961,-0.23461 -0.398196,0.33048 -0.313386,0.79617 0.144994,0.79617 0.136932,0 0.248967,-0.25271 0.248967,-0.56156 z m -76.93731,-0.49678 c -0.06407,-0.43656 -0.222046,-0.79375 -0.351052,-0.79375 -0.362826,0 -0.2769,1.26174 0.09618,1.41228 0.181901,0.0734 0.339873,0.14285 0.351052,0.15434 0.01117,0.0115 -0.0321,-0.3363 -0.09618,-0.77287 z m 34.330018,0.46303 c -0.0052,-0.18191 -0.179531,-0.62839 -0.387499,-0.99219 l -0.378124,-0.66146 -0.0094,0.99219 c -0.0067,0.70972 0.103608,0.99218 0.387498,0.99218 0.218282,0 0.392655,-0.14882 0.387499,-0.33072 z m 28.848959,-0.44741 c 0,-0.28245 -0.119904,-0.58766 -0.266451,-0.67823 -0.323099,-0.19968 -0.64284,0.5262 -0.402839,0.91453 0.280049,0.45313 0.66929,0.3157 0.66929,-0.2363 z m 21.166668,0.27061 c 0,-0.51669 -0.33116,-1.07006 -0.55689,-0.93055 -0.39286,0.2428 -0.26595,1.17349 0.16001,1.17349 0.21828,0 0.39688,-0.10932 0.39688,-0.24294 z m -132.556249,-0.97599 c 0,-0.0572 -0.245153,-0.10399 -0.544783,-0.10399 -0.29963,0 -0.474411,0.11387 -0.3884,0.25303 0.141184,0.22845 0.933183,0.10195 0.933183,-0.14904 z m 21.2989577,0.1606 c -0.089937,-0.14552 -0.282583,-0.26459 -0.4281038,-0.26459 -0.1455208,0 -0.191,0.11907 -0.1010629,0.26459 0.089937,0.14552 0.282583,0.26458 0.4281038,0.26458 0.1455208,0 0.191,-0.11906 0.1010629,-0.26458 z m 6.2177082,0 c 0,-0.14552 -0.052504,-0.26459 -0.1166759,-0.26459 -0.064172,0 -0.1902619,0.11907 -0.2801991,0.26459 -0.089937,0.14552 -0.037433,0.26458 0.116676,0.26458 0.1541092,0 0.280199,-0.11906 0.280199,-0.26458 z m 33.2052081,0 c 0.08994,-0.14552 0.03743,-0.26459 -0.116676,-0.26459 -0.154109,0 -0.280199,0.11907 -0.280199,0.26459 0,0.14552 0.0525,0.26458 0.116676,0.26458 0.06417,0 0.190262,-0.11906 0.280199,-0.26458 z m 15.478125,0.14791 c 0,-0.0642 -0.119063,-0.19027 -0.264584,-0.2802 -0.145521,-0.0899 -0.264583,-0.0374 -0.264583,0.11667 0,0.15411 0.119062,0.2802 0.264583,0.2802 0.145521,0 0.264584,-0.0525 0.264584,-0.11667 z m -95.136609,-9.96328 c 0.676513,-0.804 0.688787,-0.88976 0.646938,-4.52082 -0.0334,-2.8983 -0.122981,-3.7321 -0.412904,-3.84336 -0.203636,-0.0781 -0.421859,-0.0905 -0.484941,-0.0274 -0.06308,0.0631 -0.195378,1.80486 -0.29399,3.87062 -0.184965,3.8747 -0.358413,4.42223 -1.34172,4.23549 -0.316731,-0.0602 -0.571636,-0.48749 -0.76268,-1.27862 -0.310153,-1.28436 -0.974977,-1.61916 -1.124043,-0.56605 -0.358344,2.53162 2.213735,3.9836 3.77334,2.13012 z m 11.447377,0.17952 0.742358,-0.64001 -0.02795,-3.50798 c -0.02763,-3.46788 -0.03612,-3.515 -0.74236,-4.12249 -0.907841,-0.78089 -2.045954,-0.7839 -2.948226,-0.008 -0.685239,0.58942 -0.707929,0.7034 -0.796509,4.00109 l -0.09118,3.3944 0.761405,0.7614 c 0.957971,0.95797 2.08113,1.00192 3.102461,0.12139 z m -2.41764,-1.00636 c -0.303014,-0.43261 -0.411877,-1.25623 -0.411877,-3.11612 0,-1.8599 0.108863,-2.68352 0.411877,-3.11613 0.544904,-0.77796 1.325073,-0.74514 1.864709,0.0784 0.369308,0.56363 0.407281,1.08424 0.246054,3.37344 -0.104854,1.48882 -0.313205,2.85577 -0.462999,3.03767 -0.421762,0.51217 -1.193178,0.3917 -1.647764,-0.25731 z m 21.481573,1.35261 c 0.47249,-0.15175 1.038037,-0.5314 1.256771,-0.84369 0.521959,-0.7452 0.507156,-2.29269 -0.02925,-3.05853 -0.394727,-0.56355 -0.391906,-0.67463 0.03738,-1.47177 0.581821,-1.08038 0.354909,-2.60786 -0.473617,-3.18818 -0.36362,-0.25469 -1.170141,-0.40448 -2.177855,-0.40448 h -1.60038 l -0.0724,4.40883 c -0.04957,3.01903 0.02024,4.46608 0.221456,4.59044 0.46268,0.28595 1.897283,0.26946 2.837892,-0.0326 z m -1.654331,-0.98656 c -0.07193,-0.0719 -0.130786,-0.82532 -0.130786,-1.67419 0,-1.46339 0.03375,-1.5434 0.65115,-1.5434 0.676122,0 1.7301,0.90932 1.7301,1.49265 0,0.83236 -0.624949,1.63635 -1.355273,1.74354 -0.420423,0.0617 -0.823259,0.0533 -0.895191,-0.0186 z m -0.171397,-5.33584 c -0.115263,-1.66517 -0.04889,-1.85145 0.657971,-1.84645 0.721905,0.005 1.075044,0.23996 1.459735,0.97081 0.564785,1.07301 -0.226224,2.20014 -1.544031,2.20014 -0.389869,0 -0.499515,-0.25315 -0.573675,-1.3245 z m 12.4231107,6.29866 c 0.192352,-0.19235 0.3175,-1.12621 0.3175,-2.36921 0,-1.55889 0.1630521,-2.48359 0.6788097,-3.84969 1.0788967,-2.85768 1.0691018,-2.78273 0.3503136,-2.68111 -0.5134213,0.0726 -0.7239027,0.37897 -1.1199204,1.63019 -0.2682214,0.84744 -0.5558208,1.47265 -0.6391116,1.38936 -0.083291,-0.0833 -0.4000553,-0.7751 -0.7039213,-1.53736 -0.3262974,-0.81852 -0.7416507,-1.42236 -1.0145367,-1.47491 -0.633524,-0.12201 -0.584922,0.27769 0.3317,2.72794 0.6230567,1.66551 0.7920355,2.54433 0.7927896,4.12309 0.00106,2.33572 0.2359474,2.81213 1.0063771,2.0417 z m 13.2473909,-0.0376 c 0.4422405,-0.53287 0.092723,-0.70326 -1.4425638,-0.70326 -0.7639844,0 -1.42875,-0.11835 -1.4772587,-0.263 -0.048506,-0.14465 -0.047784,-0.84649 0.00159,-1.55964 0.082375,-1.18939 0.1863222,-1.36595 1.2567708,-2.13469 1.1377533,-0.81707 1.5317655,-1.59892 0.8057753,-1.59892 -0.1986571,0 -0.6639216,0.23813 -1.0339202,0.52917 -0.3699986,0.29104 -0.7432437,0.52917 -0.8294317,0.52917 -0.086167,0 -0.1566836,-0.82352 -0.1566836,-1.83004 0,-1.81943 -0.2086795,-2.22727 -0.9921875,-1.93914 -0.2314628,0.0851 -0.33072917,0.84471 -0.33072917,2.53077 0,2.29167 -0.0343376,2.43653 -0.70413826,2.97061 -0.77359139,0.61684 -0.64284489,1.30548 0.19723893,1.03885 0.45319421,-0.14384 0.50689933,-0.0212 0.50689933,1.15782 0,0.80739 0.1282356,1.37044 0.33072917,1.45215 0.7426986,0.29968 3.5794023,0.16778 3.8679119,-0.17985 z m 18.5830264,-0.42547 0.780547,-0.78055 -0.07329,-3.91581 c -0.06124,-3.27175 -0.13857,-3.9158 -0.47017,-3.9158 -0.32776,0 -0.419912,0.64973 -0.529166,3.73094 -0.136182,3.8406 -0.352002,4.60343 -1.302396,4.60343 -0.93545,0 -1.078854,-0.54927 -1.078854,-4.13232 0,-3.69045 -0.100688,-4.33434 -0.677778,-4.33434 -0.534284,0 -0.711952,1.47691 -0.606666,5.04307 0.09248,3.13236 0.111575,3.2201 0.836586,3.84373 1.029144,0.88523 2.14448,0.83436 3.121192,-0.14235 z m 9.093141,0.18523 c 0.07419,-0.32742 0.165754,-1.2408 0.203478,-2.02972 0.03772,-0.78893 0.193704,-1.47555 0.346623,-1.52584 0.152921,-0.0503 0.668562,0.75146 1.145873,1.78165 0.782193,1.68824 1.406358,2.40528 1.773844,2.03779 0.07272,-0.0727 -0.04201,-0.53391 -0.254956,-1.02487 -0.882515,-2.03469 -1.605518,-4.08744 -1.541872,-4.3777 0.03739,-0.17053 0.482015,-0.99762 0.988054,-1.83798 0.550442,-0.9141 0.823667,-1.62433 0.680107,-1.76789 -0.426932,-0.42693 -1.188167,0.2574 -2.040409,1.83428 -1.130339,2.09143 -1.452126,2.12137 -1.304785,0.12141 0.100656,-1.36625 0.04505,-1.64589 -0.371628,-1.86889 -0.370263,-0.19816 -0.52878,-0.16115 -0.648732,0.15143 -0.20792,0.54183 -0.206293,8.14069 0.0019,8.68313 0.236927,0.61742 0.867278,0.50844 1.022543,-0.1768 z m 11.384566,-1.54551 c 0,-1.79201 0.04785,-1.96705 0.557636,-2.03983 0.580252,-0.0828 0.586216,-0.0728 1.566973,2.6423 0.429583,1.18923 1.011423,1.76493 1.304502,1.29072 0.07632,-0.12349 -0.145907,-1.09773 -0.493837,-2.16498 l -0.632603,-1.94046 0.634603,-0.75418 c 0.936512,-1.11298 0.873027,-2.63252 -0.152841,-3.65839 -0.704446,-0.70445 -0.934519,-0.77899 -2.182813,-0.70726 l -1.39537,0.0802 -0.07297,4.35546 c -0.07617,4.54656 -0.01056,5.15466 0.536131,4.96895 0.224544,-0.0763 0.330589,-0.7411 0.330589,-2.07253 z m 0.132292,-4.73834 v -1.62103 l 0.85164,0.0829 c 0.605642,0.059 0.968666,0.29308 1.256771,0.81051 0.363784,0.65335 0.363784,0.80186 0,1.45521 -0.288105,0.51743 -0.651129,0.75156 -1.256771,0.81052 l -0.85164,0.0829 z m 10.908712,5.87191 c 0.216051,-0.83377 0.277929,-0.87041 1.33963,-0.79334 0.911175,0.0661 1.127999,0.18532 1.195144,0.6569 0.104347,0.73282 0.629322,1.17532 1.07073,0.90252 0.270618,-0.16726 0.177969,-0.88981 -0.44758,-3.4906 -0.433861,-1.80382 -0.862463,-3.7142 -0.952447,-4.24529 -0.08998,-0.53107 -0.339053,-1.1112 -0.553482,-1.28916 -0.623314,-0.51731 -1.074089,0.0844 -1.44358,1.92694 -0.182065,0.90791 -0.555244,2.56355 -0.829286,3.6792 -0.641271,2.61068 -0.65736,3.72952 -0.05195,3.61293 0.248272,-0.0478 0.546814,-0.47382 0.672821,-0.9601 z m 0.565862,-2.89535 c 0.549944,-3.30451 0.719166,-3.53068 1.137189,-1.51991 0.498838,2.3995 0.477558,2.5121 -0.474747,2.5121 -0.809265,0 -0.823915,-0.0219 -0.662442,-0.99219 z m 13.122777,3.51033 c 1.093846,-0.56565 1.408724,-1.79727 1.288667,-5.04053 -0.09263,-2.50242 -0.155964,-2.78272 -0.743953,-3.29268 -0.529138,-0.45892 -0.925444,-0.54373 -2.242902,-0.48002 l -1.600205,0.0774 -0.04694,4.1956 c -0.02582,2.30759 0.0167,4.36141 0.09445,4.56407 0.191188,0.49822 2.270821,0.48299 3.250877,-0.0238 z m -2.048798,-4.34885 c 0.0701,-3.43539 0.09803,-3.59677 0.635653,-3.67348 1.142323,-0.16297 1.422374,0.54898 1.417992,3.60486 -0.0021,1.55395 -0.09152,2.95775 -0.198437,3.11955 -0.106913,0.16179 -0.584568,0.35001 -1.061458,0.41825 l -0.867071,0.12407 z m 13.710568,4.60528 c 0.284879,-0.0904 0.517961,-0.33497 0.517961,-0.54344 0,-0.28306 -0.368501,-0.37905 -1.455208,-0.37905 -0.805836,0 -1.455208,-0.11956 -1.455208,-0.26792 0,-0.14736 0.654843,-1.82331 1.455208,-3.72433 0.800365,-1.90102 1.455208,-3.61319 1.455208,-3.80481 0,-0.48648 -0.408307,-0.57352 -2.38125,-0.50763 -1.326761,0.0443 -1.739341,0.1533 -1.805336,0.4769 -0.06994,0.34295 0.183425,0.41946 1.389062,0.41946 0.811033,0 1.474608,0.0505 1.474608,0.11213 0,0.0617 -0.642864,1.63925 -1.428584,3.50573 -1.383993,3.28768 -1.579586,3.86606 -1.513181,4.47466 0.03475,0.31847 2.916603,0.50177 3.74672,0.2383 z m 8.32317,-4.6487 c 0,-3.91976 -0.05929,-4.60816 -0.396875,-4.60816 -0.333751,0 -0.408483,0.69276 -0.469845,4.35546 -0.07616,4.5461 -0.01066,5.15332 0.536131,4.97105 0.247525,-0.0825 0.330589,-1.26805 0.330589,-4.71835 z m 11.163892,4.14599 0.742357,-0.63854 v -3.4854 -3.48541 l -0.742357,-0.63854 c -0.80841,-0.69537 -1.744414,-0.81226 -2.648474,-0.33075 -1.108887,0.59059 -1.2222,1.00791 -1.230963,4.53347 -0.0083,3.32664 0.0039,3.39746 0.691679,4.0349 0.921382,0.85391 2.202177,0.85804 3.187758,0.0103 z m -2.555626,-0.93155 c -0.150641,-0.28148 -0.273892,-1.71805 -0.273892,-3.19239 0,-2.97442 0.234561,-3.70417 1.190625,-3.70417 0.969206,0 1.190625,0.7331 1.190625,3.94204 0,2.61465 -0.05328,2.94702 -0.511773,3.1924 -0.767146,0.41056 -1.290288,0.33257 -1.595585,-0.23788 z m 11.253003,1.27718 c 0.0996,-0.16111 0.16039,-1.40069 0.13515,-2.75463 -0.0441,-2.3635 0.27682,-3.45015 0.64427,-2.18181 0.0955,0.32954 0.53362,1.57362 0.97367,2.76463 0.75801,2.05158 1.34317,2.76408 1.85212,2.25513 0.12482,-0.12482 0.1942,-2.24208 0.15419,-4.70502 -0.0613,-3.77179 -0.13535,-4.47808 -0.46963,-4.47808 -0.32206,0 -0.41109,0.51123 -0.47227,2.71198 -0.0415,1.49158 -0.16984,2.71198 -0.28526,2.71198 -0.11542,0 -0.59277,-1.0418 -1.06079,-2.31511 -1.08042,-2.93946 -1.17753,-3.10885 -1.78239,-3.10885 -0.4675,0 -0.50512,0.28578 -0.5733,4.35546 -0.0401,2.39551 -0.0141,4.50887 0.0578,4.69636 0.16051,0.41826 0.5824,0.44275 0.8264,0.048 z m 13.60852,-1.97122 c 0,-1.55117 0.18391,-2.451 0.91209,-4.46261 0.50165,-1.38582 0.81004,-2.58274 0.68533,-2.65982 -0.53431,-0.33022 -1.09816,0.27989 -1.48342,1.60514 -0.22731,0.78191 -0.51341,1.48353 -0.63579,1.55917 -0.12237,0.0756 -0.42807,-0.51606 -0.67933,-1.31486 -0.50587,-1.60832 -1.0313,-2.24253 -1.48335,-1.79049 -0.19801,0.19801 2.6e-4,1.03124 0.67267,2.82605 0.75239,2.00846 0.95347,2.92522 0.95347,4.34701 0,1.91766 0.0988,2.20158 0.68733,1.97573 0.27167,-0.10426 0.371,-0.66254 0.371,-2.08532 z"
                         id="path5446"
                         inkscape:connector-curvature="0" />
                      <path
                         style="fill:#2e2e2e;stroke-width:0.26458332"
                         d="M -66.667645,-359.78456 V -400.5304 H 36.519853 139.70735 v 40.74584 40.74583 H 36.519853 -66.667645 Z m 148.155454,12.89843 c -0.01818,-1.3932 -0.624277,-3.63706 -0.926069,-3.42834 -0.340106,0.23522 -1.029734,2.93859 -0.806561,3.16176 0.09084,0.0908 0.306049,0.0243 0.478251,-0.14793 0.510278,-0.51028 0.736422,-0.36268 0.736422,0.48066 0,0.43656 0.119063,0.79375 0.264584,0.79375 0.145521,0 0.259537,-0.38695 0.253373,-0.8599 z m -90.585088,-0.59472 c 0.1920558,-0.76521 -0.04086,-1.55805 -0.3936603,-1.34001 -0.132887,0.0821 -0.1752044,0.40327 -0.094038,0.71365 0.1061826,0.40604 0.043556,0.53012 -0.2232766,0.44238 -0.4619681,-0.15191 -0.6459141,-1.76405 -0.2468141,-2.16315 0.216776,-0.21677 0.3582196,-0.19237 0.5340537,0.0921 0.3033898,0.4909 0.6524519,0.17041 0.4341125,-0.39857 -0.099761,-0.25997 -0.3969914,-0.39373 -0.7602908,-0.34214 -0.5005944,0.0711 -0.6099284,0.27271 -0.6800484,1.25411 -0.04595,0.64317 -0.01392,1.44684 0.07119,1.78593 0.214125,0.85315 1.1411168,0.8229 1.3587762,-0.0443 z m 7.2525492,0.39628 c 0,-0.14552 -0.1823296,-0.26458 -0.4051776,-0.26458 -0.5505714,0 -0.8185891,-0.79257 -0.3631935,-1.07402 0.2923407,-0.18067 0.3001909,-0.29374 0.038555,-0.55538 -0.5015045,-0.5015 -0.3919458,-1.01643 0.2162651,-1.01643 0.29963,0 0.4803934,-0.10418 0.4016983,-0.23151 -0.078692,-0.12733 -0.4429072,-0.23151 -0.809363,-0.23151 -0.6404425,0 -0.6662843,0.0637 -0.6662843,1.64262 0,0.90344 0.079375,1.722 0.1763897,1.81901 0.2769791,0.27698 1.4111102,0.2061 1.4111103,-0.0882 z m 6.8613416,-0.11081 c 0.1794722,-0.21625 0.2773336,-0.97338 0.2308331,-1.78594 -0.078142,-1.36553 -0.1054894,-1.41054 -0.857115,-1.41054 -0.6879696,0 -0.7882176,0.10351 -0.8801735,0.90877 -0.1673252,1.46526 0.1520825,2.66311 0.7101231,2.66311 0.2666286,0 0.6249776,-0.16893 0.7963323,-0.3754 z m -0.6536319,-0.44081 c -0.3729461,-0.50854 -0.4461537,-1.61142 -0.1385015,-2.08655 0.3989758,-0.61616 0.5834857,-0.16943 0.4948873,1.19821 -0.061476,0.94898 -0.1500346,1.16972 -0.3563858,0.88834 z m 13.8808381,-0.90358 c -0.357513,-1.91782 -0.462598,-2.137 -0.842457,-1.75714 -0.494009,0.49401 -0.973942,3.21234 -0.567153,3.21234 0.179829,0 0.392797,-0.14882 0.47326,-0.33072 0.106857,-0.24158 0.236014,-0.20788 0.479121,0.12501 0.528259,0.72334 0.724847,0.18611 0.457229,-1.24949 z m 13.248952,0.49677 c 0,-0.3948 -0.154438,-0.62907 -0.414706,-0.62907 -0.294298,0 -0.365939,0.15364 -0.246753,0.52917 0.119187,0.37553 0.04755,0.52917 -0.246753,0.52917 -0.315113,0 -0.414705,-0.28593 -0.414705,-1.19063 0,-0.85081 0.106976,-1.19062 0.374827,-1.19062 0.206153,0 0.422482,0.14296 0.480724,0.3177 0.08211,0.24632 0.149853,0.24658 0.301551,10e-4 0.122262,-0.19781 -0.06518,-0.43541 -0.499673,-0.63338 -0.900877,-0.41047 -1.177028,-0.0106 -1.182545,1.71215 -0.0034,1.07088 0.08742,1.29996 0.591262,1.49088 0.746339,0.28282 1.256771,-0.0975 1.256771,-0.93649 z m 20.363796,-0.36448 c 0.122065,0 0.349567,0.36612 0.505558,0.81359 0.422598,1.21227 0.826479,0.68539 0.826479,-1.07818 0,-1.65153 -0.397441,-2.33674 -0.686761,-1.18401 l -0.173103,0.68971 -0.297672,-0.59707 c -0.460444,-0.92356 -0.826665,-0.49963 -0.828533,0.95908 -0.0021,1.60236 0.233964,2.45181 0.349187,1.25677 0.0456,-0.47294 0.182779,-0.85989 0.304845,-0.85989 z m 8.194143,1.21118 c 0.457687,-0.55148 0.248468,-2.81464 -0.291491,-3.15311 -0.738416,-0.46288 -1.278949,0.23736 -1.278949,1.65682 0,1.66245 0.799971,2.42465 1.57044,1.49629 z m -0.869561,-0.5424 c -0.309147,-0.80563 -0.200028,-2.30967 0.159017,-2.19181 0.409747,0.13451 0.581181,1.62345 0.254196,2.20775 -0.221647,0.39606 -0.255617,0.39475 -0.413213,-0.0159 z m 7.977455,0.60122 c 0.513976,-0.51398 0.36618,-1.22591 -0.352216,-1.69662 -0.759336,-0.49753 -1.29816,-0.24129 -0.58664,0.27898 0.702993,0.51404 0.608465,1.28177 -0.132707,1.07781 -0.578556,-0.15921 -0.580856,-0.15227 -0.08172,0.24675 0.617808,0.49389 0.742416,0.50395 1.153285,0.0931 z m 6.932083,0.0812 c 0,-0.12995 -0.178594,-0.30481 -0.396875,-0.38857 -0.279149,-0.10712 -0.396875,-0.54255 -0.396875,-1.4679 0,-0.72358 -0.119063,-1.38919 -0.264584,-1.47913 -0.296449,-0.18321 -0.381777,3.10191 -0.08819,3.39549 0.260569,0.26057 1.146527,0.21429 1.146527,-0.0599 z m 13.97,-0.0812 c 0.494657,-0.49466 0.37711,-1.12176 -0.335804,-1.79151 -0.675214,-0.63433 -0.655447,-1.33861 0.0218,-0.77655 0.523095,0.43412 0.70172,0.1723 0.277887,-0.40733 -0.242721,-0.33194 -0.522335,-0.42085 -0.923309,-0.29358 -0.755144,0.23967 -0.727252,0.81578 0.08631,1.78264 0.811207,0.96406 0.858988,1.39899 0.10963,0.99795 -0.679678,-0.36375 -0.962922,-0.14094 -0.511813,0.40261 0.402632,0.48514 0.846108,0.51497 1.275308,0.0858 z m -118.744999,-1.5502 c 0,-0.74372 0.120796,-1.3073 0.280199,-1.3073 0.15411,0 0.206613,-0.11906 0.116676,-0.26459 -0.08994,-0.14552 -0.408506,-0.26458 -0.707932,-0.26458 -0.435454,0 -0.512482,0.11914 -0.384874,0.59531 0.08775,0.32743 0.161166,1.10836 0.163153,1.73541 0.0021,0.6919 0.107625,1.07581 0.268195,0.97657 0.145521,-0.0899 0.264583,-0.75181 0.264583,-1.47082 z m 6.631356,0.7276 0.01677,-0.57969 0.229272,0.56823 c 0.437401,1.08409 0.683707,0.84092 0.726906,-0.71765 0.04064,-1.46614 0.0011,-1.57726 -0.617763,-1.73256 -0.363651,-0.0913 -0.707929,-0.1192 -0.765063,-0.0621 -0.235424,0.23543 -0.356709,1.61289 -0.217533,2.47054 0.15915,0.98072 0.599498,1.01806 0.627412,0.0532 z m -0.173078,-1.34061 c -0.224157,-0.58415 0.07406,-0.88237 0.478216,-0.47821 0.238628,0.23862 0.239644,0.38653 0.0043,0.62191 -0.235379,0.23538 -0.350123,0.2012 -0.482478,-0.1437 z m 7.795522,1.80855 c 0.502484,0.15949 0.508188,0.11728 0.161716,-1.19613 -0.411623,-1.56039 -0.531209,-1.75204 -0.745233,-1.1943 -0.08438,0.21989 -0.03956,0.47018 0.09961,0.55619 0.335626,0.20743 0.326096,1.18348 -0.01155,1.18348 -0.14552,0 -0.264583,-0.12609 -0.264583,-0.2802 0,-0.15411 -0.119062,-0.20661 -0.264583,-0.11667 -0.145521,0.0899 -0.264584,0.46873 -0.264584,0.84176 0,0.56292 0.06532,0.62403 0.384178,0.3594 0.211299,-0.17536 0.618567,-0.24445 0.905039,-0.15353 z m 27.783636,-1.03854 c -0.0871,-2.15302 -0.489061,-2.42964 -0.493802,-0.33982 -0.0024,1.07499 0.106685,1.78593 0.274129,1.78593 0.167722,0 0.254948,-0.5742 0.219673,-1.44611 z m 27.233255,0.0201 c 0.04518,-0.71153 -0.04411,-1.41995 -0.198437,-1.57427 -0.154324,-0.15432 -0.280588,-0.51474 -0.280588,-0.80094 0,-0.47864 -0.191714,-0.55881 -0.242536,-0.10142 -0.01213,0.10914 -0.260172,0.43656 -0.551214,0.7276 -0.366347,0.36635 -0.529167,0.88195 -0.529167,1.6757 0,1.34715 0.147424,1.55038 1.048433,1.44531 0.603181,-0.0704 0.679701,-0.20967 0.753509,-1.37198 z m -1.221012,-0.0982 c 0.09902,-1.54189 0.58034,-1.6557 0.689417,-0.16302 0.0591,0.80879 -0.03016,1.13313 -0.345112,1.25399 -0.359455,0.13793 -0.41244,-0.03 -0.344305,-1.09097 z m 8.310861,0.88105 c -0.08877,-0.35371 -0.05263,-0.92919 0.08031,-1.27886 0.132946,-0.34967 0.162904,-0.75357 0.06658,-0.89756 -0.317399,-0.47445 -1.07969,-0.60376 -1.439291,-0.24416 -0.427955,0.42796 -0.600128,2.79909 -0.203247,2.79909 0.152228,0 0.280548,-0.26789 0.285157,-0.59531 0.0081,-0.57577 0.02622,-0.57142 0.551235,0.13229 0.669814,0.89778 0.86981,0.92341 0.659257,0.0845 z m -1.024255,-1.36715 c -0.211963,-0.21196 0.06545,-0.90017 0.362855,-0.90017 0.12995,0 0.236276,0.23812 0.236276,0.52916 0,0.51573 -0.280636,0.68951 -0.599131,0.37101 z m 50.76485,1.58879 c -0.394333,-1.02762 -0.448794,-1.68377 -0.181253,-2.18368 0.376182,-0.7029 -0.04022,-0.95344 -0.507384,-0.30528 -0.198535,0.27545 -0.458348,0.44064 -0.57736,0.36709 -0.119015,-0.0736 -0.224425,0.0221 -0.234246,0.2126 -0.0098,0.19049 -0.06835,0.7333 -0.130064,1.20625 -0.06171,0.47294 0.0058,0.85989 0.150148,0.85989 0.144296,0 0.2686,-0.20836 0.276233,-0.46302 0.01164,-0.38871 0.08053,-0.36748 0.429146,0.13229 0.475912,0.68225 1.016408,0.80353 0.77478,0.17386 z m 6.593798,0.16218 c 0.63265,0.52505 0.72859,0.15363 0.37195,-1.43999 -0.36127,-1.61434 -0.88718,-1.92838 -1.14206,-0.68199 -0.54239,2.65227 -0.53872,2.53884 -0.0696,2.14954 0.35342,-0.29332 0.51322,-0.29856 0.83975,-0.0276 z m -35.74719,-2.4527 c 0.12347,-0.26459 0.185208,-0.26459 0.308679,0 0.179297,0.38421 0.903994,0.44975 0.903994,0.0818 0,-0.13694 -0.127405,-0.32771 -0.283126,-0.42395 -0.155718,-0.0962 -0.364077,-0.38759 -0.463021,-0.64745 -0.150624,-0.39559 -0.254322,-0.32661 -0.637317,0.42395 -0.251582,0.49303 -0.350801,0.89641 -0.220486,0.89641 0.130316,0 0.306388,-0.14882 0.391277,-0.33072 z m -115.588842,-9.84371 c 0.63382,-0.63382 0.649433,-0.74831 0.649433,-4.7625 0,-3.93668 -0.02269,-4.11306 -0.529167,-4.11306 -0.291041,0 -0.537473,0.0298 -0.547625,0.0661 -0.01015,0.0364 -0.07971,1.79255 -0.154566,3.90261 -0.146322,4.12434 -0.359133,4.79813 -1.348255,4.26877 -0.332705,-0.17806 -0.588196,-0.678 -0.698271,-1.36637 -0.148864,-0.93095 -0.257522,-1.07364 -0.762871,-1.0018 -0.515791,0.0733 -0.577807,0.21572 -0.497274,1.14184 0.166706,1.91708 0.688925,2.50352 2.234951,2.50975 0.717034,0.003 1.189935,-0.18167 1.653645,-0.64538 z m 11.497349,0.12978 c 0.559938,-0.42994 0.681763,-0.78436 0.79375,-2.30922 0.07276,-0.99073 0.0722,-2.67551 -0.0013,-3.74395 -0.112052,-1.63003 -0.233847,-2.02384 -0.756915,-2.44739 -0.915816,-0.74159 -2.53864,-0.67162 -3.354904,0.14465 -0.621903,0.6219 -0.649433,0.79306 -0.649433,4.0376 0,3.26182 0.02506,3.41519 0.672166,4.11306 0.820119,0.88447 2.292599,0.97614 3.296584,0.20525 z m -2.51375,-1.06818 c -0.09005,-0.14571 -0.175784,-1.5918 -0.190519,-3.21354 -0.02347,-2.58341 0.0339,-2.99299 0.463267,-3.30695 0.625801,-0.4576 0.788231,-0.4504 1.296062,0.0574 0.439467,0.43947 0.529915,1.28431 0.437028,4.08215 -0.0793,2.38866 -0.184452,2.64583 -1.081802,2.64583 -0.418169,0 -0.833985,-0.11921 -0.924036,-0.26492 z m 22.453713,0.8903 c 0.553268,-0.55327 0.697537,-0.95152 0.697537,-1.92551 0,-0.67538 -0.166698,-1.46596 -0.37044,-1.75684 -0.317529,-0.45334 -0.317529,-0.60123 0,-1.03548 0.203742,-0.27863 0.37044,-1.01499 0.37044,-1.63635 0,-1.78621 -1.332277,-2.65514 -3.721941,-2.42751 l -0.908267,0.0865 -0.07297,4.35546 c -0.04013,2.39551 -0.0141,4.50887 0.05784,4.69636 0.08626,0.22478 0.662045,0.34088 1.690534,0.34088 1.332441,0 1.661369,-0.10164 2.257263,-0.69753 z m -2.742046,-2.04821 c 0,-1.6066 0.179739,-1.84995 1.180761,-1.59871 0.791348,0.19861 1.13098,1.16758 0.7707,2.1988 -0.182163,0.5214 -0.450583,0.71075 -1.096341,0.77336 l -0.85512,0.0829 z m 0.05232,-4.19709 c 0.06313,-1.09466 0.181599,-1.40591 0.562678,-1.4784 0.683588,-0.13002 1.501669,0.70358 1.501669,1.53016 0,0.90449 -0.448011,1.33483 -1.38966,1.33483 -0.743998,0 -0.753531,-0.0196 -0.674687,-1.38659 z m 12.6548165,4.42669 c 0.096888,-1.65293 0.3640719,-3.00414 0.8757364,-4.4288 0.4049686,-1.12759 0.6626198,-2.16939 0.572561,-2.31511 -0.3972825,-0.64281 -0.9359821,-0.16034 -1.4766713,1.32256 -0.5279311,1.4479 -1.0370953,2.06925 -1.0370953,1.26561 0,-0.68808 -0.8737361,-2.56261 -1.2643193,-2.71249 -0.851241,-0.32665 -0.834422,0.36463 0.06782,2.7876 0.7393255,1.98546 0.9296006,2.87892 0.9306245,4.36986 0.00132,1.97444 0.1166151,2.29383 0.7821374,2.16731 0.3209661,-0.061 0.4399942,-0.59343 0.5492036,-2.45654 z m 13.1365967,2.09257 c 0.2290339,-0.59685 -0.3722741,-0.89058 -1.8327952,-0.89529 l -1.2567708,-0.004 v -1.39816 c 0,-1.24377 0.080346,-1.44604 0.7276041,-1.83173 1.0830772,-0.64539 1.9505586,-1.53083 1.7761903,-1.81297 -0.2518119,-0.40744 -0.919353,-0.28493 -1.6683117,0.30617 l -0.7031911,0.55498 -0.1322916,-1.94404 c -0.1172872,-1.72356 -0.1923071,-1.94404 -0.6614583,-1.94404 -0.48719056,0 -0.53513571,0.20147 -0.6044142,2.53985 -0.0712047,2.40344 -0.11080486,2.55887 -0.73738581,2.89421 -0.7964064,0.42622 -0.73502571,1.18915 0.0932868,1.15951 0.52542016,-0.0188 0.58705485,0.10852 0.58705485,1.21267 0,0.67853 0.079375,1.31306 0.17638977,1.41008 0.0970121,0.097 1.05325069,0.17638 2.12496929,0.17638 1.5425949,0 1.9824488,-0.0883 2.1111236,-0.42357 z m 18.4860008,-0.22586 c 0.63382,-0.63382 0.649433,-0.74831 0.649433,-4.7625 0,-3.19843 -0.07649,-4.11306 -0.343958,-4.11306 -0.831221,0 -0.978959,0.64044 -0.978959,4.24377 0,3.52773 -0.01392,3.61513 -0.619678,3.89113 -1.202534,0.54791 -1.354193,0.13357 -1.496988,-4.08986 -0.124836,-3.69227 -0.162111,-3.91275 -0.661459,-3.91275 -0.505915,0 -0.529166,0.17639 -0.529166,4.01421 0,3.88444 0.02074,4.03627 0.641432,4.69636 0.874781,0.93029 2.426559,0.94549 3.339343,0.0327 z m 9.052396,-0.94054 c 0.157411,-3.33405 0.522848,-3.4376 1.631055,-0.46218 0.458571,1.23121 1.09483,2.02927 1.495325,1.87559 0.43888,-0.16841 0.485108,-0.697 0.117922,-1.34838 -0.363839,-0.64544 -1.593099,-3.80794 -1.593099,-4.09855 0,-0.13232 0.416719,-0.95161 0.926042,-1.82064 1.093761,-1.86622 1.125352,-2.08086 0.306247,-2.08086 -0.450096,0 -0.757975,0.27165 -1.124479,0.99218 -0.277577,0.54571 -0.576157,1.05172 -0.663514,1.12448 -0.08736,0.0728 -0.32548,0.42995 -0.529167,0.79375 -0.353023,0.63054 -0.376523,0.58106 -0.502629,-1.05833 -0.115331,-1.49931 -0.200133,-1.71979 -0.661458,-1.71979 -0.50478,0 -0.532529,0.20071 -0.602136,4.35546 -0.04013,2.39551 -0.01072,4.51767 0.06535,4.71591 0.07607,0.19825 0.347033,0.32076 0.602136,0.27227 0.364408,-0.0693 0.47852,-0.39955 0.532408,-1.54091 z m 11.440787,-0.52918 c 0.100459,-1.50501 0.225652,-1.98189 0.520297,-1.98189 0.35246,0 0.610325,0.51929 1.609493,3.24115 0.202993,0.55298 0.493072,0.85989 0.812725,0.85989 0.630714,0 0.62352,-0.23129 -0.07463,-2.39897 l -0.571693,-1.77505 0.571693,-0.72679 c 0.844209,-1.07324 0.798314,-3.0987 -0.09035,-3.98736 -0.587515,-0.58752 -0.848125,-0.65318 -2.315104,-0.58329 l -1.653061,0.0788 -0.0263,4.23333 c -0.02975,4.78908 0.02506,5.22344 0.644218,5.10578 0.349396,-0.0664 0.467754,-0.49327 0.572707,-2.06556 z m 0.004,-4.42928 c 0.0052,-1.6043 0.268176,-2.03448 1.087395,-1.77859 0.799264,0.24965 1.016122,0.58802 1.02117,1.59338 0.005,1.00288 -0.412692,1.44198 -1.371783,1.44198 -0.70798,0 -0.740653,-0.0557 -0.736782,-1.25677 z m 10.790951,6.23093 c 0.174625,-0.17462 0.3175,-0.59134 0.3175,-0.92604 0,-0.5342 0.130088,-0.60854 1.064948,-0.60854 0.978199,0 1.078249,0.0665 1.228246,0.81649 0.175649,0.87824 0.746967,1.27627 1.192467,0.83077 0.190399,-0.1904 0.05173,-1.28052 -0.450419,-3.54086 -1.202301,-5.41198 -1.284944,-5.64702 -1.985595,-5.64702 -0.677844,0 -0.781505,0.24605 -1.449107,3.43958 -0.212944,1.01865 -0.567782,2.66646 -0.788524,3.6618 -0.220742,0.99535 -0.334378,1.91808 -0.252526,2.05053 0.208113,0.33673 0.746336,0.29997 1.12301,-0.0767 z m 0.816187,-2.71159 c -0.175482,-0.17548 0.374317,-3.58549 0.578091,-3.58549 0.09582,0 0.247639,0.5357 0.337381,1.19044 0.08974,0.65475 0.237897,1.48818 0.329229,1.85209 0.143184,0.57049 0.07706,0.66164 -0.479984,0.66164 -0.355322,0 -0.699447,-0.0534 -0.764717,-0.11868 z m 13.566135,2.23414 0.794951,-0.79494 -0.0877,-3.29949 c -0.07799,-2.93425 -0.149299,-3.36101 -0.644184,-3.85523 -0.60584,-0.60503 -2.319528,-0.946 -3.396284,-0.67575 l -0.677439,0.17003 v 4.44878 c 0,2.44683 0.07937,4.52815 0.17639,4.62517 0.09701,0.097 0.820547,0.17638 1.607851,0.17638 1.238219,0 1.538783,-0.10731 2.226415,-0.79495 z m -2.687738,-3.96754 v -3.43959 h 0.784441 c 1.096783,0 1.332225,0.60787 1.332225,3.43959 0,2.83171 -0.235442,3.43958 -1.332225,3.43958 h -0.784441 z m 14.370809,4.39786 c 0.227872,-0.59383 -0.377389,-0.95828 -1.591435,-0.95828 -0.82088,0 -1.137708,-0.10754 -1.137708,-0.38616 0,-0.21239 0.595313,-1.75348 1.322917,-3.42465 0.727604,-1.67116 1.322916,-3.34285 1.322916,-3.71487 0,-0.66835 -0.02487,-0.6764 -2.088359,-0.6764 -1.631637,0 -2.122376,0.0886 -2.243904,0.40534 -0.197374,0.51435 0.944478,0.98288 1.99273,0.81767 0.461391,-0.0727 0.754264,2.7e-4 0.757804,0.18913 0.0032,0.16921 -0.668163,1.87544 -1.491858,3.79164 -0.830366,1.93171 -1.426057,3.6705 -1.33699,3.9026 0.21831,0.56891 4.277579,0.61767 4.493887,0.054 z m 7.902913,-4.19943 c 0.04596,-2.51023 -0.009,-4.68045 -0.12215,-4.8227 -0.220692,-0.27745 -1.042495,0.0962 -1.005337,0.45708 0.01125,0.10914 0.02043,2.16297 0.02043,4.56406 0,4.13969 0.02648,4.36562 0.511743,4.36562 0.482931,0 0.516451,-0.25698 0.595314,-4.56406 z m 11.172542,3.75001 c 0.65256,-0.77552 0.68498,-0.9624 0.68498,-3.94844 0,-2.98605 -0.0324,-3.17293 -0.68498,-3.94845 -0.87167,-1.03593 -2.365388,-1.13208 -3.39843,-0.21874 -0.655307,0.57937 -0.674137,0.69071 -0.703173,4.15765 -0.02968,3.54425 -0.02627,3.56542 0.673339,4.16719 1.070943,0.92119 2.553221,0.83073 3.428264,-0.20921 z m -2.466263,-0.61253 c -0.203049,-0.24466 -0.280522,-1.41179 -0.230833,-3.47747 0.06205,-2.57956 0.151029,-3.15721 0.522322,-3.39094 0.342736,-0.21575 0.575074,-0.1663 0.992187,0.21119 0.485614,0.43947 0.544655,0.8019 0.544655,3.34341 0,2.2386 -0.08925,2.93977 -0.415774,3.26629 -0.513781,0.51378 -1.011692,0.53053 -1.412557,0.0475 z m 11.353333,-1.35431 0.13229,-2.64306 0.82349,2.11666 c 0.45292,1.16417 0.90963,2.3915 1.01491,2.72741 0.13571,0.43297 0.35808,0.58699 0.76401,0.52916 0.55855,-0.0796 0.57436,-0.19357 0.64501,-4.65153 0.0636,-4.01627 0.0203,-4.58994 -0.35744,-4.7349 -0.69442,-0.26648 -0.89649,0.41629 -0.91369,3.08716 l -0.0162,2.51354 -0.91199,-2.38125 c -0.50159,-1.30969 -0.91285,-2.52206 -0.91391,-2.69415 -0.002,-0.37327 -0.9435,-0.71654 -1.32248,-0.48232 -0.30279,0.18714 -0.37991,8.92843 -0.0814,9.22693 0.10204,0.10205 0.36993,0.15041 0.59531,0.10747 0.3265,-0.0622 0.43666,-0.61521 0.54207,-2.72112 z m 13.26521,2.45017 c 0.0198,-0.18191 0.07,-1.2237 0.11143,-2.31511 0.0542,-1.42684 0.30689,-2.6099 0.89939,-4.21071 0.5819,-1.57222 0.74136,-2.30897 0.54274,-2.50759 -0.46882,-0.46882 -1.1531,0.17951 -1.51736,1.43763 -0.50608,1.74795 -0.74396,1.76114 -1.29262,0.0717 -0.3918,-1.20648 -0.6277,-1.55608 -1.09473,-1.62241 -0.81126,-0.11522 -0.77503,0.42365 0.19844,2.9517 0.63696,1.65418 0.79375,2.46739 0.79375,4.11706 0,1.13064 0.0794,2.13509 0.17638,2.23211 0.30274,0.30273 1.14474,0.19284 1.18258,-0.15434 z"
                         id="path5444"
                         inkscape:connector-curvature="0" />
                      <path
                         style="fill:#000000;stroke-width:0.26458332"
                         d="M -66.667645,-359.78456 V -400.5304 H 36.519853 139.70735 v 40.74584 40.74583 H 36.519853 -66.667645 Z m 148.31604,13.73068 c 0.289838,-0.46896 -0.450646,-4.23637 -0.863822,-4.39492 -0.20169,-0.0774 -0.441368,-0.0661 -0.53262,0.0252 -0.236119,0.23612 -0.870021,3.42682 -0.712171,3.58467 0.07217,0.0722 0.35841,-0.0107 0.636088,-0.18408 0.529862,-0.3309 0.965104,-0.0233 0.661691,0.46762 -0.189087,0.30595 0.05481,0.79375 0.396875,0.79375 0.128344,0 0.314626,-0.1315 0.413959,-0.29223 z m -98.116796,-1.09683 c 0.227806,0.65127 0.600474,0.31464 0.585822,-0.52917 -0.01873,-1.07888 -0.550918,-2.64106 -0.94329,-2.76898 -0.163222,-0.0532 -0.490643,0.496 -0.727604,1.22047 -0.699199,2.13767 -0.512906,3.06052 0.446241,2.21055 0.383344,-0.33971 0.554061,-0.37522 0.638831,-0.13287 z m 14.5130198,0.33073 c 0.5688277,0 0.4487254,-0.55949 -0.1539319,-0.71709 -0.629875,-0.16472 -0.6912372,-0.56024 -0.1208696,-0.77911 0.3582961,-0.1375 0.3506258,-0.22041 -0.062632,-0.67705 -0.4464923,-0.49337 -0.4470849,-0.53782 -0.01143,-0.85638 0.7247626,-0.52996 0.5706057,-0.97576 -0.268097,-0.77529 -1.1143905,0.26636 -1.1244791,0.28501 -1.1244791,2.07869 0,1.67897 0.2250017,2.08678 1.0138277,1.83756 0.193802,-0.0612 0.5212239,-0.11133 0.7276042,-0.11133 z m 7.0699656,-0.11397 c 0.3831352,-0.29053 0.4612481,-0.66642 0.396875,-1.90981 l -0.080148,-1.5481 H 4.5052701 3.5792285 l -0.080439,1.55788 c -0.044241,0.85683 -0.018203,1.72003 0.057841,1.91823 0.1759506,0.45851 0.9410727,0.44958 1.5579539,-0.0182 z m -0.8318923,-1.92658 c -0.077893,-1.15663 0.078542,-1.09496 0.3102504,0.12232 0.090024,0.47294 0.07193,0.85989 -0.040209,0.85989 -0.112141,0 -0.2336588,-0.44199 -0.2700414,-0.98221 z m 14.3591359,1.27056 c -0.09626,-0.23135 -0.312828,-1.01595 -0.481251,-1.74355 -0.521856,-2.25446 -1.190241,-1.63934 -1.653095,1.52135 -0.113141,0.7726 -0.05688,0.99219 0.254195,0.99219 0.219724,0 0.46204,-0.14883 0.53848,-0.33073 0.09861,-0.23465 0.226516,-0.19195 0.44028,0.14696 0.242525,0.38451 0.376897,0.41495 0.688856,0.15605 0.219128,-0.18186 0.311494,-0.50445 0.212535,-0.74227 z m 12.910338,-0.30851 c 0.06433,-0.43828 0.0376,-0.84593 -0.0594,-0.90588 -0.097,-0.0599 -0.121978,-0.47948 -0.05552,-0.93231 0.1191,-0.81148 0.106109,-0.82211 -0.90401,-0.73925 l -1.024847,0.0841 v 1.57969 c 0,1.41398 0.0683,1.61374 0.651123,1.90431 0.807339,0.4025 1.232578,0.10002 1.392648,-0.99062 z m -1.382313,-0.24442 c 0,-0.14552 0.119063,-0.26458 0.264583,-0.26458 0.145521,0 0.264584,0.11906 0.264584,0.26458 0,0.14552 -0.119063,0.26458 -0.264584,0.26458 -0.14552,0 -0.264583,-0.11906 -0.264583,-0.26458 z m 0.04961,-1.07487 c 0.06367,-0.191 0.272024,-0.39935 0.463021,-0.46302 0.198438,-0.0661 0.297657,0.0331 0.231511,0.23151 -0.06367,0.191 -0.272026,0.39936 -0.463021,0.46302 -0.198438,0.0661 -0.297656,-0.0331 -0.231511,-0.23151 z m 8.197787,2.22449 c 0.57831,-0.52336 0.692896,-3.10625 0.153125,-3.45158 -0.181901,-0.11637 -0.330729,-0.38025 -0.330729,-0.58641 0,-0.79578 -0.62157,-0.52523 -1.158074,0.50407 -0.672287,1.28981 -0.726678,2.82181 -0.123835,3.48795 0.540946,0.59774 0.839427,0.60714 1.459513,0.046 z m -0.839063,-1.82669 c 0,-0.5604 0.107125,-0.87545 0.264584,-0.77814 0.14552,0.0899 0.264583,0.51369 0.264583,0.94166 0,0.42797 -0.119063,0.77813 -0.264583,0.77813 -0.145521,0 -0.264584,-0.42374 -0.264584,-0.94165 z m 14.914129,1.86481 c 0.352898,0.48262 0.368615,0.48222 0.62186,-0.0156 0.216617,-0.4258 0.249545,-1.4716 0.100577,-3.19438 -0.0372,-0.43026 -0.752864,-0.65053 -1.502381,-0.46241 -0.598102,0.15012 -0.640435,0.27836 -0.640435,1.94005 0,1.94228 0.199171,2.41217 0.720341,1.69942 0.320101,-0.43776 0.357156,-0.43602 0.700038,0.0329 z m -0.438709,-3.03982 c -0.07611,-0.29104 -0.03046,-0.52917 0.101434,-0.52917 0.131897,0 0.239813,0.23813 0.239813,0.52917 0,0.29104 -0.04565,0.52916 -0.101434,0.52916 -0.05579,0 -0.163703,-0.23812 -0.239813,-0.52916 z m 8.059476,3.0017 c 0.715412,-0.64744 0.674642,-2.83806 -0.06243,-3.35433 -0.701754,-0.49152 -1.479026,-0.2858 -1.6746,0.44323 -0.287618,1.07214 -0.16087,2.38071 0.277516,2.86513 0.540946,0.59774 0.839427,0.60714 1.459513,0.046 z m -0.767001,-1.94337 c 0,-0.65484 0.0516,-0.92273 0.114663,-0.59531 0.06307,0.32742 0.06307,0.8632 0,1.19062 -0.06306,0.32743 -0.114663,0.0595 -0.114663,-0.59531 z m 7.812522,2.06375 c 0.485102,-0.4851 0.378645,-1.48741 -0.211667,-1.99285 -0.291042,-0.2492 -0.527344,-0.57545 -0.525116,-0.72501 0.0021,-0.14956 0.109276,-0.10575 0.237882,0.0974 0.128606,0.20311 0.41739,0.29885 0.641744,0.21276 0.366315,-0.14057 0.364948,-0.26593 -0.01344,-1.22918 -0.460166,-1.17147 -0.842582,-1.36788 -1.058167,-0.54349 -0.07611,0.29105 -0.230817,0.52917 -0.343797,0.52917 -0.442499,0 -0.517305,0.90084 -0.124576,1.50022 0.377843,0.57667 0.375565,0.67039 -0.02606,1.07203 -0.410427,0.41042 -0.400281,0.47236 0.150436,0.9183 0.696127,0.56369 0.850302,0.58316 1.27276,0.1607 z m 7.026028,0.16331 c 0.477502,-0.18323 0.274543,-0.90414 -0.254545,-0.90414 -0.270359,0 -0.368567,-0.38775 -0.368567,-1.45521 0,-1.27882 -0.06414,-1.45521 -0.529167,-1.45521 -0.47317,0 -0.529166,0.17639 -0.529166,1.66688 0,2.0509 0.44672,2.62149 1.681445,2.14768 z m 13.870099,-0.25769 c 0.549455,-0.38485 0.830574,-1.43004 0.389601,-1.44852 -0.10914,-0.005 -0.431016,-0.33199 -0.715282,-0.7276 -0.427038,-0.59431 -0.436584,-0.65458 -0.05493,-0.34686 0.553442,0.44623 1.071224,0.0704 0.816727,-0.59277 -0.111988,-0.29184 -0.473078,-0.44112 -1.067007,-0.44112 -0.836972,0 -0.897734,0.0584 -0.897734,0.8624 0,0.57585 0.175824,0.9722 0.529167,1.19287 0.291042,0.18175 0.529167,0.47233 0.529167,0.64572 0,0.24271 -0.07306,0.2422 -0.3175,-0.002 -0.453803,-0.45381 -0.740834,-0.3923 -0.740834,0.15875 0,0.4551 0.465162,1.11125 0.787794,1.11125 0.08404,0 0.417415,-0.18535 0.740834,-0.41188 z m -118.635059,-0.27122 c 0.08833,-0.23018 0.1606,-0.878 0.1606,-1.43959 0,-0.56159 0.119062,-1.09466 0.264583,-1.1846 0.576765,-0.35646 0.21077,-0.66146 -0.79375,-0.66146 -0.764352,0 -1.058333,0.11025 -1.058333,0.39688 0,0.21828 0.119062,0.39687 0.264583,0.39687 0.145521,0 0.264583,0.65485 0.264583,1.45521 0,1.06746 0.09821,1.45521 0.368568,1.45521 0.202713,0 0.440838,-0.18833 0.529166,-0.41852 z m 6.5106,-0.0289 c 0,-0.39905 0.03878,-0.39441 0.358613,0.043 0.242933,0.33223 0.51793,0.4293 0.852482,0.30092 0.383575,-0.14719 0.415333,-0.23805 0.142203,-0.40685 -0.213026,-0.13166 -0.366561,-0.77797 -0.389458,-1.63941 -0.03726,-1.40198 -0.04995,-1.42325 -0.897695,-1.50499 -0.739687,-0.0713 -0.863975,0.003 -0.889076,0.52917 -0.0291,0.6103 -0.01976,2.93389 0.0123,3.05947 0.0093,0.0364 0.195477,0.0661 0.413758,0.0661 0.218281,0 0.396875,-0.20135 0.396875,-0.44745 z m 15.0283327,0.12995 c 0.174625,-0.17463 0.3175,-0.56753 0.3175,-0.87313 0,-0.30559 -0.142875,-0.6985 -0.3175,-0.87312 -0.2469436,-0.24695 -0.2469436,-0.3175 0,-0.3175 0.4485163,0 0.3950652,-0.92917 -0.075938,-1.32007 -0.2256578,-0.18727 -0.6769867,-0.25536 -1.0583337,-0.15965 -0.614217,0.15416 -0.664895,0.28347 -0.664895,1.69643 0,1.5554 0.297831,2.16454 1.0583335,2.16454 0.2328333,0 0.5662083,-0.14288 0.7408332,-0.3175 z m -1.0054167,-2.19604 c 0,-0.21828 0.1190625,-0.39688 0.2645834,-0.39688 0.1455208,0 0.2645833,0.1786 0.2645833,0.39688 0,0.21828 -0.1190625,0.39687 -0.2645833,0.39687 -0.1455209,0 -0.2645834,-0.17859 -0.2645834,-0.39687 z m 21.563541,0.64303 c 0,-1.40309 -0.07954,-1.70944 -0.46302,-1.78329 -0.395587,-0.0762 -0.463021,0.12244 -0.463021,1.3638 0,1.65874 0.197929,2.35631 0.627912,2.21299 0.179728,-0.0599 0.298129,-0.77219 0.298129,-1.7935 z m 33.129514,1.40749 c 0.208735,-0.25466 0.311843,-0.32667 0.229126,-0.16002 -0.141025,0.28413 0.593005,0.75854 0.820957,0.53059 0.217837,-0.21783 0.304866,-2.98968 0.104071,-3.31457 -0.116453,-0.18843 -0.550299,-0.30066 -0.974878,-0.25219 -0.750403,0.0857 -0.766538,0.1215 -0.843275,1.87327 -0.08171,1.86538 0.03263,2.0932 0.663999,1.32292 z m 0.07569,-2.19843 c 0,-0.15411 0.119063,-0.20661 0.264584,-0.11668 0.14552,0.0899 0.264583,0.21603 0.264583,0.2802 0,0.0642 -0.119063,0.11668 -0.264583,0.11668 -0.145521,0 -0.264584,-0.12609 -0.264584,-0.2802 z m 49.637936,2.19843 c 0.334746,-0.44098 0.351885,-0.44098 0.3599,0 0.0053,0.29248 0.214675,0.46302 0.568438,0.46302 0.466646,0 0.524984,-0.0993 0.349872,-0.59531 -0.115586,-0.32743 -0.206719,-1.16086 -0.20252,-1.85209 0.0074,-1.22257 -0.408318,-1.69012 -0.857125,-0.96394 -0.126686,0.20498 -0.246121,0.18744 -0.398106,-0.0585 -0.410141,-0.66362 -0.602295,0.22045 -0.538514,2.47763 0.03106,1.09928 0.194082,1.21941 0.718055,0.52917 z m 7.123131,0.18559 c 0.11662,-0.18869 0.29446,-0.17535 0.556,0.0417 0.28496,0.2365 0.46164,0.24202 0.68235,0.0213 0.45724,-0.45725 -0.52072,-3.48977 -1.1254,-3.48977 -0.35679,0 -0.49773,0.32765 -0.64379,1.49669 -0.10285,0.82318 -0.24837,1.65662 -0.32338,1.85208 -0.16082,0.41909 0.60045,0.48857 0.85422,0.078 z M -49.720206,-359.1735 c 0.416466,-0.24601 0.884548,-0.75471 1.040181,-1.13044 0.304237,-0.73449 0.294495,-7.4773 -0.01151,-7.97244 -0.09908,-0.16031 -0.403998,-0.24866 -0.677603,-0.19634 -0.451417,0.0863 -0.509707,0.44271 -0.629754,3.8503 -0.135715,3.85236 -0.305203,4.44067 -1.228667,4.26482 -0.351425,-0.0669 -0.528755,-0.39383 -0.623416,-1.14929 -0.114766,-0.9159 -0.228683,-1.06686 -0.859896,-1.13949 -0.701304,-0.0807 -0.727604,-0.0393 -0.727604,1.14483 0,1.0051 0.14067,1.36922 0.773397,2.00195 0.887482,0.88748 1.81977,0.99072 2.944878,0.3261 z m 12.020664,-0.1726 c 0.791504,-0.7915 0.944695,-1.5744 0.900317,-4.60112 l -0.04559,-3.10906 -0.894845,-0.89485 c -0.817028,-0.81703 -0.990145,-0.8796 -1.990748,-0.7196 -1.188329,0.19002 -2.05671,0.96105 -2.08256,1.84907 -0.0089,0.30516 -0.01495,1.90799 -0.01344,3.56185 0.0029,3.18746 0.195141,3.74326 1.48481,4.29209 0.649132,0.27624 2.211147,0.0525 2.642066,-0.37838 z m -2.500465,-1.47937 c -0.150641,-0.28148 -0.273892,-1.59899 -0.273892,-2.92781 0,-2.60501 0.256794,-3.43959 1.058333,-3.43959 0.80154,0 1.058334,0.83458 1.058334,3.43959 0,2.605 -0.256794,3.43958 -1.058334,3.43958 -0.280802,0 -0.633801,-0.2303 -0.784441,-0.51177 z m 64.019857,1.16132 c 0.647684,-0.6468 0.661459,-0.74446 0.661459,-4.68995 v -4.02939 H 23.81985 23.158392 l -0.07393,3.68643 c -0.07734,3.85653 -0.250815,4.46929 -1.225836,4.32998 -0.525097,-0.075 -0.55884,-0.27453 -0.684612,-4.04766 l -0.132292,-3.96875 h -0.79375 -0.79375 l -0.08246,3.47549 c -0.06932,2.9215 -0.0061,3.63732 0.396875,4.49073 0.846159,1.79215 2.671043,2.1314 4.051215,0.75312 z m -41.43081,-0.14069 c 0.781328,-0.92855 0.919946,-2.4369 0.304679,-3.31532 -0.333031,-0.47547 -0.325885,-0.69428 0.0575,-1.76041 0.515454,-1.43341 0.2921,-2.38257 -0.741735,-3.15208 -0.781548,-0.58172 -2.326188,-0.88375 -3.286723,-0.64267 l -0.675823,0.16962 v 4.75746 4.75745 h 1.828565 c 1.717058,0 1.870331,-0.0496 2.513541,-0.81405 z m -2.754606,-1.96407 c 0,-1.21107 0.07768,-1.45453 0.463021,-1.45116 0.860716,0.008 1.231204,0.45987 1.202619,1.46831 -0.02841,1.00229 -0.384459,1.42685 -1.202619,1.43401 -0.385339,0.003 -0.463021,-0.24009 -0.463021,-1.45116 z m -0.01908,-2.83923 c -0.0105,-0.0392 -0.04026,-0.60697 -0.06615,-1.26181 -0.03994,-1.01029 0.03308,-1.20087 0.482097,-1.25829 0.818954,-0.10471 1.278819,0.3394 1.278819,1.23501 0,0.44937 -0.04961,0.85981 -0.110242,0.9121 -0.150532,0.12981 -1.560737,0.46177 -1.584528,0.37299 z m 12.40065,3.36932 c 0.043148,-1.16366 0.1919763,-2.22927 0.3307291,-2.36802 0.1387554,-0.13875 0.2522802,-0.45178 0.2522802,-0.69561 0,-0.24383 0.3037787,-1.13022 0.6750659,-1.96977 0.7292683,-1.649 0.6969416,-2.24356 -0.1219809,-2.24356 -0.616622,0 -0.8065664,0.25366 -1.3825828,1.84643 -0.3597699,0.99482 -0.464058,1.10716 -0.6193049,0.66711 -0.1026742,-0.29104 -0.2841519,-0.76729 -0.4032806,-1.05834 -0.1191286,-0.29104 -0.2831915,-0.73752 -0.3645799,-0.99218 -0.089506,-0.28006 -0.4126341,-0.46302 -0.8177421,-0.46302 -0.891186,0 -0.869744,0.51891 0.123989,3.00064 0.6176192,1.54244 0.7937497,2.39336 0.7937497,3.83481 0,2.2688 0.1603269,2.74201 0.893572,2.63739 0.5111564,-0.0729 0.5686874,-0.2703 0.6400853,-2.19588 z m 13.3625138,1.89331 c 0.2507668,-0.65349 -0.2128705,-0.93576 -1.6727805,-1.01842 -1.3767885,-0.0779 -1.4537822,-0.12013 -1.536237,-0.84164 -0.1461002,-1.27842 0.1532388,-1.85314 1.3958623,-2.68001 1.1953769,-0.79543 1.5463388,-1.60521 0.8169989,-1.88509 -0.2131139,-0.0818 -0.7375101,0.10055 -1.1653228,0.40518 -0.4278101,0.30463 -0.8487543,0.55387 -0.9354318,0.55387 -0.086677,0 -0.1575937,-0.83344 -0.1575937,-1.85208 0,-1.77709 -0.025638,-1.85208 -0.6331506,-1.85208 -0.8370993,0 -0.98917386,0.49104 -0.9287298,2.99884 0.0374147,1.55232 -0.0452384,2.15472 -0.31826993,2.3196 -1.12441565,0.67905 -1.16883919,0.7421 -0.86135897,1.22246 0.16566092,0.2588 0.49308279,0.45402 0.72760416,0.43381 0.31360268,-0.027 0.42640514,0.19473 0.42640514,0.83825 0,1.63959 0.10635985,1.71203 2.5135416,1.71203 1.5888864,0 2.2298104,-0.0976 2.328463,-0.35472 z m 27.6521172,0.1014 c -0.08684,-0.95624 0.0975,-3.71456 0.248065,-3.71183 0.109141,0.002 0.559546,0.86519 1.0009,1.91823 0.689423,1.64493 0.903732,1.92643 1.521355,1.99835 0.896323,0.10439 0.928068,-0.31545 0.152468,-2.01646 -1.505209,-3.30116 -1.526746,-3.37799 -1.135911,-4.05164 0.744278,-1.28287 1.4263,-2.75708 1.43194,-3.09517 0.0037,-0.224 -0.250518,-0.31842 -0.712406,-0.26458 -0.554797,0.0647 -0.900954,0.4061 -1.521354,1.50059 l -0.803138,1.41688 -0.07142,-0.88771 c -0.146746,-1.82391 -0.284377,-2.07833 -1.124244,-2.07833 h -0.78871 v 4.58611 c 0,2.52236 0.07973,4.66583 0.177173,4.76328 0.205235,0.20524 1.64473,0.1364 1.625283,-0.0777 z m 11.426711,-1.7531 c 0,-2.49859 0.349827,-2.48942 1.309314,0.0343 0.462283,1.21594 0.860544,1.86832 1.177875,1.92943 0.875017,0.16851 0.931037,-0.33495 0.259154,-2.32903 -0.561419,-1.66624 -0.607348,-2.0177 -0.293886,-2.24896 0.60383,-0.44548 0.987126,-1.36543 0.987126,-2.36919 0,-1.88579 -2.18354,-3.23872 -4.349644,-2.69506 l -0.677439,0.17003 v 4.75746 4.75745 h 0.79375 0.79375 z m 0,-4.76522 c 0,-1.23639 0.06922,-1.43044 0.510267,-1.43044 0.634921,0 1.341816,0.68026 1.341816,1.29125 0,0.63706 -0.548261,1.26016 -1.256771,1.42833 -0.561377,0.13324 -0.595312,0.0598 -0.595312,-1.28914 z m 10.799344,5.91175 c 0.07499,-0.65173 0.188799,-0.7276 1.091406,-0.7276 0.907987,0 1.023393,0.0785 1.166437,0.79375 0.124889,0.62444 0.297921,0.79374 0.811207,0.79374 0.868754,0 0.945949,-0.19015 0.645372,-1.58979 -0.140361,-0.65358 -0.352121,-1.66458 -0.470577,-2.24666 -0.11846,-0.58209 -0.348716,-1.59412 -0.511683,-2.24896 -0.162968,-0.65485 -0.363617,-1.64259 -0.445887,-2.19499 -0.245329,-1.64726 -1.843262,-1.9708 -2.195568,-0.44455 -0.04959,0.21482 -0.250208,1.16449 -0.445828,2.11037 -0.19562,0.94589 -0.578961,2.76432 -0.851871,4.04096 -0.27291,1.27664 -0.43393,2.38344 -0.357822,2.45954 0.07611,0.0761 0.440486,0.10315 0.809736,0.0601 0.511579,-0.0597 0.691284,-0.25146 0.755078,-0.8059 z m 0.733785,-3.70417 c 0.159893,-1.27442 0.537456,-2.26434 0.558393,-1.46402 0.0049,0.18675 0.09778,0.90509 0.20643,1.59631 0.183997,1.17056 0.158562,1.25678 -0.370774,1.25678 -0.531333,0 -0.556979,-0.0904 -0.394049,-1.38907 z m 13.583084,3.86692 c 0.489802,-0.62268 0.547743,-1.05362 0.542486,-4.03489 -0.0049,-2.80599 -0.08197,-3.43668 -0.483487,-3.95869 -0.571476,-0.74299 -2.613467,-1.21379 -3.614216,-0.83331 l -0.658913,0.25052 v 4.63676 4.63675 h 1.83288 c 1.664951,0 1.883121,-0.0639 2.38125,-0.69714 z m -2.635753,-0.75806 c -0.005,-0.0728 -0.01397,-1.59081 -0.01987,-3.37344 -0.01042,-3.14523 0.0066,-3.24379 0.574513,-3.33044 0.321895,-0.0491 0.6862,0.07 0.80957,0.26458 0.356828,0.56295 0.284424,5.88457 -0.08509,6.25409 -0.310187,0.31019 -1.26101,0.44786 -1.279123,0.18521 z m 14.248879,0.7276 c 0.07803,-0.5494 -0.0177,-0.59531 -1.241155,-0.59531 -0.729139,0 -1.390105,-0.1042 -1.468816,-0.23156 -0.07871,-0.12736 0.379809,-1.46681 1.018931,-2.97656 2.230874,-5.26982 2.232152,-5.24703 -0.294513,-5.2545 -1.764162,-0.005 -2.729203,0.3606 -2.729203,1.03453 0,0.44583 0.209227,0.53416 1.425694,0.60186 l 1.425694,0.0793 -0.797629,1.85209 c -0.438698,1.01864 -0.966965,2.2688 -1.173927,2.77812 -0.206965,0.50932 -0.489596,1.13279 -0.628065,1.38547 -0.138473,0.25269 -0.251767,0.82287 -0.251767,1.26707 v 0.80765 l 2.315104,-0.0764 c 2.17247,-0.0717 2.320314,-0.11312 2.399652,-0.67176 z m 7.925202,-3.96875 -0.07225,-4.69635 H 88.378179 87.71672 l -0.07225,4.69635 -0.07225,4.69635 h 0.805961 0.80596 z m 11.277893,3.81806 c 0.47178,-0.63289 0.56916,-1.19457 0.6422,-3.70417 0.0796,-2.73652 0.04,-3.02601 -0.52917,-3.8638 -0.777872,-1.14501 -1.799772,-1.50818 -3.125843,-1.11088 -0.862002,0.25826 -1.035272,0.44943 -1.315945,1.45189 -0.196707,0.70258 -0.287803,2.29715 -0.232725,4.07369 0.114086,3.67975 0.38145,4.09471 2.562527,3.97708 1.228415,-0.0662 1.525498,-0.18868 1.998956,-0.82381 z m -2.894113,-0.77381 c -0.07696,-0.20054 -0.106045,-1.72656 -0.06464,-3.39115 l 0.07528,-3.02654 0.718376,-0.0828 c 0.935781,-0.10789 1.045488,0.34649 0.946272,3.91929 l -0.07715,2.77813 -0.729109,0.0839 c -0.439441,0.0506 -0.784696,-0.061 -0.869027,-0.28076 z m 11.407803,1.35502 c 0.10098,-0.16339 0.17283,-1.38378 0.15966,-2.71198 -0.0132,-1.32819 0.0327,-2.29583 0.10185,-2.15031 0.0692,0.14552 0.51273,1.33615 0.98564,2.64583 0.82096,2.27363 0.89546,2.38125 1.64838,2.38125 h 0.78855 l 0.0722,-4.69635 0.0723,-4.69635 h -0.79985 -0.79986 l -0.009,2.71197 -0.009,2.71198 -0.54485,-1.5875 c -0.70725,-2.06065 -1.48533,-3.76273 -1.81251,-3.96494 -0.14289,-0.0883 -0.50039,-0.0318 -0.79444,0.12556 -0.50389,0.26967 -0.53464,0.54176 -0.53464,4.73064 0,2.44448 0.0794,4.52388 0.17639,4.6209 0.28053,0.28052 1.09788,0.20458 1.29891,-0.1207 z m 13.63566,-2.34875 c 0.0995,-1.54313 0.32866,-2.81998 0.59369,-3.30729 0.23742,-0.43656 0.43241,-0.99508 0.43331,-1.24116 7.9e-4,-0.24607 0.12069,-0.52099 0.26621,-0.61092 0.14552,-0.0899 0.26459,-0.51369 0.26459,-0.94166 0,-0.68154 -0.0949,-0.77813 -0.76431,-0.77813 -0.66975,0 -0.78668,0.11926 -0.94516,0.96406 -0.0995,0.53023 -0.34942,1.13262 -0.55543,1.33863 -0.32303,0.32303 -0.42024,0.20379 -0.70655,-0.86671 -0.35459,-1.32578 -1.26052,-2.07235 -1.82713,-1.50574 -0.27442,0.27442 -0.0526,1.08285 1.25332,4.56767 0.19086,0.50932 0.35226,1.7694 0.35864,2.80017 0.0127,2.04381 0.11681,2.28787 0.92677,2.17193 0.48684,-0.0697 0.55602,-0.32498 0.70205,-2.59085 z"
                         id="path5442"
                         inkscape:connector-curvature="0" />
                    </g>
                  </g>
                </g>
              </g>
            </g>
          </g>
        </g>
      </g>
    </g>
  </g>
</svg>
