<?xml version="1.0" encoding="UTF-8" standalone="no"?>
<!-- Created with Inkscape (http://www.inkscape.org/) -->

<svg
   xmlns:dc="http://purl.org/dc/elements/1.1/"
   xmlns:cc="http://creativecommons.org/ns#"
   xmlns:rdf="http://www.w3.org/1999/02/22-rdf-syntax-ns#"
   xmlns:svg="http://www.w3.org/2000/svg"
   xmlns="http://www.w3.org/2000/svg"
   xmlns:sodipodi="http://sodipodi.sourceforge.net/DTD/sodipodi-0.dtd"
   xmlns:inkscape="http://www.inkscape.org/namespaces/inkscape"
   width="157.16251mm"
   height="157.16251mm"
   viewBox="0 0 157.16251 157.16251"
   version="1.1"
   id="svg8"
   inkscape:version="0.92.1 r15371"
   sodipodi:docname="logo.svg"
   inkscape:export-filename="C:\xampp\htdocs\portfolio\img\projects\logo.png"
   inkscape:export-xdpi="96"
   inkscape:export-ydpi="96">
  <defs
     id="defs2" />
  <sodipodi:namedview
     id="base"
     pagecolor="#ffffff"
     bordercolor="#666666"
     borderopacity="1.0"
     inkscape:pageopacity="0.0"
     inkscape:pageshadow="2"
     inkscape:zoom="1.0292412"
     inkscape:cx="187.73224"
     inkscape:cy="201.88997"
     inkscape:document-units="mm"
     inkscape:current-layer="g4496"
     showgrid="false"
     fit-margin-top="0"
     fit-margin-left="0"
     fit-margin-right="0"
     fit-margin-bottom="0"
     inkscape:window-width="1920"
     inkscape:window-height="1051"
     inkscape:window-x="-9"
     inkscape:window-y="-9"
     inkscape:window-maximized="1" />
  <metadata
     id="metadata5">
    <rdf:RDF>
      <cc:Work
         rdf:about="">
        <dc:format>image/svg+xml</dc:format>
        <dc:type
           rdf:resource="http://purl.org/dc/dcmitype/StillImage" />
        <dc:title />
      </cc:Work>
    </rdf:RDF>
  </metadata>
  <g
     inkscape:label="Layer 1"
     inkscape:groupmode="layer"
     id="layer1"
     transform="translate(15.322331,-0.42894328)">
    <g
       id="g4496">
      <path
         style="fill:#fcfcfc;stroke-width:0.26458335"
         d="M -15.322331,79.010198 V 0.42894328 H 63.258924 141.84018 V 79.010198 157.59145 H 63.258924 -15.322331 Z"
         id="path4512"
         inkscape:connector-curvature="0" />
      <path
         style="fill:#cfcfcf;stroke-width:0.26458335"
         d="m 58.23184,154.76021 c -11.862594,-0.9262 -22.83889,-4.41032 -32.676043,-10.3721 -3.080317,-1.86681 -3.737478,-2.31545 -6.949907,-4.74466 -8.510551,-6.43559 -16.6207641,-16.44048 -21.431848,-26.43868 -1.2234991,-2.54263 -1.3964712,-3.08564 -1.179933,-3.70417 0.5185413,-1.48118 3.83855828,-9.20337 4.09388862,-9.522171 C 0.29651205,99.718081 5.6323653,99.6477 25.162007,99.6477 c 23.25345,0 24.841701,0.02903 25.328617,0.46302 0.285721,0.25466 2.162468,4.39208 4.170553,9.19427 2.008082,4.80219 4.509103,10.75532 5.557827,13.22917 1.048724,2.47385 2.652123,6.28385 3.56311,8.46667 0.910984,2.18281 2.700515,6.46906 3.97673,9.525 1.276218,3.05593 2.988479,7.15706 3.805029,9.11361 0.816549,1.95654 1.484635,3.70852 1.484635,3.89329 0,0.18477 -0.208359,0.44664 -0.463021,0.58194 -1.110745,0.59013 -9.963807,0.98829 -14.353647,0.64554 z m 34.921415,-11.12553 c -0.761289,-1.85539 -2.806319,-6.76672 -4.544513,-10.91406 -1.738193,-4.14735 -3.57723,-8.55266 -4.086752,-9.78959 -0.509521,-1.23692 -1.387014,-3.32052 -1.949982,-4.6302 -0.562967,-1.30969 -2.035683,-4.82204 -3.2727,-7.80521 C 76.96227,104.85965 72.081712,93.137981 70.541213,89.461241 70.053446,88.297074 68.68533,85.022855 67.500957,82.185198 66.316587,79.347542 64.944024,76.073323 64.450819,74.909156 63.581295,72.856717 61.984794,69.03072 59.2618,62.473739 58.536614,60.727489 57.714223,58.762957 57.434262,58.108114 57.154303,57.45327 55.3865,53.226551 53.505816,48.715405 51.625131,44.204259 48.746191,37.298633 47.108172,33.36957 45.470155,29.440508 43.031746,23.606445 41.689489,20.404986 36.571756,8.1985275 36.911489,9.1331793 37.449376,8.7398659 37.712751,8.547282 39.192565,7.9790726 40.737851,7.4771784 50.738181,4.2291685 61.861003,3.1993281 72.254758,4.5590888 91.819593,7.1186544 109.55849,17.537032 121.30905,33.36957 c 8.4992,11.45171 13.25755,23.610297 14.85408,37.955292 0.58808,5.284004 0.41415,14.318877 -0.37515,19.487574 -1.94742,12.752464 -6.85337,24.477564 -14.54593,34.764434 -5.96821,7.98097 -13.5553,14.64663 -22.656103,19.90456 -3.83091,2.21328 -3.756422,2.2386 -5.432692,-1.84675 z m -99.5604717,-39.013 C -7.0368526,102.94495 -8.3436337,98.270496 -8.9442144,95.546658 -10.452649,88.705392 -10.982671,78.158449 -10.169297,71.168665 -9.0094826,61.201723 -6.518093,52.908328 -2.0729864,44.217488 3.8779811,32.582467 12.332966,23.148472 23.336064,15.866304 c 3.651343,-2.416563 9.6822,-5.647777 10.541223,-5.647777 0.860118,0 0.688419,0.73543 -1.285362,5.505519 -1.005078,2.428996 -2.444213,5.904638 -3.19808,7.723649 -0.753866,1.81901 -2.912586,7.057761 -4.797152,11.641667 -1.884569,4.583907 -3.717428,8.989219 -4.073018,9.789584 -0.585832,1.318594 -2.685949,6.334446 -8.197715,19.579168 -1.05977,2.546615 -3.5568207,8.49974 -5.5490035,13.229168 -1.9921829,4.729427 -4.2164455,10.027709 -4.9428061,11.773959 -0.7263607,1.74625 -1.77493363,4.246562 -2.33016232,5.55625 -0.95404288,2.250422 -1.88564478,4.478208 -3.65118008,8.731249 -0.9672207,2.32996 -1.6184368,2.5815 -2.2600247,0.87294 z m 7.8581906,-7.728981 c -0.079479,-0.207121 0.6266405,-2.202056 1.5691555,-4.433187 1.8263392,-4.323331 6.5730155,-15.58048 10.6913976,-25.355564 1.379474,-3.274219 3.215646,-7.620001 4.080381,-9.657293 0.864735,-2.037292 2.208578,-5.251979 2.986318,-7.14375 0.77774,-1.891771 1.734161,-4.153959 2.125377,-5.027084 0.391215,-0.873125 0.944139,-2.20173 1.228717,-2.952459 0.637074,-1.680612 1.157769,-2.191827 1.685718,-1.655022 0.202385,0.205783 1.334442,2.695866 2.515677,5.533523 2.646921,6.358631 3.845402,9.225352 4.645774,11.112501 0.339448,0.800364 1.263696,3.003021 2.053887,4.894792 0.790189,1.89177 2.217155,5.285052 3.171037,7.540625 0.953884,2.255573 2.143966,5.113073 2.644629,6.35 0.83887,2.072487 5.302274,12.765295 7.489667,17.942715 0.511212,1.210003 0.890844,2.400628 0.843629,2.645834 -0.07962,0.413498 -1.808117,0.450728 -23.836351,0.513389 -20.3426837,0.05787 -23.7712394,0.01352 -23.8950131,-0.30902 z"
         id="path4510"
         inkscape:connector-curvature="0" />
      <path
         style="fill:#afafaf;stroke-width:0.26458335"
         d="M 58.099549,154.50433 C 40.524946,153.04711 25.192418,146.19675 12.896208,134.30812 8.5405541,130.09684 5.6958319,126.70651 2.4187653,121.82114 c -2.34334888,-3.4934 -6.3640122,-10.89883 -6.3640122,-11.72151 0,-0.5598 3.97833765,-9.7649 4.3119127,-9.97693 0.17506263,-0.11127 11.4658272,-0.204138 25.0905892,-0.206366 19.500084,-0.0032 24.83029,0.06634 25.044815,0.326676 0.149886,0.1819 0.985027,2.05714 1.855869,4.16719 0.870842,2.11005 4.465675,10.68255 7.98852,19.05 10.374784,24.64215 12.437466,29.62019 12.437466,30.01634 0,0.20629 -0.20836,0.43923 -0.463021,0.51763 -1.656268,0.50989 -10.429127,0.8246 -14.221355,0.51016 z m 36.706405,-7.83435 C 94.517576,146.305 93.943004,144.99307 91.419811,138.93833 88.591354,132.15107 75.911289,101.76838 72.59276,93.826866 70.920517,89.825043 68.984796,85.181605 68.291159,83.508115 66.533513,79.267561 63.732335,72.569253 62.205597,68.956031 61.498476,67.282541 58.51332,60.138791 55.571912,53.08103 52.630508,46.023269 48.703024,36.617331 46.844173,32.178945 37.842378,10.685327 37.31628,9.3629427 37.620991,8.9957881 37.784024,8.7993469 39.234433,8.2128579 40.844124,7.6924793 55.86201,2.8375213 71.87897,3.0259857 86.77795,8.2329623 c 22.47275,7.8538997 40.31647,27.0628487 46.69907,50.2720267 2.04937,7.452183 2.55161,11.039531 2.72261,19.446876 0.11896,5.849131 0.0637,7.310165 -0.41546,10.980209 -3.07031,23.517266 -16.05381,43.601396 -35.883812,55.508546 -3.647858,2.1904 -4.745617,2.67079 -5.094404,2.22936 z M -6.0335525,104.99236 C -6.5002093,104.1204 -8.1473118,98.132087 -8.8278313,94.833291 -10.783695,85.352306 -10.827313,73.870865 -8.9432251,64.458114 -4.3245494,41.383578 10.362374,22.063318 31.304611,11.513152 c 2.231467,-1.124156 2.850144,-1.255228 2.850144,-0.603827 0,0.381883 -3.698316,9.481935 -10.310797,25.370662 -1.271802,3.055938 -3.475167,8.35422 -4.896369,11.773959 -2.8214,6.788944 -10.5167296,25.1466 -13.3647093,31.882294 -0.9844638,2.328333 -2.5113881,5.95974 -3.393165,8.069792 -0.8817767,2.110052 -2.55202313,6.098646 -3.7116586,8.863542 -1.1596355,2.764896 -2.4300613,5.830756 -2.8231681,6.813026 -0.7201827,1.79953 -1.2191665,2.18661 -1.6884405,1.30976 z M 24.509187,97.06802 C 11.017609,97.026507 1.9324203,96.899949 1.7839272,96.751456 1.6304506,96.59798 3.5004055,91.852463 6.7095336,84.251399 9.5546864,77.512437 13.990411,66.998114 16.566696,60.886239 c 2.576288,-6.111876 5.540413,-13.136564 6.586943,-15.610418 1.178116,-2.784901 2.044417,-4.497917 2.274668,-4.497917 0.351224,0 1.582724,2.668561 4.212495,9.128126 0.562811,1.382448 3.842404,9.240573 7.287986,17.462501 3.445579,8.221927 7.160956,17.092084 8.256392,19.711459 1.095438,2.619376 2.395474,5.706198 2.888972,6.85961 0.493498,1.153408 0.897271,2.30038 0.897271,2.548826 0,0.451028 -0.836859,0.825188 -1.5875,0.709779 -0.218281,-0.03356 -10.511912,-0.09214 -22.874736,-0.130185 z"
         id="path4508"
         inkscape:connector-curvature="0" />
      <path
         style="fill:#8f8f8f;stroke-width:0.26458335"
         d="M 56.379757,154.23639 C 36.367233,152.17528 18.947105,142.67846 6.2359317,126.89978 c -3.8461571,-4.77432 -9.9165953,-15.05149 -9.9165953,-16.78866 0,-0.32805 0.8744729,-2.66769 1.9432729,-5.19921 l 1.9432729,-4.60275 25.0107208,-0.0675 c 19.813057,-0.0535 25.064352,0.002 25.268774,0.26458 0.141928,0.18264 0.648742,1.28456 1.126257,2.44873 0.790708,1.92772 7.934683,18.95954 13.761409,32.80834 6.400649,15.21288 7.404058,17.70745 7.203313,17.90819 -0.449204,0.44921 -4.341797,0.72747 -9.714307,0.69442 -3.055938,-0.0188 -5.972969,-0.0771 -6.482292,-0.12955 z m 38.42404,-7.82358 c -0.148458,-0.1819 -0.982115,-2.05714 -1.85257,-4.16719 -1.55021,-3.75783 -3.262736,-7.85859 -14.806092,-35.45417 -3.134911,-7.494323 -5.965916,-14.280886 -6.29112,-15.081251 -0.325208,-0.800365 -1.962182,-4.729427 -3.63772,-8.73125 C 66.540758,78.977125 61.987421,68.082906 58.097768,58.769572 54.208115,49.456238 49.779429,38.859675 48.256246,35.221654 46.733061,31.583633 44.65061,26.583007 43.628578,24.109153 c -1.02203,-2.473854 -2.79784,-6.727134 -3.94624,-9.451732 -1.1484,-2.724598 -2.087999,-5.1194384 -2.087999,-5.3218671 0,-0.7479065 7.670541,-3.0562002 13.229168,-3.9810495 C 59.436975,3.9213882 69.05631,4.0553616 77.152418,5.7212003 100.46256,10.517448 119.66662,26.074789 129.65405,48.25313 c 2.64278,5.868615 4.78127,13.312019 5.87195,20.438318 0.86929,5.67984 0.86574,15.638064 -0.008,21.431251 -3.58931,23.808011 -17.08207,43.702561 -37.480445,55.263471 -2.569191,1.45611 -2.81891,1.53538 -3.234116,1.02664 z M -5.8784908,105.00551 c -0.3441565,-0.60764 -1.6014577,-4.87292 -2.2812879,-7.739061 -1.5560782,-6.56036 -1.9710373,-10.283995 -1.9754913,-17.727084 -0.0044,-7.41529 0.286525,-10.264329 1.707825,-16.722626 4.1979003,-19.074991 15.5177854,-35.703768 31.601991,-46.422947 4.472721,-2.980807 10.54629,-6.134142 10.854453,-5.635522 0.08207,0.132794 -0.560676,1.940911 -1.428327,4.018038 -0.867653,2.077127 -2.728291,6.574564 -4.134755,9.994303 -4.853729,11.801587 -13.30391,32.044029 -23.7467466,56.885421 -2.5387259,6.039115 -5.7902651,13.807943 -7.2256425,17.264063 -2.3239511,5.595635 -2.9794323,6.778575 -3.3720187,6.085415 z m 7.8455493,-8.411486 c -0.086557,-0.225565 1.3274869,-3.9209 3.1638917,-8.26823 1.8262175,-4.323212 5.4809018,-12.980075 8.1215218,-19.237471 7.637037,-18.097258 7.827376,-18.548161 9.884416,-23.415627 1.107221,-2.619954 2.106139,-4.630208 2.300801,-4.630208 0.317723,0 1.997697,3.899397 12.139976,28.178126 1.732526,4.147344 5.006944,11.983737 7.276487,17.414204 2.269543,5.430468 4.057819,9.984609 3.973949,10.120314 -0.09244,0.149566 -9.319025,0.246734 -23.428514,0.246734 -20.7239041,0 -23.2931846,-0.04472 -23.4325285,-0.407842 z"
         id="path4506"
         inkscape:connector-curvature="0" />
      <path
         style="fill:#6e6e6e;stroke-width:0.26458335"
         d="M 56.512049,154.13286 C 44.489095,153.00273 32.175616,148.54548 22.380796,141.77798 14.749398,136.50525 7.6125965,129.26761 2.6083969,121.72622 c -2.06309263,-3.10911 -4.647343,-7.71017 -5.6326438,-10.0285 l -0.7025174,-1.65296 1.9045667,-4.60321 c 1.04751168,-2.53178 2.02496301,-4.75205 2.17211395,-4.93395 0.21058162,-0.26031 5.52663735,-0.33073 24.96759365,-0.33073 h 24.700047 l 0.388911,0.59531 c 0.318661,0.48778 4.977895,11.4301 9.942193,23.34948 0.545473,1.30969 2.093372,5.00062 3.439782,8.20208 1.346406,3.20146 2.742911,6.53521 3.103343,7.40834 0.360431,0.87312 1.781849,4.24959 3.158707,7.50325 1.37686,3.25366 2.446195,6.06477 2.376302,6.24691 -0.06989,0.18214 -0.702738,0.40818 -1.406326,0.50231 -2.288911,0.30622 -11.794687,0.4034 -14.50842,0.14831 z m 36.43749,-12.21797 C 91.911094,139.40466 89.913733,134.61239 88.51096,131.26541 87.108189,127.91843 83.3999,119.04827 80.270321,111.55395 77.140742,104.05963 72.314832,92.510564 69.546081,85.889365 66.777327,79.268167 64.247458,73.195979 63.924145,72.395615 63.600832,71.59525 62.259024,68.380562 60.942349,65.251864 59.625673,62.123166 55.691896,52.717228 52.200623,44.349779 48.709348,35.982331 43.995475,24.688514 41.725345,19.252408 39.455217,13.816303 37.66076,9.2667752 37.737661,9.1423474 37.81456,9.0179197 39.203485,8.4874462 40.824158,7.9635175 52.032838,4.3399932 63.640935,3.4996852 75.10531,5.4819109 c 32.04236,5.5402231 56.65197,32.0085531 60.49852,65.0678671 0.59807,5.140111 0.55402,13.722623 -0.0952,18.55196 -1.08442,8.066448 -3.00171,14.832652 -6.2322,21.993732 -5.33373,11.82336 -13.85637,22.22555 -24.38161,29.75865 -3.49829,2.50379 -8.785771,5.62483 -9.529242,5.62483 -0.434155,0 -0.863336,-0.81075 -2.416019,-4.56406 z M -5.7328996,104.88443 C -6.1436801,104.38908 -7.7717535,98.645042 -8.5384165,94.986241 -10.512938,85.563097 -10.617026,74.314265 -8.8147813,65.119572 -4.4615758,42.91039 8.73591,24.442677 28.052524,13.529836 c 1.939192,-1.095539 5.412873,-2.782142 5.730021,-2.782142 0.364286,0 -0.280911,1.61981 -8.957983,22.489585 -1.603343,3.856302 -3.180591,7.666302 -3.504994,8.466667 C 20.269667,44.294254 6.8600196,76.2868 3.0765396,85.227907 c -1.1084032,2.619375 -3.39309522,8.096251 -5.0770931,12.170834 -1.6839981,4.074579 -3.1488834,7.502679 -3.255301,7.617989 -0.1064173,0.1153 -0.3210878,0.0558 -0.4770451,-0.1323 z m 8.0715072,-8.064949 c -0.2546615,-0.06655 -0.4623827,-0.201565 -0.4616024,-0.300035 7.673e-4,-0.09847 1.087287,-2.738882 2.4144599,-5.86758 1.3271728,-3.128698 2.8581978,-6.760105 3.402278,-8.069792 0.54408,-1.309688 2.8034119,-6.667501 5.0207389,-11.906251 2.217325,-5.238751 5.080863,-12.025314 6.363415,-15.081251 1.282554,-3.055938 3.157889,-7.520782 4.167415,-9.921876 1.03264,-2.456077 1.985555,-4.365625 2.178561,-4.365625 0.324654,0 1.004596,1.481212 3.9473,8.598959 0.691875,1.673489 3.55313,8.519584 6.358346,15.213542 8.847992,21.113559 12.977321,31.081014 12.977321,31.32491 0,0.129902 -0.188331,0.308456 -0.418516,0.396785 -0.478919,0.183779 -45.2443152,0.162554 -45.9497164,-0.02178 z"
         id="path4504"
         inkscape:connector-curvature="0" />
      <path
         style="fill:#4e4e4e;stroke-width:0.26458335"
         d="m 60.216215,154.25153 c -9.855997,-0.56916 -17.850218,-2.44634 -26.326043,-6.1818 -11.873667,-5.23295 -22.972347,-14.48021 -30.4893609,-25.40328 -3.1687415,-4.60454 -6.815747,-11.34384 -6.8176459,-12.59832 -4.234e-4,-0.27421 0.8531305,-2.55298 1.8967676,-5.06395 l 1.89752244,-4.5654 24.98211876,0.0675 24.982116,0.0675 0.608118,1.45521 c 1.603865,3.838 12.078815,28.79602 14.047362,33.46979 7.773674,18.45643 7.481346,17.71286 7.087191,18.02725 -0.557279,0.44452 -8.415597,0.92492 -11.868146,0.72554 z m 34.354614,-8.76476 c -0.226102,-0.54571 -2.053696,-4.92126 -4.061317,-9.72344 C 85.308081,123.32162 75.65463,100.1995 73.774345,95.678949 69.905811,86.378289 65.813878,76.593126 64.97825,74.644573 64.479002,73.480406 62.090177,67.765406 59.66975,61.944572 55.139284,51.049347 47.647379,33.0957 45.095843,27.01957 44.301437,25.127799 43.281727,22.687018 42.829822,21.595611 42.002605,19.597778 41.699696,18.874645 39.191044,12.908758 38.436421,11.114165 37.880806,9.4847939 37.95635,9.2879328 38.237205,8.556032 47.056046,6.1489197 52.67559,5.2702987 c 4.371033,-0.6834148 16.607085,-0.6816879 20.769793,0.00293 16.355566,2.6899165 30.094547,9.8291853 41.407297,21.5167173 10.95922,11.322295 17.95738,25.648997 20.40299,41.769208 0.79788,5.259155 0.87194,15.944298 0.14489,20.902085 -2.55807,17.443561 -10.01134,32.343501 -22.03995,44.060381 -1.8715,1.823 -4.35522,4.07648 -5.51939,5.00774 -3.40402,2.723 -11.660526,7.94959 -12.558056,7.94959 -0.165682,0 -0.486233,-0.44648 -0.712335,-0.99218 z M -5.9207546,104.07536 C -6.6088448,102.42853 -7.862505,97.802321 -8.5546053,94.356033 -10.577892,84.281148 -10.45128,72.732321 -8.2078006,62.722373 -3.5869262,42.104978 9.4378713,24.369054 27.621304,13.933725 c 2.484514,-1.425845 5.49448,-2.921448 5.879536,-2.921448 0.317691,0 0.03621,0.951939 -1.028946,3.479762 -0.634534,1.505871 -1.694143,4.047635 -2.354688,5.648364 -7.23023,17.521313 -14.972224,36.08066 -25.6611235,61.515629 -2.5379034,6.039115 -5.7228662,13.659115 -7.0776954,16.933334 -1.3548292,3.274224 -2.5613502,6.063504 -2.6811578,6.198404 -0.1238078,0.13941 -0.3905522,-0.16809 -0.6179839,-0.71241 z m 8.0609247,-7.69889 c 0,-0.198445 0.9051399,-2.490398 2.0114222,-5.093229 1.106282,-2.602828 2.935371,-6.935074 4.0646418,-9.627209 1.1292712,-2.692136 4.1660079,-9.895418 6.7483039,-16.007293 2.582299,-6.111875 5.816508,-13.791407 7.187135,-17.065626 1.370629,-3.274219 2.609678,-6.230369 2.753447,-6.569221 0.143767,-0.338852 0.395486,-0.571399 0.559374,-0.516768 0.266261,0.08875 1.853414,3.740362 6.817382,15.684948 0.846664,2.037292 3.533513,8.466667 5.970776,14.287501 9.522992,22.743444 10.398006,24.877259 10.280161,25.069272 -0.06698,0.109141 -10.53273,0.198438 -23.257215,0.198438 -19.3607048,0 -23.1354279,-0.05887 -23.1354279,-0.360813 z"
         id="path4502"
         inkscape:connector-curvature="0" />
      <path
         style="fill:#2e2e2e;stroke-width:0.26458335"
         d="M 56.42436,153.87871 C 34.801032,151.7874 15.18333,140.0154 2.9826321,121.80994 0.89048104,118.6881 -2.0469664,113.49116 -2.8813695,111.43532 l -0.5709671,-1.40677 1.9654357,-4.72741 1.96543545,-4.7274 24.76557745,-0.0675 c 23.980972,-0.0654 24.773987,-0.0518 25.031059,0.42856 0.265321,0.49575 1.654074,3.78693 12.184365,28.8754 3.084486,7.3488 6.550245,15.60241 7.701688,18.34134 1.151443,2.73894 2.093534,5.0774 2.093534,5.19658 0,0.11918 -0.446484,0.28511 -0.992188,0.36873 -1.868527,0.28633 -12.367155,0.40085 -14.83821,0.16186 z m 38.340411,-8.25965 C 94.526763,145.00583 92.083187,139.1492 86.678506,126.23833 81.011588,112.70101 70.880041,88.433673 69.998616,86.28624 69.520778,85.122074 68.273855,82.145511 67.227674,79.671657 66.181493,77.197802 64.934903,74.22124 64.457476,73.057073 63.980049,71.892906 61.594951,66.177906 59.157263,60.357072 56.719575,54.536238 54.161691,48.404519 53.473079,46.73103 52.784466,45.05754 49.628484,37.497071 46.459786,29.929987 43.291088,22.362903 40.06872,14.660623 39.298968,12.813808 38.263685,10.329928 37.980226,9.3901313 38.209897,9.2030301 c 0.55916,-0.4555183 6.19595,-2.1180582 9.906046,-2.9217333 9.413061,-2.0390423 19.260864,-2.1319407 28.50444,-0.2688937 9.557769,1.9263729 18.028432,5.4005519 25.929167,10.6346559 17.92413,11.874429 29.82424,31.155081 32.6936,52.97043 1.19367,9.075273 0.61377,19.234578 -1.60842,28.178127 -5.05171,20.331434 -18.04822,37.407154 -36.082758,47.408054 -2.114368,1.17251 -2.472619,1.2259 -2.787201,0.41539 z M -5.7431424,104.24017 C -6.200793,103.37322 -7.8673377,97.224259 -8.4220261,94.356033 -10.219911,85.059389 -10.353748,75.578412 -8.8141968,66.574781 -4.8054225,43.130595 9.8689644,23.017973 30.654183,12.47967 c 1.348904,-0.683908 2.565254,-1.204555 2.703002,-1.156993 0.137745,0.04756 -0.762334,2.527257 -2.000176,5.510434 -1.237845,2.983177 -3.012795,7.269428 -3.944337,9.525001 -2.353985,5.699786 -14.106055,33.909777 -16.202844,38.893752 -0.948933,2.255573 -2.470661,5.88698 -3.3816178,8.069792 -0.9109565,2.182813 -2.514502,5.992813 -3.5634342,8.466667 -2.9526912,6.963776 -4.48749951,10.634807 -7.0242866,16.801043 -1.2871451,3.128694 -2.4266524,5.790624 -2.5322388,5.915384 -0.1055865,0.12477 -0.3087133,0.006 -0.451393,-0.26458 z M 2.4895728,96.53072 C 2.267359,96.389398 2.6742845,95.152725 3.9029786,92.235291 4.8519825,89.981959 6.3770658,86.352386 7.2920527,84.169574 8.2070396,81.986761 10.593553,76.331292 12.595417,71.601864 14.597278,66.872437 17.332607,60.38353 18.67392,57.182072 23.854256,44.817616 25.236479,41.6857 25.477554,41.766059 c 0.239189,0.07973 1.005581,1.798508 3.511585,7.875387 0.63011,1.527969 3.368164,8.076407 6.084565,14.552085 2.7164,6.475677 5.92972,14.155209 7.140707,17.065626 1.210988,2.910417 3.109522,7.47291 4.218965,10.138873 1.109443,2.665963 1.948746,4.957917 1.865116,5.09323 -0.18262,0.295487 -45.3451755,0.334391 -45.8089192,0.03946 z"
         id="path4500"
         inkscape:connector-curvature="0" />
      <path
         style="fill:#000000;stroke-width:0.26458335;stroke:none"
         d="m 53.998507,153.35578 c -8.051782,-1.08449 -16.00111,-3.51157 -23.151043,-7.06843 -4.058045,-2.01874 -9.929409,-5.9154 -13.890626,-9.21882 -2.521077,-2.10243 -8.1939096,-7.88502 -10.1055065,-10.30104 -3.4475298,-4.35723 -7.73055377,-11.2678 -9.3605573,-15.10305 l -0.7162007,-1.68515 1.320222,-3.11528 c 0.7261222,-1.71339 1.59810298,-3.79988 1.93773539,-4.63662 l 0.6175132,-1.52136 H 25.303768 49.957491 l 0.672616,1.52136 c 0.369937,0.83674 2.716252,6.40291 5.214035,12.36927 4.938875,11.7973 6.020213,14.37226 9.222122,21.96042 4.505309,10.67705 6.924522,16.62404 6.809425,16.73914 -0.700892,0.70089 -12.815996,0.74126 -17.877182,0.0596 z m 40.929912,-7.86901 c -0.07822,-0.25467 -0.995662,-2.48709 -2.038753,-4.96094 -1.64974,-3.91263 -3.543387,-8.45241 -5.683732,-13.62605 -0.331112,-0.80036 -1.28202,-3.06255 -2.113124,-5.02708 -0.831104,-1.96453 -1.926958,-4.58391 -2.43523,-5.82083 -1.335014,-3.24888 -1.855761,-4.49818 -4.576924,-10.98021 C 76.736681,101.8702 74.872239,97.405356 73.93745,95.149783 71.474353,89.206516 70.832109,87.667387 69.521255,84.566449 68.875338,83.03848 67.901584,80.716761 67.35736,79.407073 66.813133,78.097386 65.914388,75.954261 65.360147,74.644573 64.277885,72.087145 56.698265,53.903797 55.709774,51.49353 55.381532,50.693165 54.46466,48.490509 53.672281,46.598738 52.879904,44.706967 51.364114,41.07556 50.303862,38.528946 49.243611,35.982331 47.448156,31.696081 46.313964,29.003945 45.179769,26.31181 43.235716,21.668372 41.993844,18.685194 40.751972,15.702017 39.379729,12.427798 38.944415,11.409152 38.509102,10.390506 38.235612,9.4782124 38.336659,9.3818324 39.072815,8.6796777 48.451347,6.2560484 53.082614,5.5711374 57.600402,4.9030083 66.053527,4.7763628 70.643347,5.308041 c 6.532555,0.7567216 15.504434,3.106998 20.299748,5.317728 0.85376,0.393599 2.076945,0.942996 2.718189,1.220883 3.823245,1.656818 10.315556,5.808975 14.720066,9.414215 19.94566,16.326207 30.16942,42.636598 26.57575,68.391527 -1.68521,12.077506 -6.2299,23.791216 -12.82354,33.052086 -4.5943,6.45276 -11.07475,13.12753 -16.80588,17.30981 -3.32153,2.42388 -9.231848,5.9355 -9.989895,5.9355 -0.146929,0 -0.331142,-0.20836 -0.409366,-0.46302 z M -5.7458142,103.61645 c -1.1803013,-3.11942 -2.6708144,-9.703444 -3.3841959,-14.948959 -0.657107,-4.831726 -0.6619381,-13.87224 -0.0099,-18.520835 C -7.5173857,58.57921 -3.9754176,48.555832 1.7523769,39.322696 7.188567,30.559624 15.581578,22.002539 24.23288,16.402731 c 3.338415,-2.160887 8.693198,-4.969992 8.810324,-4.621871 0.04349,0.129261 -0.5925,1.824912 -1.413312,3.768114 -0.820812,1.943203 -2.268241,5.438096 -3.216513,7.766429 -2.421351,5.945254 -3.13971,7.683979 -5.902934,14.287501 -2.653766,6.341944 -3.751178,8.979993 -5.668349,13.626043 -0.69056,1.673489 -1.485641,3.547933 -1.766848,4.16543 -0.281207,0.617498 -0.852112,1.986717 -1.268677,3.042709 -0.416566,1.055992 -2.866977,6.920611 -5.4453587,13.032487 -6.0138247,14.255356 -8.9856633,21.348913 -11.3674736,27.133313 -1.0516669,2.554054 -2.0419815,4.875764 -2.2006987,5.159374 -0.2758393,0.49289 -0.299624,0.48645 -0.5388542,-0.14581 z m 8.3311503,-7.342188 c -0.063377,-0.109141 0.7990224,-2.341563 1.9164426,-4.960938 1.1174198,-2.619375 2.6052424,-6.131719 3.3062719,-7.805209 1.300347,-3.104174 2.9033134,-6.901188 7.3720544,-17.462501 7.011676,-16.571215 9.714233,-23.039706 9.714233,-23.250722 0,-0.12782 0.148828,-0.3556 0.330729,-0.506172 0.254088,-0.210328 0.999763,1.330354 3.217739,6.648331 1.587857,3.807159 3.863705,9.243823 5.057444,12.081479 1.19374,2.837657 2.890018,6.885782 3.769506,8.995834 0.879491,2.110053 3.616614,8.658655 6.082496,14.552452 2.465883,5.893796 4.568397,10.983718 4.672251,11.310939 l 0.188831,0.594944 H 25.456948 c -12.516009,0 -22.8082352,-0.0893 -22.8716119,-0.198437 z"
         id="path4498"
         inkscape:connector-curvature="0" />
    </g>
  </g>
</svg>
