<?xml version="1.0" encoding="UTF-8" standalone="no"?>
<!-- Created with Inkscape (http://www.inkscape.org/) -->

<svg
   xmlns:dc="http://purl.org/dc/elements/1.1/"
   xmlns:cc="http://creativecommons.org/ns#"
   xmlns:rdf="http://www.w3.org/1999/02/22-rdf-syntax-ns#"
   xmlns:svg="http://www.w3.org/2000/svg"
   xmlns="http://www.w3.org/2000/svg"
   xmlns:sodipodi="http://sodipodi.sourceforge.net/DTD/sodipodi-0.dtd"
   xmlns:inkscape="http://www.inkscape.org/namespaces/inkscape"
   width="79.375mm"
   height="79.375mm"
   viewBox="0 0 79.375 79.375"
   version="1.1"
   id="svg8"
   inkscape:version="0.92.1 r15371"
   sodipodi:docname="masterkey.svg">
  <defs
     id="defs2" />
  <sodipodi:namedview
     id="base"
     pagecolor="#ff7659"
     bordercolor="#666666"
     borderopacity="1.0"
     inkscape:pageopacity="0"
     inkscape:pageshadow="2"
     inkscape:zoom="1.2861069"
     inkscape:cx="304.2474"
     inkscape:cy="126.01011"
     inkscape:document-units="mm"
     inkscape:current-layer="g5215"
     showgrid="false"
     fit-margin-top="0"
     fit-margin-left="0"
     fit-margin-right="0"
     fit-margin-bottom="0"
     inkscape:window-width="1536"
     inkscape:window-height="841"
     inkscape:window-x="-8"
     inkscape:window-y="-8"
     inkscape:window-maximized="1" />
  <metadata
     id="metadata5">
    <rdf:RDF>
      <cc:Work
         rdf:about="">
        <dc:format>image/svg+xml</dc:format>
        <dc:type
           rdf:resource="http://purl.org/dc/dcmitype/StillImage" />
        <dc:title></dc:title>
      </cc:Work>
    </rdf:RDF>
  </metadata>
  <g
     inkscape:label="Layer 1"
     inkscape:groupmode="layer"
     id="layer1"
     transform="translate(256.62974,68.95737)">
    <g
       id="g4496"
       transform="translate(-171.41717,58.14693)">
      <g
         id="g4538"
         transform="translate(145.65313,113.63854)">
        <g
           id="g4567"
           transform="translate(-190.86895,62.30846)">
          <g
             id="g5155">
            <g
               id="g5184">
              <g
                 id="g5215"
                 transform="translate(-0.2057242,-0.20572424)">
                <path
                   style="fill:#edd1a9;stroke-width:0.26458332"
                   d="m -26.899875,-250.16046 c -0.291042,-0.1714 -0.849877,-0.65242 -1.241856,-1.06895 -0.432665,-0.45975 -0.985381,-0.75731 -1.406716,-0.75731 -1.121826,0 -2.419635,-1.211 -3.304208,-3.0832 -2.713737,-5.74364 -2.676471,-15.97985 0.07595,-20.86159 0.663168,-1.17621 2.618882,-2.61992 4.110127,-3.03411 1.270547,-0.35288 5.087515,-0.34827 7.075924,0.009 4.012255,0.72001 8.702456,3.01669 11.041592,5.40681 1.9571756,1.99984 2.3608054,2.83825 2.6474762,5.49931 0.4749562,4.40884 0.4273127,4.84663 -0.7980416,7.33298 -2.1422046,4.34673 -6.0287376,7.61537 -12.1148286,10.18876 -1.329682,0.56224 -5.343825,0.80547 -6.085417,0.36875 z m 13.49375,-12.40959 c 0.107471,-0.17389 -2.283095,-0.26458 -6.974204,-0.26458 -3.925749,0 -7.326057,-0.0723 -7.55624,-0.1606 -0.342837,-0.13156 -0.418514,-0.63674 -0.418514,-2.79374 0,-1.68806 -0.09496,-2.57445 -0.264584,-2.46962 -0.291883,0.18039 -0.372976,5.49195 -0.08819,5.77673 0.293813,0.29382 15.11845,0.20837 15.301736,-0.0882 z m -7.787814,-2.12597 c 0.415117,-0.22217 0.511772,-0.56197 0.511772,-1.79917 0,-0.8389 -0.142875,-1.66815 -0.3175,-1.84278 -0.197719,-0.19772 -1.175925,-0.3175 -2.592916,-0.3175 -1.416991,0 -2.395197,0.11978 -2.592917,0.3175 -0.174625,0.17463 -0.3175,1.00215 -0.3175,1.83894 0,1.16986 0.106995,1.58376 0.463021,1.79112 0.607862,0.35405 4.190287,0.36283 4.84604,0.0119 z m -4.628704,-0.67105 c -0.476866,-0.47687 -0.541504,-1.50076 -0.141881,-2.24746 0.234688,-0.43852 0.567957,-0.51177 2.328333,-0.51177 2.338283,0 2.689441,0.20728 2.689441,1.5875 0,0.52388 -0.142875,1.09537 -0.3175,1.27 -0.492646,0.49265 -4.044037,0.41608 -4.558393,-0.0983 z m 12.752007,0.61421 c 0.297831,-0.36756 0.268579,-3.08873 -0.03855,-3.58566 -0.131921,-0.21346 -1.097883,-0.31695 -2.95839,-0.31695 h -2.76251 v 1.94028 c 0,1.06715 0.07937,2.01965 0.176389,2.11667 0.334511,0.33451 5.298126,0.19729 5.583058,-0.15434 z m -4.938106,-0.43478 c -0.2072,-0.13434 -0.296196,-0.42988 -0.202764,-0.67336 0.140086,-0.36506 0.534707,-0.4218 2.48595,-0.35743 2.117539,0.0699 2.319431,0.12257 2.319431,0.60567 0,0.47943 -0.198949,0.53553 -2.116667,0.59685 -1.164166,0.0372 -2.282844,-0.0401 -2.48595,-0.17173 z m -0.199342,-2.02004 c -0.286598,-0.74686 0.299372,-0.94324 2.577601,-0.86385 2.02213,0.0705 2.224358,0.12563 2.224358,0.60669 0,0.4831 -0.201892,0.53582 -2.319431,0.60567 -1.932352,0.0638 -2.34665,0.006 -2.482528,-0.34851 z m 16.4766986,11.48372 c -0.2461763,-1.23088 -0.2044118,-1.55442 0.200652,-1.55442 0.2013083,0 0.4251722,-0.22622 0.4974776,-0.50271 0.0986102,-0.37709 0.37077911,-0.50271 1.08919165,-0.50271 0.52675103,0 0.95773085,0.11784 0.95773085,0.26186 0,0.14402 0.2579793,0.47076 0.5732886,0.72608 0.3627463,0.29373 0.511548,0.62511 0.4051776,0.90231 -0.2174452,0.56665 -0.9784662,0.56995 -0.9784662,0.004 0,-0.40243 -0.69696545,-1.12594 -1.10321464,-1.14523 -0.09744604,-0.005 -0.37490664,0.5869 -0.61657706,1.3145 -0.5069046,1.52615 -0.7916889,1.66395 -1.0252604,0.49609 z m 13.4774544,0.54307 c -0.497652,-1.39277 -0.743537,-3.79419 -0.259281,-2.53224 0.205541,0.53564 0.903962,0.57696 0.903962,0.0535 0,-0.2097 0.132329,-0.46305 0.294066,-0.56301 0.427966,-0.26449 0.01699,2.56187 -0.442301,3.04176 -0.313167,0.32722 -0.379527,0.32722 -0.496446,0 z m 14.491531,-0.6957 c -0.61277,-0.11745 -0.947098,-0.66338 -0.736936,-1.20336 0.128741,-0.33077 1.457319,-1.06523 1.624502,-0.89804 0.04873,0.0487 0.11693,0.54052 0.151566,1.09288 0.06561,1.04635 -0.08403,1.19159 -1.039132,1.00852 z m 0.44065,-0.87263 c 0,-0.14552 -0.119063,-0.26458 -0.264583,-0.26458 -0.145521,0 -0.264584,0.11906 -0.264584,0.26458 0,0.14552 0.119063,0.26459 0.264584,0.26459 0.14552,0 0.264583,-0.11907 0.264583,-0.26459 z m -30.5101942,0.36413 c 0.099211,-0.25855 -0.00945,-0.52718 -0.2728887,-0.67461 -0.5463883,-0.30577 -0.5774769,-1.27702 -0.040875,-1.27702 0.2182812,0 0.396875,0.14996 0.396875,0.33323 0,0.18328 0.238125,0.48195 0.5291666,0.6637 0.7770998,0.48531 0.6965792,1.38432 -0.123989,1.38432 -0.4940088,0 -0.612984,-0.10468 -0.4882889,-0.42962 z m 6.8713641,0.23119 c -0.2843557,-0.46197 -0.4709319,-2.66056 -0.2380007,-2.80452 0.1380252,-0.0853 0.4752763,0.009 0.7494429,0.20941 0.4790625,0.3503 0.4800811,0.38484 0.026141,0.88645 -0.328123,0.36257 -0.4192825,0.73343 -0.2985346,1.21452 0.1639093,0.65306 0.029636,0.93063 -0.2390379,0.49414 z m 1.2574137,-0.46495 c -0.1853856,-0.73863 0.4718659,-1.98245 1.0475516,-1.98245 0.1923706,0 0.5755455,0.24948 0.8514953,0.55441 0.4943422,0.54624 0.4927018,0.56171 -0.1114663,1.05094 -0.3372591,0.27309 -0.5375566,0.61892 -0.4451086,0.76851 0.098256,0.15898 -0.111117,0.27197 -0.5039412,0.27197 -0.496697,0 -0.7154731,-0.17308 -0.8385308,-0.66338 z m 1.2147497,-1.1887 c 0,-0.14552 -0.1190625,-0.26458 -0.2645833,-0.26458 -0.1455208,0 -0.2645833,0.11906 -0.2645833,0.26458 0,0.14552 0.1190625,0.26458 0.2645833,0.26458 0.1455208,0 0.2645833,-0.11906 0.2645833,-0.26458 z m 9.9218747,1.60385 c -0.765106,-0.14829 -0.79375,-0.20546 -0.79375,-1.5844 0,-1.48052 0.553882,-2.20777 0.84209,-1.10566 0.08012,0.30637 0.302413,0.55704 0.49399,0.55704 0.211743,0 0.339897,0.29628 0.326835,0.75562 -0.01183,0.4156 0.05762,0.88362 0.154305,1.04005 0.248004,0.40129 -0.100637,0.5162 -1.02347,0.33735 z m 3.063714,-0.12333 c -0.19159,-0.23085 -0.233296,-0.65671 -0.11013,-1.12448 l 0.198244,-0.75292 0.146476,0.79375 c 0.186928,1.01297 0.904446,1.05955 1.018749,0.0661 0.04605,-0.40018 0.181361,-0.7276 0.300699,-0.7276 0.244393,0 0.492339,1.33848 0.335246,1.80975 -0.143497,0.43049 -1.51737,0.38348 -1.889284,-0.0646 z m 2.540741,-0.186 c -0.181862,-0.69543 0.226224,-1.82369 0.659622,-1.82369 0.252037,0 0.253492,0.0706 0.0065,0.3175 -0.457568,0.45757 -0.392324,0.9306 0.211667,1.53459 l 0.529166,0.52916 h -0.6306 c -0.418787,0 -0.679574,-0.18727 -0.776403,-0.55756 z m 2.200754,0.21956 c 0,-0.1859 0.179871,-0.59481 0.399711,-0.90867 0.25301,-0.36123 0.301564,-0.63133 0.132292,-0.73595 -0.485521,-0.30007 -0.278316,-0.66321 0.378423,-0.66321 0.834437,0 1.020196,0.32506 0.544721,0.95321 -0.208992,0.2761 -0.38377,0.76989 -0.3884,1.09731 -0.0059,0.41612 -0.167698,0.59531 -0.537581,0.59531 -0.291041,0 -0.529166,-0.1521 -0.529166,-0.338 z m -16.1920585,-0.78837 c -0.2220992,-1.16184 0.1904894,-1.51946 1.7530181,-1.51946 1.5481594,0 2.1004104,0.38187 1.9577874,1.35378 -0.09826,0.66958 -0.747914,1.02022 -0.747914,0.40368 0,-0.56202 -0.4831556,-0.80211 -0.9067324,-0.45057 -0.267417,0.22194 -0.3923956,0.19506 -0.5092726,-0.10951 -0.2317274,-0.60387 -0.6391487,-0.48878 -1.0507821,0.29685 l -0.3670195,0.70049 z m -11.7293205,-4.2226 c -0.075769,-0.19745 -0.1050025,-2.37869 -0.064963,-4.8472 l 0.0728,-4.4882 0.8162846,-0.0797 c 0.4489582,-0.0438 0.9350877,0.0752 1.0802911,0.26458 0.1452033,0.18934 0.8365516,1.74323 1.5363322,3.4531 0.69977793,1.70987 1.34474214,3.10781 1.43325056,3.10654 0.0885084,-10e-4 0.6822096,-1.28119 1.31933684,-2.84427 0.6371273,-1.56308 1.324483,-3.10985 1.5274555,-3.43727 0.439592,-0.70913 1.7990264,-0.82646 2.0483248,-0.1768 0.2472848,0.64441 0.1821973,8.66274 -0.073594,9.06637 -0.1243489,0.19622 -0.4499478,0.314 -0.7235534,0.26172 -0.4407905,-0.0842 -0.5128313,-0.42627 -0.6323859,-3.00259 l -0.1349216,-2.90755 -0.5683594,1.19062 c -0.3125973,0.65484 -0.8657855,1.90375 -1.2293045,2.77535 -1.0823998,2.59522 -1.91271521,2.65173 -3.0045527,0.20449 -0.3741156,-0.83855 -0.9331696,-2.06041 -1.2423405,-2.71526 l -0.5621311,-1.19062 -0.1336093,2.77812 c -0.1266957,2.6344 -0.164465,2.78251 -0.7301018,2.86283 -0.3280728,0.0466 -0.6584897,-0.0768 -0.7342585,-0.2743 z m 11.6135971,-0.30334 c -0.5984611,-0.51477 -0.7458181,-0.86172 -0.7458181,-1.75602 0,-1.54336 0.9629854,-2.38125 2.7367574,-2.38125 1.4144996,0 1.7518036,-0.18004 1.3175666,-0.70326 -0.185682,-0.22373 -0.8729767,-0.35507 -1.8580919,-0.35507 -1.2067169,0 -1.6015017,-0.0993 -1.7303829,-0.43514 -0.2606225,-0.67917 0.6557672,-1.15236 2.2316678,-1.15236 1.657503,0 2.910631,0.56008 3.118662,1.39387 0.08103,0.32478 0.112522,1.76814 0.06998,3.20746 l -0.07735,2.61697 -2.1585873,0.10316 c -1.9813428,0.0947 -2.219825,0.0505 -2.9044026,-0.53836 z m 3.2902819,-1.27977 c 0.927962,-0.92796 -0.196369,-1.82909 -1.6110562,-1.29122 -1.1855344,0.45074 -0.7495857,1.60872 0.6056392,1.60872 0.3783542,0 0.830792,-0.14288 1.005417,-0.3175 z m 3.804613,1.62529 c -0.434928,-0.1744 -0.589217,-0.42023 -0.529167,-0.84313 0.07895,-0.55604 0.19467,-0.59096 1.68833,-0.5095 1.200036,0.0654 1.688481,-0.0149 1.941007,-0.31914 0.502928,-0.60599 0.122283,-0.95894 -1.034198,-0.95894 -1.33808,0 -2.247386,-0.42873 -2.613493,-1.23225 -0.46954,-1.03053 -0.34739,-1.66524 0.479639,-2.49227 0.682803,-0.6828 0.959205,-0.77339 2.35961,-0.77339 2.003055,0 2.423242,0.16548 2.423242,0.95435 0,0.69052 -0.02238,0.69747 -2.051447,0.63648 -1.081098,-0.0325 -1.42775,0.0566 -1.559909,0.40102 -0.231063,0.60214 0.338219,0.90963 1.693127,0.91451 1.415608,0.005 2.182812,0.69638 2.182812,1.96679 0,1.26923 -0.217881,1.70369 -1.077256,2.14809 -0.830731,0.42959 -2.953094,0.48799 -3.902297,0.10738 z m 7.332887,-0.0151 c -1.060738,-0.3893 -1.295,-1.26642 -1.295,-4.84875 0,-2.6837 0.07201,-3.29416 0.4036,-3.42141 0.24071,-0.0924 0.633715,0.10978 0.973757,0.50086 0.313584,0.36065 0.774068,0.65574 1.0233,0.65574 0.905801,0 0.841142,1.05814 -0.08555,1.40006 -0.385048,0.14206 -0.463021,0.5075 -0.463021,2.17006 0,1.88905 0.03645,2.01308 0.661458,2.25071 0.715293,0.27195 0.848855,0.7651 0.343959,1.27 -0.367258,0.36726 -0.613939,0.37085 -1.5625,0.0227 z m 4.933736,0.11428 c -1.000604,-0.27831 -1.689889,-0.91914 -2.105261,-1.95725 -0.530582,-1.32606 -0.528309,-2.07704 0.01037,-3.42331 0.513064,-1.28227 1.461146,-1.84728 3.099755,-1.84728 1.576488,0 2.274867,0.60411 2.578733,2.23062 0.330374,1.7684 0.0781,2.00272 -2.156191,2.00272 -1.789718,0 -2.232334,0.1646 -1.883989,0.70063 0.350748,0.53972 1.350126,0.88687 2.553139,0.88687 1.213996,0 1.849975,0.51807 1.300993,1.0598 -0.295605,0.2917 -2.710018,0.53843 -3.397541,0.3472 z m 1.907421,-5.04123 c 0.05912,-0.17981 -0.184457,-0.45995 -0.541282,-0.62253 -0.763069,-0.34769 -1.774042,0.0566 -1.774042,0.7094 0,0.30929 0.256225,0.38389 1.103916,0.32142 0.607152,-0.0448 1.152287,-0.22848 1.211408,-0.40829 z m 3.298827,4.99853 c -0.253492,-0.16086 -0.320214,-1.07427 -0.264583,-3.62208 l 0.07439,-3.40698 1.668807,-0.0602 c 1.330822,-0.048 1.702088,0.0266 1.833144,0.36809 0.100695,0.2624 -0.01979,0.53728 -0.311113,0.70974 -1.525233,0.90295 -1.589389,1.03656 -1.510823,3.14618 0.09692,2.60246 -0.399466,3.55711 -1.489822,2.86522 z"
                   id="path5229"
                   inkscape:connector-curvature="0" />
                <path
                   style="fill:#eaaa5c;stroke-width:0.26458332"
                   d="m -26.238417,-250.30959 c -0.218281,-0.0921 -0.773616,-0.49454 -1.234077,-0.89429 -0.460461,-0.39975 -1.293899,-0.87654 -1.852084,-1.05953 -1.656644,-0.5431 -2.148888,-1.00622 -3.108709,-2.92479 -1.494925,-2.98818 -1.875366,-5.18741 -1.871976,-10.82143 0.0027,-4.43332 0.06162,-5.06941 0.625336,-6.74688 1.201073,-3.5741 2.492162,-5.02137 5.208867,-5.83898 4.011008,-1.20714 11.29024,0.55288 15.904545,3.84549 1.895115,1.35229 3.6799046,3.51569 4.0069534,4.85696 0.1482302,0.6079 0.3473979,2.35544 0.4425924,3.88341 l 0.1730851,2.77812 -1.2047643,2.4552 c -2.0003766,4.07658 -5.8233906,7.33115 -11.3286796,9.64423 -1.799325,0.756 -4.877283,1.19543 -5.761089,0.82249 z m 13.096875,-12.39275 c 0,-0.1684 -2.688459,-0.29019 -7.395363,-0.33501 -5.511808,-0.0525 -7.448175,-0.15357 -7.602719,-0.39687 -0.114046,-0.17955 -0.209179,-1.42778 -0.211408,-2.77385 -0.0024,-1.45251 -0.111607,-2.4474 -0.268635,-2.4474 -0.161708,0 -0.264583,1.23604 -0.264583,3.17894 v 3.17894 l 7.871354,-0.0701 c 5.024459,-0.0447 7.871354,-0.16577 7.871354,-0.33466 z m -7.549934,-2.23157 c 0.396883,-0.74158 0.335922,-2.74187 -0.101797,-3.34026 -0.327139,-0.44722 -0.687805,-0.51023 -2.790882,-0.4876 -1.328355,0.0143 -2.541972,0.15276 -2.696925,0.30772 -0.41775,0.41775 -0.573926,2.46964 -0.251501,3.30431 0.280615,0.72644 0.285314,0.72761 2.92414,0.72761 2.342339,0 2.674237,-0.0582 2.916965,-0.51178 z m -5.105968,-0.45836 c -0.09701,-0.097 -0.176389,-0.62861 -0.176389,-1.18132 0,-1.26194 0.484537,-1.55271 2.587432,-1.55271 2.127302,0 2.95743,0.91939 2.165759,2.39864 -0.234843,0.43881 -0.568057,0.51178 -2.337153,0.51178 -1.134793,0 -2.142636,-0.0794 -2.239649,-0.17639 z m 12.998265,-1.08251 c 0.07589,-1.87353 0.06033,-1.92699 -0.637992,-2.19249 -0.393676,-0.14967 -1.738364,-0.23802 -2.988197,-0.19631 l -2.272424,0.0758 -0.07699,2.19158 -0.07699,2.19158 2.987404,-0.0749 2.987405,-0.0749 z m -5.186785,0.79588 c 0.07603,-0.3948 0.399976,-0.46303 2.198589,-0.46303 1.798613,0 2.122558,0.0682 2.198589,0.46303 0.07937,0.41214 -0.16219,0.46302 -2.198589,0.46302 -2.036399,0 -2.277962,-0.0509 -2.198589,-0.46302 z m 0.241806,-1.36642 c -0.203107,-0.1286 -0.29614,-0.42443 -0.206742,-0.6574 0.125788,-0.3278 0.548412,-0.42358 1.868998,-0.42358 0.938551,0 1.894788,0.0723 2.124971,0.1606 0.612816,0.23516 0.510489,0.81137 -0.176798,0.99555 -0.892207,0.23911 -3.189646,0.19127 -3.610429,-0.0752 z m 13.2272684,5.69685 c -0.2080684,-0.2507 -0.2807468,-1.72036 -0.2308331,-4.66786 0.063682,-3.76076 0.1310984,-4.33866 0.5358685,-4.59367 0.8152977,-0.51366 1.3322036,0.15524 2.8093512,3.6354 0.78115844,1.84042 1.50369054,3.34622 1.60562921,3.34622 0.10193602,0 0.82331449,-1.54647 1.60306019,-3.43661 1.403469,-3.40204 1.7989735,-3.91445 2.7420808,-3.55254 0.3793066,0.14555 0.4341495,0.74433 0.4341495,4.74019 0,3.64161 -0.074303,4.60211 -0.3646329,4.71352 -0.7500752,0.28783 -0.9582838,-0.44311 -0.9582838,-3.36415 0,-1.60863 -0.100113,-2.79799 -0.2238243,-2.65906 -0.1231027,0.13825 -0.7290752,1.46601 -1.3466074,2.9506 -1.72964742,4.15818 -2.06982222,4.18241 -3.7158216,0.26457 -0.6237182,-1.48458 -1.237279,-2.81234 -1.363472,-2.95059 -0.1309238,-0.14342 -0.2294414,0.94152 -0.2294414,2.52677 0,1.80799 -0.1108736,2.889 -0.3175,3.09563 -0.4099957,0.41 -0.6073695,0.40024 -0.9797229,-0.0484 z m 12.4097229,0.19242 c -1.6456527,-0.65695 -2.1354838,-2.65904 -0.9280763,-3.79334 0.4754827,-0.44669 1.065911,-0.6532 2.1166667,-0.74034 2.4441493,-0.20269 1.6106963,-1.48052 -0.8640181,-1.3247 -1.1004761,0.0693 -1.2506139,0.0152 -1.2506139,-0.45041 0,-1.10017 3.1067873,-1.20421 4.4128903,-0.14778 0.574212,0.46444 0.614193,0.68349 0.614193,3.36499 v 2.8682 l -0.79375,0.0457 c -0.436563,0.0252 -1.27,0.11105 -1.8520833,0.1909 -0.5820834,0.0798 -1.2369271,0.0739 -1.4552084,-0.0133 z m 1.9847137,-1.41413 c 0.55554,-0.21121 0.679328,-0.41172 0.612537,-0.99219 -0.09055,-0.78696 -0.7685195,-1.04408 -1.9627031,-0.74436 -0.769075,0.19303 -0.8800386,1.30282 -0.1715267,1.71549 0.5858377,0.34122 0.6763252,0.34247 1.5216928,0.0211 z m 4.62987,1.35197 c -0.400299,-0.11069 -0.694196,-0.40875 -0.744371,-0.7549 -0.07714,-0.53218 0.04256,-0.57747 1.719792,-0.65062 1.605369,-0.07 1.811464,-0.14 1.882732,-0.63944 0.0863,-0.60481 -0.504158,-0.88408 -1.88336,-0.89077 -1.053742,-0.005 -1.671732,-0.40356 -1.974947,-1.27336 -0.403802,-1.15835 0.189695,-2.30054 1.403556,-2.70115 1.163164,-0.38388 3.271247,-0.20552 3.593772,0.30407 0.42572,0.67264 0.05675,0.88901 -1.377564,0.80784 -2.748354,-0.15554 -3.334213,1.3674 -0.612844,1.59308 1.165762,0.0967 1.633985,0.26598 2.005939,0.72532 1.67015,2.06255 -0.943033,4.32878 -4.012705,3.47993 z m 6.558854,-0.30887 c -0.248933,-0.14512 -0.575691,-0.70705 -0.726131,-1.24873 -0.295264,-1.06315 -0.378753,-5.56984 -0.115874,-6.25489 0.218562,-0.56956 0.820838,-0.52741 1.14603,0.0802 0.146801,0.27431 0.567708,0.57423 0.935349,0.6665 0.854419,0.21445 0.857801,0.78022 0.007,1.16788 -0.613198,0.27939 -0.661458,0.43555 -0.661458,2.14024 0,1.8043 0.259911,2.44836 1.101209,2.72879 0.178393,0.0595 0.241911,0.30108 0.14532,0.55279 -0.189127,0.49286 -1.12608,0.57841 -1.831425,0.16721 z m 4.490826,-0.13423 c -0.968553,-0.52553 -1.52468,-1.6773 -1.52468,-3.1577 0,-1.51103 0.565412,-2.64646 1.57884,-3.17052 2.045703,-1.05787 4.241993,0.0888 4.241993,2.21482 0,1.33811 -0.453557,1.61716 -2.62844,1.61716 -1.16799,0 -1.604893,0.0969 -1.604893,0.35587 0,0.73635 0.942689,1.23163 2.344242,1.23163 1.018077,0 1.418858,0.1103 1.539074,0.42358 0.0894,0.23297 -0.0036,0.5288 -0.20674,0.6574 -0.582647,0.36893 -2.942334,0.26024 -3.739396,-0.17224 z m 2.660909,-4.67905 c -0.15494,-1.09096 -2.598089,-0.87389 -2.598089,0.23083 0,0.26165 0.378412,0.36448 1.341318,0.36448 1.23966,0 1.33491,-0.0451 1.256771,-0.59531 z m 3.124128,4.6887 c -0.231759,-0.60395 -0.200583,-5.74605 0.0371,-6.11958 0.107231,-0.16852 0.611423,-0.3099 1.120429,-0.31418 0.509003,-0.004 1.159026,-0.045 1.444492,-0.0905 0.784456,-0.12499 0.855922,0.78636 0.08466,1.07959 -1.047287,0.39818 -1.239922,0.88689 -1.320231,3.3494 -0.07119,2.18276 -0.121031,2.37373 -0.638847,2.44761 -0.331267,0.0473 -0.629714,-0.0973 -0.727605,-0.35237 z"
                   id="path5227"
                   inkscape:connector-curvature="0" />
                <path
                   style="fill:#a4a3a3;stroke-width:0.26458332"
                   d="m -25.968393,-250.67948 c -0.360809,-0.15222 -0.850518,-0.45279 -1.088242,-0.66792 -0.237723,-0.21514 -0.710425,-0.44474 -1.050447,-0.51022 -0.340022,-0.0655 -0.719433,-0.29991 -0.843134,-0.52095 -0.123701,-0.22104 -0.439735,-0.4019 -0.702296,-0.4019 -1.30302,0 -3.114363,-3.08905 -3.878623,-6.61458 -0.620935,-2.86437 -0.620985,-10.1105 -8.6e-5,-12.43542 0.776068,-2.90593 1.424012,-4.12518 2.735052,-5.1466 1.699998,-1.32445 2.808345,-1.55902 6.554602,-1.38716 3.260079,0.14956 5.575787,0.74315 8.851067,2.26881 3.034358,1.41345 6.1899615,4.49057 6.4922083,6.33074 0.088252,0.53731 0.2631969,1.21505 0.3887708,1.50609 0.1255712,0.29104 0.1997604,1.60073 0.1648671,2.91041 -0.059095,2.21808 -0.1402873,2.53199 -1.1848676,4.58102 -0.8112076,1.59124 -1.6488936,2.72583 -3.0281826,4.10149 -3.881491,3.87127 -10.947537,7.02537 -13.410689,5.98619 z m 12.826851,-12.02286 c 0,-0.1684 -2.688459,-0.29019 -7.395363,-0.33501 -5.511808,-0.0525 -7.448175,-0.15357 -7.602719,-0.39687 -0.114046,-0.17955 -0.209179,-1.42778 -0.211408,-2.77385 -0.0024,-1.45251 -0.111607,-2.4474 -0.268635,-2.4474 -0.161708,0 -0.264583,1.23604 -0.264583,3.17894 v 3.17894 l 7.871354,-0.0701 c 5.024459,-0.0447 7.871354,-0.16577 7.871354,-0.33466 z m -7.549934,-2.23157 c 0.396883,-0.74158 0.335922,-2.74187 -0.101797,-3.34026 -0.327139,-0.44722 -0.687805,-0.51023 -2.790882,-0.4876 -1.328355,0.0143 -2.541972,0.15276 -2.696925,0.30772 -0.41775,0.41775 -0.573926,2.46964 -0.251501,3.30431 0.280615,0.72644 0.285314,0.72761 2.92414,0.72761 2.342339,0 2.674237,-0.0582 2.916965,-0.51178 z m -5.105968,-0.45836 c -0.09701,-0.097 -0.176389,-0.62861 -0.176389,-1.18132 0,-1.26194 0.484537,-1.55271 2.587432,-1.55271 2.127302,0 2.95743,0.91939 2.165759,2.39864 -0.234843,0.43881 -0.568057,0.51178 -2.337153,0.51178 -1.134793,0 -2.142636,-0.0794 -2.239649,-0.17639 z m 12.998265,-1.08251 c 0.07589,-1.87353 0.06033,-1.92699 -0.637992,-2.19249 -0.393676,-0.14967 -1.738364,-0.23802 -2.988197,-0.19631 l -2.272424,0.0758 -0.07699,2.19158 -0.07699,2.19158 2.987404,-0.0749 2.987405,-0.0749 z m -5.186785,0.79588 c 0.07603,-0.3948 0.399976,-0.46303 2.198589,-0.46303 1.798613,0 2.122558,0.0682 2.198589,0.46303 0.07937,0.41214 -0.16219,0.46302 -2.198589,0.46302 -2.036399,0 -2.277962,-0.0509 -2.198589,-0.46302 z m 0.241806,-1.36642 c -0.203107,-0.1286 -0.29614,-0.42443 -0.206742,-0.6574 0.125788,-0.3278 0.548412,-0.42358 1.868998,-0.42358 0.938551,0 1.894788,0.0723 2.124971,0.1606 0.612816,0.23516 0.510489,0.81137 -0.176798,0.99555 -0.892207,0.23911 -3.189646,0.19127 -3.610429,-0.0752 z m 13.2272684,5.69685 c -0.2080684,-0.2507 -0.2807468,-1.72036 -0.2308331,-4.66786 0.063682,-3.76076 0.1310984,-4.33866 0.5358685,-4.59367 0.8152977,-0.51366 1.3322036,0.15524 2.8093512,3.6354 0.78115844,1.84042 1.50369054,3.34622 1.60562921,3.34622 0.10193602,0 0.82331449,-1.54647 1.60306019,-3.43661 1.403469,-3.40204 1.7989735,-3.91445 2.7420808,-3.55254 0.3793066,0.14555 0.4341495,0.74433 0.4341495,4.74019 0,3.64161 -0.074303,4.60211 -0.3646329,4.71352 -0.7500752,0.28783 -0.9582838,-0.44311 -0.9582838,-3.36415 0,-1.60863 -0.100113,-2.79799 -0.2238243,-2.65906 -0.1231027,0.13825 -0.7290752,1.46601 -1.3466074,2.9506 -1.72964742,4.15818 -2.06982222,4.18241 -3.7158216,0.26457 -0.6237182,-1.48458 -1.237279,-2.81234 -1.363472,-2.95059 -0.1309238,-0.14342 -0.2294414,0.94152 -0.2294414,2.52677 0,1.80799 -0.1108736,2.889 -0.3175,3.09563 -0.4099957,0.41 -0.6073695,0.40024 -0.9797229,-0.0484 z m 12.4097229,0.19242 c -1.6456527,-0.65695 -2.1354838,-2.65904 -0.9280763,-3.79334 0.4754827,-0.44669 1.065911,-0.6532 2.1166667,-0.74034 2.4441493,-0.20269 1.6106963,-1.48052 -0.8640181,-1.3247 -1.1004761,0.0693 -1.2506139,0.0152 -1.2506139,-0.45041 0,-1.10017 3.1067873,-1.20421 4.4128903,-0.14778 0.574212,0.46444 0.614193,0.68349 0.614193,3.36499 v 2.8682 l -0.79375,0.0457 c -0.436563,0.0252 -1.27,0.11105 -1.8520833,0.1909 -0.5820834,0.0798 -1.2369271,0.0739 -1.4552084,-0.0133 z m 1.9847137,-1.41413 c 0.55554,-0.21121 0.679328,-0.41172 0.612537,-0.99219 -0.09055,-0.78696 -0.7685195,-1.04408 -1.9627031,-0.74436 -0.769075,0.19303 -0.8800386,1.30282 -0.1715267,1.71549 0.5858377,0.34122 0.6763252,0.34247 1.5216928,0.0211 z m 4.62987,1.35197 c -0.400299,-0.11069 -0.694196,-0.40875 -0.744371,-0.7549 -0.07714,-0.53218 0.04256,-0.57747 1.719792,-0.65062 1.605369,-0.07 1.811464,-0.14 1.882732,-0.63944 0.0863,-0.60481 -0.504158,-0.88408 -1.88336,-0.89077 -1.053742,-0.005 -1.671732,-0.40356 -1.974947,-1.27336 -0.403802,-1.15835 0.189695,-2.30054 1.403556,-2.70115 1.163164,-0.38388 3.271247,-0.20552 3.593772,0.30407 0.42572,0.67264 0.05675,0.88901 -1.377564,0.80784 -2.748354,-0.15554 -3.334213,1.3674 -0.612844,1.59308 1.165762,0.0967 1.633985,0.26598 2.005939,0.72532 1.67015,2.06255 -0.943033,4.32878 -4.012705,3.47993 z m 6.558854,-0.30887 c -0.248933,-0.14512 -0.575691,-0.70705 -0.726131,-1.24873 -0.295264,-1.06315 -0.378753,-5.56984 -0.115874,-6.25489 0.218562,-0.56956 0.820838,-0.52741 1.14603,0.0802 0.146801,0.27431 0.567708,0.57423 0.935349,0.6665 0.854419,0.21445 0.857801,0.78022 0.007,1.16788 -0.613198,0.27939 -0.661458,0.43555 -0.661458,2.14024 0,1.8043 0.259911,2.44836 1.101209,2.72879 0.178393,0.0595 0.241911,0.30108 0.14532,0.55279 -0.189127,0.49286 -1.12608,0.57841 -1.831425,0.16721 z m 4.490826,-0.13423 c -0.968553,-0.52553 -1.52468,-1.6773 -1.52468,-3.1577 0,-1.51103 0.565412,-2.64646 1.57884,-3.17052 2.045703,-1.05787 4.241993,0.0888 4.241993,2.21482 0,1.33811 -0.453557,1.61716 -2.62844,1.61716 -1.16799,0 -1.604893,0.0969 -1.604893,0.35587 0,0.73635 0.942689,1.23163 2.344242,1.23163 1.018077,0 1.418858,0.1103 1.539074,0.42358 0.0894,0.23297 -0.0036,0.5288 -0.20674,0.6574 -0.582647,0.36893 -2.942334,0.26024 -3.739396,-0.17224 z m 2.660909,-4.67905 c -0.15494,-1.09096 -2.598089,-0.87389 -2.598089,0.23083 0,0.26165 0.378412,0.36448 1.341318,0.36448 1.23966,0 1.33491,-0.0451 1.256771,-0.59531 z m 3.124128,4.6887 c -0.231759,-0.60395 -0.200583,-5.74605 0.0371,-6.11958 0.107231,-0.16852 0.611423,-0.3099 1.120429,-0.31418 0.509003,-0.004 1.159026,-0.045 1.444492,-0.0905 0.784456,-0.12499 0.855922,0.78636 0.08466,1.07959 -1.047287,0.39818 -1.239922,0.88689 -1.320231,3.3494 -0.07119,2.18276 -0.121031,2.37373 -0.638847,2.44761 -0.331267,0.0473 -0.629714,-0.0973 -0.727605,-0.35237 z"
                   id="path5225"
                   inkscape:connector-curvature="0" />
                <path
                   style="fill:#ef8e23;stroke-width:0.26458332"
                   d="m -26.106125,-250.79226 c -0.436562,-0.22164 -1.329531,-0.75029 -1.984375,-1.17479 -0.654844,-0.4245 -1.381599,-0.78118 -1.615011,-0.79262 -1.275481,-0.0625 -3.078799,-3.19028 -3.825624,-6.63538 -0.620935,-2.86437 -0.620985,-10.1105 -8.6e-5,-12.43542 0.776068,-2.90593 1.424012,-4.12518 2.735052,-5.1466 1.699998,-1.32445 2.808345,-1.55902 6.554602,-1.38716 3.260079,0.14956 5.575787,0.74315 8.851067,2.26881 2.611075,1.21628 5.6895841,3.98314 6.3424964,5.70042 0.1465607,0.38549 0.3950124,2.08216 0.5521193,3.77039 l 0.2856468,3.06951 -1.1914902,2.46451 c -0.9484443,1.96178 -1.5863333,2.85843 -3.1271103,4.39558 -4.079041,4.06945 -11.140938,7.13962 -13.577287,5.90275 z m 13.229167,-11.91008 c 0,-0.51487 -0.199864,-0.53107 -7.395363,-0.59959 -5.511809,-0.0525 -7.448176,-0.15357 -7.60272,-0.39688 -0.114046,-0.17955 -0.209179,-1.42778 -0.211407,-2.77384 -0.0038,-2.26966 -0.04248,-2.4474 -0.533219,-2.4474 -0.500563,0 -0.529166,0.17639 -0.529166,3.26319 0,1.79476 0.08109,3.34429 0.180197,3.4434 0.09911,0.0991 3.76028,0.14871 8.135937,0.11024 7.756033,-0.0682 7.955741,-0.0832 7.955741,-0.59912 z m -7.68792,-2.04325 c 0.587835,-0.83925 0.535142,-2.90528 -0.09391,-3.68213 -0.465057,-0.57432 -0.701324,-0.62462 -2.933793,-0.62462 -2.267844,0 -2.463183,0.0434 -2.961309,0.6586 -0.42573,0.52576 -0.510289,0.93614 -0.419206,2.03448 0.172245,2.07704 0.364641,2.20171 3.397909,2.20171 2.385211,0 2.632231,-0.0482 3.010311,-0.58804 z m -4.967983,-0.91127 c -0.292322,-0.29232 -0.198454,-1.54779 0.141111,-1.88736 0.174625,-0.17462 0.999558,-0.3175 1.833184,-0.3175 1.974641,0 2.692532,0.64439 2.186633,1.96274 -0.125943,0.3282 -0.573178,0.41851 -2.072569,0.41851 -1.051584,0 -1.991345,-0.0794 -2.088359,-0.17639 z m 12.735278,1.18181 c 0.184478,-0.18448 0.3175,-1.06874 0.3175,-2.11057 0,-2.43501 -0.321673,-2.64629 -3.871361,-2.54283 l -2.610931,0.0761 -0.07607,2.44739 -0.07607,2.4474 h 2.99972 c 1.980338,0 3.107615,-0.10789 3.317221,-0.3175 z m -4.709584,-1.27 c 0,-0.149 0.744448,-0.26458 1.704177,-0.26458 0.937297,0 1.777761,0.11906 1.867698,0.26458 0.103116,0.16684 -0.526419,0.26458 -1.704176,0.26458 -1.068744,0 -1.867699,-0.11318 -1.867699,-0.26458 z m -0.132291,-1.85208 c 0.08994,-0.14552 0.923374,-0.26459 1.852083,-0.26459 0.928709,0 1.762146,0.11907 1.852083,0.26459 0.103549,0.16754 -0.575721,0.26458 -1.852083,0.26458 -1.276362,0 -1.955632,-0.097 -1.852083,-0.26458 z m 13.2709679,6.17131 c -0.2585853,-0.25858 -0.2031022,-8.36171 0.0601,-8.77703 0.1243488,-0.19622 0.4475109,-0.31412 0.7181347,-0.26201 0.351446,0.0677 0.921303,1.11232 1.9943154,3.65589 0.8262514,1.95862 1.61184694,3.59765 1.7457658,3.64229 0.27879675,0.0929 0.42013187,-0.19455 1.9375385,-3.94102 1.2146703,-2.99903 1.5848965,-3.5531 2.2130781,-3.31204 0.6117352,0.23474 0.6317086,8.90802 0.020516,8.90802 -0.3316102,0 -0.396875,-0.54386 -0.396875,-3.30729 0,-1.81901 -0.1024466,-3.30729 -0.2276581,-3.30729 -0.1252114,0 -0.8517016,1.48874 -1.614424,3.30832 -0.7627249,1.81957 -1.50514045,3.38147 -1.64981726,3.47089 -0.43300385667,0.26761 -0.86787302,-0.42138 -2.06870834,-3.27758 -1.6535691,-3.93303 -1.8477256,-3.96026 -1.8477256,-0.25913 0,2.22265 -0.095697,3.12213 -0.3550735,3.33739 -0.1952889,0.16208 -0.4334139,0.21634 -0.5291667,0.12059 z m 12.0801817,-0.0766 c -0.7212832,-0.30447 -1.1417749,-1.06589 -1.1417749,-2.06752 0,-1.15701 0.8134535,-1.72672 2.6557472,-1.85998 1.2731961,-0.0921 1.5775861,-0.20216 1.5775861,-0.57047 0,-0.89486 -0.9429089,-1.41987 -2.2326071,-1.2431 -1.2783238,0.17522 -1.8070274,-0.15545 -0.9671976,-0.60491 1.2617106,-0.67525 3.5188207,-0.10105 3.9800717,1.01251 0.169442,0.40907 0.267126,1.70293 0.223425,2.95939 l -0.07765,2.23253 -0.79375,0.0554 c -0.436563,0.0305 -1.2104691,0.11721 -1.719792,0.19277 -0.5093229,0.0756 -1.1861482,0.0276 -1.5040584,-0.10662 z m 2.7728594,-1.13247 c 0.190146,-0.15781 0.309875,-0.65425 0.266065,-1.10321 -0.07157,-0.73337 -0.1793,-0.82456 -1.0606427,-0.89773 -1.3724599,-0.11396 -2.0617233,0.31728 -2.0617233,1.28991 0,0.57336 0.1648672,0.86081 0.5953125,1.03795 0.658204,0.27086 1.7268931,0.11634 2.2609885,-0.32692 z m 4.089012,1.12899 c -1.059474,-0.45081 -0.649807,-0.79953 0.93927,-0.79953 1.594737,0 2.169584,-0.29617 2.169584,-1.1178 0,-0.55658 -0.966084,-0.99698 -2.200037,-1.00291 -1.054344,-0.005 -1.402583,-0.22358 -1.730383,-1.08576 -0.324935,-0.85464 0.105251,-1.80904 1.025218,-2.27452 0.802325,-0.40595 2.49066,-0.43871 3.19459,-0.062 0.845714,0.45261 0.317415,0.76474 -1.025232,0.60572 -1.011348,-0.11978 -1.376505,-0.0446 -1.910857,0.39364 -0.978398,0.80233 -0.471102,1.46041 1.263054,1.63847 0.778182,0.0799 1.570755,0.34663 1.890866,0.63632 0.72821,0.65902 0.701747,1.77049 -0.05917,2.48533 -0.694851,0.65278 -2.642619,0.97204 -3.556899,0.58302 z m 6.39205,-0.56157 c -0.418373,-0.46229 -0.519219,-1.06714 -0.59948,-3.59549 -0.09884,-3.11359 0.149334,-4.12579 0.740664,-3.02087 0.164124,0.30666 0.525314,0.55757 0.802648,0.55757 0.799147,0 0.898202,0.50495 0.154517,0.7877 -0.648888,0.2467 -0.677379,0.34658 -0.677379,2.37465 0,1.9663 0.04712,2.14799 0.661459,2.55052 0.363802,0.23837 0.661458,0.53878 0.661458,0.66756 0,0.45623 -1.248283,0.226 -1.743887,-0.32164 z m 4.244559,-0.3302 c -0.800213,-0.80021 -0.913172,-1.07855 -0.913172,-2.2501 0,-1.66219 0.41751,-2.61341 1.361289,-3.10146 0.764172,-0.39517 2.001039,-0.4916 2.727899,-0.21268 1.017466,0.39044 1.63508,3.05261 0.783963,3.37922 -0.230182,0.0883 -1.182682,0.1606 -2.116666,0.1606 -1.521762,0 -1.698152,0.055 -1.698152,0.52916 0,1.0084 0.924957,1.5875 2.53559,1.5875 2.039482,0 1.822765,0.63176 -0.25426,0.7412 -1.419587,0.0748 -1.569881,0.0232 -2.426491,-0.83344 z m 3.320161,-3.6913 c 0,-0.82474 -0.478615,-1.24354 -1.421146,-1.24354 -0.908687,0 -1.753854,0.65726 -1.753854,1.36392 0,0.42026 0.22084,0.48816 1.5875,0.48816 1.480132,0 1.5875,-0.0412 1.5875,-0.60854 z m 3.024616,4.22868 c -0.07358,-0.19174 -0.09961,-1.58962 -0.05784,-3.1064 l 0.07594,-2.75778 0.926041,-0.0188 c 0.509323,-0.0104 1.089753,-0.071 1.289844,-0.13475 0.200091,-0.0638 0.418372,0.0329 0.485069,0.21479 0.0667,0.1819 -0.06725,0.33072 -0.297657,0.33072 -0.230407,0 -0.657047,0.23813 -0.948089,0.52917 -0.450771,0.45077 -0.529167,0.88194 -0.529167,2.91042 0,1.96197 -0.07134,2.38125 -0.405177,2.38125 -0.222851,0 -0.465379,-0.15688 -0.538957,-0.34862 z"
                   id="path5223"
                   inkscape:connector-curvature="0" />
                <path
                   style="fill:#a56b2e;stroke-width:0.26458332"
                   d="m -28.504611,-252.22001 c -2.957525,-1.79858 -3.769372,-14.92107 -1.299212,-21.00016 0.784983,-1.93186 1.478088,-2.74381 2.903948,-3.40189 1.327832,-0.61283 4.184927,-0.65601 6.33591,-0.0958 3.713325,0.9672 8.312259,3.85989 10.7020211,6.73148 1.1265111,1.35364 1.3506106,1.7977 1.3506106,2.67631 0,3.11986 -5.2980417,9.16592 -10.9130977,12.4539 -2.25123,1.31824 -4.926489,2.4485 -6.417111,2.71114 -0.582083,0.10256 -1.237326,0.23836 -1.456094,0.30178 -0.218769,0.0634 -0.761908,-0.10615 -1.206975,-0.37681 z m 15.627653,-10.48233 c 0,-0.51487 -0.199864,-0.53107 -7.395363,-0.59959 -5.511809,-0.0525 -7.448176,-0.15357 -7.60272,-0.39688 -0.114046,-0.17955 -0.209179,-1.42778 -0.211407,-2.77384 -0.0038,-2.26966 -0.04248,-2.4474 -0.533219,-2.4474 -0.500563,0 -0.529166,0.17639 -0.529166,3.26319 0,1.79476 0.08109,3.34429 0.180197,3.4434 0.09911,0.0991 3.76028,0.14871 8.135937,0.11024 7.756033,-0.0682 7.955741,-0.0832 7.955741,-0.59912 z m -7.68792,-2.04325 c 0.587835,-0.83925 0.535142,-2.90528 -0.09391,-3.68213 -0.465057,-0.57432 -0.701324,-0.62462 -2.933793,-0.62462 -2.267844,0 -2.463183,0.0434 -2.961309,0.6586 -0.42573,0.52576 -0.510289,0.93614 -0.419206,2.03448 0.172245,2.07704 0.364641,2.20171 3.397909,2.20171 2.385211,0 2.632231,-0.0482 3.010311,-0.58804 z m -4.967983,-0.91127 c -0.292322,-0.29232 -0.198454,-1.54779 0.141111,-1.88736 0.174625,-0.17462 0.999558,-0.3175 1.833184,-0.3175 1.974641,0 2.692532,0.64439 2.186633,1.96274 -0.125943,0.3282 -0.573178,0.41851 -2.072569,0.41851 -1.051584,0 -1.991345,-0.0794 -2.088359,-0.17639 z m 12.735278,1.18181 c 0.184478,-0.18448 0.3175,-1.06874 0.3175,-2.11057 0,-2.43501 -0.321673,-2.64629 -3.871361,-2.54283 l -2.610931,0.0761 -0.07607,2.44739 -0.07607,2.4474 h 2.99972 c 1.980338,0 3.107615,-0.10789 3.317221,-0.3175 z m -4.709584,-1.27 c 0,-0.149 0.744448,-0.26458 1.704177,-0.26458 0.937297,0 1.777761,0.11906 1.867698,0.26458 0.103116,0.16684 -0.526419,0.26458 -1.704176,0.26458 -1.068744,0 -1.867699,-0.11318 -1.867699,-0.26458 z m -0.132291,-1.85208 c 0.08994,-0.14552 0.923374,-0.26459 1.852083,-0.26459 0.928709,0 1.762146,0.11907 1.852083,0.26459 0.103549,0.16754 -0.575721,0.26458 -1.852083,0.26458 -1.276362,0 -1.955632,-0.097 -1.852083,-0.26458 z m 13.2709679,6.17131 c -0.2585853,-0.25858 -0.2031022,-8.36171 0.0601,-8.77703 0.1243488,-0.19622 0.4475109,-0.31412 0.7181347,-0.26201 0.351446,0.0677 0.921303,1.11232 1.9943154,3.65589 0.8262514,1.95862 1.61184694,3.59765 1.7457658,3.64229 0.27879675,0.0929 0.42013187,-0.19455 1.9375385,-3.94102 1.2146703,-2.99903 1.5848965,-3.5531 2.2130781,-3.31204 0.6117352,0.23474 0.6317086,8.90802 0.020516,8.90802 -0.3316102,0 -0.396875,-0.54386 -0.396875,-3.30729 0,-1.81901 -0.1024466,-3.30729 -0.2276581,-3.30729 -0.1252114,0 -0.8517016,1.48874 -1.614424,3.30832 -0.7627249,1.81957 -1.50514045,3.38147 -1.64981726,3.47089 -0.43300385667,0.26761 -0.86787302,-0.42138 -2.06870834,-3.27758 -1.6535691,-3.93303 -1.8477256,-3.96026 -1.8477256,-0.25913 0,2.22265 -0.095697,3.12213 -0.3550735,3.33739 -0.1952889,0.16208 -0.4334139,0.21634 -0.5291667,0.12059 z m 12.0801817,-0.0766 c -0.7212832,-0.30447 -1.1417749,-1.06589 -1.1417749,-2.06752 0,-1.15701 0.8134535,-1.72672 2.6557472,-1.85998 1.2731961,-0.0921 1.5775861,-0.20216 1.5775861,-0.57047 0,-0.89486 -0.9429089,-1.41987 -2.2326071,-1.2431 -1.2783238,0.17522 -1.8070274,-0.15545 -0.9671976,-0.60491 1.2617106,-0.67525 3.5188207,-0.10105 3.9800717,1.01251 0.169442,0.40907 0.267126,1.70293 0.223425,2.95939 l -0.07765,2.23253 -0.79375,0.0554 c -0.436563,0.0305 -1.2104691,0.11721 -1.719792,0.19277 -0.5093229,0.0756 -1.1861482,0.0276 -1.5040584,-0.10662 z m 2.7728594,-1.13247 c 0.190146,-0.15781 0.309875,-0.65425 0.266065,-1.10321 -0.07157,-0.73337 -0.1793,-0.82456 -1.0606427,-0.89773 -1.3724599,-0.11396 -2.0617233,0.31728 -2.0617233,1.28991 0,0.57336 0.1648672,0.86081 0.5953125,1.03795 0.658204,0.27086 1.7268931,0.11634 2.2609885,-0.32692 z m 4.089012,1.12899 c -1.059474,-0.45081 -0.649807,-0.79953 0.93927,-0.79953 1.594737,0 2.169584,-0.29617 2.169584,-1.1178 0,-0.55658 -0.966084,-0.99698 -2.200037,-1.00291 -1.054344,-0.005 -1.402583,-0.22358 -1.730383,-1.08576 -0.324935,-0.85464 0.105251,-1.80904 1.025218,-2.27452 0.802325,-0.40595 2.49066,-0.43871 3.19459,-0.062 0.845714,0.45261 0.317415,0.76474 -1.025232,0.60572 -1.011348,-0.11978 -1.376505,-0.0446 -1.910857,0.39364 -0.978398,0.80233 -0.471102,1.46041 1.263054,1.63847 0.778182,0.0799 1.570755,0.34663 1.890866,0.63632 0.72821,0.65902 0.701747,1.77049 -0.05917,2.48533 -0.694851,0.65278 -2.642619,0.97204 -3.556899,0.58302 z m 6.39205,-0.56157 c -0.418373,-0.46229 -0.519219,-1.06714 -0.59948,-3.59549 -0.09884,-3.11359 0.149334,-4.12579 0.740664,-3.02087 0.164124,0.30666 0.525314,0.55757 0.802648,0.55757 0.799147,0 0.898202,0.50495 0.154517,0.7877 -0.648888,0.2467 -0.677379,0.34658 -0.677379,2.37465 0,1.9663 0.04712,2.14799 0.661459,2.55052 0.363802,0.23837 0.661458,0.53878 0.661458,0.66756 0,0.45623 -1.248283,0.226 -1.743887,-0.32164 z m 4.244559,-0.3302 c -0.800213,-0.80021 -0.913172,-1.07855 -0.913172,-2.2501 0,-1.66219 0.41751,-2.61341 1.361289,-3.10146 0.764172,-0.39517 2.001039,-0.4916 2.727899,-0.21268 1.017466,0.39044 1.63508,3.05261 0.783963,3.37922 -0.230182,0.0883 -1.182682,0.1606 -2.116666,0.1606 -1.521762,0 -1.698152,0.055 -1.698152,0.52916 0,1.0084 0.924957,1.5875 2.53559,1.5875 2.039482,0 1.822765,0.63176 -0.25426,0.7412 -1.419587,0.0748 -1.569881,0.0232 -2.426491,-0.83344 z m 3.320161,-3.6913 c 0,-0.82474 -0.478615,-1.24354 -1.421146,-1.24354 -0.908687,0 -1.753854,0.65726 -1.753854,1.36392 0,0.42026 0.22084,0.48816 1.5875,0.48816 1.480132,0 1.5875,-0.0412 1.5875,-0.60854 z m 3.024616,4.22868 c -0.07358,-0.19174 -0.09961,-1.58962 -0.05784,-3.1064 l 0.07594,-2.75778 0.926041,-0.0188 c 0.509323,-0.0104 1.089753,-0.071 1.289844,-0.13475 0.200091,-0.0638 0.418372,0.0329 0.485069,0.21479 0.0667,0.1819 -0.06725,0.33072 -0.297657,0.33072 -0.230407,0 -0.657047,0.23813 -0.948089,0.52917 -0.450771,0.45077 -0.529167,0.88194 -0.529167,2.91042 0,1.96197 -0.07134,2.38125 -0.405177,2.38125 -0.222851,0 -0.465379,-0.15688 -0.538957,-0.34862 z"
                   id="path5221"
                   inkscape:connector-curvature="0" />
                <path
                   style="fill:#5e5c5c;stroke-width:0.26458332"
                   d="m -29.079783,-253.483 c -2.411295,-5.65219 -2.401164,-15.29841 0.02124,-20.221 1.166068,-2.36958 2.367021,-3.03885 5.342414,-2.97726 5.107556,0.10573 11.25146,3.60615 14.4613931,8.23923 0.7887758,1.13848 0.7890669,1.14033 0.3322108,2.11667 -2.9439049,6.29136 -11.8761739,13.15819 -18.1324189,13.9396 l -1.477988,0.1846 -0.546849,-1.28184 z m 16.202825,-9.21934 c 0,-0.51487 -0.199864,-0.53107 -7.395363,-0.59959 -5.511809,-0.0525 -7.448176,-0.15357 -7.60272,-0.39688 -0.114046,-0.17955 -0.209179,-1.42778 -0.211407,-2.77384 -0.0038,-2.26966 -0.04248,-2.4474 -0.533219,-2.4474 -0.500563,0 -0.529166,0.17639 -0.529166,3.26319 0,1.79476 0.08109,3.34429 0.180197,3.4434 0.09911,0.0991 3.76028,0.14871 8.135937,0.11024 7.756033,-0.0682 7.955741,-0.0832 7.955741,-0.59912 z m -7.68792,-2.04325 c 0.587835,-0.83925 0.535142,-2.90528 -0.09391,-3.68213 -0.465057,-0.57432 -0.701324,-0.62462 -2.933793,-0.62462 -2.267844,0 -2.463183,0.0434 -2.961309,0.6586 -0.42573,0.52576 -0.510289,0.93614 -0.419206,2.03448 0.172245,2.07704 0.364641,2.20171 3.397909,2.20171 2.385211,0 2.632231,-0.0482 3.010311,-0.58804 z m -4.967983,-0.91127 c -0.292322,-0.29232 -0.198454,-1.54779 0.141111,-1.88736 0.174625,-0.17462 0.999558,-0.3175 1.833184,-0.3175 1.974641,0 2.692532,0.64439 2.186633,1.96274 -0.125943,0.3282 -0.573178,0.41851 -2.072569,0.41851 -1.051584,0 -1.991345,-0.0794 -2.088359,-0.17639 z m 12.735278,1.18181 c 0.184478,-0.18448 0.3175,-1.06874 0.3175,-2.11057 0,-2.43501 -0.321673,-2.64629 -3.871361,-2.54283 l -2.610931,0.0761 -0.07607,2.44739 -0.07607,2.4474 h 2.99972 c 1.980338,0 3.107615,-0.10789 3.317221,-0.3175 z m -4.709584,-1.27 c 0,-0.149 0.744448,-0.26458 1.704177,-0.26458 0.937297,0 1.777761,0.11906 1.867698,0.26458 0.103116,0.16684 -0.526419,0.26458 -1.704176,0.26458 -1.068744,0 -1.867699,-0.11318 -1.867699,-0.26458 z m -0.132291,-1.85208 c 0.08994,-0.14552 0.923374,-0.26459 1.852083,-0.26459 0.928709,0 1.762146,0.11907 1.852083,0.26459 0.103549,0.16754 -0.575721,0.26458 -1.852083,0.26458 -1.276362,0 -1.955632,-0.097 -1.852083,-0.26458 z m 13.2709679,6.17131 c -0.2585853,-0.25858 -0.2031022,-8.36171 0.0601,-8.77703 0.1243488,-0.19622 0.4475109,-0.31412 0.7181347,-0.26201 0.351446,0.0677 0.921303,1.11232 1.9943154,3.65589 0.8262514,1.95862 1.61184694,3.59765 1.7457658,3.64229 0.27879675,0.0929 0.42013187,-0.19455 1.9375385,-3.94102 1.2146703,-2.99903 1.5848965,-3.5531 2.2130781,-3.31204 0.6117352,0.23474 0.6317086,8.90802 0.020516,8.90802 -0.3316102,0 -0.396875,-0.54386 -0.396875,-3.30729 0,-1.81901 -0.1024466,-3.30729 -0.2276581,-3.30729 -0.1252114,0 -0.8517016,1.48874 -1.614424,3.30832 -0.7627249,1.81957 -1.50514045,3.38147 -1.64981726,3.47089 -0.43300385667,0.26761 -0.86787302,-0.42138 -2.06870834,-3.27758 -1.6535691,-3.93303 -1.8477256,-3.96026 -1.8477256,-0.25913 0,2.22265 -0.095697,3.12213 -0.3550735,3.33739 -0.1952889,0.16208 -0.4334139,0.21634 -0.5291667,0.12059 z m 12.0801817,-0.0766 c -0.7212832,-0.30447 -1.1417749,-1.06589 -1.1417749,-2.06752 0,-1.15701 0.8134535,-1.72672 2.6557472,-1.85998 1.2731961,-0.0921 1.5775861,-0.20216 1.5775861,-0.57047 0,-0.89486 -0.9429089,-1.41987 -2.2326071,-1.2431 -1.2783238,0.17522 -1.8070274,-0.15545 -0.9671976,-0.60491 1.2617106,-0.67525 3.5188207,-0.10105 3.9800717,1.01251 0.169442,0.40907 0.267126,1.70293 0.223425,2.95939 l -0.07765,2.23253 -0.79375,0.0554 c -0.436563,0.0305 -1.2104691,0.11721 -1.719792,0.19277 -0.5093229,0.0756 -1.1861482,0.0276 -1.5040584,-0.10662 z m 2.7728594,-1.13247 c 0.190146,-0.15781 0.309875,-0.65425 0.266065,-1.10321 -0.07157,-0.73337 -0.1793,-0.82456 -1.0606427,-0.89773 -1.3724599,-0.11396 -2.0617233,0.31728 -2.0617233,1.28991 0,0.57336 0.1648672,0.86081 0.5953125,1.03795 0.658204,0.27086 1.7268931,0.11634 2.2609885,-0.32692 z m 4.089012,1.12899 c -1.059474,-0.45081 -0.649807,-0.79953 0.93927,-0.79953 1.594737,0 2.169584,-0.29617 2.169584,-1.1178 0,-0.55658 -0.966084,-0.99698 -2.200037,-1.00291 -1.054344,-0.005 -1.402583,-0.22358 -1.730383,-1.08576 -0.324935,-0.85464 0.105251,-1.80904 1.025218,-2.27452 0.802325,-0.40595 2.49066,-0.43871 3.19459,-0.062 0.845714,0.45261 0.317415,0.76474 -1.025232,0.60572 -1.011348,-0.11978 -1.376505,-0.0446 -1.910857,0.39364 -0.978398,0.80233 -0.471102,1.46041 1.263054,1.63847 0.778182,0.0799 1.570755,0.34663 1.890866,0.63632 0.72821,0.65902 0.701747,1.77049 -0.05917,2.48533 -0.694851,0.65278 -2.642619,0.97204 -3.556899,0.58302 z m 6.39205,-0.56157 c -0.418373,-0.46229 -0.519219,-1.06714 -0.59948,-3.59549 -0.09884,-3.11359 0.149334,-4.12579 0.740664,-3.02087 0.164124,0.30666 0.525314,0.55757 0.802648,0.55757 0.799147,0 0.898202,0.50495 0.154517,0.7877 -0.648888,0.2467 -0.677379,0.34658 -0.677379,2.37465 0,1.9663 0.04712,2.14799 0.661459,2.55052 0.363802,0.23837 0.661458,0.53878 0.661458,0.66756 0,0.45623 -1.248283,0.226 -1.743887,-0.32164 z m 4.244559,-0.3302 c -0.800213,-0.80021 -0.913172,-1.07855 -0.913172,-2.2501 0,-1.66219 0.41751,-2.61341 1.361289,-3.10146 0.764172,-0.39517 2.001039,-0.4916 2.727899,-0.21268 1.017466,0.39044 1.63508,3.05261 0.783963,3.37922 -0.230182,0.0883 -1.182682,0.1606 -2.116666,0.1606 -1.521762,0 -1.698152,0.055 -1.698152,0.52916 0,1.0084 0.924957,1.5875 2.53559,1.5875 2.039482,0 1.822765,0.63176 -0.25426,0.7412 -1.419587,0.0748 -1.569881,0.0232 -2.426491,-0.83344 z m 3.320161,-3.6913 c 0,-0.82474 -0.478615,-1.24354 -1.421146,-1.24354 -0.908687,0 -1.753854,0.65726 -1.753854,1.36392 0,0.42026 0.22084,0.48816 1.5875,0.48816 1.480132,0 1.5875,-0.0412 1.5875,-0.60854 z m 3.024616,4.22868 c -0.07358,-0.19174 -0.09961,-1.58962 -0.05784,-3.1064 l 0.07594,-2.75778 0.926041,-0.0188 c 0.509323,-0.0104 1.089753,-0.071 1.289844,-0.13475 0.200091,-0.0638 0.418372,0.0329 0.485069,0.21479 0.0667,0.1819 -0.06725,0.33072 -0.297657,0.33072 -0.230407,0 -0.657047,0.23813 -0.948089,0.52917 -0.450771,0.45077 -0.529167,0.88194 -0.529167,2.91042 0,1.96197 -0.07134,2.38125 -0.405177,2.38125 -0.222851,0 -0.465379,-0.15688 -0.538957,-0.34862 z"
                   id="path5219"
                   inkscape:connector-curvature="0" />
                <path
                   style="fill:#262020;stroke-width:0.26458332"
                   d="m -28.263171,-252.52531 c -0.702954,-0.27035 -1.592171,-2.51275 -2.094661,-5.28224 -0.533473,-2.94026 -0.467504,-9.39634 0.124974,-12.23057 0.695205,-3.32564 1.703985,-5.20987 3.190608,-5.95953 2.490159,-1.25572 7.189406,-0.50522 11.285023,1.80228 2.439595,1.37449 6.5658748,5.24361 6.8655736,6.43771 0.5622158,2.24004 -4.4168486,8.32607 -9.5801096,11.70999 -3.916055,2.56652 -8.235971,4.12056 -9.791408,3.52236 z m 15.299234,-9.42429 c 0.583819,-0.52835 0.632362,-1.37382 0.09081,-1.58163 -0.32316,-0.12401 -0.297397,-0.22838 0.144899,-0.58701 0.473387,-0.38384 0.528489,-0.68935 0.45919,-2.54595 -0.0727,-1.94773 -0.129554,-2.13539 -0.740212,-2.44349 -0.402495,-0.20308 -1.72577,-0.33526 -3.379986,-0.33764 -2.578091,-0.004 -2.730114,0.0269 -2.942814,0.59142 -0.328788,0.87268 -0.343426,4.10548 -0.02132,4.70735 0.254802,0.4761 0.187502,0.51817 -0.828961,0.51817 h -1.106278 l 0.700094,-0.64883 c 0.609482,-0.56485 0.700093,-0.85748 0.700093,-2.26098 0,-1.3589 -0.102022,-1.71419 -0.649431,-2.26159 -0.592605,-0.59261 -0.856286,-0.64944 -3.013397,-0.64944 -2.973889,0 -3.488174,0.3254 -3.680681,2.32886 -0.152714,1.58932 0.250452,2.77714 1.078488,3.17746 0.516132,0.24953 0.472615,0.28058 -0.415708,0.29661 l -0.992187,0.0179 v -2.49465 c 0,-1.91508 -0.09659,-2.59123 -0.415774,-2.91041 -0.499013,-0.49901 -0.700383,-0.5167 -1.11881,-0.0983 -0.213742,0.21375 -0.3175,1.41995 -0.3175,3.69102 0,2.93375 0.06036,3.40868 0.463021,3.64321 0.284076,0.16546 3.369221,0.27279 7.982812,0.27773 6.633202,0.007 7.576839,-0.0436 8.003647,-0.42984 z m -12.48073,-4.56089 c 0,-0.90142 0.358954,-1.08664 2.10591,-1.08664 1.412585,0 2.007743,0.44955 1.734579,1.31022 -0.151537,0.47745 -0.390027,0.54186 -2.006235,0.54186 h -1.834254 z m 25.22705015,4.29317 c -0.0952738,-0.26676 -0.21079619,-0.55712 -0.25671463,-0.64524 -0.0459184,-0.0881 0.19055027,-0.10783 0.52548631,-0.0438 0.51891407,0.0992 0.67838638,-0.0653 1.07834637,-1.11263 0.2581567,-0.67597 0.5161863,-1.18223 0.5733998,-1.12502 0.181303,0.1813 -1.14922304,3.21236 -1.45482738,3.31423 -0.16085343,0.0536 -0.37041402,-0.12078 -0.46569047,-0.38754 z m 7.46789105,0.0252 c -0.5613903,-0.56139 -0.5255313,-1.78413 0.06808,-2.32134 0.2661206,-0.24084 0.5935425,-0.43426 0.7276042,-0.42984 0.1340617,0.004 0.035391,0.12941 -0.2192708,0.27773 -0.5949236,0.34652 -0.60969,1.75945 -0.025135,2.40537 0.5336116,0.58964 0.0322,0.65156 -0.5512753,0.0681 z m 9.5061008,0.22432 c 0.845098,-0.20772 1.190625,-0.61405 1.190625,-1.40014 0,-0.59753 -0.183428,-0.80914 -0.992187,-1.14459 -0.937202,-0.38874 -0.951865,-0.4123 -0.264584,-0.42518 0.846979,-0.0159 1.785938,0.81159 1.785938,1.57387 0,0.72138 -0.92718,1.59426 -1.653646,1.55681 -0.53939,-0.0278 -0.545605,-0.0429 -0.06615,-0.16077 z m 15.267951,-2.52052 c -0.02993,-1.56435 0.04481,-2.84427 0.166076,-2.84427 0.403863,0 0.571825,0.34439 0.31745,0.65089 -0.138171,0.16649 -0.291248,1.36807 -0.340173,2.67018 l -0.08895,2.36747 z m -21.273993,2.1299 c 0.174625,-0.17463 0.3175,-0.74613 0.3175,-1.27 0,-0.52388 -0.142875,-1.09538 -0.3175,-1.27 -0.246943,-0.24695 -0.246943,-0.3175 0,-0.3175 0.174625,0 0.3175,-0.33338 0.3175,-0.74084 0,-0.40746 -0.142875,-0.88371 -0.3175,-1.05833 -0.246943,-0.24694 -0.245488,-0.3175 0.0065,-0.3175 0.529338,0 0.840118,1.22982 0.840118,3.32452 0,1.85037 -0.03456,1.96715 -0.582084,1.96715 -0.452731,0 -0.511526,-0.0706 -0.264583,-0.3175 z m 10.283473,0.14111 c -0.277058,-0.27706 -0.207883,-5.90903 0.07258,-5.90903 0.382884,0 0.586732,0.47201 0.284515,0.65879 -0.352539,0.21788 -0.348438,4.25446 0.005,4.91485 0.259943,0.48571 0.01506,0.71253 -0.362085,0.33539 z m 4.038325,-0.68351 c -0.415896,-0.66226 -0.516236,-1.18129 -0.436591,-2.25827 0.05688,-0.7691 0.237778,-1.53273 0.401997,-1.69695 0.221723,-0.22173 0.25809,-0.0491 0.14128,0.67077 -0.131922,0.81293 -0.08106,0.96935 0.315198,0.96935 0.440991,0 0.443298,0.0323 0.03462,0.48385 -0.595501,0.65802 -0.54995,1.34713 0.137403,2.07878 0.31641,0.3368 0.433721,0.61237 0.260697,0.61237 -0.173027,0 -0.557596,-0.38696 -0.854602,-0.8599 z M -4.278,-266.21451 c 0,-3.74647 0.1884654,-4.51552 0.9138603,-3.72903 0.3640904,0.39475 2.3047219,5.03685 2.1643445,5.17723 -0.047487,0.0475 -0.4703894,-0.74686 -0.9397814,-1.76522 -1.3626518,-2.95631 -1.6283226,-2.78679 -1.8090145,1.15434 -0.067448,1.47117 -0.1691587,2.72446 -0.2260203,2.78509 -0.056864,0.0606 -0.1033886,-1.56945 -0.1033886,-3.62241 z m 3.33997829,2.44361 c -0.25531759,-0.66535 -0.17999869,-0.83703 0.13190273,-0.30066 0.15443465,0.26558 0.22505458,0.5386 0.15693231,0.60672 -0.0681223,0.0681 -0.19809883,-0.0696 -0.28883504,-0.30606 z M 14.29575,-265.00422 c -0.449532,-0.44953 -0.393761,-1.6851 0.09827,-2.17714 0.579827,-0.57983 0.821172,-0.52251 0.286692,0.0681 -0.81984,0.90592 -0.473723,1.93364 0.752742,2.23511 0.430665,0.10586 0.403577,0.13578 -0.145521,0.16076 -0.371078,0.0169 -0.817562,-0.11218 -0.992187,-0.28681 z m 14.013619,-0.12513 c 0.666054,-0.1764 0.80268,-0.84911 0.359789,-1.77154 l -0.397807,-0.82853 0.526368,0.62462 c 0.289499,0.34354 0.526364,0.96862 0.526364,1.38906 0,0.66499 -0.09466,0.76045 -0.727604,0.73375 -0.403492,-0.017 -0.531386,-0.0827 -0.28711,-0.14736 z m -24.0998135,-0.50546 c 0.0127,-0.30822 0.07539,-0.37092 0.1598507,-0.15985 0.07643,0.191 0.067032,0.4192 -0.020876,0.50712 -0.087921,0.0879 -0.1504527,-0.0684 -0.1389645,-0.34727 z m -2.1294513,-0.50712 c 0,-0.14552 0.1154139,-0.44317 0.2564791,-0.66145 0.1410653,-0.21828 0.2564792,-0.27782 0.2564792,-0.13229 0,0.14552 -0.1154139,0.44317 -0.2564792,0.66145 -0.1410652,0.21828 -0.2564791,0.27782 -0.2564791,0.13229 z m 0.5425625,-1.32291 c 5.292e-4,-0.4739 1.1618807,-2.59791 1.4337083,-2.6222 0.1455208,-0.013 0.2896394,0.45261 0.3202649,1.0347 0.030626,0.58208 -0.00908,0.9095 -0.088194,0.7276 -0.2433055,-0.55928 -0.8564774,-0.36787 -1.2713626,0.39688 -0.2171012,0.40018 -0.394589,0.60854 -0.3944166,0.46302 z"
                   id="path5217"
                   inkscape:connector-curvature="0" />
              </g>
            </g>
          </g>
        </g>
      </g>
    </g>
  </g>
</svg>
