<?xml version="1.0" encoding="UTF-8" standalone="no"?>
<!-- Created with Inkscape (http://www.inkscape.org/) -->

<svg
   xmlns:dc="http://purl.org/dc/elements/1.1/"
   xmlns:cc="http://creativecommons.org/ns#"
   xmlns:rdf="http://www.w3.org/1999/02/22-rdf-syntax-ns#"
   xmlns:svg="http://www.w3.org/2000/svg"
   xmlns="http://www.w3.org/2000/svg"
   xmlns:sodipodi="http://sodipodi.sourceforge.net/DTD/sodipodi-0.dtd"
   xmlns:inkscape="http://www.inkscape.org/namespaces/inkscape"
   width="180.71042mm"
   height="152.39999mm"
   viewBox="0 0 180.71042 152.39999"
   version="1.1"
   id="svg8"
   inkscape:version="0.92.1 r15371"
   sodipodi:docname="sfedev.svg">
  <defs
     id="defs2" />
  <sodipodi:namedview
     id="base"
     pagecolor="#ff7659"
     bordercolor="#666666"
     borderopacity="1.0"
     inkscape:pageopacity="0"
     inkscape:pageshadow="2"
     inkscape:zoom="0.64305344"
     inkscape:cx="340.55612"
     inkscape:cy="254.83084"
     inkscape:document-units="mm"
     inkscape:current-layer="g5155"
     showgrid="false"
     fit-margin-top="0"
     fit-margin-left="0"
     fit-margin-right="0"
     fit-margin-bottom="0"
     inkscape:window-width="1536"
     inkscape:window-height="841"
     inkscape:window-x="-8"
     inkscape:window-y="-8"
     inkscape:window-maximized="1" />
  <metadata
     id="metadata5">
    <rdf:RDF>
      <cc:Work
         rdf:about="">
        <dc:format>image/svg+xml</dc:format>
        <dc:type
           rdf:resource="http://purl.org/dc/dcmitype/StillImage" />
        <dc:title></dc:title>
      </cc:Work>
    </rdf:RDF>
  </metadata>
  <g
     inkscape:label="Layer 1"
     inkscape:groupmode="layer"
     id="layer1"
     transform="translate(200.56483,-63.635083)">
    <g
       id="g4496"
       transform="translate(-171.41717,58.14693)">
      <g
         id="g4538"
         transform="translate(145.65313,113.63854)">
        <g
           id="g4567"
           transform="translate(-190.86895,62.30846)">
          <g
             id="g5155">
            <path
               style="fill:#fcfdfd;stroke-width:0.13432384"
               d="m 52.426731,-94.55866 v -30.83087 h 57.557719 57.55772 v 30.83087 30.83087 H 109.98445 52.426731 Z"
               id="path5171"
               inkscape:connector-curvature="0" />
            <path
               style="fill:#d9e1e6;stroke-width:0.26458332"
               d="m 101.52858,-28.122599 c -4.208351,-0.330144 -12.416861,-1.947439 -13.361455,-2.632564 -0.145521,-0.105548 -0.859896,-0.336415 -1.5875,-0.513038 -0.727605,-0.176625 -2.513542,-0.799787 -3.96875,-1.38481 -10.277412,-4.131725 -19.373756,-10.72312 -26.617859,-19.287846 l -1.217859,-1.439876 -8.042558,-0.132291 -8.042559,-0.132292 -1.493006,-0.733409 c -2.777124,-1.364202 -4.899488,-4.459004 -5.177895,-7.550329 -0.216881,-2.408164 -0.219416,-2.407201 6.553464,-2.492621 l 5.673688,-0.07156 0.07067,-3.836458 c 0.05213,-2.830306 -0.03626,-4.218104 -0.337039,-5.291666 -0.700514,-2.500326 -1.949662,-7.728386 -2.275824,-9.525 -0.171718,-0.945885 -0.41309,-2.255572 -0.536383,-2.910416 -0.630812,-3.350413 -0.543252,-13.694441 0.147815,-17.462495 0.06672,-0.3638 0.255172,-1.55443 0.418778,-2.64583 0.349891,-2.33411 1.140478,-5.57769 1.902438,-7.80521 0.442553,-1.29377 0.576805,-2.57028 0.725575,-6.89904 l 0.182547,-5.31154 0.929904,-1.69992 c 1.036757,-1.89525 2.957301,-3.47493 4.843296,-3.98368 2.028807,-0.54729 2.397551,-0.78502 3.320669,-2.14084 3.033795,-4.45586 8.569617,-10.01757 13.89089,-13.95586 3.589224,-2.65639 4.099275,-2.97908 8.524844,-5.39322 4.633918,-2.52779 12.004429,-5.27932 16.360751,-6.10774 1.156049,-0.21983 2.935343,-0.57142 3.953989,-0.7813 5.870429,-1.20952 15.502739,-1.24273 21.828119,-0.0752 11.91103,2.19844 21.10998,6.24452 30.41046,13.3758 4.31251,3.30668 11.13521,10.4767 13.0465,13.71065 0.38057,0.64394 0.82815,0.94202 1.87111,1.24613 2.75062,0.80202 4.84501,2.65646 6.05458,5.36091 0.49116,1.09817 0.59598,1.96592 0.74561,6.1726 0.1436,4.03755 0.27263,5.16385 0.73674,6.43112 0.82148,2.2431 2.34824,9.65367 2.67741,12.99556 0.55116,5.595678 0.2433,13.729411 -0.67466,17.824912 -0.21875,0.975942 -0.56789,2.605484 -0.77588,3.621206 -0.20798,1.015719 -0.73608,2.998861 -1.17355,4.406979 -0.74068,2.384097 -0.7954,2.844038 -0.7954,6.686047 v 4.125833 h 4.61131 c 3.78916,0 4.68359,0.07227 5.01669,0.405381 1.511,1.510996 0.007,6.143331 -2.68776,8.2775 -2.42523,1.920814 -2.89737,2.018498 -10.4643,2.165035 l -6.83135,0.132291 -1.23228,1.455209 c -6.96151,8.2209 -16.45301,15.212268 -25.71856,18.944104 -10.3521,4.169463 -20.43615,5.725631 -31.48542,4.858821 z m 57.48073,-36.404553 c 0.43729,-0.126581 0.46302,-1.721344 0.46302,-28.6912 V -121.77552 H 107.34942 55.226499 v 28.559025 28.559028 l 0.992188,0.08362 c 1.695447,0.142888 102.300443,0.188592 102.790623,0.0467 z m -97.372417,-8.375194 c -0.820587,-0.376584 -1.042689,-1.395045 -0.447619,-2.052587 0.462573,-0.511141 1.118496,-0.518507 46.171836,-0.518507 43.70635,0 45.72843,0.0209 46.29391,0.478814 0.56454,0.457134 0.5723,0.515583 0.17139,1.290855 -0.23096,0.446622 -0.61441,0.886671 -0.85211,0.977886 -0.78017,0.299379 -90.678999,0.125696 -91.337407,-0.176461 z m -0.43837,-4.574368 c -0.228676,-0.228674 -0.415774,-0.636889 -0.415774,-0.907142 0,-0.270253 0.187098,-0.678468 0.415774,-0.907142 0.368353,-0.368353 2.154106,-0.415775 15.65686,-0.415775 13.204566,0 15.323262,0.05385 15.856101,0.402974 0.738679,0.484002 0.79126,1.207595 0.131162,1.804977 -0.438545,0.396877 -1.92336,0.437883 -15.856101,0.437883 -13.621994,0 -15.419587,-0.04734 -15.788022,-0.415775 z m 49.433857,-0.245684 c -0.40148,-0.61274 -0.40148,-0.710176 0,-1.322916 l 0.4334,-0.661459 h 21.14167 c 18.86692,0 21.1864,0.04474 21.55744,0.415775 0.55742,0.55741 0.52365,1.063849 -0.11339,1.700892 -0.52029,0.52029 -0.88194,0.529167 -21.55744,0.529167 h -21.02828 z m -11.521662,-0.136959 c -0.765527,-0.447069 -0.801582,-1.463558 -0.114465,-3.227027 1.329697,-3.41262 8.958647,-22.650556 9.858577,-24.860376 0.74707,-1.83447 1.0833,-2.35675 1.67501,-2.60184 0.5471,-0.22662 0.88388,-0.22982 1.29036,-0.0123 0.85632,0.45829 0.91459,1.341 0.21177,3.2082 -0.71518,1.90007 -5.78091,14.789295 -6.54382,16.650072 -0.26848,0.654844 -0.79057,1.964531 -1.1602,2.910416 -2.42163,6.196915 -3.0496,7.554637 -3.63889,7.867454 -0.734285,0.389784 -1.003742,0.400947 -1.578342,0.06538 z m 22.884852,-3.845956 c -0.7505,-0.750501 -0.78506,-1.212578 -0.13473,-1.801125 0.44667,-0.404225 1.81862,-0.436067 16.01701,-0.371734 16.81623,0.07619 16.0244,0.0035 16.03418,1.472922 0.009,1.304957 -0.52436,1.348015 -16.52797,1.335098 l -14.76525,-0.01191 -0.62324,-0.623242 z m -60.7498,0.125264 c -0.575635,-0.335277 -0.601274,-1.390258 -0.04725,-1.944283 0.365755,-0.365754 1.859529,-0.415774 12.416518,-0.415774 10.556989,0 12.050763,0.05002 12.416518,0.415774 0.523142,0.523143 0.524036,0.899417 0.0039,1.64202 l -0.411871,0.588039 -11.957392,-0.008 c -7.628295,-0.0051 -12.125029,-0.105683 -12.420415,-0.277731 z m 31.28698,-1.656527 c -0.603417,-0.317442 -4.656069,-2.744512 -8.995834,-5.387464 -0.945885,-0.576053 -2.297713,-1.332923 -3.00406,-1.681932 -1.402927,-0.693193 -2.55219,-1.870554 -2.55219,-2.614586 0,-0.873784 1.049015,-1.818712 3.774276,-3.399777 1.489409,-0.864081 4.136766,-2.425766 5.883016,-3.470407 5.582531,-3.339578 6.736059,-3.693588 7.289792,-2.237158 0.441965,1.16246 -0.09779,1.77679 -3.098033,3.526039 -1.577863,0.919951 -3.404624,1.99798 -4.059467,2.395619 -0.654844,0.397637 -2.066618,1.226817 -3.137279,1.842622 -1.592074,0.915699 -1.881235,1.179152 -1.5875,1.44636 0.344398,0.313296 2.871994,1.902534 8.561237,5.382914 3.287805,2.011304 3.307292,2.028647 3.307292,2.943108 0,1.203857 -1.237954,1.856123 -2.38125,1.254662 z m 22.54086,-0.05831 c -0.96717,-0.6839 -0.70598,-1.898483 0.61018,-2.83741 1.0283,-0.733571 6.20856,-3.88443 7.54063,-4.586536 1.40086,-0.738365 3.29472,-2.096624 3.27173,-2.346452 -0.0133,-0.143904 -0.96316,-0.805643 -2.11093,-1.470533 -1.14776,-0.664887 -3.57513,-2.073018 -5.39414,-3.129176 -4.84802,-2.814877 -5.53976,-3.669527 -3.93564,-4.862537 0.68998,-0.51315 0.70221,-0.51299 1.85209,0.0246 1.56792,0.73296 4.23428,2.23074 6.31689,3.548402 1.81845,1.150533 2.77626,1.730166 5.55415,3.361198 2.18046,1.280252 2.80181,2.061281 2.46067,3.093056 -0.19516,0.590274 -1.11125,1.290409 -4.19837,3.20866 -2.17181,1.349502 -4.51147,2.74906 -5.19924,3.110129 -0.68777,0.361071 -2.06645,1.184336 -3.06374,1.82948 -2.21365,1.432004 -2.89799,1.627309 -3.70428,1.057177 z m 14.64272,-2.205516 c -0.46806,-0.09632 -0.94444,-0.446977 -1.18185,-0.869945 -0.36367,-0.647925 -0.35492,-0.755885 0.10219,-1.260986 0.49492,-0.546888 0.62092,-0.551685 12.63483,-0.481102 13.11919,0.07708 12.63086,0.02013 12.64053,1.473856 0.008,1.231421 -0.80645,1.316204 -12.56365,1.307531 -5.96636,-0.0044 -11.20078,-0.08061 -11.63205,-0.169354 z M 61.198523,-85.94338 c -0.228676,-0.228674 -0.415774,-0.636889 -0.415774,-0.907142 0,-0.270253 0.187098,-0.678469 0.415774,-0.907143 0.36245,-0.36245 1.627392,-0.415774 9.863003,-0.415774 8.122261,0 9.529702,0.05777 10.035268,0.411877 0.714081,0.500163 0.755084,1.207019 0.104185,1.796074 -0.431422,0.390432 -1.518873,0.437882 -10.035268,0.437882 -8.330327,0 -9.604568,-0.05315 -9.967188,-0.415774 z m 73.138397,-3.74374 c -0.62336,-0.224398 -1.32292,-0.914725 -1.32292,-1.305451 0,-0.195726 0.23813,-0.593993 0.52917,-0.885034 0.50953,-0.509529 0.88194,-0.529167 10.03526,-0.529167 10.34954,0 10.33765,-0.0016 10.33765,1.487609 0,1.274165 -0.88026,1.390394 -10.46901,1.382284 -4.7923,-0.0041 -8.89187,-0.07166 -9.11015,-0.150241 z m -73.09115,-0.359595 c -0.575635,-0.335277 -0.601274,-1.390258 -0.04725,-1.944283 0.620017,-0.620016 14.780274,-0.623538 15.664937,-0.0039 0.688245,0.482066 0.759225,1.231223 0.172265,1.818182 -0.358703,0.358704 -1.439132,0.414671 -7.871354,0.407728 -4.569965,-0.0049 -7.634788,-0.112424 -7.918601,-0.27773 z m 72.32702,-4.312901 c -0.71751,-0.763752 -0.7083,-1.35201 0.0292,-1.868612 0.50557,-0.35411 1.91301,-0.411877 10.03527,-0.411877 10.26567,0 10.27877,0.0019 10.27877,1.467313 0,1.326965 -0.67141,1.416002 -10.64632,1.411814 -9.12987,-0.0038 -9.13869,-0.0044 -9.69697,-0.598638 z m -72.352158,-0.11851 c -0.549929,-0.607663 -0.557564,-1.210752 -0.02212,-1.746205 0.355258,-0.355261 1.346856,-0.415247 6.813021,-0.412162 3.518485,0.0021 6.661195,0.07437 6.983796,0.160861 0.788972,0.211511 1.008735,1.037545 0.487627,1.832856 l -0.424908,0.648504 H 68.35828 c -6.154608,0 -6.735398,-0.03937 -7.137648,-0.483854 z m 0.100182,-4.005164 c -0.643821,-0.643821 -0.69101,-1.405657 -0.122291,-1.97437 0.36245,-0.36245 1.627392,-0.41578 9.863003,-0.41578 8.122261,0 9.529702,0.0578 10.035268,0.41188 0.772996,0.541426 0.745191,1.278182 -0.07251,1.921384 -0.625653,0.492141 -1.149332,0.521579 -9.912978,0.557268 -8.97669,0.03656 -9.268462,0.02164 -9.790492,-0.500382 z m 66.515736,-0.135213 c -0.76887,-0.768868 -0.80927,-1.229045 -0.15953,-1.817057 0.43568,-0.39428 1.71281,-0.43788 12.82619,-0.43788 h 12.34234 l 0.42178,0.64372 c 0.47083,0.718571 0.21736,1.529456 -0.61408,1.96451 -0.25133,0.131506 -5.79314,0.250576 -12.31514,0.264597 l -11.85818,0.0255 -0.64338,-0.643382 z M 61.318972,-102.8503 c -0.7406,-0.78834 -0.568237,-1.90859 0.327703,-2.12985 0.325204,-0.0803 6.399977,-0.11188 13.499494,-0.0702 11.129846,0.0654 12.942758,0.13052 13.15897,0.47272 0.402297,0.63671 0.303512,1.04222 -0.416441,1.70944 l -0.675301,0.62585 -12.64674,0.0159 -12.646742,0.0159 -0.600943,-0.63968 z m 59.937848,0.0684 c -0.54394,-0.77659 -0.52259,-1.35056 0.0702,-1.88703 0.43884,-0.39714 1.95094,-0.43788 16.25298,-0.43788 13.98278,0 15.81622,0.0471 16.18489,0.41577 0.57828,0.57828 0.51989,1.09167 -0.20681,1.81837 l -0.62258,0.62258 -15.63252,0.0294 -15.63252,0.0294 z m -59.789726,-4.20626 c -0.77765,-0.6117 -0.87698,-1.3278 -0.268571,-1.93621 0.369494,-0.36949 2.340589,-0.41577 17.708185,-0.41577 15.367595,0 17.338691,0.0463 17.708184,0.41577 0.45752,0.45752 0.495938,0.65496 0.251421,1.29216 -0.44721,1.16541 -0.719667,1.18314 -18.169444,1.18274 -16.238143,-2.7e-4 -16.558138,-0.0104 -17.229775,-0.53869 z m 55.700556,-0.0725 c -0.71657,-0.76275 -0.70705,-1.35117 0.0302,-1.86758 0.51806,-0.36286 2.70412,-0.41187 18.36965,-0.41187 15.81231,0 17.82765,0.046 18.19737,0.41577 0.57198,0.57198 0.52245,0.97936 -0.21595,1.77611 l -0.63174,0.68165 -17.59587,-1.6e-4 -17.59587,-1.6e-4 z m -55.969127,-4.28273 c -0.574762,-0.57476 -0.523234,-1.62476 0.096,-1.95617 0.34712,-0.18577 15.237767,-0.27389 46.283187,-0.27389 41.25759,0 45.81241,0.041 46.18718,0.41578 0.52315,0.52314 0.52404,0.89941 0.004,1.64202 l -0.41187,0.58804 H 107.4856 c -41.348406,0 -45.9123,-0.041 -46.287077,-0.41578 z"
               id="path5169"
               inkscape:connector-curvature="0" />
            <path
               style="fill:#bac7d1;stroke-width:0.26458332"
               d="m 46.495249,-53.768114 -7.805209,-0.141785 -1.511945,-0.742461 c -2.679897,-1.315998 -4.634197,-4.132617 -4.899806,-7.061803 -0.222505,-2.453819 -0.407834,-2.382194 6.16395,-2.382194 3.811485,0 5.698766,-0.09423 5.820125,-0.290589 0.09878,-0.159824 0.203973,-13.881777 0.23377,-30.493227 0.04069,-22.682227 0.13339,-30.444907 0.372314,-31.175597 0.818475,-2.50313 3.141419,-4.83738 5.673373,-5.70099 1.299305,-0.44317 4.481552,-0.47369 56.136009,-0.53844 49.50606,-0.062 54.89919,-0.0281 56.22396,0.35411 3.13198,0.90354 4.96914,2.38439 6.37486,5.13849 0.56781,1.11245 0.62332,1.65967 0.84545,8.33437 0.13075,3.92906 0.18975,17.70113 0.13111,30.604602 l -0.10663,23.460852 0.81444,0.152421 c 0.44794,0.08383 2.5156,0.138414 4.5948,0.121296 3.34727,-0.02756 3.84297,0.02553 4.32679,0.463391 0.44907,0.4064 0.52687,0.730303 0.43661,1.817849 -0.23738,2.860219 -2.27833,5.755488 -5.09519,7.227958 -1.32138,0.690732 -1.39252,0.697632 -9.00482,0.873382 -8.92218,0.205991 -108.180658,0.188055 -119.723961,-0.02164 z m 113.176701,-39.366262 -0.0673,-28.773434 H 107.34942 55.094207 l -0.06732,28.773434 -0.06732,28.773436 h 52.389853 52.38985 z m -95.648055,19.56991 c -2.439461,-0.06783 -2.711979,-0.124801 -2.711979,-0.567004 0,-0.270383 0.18833,-0.563875 0.418515,-0.652204 0.230182,-0.08833 20.872948,-0.160599 45.872809,-0.160599 47.3623,0 46.45052,-0.02064 45.79691,1.036915 -0.18417,0.297995 -7.43644,0.362765 -43.44267,0.388001 -23.771886,0.01667 -44.441996,-0.0037 -45.933585,-0.04511 z m -2.533478,-4.199916 c -0.328859,-0.328858 -0.182957,-1.090316 0.240014,-1.252625 0.711317,-0.272957 30.368275,-0.176191 30.802319,0.100505 0.307321,0.195911 0.330673,0.35918 0.103492,0.723551 -0.274911,0.440928 -1.259012,0.47485 -15.630354,0.53881 -8.435332,0.03754 -15.417295,-0.01207 -15.515471,-0.110241 z m 49.563163,-0.222599 c -0.26278,-0.316632 -0.26278,-0.477118 0,-0.79375 0.28772,-0.346673 2.98398,-0.396875 21.31574,-0.396875 13.41026,0 21.04418,0.09354 21.14651,0.259114 0.0881,0.142516 0.0314,0.499703 -0.12599,0.79375 -0.28339,0.529519 -0.48579,0.534636 -21.1465,0.534636 -18.21978,0 -20.90207,-0.05024 -21.18976,-0.396875 z M 99.1338,-78.397389 c -0.667017,-0.667018 -0.87797,0.03085 2.79515,-9.246883 9.14798,-23.106338 8.05671,-20.637498 9.12212,-20.637498 0.50375,0 0.87621,0.18417 1.05749,0.5229 0.30473,0.56938 0.11003,1.10493 -5.96606,16.410431 -1.70421,4.292865 -3.50461,8.876771 -4.00089,10.186458 -0.81763,2.157759 -1.59267,3.307292 -2.229837,3.307292 -0.1294,0 -0.479489,-0.244216 -0.777973,-0.5427 z m -37.645494,-3.60244 c -0.32706,-0.327059 -0.179594,-1.088684 0.242125,-1.250511 0.72739,-0.279127 23.877271,-0.184306 24.052065,0.09851 0.08808,0.142515 0.03139,0.499703 -0.125987,0.79375 -0.280567,0.524243 -0.516509,0.534636 -12.138972,0.534636 -6.519064,0 -11.932219,-0.07938 -12.029231,-0.17639 z m 62.802164,-0.03482 c -1.08716,-0.0434 -2.05841,-0.211201 -2.15833,-0.37288 -0.58575,-0.947764 -0.29795,-0.966359 15.36254,-0.992616 13.26068,-0.02223 15.32944,0.02676 15.61412,0.369768 0.80965,0.975569 0.47435,1.001641 -13.35796,1.038609 -7.41604,0.01982 -14.37321,5.29e-4 -15.46037,-0.04288 z m -9.10797,-1.518499 c -0.45162,-0.451631 -0.54239,-1.115375 -0.22149,-1.619703 0.10733,-0.168687 2.75465,-1.866704 5.88292,-3.773368 3.12828,-1.906667 5.85332,-3.568673 6.05566,-3.693353 0.57481,-0.354208 0.23349,-0.649173 -2.81226,-2.430285 -9.81569,-5.740093 -9.89784,-5.800103 -9.34727,-6.828863 0.65586,-1.22549 1.15069,-1.00442 11.43936,5.110516 4.5886,2.727174 5.18127,3.289268 4.62887,4.390094 -0.29325,0.58438 -13.33884,8.690945 -14.6336,9.093358 -0.36355,0.11299 -0.72005,0.02373 -0.99219,-0.248396 z M 85.918166,-87.52073 c -6.170787,-3.72436 -7.672917,-4.789419 -7.672917,-5.440346 0,-0.659146 1.968958,-2.089738 6.746876,-4.902089 7.937153,-4.671925 8.479763,-4.944765 9.13571,-4.593715 0.415558,0.2224 0.532263,0.50326 0.470887,1.13321 -0.07701,0.79042 -0.422849,1.03942 -6.149424,4.427562 -3.337304,1.974522 -6.105954,3.704426 -6.152553,3.844227 -0.0466,0.1398 2.655287,1.918797 6.004195,3.953327 3.348906,2.034529 6.155344,3.908424 6.236529,4.164213 0.08118,0.255789 0.07203,0.703194 -0.02035,0.994235 -0.36808,1.159719 -1.58306,0.653799 -8.598958,-3.580624 z m -24.42986,1.287568 c -0.32706,-0.327059 -0.179594,-1.088684 0.242125,-1.250511 0.230182,-0.08833 4.493676,-0.160599 9.47443,-0.160599 7.319153,0 9.152499,0.07062 9.559518,0.368244 0.427882,0.312875 0.450506,0.432224 0.150466,0.79375 -0.312399,0.376415 -1.443188,0.425506 -9.801646,0.425506 -5.196678,0 -9.527881,-0.07937 -9.624893,-0.17639 z m 67.502034,-0.286631 c -0.19207,-0.231442 -0.17559,-0.449874 0.0549,-0.727604 0.48978,-0.590148 23.58022,-0.598683 24.0697,-0.0089 0.8253,0.994423 0.48271,1.02462 -11.87029,1.04625 -9.28201,0.01624 -12.04165,-0.0535 -12.25432,-0.309751 z m -67.502034,-3.946702 c -0.32706,-0.327059 -0.179594,-1.088684 0.242125,-1.250511 0.230182,-0.08833 3.608885,-0.160599 7.508227,-0.160599 5.979189,0 7.141308,0.06217 7.419091,0.396875 0.262782,0.316632 0.262782,0.477118 0,0.79375 -0.278278,0.335306 -1.466805,0.396875 -7.661216,0.396875 -4.032512,0 -7.411215,-0.07937 -7.508227,-0.17639 z m 74.967734,-0.03282 c -2.63141,-0.0806 -3.22098,-0.291367 -2.67049,-0.954667 0.48956,-0.589888 18.83727,-0.628626 19.32512,-0.0408 0.76863,0.926142 0.27924,0.998458 -7.00965,1.03582 -3.92364,0.02011 -8.26388,0.0019 -9.64498,-0.04035 z m -75.022315,-4.586324 c -0.111951,-0.352724 -0.04466,-0.646965 0.180607,-0.789697 0.197472,-0.125126 3.231729,-0.229325 6.742793,-0.231552 5.355127,-0.0034 6.43682,0.0599 6.713124,0.392824 0.262782,0.316632 0.262782,0.477118 0,0.79375 -0.276584,0.333264 -1.381529,0.396875 -6.893734,0.396875 -6.460549,0 -6.567178,-0.0089 -6.74279,-0.5622 z m 72.319345,0.09918 c -0.19235,-0.23159 -0.17596,-0.449697 0.0547,-0.727604 0.48827,-0.588333 18.8193,-0.596778 19.3072,-0.0089 0.80545,0.970513 0.38109,1.017143 -9.48757,1.042532 -7.38154,0.019 -9.66308,-0.05172 -9.87431,-0.306033 z m -71.927942,-4.092517 c -0.618942,-0.229034 -0.67492,-0.882044 -0.0947,-1.104694 0.230182,-0.0883 4.493676,-0.1606 9.47443,-0.1606 7.445201,0 9.147266,0.0674 9.569506,0.379062 1.224378,0.903668 0.21875,1.017196 -9.276231,1.0472 -5.037886,0.01593 -9.39074,-0.05652 -9.673008,-0.160968 z m 67.352412,0.106085 c -1.23862,-0.0981 -1.52486,-0.301318 -1.18942,-0.844426 0.36588,-0.592403 23.94639,-0.742923 24.7392,-0.157916 1.18586,0.87503 0.20363,0.96448 -11.26584,1.02598 -6.17408,0.0331 -11.70185,0.02246 -12.28394,-0.02363 z m -67.352626,-4.339419 c -0.618765,-0.22906 -0.674616,-0.88208 -0.09448,-1.10469 0.66638,-0.25572 25.603068,-0.17775 26.012228,0.0813 0.203105,0.1286 0.296137,0.42444 0.20674,0.65741 -0.126336,0.32922 -0.562216,0.42587 -1.956784,0.43391 -18.298044,0.10543 -23.740669,0.0901 -24.167701,-0.068 z m 59.848196,-0.11218 c -0.34852,-0.25488 -0.35762,-0.36894 -0.0582,-0.72968 0.32066,-0.38637 1.87279,-0.421 16.10758,-0.35936 10.20922,0.0442 15.78223,0.16133 15.83658,0.3328 0.30748,0.97004 0.0811,0.98457 -15.92265,1.02198 -11.28797,0.0264 -15.66341,-0.0465 -15.96327,-0.26574 z m -59.847902,-4.12115 c -0.619009,-0.22903 -0.675032,-0.88203 -0.09478,-1.1047 0.230182,-0.0883 8.092043,-0.1606 17.470803,-0.1606 15.238569,0 17.069216,0.0441 17.211411,0.41466 0.08752,0.22807 0.03249,0.54129 -0.122285,0.69607 -0.322972,0.32297 -33.606556,0.47224 -34.465152,0.15457 z m 57.830002,0.0576 c -1.97229,-0.10969 -2.39333,-0.20977 -2.46497,-0.58586 -0.0561,-0.29427 0.12885,-0.50575 0.52649,-0.60215 1.12842,-0.27357 35.75276,-0.0205 35.8423,0.26197 0.29762,0.9389 5.3e-4,0.9577 -15.94057,1.00858 -8.57157,0.0274 -16.65503,-0.01 -17.96325,-0.0825 z m -58.075914,-4.36226 c -0.179621,-0.21642 -0.257466,-0.57361 -0.172993,-0.79375 0.136282,-0.35514 5.32827,-0.40024 46.075407,-0.40024 40.74713,0 45.93912,0.0451 46.0754,0.40024 0.0845,0.22014 0.007,0.57733 -0.17299,0.79375 -0.28674,0.3455 -5.88679,0.39351 -45.90241,0.39351 -40.015628,0 -45.615677,-0.048 -45.902414,-0.39351 z"
               id="path5167"
               inkscape:connector-curvature="0" />
            <path
               style="fill:#949fa8;stroke-width:0.26458332"
               d="m 38.386555,-54.321541 c -2.950912,-0.937791 -5.336211,-3.748807 -5.936488,-6.996001 -0.230752,-1.248253 -0.206954,-1.602753 0.143501,-2.137616 l 0.42013,-0.641199 h 5.808326 5.808328 l 0.07255,-30.625519 0.07255,-30.625514 0.685313,-1.45521 c 1.266997,-2.69037 3.016586,-4.15784 5.859423,-4.91462 2.08298,-0.55451 109.710892,-0.55451 111.793862,0 2.67484,0.71206 4.6744,2.30446 5.93129,4.72354 0.5151,0.9914 0.60504,1.72753 0.79918,6.54108 0.12031,2.98317 0.18728,16.85395 0.1488,30.823953 l -0.0699,25.399998 4.83886,0.132292 c 5.40441,0.147754 5.33658,0.121851 5.34354,2.040596 0.0103,2.832452 -2.23771,6.034765 -5.21619,7.430481 l -1.52662,0.715381 -66.675,0.05261 c -65.490768,0.05168 -66.703895,0.04343 -68.30141,-0.464254 z m 135.626365,-2.829112 c 1.62314,-0.81847 2.82479,-2.160596 3.08088,-3.441047 l 0.17176,-0.858824 h -29.13724 -29.13724 v 1.140055 c 0,2.300819 0.79993,2.157479 -12.50722,2.241222 -11.277665,0.07097 -11.782122,0.0532 -12.386737,-0.436382 -0.460185,-0.372637 -0.656408,-0.83888 -0.727094,-1.727634 l -0.09681,-1.217261 H 64.167008 35.060799 l 0.172108,0.727604 c 0.314388,1.329116 1.559597,2.792857 3.028844,3.5604 l 1.414757,0.739079 66.446352,2.65e-4 66.44635,2.64e-4 1.44371,-0.727993 z m -57.93225,-4.035288 c 0,-0.171621 -3.43959,-0.264583 -9.78959,-0.264583 -6.349997,0 -9.78958,0.09296 -9.78958,0.264583 0,0.171622 3.439583,0.264584 9.78958,0.264584 6.35,0 9.78959,-0.09296 9.78959,-0.264584 z m 43.78998,-3.505728 c 0.0791,-0.327422 0.11113,-13.335 0.0712,-28.905728 l -0.0726,-28.310413 H 107.34942 54.829624 l -0.06815,28.574997 c -0.03748,15.716249 -0.01146,28.723826 0.05784,28.905727 0.100205,0.263046 10.847723,0.330729 52.516746,0.330729 h 52.39077 z M 99.192394,-78.846877 c -0.130976,-0.254661 -0.178707,-0.641614 -0.106071,-0.859896 0.333092,-1.000963 10.462247,-26.562947 10.949937,-27.633307 0.34811,-0.76402 1.28609,-0.9128 1.80591,-0.28646 0.26393,0.31802 -0.0312,1.28959 -1.58753,5.22552 -1.05145,2.659181 -3.50822,8.882998 -5.45947,13.830706 -1.95125,4.947708 -3.68319,9.263724 -3.84874,9.591145 -0.36236,0.716643 -1.41275,0.795864 -1.754036,0.132292 z m 16.277486,-4.869063 c -0.56824,-0.318 -0.57602,-1.109718 -0.0155,-1.580833 0.2376,-0.199718 3.00468,-1.910937 6.14907,-3.802707 3.14438,-1.891771 5.75183,-3.622784 5.79433,-3.846693 0.0534,-0.281447 -1.57919,-1.375759 -5.28917,-3.545231 -6.55081,-3.830696 -7.14225,-4.251246 -7.03522,-5.002346 0.15557,-1.09171 1.14306,-0.81767 4.91254,1.36326 7.18726,4.158373 10.20349,6.011023 10.46193,6.425995 0.70599,1.133629 0.15209,1.60292 -6.8639,5.815409 -3.73859,2.244699 -6.99298,4.158297 -7.23197,4.252439 -0.23899,0.09414 -0.63592,0.05846 -0.88207,-0.07929 z m -29.684005,-4.179853 c -6.274753,-3.814648 -6.886107,-4.250033 -6.958151,-4.955368 -0.05017,-0.491127 0.09464,-0.925308 0.396875,-1.18995 0.390928,-0.342307 8.24511,-5.012851 12.706724,-7.556139 1.405429,-0.80115 2.321218,-0.72584 2.321218,0.19089 0,0.78048 -0.517559,1.14258 -7.480146,5.233271 -3.175035,1.86541 -4.809038,2.973295 -4.760672,3.227827 0.0405,0.213153 2.73899,1.999091 5.996636,3.968749 3.257648,1.969659 6.043978,3.773374 6.191843,4.008258 0.422425,0.671017 0.03075,1.295172 -0.799254,1.273643 -0.460621,-0.01196 -3.309249,-1.583518 -7.615073,-4.201181 z m -33.686492,-6.121942 0.08441,-29.656795 0.624623,-0.5057 c 0.610407,-0.49419 1.854605,-0.50571 54.661594,-0.50571 51.96223,0 54.05374,0.0185 54.47371,0.48259 0.39958,0.44153 0.44245,3.00144 0.50403,30.09635 l 0.0673,29.613768 h 2.38125 2.38125 v -30.162498 -30.1625 l -0.57108,-1.05833 c -0.66823,-1.23838 -1.70469,-2.25603 -3.00079,-2.94636 -0.89507,-0.47673 -2.77998,-0.49322 -56.35625,-0.49322 H 51.919207 l -1.058333,0.57212 c -0.582083,0.31467 -1.440222,0.96996 -1.906976,1.4562 -1.751407,1.82451 -1.664899,0.11578 -1.664899,32.885841 0,16.328543 0.07938,29.767637 0.17639,29.864649 0.09701,0.09701 1.160356,0.17639 2.362986,0.17639 h 2.186598 z"
               id="path5165"
               inkscape:connector-curvature="0" />
            <path
               style="fill:#38afce;stroke-width:0.26458332"
               d="m 37.917998,-54.698453 c -2.831105,-1.163878 -5.004015,-3.988165 -5.356202,-6.96184 -0.261324,-2.206472 -0.361105,-2.170854 6.094495,-2.175531 3.0745,-0.0021 5.73687,-0.09734 5.916379,-0.211365 0.255048,-0.162005 0.341789,-6.912332 0.396875,-30.886052 l 0.0705,-30.678739 0.74373,-1.51454 c 0.816057,-1.66183 2.262759,-3.05363 4.131067,-3.9743 l 1.210619,-0.59657 h 55.959369 55.95938 l 1.62087,0.74902 c 1.92887,0.89136 3.23318,2.1642 4.24826,4.14577 l 0.74545,1.45521 0.13229,30.69166 0.1323,30.691665 4.88527,0.132291 4.88528,0.132292 0.23654,0.82613 c 0.5287,1.846476 -1.22525,5.460116 -3.44484,7.09736 -2.54422,1.876695 3.25493,1.734473 -70.44101,1.72752 l -66.560826,-0.0063 z m 135.886042,-1.960972 c 0.63053,-0.275312 1.58709,-0.959922 2.12569,-1.521354 1.0262,-1.069711 1.92625,-2.849557 1.65937,-3.281392 -0.0979,-0.158401 -11.12716,-0.252936 -29.50946,-0.252936 H 118.7265 v 1.307915 c 0,2.222155 0.53384,2.131668 -12.57601,2.131668 -9.077167,0 -11.498147,-0.07181 -11.881949,-0.352459 -0.318955,-0.233225 -0.526463,-0.815012 -0.6134,-1.719792 l -0.131384,-1.367332 H 64.18867 34.853582 l 9.79e-4,0.595312 c 0.0023,1.373884 1.72188,3.459962 3.570886,4.331912 l 1.322917,0.623856 66.454626,0.0026 c 64.61175,0.0026 66.48642,-0.0113 67.60104,-0.497982 z m -57.45879,-4.526516 c 0,-0.519869 -0.17639,-0.529166 -10.03855,-0.529166 -6.406966,0 -10.09771,0.09572 -10.202075,0.264583 -0.446225,0.722008 0.475869,0.79375 10.202075,0.79375 9.86216,0 10.03855,-0.0093 10.03855,-0.529167 z m 43.52396,-31.882289 v -29.10416 H 107.34942 54.829624 l -0.06814,28.839577 c -0.03748,15.861769 -0.01632,28.975701 0.04701,29.142071 0.08592,0.225706 13.435119,0.29287 52.587926,0.264584 l 52.47279,-0.03791 z m -60.676816,14.221353 c -0.130976,-0.254661 -0.178707,-0.641614 -0.106071,-0.859896 0.333092,-1.000963 10.462247,-26.562947 10.949937,-27.633307 0.34811,-0.76402 1.28609,-0.9128 1.80591,-0.28646 0.26393,0.31802 -0.0312,1.28959 -1.58753,5.22552 -1.05145,2.659181 -3.50822,8.882998 -5.45947,13.830706 -1.95125,4.947708 -3.68319,9.263724 -3.84874,9.591145 -0.36236,0.716643 -1.41275,0.795864 -1.754036,0.132292 z m -13.406519,-9.048916 c -6.274753,-3.814648 -6.886107,-4.250033 -6.958151,-4.955368 -0.05017,-0.491127 0.09464,-0.925308 0.396875,-1.18995 0.390928,-0.342307 8.24511,-5.012851 12.706724,-7.556139 1.405429,-0.80115 2.321218,-0.72584 2.321218,0.19089 0,0.78048 -0.517559,1.14258 -7.480146,5.233271 -3.175035,1.86541 -4.809038,2.973295 -4.760672,3.227827 0.0405,0.213153 2.73899,1.999091 5.996636,3.968749 3.257648,1.969659 6.043978,3.773374 6.191843,4.008258 0.422425,0.671017 0.03075,1.295172 -0.799254,1.273643 -0.460621,-0.01196 -3.309249,-1.583518 -7.615073,-4.201181 z m 29.318335,3.787434 c -0.0913,-0.238062 -0.047,-0.625015 0.0985,-0.859896 0.14554,-0.234884 2.93126,-2.034403 6.19048,-3.998934 3.25921,-1.964531 5.96093,-3.755075 6.00381,-3.978984 0.054,-0.281704 -1.57511,-1.373782 -5.28847,-3.545231 -6.55081,-3.830696 -7.14225,-4.251246 -7.03522,-5.002346 0.15558,-1.09171 1.14306,-0.81767 4.91254,1.36326 7.18726,4.158373 10.2035,6.011023 10.46193,6.425995 0.70509,1.132176 0.15472,1.59588 -6.97699,5.878348 -3.8779,2.328614 -7.19493,4.150625 -7.55633,4.150625 -0.35431,0 -0.71893,-0.194779 -0.81029,-0.432837 z m -62.684144,19.593487 c 0.08833,-0.230182 0.1606,-13.680056 0.1606,-29.888604 0,-28.865424 0.0105,-29.475714 0.511773,-29.743984 0.810286,-0.43365 107.990481,-0.37755 108.578691,0.0568 0.41544,0.30679 0.4526,2.48455 0.51359,30.096348 l 0.0657,29.765623 h 2.64583 2.64584 l 0.0673,-29.760111 c 0.076,-33.6119 0.1871,-31.64733 -1.90817,-33.7426 -2.14891,-2.14892 2.77659,-1.98166 -58.3578,-1.98166 -59.105922,0 -55.813474,-0.0821 -57.811523,1.44187 -0.499517,0.381 -1.238289,1.25424 -1.641715,1.94053 l -0.733505,1.24781 -0.07057,30.158586 c -0.03881,16.587223 -0.01278,30.309175 0.05784,30.493227 0.09096,0.237043 0.855652,0.33464 2.621952,0.33464 2.029704,0 2.523411,-0.07785 2.654136,-0.418515 z"
               id="path5163"
               inkscape:connector-curvature="0" />
            <path
               style="fill:#6f7b85;stroke-width:0.26458332"
               d="m 37.917998,-54.698453 c -2.831105,-1.163878 -5.004015,-3.988165 -5.356202,-6.96184 -0.261324,-2.206472 -0.361105,-2.170854 6.094495,-2.175531 3.0745,-0.0021 5.73687,-0.09734 5.916379,-0.211365 0.255048,-0.162005 0.341789,-6.912332 0.396875,-30.886052 l 0.0705,-30.678739 0.74373,-1.51454 c 0.816057,-1.66183 2.262759,-3.05363 4.131067,-3.9743 l 1.210619,-0.59657 h 55.959369 55.95938 l 1.62087,0.74902 c 1.92887,0.89136 3.23318,2.1642 4.24826,4.14577 l 0.74545,1.45521 0.13229,30.69166 0.1323,30.691665 4.88527,0.132291 4.88528,0.132292 0.23654,0.82613 c 0.5287,1.846476 -1.22525,5.460116 -3.44484,7.09736 -2.54422,1.876695 3.25493,1.734473 -70.44101,1.72752 l -66.560826,-0.0063 z m 135.886042,-1.960972 c 0.63053,-0.275312 1.58709,-0.959922 2.12569,-1.521354 1.0262,-1.069711 1.92625,-2.849557 1.65937,-3.281392 -0.0979,-0.158401 -11.12716,-0.252936 -29.50946,-0.252936 H 118.7265 v 1.307915 c 0,2.222155 0.53384,2.131668 -12.57601,2.131668 -9.077167,0 -11.498147,-0.07181 -11.881949,-0.352459 -0.318955,-0.233225 -0.526463,-0.815012 -0.6134,-1.719792 l -0.131384,-1.367332 H 64.18867 34.853582 l 9.79e-4,0.595312 c 0.0023,1.373884 1.72188,3.459962 3.570886,4.331912 l 1.322917,0.623856 66.454626,0.0026 c 64.61175,0.0026 66.48642,-0.0113 67.60104,-0.497982 z m -57.45879,-4.526516 c 0,-0.519869 -0.17639,-0.529166 -10.03855,-0.529166 -6.406966,0 -10.09771,0.09572 -10.202075,0.264583 -0.446225,0.722008 0.475869,0.79375 10.202075,0.79375 9.86216,0 10.03855,-0.0093 10.03855,-0.529167 z m 43.52396,-31.882289 v -29.10416 H 107.34942 54.829624 l -0.06814,28.839577 c -0.03748,15.861769 -0.01632,28.975701 0.04701,29.142071 0.08592,0.225706 13.435119,0.29287 52.587926,0.264584 l 52.47279,-0.03791 z M 52.420066,-64.514872 c 0.08833,-0.230182 0.1606,-13.680056 0.1606,-29.888604 0,-28.865424 0.0105,-29.475714 0.511773,-29.743984 0.810286,-0.43365 107.990481,-0.37755 108.578691,0.0568 0.41544,0.30679 0.4526,2.48455 0.51359,30.096348 l 0.0657,29.765623 h 2.64583 2.64584 l 0.0673,-29.760111 c 0.076,-33.6119 0.1871,-31.64733 -1.90817,-33.7426 -2.14891,-2.14892 2.77659,-1.98166 -58.3578,-1.98166 -59.105922,0 -55.813474,-0.0821 -57.811523,1.44187 -0.499517,0.381 -1.238289,1.25424 -1.641715,1.94053 l -0.733505,1.24781 -0.07057,30.158586 c -0.03881,16.587223 -0.01278,30.309175 0.05784,30.493227 0.09096,0.237043 0.855652,0.33464 2.621952,0.33464 2.029704,0 2.523411,-0.07785 2.654136,-0.418515 z"
               id="path5161"
               inkscape:connector-curvature="0" />
            <path
               style="fill:#535e68;stroke-width:0.26458332"
               d="m 39.880665,-54.288031 c -3.828089,-0.574646 -6.826577,-3.75044 -7.099167,-7.51895 -0.08177,-1.13043 -0.01293,-1.617774 0.252208,-1.785713 0.200567,-0.127037 2.954277,-0.232801 6.119355,-0.235029 4.417772,-0.0031 5.757881,-0.08089 5.768438,-0.33478 0.0076,-0.181901 0.04284,-13.963384 0.0784,-30.625519 0.07093,-33.235848 -0.04204,-31.001278 1.691354,-33.455128 0.893061,-1.26425 2.689045,-2.5698 4.292777,-3.12055 1.186836,-0.40758 106.10304,-0.62995 110.10683,-0.23337 3.84523,0.38087 6.10916,1.7942 7.67999,4.79447 l 0.62336,1.19062 0.13229,30.823958 0.13229,30.823957 4.7625,0.132291 c 2.61938,0.07276 4.91133,0.228616 5.09323,0.346345 0.49731,0.321861 0.39821,2.099281 -0.20726,3.717544 -0.75714,2.023642 -2.31079,3.679849 -4.43126,4.723783 l -1.7664,0.869619 -66.01915,0.03259 c -36.31054,0.01792 -66.554943,-0.04784 -67.209787,-0.14614 z M 174.15671,-56.59946 c 2.07478,-1.123111 4.19198,-4.112297 3.59586,-5.076843 -0.14147,-0.228905 -7.59573,-0.288793 -29.67365,-0.238398 l -29.48471,0.0673 -0.0831,1.316199 c -0.0457,0.723908 -0.20909,1.468048 -0.36313,1.653646 -0.21928,0.264221 -2.78493,0.336568 -11.82318,0.333396 -6.63296,-0.0024 -11.708214,-0.108466 -11.931231,-0.249515 -0.225211,-0.142439 -0.447315,-0.834811 -0.529167,-1.649595 l -0.141057,-1.404131 H 64.222333 34.72129 l 0.04059,0.874408 c 0.07851,1.691209 2.108397,3.932722 4.258351,4.702299 0.822458,0.2944 12.405768,0.345811 67.535439,0.299736 l 66.54271,-0.05561 z m -57.67917,-4.586481 v -0.661458 l -10.08533,-0.06926 c -8.734224,-0.05998 -10.129809,-0.01566 -10.417295,0.330729 -0.266223,0.320778 -0.266223,0.479195 0,0.799973 0.287486,0.3464 1.683071,0.390708 10.417295,0.330729 l 10.08533,-0.06926 z M 52.580666,-93.729688 c 0.07276,-16.371092 0.228616,-29.914452 0.346345,-30.096352 0.170092,-0.26281 11.347534,-0.33073 54.428709,-0.33073 h 54.21466 l 0.29932,0.55928 c 0.2207,0.41238 0.25113,8.14405 0.11585,29.434896 -0.1292,20.334352 -0.0995,29.090835 0.10032,29.603216 0.28187,0.722696 0.30072,0.727604 2.79457,0.727604 2.1347,0 2.54228,-0.06935 2.7211,-0.46302 0.11568,-0.254662 0.14964,-14.105159 0.0755,-30.77888 l -0.13487,-30.315856 -0.80326,-1.30185 c -1.00655,-1.63135 -3.04902,-2.92359 -4.97998,-3.15075 -0.74828,-0.088 -25.7088,-0.12476 -55.46781,-0.0816 l -54.107289,0.0784 -1.587471,0.79375 c -1.917071,0.95855 -3.139152,2.46302 -3.547542,4.36727 -0.439716,2.05033 -0.403865,60.102597 0.03739,60.543853 0.224528,0.224528 1.111862,0.302943 2.844271,0.251355 l 2.517934,-0.07498 z m 107.621404,0.79375 c 0.0624,-26.491582 0.0315,-28.998972 -0.36187,-29.288402 -0.33036,-0.24308 -12.0705,-0.31452 -50.6037,-0.30789 -27.595448,0.005 -51.185574,0.0876 -52.422501,0.18423 l -2.248958,0.17561 -0.06814,28.839577 c -0.03748,15.861769 -0.01132,28.988703 0.05809,29.170961 0.100653,0.264231 10.810555,0.317847 52.852519,0.264583 l 52.72628,-0.0668 z"
               id="path5159"
               inkscape:connector-curvature="0" />
            <path
               style="fill:#303b45;stroke-width:0.26458332"
               d="m 39.034848,-54.675715 c -3.173701,-0.857742 -5.634712,-3.644222 -6.166832,-6.982398 -0.305351,-1.915578 -0.326665,-1.909077 6.2596,-1.909077 4.401659,0 5.827366,-0.07981 5.923997,-0.331624 0.06999,-0.182393 0.156732,-14.023408 0.19276,-30.75781 0.05014,-23.288926 0.141986,-30.643416 0.391541,-31.352226 0.633571,-1.79953 2.210393,-3.50859 4.149892,-4.49792 l 1.815428,-0.92604 h 55.589196 55.5892 l 1.5875,0.74256 c 2.33833,1.09377 3.81614,2.67748 4.58329,4.91172 0.22466,0.65429 0.30881,8.9402 0.316,31.113886 0.008,23.395994 0.0829,30.320179 0.33337,30.656309 0.27546,0.369617 1.03193,0.444552 5.08609,0.503817 l 4.7625,0.06962 0.0792,1.079738 c 0.19759,2.694662 -2.30645,6.325079 -5.1085,7.406431 -1.28998,0.497819 -2.86417,0.510818 -67.73109,0.559268 -52.964379,0.03956 -66.662026,-0.01839 -67.653112,-0.286253 z m 134.450602,-1.372449 c 1.03713,-0.307996 1.74066,-0.758817 2.66484,-1.707644 1.40435,-1.441797 2.31496,-3.522774 1.80852,-4.132982 -0.42573,-0.512977 -59.02206,-0.530754 -59.44757,-0.01805 -0.15403,0.185597 -0.31744,0.929738 -0.36313,1.653646 l -0.0831,1.316207 -11.61117,0.06895 c -8.352445,0.0496 -11.712556,-0.01519 -11.972398,-0.230833 -0.21454,-0.178052 -0.361222,-0.821788 -0.361222,-1.585267 0,-1.114097 -0.07937,-1.30465 -0.595313,-1.429271 -0.327422,-0.07908 -13.751719,-0.111117 -29.831771,-0.07119 l -29.236459,0.0726 0.03222,1.015246 c 0.05633,1.774745 2.283645,4.28876 4.499426,5.078592 0.860543,0.306747 11.597443,0.367085 67.056267,0.376841 59.46101,0.01045 66.17189,-0.03003 67.44083,-0.406861 z m -57.02955,-4.240043 c 0.55191,-0.211788 0.55191,-1.583679 0,-1.795467 -0.74984,-0.287743 -19.949876,-0.181639 -20.500961,0.113292 -0.576781,0.308684 -0.671015,1.048533 -0.194273,1.525275 0.23572,0.23572 2.88797,0.3175 10.297114,0.3175 5.48878,0 10.16794,-0.07227 10.39812,-0.1606 z M 52.426734,-63.72779 c 0.378166,-0.145116 0.418515,-3.003663 0.418515,-29.650725 0,-19.822315 0.08979,-29.657905 0.273891,-30.001895 0.26942,-0.50342 1.157256,-0.51178 54.34357,-0.51178 49.0604,0 54.08456,0.0388 54.23027,0.41852 0.0883,0.23018 0.1606,13.73104 0.1606,30.001897 0,26.732102 0.0403,29.598862 0.41852,29.743983 0.74569,0.28615 5.35984,0.178808 5.55014,-0.129116 0.0985,-0.159346 0.15848,-13.98819 0.13334,-30.73077 -0.0453,-30.137674 -0.0511,-30.451874 -0.58943,-31.526424 -0.75152,-1.50023 -1.71009,-2.4674 -3.26361,-3.29286 l -1.32291,-0.70293 H 107.614 c -43.397994,0 -55.397607,0.0706 -56.25313,0.33097 -1.446088,0.4401 -3.352678,2.15725 -4.115858,3.7069 l -0.617471,1.25379 -0.0737,30.09964 c -0.05116,20.896672 0.01236,30.260429 0.207748,30.625519 0.250158,0.467424 0.557403,0.525881 2.764036,0.525881 1.365424,0 2.670924,-0.07227 2.901106,-0.1606 z m 107.830046,-0.351173 c 0.43167,-0.806588 0.3762,-57.456467 -0.0568,-58.044597 -0.30947,-0.42032 -3.72342,-0.44483 -53.11511,-0.3813 l -52.784373,0.0679 -0.07261,28.839583 c -0.03994,15.86177 -0.0079,29.107472 0.07119,29.434894 l 0.143799,0.595313 h 52.770034 c 51.90138,0 52.77453,-0.0084 53.04392,-0.511773 z"
               id="path5157"
               inkscape:connector-curvature="0" />
          </g>
        </g>
      </g>
    </g>
  </g>
</svg>
