<?xml version="1.0" encoding="UTF-8" standalone="no"?>
<!-- Created with Inkscape (http://www.inkscape.org/) -->

<svg
   xmlns:dc="http://purl.org/dc/elements/1.1/"
   xmlns:cc="http://creativecommons.org/ns#"
   xmlns:rdf="http://www.w3.org/1999/02/22-rdf-syntax-ns#"
   xmlns:svg="http://www.w3.org/2000/svg"
   xmlns="http://www.w3.org/2000/svg"
   xmlns:sodipodi="http://sodipodi.sourceforge.net/DTD/sodipodi-0.dtd"
   xmlns:inkscape="http://www.inkscape.org/namespaces/inkscape"
   width="100.27708mm"
   height="66.675003mm"
   viewBox="0 0 100.27708 66.675003"
   version="1.1"
   id="svg8"
   inkscape:version="0.92.1 r15371"
   sodipodi:docname="szalejemybudujemy.svg">
  <defs
     id="defs2" />
  <sodipodi:namedview
     id="base"
     pagecolor="#ff7659"
     bordercolor="#666666"
     borderopacity="1.0"
     inkscape:pageopacity="0"
     inkscape:pageshadow="2"
     inkscape:zoom="1.2861069"
     inkscape:cx="169.78134"
     inkscape:cy="67.223746"
     inkscape:document-units="mm"
     inkscape:current-layer="g5284"
     showgrid="false"
     fit-margin-top="0"
     fit-margin-left="0"
     fit-margin-right="0"
     fit-margin-bottom="0"
     inkscape:window-width="1536"
     inkscape:window-height="841"
     inkscape:window-x="-8"
     inkscape:window-y="-8"
     inkscape:window-maximized="1" />
  <metadata
     id="metadata5">
    <rdf:RDF>
      <cc:Work
         rdf:about="">
        <dc:format>image/svg+xml</dc:format>
        <dc:type
           rdf:resource="http://purl.org/dc/dcmitype/StillImage" />
        <dc:title></dc:title>
      </cc:Work>
    </rdf:RDF>
  </metadata>
  <g
     inkscape:label="Layer 1"
     inkscape:groupmode="layer"
     id="layer1"
     transform="translate(221.05226,137.64301)">
    <g
       id="g4496"
       transform="translate(-171.41717,58.14693)">
      <g
         id="g4538"
         transform="translate(145.65313,113.63854)">
        <g
           id="g4567"
           transform="translate(-190.86895,62.30846)">
          <g
             id="g5155">
            <g
               id="g5184">
              <g
                 id="g5215"
                 transform="translate(-0.2057242,-0.20572424)">
                <g
                   id="g5244">
                  <g
                     id="g5284">
                    <g
                       id="g5413">
                      <path
                         style="fill:#959ca4;stroke-width:0.26458335"
                         d="m 31.637496,-323.37705 -17.197916,-0.13229 -0.08455,-0.59532 -0.08455,-0.59531 h 16.819443 c 15.876555,0 16.819443,-0.0261 16.819443,-0.46552 0,-0.25604 0.238125,-0.61423 0.529167,-0.79599 0.497297,-0.31057 0.529166,-0.61702 0.529166,-5.08849 0,-4.47147 0.03187,-4.77792 0.529167,-5.08848 0.715177,-0.44664 0.665546,-0.84986 -0.150357,-1.22161 -0.861544,-0.39255 -0.810072,-1.45261 0.07665,-1.57867 0.568968,-0.0809 0.590111,-0.19507 0.661458,-3.57188 l 0.0737,-3.48832 h 0.781823 c 1.057135,0 1.144238,0.41618 1.176179,5.61956 0.0227,3.69741 -0.04741,4.49077 -0.502661,5.68854 -0.431826,1.13615 -0.529056,2.0329 -0.529167,4.88041 -7.1e-5,1.91868 -0.113231,3.78598 -0.251462,4.14955 -0.178451,0.46936 -0.159269,0.69848 0.06615,0.79009 0.174611,0.071 7.603026,0.13844 16.507589,0.14992 11.432264,0.0147 16.24278,0.10611 16.369328,0.31086 0.09857,0.15949 0.01624,0.45295 -0.182933,0.65213 -0.430495,0.43049 -23.508297,0.59965 -51.955674,0.38082 z m -0.953246,-4.15007 c -1.103493,-0.46398 -1.320925,-1.33373 -1.237406,-4.94975 l 0.07399,-3.20331 0.710763,-0.0821 c 0.622742,-0.0719 0.745435,0.0428 0.990712,0.92604 0.153971,0.55447 0.280614,2.04993 0.281424,3.32324 0.0013,2.09458 0.04919,2.31511 0.502335,2.31511 0.716433,0 0.822058,-0.48098 0.822058,-3.74339 v -2.90635 l 0.712314,0.0837 c 0.975833,0.1147 1.173681,1.03774 1.081748,5.04683 l -0.07427,3.23898 -1.546545,0.13749 c -0.936953,0.0833 -1.850276,0.01 -2.317117,-0.18652 z m 6.31771,0.0221 c -0.396523,-0.20892 -0.843008,-0.60792 -0.992188,-0.88667 -0.438602,-0.81953 -0.345178,-6.13911 0.119467,-6.80249 0.461727,-0.65921 1.683872,-1.03078 2.081734,-0.63292 0.531675,0.53168 0.702564,0.27322 0.702564,-1.06258 0,-1.18894 -0.04493,-1.29688 -0.394369,-0.94745 -0.259088,0.25909 -0.935281,0.39696 -1.971233,0.40191 -1.373759,0.007 -1.680798,-0.0895 -2.383759,-0.74621 -1.741146,-1.62646 -0.629266,-4.77476 1.686301,-4.77476 0.955469,0 1.166019,-0.30206 0.711041,-1.02009 -0.187835,-0.29644 -0.342881,-0.28287 -0.893974,0.0782 -0.927724,0.60787 -2.045673,0.31166 -2.045673,-0.54201 0,-1.0521 0.882361,-1.69111 2.33513,-1.69111 1.02992,0 1.400821,0.13188 1.918229,0.68205 0.582425,0.6193 0.649571,0.94412 0.729901,3.53092 l 0.08847,2.84887 0.639138,-0.12218 0.639135,-0.12218 v -4.99624 -4.99624 h 0.762892 c 1.015677,0 1.081193,0.31811 1.08558,5.27083 0.0029,3.22343 0.08567,4.17088 0.394383,4.51201 0.867066,0.9581 0.586676,1.82407 -0.7215,2.22831 -0.418603,0.12935 -0.463021,0.60155 -0.463021,4.92219 0,3.59269 -0.0821,4.80433 -0.330729,4.88074 -1.096738,0.33705 -3.046244,0.33025 -3.697515,-0.0129 z m 1.934725,-2.00068 c 0.403403,-0.75376 0.169577,-4.17203 -0.305469,-4.46563 -0.628216,-0.38826 -1.023363,0.58326 -1.032182,2.53774 -0.01042,2.30792 0.63581,3.23929 1.337651,1.92789 z m -2.272106,-10.80466 c 0,-0.75033 -0.109559,-0.94163 -0.577411,-1.00824 -0.692359,-0.0986 -1.252204,0.77458 -1.002035,1.56279 0.12451,0.3923 0.357251,0.51286 0.874554,0.45303 0.613671,-0.071 0.704892,-0.20137 0.704892,-1.00758 z m 17.065624,12.88351 c -1.353878,-0.4617 -1.85116,-1.63364 -1.851673,-4.36383 -5.29e-4,-2.58291 0.398748,-3.56786 1.618533,-3.99307 1.343496,-0.46835 1.833615,-0.35353 2.781586,0.65161 0.821399,0.87094 0.891137,1.07799 0.891137,2.64583 v 1.70096 l -1.124479,0.008 c -1.229558,0.009 -2.05052,0.46772 -2.05052,1.14523 0,0.54449 0.95119,0.57832 1.249955,0.0445 0.119856,-0.21417 0.512725,-0.42253 0.873043,-0.46302 0.594188,-0.0668 0.66263,0.0296 0.735787,1.03655 0.07282,1.00221 0.0033,1.15017 -0.714465,1.52136 -0.930333,0.48109 -1.171053,0.48764 -2.408904,0.0655 z m 1.648603,-5.73975 c -0.143875,-1.33681 -1.453282,-1.60799 -1.765112,-0.36557 -0.229269,0.91349 0.03161,1.2022 1.001236,1.10808 0.715867,-0.0695 0.824902,-0.17547 0.763876,-0.74251 z m -31.988084,5.61599 c -0.212958,-0.13548 -0.336553,-1.7638 -0.396875,-5.22868 -0.08267,-4.74857 -0.121124,-5.0745 -0.682914,-5.78801 -0.327421,-0.41585 -0.595312,-0.97815 -0.595312,-1.24957 0,-0.71592 1.243663,-0.6478 1.859243,0.10183 0.388884,0.47357 0.58371,0.53734 0.952704,0.31182 0.769747,-0.47044 0.716409,-0.88207 -0.177507,-1.36986 -2.250636,-1.22815 -2.897188,-2.30507 -2.360394,-3.93157 0.356197,-1.07929 0.923577,-1.42654 2.330872,-1.42654 0.850141,0 1.183754,0.15633 1.737188,0.81405 0.376738,0.44773 0.684977,0.98725 0.684977,1.19893 0,0.59814 -0.810466,0.76522 -1.577229,0.32516 -0.611587,-0.351 -0.737788,-0.35202 -1.058653,-0.009 -0.311259,0.3332 -0.290351,0.44619 0.143605,0.77606 0.279347,0.21234 0.838941,0.50631 1.243544,0.65326 0.861783,0.313 1.513316,1.43038 1.513316,2.59532 0,1.03139 -0.382706,1.75876 -1.356484,2.57814 -0.953772,0.80254 -1.000286,1.35888 -0.09921,1.18663 0.904573,-0.17292 1.945222,0.56939 2.432224,1.73496 0.606428,1.45138 0.389115,6.05237 -0.310009,6.56358 -0.53579,0.39178 -3.732226,0.51344 -4.283083,0.16301 z m 2.671625,-1.79844 c 0.478329,-0.47832 0.57668,-3.09531 0.157739,-4.19721 -0.324967,-0.85472 -1.206765,-0.90623 -1.427284,-0.0834 -0.25804,0.96287 -0.189765,3.62984 0.107127,4.18459 0.332076,0.62049 0.614595,0.64382 1.162418,0.096 z m 17.060944,1.50883 c -0.610976,-0.49415 -0.641512,-0.67316 -0.724022,-4.24406 l -0.08615,-3.72816 h 0.80355 c 0.716026,0 0.835166,0.11741 1.093812,1.07794 0.162782,0.60454 0.228565,1.99211 0.149783,3.15949 -0.130194,1.92922 -0.100825,2.09413 0.401336,2.25351 0.297997,0.0946 0.596537,0.11723 0.663424,0.0503 0.06689,-0.0669 0.120629,-1.06003 0.119428,-2.20697 -0.0013,-1.14695 0.06866,-2.59788 0.155241,-3.2243 0.143037,-1.03482 0.219607,-1.13158 0.837531,-1.05834 0.939662,0.11138 1.140507,1.07658 1.049538,5.04372 l -0.07427,3.23898 -1.875663,0.0769 c -1.5401,0.0631 -1.989785,-0.0154 -2.513541,-0.43903 z m 20.131912,-0.27146 -0.661458,-0.18399 v -6.86724 c 0,-6.83285 0.0029,-6.86764 0.570849,-6.94858 0.943432,-0.13443 1.585846,0.8923 2.666672,4.26199 0.56329,1.75617 1.14133,3.23209 1.284533,3.27983 0.143203,0.0477 0.778624,-1.49228 1.412047,-3.42226 0.63342,-1.92998 1.273363,-3.66363 1.422093,-3.85255 0.481687,-0.61186 1.309859,-0.24325 1.663406,0.74037 0.392928,1.09319 0.514853,12.84575 0.1357,13.08008 -0.130577,0.0807 -0.606827,0.0729 -1.058334,-0.0175 -0.812852,-0.16256 -0.820925,-0.1804 -0.820925,-1.81397 0,-2.05703 -0.270333,-4.10489 -0.541875,-4.10489 -0.112947,0 -0.288681,0.50601 -0.390511,1.12447 -0.101833,0.61847 -0.345356,1.51385 -0.54116,1.98973 -0.345967,0.84085 -0.379302,0.85575 -1.181571,0.52839 -0.655884,-0.26763 -0.929757,-0.63273 -1.332511,-1.77639 -0.799332,-2.26979 -1.034121,-2.24125 -1.081135,0.1314 -0.02291,1.15689 -0.02445,2.28203 -0.0034,2.50031 0.07168,0.74317 -0.228669,1.58758 -0.55527,1.56113 -0.179129,-0.0145 -0.623346,-0.10917 -0.987148,-0.21037 z m 12.567708,0.0432 c -0.827783,-0.20681 -0.917475,-0.54724 -0.924912,-3.51057 -0.0063,-2.50716 -0.09928,-3.0362 -0.953357,-5.42396 -1.848424,-5.16768 -1.870639,-5.39399 -0.495581,-5.04887 0.759698,0.19067 1.08779,0.74802 1.84979,3.14236 0.660521,2.07546 0.838432,2.00717 1.581422,-0.60704 0.698812,-2.45874 0.847553,-2.69103 1.662017,-2.59554 1.171821,0.13739 1.268744,1.5193 0.295709,4.21626 -1.291005,3.57829 -1.55988,4.87456 -1.55988,7.52032 0,2.68526 0.008,2.67261 -1.455208,2.30704 z m -47.531363,-9.62403 c -0.836064,-0.31325 -1.081322,-1.03379 -0.637616,-1.87322 0.178004,-0.33675 0.70064,-1.31365 1.161415,-2.17088 1.097412,-2.04164 1.077452,-2.38991 -0.154414,-2.69422 -0.816583,-0.20172 -0.992187,-0.36217 -0.992187,-0.90656 0,-0.64985 0.03675,-0.66146 2.094619,-0.66146 2.066279,0 2.098008,0.0102 2.345261,0.75193 0.195628,0.58689 0.11593,1.09109 -0.363093,2.2971 -0.337553,0.84983 -0.693817,1.49566 -0.791694,1.43517 -0.146889,-0.0908 -0.443833,0.87883 -0.511019,1.66864 -0.0092,0.10844 0.374864,0.25669 0.853535,0.32945 0.793049,0.12055 0.870307,0.2145 0.870307,1.05834 v 0.92604 l -1.5875,0.051 c -0.873125,0.028 -1.902552,-0.067 -2.287614,-0.21132 z m 16.639281,-0.17378 c -1.145519,-0.71018 -1.62895,-2.32688 -1.424932,-4.76529 0.22652,-2.70739 0.681005,-3.33946 2.477875,-3.44606 1.200285,-0.0712 1.393204,-0.001 2.004351,0.72488 0.458642,0.54506 0.734931,1.27343 0.858645,2.2636 0.203771,1.63093 -0.105342,2.28894 -1.039564,2.21291 -1.775531,-0.1445 -2.4795,0.26497 -2.110182,1.2274 0.227407,0.59261 0.668049,0.4826 1.324719,-0.33073 0.483999,-0.59946 0.672134,-0.67631 1.068273,-0.43633 0.75905,0.45982 0.749875,1.58039 -0.01923,2.3495 -0.792297,0.7923 -2.054966,0.87277 -3.139945,0.20012 z m 2.097566,-5.24417 c 0.0936,-0.24393 -0.06962,-0.64928 -0.390753,-0.97041 -0.460446,-0.46045 -0.61941,-0.49515 -0.962802,-0.21016 -0.494041,0.41002 -0.540912,1.2385 -0.08057,1.42425 0.665999,0.26873 1.277358,0.16485 1.434129,-0.24368 z m 7.324397,5.21578 c -1.143096,-0.71746 -1.505961,-1.97239 -1.362216,-4.71109 0.102736,-1.95736 0.199901,-2.31216 0.796642,-2.9089 0.5255,-0.5255 0.936152,-0.6761 1.810679,-0.66403 1.603293,0.0221 2.302624,0.79661 2.646307,2.93069 0.326908,2.0299 0.102288,2.40688 -1.437542,2.41259 -1.398299,0.005 -1.86209,0.29546 -1.631733,1.02125 0.23668,0.74572 0.571127,0.70891 1.304396,-0.14357 0.843713,-0.98087 1.484211,-0.69387 1.484211,0.66507 0,1.22126 -0.404352,1.63076 -1.77556,1.79817 -0.705115,0.0861 -1.249593,-0.0326 -1.835184,-0.40018 z m 2.143283,-5.04163 c 0.258879,-0.41888 -0.444444,-1.60733 -0.951216,-1.60733 -0.508604,0 -0.941256,1.07422 -0.633326,1.57246 0.212871,0.34443 1.377384,0.37006 1.584542,0.0349 z m -39.895732,-3.37122 c -0.09701,-0.097 -0.176388,-0.33483 -0.176388,-0.52849 0,-0.19893 4.34477,-2.51777 9.98802,-5.33068 9.761775,-4.8658 10.014989,-4.97409 11.178645,-4.78034 0.654844,0.10903 6.727032,2.33731 13.49375,4.95174 10.431878,4.03053 12.315983,4.83797 12.387672,5.30884 0.141928,0.9322 -0.0516,0.87835 -8.28663,-2.30576 -2.619375,-1.0128 -7.791305,-3.00079 -11.493177,-4.41776 l -6.730677,-2.57632 -9.879367,4.92758 c -5.433652,2.71017 -9.975238,4.92758 -10.092413,4.92758 -0.117175,0 -0.292421,-0.0794 -0.389435,-0.17639 z m 34.153298,-1.20428 c -0.998911,-0.34449 -1.023459,-1.44541 -0.03775,-1.69281 0.767138,-0.19254 1.151509,0.18568 1.158176,1.13964 0.0052,0.74733 -0.226174,0.86157 -1.120428,0.55317 z"
                         id="path5427"
                         inkscape:connector-curvature="0" />
                      <path
                         style="fill:#7188a1;stroke-width:0.26458335"
                         d="m 32.166662,-323.64629 c -9.749895,-0.0753 -17.756848,-0.16462 -17.793228,-0.19844 -0.55741,-0.51815 1.49684,-0.59065 16.734895,-0.59065 13.952561,0 16.801041,-0.0607 16.801041,-0.35825 0,-0.19703 0.297656,-0.67941 0.661458,-1.07196 0.654169,-0.70586 0.661459,-0.76574 0.661459,-5.43429 0,-3.95197 0.06462,-4.74535 0.396875,-4.87285 0.500316,-0.19199 0.524195,-1.22724 0.02831,-1.22724 -0.346673,0 -0.689767,-0.53718 -0.689767,-1.07997 0,-0.13362 0.174406,-0.24295 0.387567,-0.24295 0.536811,0 0.981763,-0.9289 0.927296,-1.93587 -0.02506,-0.46324 -0.0335,-1.88405 -0.01876,-3.15735 0.02609,-2.25304 0.04365,-2.31511 0.655193,-2.31511 0.84487,0 0.959115,0.68059 0.959115,5.71377 0,3.74963 -0.04971,4.1688 -0.649955,5.48108 -0.602826,1.31791 -0.652425,1.74534 -0.684061,5.89482 l -0.03411,4.47387 0.617918,0.0287 c 0.339852,0.0158 7.850963,0.0455 16.691353,0.0661 9.681488,0.0226 16.073437,0.1351 16.073437,0.283 0,0.13505 -0.625078,0.31673 -1.389062,0.40374 -1.974046,0.22481 -29.454533,0.30113 -50.336978,0.13981 z m -6.614583,-3.96514 c -0.436562,-0.095 -1.180703,-0.11802 -1.653646,-0.0512 l -0.859895,0.12148 v -5.08611 c 0,-4.68549 -0.04168,-5.13911 -0.529167,-5.75884 -0.640399,-0.81414 -0.683321,-1.61715 -0.09844,-1.8416 0.273299,-0.10487 0.59476,0.0522 0.879515,0.42968 0.625573,0.82934 1.732463,0.67103 1.732463,-0.24778 0,-0.52081 -0.261009,-0.79419 -1.227461,-1.28565 -1.924704,-0.97876 -2.44565,-2.91788 -1.115155,-4.15094 1.269907,-1.17691 3.186922,-0.70003 3.756737,0.93454 0.273111,0.78344 0.262194,0.79788 -0.603277,0.79788 -0.649078,0 -0.916715,-0.13497 -1.015322,-0.51204 -0.150572,-0.5758 -1.114494,-0.4892 -1.348714,0.12117 -0.169749,0.44236 1.077026,1.71379 1.680557,1.71379 0.689176,0 1.357246,0.90214 1.509683,2.03863 0.118311,0.88209 0.0113,1.17181 -0.784706,2.12457 -0.506934,0.60676 -0.971341,1.05356 -1.03201,0.99289 -0.06067,-0.0607 -0.137356,0.29127 -0.170413,0.7821 l -0.0601,0.89241 1.077452,-0.14452 c 0.899411,-0.12064 1.173559,-0.0414 1.659056,0.47976 0.52664,0.56528 0.579279,0.88753 0.557009,3.40995 -0.01352,1.53212 -0.06258,2.98008 -0.109,3.21769 -0.13126,0.67185 -1.335426,1.22005 -2.24517,1.02214 z m 0.510268,-1.73765 c 0.624594,-0.62459 0.584964,-4.11159 -0.05329,-4.6892 -0.857073,-0.77565 -1.236099,-0.15787 -1.342647,2.18839 -0.11997,2.64181 0.372565,3.52419 1.395937,2.50081 z m 4.91369,1.81557 c -1.227579,-0.45137 -1.322916,-0.78401 -1.322916,-4.6158 0,-3.44964 0.02993,-3.66316 0.513551,-3.66316 0.790117,0 0.900229,0.41344 0.88488,3.32245 -0.0078,1.48423 0.07474,2.84256 0.183483,3.01852 0.108747,0.17595 0.481912,0.27973 0.829257,0.23062 0.621673,-0.0879 0.632696,-0.13991 0.705827,-3.33044 0.0696,-3.03665 0.107574,-3.24115 0.601861,-3.24115 0.811754,0 1.043641,1.02969 1.043641,4.63429 0,2.82708 -0.06263,3.31196 -0.45619,3.53221 -0.289393,0.16196 -0.627978,0.16336 -0.926041,0.004 -0.30316,-0.16224 -0.651418,-0.15429 -0.981626,0.0224 -0.281474,0.15064 -0.549365,0.26449 -0.595312,0.253 -0.04595,-0.0115 -0.262133,-0.0866 -0.480415,-0.16682 z m 5.895393,-0.13146 c -0.881771,-0.42572 -1.20736,-1.80259 -1.085442,-4.59017 0.0845,-1.93196 0.215106,-2.58738 0.600442,-3.01317 0.539737,-0.59641 1.714275,-0.72199 2.200934,-0.23533 0.458928,0.45893 0.668618,-0.3027 0.528071,-1.91803 -0.101266,-1.1639 -0.04526,-1.37621 0.407186,-1.54358 0.495647,-0.18335 0.521621,-0.42172 0.470551,-4.31809 -0.0662,-5.05097 0.0843,-6.08311 0.870704,-5.97093 0.546939,0.078 0.565216,0.21406 0.632939,4.71055 0.06,3.98363 0.132056,4.67664 0.516019,4.96272 0.245457,0.18287 0.48604,0.62936 0.534631,0.99218 0.08923,0.66633 -0.156388,0.79177 -1.318824,0.67352 -0.426799,-0.0434 -0.463021,0.35783 -0.463021,5.12891 v 5.17601 h -0.778134 c -0.427974,0 -0.852284,-0.11998 -0.942911,-0.26662 -0.102153,-0.16528 -0.316381,-0.11501 -0.563682,0.13229 -0.45943,0.45943 -0.789181,0.47577 -1.609463,0.0797 z m 1.888175,-1.42893 c 0.328089,-0.1259 0.417735,-0.56895 0.414904,-2.05052 -0.0049,-2.53923 -0.172366,-3.08055 -0.953289,-3.08055 -0.346829,0 -0.637487,0.14883 -0.645908,0.33073 -0.0764,1.65078 0.01032,4.47421 0.144055,4.69062 0.191674,0.31014 0.447614,0.33713 1.040238,0.10972 z m 4.538446,1.15279 c -0.649267,-0.57511 -0.673169,-0.70913 -0.704197,-3.94874 -0.01767,-1.84439 0.04704,-3.4815 0.143772,-3.63802 0.285512,-0.46197 1.198639,-0.33124 1.246238,0.17842 0.02379,0.25466 0.07379,1.65365 0.111119,3.10886 0.03733,1.45521 0.0774,2.72124 0.08905,2.81341 0.04261,0.3373 1.067789,0.42992 1.325226,0.11973 0.145849,-0.17573 0.299053,-1.68149 0.340458,-3.34612 0.07166,-2.88116 0.102994,-3.03055 0.651986,-3.10872 0.49607,-0.0706 0.599877,0.0774 0.742418,1.05834 0.09114,0.62724 0.129281,2.45013 0.08475,4.05086 l -0.08096,2.91041 H 46.27819 c -0.533344,0 -1.059204,0.0893 -1.168574,0.19844 -0.369962,0.36918 -1.136248,0.20131 -1.811565,-0.39687 z m 10.254548,0.21992 c -1.210315,-0.54135 -1.409896,-1.12416 -1.409896,-4.11716 0,-2.48762 0.04555,-2.72081 0.649433,-3.32469 0.793536,-0.79353 2.439191,-0.88615 3.303916,-0.18594 0.566957,0.4591 1.083712,2.75287 0.864192,3.83599 -0.08757,0.43208 -0.941675,0.60544 -2.436291,0.4945 -0.218281,-0.0162 -0.575468,0.0862 -0.79375,0.22747 -0.352777,0.22839 -0.352777,0.33616 0,0.96997 0.527098,0.94699 0.903177,1.03216 1.539878,0.34874 1.088871,-1.16876 2.20341,0.0674 1.152871,1.27866 -0.653827,0.75387 -1.814189,0.94487 -2.870353,0.47246 z m 1.826207,-5.44544 c -0.143875,-1.33681 -1.453282,-1.60799 -1.765112,-0.36557 -0.229269,0.91349 0.03161,1.2022 1.001236,1.10808 0.715867,-0.0695 0.824902,-0.17547 0.763876,-0.74251 z m 7.52362,4.85069 c -0.09701,-0.097 -0.17639,-3.19264 -0.17639,-6.87917 v -6.70278 h 0.75601 c 0.723707,0 0.798065,0.12154 1.740183,2.84428 0.541295,1.56434 1.105038,3.35654 1.25276,3.98266 0.155186,0.65775 0.397928,1.09529 0.574921,1.0363 0.317386,-0.10578 1.372854,-2.8503 2.1591,-5.61428 0.24837,-0.87312 0.494914,-1.73633 0.547876,-1.91823 0.168021,-0.57709 1.329293,-0.38406 1.591783,0.26459 0.132501,0.32742 0.208989,3.42304 0.169974,6.87916 l -0.07093,6.28386 h -0.628361 c -0.851813,0 -0.946629,-0.37137 -0.968158,-3.79195 -0.02717,-4.31768 -0.257898,-4.562 -1.260512,-1.3348 -0.735936,2.36882 -0.897875,2.67014 -1.420638,2.64339 -0.453631,-0.0232 -0.70697,-0.33598 -1.095963,-1.3531 -0.848812,-2.21942 -1.351073,-3.26454 -1.518994,-3.16076 -0.08805,0.0544 -0.122885,1.49484 -0.07741,3.20095 0.05246,1.9681 -0.02262,3.22889 -0.205415,3.44914 -0.306036,0.36874 -1.07587,0.4647 -1.36983,0.17074 z m 12.435416,0 c -0.09701,-0.097 -0.176389,-1.42424 -0.176389,-2.9494 0,-2.79993 -0.285507,-4.07475 -1.581291,-7.06067 -0.252603,-0.58208 -0.541586,-1.41552 -0.642183,-1.85208 -0.100597,-0.43657 -0.244806,-1.00211 -0.320463,-1.25677 -0.103378,-0.34798 0.01479,-0.46202 0.475586,-0.45897 0.746021,0.005 1.282186,0.31958 1.390766,0.81618 0.349332,1.59773 0.501166,2.09025 0.644512,2.09071 0.09095,2.6e-4 0.191955,0.37811 0.224456,0.83961 0.130355,1.85095 0.791321,1.48416 1.51393,-0.84014 0.24883,-0.80036 0.522192,-1.6338 0.60747,-1.85208 0.08528,-0.21828 0.165338,-0.51594 0.177906,-0.66146 0.01257,-0.14552 0.36227,-0.30342 0.777116,-0.35088 0.748548,-0.0856 0.752835,-0.0778 0.565726,1.02967 -0.103698,0.61377 -0.591944,2.25952 -1.084995,3.65721 -0.520959,1.47681 -0.896453,3.05135 -0.896453,3.75906 0,0.66979 -0.077,2.12874 -0.171117,3.2421 -0.156662,1.85332 -0.21998,2.0243 -0.749652,2.0243 -0.318196,0 -0.657913,-0.0794 -0.754925,-0.17639 z m -46.608202,-9.6132 c -0.73915,-0.0926 -1.082796,-0.27427 -1.145884,-0.60572 -0.04956,-0.26039 0.455301,-1.52946 1.121916,-2.82016 0.666617,-1.29069 1.212032,-2.52897 1.212032,-2.75173 0,-0.27704 -0.313526,-0.43097 -0.992187,-0.48714 -0.861399,-0.0713 -1.003224,-0.17803 -1.075907,-0.80972 l -0.08372,-0.72761 h 1.980925 c 1.97132,0 1.981745,0.004 2.149676,0.76831 0.131157,0.59715 -0.1036,1.31058 -1.053822,3.20258 -0.672412,1.33886 -1.166834,2.49002 -1.098714,2.55814 0.06812,0.0681 0.522033,0.1804 1.008697,0.24951 1.384787,0.19666 1.589379,0.32316 1.498714,0.92664 -0.0711,0.47328 -0.27587,0.56905 -1.275329,0.5965 -0.654843,0.018 -1.665721,-0.0268 -2.246397,-0.0996 z m 5.818272,-0.0409 c -1.236101,-0.6761 -1.511186,-1.85468 -0.819353,-3.51047 0.26753,-0.64029 0.635727,-0.97585 1.317741,-1.20094 0.520562,-0.1718 1.059638,-0.24242 1.197949,-0.15694 0.401899,0.24838 0.606406,-0.32894 0.418912,-1.18259 -0.20043,-0.91255 -0.736828,-1.01267 -1.38289,-0.25813 -0.690539,0.80649 -1.393817,0.68835 -1.393817,-0.23415 0,-1.5866 2.512396,-2.20837 3.784237,-0.93653 0.633886,0.63388 0.687131,0.87831 0.763683,3.50573 0.116374,3.99428 0.09809,4.06826 -0.982678,3.97514 -0.490064,-0.0422 -0.976786,0.009 -1.081606,0.11382 -0.277726,0.27772 -1.212014,0.21879 -1.822178,-0.11494 z m 2.116667,-2.34032 c 0,-0.75033 -0.109559,-0.94163 -0.577411,-1.00824 -0.692359,-0.0986 -1.252204,0.77458 -1.002035,1.56279 0.12451,0.3923 0.357251,0.51286 0.874554,0.45303 0.613671,-0.071 0.704892,-0.20137 0.704892,-1.00758 z m 8.428831,2.3958 c -1.124731,-0.47832 -1.417373,-1.28918 -1.417373,-3.92727 0,-3.17417 0.550198,-4.26181 2.165588,-4.28094 1.804469,-0.0214 2.549226,0.76286 2.782165,2.92967 0.187013,1.73956 -0.137067,2.08899 -1.93744,2.08899 -1.226204,0 -1.422813,0.0701 -1.422813,0.50753 0,1.38127 0.987848,1.81697 1.811988,0.7992 0.54914,-0.67815 1.363012,-0.43909 1.363012,0.40037 0,1.18423 -1.981502,2.06237 -3.345127,1.48245 z m 2.02221,-5.4258 c 0,-0.32568 -0.241832,-0.811 -0.537403,-1.07849 -0.465701,-0.42145 -0.586375,-0.43575 -0.904449,-0.10715 -0.201877,0.20855 -0.40653,0.67025 -0.454784,1.02601 -0.06841,0.50434 0.05796,0.68397 0.57372,0.81551 0.921612,0.23505 1.322916,0.0361 1.322916,-0.65588 z m 7.489904,5.41732 c -1.196641,-0.49977 -1.460531,-1.34758 -1.362691,-4.37797 0.08479,-2.62639 0.132165,-2.83495 0.751954,-3.31069 0.969433,-0.74412 2.216576,-0.66224 3.169718,0.20812 0.690518,0.63053 0.802241,0.92539 0.837481,2.21022 0.02236,0.81543 -0.0437,1.61911 -0.146799,1.78593 -0.104201,0.1686 -0.834321,0.30332 -1.643822,0.30332 h -1.456356 l 0.08291,0.85773 c 0.104093,1.07688 0.814314,1.26945 1.680552,0.45566 1.141756,-1.07262 1.972749,-0.0101 0.976161,1.24815 -0.519977,0.6565 -2.026883,0.97964 -2.889108,0.61953 z m 2.035096,-5.0207 c 0,-0.4681 -0.598504,-1.56994 -0.919726,-1.69321 -0.175387,-0.0673 -0.438584,-0.0441 -0.584883,0.0516 -0.338791,0.22157 -0.657508,1.49553 -0.43085,1.72218 0.269666,0.26967 1.935459,0.20033 1.935459,-0.0806 z m -39.687499,-3.86574 c 0,-0.21816 0.20836,-0.47353 0.463021,-0.56748 0.254661,-0.094 0.522552,-0.23905 0.595312,-0.32243 0.07276,-0.0834 0.727605,-0.44633 1.455209,-0.80657 0.727604,-0.36025 1.395759,-0.75737 1.484789,-0.8825 0.08903,-0.12513 0.237342,-0.21847 0.329581,-0.20742 0.335028,0.0401 3.7471,-1.62408 3.936266,-1.91988 0.106913,-0.16718 0.19621,-0.22146 0.198438,-0.1206 0.0052,0.23693 8.011384,-3.77002 8.268229,-4.13812 0.106912,-0.15322 0.196209,-0.1912 0.198437,-0.0844 0.0021,0.1068 0.488754,-0.0584 1.08117,-0.36724 1.387501,-0.7232 3.773836,-0.55495 5.684853,0.40082 0.719301,0.35975 1.754304,0.73681 2.300007,0.83791 0.545703,0.10111 0.992187,0.28964 0.992187,0.41897 0,0.12933 0.120359,0.23514 0.267468,0.23514 0.147105,0 0.772183,0.21841 1.389062,0.48535 1.312034,0.56777 2.335046,0.93282 4.69347,1.6748 0.945885,0.29759 1.838854,0.63125 1.984375,0.74147 0.145521,0.11023 0.592005,0.27863 0.992187,0.37423 0.400183,0.0956 0.727605,0.28014 0.727605,0.4101 0,0.12996 0.47625,0.31675 1.058333,0.41509 0.582083,0.0983 1.058333,0.2874 1.058333,0.42013 0,0.13273 0.223311,0.24133 0.496245,0.24133 0.272933,0 1.136136,0.27996 1.918229,0.62215 0.782092,0.34218 1.779172,0.70855 2.215734,0.81415 1.325457,0.32062 2.513542,0.9825 2.513542,1.40028 0,0.21727 -0.148828,0.3414 -0.330729,0.27584 -0.181901,-0.0656 -1.461823,-0.51554 -2.844271,-0.99996 -1.382448,-0.48442 -2.904117,-1.09837 -3.381486,-1.36432 -0.477369,-0.26596 -1.154951,-0.48356 -1.505738,-0.48356 -0.350788,0 -0.703228,-0.10587 -0.783201,-0.23527 -0.07998,-0.1294 -0.447361,-0.31106 -0.816412,-0.40369 -0.369051,-0.0926 -1.29291,-0.44973 -2.053021,-0.79357 -0.760108,-0.34383 -1.767604,-0.70712 -2.238878,-0.80729 -0.471275,-0.10018 -0.924785,-0.29204 -1.007803,-0.42637 -0.08302,-0.13432 -0.32309,-0.24423 -0.533498,-0.24423 -0.210407,0 -0.999569,-0.29765 -1.753695,-0.66145 -0.754123,-0.36381 -1.529061,-0.66146 -1.722083,-0.66146 -0.193021,0 -0.557691,-0.10718 -0.810379,-0.23818 -0.591367,-0.30658 -3.504073,-1.42931 -5.279631,-2.03508 -1.436002,-0.48993 -1.528878,-0.47631 -3.381882,0.49599 -0.291042,0.15272 -1.362605,0.69826 -2.38125,1.21232 -1.018646,0.51406 -1.891771,1.03006 -1.940277,1.14667 -0.04851,0.11662 -0.253307,0.21203 -0.455107,0.21203 -0.402201,0 -3.149799,1.34114 -4.616074,2.25317 -0.509323,0.3168 -1.402292,0.7306 -1.984375,0.91955 -0.582084,0.18895 -1.117865,0.42787 -1.190625,0.53094 -0.115631,0.1638 -3.547829,1.8939 -4.828646,2.43403 -0.3219,0.13574 -0.463021,0.0744 -0.463021,-0.2014 z m 33.406785,-0.99105 c -0.440295,-0.59266 -0.213219,-1.10744 0.526027,-1.1925 0.693618,-0.0798 0.783732,0.0396 0.711816,0.94361 -0.02964,0.37256 -1.000892,0.56784 -1.237843,0.24889 z"
                         id="path5425"
                         inkscape:connector-curvature="0" />
                      <path
                         style="fill:#5d738f;stroke-width:0.26458335"
                         d="m 14.748168,-324.09949 c -0.06925,-0.11198 6.560021,-0.16726 14.731709,-0.12285 8.17169,0.0444 15.720821,0.004 16.775847,-0.0887 1.741088,-0.15382 1.918229,-0.22259 1.918229,-0.74471 0,-0.31639 0.238125,-0.72395 0.529167,-0.90571 0.498173,-0.31112 0.529167,-0.61702 0.529167,-5.22302 0,-4.17255 0.05841,-4.89255 0.396875,-4.89255 0.246943,0 0.396875,-0.24988 0.396875,-0.66146 0,-0.41158 -0.149932,-0.66146 -0.396875,-0.66146 -0.246944,0 -0.396875,-0.24988 -0.396875,-0.66146 0,-0.38899 0.151818,-0.66146 0.368567,-0.66146 0.585213,0 0.689766,-0.6249 0.689766,-4.12268 v -3.28565 h 0.661458 c 0.599726,0 0.662692,0.10495 0.674669,1.12448 0.0073,0.61846 0.07768,2.75221 0.15648,4.74166 0.137065,3.46047 0.113993,3.68399 -0.532556,5.15937 -0.624993,1.4262 -0.68154,1.88351 -0.751792,6.07984 l -0.07597,4.53764 1.455208,0.13722 c 0.800365,0.0755 7.704902,0.15572 15.343415,0.17834 7.638515,0.0226 13.942906,0.0958 14.009755,0.16268 0.205952,0.20595 -30.198911,0.0634 -31.535982,-0.1478 -0.691224,-0.10921 -1.256771,-0.10226 -1.256771,0.0154 0,0.27313 -33.521604,0.31578 -33.690369,0.0429 z m 67.094014,0.0109 c 0.254661,-0.0666 0.67138,-0.0666 0.926041,0 0.254662,0.0666 0.0463,0.121 -0.463021,0.121 -0.509323,0 -0.717682,-0.0544 -0.46302,-0.121 z m -45.228996,-3.89544 c -0.700153,-0.60196 -0.747474,-0.77969 -0.832384,-3.12634 -0.107974,-2.98409 0.30775,-4.31605 1.435441,-4.59909 0.395687,-0.0993 0.925936,-0.0511 1.179536,0.10731 0.664837,0.41519 0.782341,0.16305 0.782341,-1.67876 0,-1.4531 0.06535,-1.66192 0.560647,-1.79144 0.525513,-0.13743 0.555739,-0.29274 0.48232,-2.47826 -0.04308,-1.2824 -0.05725,-3.55203 -0.03148,-5.04362 0.04263,-2.468 0.0919,-2.71198 0.547706,-2.71198 0.275473,0 0.573129,0.18833 0.661458,0.41852 0.08833,0.23018 0.160599,2.40637 0.160599,4.83599 0,4.13804 0.0346,4.4471 0.546992,4.88582 0.725911,0.62155 0.530053,1.08553 -0.501221,1.18737 l -0.839521,0.0829 v 5.14261 5.14262 h -0.778134 c -0.427974,0 -0.852284,-0.11998 -0.942911,-0.26662 -0.102153,-0.16528 -0.316381,-0.11501 -0.563682,0.13229 -0.557289,0.55729 -1.008356,0.49949 -1.867707,-0.23933 z m 2.146419,-1.10986 c 0.33722,-0.1294 0.418515,-0.60738 0.418515,-2.46063 0,-2.74225 -0.440563,-3.51499 -1.436309,-2.51925 -0.306247,0.30625 -0.415774,0.95445 -0.415774,2.46063 0,2.39214 0.316299,2.94799 1.433568,2.51925 z m 15.254266,1.47972 c -1.536417,-0.36117 -1.858555,-1.07003 -1.865283,-4.10452 -0.0066,-2.98272 0.26911,-3.6732 1.581943,-3.96155 2.05949,-0.45234 3.174672,0.64965 3.174672,3.13712 v 1.46791 l -1.653646,0.0788 c -1.454798,0.0693 -1.663292,0.14639 -1.733872,0.64111 -0.0759,0.53201 0.540395,1.42204 0.984684,1.42204 0.11286,0 0.479761,-0.23813 0.815334,-0.52917 1.210514,-1.04987 1.982187,-0.35292 1.156629,1.04464 -0.262334,0.44409 -0.560626,0.80745 -0.662869,0.80745 -0.102243,0 -0.344463,0.0471 -0.538265,0.1047 -0.193805,0.0576 -0.7605,0.009 -1.259327,-0.1085 z m 1.568416,-5.28787 c 0,-0.69914 -0.938192,-1.617 -1.451491,-1.42003 -0.457449,0.17554 -0.804688,1.24482 -0.542179,1.66957 0.09505,0.15379 0.582509,0.27963 1.083244,0.27963 0.734036,0 0.910426,-0.10253 0.910426,-0.52917 z m -32.543749,0.13325 c 0,-4.6996 -0.03956,-5.12498 -0.529167,-5.6895 -0.64013,-0.73808 -0.684983,-1.54432 -0.09844,-1.7694 0.273299,-0.10487 0.59476,0.0522 0.879515,0.42968 0.581181,0.77049 1.696365,0.66738 1.815203,-0.16784 0.06202,-0.43586 -0.185184,-0.75065 -0.98693,-1.25677 -0.58832,-0.37139 -1.171988,-0.67526 -1.297041,-0.67526 -0.348784,0 -0.841478,-1.25401 -0.841478,-2.14174 0,-0.52618 0.245388,-1.02146 0.727604,-1.46856 1.278636,-1.18554 3.399333,-0.47125 3.865407,1.30194 0.102166,0.38869 -0.02943,0.45946 -0.762543,0.41009 -0.598307,-0.0403 -0.926457,-0.21431 -1.010554,-0.53591 -0.165725,-0.63372 -0.879491,-0.60651 -1.229167,0.0469 -0.339757,0.63484 0.231423,1.30344 1.714897,2.00739 1.752901,0.83181 1.956032,2.60286 0.464669,4.05134 -0.639197,0.62083 -1.021242,1.25372 -1.073851,1.77896 -0.07981,0.79675 -0.05653,0.81475 1.02318,0.79132 0.89974,-0.0195 1.202846,0.10564 1.632752,0.67425 0.44441,0.5878 0.529386,1.11926 0.537271,3.3602 0.01302,3.70118 -0.18764,3.98041 -2.84067,3.95293 l -1.990661,-0.0206 z m 3.122083,3.518 c 0.502377,-0.50238 0.41548,-4.16278 -0.112678,-4.74638 -0.327192,-0.36155 -0.548886,-0.41181 -0.926042,-0.20997 -0.42708,0.22857 -0.495863,0.58828 -0.495863,2.59323 0,1.28031 0.07937,2.40722 0.176389,2.50423 0.280811,0.28081 1.01227,0.20481 1.358194,-0.14111 z m 3.930382,1.15656 c -0.362854,-0.40095 -0.437882,-1.10847 -0.437882,-4.12935 0,-3.21551 0.04936,-3.62655 0.418515,-3.48489 0.230182,0.0883 0.52406,0.16059 0.65306,0.16059 0.129001,0 0.268092,1.38627 0.309089,3.0806 0.06131,2.53365 0.152816,3.12987 0.515387,3.3581 0.319506,0.20112 0.556184,0.18177 0.859896,-0.0703 0.337415,-0.28003 0.419053,-0.93423 0.419053,-3.35809 0,-2.99236 0.0037,-3.01032 0.628385,-3.01032 0.492125,0 0.664244,0.17929 0.79375,0.82683 0.212093,1.06046 0.215709,6.14245 0.0048,6.69216 -0.189275,0.49324 -1.184955,0.55463 -1.638568,0.10102 -0.246943,-0.24695 -0.3175,-0.24695 -0.3175,0 0,0.50905 -1.713555,0.37994 -2.20795,-0.16636 z m 12.910876,-0.15985 c -0.316064,-0.48238 -0.384829,-1.325 -0.326189,-3.99702 0.04297,-1.9579 0.185888,-3.42099 0.338889,-3.46927 0.762571,-0.24062 0.944512,0.39592 0.947168,3.31376 0.0026,2.91453 0.01437,2.97167 0.671193,3.27094 0.992182,0.45207 1.151067,-0.0214 1.155713,-3.44395 0.0033,-2.46352 0.07648,-3.01265 0.418711,-3.14398 0.867087,-0.33274 1.040548,0.37133 1.040548,4.2235 v 3.75743 l -1.92277,0.0499 c -1.745178,0.0453 -1.95976,-0.007 -2.323263,-0.56132 z m 20.054886,-0.0607 c -0.252407,-0.10185 -0.330729,-1.72598 -0.330729,-6.85828 0,-6.22975 0.03409,-6.72453 0.463021,-6.72077 0.254662,0.002 0.599567,0.0915 0.766456,0.19843 0.274666,0.17596 1.560361,3.79302 2.49171,7.00996 0.200526,0.69262 0.487088,1.21896 0.636805,1.16964 0.14972,-0.0493 0.880512,-1.9257 1.623986,-4.16973 1.106138,-3.33867 1.442209,-4.08006 1.849485,-4.08006 0.33891,0 0.551871,0.25326 0.667446,0.79375 0.239186,1.11855 0.265559,12.1127 0.02985,12.44427 -0.106913,0.15039 -0.372981,0.26945 -0.591262,0.26458 -0.327557,-0.007 -0.430392,-0.74483 -0.588775,-4.22257 -0.105545,-2.31755 -0.237352,-4.34161 -0.292907,-4.49792 -0.148431,-0.41763 -0.788508,1.2491 -1.482513,3.86038 -0.463373,1.7435 -0.731927,2.32456 -1.121439,2.42642 -0.369184,0.0965 -0.581969,-0.0497 -0.762222,-0.52378 -0.137533,-0.36174 -0.25006,-0.77032 -0.25006,-0.90795 0,-0.13763 -0.227719,-0.75496 -0.506045,-1.37184 -0.278323,-0.61687 -0.665276,-1.59784 -0.859896,-2.17993 -0.330226,-0.98767 -0.358749,-0.78526 -0.427186,3.03154 -0.07828,4.36573 -0.204705,4.78217 -1.315728,4.33386 z m 12.429911,-0.13455 c -0.214972,-0.21497 -0.328023,-1.27151 -0.333484,-3.11658 -0.0074,-2.50857 -0.103036,-3.05939 -0.943803,-5.43718 -1.759111,-4.97499 -1.740138,-4.8948 -1.158047,-4.8948 0.67496,0 1.134833,0.77607 1.881405,3.175 0.339659,1.09141 0.737632,2.06884 0.884388,2.17208 0.351928,0.24755 0.786516,-0.64443 1.18718,-2.43666 0.504018,-2.25454 0.855544,-2.93941 1.464429,-2.85312 0.80523,0.11412 0.558538,1.46787 -0.929751,5.10208 -0.506042,1.23569 -0.62361,2.02406 -0.76898,5.15651 -0.123663,2.66471 -0.231251,3.31929 -0.555733,3.38116 -0.221311,0.0422 -0.548733,-0.0696 -0.727604,-0.24849 z m -41.125663,-9.61527 c -0.867317,-0.48269 -1.189744,-1.80649 -0.758354,-3.11362 0.326253,-0.98855 1.174631,-1.57956 2.267421,-1.57956 0.802309,0 1.057825,-0.43409 0.817991,-1.38966 -0.183705,-0.73195 -1.045935,-0.91012 -1.399407,-0.28917 -0.116372,0.20443 -0.44971,0.41279 -0.740752,0.46302 -0.815369,0.14072 -0.880657,-1.06143 -0.09065,-1.66911 1.133449,-0.87184 3.078662,-0.47366 3.633346,0.74373 0.163123,0.35802 0.293758,2.0559 0.293758,3.818 v 3.17327 l -0.992187,-0.0232 c -0.545703,-0.0127 -1.289844,0.0416 -1.653646,0.12081 -0.363802,0.0792 -0.983689,-0.0353 -1.377524,-0.25452 z m 2.303566,-2.24579 c 0,-0.7577 -0.107752,-0.94135 -0.592754,-1.01025 -0.422053,-0.06 -0.679699,0.10662 -0.894678,0.57844 -0.435091,0.95492 -0.125566,1.54339 0.758322,1.44172 0.640906,-0.0737 0.72911,-0.19589 0.72911,-1.00991 z m 8.33959,2.31523 c -1.000578,-0.52035 -1.319948,-1.44148 -1.324232,-3.81936 -0.0057,-3.15673 0.570854,-4.28987 2.192052,-4.30828 0.958133,-0.0109 2.228752,0.65034 2.393264,1.24545 0.07084,0.25626 0.203576,1.01773 0.294968,1.69216 0.217758,1.60697 -0.216148,2.08901 -1.701117,1.88983 -1.416608,-0.19001 -1.915694,0.21751 -1.550249,1.26582 0.32037,0.91903 1.035118,1.01997 1.800764,0.25432 0.592712,-0.59271 1.328918,-0.45001 1.328918,0.25758 0,1.28183 -2.10379,2.21446 -3.434368,1.52248 z m 1.692936,-4.59249 c 0.587632,-0.2255 0.52098,-1.25216 -0.118888,-1.83123 -0.465212,-0.42101 -0.585795,-0.43541 -0.897644,-0.10715 -0.198136,0.20855 -0.440825,0.64785 -0.539311,0.97623 -0.170913,0.56985 -0.07659,0.66532 1.092822,1.10598 0.02447,0.009 0.232839,-0.0555 0.463021,-0.14383 z m 7.736609,4.5308 c -0.900609,-0.44901 -1.224602,-1.43979 -1.228777,-3.75767 -0.0058,-3.24032 0.562975,-4.29138 2.331555,-4.30828 0.627272,-0.006 1.102519,0.21385 1.653646,0.76498 0.685118,0.68512 0.773398,0.95693 0.773398,2.38125 v 1.60785 h -1.595802 c -1.762712,0 -2.039541,0.24441 -1.596544,1.40958 0.301279,0.79243 1.43605,0.99943 1.700528,0.31021 0.171042,-0.44573 1.491818,-0.55122 1.491818,-0.11915 0,0.15275 -0.175008,0.61615 -0.388905,1.02978 -0.313526,0.6063 -0.601258,0.77231 -1.484516,0.85655 -0.602586,0.0575 -1.347965,-0.0213 -1.656401,-0.1751 z m 2.206906,-5.20926 c 0,-0.65349 -0.704379,-1.54219 -1.222322,-1.54219 -0.422934,0 -0.894345,0.8276 -0.894345,1.5701 0,0.46127 0.165161,0.54656 1.058334,0.54656 0.909769,0 1.058333,-0.0806 1.058333,-0.57447 z m -28.942992,4.91996 c -0.100388,-0.26161 0.365141,-1.53687 1.158412,-3.17331 0.729435,-1.50476 1.326247,-2.80081 1.326247,-2.8801 0,-0.0793 -0.386953,-0.14598 -0.859895,-0.14821 -1.101096,-0.005 -1.598462,-0.3262 -1.477619,-0.95369 0.08287,-0.43029 0.345429,-0.49747 1.944264,-0.49747 h 1.848459 l 0.08377,0.87146 c 0.05965,0.62053 -0.243623,1.51083 -1.053224,3.09192 -0.625345,1.22125 -1.047785,2.30966 -0.938752,2.4187 0.109032,0.10903 0.702045,0.26548 1.317805,0.34766 0.893368,0.11924 1.119565,0.25634 1.119565,0.6786 0,0.4795 -0.201832,0.53633 -2.150599,0.60549 -1.801379,0.0639 -2.177852,0.005 -2.318435,-0.36105 z m -10.252174,-8.8522 c 0.343543,-0.2862 0.819793,-0.51958 1.058333,-0.51863 0.282292,10e-4 0.156594,0.18527 -0.360041,0.52743 -1.020896,0.67611 -1.512991,0.66991 -0.698292,-0.009 z m 44.758893,0.34355 c -0.359691,-0.0673 -0.892196,-0.2892 -1.183352,-0.49313 -0.291153,-0.20394 -0.741,-0.37079 -0.999664,-0.37079 -0.258662,0 -0.470295,-0.1318 -0.470295,-0.29289 0,-0.17912 0.179851,-0.21482 0.463021,-0.0919 0.254662,0.11055 1.030907,0.40344 1.724991,0.65087 0.694084,0.24743 1.339006,0.52691 1.43316,0.62107 0.17888,0.17888 0.10264,0.17705 -0.967861,-0.0232 z m -43.134559,-1.11017 c 0,-0.12029 0.386953,-0.37523 0.859896,-0.56652 0.472942,-0.1913 0.919427,-0.42554 0.992187,-0.52053 0.07276,-0.095 0.489479,-0.25096 0.926042,-0.3466 l 0.79375,-0.17387 -0.79375,0.43618 c -0.436563,0.2399 -0.853282,0.51843 -0.926042,0.61896 -0.218077,0.30131 -1.852083,0.78865 -1.852083,0.55238 z m 31.220832,-0.41521 c 0,-0.52916 0.132292,-0.66146 0.661458,-0.66146 0.529167,0 0.661459,0.1323 0.661459,0.66146 0,0.52917 -0.132292,0.66146 -0.661459,0.66146 -0.529166,0 -0.661458,-0.13229 -0.661458,-0.66146 z m 7.431423,-0.20124 c -0.787667,-0.31009 -1.312256,-0.60376 -1.165756,-0.65259 0.298746,-0.0996 2.730166,0.88808 2.730166,1.10901 0,0.17406 0.14328,0.21587 -1.56441,-0.45642 z m -2.536631,-0.91346 c -0.291042,-0.07 -0.642276,-0.23479 -0.780521,-0.36619 -0.425548,-0.40446 0.736997,-0.25499 1.294111,0.16639 0.521343,0.39432 0.434922,0.42794 -0.51359,0.1998 z m -31.882291,-0.56621 c 0,-0.0969 0.218281,-0.31249 0.485068,-0.4791 0.379167,-0.2368 0.485072,-0.22603 0.485072,0.0493 0,0.19373 -0.218282,0.40933 -0.485072,0.4791 -0.266787,0.0698 -0.485068,0.0476 -0.485068,-0.0493 z m 29.633332,-0.42889 c -0.363802,-0.2042 -1.107942,-0.44857 -1.653645,-0.54305 -0.545704,-0.0945 -0.992188,-0.28265 -0.992188,-0.41815 0,-0.13579 0.326591,-0.166 0.727604,-0.0673 0.971846,0.23916 2.976563,1.09911 2.976563,1.27684 0,0.23025 -0.353444,0.14732 -1.058334,-0.24832 z m -26.987499,-0.89725 c 0,-0.14552 0.267891,-0.34818 0.595313,-0.45036 0.327422,-0.10218 0.654843,-0.26232 0.727604,-0.35586 0.259223,-0.33327 2.389685,-1.16128 2.557126,-0.99384 0.09377,0.0938 -0.413464,0.42696 -1.127175,0.74043 -0.713714,0.31348 -1.357191,0.65606 -1.429951,0.7613 -0.229894,0.33253 -1.322917,0.57901 -1.322917,0.29833 z m 22.489583,-0.82941 c -0.654844,-0.27478 -1.071563,-0.50558 -0.926042,-0.5129 0.52269,-0.0263 2.233094,0.53777 2.387304,0.78728 0.221572,0.35851 -0.09436,0.29919 -1.461262,-0.27438 z m -2.182813,-0.71155 c -0.254661,-0.0666 -0.46302,-0.24407 -0.46302,-0.39449 0,-0.15042 0.18833,-0.20122 0.418515,-0.11289 0.230182,0.0883 0.527838,0.1606 0.661458,0.1606 0.133617,0 0.242943,0.11906 0.242943,0.26458 0,0.27514 -0.08904,0.28365 -0.859896,0.0822 z m -15.808853,-0.87595 c 0.218281,-0.14106 0.575468,-0.25648 0.79375,-0.25648 0.352777,0 0.352777,0.0285 0,0.25648 -0.218282,0.14107 -0.575469,0.25648 -0.79375,0.25648 -0.352777,0 -0.352777,-0.0285 0,-0.25648 z m 13.758333,-0.0421 c 0,-0.10519 0.119062,-0.26484 0.264583,-0.35478 0.145521,-0.0899 0.264583,-0.0462 0.264583,0.0973 0,0.14343 0.20836,0.31577 0.463021,0.38296 0.254662,0.0672 0.135599,0.10949 -0.264583,0.094 -0.400183,-0.0155 -0.727604,-0.11425 -0.727604,-0.21944 z m -2.594232,-0.81961 c -0.841605,-0.32256 -1.307351,-0.63421 -1.163209,-0.77836 0.251151,-0.25115 2.017607,0.44478 2.651861,1.04475 0.453469,0.42896 0.213592,0.38604 -1.488652,-0.26639 z m -9.047435,-0.0643 c 0.181158,-0.21828 0.463627,-0.39952 0.627708,-0.40276 0.164084,-0.003 0.59599,-0.23871 0.959792,-0.52328 0.698442,-0.54633 1.469229,-0.71537 1.188149,-0.26057 -0.184706,0.29886 -2.001531,1.15925 -2.312628,1.09518 -0.10914,-0.0225 -0.198437,0.0782 -0.198437,0.22372 0,0.14552 -0.133641,0.26459 -0.296979,0.26459 -0.205187,0 -0.195173,-0.12267 0.03239,-0.39688 z m 6.217708,-1.19062 c -0.08994,-0.14552 -0.03743,-0.26459 0.116676,-0.26459 0.15411,0 0.280199,0.11907 0.280199,0.26459 0,0.14552 -0.0525,0.26458 -0.116676,0.26458 -0.06417,0 -0.190261,-0.11906 -0.280199,-0.26458 z m -2.315104,-0.7044 c 0.181901,-0.0734 0.479558,-0.0734 0.661459,0 0.181901,0.0734 0.03307,0.13345 -0.330729,0.13345 -0.363803,0 -0.512631,-0.06 -0.33073,-0.13345 z"
                         id="path5423"
                         inkscape:connector-curvature="0" />
                      <path
                         style="fill:#595f66;stroke-width:0.26458335"
                         d="m 48.173953,-325.0332 c 0,-0.3288 0.238125,-0.74652 0.529167,-0.92828 0.497369,-0.31061 0.529167,-0.61702 0.529167,-5.09903 0,-3.99465 0.06441,-4.79328 0.396875,-4.92086 0.218281,-0.0838 0.396875,-0.42448 0.396875,-0.75714 0,-0.33266 -0.178594,-0.67338 -0.396875,-0.75714 -0.5143,-0.19736 -0.518531,-1.22724 -0.005,-1.22724 0.536257,0 0.658058,-0.69918 0.733718,-4.21177 0.03711,-1.72308 0.178753,-3.05699 0.329655,-3.10455 0.7526,-0.23724 0.876594,0.41908 0.957334,5.06737 0.07749,4.46112 0.04563,4.84111 -0.503449,6.00475 -0.526613,1.11603 -0.587031,1.66718 -0.59459,5.42396 -0.0094,4.65175 -0.147045,5.10775 -1.542121,5.10775 -0.686136,0 -0.830729,-0.10406 -0.830729,-0.59782 z m -10.788287,-2.51753 c -0.915551,-0.14934 -1.3091,-1.04099 -1.486077,-3.36695 -0.308763,-4.05797 0.562017,-5.45085 2.815511,-4.50363 0.415374,0.17459 0.46302,0.004 0.46302,-1.65491 0,-1.62701 0.06366,-1.86618 0.529167,-1.98791 0.50586,-0.13229 0.529167,-0.3609 0.529167,-5.19024 0,-4.78029 0.02692,-5.05185 0.500859,-5.05185 0.275473,0 0.573129,0.18833 0.661458,0.41852 0.08833,0.23018 0.160599,2.43657 0.160599,4.90309 0,3.74222 0.0657,4.50979 0.396875,4.63688 0.218282,0.0838 0.396875,0.44573 0.396875,0.80438 0,0.5556 -0.107656,0.6395 -0.727604,0.56701 l -0.727604,-0.0851 -0.07174,5.22552 -0.07174,5.22553 h -0.772541 c -0.4249,0 -0.850921,-0.12682 -0.946716,-0.28182 -0.118237,-0.19132 -0.314442,-0.16597 -0.610929,0.0789 -0.240212,0.1984 -0.707577,0.31656 -1.038582,0.26256 z m 1.660163,-3.99957 c 0,-2.03111 -0.08048,-2.53547 -0.440844,-2.76278 -0.319913,-0.2018 -0.555794,-0.18268 -0.859895,0.0697 -0.319834,0.26544 -0.419053,0.86008 -0.419053,2.51143 0,2.29471 0.252005,2.87672 1.187535,2.74264 0.490087,-0.0702 0.532257,-0.27314 0.532257,-2.56099 z m 14.968042,3.91869 c -1.535009,-0.33135 -1.85855,-1.04539 -1.865283,-4.11665 -0.0069,-3.15057 0.269308,-3.68833 2.033029,-3.95798 1.001675,-0.15315 1.194681,-0.0883 1.931641,0.64862 0.75311,0.75311 0.812387,0.94132 0.739211,2.34706 l -0.07956,1.5283 -1.53488,0.0797 c -1.696175,0.0881 -2.045885,0.4325 -1.548284,1.52462 0.360852,0.79198 1.006409,0.82362 1.789753,0.0877 0.681675,-0.6404 1.161119,-0.47556 1.161119,0.3992 0,1.11309 -1.183897,1.77084 -2.626749,1.45938 z m 1.564804,-5.072 c -0.01561,-1.42791 -1.102302,-2.27334 -1.762165,-1.37092 -0.192989,0.26393 -0.35089,0.75477 -0.35089,1.09076 0,0.53631 0.129196,0.61089 1.058333,0.61089 0.672206,0 1.057016,-0.12067 1.054722,-0.33073 z m -32.540137,-0.13009 c 0,-4.74363 -0.04121,-5.19665 -0.529167,-5.81699 -0.605959,-0.77035 -0.675842,-1.28456 -0.198438,-1.46012 0.481505,-0.17707 0.992188,0.0561 0.992188,0.45307 0,0.51267 0.949743,0.66386 1.546132,0.24613 0.789821,-0.55321 0.42694,-1.27799 -1.039458,-2.07611 -1.435084,-0.78107 -1.829591,-1.31439 -1.829591,-2.47336 0,-0.79654 1.090454,-2.17014 1.722798,-2.17014 1.081846,0 1.9407,0.38888 2.335709,1.05758 0.624777,1.05766 0.549704,1.34048 -0.33787,1.27285 -0.50651,-0.0386 -0.822571,-0.23241 -0.90729,-0.55638 -0.15521,-0.59353 -0.911559,-0.51778 -1.320925,0.13229 -0.223938,0.35561 -0.150148,0.5937 0.348491,1.12448 0.347919,0.37034 0.820184,0.676 1.049478,0.67923 0.848307,0.012 1.640802,0.92514 1.793978,2.06713 0.140679,1.04884 0.08299,1.17879 -0.944354,2.12722 -0.90221,0.83292 -1.094181,1.18139 -1.094181,1.98614 0,0.88295 0.04879,0.94989 0.511773,0.7021 0.794713,-0.42531 1.308809,-0.32944 2.013793,0.37554 0.609516,0.60952 0.649433,0.82545 0.649433,3.51301 0,3.82541 -0.127918,4.00861 -2.779831,3.98114 l -1.982668,-0.0205 z m 3.122083,3.5829 c 0.192169,-0.19217 0.3175,-1.12469 0.3175,-2.36235 0,-2.15246 -0.384008,-2.99292 -1.288886,-2.82093 -0.343797,0.0653 -0.45765,0.52666 -0.563197,2.28201 -0.07276,1.21005 -0.04683,2.4293 0.05762,2.70944 0.213219,0.57185 0.995357,0.67343 1.476962,0.19183 z m 4.080539,1.22854 c -0.558332,-0.39107 -0.588039,-0.5925 -0.588039,-3.98715 0,-3.55636 0.0031,-3.57483 0.595312,-3.49073 0.571471,0.0812 0.5983,0.20274 0.669886,3.03571 0.07941,3.14239 0.316626,3.73654 1.359672,3.40549 0.489056,-0.15522 0.539811,-0.42761 0.60801,-3.263 0.07003,-2.91143 0.107074,-3.09832 0.628959,-3.17286 0.519436,-0.0742 0.564759,0.0766 0.715746,2.38125 0.218874,3.34089 -0.0141,5.50317 -0.592934,5.50317 -0.24158,0 -0.58211,-0.14288 -0.756735,-0.3175 -0.246943,-0.24695 -0.388056,-0.24695 -0.635,0 -0.438046,0.43804 -1.302858,0.39733 -2.004877,-0.0944 z m 12.90571,-0.11729 c -0.474443,-0.47444 -0.529166,-0.88194 -0.529166,-3.94044 0,-3.43636 0.114636,-3.84527 0.992187,-3.53916 0.238583,0.0832 0.330729,0.95855 0.330729,3.14169 0,2.99381 0.0073,3.02967 0.680405,3.33635 0.995993,0.4538 1.162267,-0.005 1.171679,-3.23177 0.0085,-2.91483 0.198413,-3.62312 0.899339,-3.35415 0.354965,0.13621 0.426855,0.6889 0.44382,3.41199 0.01114,1.7872 0.05779,3.44185 0.103677,3.67701 0.165616,0.84873 -0.29116,1.1804 -1.169207,0.84898 -0.470109,-0.17745 -0.866462,-0.20343 -0.953558,-0.0625 -0.2638,0.42683 -1.42481,0.25709 -1.969905,-0.288 z m 19.842522,-0.59531 c -7.94e-4,-0.1819 -0.03044,-3.15723 -0.06615,-6.61184 -0.06343,-6.13671 0.02217,-6.85594 0.753248,-6.32827 0.479737,0.34627 1.695376,3.78024 1.695376,4.78915 0,0.31648 0.119062,0.50183 0.264583,0.41189 0.145521,-0.0899 0.264583,0.0792 0.264583,0.37591 0,0.85934 0.817155,2.6668 1.205664,2.6668 0.207346,0 0.539327,-0.65887 0.799888,-1.5875 0.244986,-0.87312 0.555829,-1.5875 0.690761,-1.5875 0.134935,0 0.179433,-0.10663 0.09889,-0.23696 -0.08055,-0.13032 0.164727,-1.05306 0.545055,-2.05052 0.380325,-0.99746 0.707091,-2.05169 0.726146,-2.34273 0.02233,-0.34123 0.222578,-0.52916 0.563808,-0.52916 0.513469,0 0.531106,0.19816 0.594506,6.68073 0.06343,6.48604 0.05019,6.68073 -0.454385,6.68073 -0.497115,0 -0.513302,-0.14673 -0.372128,-3.37344 0.147285,-3.3664 -0.06572,-5.36886 -0.589683,-5.54352 -0.28458,-0.0949 -1.540658,3.30442 -1.824431,4.93739 -0.08747,0.50337 -0.286602,1.06892 -0.442505,1.25677 -0.447691,0.53943 -1.012034,0.39853 -1.016387,-0.25377 -0.0055,-0.82078 -1.184822,-4.5477 -1.648608,-5.20985 -0.208592,-0.29781 -0.457877,-0.46285 -0.553963,-0.36676 -0.09609,0.0961 -0.174707,2.05986 -0.174707,4.36394 0,4.01285 -0.02228,4.18924 -0.529167,4.18924 -0.291041,0 -0.529719,-0.14883 -0.530394,-0.33073 z m 12.436644,-2.69637 c 0,-1.73266 -0.113141,-3.09702 -0.264583,-3.19061 -0.145521,-0.0899 -0.264584,-0.38687 -0.264584,-0.65985 0,-0.27298 -0.137567,-0.8315 -0.305702,-1.24116 -0.703744,-1.71463 -1.265087,-3.42207 -1.273159,-3.87258 -0.0048,-0.26505 -0.192902,-0.66618 -0.418113,-0.89139 -0.50424,-0.50424 -0.403045,-0.63562 0.339929,-0.44133 0.440684,0.11524 0.723423,0.63433 1.255273,2.30461 0.377558,1.18572 0.690427,2.27493 0.695267,2.42045 0.01534,0.46184 0.801203,1.16006 1.153501,1.02487 0.186417,-0.0715 0.338942,-0.40851 0.338942,-0.74883 0,-0.34033 0.282773,-1.64239 0.628385,-2.89347 0.483185,-1.74909 0.735375,-2.27501 1.091406,-2.27603 0.287076,-8e-4 0.463021,0.19975 0.463021,0.52783 0,0.29104 -0.154686,0.52917 -0.343747,0.52917 -0.233825,0 -0.3108,0.28219 -0.24072,0.88248 0.06507,0.55742 -0.100685,1.26255 -0.450003,1.91431 -0.304168,0.56751 -0.556816,1.33125 -0.561444,1.69721 -0.0046,0.36595 -0.188867,0.9035 -0.409418,1.19454 -0.30752,0.40581 -0.390721,1.18621 -0.356894,3.34763 0.04571,2.92098 -0.05223,3.39925 -0.696098,3.39925 -0.30974,0 -0.381259,-0.56784 -0.381259,-3.0271 z m -47.734983,-6.93205 c -0.09973,-0.25989 0.36681,-1.49211 1.16232,-3.06993 0.730903,-1.44968 1.328914,-2.74259 1.328914,-2.87314 0,-0.13055 -0.34745,-0.23737 -0.772109,-0.23737 -1.032635,0 -1.609141,-0.24379 -1.609141,-0.68046 0,-0.59395 0.991325,-0.93892 2.455323,-0.85444 1.33695,0.0771 1.383731,0.10644 1.462262,0.91567 0.05519,0.56874 -0.261985,1.51839 -0.992187,2.97069 -1.390013,2.76459 -1.383006,2.94021 0.117311,2.94021 1.09361,0 1.190625,0.0539 1.190625,0.66146 0,0.64968 -0.03717,0.66145 -2.088359,0.66145 -1.691931,0 -2.119985,-0.0824 -2.254959,-0.43414 z m 6.310545,-0.11397 c -0.286232,-0.31628 -0.470895,-0.97023 -0.486643,-1.72335 -0.0213,-1.01852 0.09399,-1.31636 0.716981,-1.85235 0.408297,-0.35128 1.078328,-0.63869 1.488959,-0.63869 1.015309,0 1.425371,-0.53622 1.088212,-1.42302 -0.294891,-0.77562 -1.081254,-0.9215 -1.599736,-0.29677 -0.530786,0.63956 -1.322917,0.49935 -1.322917,-0.23415 0,-1.55084 2.703004,-1.93439 3.902604,-0.55378 0.547931,0.63062 0.595312,0.94406 0.595312,3.93816 v 3.25302 l -1.960752,0.0203 c -1.616152,0.0167 -2.041824,-0.0693 -2.42202,-0.48938 z m 2.662981,-1.82951 c 0,-0.67752 -0.126302,-0.94674 -0.475732,-1.01404 -0.645697,-0.12435 -1.24406,0.41964 -1.24406,1.13101 0,0.77542 0.240313,0.97798 1.048433,0.88374 0.575405,-0.0671 0.671359,-0.21013 0.671359,-1.00071 z m 7.858302,1.84113 c -0.778222,-0.72502 -0.917938,-1.43588 -0.808059,-4.11138 0.08674,-2.11212 0.147304,-2.32339 0.835869,-2.91566 0.93735,-0.80628 1.949678,-0.81065 2.946911,-0.0127 0.692451,0.55405 0.791268,0.81808 0.89072,2.37993 l 0.11186,1.75675 -1.419884,0.004 c -1.932022,0.005 -2.263486,0.24037 -1.826884,1.29443 0.368718,0.89016 1.413624,1.15014 1.693304,0.42131 0.08376,-0.21828 0.453686,-0.39688 0.822058,-0.39688 0.78699,0 0.892114,0.62314 0.257884,1.52863 -0.564034,0.80527 -2.661632,0.83613 -3.503779,0.0516 z m 2.543207,-4.67808 c 0.115387,-0.80721 -0.400969,-1.66459 -1.002496,-1.66459 -0.590725,0 -0.677937,0.11747 -0.917739,1.2362 -0.15739,0.73428 -0.10333,0.85429 0.431908,0.9588 1.036339,0.20235 1.402221,0.072 1.488327,-0.53041 z m 7.253861,5.03749 c -0.714253,-0.28738 -1.118912,-1.64767 -1.118912,-3.7613 0,-3.19124 0.576209,-4.23852 2.341242,-4.25528 0.65936,-0.006 1.085479,0.20509 1.665631,0.82614 0.699294,0.7486 0.771549,0.98707 0.701466,2.31511 l -0.07813,1.48054 -1.53488,0.0797 c -1.696175,0.0881 -2.045885,0.4325 -1.548283,1.52462 0.333674,0.73233 1.47474,0.89632 1.723636,0.24771 0.191862,-0.49999 1.491818,-0.53108 1.491818,-0.0357 0,0.19866 -0.246766,0.67491 -0.54837,1.05833 -0.442968,0.56315 -0.760814,0.69313 -1.653645,0.67626 -0.607902,-0.0115 -1.25661,-0.0818 -1.441572,-0.1562 z m 2.267048,-5.12839 c 0.09161,-0.78636 -0.776544,-1.71786 -1.383848,-1.48482 -0.465002,0.17844 -0.807341,1.31222 -0.577257,1.91181 0.109596,0.2856 0.426786,0.38856 1.02072,0.33132 0.700193,-0.0675 0.876461,-0.20962 0.940385,-0.75831 z m -6.248633,-5.07942 c 0.05549,-0.39074 0.266388,-0.59531 0.613714,-0.59531 0.347327,0 0.558221,0.20457 0.613715,0.59531 0.06936,0.48833 -0.04093,0.59531 -0.613715,0.59531 -0.572785,0 -0.683069,-0.10698 -0.613714,-0.59531 z"
                         id="path5421"
                         inkscape:connector-curvature="0" />
                      <path
                         style="fill:#3b5675;stroke-width:0.26458335"
                         d="m 48.173953,-325.06094 c 0,-0.41313 0.185243,-0.68409 0.529167,-0.77402 0.505145,-0.1321 0.529167,-0.3609 0.529167,-5.04012 0,-4.4692 0.0416,-4.91493 0.471418,-5.05135 0.688264,-0.21845 0.731608,-1.48524 0.05685,-1.66169 -0.685493,-0.17926 -0.708575,-1.13477 -0.02741,-1.13477 0.697462,0 0.753178,-0.26529 0.778322,-3.70601 0.01222,-1.67247 0.02706,-3.13016 0.03298,-3.2393 0.0059,-0.10914 0.175467,-0.19844 0.376775,-0.19844 0.57296,0 0.684829,0.8822 0.688705,5.43124 0.0031,3.6169 -0.06449,4.33682 -0.459409,4.89479 -0.384678,0.54349 -0.485405,1.44733 -0.595313,5.3418 -0.142867,5.06231 -0.202353,5.26388 -1.653645,5.60333 -0.639067,0.14947 -0.727605,0.0928 -0.727605,-0.46546 z m -22.784852,-2.83827 c -0.201403,-0.12738 -0.753142,-0.16078 -1.226084,-0.0742 l -0.859896,0.15736 v -4.94189 c 0,-4.8637 -0.01048,-4.95561 -0.661458,-5.8091 -0.363802,-0.47697 -0.661459,-1.00481 -0.661459,-1.17298 0,-0.50137 0.905513,-0.34688 1.408245,0.24027 0.541906,0.6329 1.447078,0.59274 1.870673,-0.083 0.381974,-0.60934 0.0078,-1.1954 -1.164815,-1.82427 -1.931399,-1.03582 -2.452089,-2.21123 -1.594604,-3.59969 0.455097,-0.7369 0.681519,-0.8599 1.582973,-0.8599 1.071719,0 2.130862,0.74811 2.130862,1.5051 0,0.46867 -1.037863,0.44362 -1.219386,-0.0294 -0.380563,-0.99173 -1.691031,-0.60418 -1.691031,0.5001 0,0.62587 0.745834,1.46382 1.302906,1.46382 0.184359,0 0.681001,0.24623 1.103646,0.54718 1.308769,0.93193 1.002594,3.01326 -0.562311,3.8225 -0.691459,0.35757 -0.785908,0.5468 -0.785908,1.57462 0,1.14209 0.327295,1.74013 0.658792,1.20376 0.19323,-0.31265 1.4455,-0.35278 1.904343,-0.061 0.577583,0.36726 0.876448,1.66006 0.876448,3.79124 0,1.97018 -0.450519,3.63611 -0.998981,3.69405 -0.105405,0.0111 -0.384046,0.0578 -0.619205,0.10367 -0.235159,0.0459 -0.592346,-0.0208 -0.79375,-0.14816 z m 0.577247,-1.0434 c 0.446521,-0.23897 0.511773,-0.57109 0.511773,-2.60483 0,-1.95583 -0.08108,-2.4043 -0.503822,-2.78688 -0.42885,-0.38811 -0.586336,-0.40442 -1.058334,-0.10966 -0.493837,0.30841 -0.554511,0.59782 -0.554511,2.64501 0,1.73695 0.101606,2.40031 0.415774,2.71448 0.491885,0.49188 0.527249,0.4961 1.18912,0.14188 z m 4.254913,0.71225 c -0.517129,-0.55045 -0.56814,-0.89499 -0.56814,-3.83715 0,-2.66932 0.07112,-3.25969 0.408286,-3.38907 0.224557,-0.0862 0.473782,-0.0912 0.553831,-0.0111 0.08005,0.08 0.133258,1.35052 0.118237,2.82326 -0.03121,3.06061 0.193048,3.71115 1.279345,3.71115 0.961644,0 1.071603,-0.39871 1.076272,-3.90261 0.0029,-2.13995 0.08135,-2.71198 0.372179,-2.71198 0.588248,0 0.689766,0.62625 0.689766,4.25498 v 3.41795 h -0.63941 c -0.351674,0 -0.689499,-0.14883 -0.750724,-0.33073 -0.08549,-0.254 -0.219353,-0.24151 -0.577019,0.0538 -0.729578,0.60242 -1.34611,0.57777 -1.962623,-0.0785 z m 6.432343,0.18287 c -0.449292,-0.32809 -0.530135,-0.7653 -0.60802,-3.28824 -0.10418,-3.37472 0.201101,-4.21216 1.535522,-4.21216 0.424619,0 0.845619,0.11907 0.935556,0.26459 0.420288,0.68004 0.661458,0.10773 0.661458,-1.56967 0,-1.60188 0.06704,-1.85553 0.529167,-2.00221 0.504542,-0.16013 0.529167,-0.40032 0.529167,-5.16159 0,-4.82572 0.15059,-5.77386 0.811995,-5.11245 0.130199,0.13019 0.288629,2.25699 0.352071,4.72621 0.06344,2.46923 0.125137,4.63833 0.137099,4.82023 0.01196,0.1819 0.208627,0.33073 0.437028,0.33073 0.279321,0 0.387596,0.1949 0.330729,0.59531 -0.07087,0.49899 -0.223684,0.58187 -0.944443,0.51224 l -0.859896,-0.0831 v 5.1763 5.1763 h -0.645843 c -0.355213,0 -0.727284,-0.13177 -0.826822,-0.29283 -0.128874,-0.20852 -0.238975,-0.19899 -0.382405,0.0331 -0.294161,0.47596 -1.394071,0.52412 -1.992363,0.0872 z m 2.106001,-0.78183 c 0.342466,-0.13141 0.418515,-0.63454 0.418515,-2.76881 0,-2.32735 -0.05633,-2.63837 -0.523102,-2.88818 -0.416766,-0.22304 -0.634656,-0.1684 -1.071872,0.26882 -0.470591,0.47059 -0.541187,0.83518 -0.495554,2.55928 0.04114,1.55443 0.164253,2.12155 0.542705,2.5 0.549873,0.54988 0.5519,0.55047 1.129308,0.32889 z m 5.249489,1.01574 c -1.136483,-0.18702 -1.39139,-0.98614 -1.39139,-4.3619 0,-2.57201 0.07219,-3.15213 0.408286,-3.2811 0.224557,-0.0862 0.489082,-0.0759 0.587833,0.0229 0.09875,0.0987 0.197929,1.47019 0.2204,3.04764 0.02246,1.57744 0.122156,2.99964 0.221531,3.16043 0.240231,0.3887 1.285793,0.37308 1.684033,-0.0252 0.209481,-0.20948 0.3175,-1.33467 0.3175,-3.30729 0,-2.37914 0.07528,-2.98979 0.368567,-2.98979 0.588248,0 0.689766,0.62624 0.689766,4.25497 v 3.41794 h -0.661458 c -0.44218,0 -0.661458,-0.14686 -0.661458,-0.44299 0,-0.39072 -0.07025,-0.38134 -0.595313,0.0795 -0.33333,0.29255 -0.856271,0.47954 -1.188297,0.4249 z m 9.321409,-0.13175 c -1.259891,-0.70507 -1.687203,-5.06044 -0.661533,-6.74266 0.465796,-0.76396 0.656402,-0.8599 1.708497,-0.8599 1.566198,0 2.184413,0.65188 2.305396,2.43094 0.04953,0.72827 0.03017,1.42094 -0.04302,1.53926 -0.07319,0.11832 -0.728032,0.24588 -1.455208,0.28346 -1.4869,0.0769 -1.983594,0.34488 -1.983594,1.07041 0,0.5269 0.8764,1.5551 1.325507,1.5551 0.146944,0 0.471061,-0.23812 0.720259,-0.52916 0.58516,-0.68342 1.393817,-0.69439 1.393817,-0.0189 0,0.54827 -0.634384,1.31568 -1.143378,1.38315 -0.95812,0.12701 -1.819566,0.0826 -2.166739,-0.11169 z m 2.167985,-4.59081 c 0.301871,-0.78667 -0.263134,-1.81421 -1.047504,-1.90503 -0.557461,-0.0645 -0.777354,0.0576 -0.952913,0.52917 -0.125524,0.33719 -0.193283,0.79167 -0.15058,1.00995 0.0427,0.21828 0.08675,0.48617 0.09789,0.59531 0.04185,0.41021 1.886772,0.20407 2.053111,-0.2294 z m 7.812645,2.75807 c -0.400092,-1.54992 -0.432948,-11.01802 -0.04022,-11.59065 0.23136,-0.33734 0.339897,-0.29997 0.723554,0.24915 0.467693,0.6694 1.047157,2.42464 1.293471,3.91804 0.078,0.47294 0.247864,0.85989 0.377465,0.85989 0.129598,0 0.235635,0.17619 0.235635,0.39152 0,0.73578 0.850556,2.5189 1.201523,2.5189 0.192675,0 0.427339,-0.26789 0.521478,-0.59531 0.09414,-0.32742 0.349592,-0.99011 0.567674,-1.47263 0.218086,-0.48252 0.451263,-1.1969 0.518176,-1.5875 0.06691,-0.3906 0.425204,-1.51386 0.796203,-2.49612 0.547695,-1.4501 0.78214,-1.78518 1.246722,-1.78189 0.46642,0.003 0.498824,0.0515 0.175307,0.26053 -0.283167,0.183 -0.298661,0.25765 -0.05408,0.26054 0.263152,0.003 0.337095,0.7571 0.318249,3.24519 -0.0314,4.14622 -0.272611,7.10362 -0.564653,6.92313 -0.125777,-0.0777 -0.242771,-1.23564 -0.259987,-2.57312 -0.0352,-2.73394 -0.228161,-3.92992 -0.65709,-4.07257 -0.296746,-0.0987 -1.957441,4.54606 -1.957441,5.47471 0,0.27526 -0.108317,0.56742 -0.240707,0.64924 -0.553363,0.342 -0.987459,-0.22962 -1.449102,-1.90818 -0.61315,-2.22945 -1.457732,-4.07839 -1.773758,-3.88307 -0.132329,0.0818 -0.254685,1.65972 -0.271902,3.50652 -0.01722,1.8468 -0.111112,3.71501 -0.208656,4.15157 -0.174127,0.77934 -0.183165,0.77121 -0.497861,-0.44789 z m 12.114903,-1.63551 c 0,-2.55245 -0.23359,-3.81215 -1.036489,-5.58951 -0.478489,-1.05923 -1.080178,-3.29236 -1.080178,-4.00902 0,-0.63221 0.04995,-0.68059 0.358426,-0.34716 0.372557,0.4027 1.62655,4.11821 1.457582,4.31873 -0.194903,0.2313 0.890545,1.18816 1.209143,1.06591 0.181276,-0.0696 0.344463,-0.52198 0.362638,-1.00537 0.03954,-1.05191 0.909243,-3.3729 1.259128,-3.36029 0.477681,0.0172 0.41415,1.11555 -0.12949,2.23856 -0.301773,0.62338 -0.552463,1.42325 -0.557091,1.77748 -0.0046,0.35424 -0.183224,0.87519 -0.396875,1.15766 -0.288382,0.38128 -0.388461,1.28446 -0.388461,3.50573 0,2.81575 -0.03119,2.99214 -0.529166,2.99214 -0.495163,0 -0.529167,-0.17639 -0.529167,-2.74486 z m -47.161978,-6.69794 c -0.741256,-0.19371 -0.550833,-0.99752 0.870305,-3.67367 0.733327,-1.38094 1.262081,-2.62607 1.175009,-2.76695 -0.08707,-0.14089 -0.538242,-0.25799 -1.002596,-0.26021 -1.046557,-0.005 -1.545349,-0.29751 -1.269243,-0.74426 0.143033,-0.23143 0.741357,-0.31237 1.904264,-0.2576 1.49697,0.0705 1.705097,0.14573 1.775881,0.64187 0.0441,0.3091 -0.461915,1.59836 -1.124479,2.86501 -0.662565,1.26666 -1.204662,2.46575 -1.204662,2.66465 0,0.24372 0.40979,0.38793 1.256771,0.44228 1.072486,0.0688 1.269169,0.16793 1.341319,0.67595 0.0804,0.56613 0.0026,0.59381 -1.5875,0.56462 -0.919626,-0.0169 -1.880407,-0.0851 -2.135069,-0.15169 z m 6.019271,-0.23429 c -0.411832,-0.31119 -0.529167,-0.70953 -0.529167,-1.79643 0,-1.67781 0.381352,-2.14635 2.007555,-2.46655 0.93312,-0.18373 1.18499,-0.35225 1.254853,-0.83963 0.09435,-0.65821 -0.610211,-1.62447 -1.184505,-1.62447 -0.194495,0 -0.502338,0.23813 -0.684096,0.52917 -0.429088,0.68708 -1.261515,0.69698 -1.261515,0.015 0,-0.71088 0.992865,-1.33871 2.109393,-1.33386 1.102058,0.005 1.398905,0.17163 1.859603,1.04521 0.387054,0.73393 0.690599,5.1497 0.426368,6.20248 -0.176781,0.70436 -1.079749,0.97531 -1.277109,0.38323 -0.07566,-0.22698 -0.242001,-0.22698 -0.666113,0 -0.757473,0.40539 -1.41611,0.36881 -2.055267,-0.11415 z m 2.460625,-0.95916 c 0.469847,-0.46985 0.399682,-1.9756 -0.101015,-2.16773 -1.152274,-0.44217 -1.962735,0.13442 -1.962735,1.39636 0,0.89882 1.409478,1.42564 2.06375,0.77137 z m 7.846099,0.7264 c -0.605914,-0.60591 -0.649433,-0.83305 -0.649433,-3.38969 0,-3.23288 0.353759,-3.90137 2.060829,-3.89432 1.514176,0.006 2.118559,0.64792 2.343989,2.48864 0.194006,1.58411 -0.108622,1.92883 -1.615398,1.84007 -1.930585,-0.11373 -2.544786,1.2073 -1.024474,2.20344 0.593198,0.38868 0.676515,0.37864 1.238509,-0.14933 0.755078,-0.70936 1.229878,-0.72359 1.229878,-0.0369 0,1.51727 -2.38139,2.14058 -3.5839,0.93807 z m 2.66197,-4.3906 c 0.246767,-0.77749 -0.548306,-1.8931 -1.275124,-1.7892 -0.765731,0.10947 -1.411807,1.41167 -0.96656,1.94816 0.501242,0.60396 2.034039,0.49527 2.241684,-0.15896 z m 6.943588,4.47315 c -0.547257,-0.49576 -0.719424,-0.94947 -0.839097,-2.21124 -0.198255,-2.09029 0.173947,-4.35896 0.788913,-4.80864 0.783857,-0.57317 2.32083,-0.43815 2.97824,0.26163 0.4514,0.48049 0.575286,0.93631 0.575286,2.11667 v 1.5043 h -1.304017 c -1.392005,0 -2.285143,0.55149 -2.018491,1.24638 0.08113,0.21142 0.147508,0.49667 0.147508,0.63389 0,0.13722 0.315616,0.36949 0.701371,0.51615 0.574424,0.2184 0.804981,0.16932 1.273823,-0.27113 0.708874,-0.66595 1.199806,-0.69018 1.199806,-0.0592 0,0.83168 -0.644258,1.40379 -1.747419,1.55176 -0.872294,0.117 -1.193245,0.0292 -1.755923,-0.48057 z m 2.445009,-4.84207 c 0,-1.84196 -1.912924,-2.15088 -2.186347,-0.35307 -0.175636,1.15484 -0.07679,1.26411 1.143629,1.26411 1.012018,0 1.042718,-0.0268 1.042718,-0.91104 z m 21.334986,2.10014 c -0.09216,-0.24015 8.28e-4,-0.39535 0.236857,-0.39535 0.427935,0 0.525286,0.41344 0.151712,0.64432 -0.13027,0.0805 -0.305128,-0.0315 -0.388569,-0.24897 z m -27.440646,-6.54691 c -0.307017,-1.00318 0.344308,-1.60523 0.805111,-0.7442 0.199956,0.37362 0.163693,0.53127 -0.149894,0.6516 -0.446918,0.1715 -0.623435,0.19644 -0.655217,0.0926 z"
                         id="path5419"
                         inkscape:connector-curvature="0" />
                      <path
                         style="fill:#2f2f2f;stroke-width:0.26458335"
                         d="m 48.173953,-325.23796 c 0,-0.25224 0.238125,-0.52089 0.529167,-0.597 0.505145,-0.1321 0.529167,-0.3609 0.529167,-5.04012 0,-4.4692 0.0416,-4.91493 0.471418,-5.05135 0.688264,-0.21845 0.731608,-1.48524 0.05685,-1.66169 -0.685493,-0.17926 -0.708575,-1.13477 -0.02741,-1.13477 0.697462,0 0.753178,-0.26529 0.778322,-3.70601 0.01222,-1.67247 0.02706,-3.13016 0.03298,-3.2393 0.0059,-0.10914 0.175467,-0.19844 0.376775,-0.19844 0.573106,0 0.684956,0.88313 0.686962,5.42396 0.0016,3.78312 -0.05404,4.31775 -0.523812,5.02709 -0.468839,0.70792 -0.526291,1.25149 -0.531323,5.02708 -0.0065,4.87446 -0.188857,5.54116 -1.527011,5.58271 -0.642181,0.0199 -0.852083,-0.0865 -0.852083,-0.43216 z m -22.784852,-2.66125 c -0.201403,-0.12738 -0.753142,-0.16078 -1.226084,-0.0742 l -0.859896,0.15736 v -4.94189 c 0,-4.8637 -0.01048,-4.95561 -0.661458,-5.8091 -0.363802,-0.47697 -0.661459,-1.00481 -0.661459,-1.17298 0,-0.50137 0.905513,-0.34688 1.408245,0.24027 0.541906,0.6329 1.447078,0.59274 1.870673,-0.083 0.381974,-0.60934 0.0078,-1.1954 -1.164815,-1.82427 -1.931399,-1.03582 -2.452089,-2.21123 -1.594604,-3.59969 0.455097,-0.7369 0.681519,-0.8599 1.582973,-0.8599 1.071719,0 2.130862,0.74811 2.130862,1.5051 0,0.46867 -1.037863,0.44362 -1.219386,-0.0294 -0.380563,-0.99173 -1.691031,-0.60418 -1.691031,0.5001 0,0.62587 0.745834,1.46382 1.302906,1.46382 0.184359,0 0.681001,0.24623 1.103646,0.54718 1.308769,0.93193 1.002594,3.01326 -0.562311,3.8225 -0.691459,0.35757 -0.785908,0.5468 -0.785908,1.57462 0,1.14209 0.327295,1.74013 0.658792,1.20376 0.19323,-0.31265 1.4455,-0.35278 1.904343,-0.061 0.577583,0.36726 0.876448,1.66006 0.876448,3.79124 0,1.97018 -0.450519,3.63611 -0.998981,3.69405 -0.105405,0.0111 -0.384046,0.0578 -0.619205,0.10367 -0.235159,0.0459 -0.592346,-0.0208 -0.79375,-0.14816 z m 0.577247,-1.0434 c 0.446521,-0.23897 0.511773,-0.57109 0.511773,-2.60483 0,-1.95583 -0.08108,-2.4043 -0.503822,-2.78688 -0.42885,-0.38811 -0.586336,-0.40442 -1.058334,-0.10966 -0.493837,0.30841 -0.554511,0.59782 -0.554511,2.64501 0,1.73695 0.101606,2.40031 0.415774,2.71448 0.491885,0.49188 0.527249,0.4961 1.18912,0.14188 z m 4.254913,0.71225 c -0.517129,-0.55045 -0.56814,-0.89499 -0.56814,-3.83715 0,-2.66932 0.07112,-3.25969 0.408286,-3.38907 0.224557,-0.0862 0.473782,-0.0912 0.553831,-0.0111 0.08005,0.08 0.133258,1.35052 0.118237,2.82326 -0.03121,3.06061 0.193048,3.71115 1.279345,3.71115 0.961644,0 1.071603,-0.39871 1.076272,-3.90261 0.0029,-2.13995 0.08135,-2.71198 0.372179,-2.71198 0.588248,0 0.689766,0.62625 0.689766,4.25498 v 3.41795 h -0.63941 c -0.351674,0 -0.689499,-0.14883 -0.750724,-0.33073 -0.08549,-0.254 -0.219353,-0.24151 -0.577019,0.0538 -0.729578,0.60242 -1.34611,0.57777 -1.962623,-0.0785 z m 6.432343,0.18287 c -0.449292,-0.32809 -0.530135,-0.7653 -0.60802,-3.28824 -0.10418,-3.37472 0.201101,-4.21216 1.535522,-4.21216 0.424619,0 0.845619,0.11907 0.935556,0.26459 0.420288,0.68004 0.661458,0.10773 0.661458,-1.56967 0,-1.60188 0.06704,-1.85553 0.529167,-2.00221 0.504542,-0.16013 0.529167,-0.40032 0.529167,-5.16159 0,-4.82572 0.15059,-5.77386 0.811995,-5.11245 0.130199,0.13019 0.288629,2.25699 0.352071,4.72621 0.06344,2.46923 0.125137,4.63833 0.137099,4.82023 0.01196,0.1819 0.208627,0.33073 0.437028,0.33073 0.279321,0 0.387596,0.1949 0.330729,0.59531 -0.07087,0.49899 -0.223684,0.58187 -0.944443,0.51224 l -0.859896,-0.0831 v 5.1763 5.1763 h -0.645843 c -0.355213,0 -0.727284,-0.13177 -0.826822,-0.29283 -0.128874,-0.20852 -0.238975,-0.19899 -0.382405,0.0331 -0.294161,0.47596 -1.394071,0.52412 -1.992363,0.0872 z m 2.106001,-0.78183 c 0.342466,-0.13141 0.418515,-0.63454 0.418515,-2.76881 0,-2.32735 -0.05633,-2.63837 -0.523102,-2.88818 -0.416766,-0.22304 -0.634656,-0.1684 -1.071872,0.26882 -0.470591,0.47059 -0.541187,0.83518 -0.495554,2.55928 0.04114,1.55443 0.164253,2.12155 0.542705,2.5 0.549873,0.54988 0.5519,0.55047 1.129308,0.32889 z m 5.249489,1.01574 c -1.136483,-0.18702 -1.39139,-0.98614 -1.39139,-4.3619 0,-2.57201 0.07219,-3.15213 0.408286,-3.2811 0.224557,-0.0862 0.489082,-0.0759 0.587833,0.0229 0.09875,0.0987 0.197929,1.47019 0.2204,3.04764 0.02246,1.57744 0.122156,2.99964 0.221531,3.16043 0.240231,0.3887 1.285793,0.37308 1.684033,-0.0252 0.209481,-0.20948 0.3175,-1.33467 0.3175,-3.30729 0,-2.37914 0.07528,-2.98979 0.368567,-2.98979 0.588248,0 0.689766,0.62624 0.689766,4.25497 v 3.41794 h -0.661458 c -0.44218,0 -0.661458,-0.14686 -0.661458,-0.44299 0,-0.39072 -0.07025,-0.38134 -0.595313,0.0795 -0.33333,0.29255 -0.856271,0.47954 -1.188297,0.4249 z m 9.321409,-0.13175 c -1.259891,-0.70507 -1.687203,-5.06044 -0.661533,-6.74266 0.465796,-0.76396 0.656402,-0.8599 1.708497,-0.8599 1.566198,0 2.184413,0.65188 2.305396,2.43094 0.04953,0.72827 0.03017,1.42094 -0.04302,1.53926 -0.07319,0.11832 -0.728032,0.24588 -1.455208,0.28346 -1.4869,0.0769 -1.983594,0.34488 -1.983594,1.07041 0,0.5269 0.8764,1.5551 1.325507,1.5551 0.146944,0 0.471061,-0.23812 0.720259,-0.52916 0.58516,-0.68342 1.393817,-0.69439 1.393817,-0.0189 0,0.54827 -0.634384,1.31568 -1.143378,1.38315 -0.95812,0.12701 -1.819566,0.0826 -2.166739,-0.11169 z m 2.167985,-4.59081 c 0.301871,-0.78667 -0.263134,-1.81421 -1.047504,-1.90503 -0.557461,-0.0645 -0.777354,0.0576 -0.952913,0.52917 -0.125524,0.33719 -0.193283,0.79167 -0.15058,1.00995 0.0427,0.21828 0.08675,0.48617 0.09789,0.59531 0.04185,0.41021 1.886772,0.20407 2.053111,-0.2294 z m -27.23443,-5.57538 c -0.741256,-0.19371 -0.550833,-0.99752 0.870305,-3.67367 0.733327,-1.38094 1.262081,-2.62607 1.175009,-2.76695 -0.08707,-0.14089 -0.538242,-0.25799 -1.002596,-0.26021 -1.046557,-0.005 -1.545349,-0.29751 -1.269243,-0.74426 0.143033,-0.23143 0.741357,-0.31237 1.904264,-0.2576 1.49697,0.0705 1.705097,0.14573 1.775881,0.64187 0.0441,0.3091 -0.461915,1.59836 -1.124479,2.86501 -0.662565,1.26666 -1.204662,2.46575 -1.204662,2.66465 0,0.24372 0.40979,0.38793 1.256771,0.44228 1.072486,0.0688 1.269169,0.16793 1.341319,0.67595 0.0804,0.56613 0.0026,0.59381 -1.5875,0.56462 -0.919626,-0.0169 -1.880407,-0.0851 -2.135069,-0.15169 z m 6.019271,-0.23429 c -0.411832,-0.31119 -0.529167,-0.70953 -0.529167,-1.79643 0,-1.67781 0.381352,-2.14635 2.007555,-2.46655 0.93312,-0.18373 1.18499,-0.35225 1.254853,-0.83963 0.09435,-0.65821 -0.610211,-1.62447 -1.184505,-1.62447 -0.194495,0 -0.502338,0.23813 -0.684096,0.52917 -0.429088,0.68708 -1.261515,0.69698 -1.261515,0.015 0,-0.71088 0.992865,-1.33871 2.109393,-1.33386 1.102058,0.005 1.398905,0.17163 1.859603,1.04521 0.387054,0.73393 0.690599,5.1497 0.426368,6.20248 -0.176781,0.70436 -1.079749,0.97531 -1.277109,0.38323 -0.07566,-0.22698 -0.242001,-0.22698 -0.666113,0 -0.757473,0.40539 -1.41611,0.36881 -2.055267,-0.11415 z m 2.460625,-0.95916 c 0.469847,-0.46985 0.399682,-1.9756 -0.101015,-2.16773 -1.152274,-0.44217 -1.962735,0.13442 -1.962735,1.39636 0,0.89882 1.409478,1.42564 2.06375,0.77137 z m 7.846099,0.7264 c -0.605914,-0.60591 -0.649433,-0.83305 -0.649433,-3.38969 0,-3.23288 0.353759,-3.90137 2.060829,-3.89432 1.514176,0.006 2.118559,0.64792 2.343989,2.48864 0.194006,1.58411 -0.108622,1.92883 -1.615398,1.84007 -1.930585,-0.11373 -2.544786,1.2073 -1.024474,2.20344 0.593198,0.38868 0.676515,0.37864 1.238509,-0.14933 0.755078,-0.70936 1.229878,-0.72359 1.229878,-0.0369 0,1.51727 -2.38139,2.14058 -3.5839,0.93807 z m 2.66197,-4.3906 c 0.246767,-0.77749 -0.548306,-1.8931 -1.275124,-1.7892 -0.765731,0.10947 -1.411807,1.41167 -0.96656,1.94816 0.501242,0.60396 2.034039,0.49527 2.241684,-0.15896 z m 6.943588,4.47315 c -0.547257,-0.49576 -0.719424,-0.94947 -0.839097,-2.21124 -0.198255,-2.09029 0.173947,-4.35896 0.788913,-4.80864 0.783857,-0.57317 2.32083,-0.43815 2.97824,0.26163 0.4514,0.48049 0.575286,0.93631 0.575286,2.11667 v 1.5043 h -1.304017 c -1.392005,0 -2.285143,0.55149 -2.018491,1.24638 0.08113,0.21142 0.147508,0.49667 0.147508,0.63389 0,0.13722 0.315616,0.36949 0.701371,0.51615 0.574424,0.2184 0.804981,0.16932 1.273823,-0.27113 0.708874,-0.66595 1.199806,-0.69018 1.199806,-0.0592 0,0.83168 -0.644258,1.40379 -1.747419,1.55176 -0.872294,0.117 -1.193245,0.0292 -1.755923,-0.48057 z m 2.445009,-4.84207 c 0,-1.84196 -1.912924,-2.15088 -2.186347,-0.35307 -0.175636,1.15484 -0.07679,1.26411 1.143629,1.26411 1.012018,0 1.042718,-0.0268 1.042718,-0.91104 z m -6.10566,-4.44677 c -0.307017,-1.00318 0.344308,-1.60523 0.805111,-0.7442 0.199956,0.37362 0.163693,0.53127 -0.149894,0.6516 -0.446918,0.1715 -0.623435,0.19644 -0.655217,0.0926 z"
                         id="path5417"
                         inkscape:connector-curvature="0" />
                      <path
                         style="fill:#080808;stroke-width:0.26458335"
                         d="m 48.28098,-325.27002 c -0.109635,-0.17739 -0.07329,-0.23407 0.0867,-0.1352 0.322313,0.1992 0.86827,-0.38471 0.998141,-1.06753 0.04981,-0.2619 0.09968,-2.45659 0.11081,-4.87709 0.01918,-4.1696 0.04806,-4.40819 0.54941,-4.53929 0.353002,-0.0923 0.529166,-0.3609 0.529166,-0.80678 0,-0.43603 -0.183967,-0.72679 -0.529166,-0.83635 -0.291042,-0.0924 -0.529167,-0.39805 -0.529167,-0.67929 0,-0.33495 0.182539,-0.51134 0.529167,-0.51134 0.502973,0 0.529166,-0.17638 0.529166,-3.56357 0,-3.05891 0.0562,-3.542 0.396875,-3.41127 0.332121,0.12744 0.39659,0.91393 0.395132,4.82034 -0.0016,4.14448 -0.05827,4.75378 -0.505704,5.43249 -0.438086,0.66452 -0.508397,1.31431 -0.537919,4.97132 -0.03809,4.71891 -0.207534,5.50903 -1.181428,5.50903 -0.358817,0 -0.737346,-0.13746 -0.841179,-0.30547 z m -24.977859,-7.89661 c 0,-4.52732 -0.05733,-5.29167 -0.396875,-5.29167 -0.218281,0 -0.396875,-0.10933 -0.396875,-0.24294 0,-0.13362 -0.07227,-0.43128 -0.160599,-0.66146 -0.222721,-0.5804 0.336846,-0.52641 1.146735,0.11065 0.369999,0.29104 0.775732,0.52916 0.901629,0.52916 0.42776,0 1.287235,-1.05605 1.287235,-1.58166 0,-0.37393 -0.434308,-0.73698 -1.521354,-1.27175 -1.300544,-0.6398 -1.55629,-0.88764 -1.762046,-1.70759 -0.371166,-1.47909 0.289399,-2.31816 1.824982,-2.31816 0.891112,0 1.241428,0.12372 1.44911,0.51177 0.365792,0.68349 0.34644,0.81114 -0.122984,0.81114 -0.218281,0 -0.396875,-0.1647 -0.396875,-0.36601 0,-0.45609 -1.057008,-0.75821 -1.465783,-0.41896 -0.166484,0.13817 -0.381037,0.17287 -0.47679,0.0771 -0.09575,-0.0958 -0.172469,0.11365 -0.170482,0.46532 0.007,1.23022 0.314031,1.83337 1.020191,2.00381 2.64967,0.63951 3.028119,3.13961 0.678937,4.48518 -0.473305,0.2711 -0.512114,0.61836 -0.512114,4.58242 0,4.00941 0.03451,4.3093 0.529166,4.59897 0.611024,0.35782 1.501902,0.47218 1.314352,0.16871 -0.06986,-0.11304 0.0091,-0.2509 0.175475,-0.30636 0.17576,-0.0586 0.357161,-0.95254 0.432958,-2.13363 0.147934,-2.30515 -0.227848,-3.63157 -1.028842,-3.63157 -0.672407,0 -0.631746,-0.43223 0.05762,-0.6125 0.785162,-0.20532 1.299358,0.054 1.582248,0.7981 0.360952,0.94938 0.292663,5.12682 -0.09644,5.89982 -0.396785,0.78826 -1.524847,1.00701 -2.12062,0.41124 -0.521412,-0.52141 -0.978204,-0.52812 -0.978204,-0.0144 0,0.21828 -0.178594,0.39687 -0.396875,0.39687 -0.339548,0 -0.396875,-0.76435 -0.396875,-5.29166 z m 7.030357,4.87589 c -0.335097,-0.3351 -0.415774,-1.07953 -0.415774,-3.83646 0,-1.88138 0.105193,-3.42069 0.233759,-3.42069 0.278982,0 0.671733,3.30932 0.437693,3.688 -0.08955,0.14489 -0.0831,0.86428 0.01431,1.59864 0.147489,1.11185 0.281995,1.36154 0.80401,1.49256 0.344789,0.0865 0.626891,0.32302 0.626891,0.52553 0,0.50362 -1.182778,0.47053 -1.700893,-0.0476 z m 2.759226,-3.44273 c 0,-2.96892 0.07625,-3.83322 0.330729,-3.74882 0.224777,0.0745 0.351711,0.86566 0.396222,2.46944 0.03602,1.29787 0.09555,2.985 0.132291,3.74918 0.05637,1.17243 -0.0055,1.38937 -0.396221,1.38906 -0.419788,-2.6e-4 -0.463021,-0.36062 -0.463021,-3.85886 z m 3.497567,3.45399 c -0.245444,-0.27839 -0.318403,-1.27592 -0.264584,-3.61751 l 0.07431,-3.23314 0.855908,-0.17464 c 0.581803,-0.11872 0.952294,-0.0585 1.156877,0.18799 0.237149,0.28575 0.193112,0.36264 -0.207682,0.36264 -0.953537,0 -1.143645,0.53228 -1.143645,3.20204 v 2.56703 l 0.813596,0.28362 c 0.447477,0.156 0.738106,0.40577 0.645843,0.55505 -0.247282,0.40011 -1.539036,0.31107 -1.930623,-0.13308 z m 2.73904,-0.0113 c -0.467164,-0.46716 -0.55363,-0.75898 -0.151191,-0.51026 0.398995,0.24659 0.347523,-5.23519 -0.05292,-5.63562 -0.246944,-0.24695 -0.246944,-0.31751 0,-0.31751 0.218276,0 0.3175,-0.6105 0.3175,-1.95351 0,-1.731 0.06027,-1.96928 0.529166,-2.0919 0.505233,-0.13212 0.529167,-0.36089 0.529167,-5.05794 0,-3.10332 0.09768,-4.91956 0.264583,-4.91956 0.146201,0 0.264584,0.69171 0.264584,1.54596 0,3.8243 0.350858,7.97904 0.673811,7.97904 0.351494,0 0.703213,0.65145 0.474954,0.8797 -0.07573,0.0757 -0.543774,0.0718 -1.040101,-0.009 l -0.902414,-0.14644 v 5.32629 c 0,3.10132 -0.10263,5.32628 -0.245684,5.32628 -0.135128,0 -0.432785,-0.1871 -0.661459,-0.41577 z m 3.96875,0 c -0.333161,-0.33315 -0.415774,-1.06607 -0.415774,-3.68854 0,-1.80003 0.11049,-3.34107 0.245533,-3.42453 0.39043,-0.2413 0.514144,0.59571 0.500184,3.38405 -0.01241,2.48138 0.166331,3.16122 0.855012,3.25183 0.138245,0.0182 0.384995,0.048 0.548333,0.0661 0.489231,0.0545 -0.295087,0.82682 -0.839644,0.82682 -0.26283,0 -0.66497,-0.1871 -0.893644,-0.41577 z m 2.723692,-0.0472 c -0.01955,-0.25466 -0.0072,-0.988 0.0274,-1.62964 0.03461,-0.64164 0.08036,-2.07039 0.101677,-3.175 0.02131,-1.10461 0.157813,-2.06791 0.303334,-2.14067 0.168558,-0.0843 0.291227,1.23605 0.337994,3.63802 0.06303,3.23716 0.01627,3.77031 -0.330729,3.77031 -0.222276,0 -0.420129,-0.20836 -0.439674,-0.46302 z m 7.024825,-0.24736 c -0.362098,-0.39071 -0.598276,-0.86696 -0.524838,-1.05833 0.07344,-0.19138 0.0182,-0.34795 -0.122756,-0.34795 -0.43693,0 -0.268732,-3.2296 0.220469,-4.23334 0.408102,-0.83733 0.569429,-0.93368 1.684145,-1.00575 1.65768,-0.10717 2.223632,0.47847 2.167829,2.24326 -0.0222,0.70182 -0.05273,1.34882 -0.06787,1.43778 -0.01513,0.089 -0.323514,0.10517 -0.685284,0.036 -1.081336,-0.20671 -2.445597,0.16118 -2.585792,0.69729 -0.06977,0.26682 0.03042,0.8592 0.222658,1.31639 0.284385,0.67636 0.501367,0.83127 1.164346,0.83127 0.480214,0 0.877367,-0.16298 0.967121,-0.39687 0.189254,-0.49319 0.889432,-0.52547 0.889432,-0.041 0,0.60492 -0.925807,1.23163 -1.819405,1.23163 -0.584256,0 -1.058426,-0.22306 -1.510055,-0.71038 z m 2.288519,-3.53226 c 0.596752,-0.31937 0.673081,-1.47581 0.14346,-2.1735 -0.407157,-0.53637 -1.563796,-0.61508 -1.944058,-0.1323 -0.38005,0.48252 -0.605589,1.61249 -0.388599,1.9469 0.390033,0.60111 1.420855,0.7701 2.189197,0.3589 z m -27.266891,-6.55174 c 0.0013,-0.24773 0.319156,-1.10525 0.706077,-1.90562 0.386922,-0.80036 0.718561,-1.51474 0.736976,-1.5875 0.01842,-0.0728 0.304297,-0.64984 0.635296,-1.28241 0.330997,-0.63256 0.533919,-1.21801 0.450935,-1.301 -0.153453,-0.15345 -0.863073,-0.2652 -1.936557,-0.30496 -0.327422,-0.0121 -0.595312,-0.14655 -0.595312,-0.29872 0,-0.17291 0.6698,-0.24733 1.785937,-0.19844 1.735082,0.076 1.783273,0.097 1.692344,0.7374 -0.05148,0.36254 -0.319368,0.97623 -0.595313,1.36376 -0.275944,0.38753 -0.501718,0.88 -0.501718,1.09438 0,0.21438 -0.178594,0.538 -0.396875,0.71916 -0.218282,0.18116 -0.396875,0.52911 -0.396875,0.77323 0,0.24412 -0.134872,0.57872 -0.299715,0.74357 -0.603657,0.60365 -0.03713,1.12903 1.217454,1.12903 0.863322,0 1.198927,0.10593 1.198927,0.37841 0,0.29156 -0.425074,0.37975 -1.852083,0.38426 -1.571032,0.005 -1.851692,-0.0625 -1.849498,-0.44455 z m 6.135748,0.15813 c -0.174625,-0.17462 -0.3175,-0.93484 -0.3175,-1.68936 0,-1.1482 0.10142,-1.43832 0.622083,-1.77947 0.342146,-0.22418 1.022551,-0.44623 1.512012,-0.49345 0.765127,-0.0738 0.914273,-0.2059 1.063513,-0.94193 0.194101,-0.95728 -0.117702,-1.51462 -0.992303,-1.77372 -0.394428,-0.11685 -0.682826,-0.0168 -0.926042,0.32144 -0.449567,0.62509 -1.279263,0.95378 -1.279263,0.50678 0,-0.57963 1.05446,-1.25709 2.01273,-1.29312 0.635439,-0.0239 1.111388,0.14788 1.508347,0.54434 0.520407,0.51975 0.589032,0.9046 0.668269,3.74761 0.08421,3.02164 0.06379,3.16838 -0.440973,3.16838 -0.291102,0 -0.583845,-0.14883 -0.650544,-0.33073 -0.09701,-0.26458 -0.191381,-0.26458 -0.47184,0 -0.446137,0.42089 -1.892546,0.42918 -2.308489,0.0132 z m 2.797193,-0.95839 c 0.185111,-0.23579 0.274408,-0.5907 0.198438,-0.78868 -0.07597,-0.19798 -0.138131,-0.57483 -0.138131,-0.83746 0,-0.32899 -0.248542,-0.51397 -0.799166,-0.59478 -1.627661,-0.23889 -2.449486,1.30649 -1.303967,2.45201 0.60181,0.60181 1.465659,0.50409 2.042826,-0.23109 z m 8.117671,1.09621 c -0.643208,-0.12782 -1.340144,-1.67338 -0.882198,-1.9564 0.207904,-0.12849 0.204912,-0.2314 -0.01058,-0.36459 -0.43633,-0.26967 -0.298244,-3.31172 0.188669,-4.15637 0.309949,-0.53767 0.654809,-0.72767 1.460196,-0.80448 1.619162,-0.15441 2.148726,0.41923 2.158706,2.33838 l 0.0081,1.55127 -1.5875,0.004 -1.5875,0.004 -0.08475,0.8806 c -0.145378,1.51044 1.464408,2.54 2.333712,1.49255 0.492903,-0.59391 1.035301,-0.49824 0.865106,0.15259 -0.217771,0.83276 -1.32283,1.16419 -2.861908,0.85835 z m 2.062948,-4.0316 c 0.294145,-0.0327 0.240493,-1.56576 -0.07545,-2.15611 -0.175106,-0.32719 -0.553463,-0.51178 -1.049025,-0.51178 -0.861386,0 -1.322917,0.5969 -1.322917,1.71093 0,0.73796 0.679196,1.1569 1.689915,1.04236 0.307475,-0.0349 0.64834,-0.0733 0.757481,-0.0854 z m 6.929736,3.83601 c -0.721791,-0.5274 -0.912101,-4.95703 -0.266594,-6.2053 0.391867,-0.75779 0.538522,-0.82776 1.734865,-0.82776 1.005372,0 1.367843,0.11404 1.571395,0.49438 0.145521,0.2719 0.189399,0.56956 0.0975,0.66146 -0.0919,0.0919 -0.02817,0.16707 0.1416,0.16707 0.193386,0 0.308681,0.48654 0.308681,1.30263 v 1.30261 l -1.353098,-0.12568 c -1.045268,-0.0971 -1.470024,-0.0199 -1.867069,0.33945 -0.531024,0.48057 -0.486971,1.4346 0.09884,2.14045 0.424125,0.51104 1.627804,0.39412 2.143538,-0.20821 0.2545,-0.29724 0.578617,-0.4688 0.720259,-0.38126 0.381572,0.23582 0.317873,0.49255 -0.28194,1.13637 -0.633928,0.68045 -2.247939,0.78836 -3.047977,0.20379 z m 2.893658,-4.51952 c -0.01093,-0.29104 -0.15399,-0.85659 -0.317939,-1.25677 -0.234106,-0.57144 -0.472758,-0.72761 -1.111888,-0.72761 -0.677449,0 -0.877591,0.15268 -1.194543,0.91126 -0.587079,1.40507 -0.302678,1.77439 1.294574,1.68111 1.155018,-0.0675 1.346788,-0.15513 1.329796,-0.60799 z m -6.449957,-5.29167 c 0,-0.21828 0.178594,-0.39687 0.396875,-0.39687 0.218282,0 0.396875,0.17859 0.396875,0.39687 0,0.21828 -0.178593,0.39688 -0.396875,0.39688 -0.218281,0 -0.396875,-0.1786 -0.396875,-0.39688 z"
                         id="path5415"
                         inkscape:connector-curvature="0" />
                    </g>
                  </g>
                </g>
              </g>
            </g>
          </g>
        </g>
      </g>
    </g>
  </g>
</svg>
