<?xml version="1.0" encoding="UTF-8" standalone="no"?>
<!-- Created with Inkscape (http://www.inkscape.org/) -->

<svg
   xmlns:dc="http://purl.org/dc/elements/1.1/"
   xmlns:cc="http://creativecommons.org/ns#"
   xmlns:rdf="http://www.w3.org/1999/02/22-rdf-syntax-ns#"
   xmlns:svg="http://www.w3.org/2000/svg"
   xmlns="http://www.w3.org/2000/svg"
   xmlns:sodipodi="http://sodipodi.sourceforge.net/DTD/sodipodi-0.dtd"
   xmlns:inkscape="http://www.inkscape.org/namespaces/inkscape"
   width="238.125mm"
   height="238.125mm"
   viewBox="0 0 238.12502 238.12502"
   version="1.1"
   id="svg8"
   sodipodi:docname="tanker.svg"
   inkscape:version="0.92.1 r15371"
   inkscape:export-filename="C:\xampp\htdocs\portfolio\img\projects\tanker.png"
   inkscape:export-xdpi="96"
   inkscape:export-ydpi="96">
  <defs
     id="defs2" />
  <sodipodi:namedview
     id="base"
     pagecolor="#dfa3a3"
     bordercolor="#666666"
     borderopacity="1.0"
     inkscape:pageopacity="0"
     inkscape:pageshadow="2"
     inkscape:zoom="0.62401744"
     inkscape:cx="491.2029"
     inkscape:cy="174.30843"
     inkscape:document-units="mm"
     inkscape:current-layer="g4681"
     showgrid="false"
     fit-margin-top="0"
     fit-margin-left="0"
     fit-margin-right="0"
     fit-margin-bottom="0"
     inkscape:window-width="1920"
     inkscape:window-height="1051"
     inkscape:window-x="-9"
     inkscape:window-y="-9"
     inkscape:window-maximized="1" />
  <metadata
     id="metadata5">
    <rdf:RDF>
      <cc:Work
         rdf:about="">
        <dc:format>image/svg+xml</dc:format>
        <dc:type
           rdf:resource="http://purl.org/dc/dcmitype/StillImage" />
        <dc:title />
      </cc:Work>
    </rdf:RDF>
  </metadata>
  <g
     inkscape:label="Layer 1"
     inkscape:groupmode="layer"
     id="layer1"
     transform="translate(130.62654,115.47499)">
    <g
       id="g4496">
      <g
         id="g4623">
        <g
           id="g4652">
          <g
             id="g4681">
            <path
               style="fill:#d0d0d0;stroke-width:0.26458332"
               d="m -12.35779,86.746531 c -19.296877,-2.855304 -34.491742,-7.336412 -47.201675,-13.920219 -7.556478,-3.914294 -12.898424,-7.685783 -18.24687,-12.882552 -5.437566,-5.283364 -8.627399,-9.610778 -11.535175,-15.648932 -2.832925,-5.882719 -4.221215,-11.016403 -4.926586,-18.217735 l -0.427612,-4.365625 4.152051,-16.536458 4.15205,-16.536458 -0.308501,-2.116667 c -0.438489,-3.008537 -0.962083,-6.47773 -1.417616,-9.392708 -0.216038,-1.382448 -0.702083,-4.537605 -1.080098,-7.011459 -0.378016,-2.473854 -0.805453,-5.212291 -0.949857,-6.085416 -0.144407,-0.873125 -0.679196,-4.296172 -1.188419,-7.606771 -2.153049,-13.997575 -2.798749,-18.152258 -3.073738,-19.777604 -0.160033,-0.945886 -0.248243,-2.017448 -0.196025,-2.38125 l 0.09495,-0.661459 12.170833,-0.03285 c 14.900069,-0.04022 22.229588,-0.546682 32.54375,-2.248725 10.068349,-1.661481 21.539962,-4.823019 34.07268,-9.390312 2.150596,-0.783741 4.10097,-1.424985 4.334158,-1.424985 0.233188,0 2.1645453,0.701186 4.2919038,1.55819 14.862802,5.987465 32.4950852,9.57549 53.6095922,10.909115 2.619375,0.165441 9.286875,0.374777 14.816666,0.465187 l 10.054167,0.164383 0.09495,0.661459 c 0.05222,0.363802 -0.03599,1.435364 -0.196025,2.38125 -0.265239,1.567727 -0.836017,5.23037 -2.824398,18.123958 -0.381502,2.473854 -0.861639,5.569479 -1.066966,6.879167 -0.20533,1.309687 -0.550495,3.571875 -0.767035,5.027083 -0.216541,1.455208 -0.564235,3.717396 -0.772655,5.027083 -0.20842,1.309688 -0.686829,4.405313 -1.063136,6.879167 -0.376303,2.473854 -0.876654,5.66773 -1.111887,7.097501 -0.480433,2.920121 -0.566341,2.241134 1.344879,10.6295823 1.49619,6.5668684 2.273097,9.9840759 4.631796,20.3729167 1.024218,4.511146 1.862199,8.678333 1.862175,9.260417 -7.4e-5,1.816036 -0.801852,8.090966 -1.352283,10.583333 C 64.599244,61.717529 39.550404,79.16135 0.07762667,85.334523 -6.5649496,86.37336 -11.269546,86.907553 -12.35779,86.746531 Z M -3.4230331,81.2324 C 21.365999,77.703112 40.59954,69.82141 52.681812,58.241222 60.479851,50.767235 64.982239,41.956679 66.341012,31.512042 66.985217,26.560154 66.898341,25.177827 65.581197,19.422103 64.936913,16.606672 63.804367,11.624229 63.06443,8.35001 62.324491,5.0757912 61.601914,1.920635 61.458703,1.3385517 c -0.143214,-0.58208337 -0.85095,-3.6801822 -1.572749,-6.8846674 -1.43873,-6.3873463 -1.40176,-5.4261173 -0.442445,-11.5038743 0.67617,-4.283871 1.187559,-7.582376 2.13304,-13.758333 1.310208,-8.55839 4.070011,-26.313294 4.379978,-28.178125 0.496202,-2.985289 1.158576,-2.66881 -6.016921,-2.874852 -8.854633,-0.254254 -15.910812,-0.626745 -20.835938,-1.099918 -19.41282,-1.865053 -34.4412964,-5.251537 -48.5905463,-10.949283 l -2.0238827,-0.814996 -1.680284,0.631954 c -0.924158,0.347575 -3.765063,1.344843 -6.313125,2.21615 -21.608926,7.389154 -38.129228,10.113989 -61.314558,10.113135 -7.952245,-2.65e-4 -8.53245,0.03119 -8.527491,0.462705 0.0058,0.50464 0.197371,1.834177 1.019812,7.077605 0.296728,1.89177 1.552787,9.995479 2.791241,18.008242 1.238454,8.012761 2.495505,16.088199 2.793449,17.945413 1.215277,7.575383 1.584826,4.747881 -3.046957,23.3130113 -3.020613,12.1072357 -4.092564,16.8228777 -4.09234,18.0026577 5.3e-4,2.350246 0.730848,7.555677 1.472766,10.496171 6.177122,24.482251 31.18883,41.126503 72.081708,47.967387 4.470175,0.747805 5.928207,0.716558 12.9035069,-0.276534 z m -9.4639239,-4.143 c -0.654843,-0.143105 -3.571875,-0.897498 -6.482291,-1.676429 -29.017929,-7.766238 -49.256524,-20.021304 -58.638882,-35.507573 -2.692109,-4.443523 -4.407953,-8.982657 -5.242465,-13.86855 l -0.512823,-3.002463 0.901401,-6.35 c 1.091938,-7.6922445 1.471173,-9.8377349 2.368187,-13.3977856 1.192578,-4.7330678 5.082247,-15.4542964 5.763906,-15.8872454 0.180038,-0.11435 28.611695,-0.209732 63.18146,-0.21196 50.393386,-0.0033 62.945206,0.06256 63.31358,0.331917 0.295934,0.216392 0.692645,1.369962 1.114626,3.2411461 0.360339,1.5978478 0.826987,3.6195529 1.036995,4.4926779 3.083041,12.8179354 3.726532,15.949485 4.884957,23.77267 0.681151,4.600014 0.680685,6.308878 -0.0027,9.849998 -4.397843,22.789102 -25.238736,38.56492 -61.8782095,46.839611 -3.9082716,0.882647 -8.1975405,1.7229 -8.4848435,1.662149 -0.07276,-0.01537 -0.668073,-0.145058 -1.322917,-0.288163 z M -25.235193,14.229089 c 3.047791,-1.374495 5.130652,-3.991023 5.88845,-7.3971841 0.589674,-2.6504741 0.399439,-6.45062367 -0.430236,-8.594389 -0.835443,-2.1586692 -2.955388,-4.4138188 -5.064697,-5.3877104 -1.558766,-0.719701 -1.885145,-0.7709323 -4.846322,-0.7607167 -2.907996,0.010028 -3.301037,0.071937 -4.673746,0.7361237 -2.051246,0.9924971 -3.564078,2.5851882 -4.693687,4.9414642 l -0.951317,1.98437497 0.0035,3.70416663 c 0.003,3.2404527 0.07934,3.8930183 0.609536,5.212723 1.063429,2.6469547 3.638542,5.0044927 6.474143,5.9271407 1.73651,0.565025 6.078545,0.358222 7.684415,-0.365993 z m -5.299988,-3.675073 c -0.802404,-0.166392 -2.106605,-1.7184718 -2.457328,-2.9243791 -0.488731,-1.6804084 -0.619038,-4.6477026 -0.287668,-6.5505648 0.564546,-3.2418734 1.687419,-4.6774787 3.699809,-4.7302472 2.13769,-0.056052 3.260214,1.3473482 3.758747,4.6992513 0.530625,3.5676628 -0.405908,8.1786598 -1.842148,9.0697708 -0.61068,0.378897 -2.074974,0.601324 -2.871412,0.436169 z m 46.535557,3.413606 c 3.172307,-1.561721 5.228339,-4.618339 5.780865,-8.5941745 0.77302,-5.5624386 -1.53989,-10.6028966 -5.776624,-12.5888274 -1.371385,-0.6428237 -1.793798,-0.7064851 -4.687763,-0.7064851 -3.0609353,0 -3.2470009,0.032708 -4.9470097,0.8696193 -3.9835084,1.9610758 -6.02798884,6.1390318 -5.69646857,11.6409099 0.29745781,4.9365879 2.71790317,8.4112128 6.89574017,9.8990518 1.0641251,0.378963 1.9692911,0.471385 4.0332051,0.411803 2.380226,-0.06871 2.844509,-0.16709 4.398055,-0.931897 z M 9.86721,10.277113 C 8.2786914,9.4676338 7.6354549,7.7636484 7.5307989,4.0877656 7.4360358,0.75945019 7.7911675,-1.0686645 8.8106097,-2.5003382 c 1.0730389,-1.5069476 3.8502933,-1.5636081 4.9999873,-0.1020074 1.612508,2.04997045 1.809909,8.9060311 0.335732,11.6605526 -0.726215,1.356945 -2.831435,1.956618 -4.279119,1.218906 z M -64.476656,6.9609475 c 0.0021,-4.2564844 0.107521,-7.90240302 0.233984,-8.1020391 0.126463,-0.1996387 0.382725,-0.3120469 0.569474,-0.2497984 0.195572,0.065191 1.193604,3.3042199 2.353783,7.6390209 1.107835,4.1392101 2.098181,7.7394491 2.200773,8.0005261 0.159504,0.405906 0.461213,0.463415 2.082151,0.396875 l 1.895621,-0.07781 2.068766,-7.9374997 c 1.137823,-4.365625 2.072453,-7.9672656 2.076958,-8.0036458 0.03348,-0.2703724 0.778095,0.019262 0.905923,0.3523694 0.08833,0.23018225 0.1606,3.8615885 0.1606,8.0697917 v 7.6512764 h 2.778125 2.778125 V 3.4486646 -7.8026808 l -4.277659,0.0727 -4.277657,0.072699 -1.397494,5.2916667 c -0.76862,2.91041667 -1.403517,5.503762 -1.410883,5.7629901 -0.01585,0.557747 -0.731515,0.9007608 -1.103413,0.5288624 -0.143388,-0.1433883 -0.794322,-2.2130253 -1.44652,-4.5991965 -0.652197,-2.3861686 -1.363641,-4.9635675 -1.580986,-5.7275518 l -0.395171,-1.3890625 h -4.22594 -4.225944 V 3.4552183 14.70001 h 2.116667 2.116666 l 0.004,-7.7390625 z M -6.2723733,6.3482413 c 0,-5.2511113 0.1016846,-8.5417687 0.2738913,-8.8635417 0.2355956,-0.4402137 0.5685579,-0.5117729 2.38125,-0.5117729 h 2.1073587 v -2.3852452 -2.3852479 l -7.7390625,0.070144 -7.7390622,0.070141 v 2.2489584 2.2489583 l 2.240534,0.07778 c 1.381948,0.047972 2.31825,0.2000567 2.443342,0.396875 0.111548,0.1755034 0.204637,4.158861 0.206865,8.8519079 l 0.0041,8.5328128 h 2.910417 2.9104167 z M 32.14015,10.456533 c 0.06796,-3.4187346 0.161486,-4.2921427 0.481227,-4.4938664 0.57422,-0.3622727 2.269709,-0.3149864 2.590114,0.072239 0.150511,0.1819011 0.943031,2.1147458 1.761152,4.2952144 0.818121,2.180466 1.582417,4.059407 1.698434,4.175424 0.11602,0.11602 1.711833,0.177469 3.546256,0.136559 l 3.335313,-0.07439 -1.835427,-4.482729 C 42.707735,7.6194901 41.881793,5.389812 41.881793,5.1301525 c 0,-0.259662 0.327422,-0.6754309 0.727604,-0.9239329 2.226115,-1.38235 3.032771,-2.8455832 3.050088,-5.5326915 0.01037,-1.6080687 -0.09966,-2.0955847 -0.70671,-3.1314337 -0.395441,-0.6747669 -1.158886,-1.5166075 -1.696545,-1.870755 -1.866601,-1.2295055 -3.559966,-1.4609127 -10.690442,-1.4609127 H 26.006793 V 3.4552183 14.70001 h 3.024503 3.024502 z m 0.481227,-8.9800911 c -0.301691,-0.1907116 -0.396875,-0.78727828 -0.396875,-2.4874405 0,-1.2301088 0.09951,-2.3357787 0.221136,-2.4570478 0.121623,-0.1212665 1.258115,-0.2204853 2.525532,-0.2204853 2.567628,0 3.550177,0.4038283 4.02571,1.6545772 0.814819,2.14313823 -1.024163,3.7728816 -4.248753,3.7653304 -0.951431,-0.00212 -1.908469,-0.1169485 -2.12675,-0.254934 z M -69.19029,-14.457073 c -0.232918,-0.232918 -0.3175,-2.444851 -0.3175,-8.30308 v -7.985583 l -2.248958,-0.187336 -2.248959,-0.187338 v -2.858357 c 0,-2.362372 0.07262,-2.886226 0.418516,-3.018957 0.230182,-0.08833 3.734022,-0.160599 7.786309,-0.160599 6.516306,0 7.418628,0.05083 7.807645,0.439848 0.3615,0.361503 0.423778,0.87607 0.349626,2.88883 -0.04962,1.346938 -0.188987,2.547538 -0.3097,2.667997 -0.120714,0.120462 -1.162511,0.261845 -2.315105,0.314187 l -2.095624,0.09517 v 8.145762 c 0,7.183792 -0.04942,8.164724 -0.418515,8.306358 -0.79637,0.305597 -6.074479,0.176356 -6.407735,-0.1569 z m 10.067396,0.142271 c -0.181901,-0.0734 -0.330729,-0.375237 -0.330729,-0.67075 0,-0.295513 1.202991,-4.423013 2.673318,-9.172223 1.470324,-4.749208 2.918322,-9.468361 3.217775,-10.487007 0.299453,-1.018646 0.726559,-2.000911 0.949127,-2.182812 0.461015,-0.37678 6.819058,-0.469429 7.389143,-0.107675 0.186303,0.118221 0.741034,1.515383 1.232733,3.104801 1.429978,4.622408 4.650711,14.919013 5.200457,16.625739 0.613767,1.905476 0.636974,2.692974 0.0856,2.904556 -0.632997,0.242904 -6.277938,0.184468 -6.677901,-0.06913 -0.192246,-0.121894 -0.618466,-1.102336 -0.947155,-2.178762 l -0.597617,-1.957133 h -2.604434 -2.604434 l -0.61405,2.019257 c -0.487037,1.601584 -0.737511,2.052341 -1.210911,2.179201 -0.708118,0.189757 -4.686075,0.183542 -5.16092,-0.0081 z m 10.516362,-10.871126 c -0.130837,-0.400182 -0.370594,-1.245637 -0.532794,-1.87879 -0.1622,-0.633153 -0.349433,-1.096663 -0.416073,-1.030023 -0.06664,0.06664 -0.340485,0.912096 -0.608542,1.878791 l -0.487376,1.757627 h 1.141333 c 1.126371,0 1.138214,-0.0095 0.903452,-0.727605 z m 12.058266,10.63058 c -0.364241,-0.364238 -0.415774,-1.739262 -0.415774,-11.0936 0,-9.354339 0.05153,-10.729362 0.415774,-11.093601 0.563915,-0.563917 5.81791,-0.601565 6.602958,-0.04732 0.287041,0.202653 1.772049,2.350604 3.300018,4.773221 l 2.778125,4.40476 0.132292,-4.518877 c 0.106153,-3.626056 0.210703,-4.568328 0.529166,-4.769168 0.438251,-0.276386 4.284443,-0.343831 5.225521,-0.09163 l 0.595313,0.159536 v 11.185625 c 0,9.955753 -0.04602,11.203284 -0.418516,11.346225 -0.230182,0.08833 -1.485751,0.1606 -2.79015,0.1606 -2.10906,0 -2.436667,-0.06591 -2.958981,-0.595313 -0.32304,-0.327422 -2.014267,-2.916264 -3.758287,-5.752983 l -3.170941,-5.157674 -0.06911,5.422257 c -0.06014,4.719013 -0.126757,5.465149 -0.513591,5.752983 -0.685543,0.510101 -4.954881,0.443892 -5.483815,-0.08505 z m 22.489584,0 c -0.364242,-0.364238 -0.415775,-1.739262 -0.415775,-11.0936 0,-9.354339 0.05153,-10.729362 0.415775,-11.093601 0.326641,-0.326642 1.021466,-0.414906 3.241145,-0.411724 1.5539538,0.0021 3.0039658,0.116621 3.222247,0.254207 0.3097001,0.195207 0.4259342,1.0444 0.5291667,3.866115 l 0.1322916,3.615963 2.3661794,-3.53944 c 1.3014007,-1.94669 2.5445455,-3.688265 2.7625489,-3.870166 0.2573708,-0.214749 1.29887932,-0.330729 2.9699929,-0.330729 2.87283,0 3.4106538,0.120525 3.4106538,0.764325 0,0.243721 -1.1474555,2.091989 -2.5499033,4.107265 l -2.54990338,3.664135 3.40077688,6.872563 c 4.0533638,8.191357 4.1171575,7.610462 -0.8357711,7.610462 -2.69528132,0 -3.3148588,-0.07634 -3.7577951,-0.463021 -0.291711,-0.254662 -1.2175304,-1.981068 -2.0573762,-3.836459 -0.8398457,-1.85539 -1.6102012,-3.373437 -1.7119017,-3.373437 -0.1017006,0 -0.4987582,0.452885 -0.8823511,1.006409 -0.6290495,0.907719 -0.6974416,1.243158 -0.6974416,3.420684 0,3.228692 -0.01955,3.245824 -3.7041667,3.245824 -2.258695,0 -2.961476,-0.08886 -3.288392,-0.415775 z m 21.6107878,0.240546 c -0.2571935,-0.10378 -0.3307291,-2.597245 -0.3307291,-11.214594 0,-10.684812 0.018309,-11.090939 0.5117729,-11.355036 0.5497566,-0.294219 15.5243664,-0.398507 16.2676284,-0.113292 0.619681,0.237794 0.619681,5.526424 0,5.764218 -0.230182,0.08833 -2.432838,0.160599 -4.894792,0.160599 H 14.62971 v 1.058334 1.058333 h 3.521305 c 2.423581,0 3.664141,0.104444 3.979498,0.335039 0.389146,0.284552 0.446603,0.71315 0.381299,2.844271 l -0.07689,2.509232 -3.836458,0.132291 -3.836458,0.132292 -0.08064,1.256771 -0.08064,1.256771 h 4.490773 c 2.469925,0 4.679106,0.07227 4.909288,0.160599 0.345837,0.13271 0.418515,0.656183 0.418515,3.014401 0,2.358218 -0.07268,2.881691 -0.418515,3.0144 -0.49925,0.19158 -15.9717342,0.177819 -16.4486722,-0.01463 z M 26.734397,-14.42535 c -0.429151,-0.249957 -0.46302,-1.069509 -0.46302,-11.20435 0,-9.302964 0.0581,-10.982881 0.389347,-11.257793 0.292174,-0.242483 2.091611,-0.295873 7.209896,-0.213921 7.758091,0.124222 8.890572,0.362939 10.704785,2.256494 1.480862,1.545619 1.905304,2.588193 1.912628,4.698055 0.0093,2.673363 -1.111287,4.742852 -3.20149,5.912588 -0.363003,0.203147 -0.183192,0.806971 1.336876,4.489405 1.844979,4.469535 2.020234,5.182817 1.337776,5.444699 -0.660234,0.253355 -6.815527,0.179076 -7.236513,-0.08733 -0.208442,-0.131906 -1.0609,-2.005317 -1.894348,-4.163137 -1.372815,-3.554251 -1.57983,-3.931187 -2.200701,-4.00703 l -0.68534,-0.08372 v 3.977013 c 0,3.661169 -0.04064,3.998767 -0.511773,4.250909 -0.658212,0.352264 -6.089462,0.342628 -6.698123,-0.01188 z m 11.525655,-14.573803 c 0.507408,-0.619395 0.417288,-1.764913 -0.167269,-2.126191 -0.403532,-0.249394 -2.881715,-0.555326 -3.518263,-0.434327 -0.391774,0.07447 -0.515411,0.369027 -0.579906,1.381567 -0.129828,2.038246 -0.04862,2.116262 2.006357,1.92751 1.392539,-0.127902 1.884066,-0.290774 2.259081,-0.748559 z"
               id="path4695"
               inkscape:connector-curvature="0" />
            <path
               style="fill:#acacac;stroke-width:0.26458332"
               d="M -12.754665,86.488255 C -37.823049,82.930749 -58.236707,75.396504 -72.418207,64.467717 -75.248537,62.286561 -80.44802,57.247275 -82.522954,54.6743 -89.695101,45.780643 -93.528525,35.823192 -94.245334,24.22501 l -0.171699,-2.778125 4.125664,-16.4887222 4.125664,-16.4887198 -0.950476,-6.133155 c -0.522761,-3.373234 -1.717173,-11.074247 -2.654247,-17.113361 -0.937075,-6.039115 -2.057718,-13.301927 -2.49032,-16.139584 -0.432601,-2.837656 -1.086096,-7.056472 -1.45221,-9.375145 -0.366117,-2.318673 -0.665665,-4.607682 -0.665665,-5.086681 v -0.87091 l 11.840104,0.0048 c 26.267521,0.01056 41.136104,-2.490229 64.799662,-10.898827 3.225046,-1.14599 6.089698,-2.083615 6.365888,-2.083615 0.276191,0 1.983296,0.606099 3.7935672,1.346885 18.5677148,7.598159 43.4790008,11.617698 72.0012058,11.617698 h 6.828739 l -2.64e-4,0.859896 c -1.75e-4,0.472943 -0.655098,5.086614 -1.455386,10.252604 -0.800288,5.16599 -2.289072,14.810052 -3.308408,21.43125 -1.019339,6.621198 -2.215383,14.315122 -2.65788,17.09761 l -0.80454,5.059067 4.152638,18.2242668 4.152636,18.2242642 -0.300792,3.96875 c -0.740322,9.768052 -3.452622,17.373558 -9.034682,25.333966 -2.13338,3.042351 -8.502536,9.47883 -11.909938,12.035829 -12.864666,9.653964 -30.922246,16.242308 -53.0489584,19.355025 -6.0348019,0.848958 -8.5577836,1.083024 -9.7895836,0.908217 z m 6.0854167,-4.594077 C 27.438311,77.558366 51.102737,65.607103 61.309261,47.562935 64.290824,42.29181 65.725726,37.824681 66.63312,30.988707 67.222934,26.545263 67.137434,25.318583 65.844963,19.680947 65.200229,16.868673 63.348132,8.7298908 61.729192,1.5947689 l -2.943524,-12.9729499 2.021443,-13.088508 c 1.111792,-7.198681 2.243781,-14.517259 2.515529,-16.263509 2.671985,-17.170226 3.165403,-20.410774 3.165403,-20.788916 0,-0.390483 -0.803227,-0.454536 -7.739062,-0.617157 C 31.406468,-62.777359 9.6768661,-66.50918 -8.1425092,-73.624156 l -3.3253418,-1.327753 -2.230908,0.802865 c -15.757189,5.670724 -27.153558,8.680574 -39.39898,10.405509 -8.615881,1.213665 -12.822783,1.49011 -24.942864,1.639051 -9.542354,0.117266 -11.57552,0.205772 -11.57552,0.503894 0,0.198903 0.843634,5.809549 1.874745,12.468101 1.031107,6.658552 2.211072,14.309114 2.622139,17.001249 0.994003,6.509872 2.045838,13.342713 2.504861,16.271875 0.20524,1.309687 0.446606,2.863165 0.536374,3.45217 0.13044,0.85589 -0.663096,4.3748453 -3.952036,17.5253963 -2.449021,9.7921977 -4.11525,16.9678457 -4.11525,17.7223977 0,2.163829 0.781987,7.735096 1.49265,10.634387 0.872479,3.559448 1.910889,6.365738 3.577349,9.667732 2.6465,5.243894 5.554043,9.139696 10.192919,13.65744 12.31088,11.989411 33.10885,20.849561 58.291249,24.832678 1.964531,0.310732 3.750468,0.604152 3.96875,0.652044 0.875114,0.192011 1.89661,0.124968 5.9531247,-0.390702 z M -13.15154,76.842049 c -0.509323,-0.138546 -3.188229,-0.849572 -5.953125,-1.580057 -16.156482,-4.268533 -30.958044,-10.60913 -41.024686,-17.57389 -7.080326,-4.898633 -13.314436,-11.042779 -17.040243,-16.794342 -2.776564,-4.286208 -5.129631,-10.308759 -5.947384,-15.222022 l -0.44178,-2.654313 0.930717,-6.526678 c 1.126085,-7.8967171 1.9549,-12.087815 3.212669,-16.24559654 0.972902,-3.21611356 3.484922,-10.08114356 4.295439,-11.73889046 l 0.452768,-0.926042 63.174695,-0.06669 63.174695,-0.06669 0.251412,0.595857 c 0.224819,0.532831 1.169921,4.4933607 4.119851,17.2646077 1.322453,5.7253423 2.751524,14.3531823 2.936221,17.7270833 0.129479,2.365192 0.05271,3.465407 -0.409813,5.872967 -2.87455,14.962955 -13.027041,26.946619 -30.324144,35.793619 -9.312416,4.763048 -22.2168247,9.020104 -35.2598173,11.631914 -4.3199337,0.865053 -4.7179737,0.89802 -6.1474747,0.509163 z M -26.362583,14.80895 c 4.74081,-1.386287 7.654793,-5.7587229 7.654793,-11.4860233 0,-6.6716434 -3.862954,-11.1979472 -9.877057,-11.5731528 -3.681209,-0.2296637 -6.422729,0.6626304 -8.539475,2.7793764 -2.221275,2.2212777 -3.271099,5.08340522 -3.276161,8.9317936 -0.0069,5.2297939 1.932139,8.7180181 6.007532,10.8073321 1.950336,0.999868 5.616,1.246674 8.030368,0.540674 z m -4.508098,-4.666494 c -1.495607,-0.7894291 -2.389192,-3.1829425 -2.389192,-6.3995641 0,-4.7963588 1.531014,-7.5117669 4.060901,-7.202424 2.279291,0.2786988 3.225094,2.2869313 3.194294,6.7824588 -0.02381,3.4740294 -0.362276,4.9718357 -1.381205,6.1121157 -0.833421,0.9326776 -2.440111,1.2588376 -3.484798,0.7074136 z m 46.620282,4.227097 c 4.024704,-1.842571 6.313025,-5.793655 6.321177,-10.9143347 0.006,-3.74680159 -0.659115,-5.8794121 -2.567872,-8.2340344 C 17.169221,-7.6576203 12.818616,-8.938791 8.4911703,-8.0215574 3.6154392,-6.9881134 0.36015669,-2.3800269 0.34612054,3.5083414 0.33286492,9.0667821 3.0442858,13.183315 7.7505433,14.749905 9.9170125,15.471067 13.740713,15.28925 15.749601,14.369553 Z M 9.7137411,9.9677572 C 9.2655343,9.6944399 8.6980348,9.0477004 8.4526337,8.530559 7.4431742,6.4032799 7.3833255,1.0661023 8.3438,-1.17499 c 1.2695423,-2.9622432 4.413282,-3.1455519 5.795793,-0.337947 0.563661,1.14468275 0.622409,1.61361702 0.622409,4.9681553 0,3.3280615 -0.06163,3.8292776 -0.607007,4.9363392 C 13.206514,10.316893 11.360598,10.97201 9.7137411,9.9677572 Z M -64.216123,6.9825798 c 0.07276,-4.3173464 0.218257,-7.93549972 0.323326,-8.0403409 0.28109,-0.2804768 0.50098,0.4181052 2.593006,8.2379 1.048086,3.9176481 2.025878,7.2718241 2.17287,7.4537251 0.167111,0.206798 0.951256,0.330729 2.092616,0.330729 1.641499,0 1.850882,-0.05996 2.078749,-0.595312 0.139364,-0.327422 1.032264,-3.631406 1.984224,-7.3421877 1.885972,-7.3515987 2.144424,-8.1478675 2.522056,-7.77023568 0.13919,0.13918936 0.278572,3.60624968 0.318064,7.91160528 l 0.0703,7.6638391 h 2.910417 2.910416 l 0.06896,-11.4432295 0.06896,-11.4432292 h -4.500729 c -2.475399,0 -4.500726,0.043976 -4.500726,0.097724 0,0.4993296 -3.016351,11.4755639 -3.208108,11.6740226 -0.396121,0.4099665 -0.549777,-0.00238 -2.043557,-5.4837066 -0.764032,-2.8035779 -1.499756,-5.3653055 -1.634945,-5.6927274 -0.240887,-0.5834221 -0.333113,-0.5953125 -4.617093,-0.5953125 h -4.371297 V 3.2788286 c 0,6.2331441 0.0838,11.4167844 0.186219,11.5192044 0.102417,0.10242 1.144214,0.152029 2.315104,0.110244 l 2.128885,-0.07597 z M -6.0703296,6.1745767 C -5.989674,-3.8364681 -6.2129559,-3.1390397 -3.138315,-2.983724 l 1.7607333,0.088942 0.075726,-2.5796875 0.075726,-2.5796875 H -9.18279 -17.139451 l 0.07573,2.5796875 0.07573,2.5796875 2.248958,0.1322917 2.248958,0.1322917 0.06682,8.4666666 c 0.03675,4.656667 0.123815,8.619416 0.193477,8.806109 0.09511,0.254905 0.869193,0.320797 3.1081819,0.264583 L -6.1400727,14.8323 Z M 32.297797,10.749757 c 0.04585,-2.5542028 0.185864,-4.2181833 0.373996,-4.4448703 0.188151,-0.2267083 0.703577,-0.3326633 1.377066,-0.2830804 l 1.076362,0.079245 1.592348,4.1101697 c 0.875792,2.260593 1.688674,4.254889 1.806403,4.431771 0.240395,0.361183 6.937041,0.473239 7.155518,0.119735 0.06862,-0.111025 -0.698262,-2.197129 -1.704176,-4.635789 -1.005916,-2.4386593 -1.828937,-4.66648 -1.828937,-4.950714 0,-0.2952512 0.311914,-0.6797145 0.727604,-0.8968396 1.941623,-1.0141664 2.976562,-2.9706252 2.976562,-5.6269255 0,-2.1415507 -0.659273,-3.6933161 -2.059461,-4.8474709 -1.881978,-1.5512865 -2.647175,-1.6796755 -10.706685,-1.7964071 L 25.74221,-8.0977626 V 3.2570269 c 0,6.2451324 0.08295,11.4377391 0.184335,11.5391251 0.101386,0.101383 1.559902,0.150992 3.241146,0.110241 l 3.056811,-0.07409 z m 0.376496,-9.5964137 c -0.187319,-0.18731968 -0.3175,-1.08773115 -0.3175,-2.1960416 0,-1.1083105 0.130181,-2.008722 0.3175,-2.1960417 0.445538,-0.4455372 3.732856,-0.4010528 4.849781,0.065627 1.848866,0.7725067 1.923526,3.28175413 0.124386,4.1805252 -1.095698,0.5473621 -4.473636,0.6464617 -4.974167,0.1459311 z M -69.115185,-14.726446 c -0.06954,-0.186541 -0.156554,-3.911044 -0.193371,-8.276669 l -0.06694,-7.9375 -1.984375,-0.07448 c -1.476513,-0.05541 -2.069018,-0.186859 -2.315105,-0.51359 -0.435871,-0.578713 -0.446447,-4.614339 -0.01323,-5.047557 0.45298,-0.45298 15.051604,-0.45298 15.504584,0 0.428807,0.428808 0.428807,4.757026 0,5.185833 -0.188955,0.188955 -1.099492,0.3175 -2.248959,0.3175 -1.062302,0 -1.9569,0.02977 -1.987994,0.06615 -0.03109,0.03638 -0.120391,3.757083 -0.198438,8.268229 l -0.141901,8.202084 -3.113918,0.07459 c -2.345246,0.05617 -3.145129,-0.0091 -3.240352,-0.264584 z m 10.102535,0.1459 c -0.346848,-0.346848 -0.151644,-1.164889 1.702617,-7.135141 1.033455,-3.327461 2.481644,-8.014459 3.218194,-10.415553 0.736552,-2.401094 1.468577,-4.453099 1.626721,-4.560012 0.519417,-0.351147 6.941122,-0.237394 7.239601,0.128241 0.148492,0.181901 0.449019,0.926042 0.667837,1.653646 0.218819,0.727604 1.664944,5.36457 3.213614,10.30437 1.548669,4.9398 2.780768,9.22605 2.737998,9.525 -0.07369,0.515101 -0.250314,0.543547 -3.374911,0.543547 -3.774739,0 -3.580609,0.125671 -4.393692,-2.844271 l -0.416502,-1.521354 h -2.59466 c -1.768028,0 -2.673104,0.105367 -2.840876,0.330729 -0.135417,0.181901 -0.461013,1.045104 -0.723546,1.918229 -0.262533,0.873125 -0.597612,1.736328 -0.744622,1.918229 -0.283824,0.351187 -4.984499,0.487617 -5.317773,0.15434 z m 10.671527,-10.114489 c 0,-0.695611 -1.064528,-4.078624 -1.231022,-3.912127 -0.265192,0.265192 -1.360125,4.115329 -1.212371,4.263086 0.08269,0.08269 0.666274,0.150336 1.296866,0.150336 0.948891,0 1.146527,-0.08641 1.146527,-0.501295 z m 11.968003,9.982215 c -0.464182,-0.464182 -0.472643,-21.399613 -0.0088,-21.86342 0.20896,-0.20896 1.325563,-0.3175 3.266284,-0.3175 2.483639,0 3.010207,0.07304 3.338174,0.463021 0.214164,0.254661 1.622459,2.427552 3.129542,4.828646 1.507083,2.401093 2.868359,4.510442 3.025055,4.687443 0.204449,0.230936 0.26012,-1.024247 0.197141,-4.444762 -0.06335,-3.440772 7.94e-4,-4.873355 0.230836,-5.150464 0.236802,-0.285327 0.953199,-0.383884 2.790431,-0.383884 2.173041,0 2.504943,0.06186 2.745729,0.511773 0.427617,0.79901 0.370697,20.950528 -0.06084,21.540697 -0.285739,0.390772 -0.720995,0.44658 -2.973713,0.381297 l -2.638975,-0.07648 -3.177852,-5.094984 c -1.747819,-2.802239 -3.415977,-5.481145 -3.707019,-5.953125 l -0.529167,-0.858141 -0.132291,5.953125 -0.132292,5.953125 -2.517934,0.07498 c -1.732409,0.05159 -2.619743,-0.02683 -2.844271,-0.251355 z m 22.480747,-0.0088 c -0.456142,-0.456141 -0.456142,-21.398441 0,-21.854583 0.461676,-0.461677 5.8704556,-0.434679 6.2571283,0.03123 0.1713627,0.206481 0.319487,1.895264 0.3631247,4.140063 l 0.073705,3.791331 2.5715225,-3.836305 c 1.4143355,-2.109967 2.7414061,-3.977299 2.9490431,-4.149622 0.2514944,-0.208722 1.2920663,-0.288044 3.1170219,-0.237612 2.5435428,0.07029 2.7384587,0.113557 2.7249993,0.604872 -0.00796,0.291042 -1.1283288,2.124599 -2.4896815,4.074573 l -2.4751824,3.545409 3.3909,6.797886 c 1.8695696,3.748006 3.3060031,6.935259 3.20167,7.104074 -0.2724573,0.440846 -6.79015025,0.419121 -7.3632219,-0.02455 -0.2349579,-0.181901 -1.0205217,-1.65626 -1.7457023,-3.276354 -0.7251779,-1.620091 -1.4902974,-3.273499 -1.7002654,-3.674239 l -0.381762,-0.728615 -0.9658165,1.264891 c -0.9489466,1.242808 -0.9658165,1.307213 -0.9658165,3.687476 0,1.531451 -0.1167897,2.539368 -0.3175,2.740078 -0.4354089,0.435409 -5.8087573,0.435409 -6.2441663,0 z m 21.4992979,-0.01349 c -0.069855,-0.182042 -0.095885,-5.212432 -0.057843,-11.178646 l 0.06917,-10.847652 8.0697911,-0.07035 c 9.358003,-0.08158 8.73125,-0.276556 8.73125,2.716183 0,2.837675 0.146987,2.758768 -5.291666,2.84068 l -4.630209,0.06974 v 1.190625 1.190625 l 3.836459,0.132291 3.836458,0.132292 v 2.513542 2.513541 l -3.554426,0.07417 c -2.148395,0.04482 -3.697197,0.192651 -3.915346,0.3737 -0.233678,0.193934 -0.333108,0.727464 -0.282033,1.513334 l 0.07889,1.2138 4.630209,0.06974 c 5.453917,0.08214 5.291666,-0.007 5.291666,2.908644 0,3.226329 0.728732,2.974744 -8.616571,2.974744 -6.21429,0 -8.0979778,-0.07607 -8.1957969,-0.330985 z m 19.2567901,0.111043 c -0.26162,-0.166079 -0.318775,-2.579987 -0.264583,-11.174595 l 0.06912,-10.962746 7.14375,0.0021 c 6.954872,0.0021 7.180738,0.01876 8.542782,0.632183 0.806317,0.363145 1.833014,1.123121 2.423403,1.793837 2.456228,2.790423 1.946264,7.467664 -1.028872,9.436516 -0.590574,0.390824 -1.073772,0.77466 -1.073772,0.852972 0,0.07831 0.783006,2.039246 1.740009,4.357629 0.957006,2.318385 1.699707,4.425513 1.650449,4.682508 -0.07866,0.410417 -0.475432,0.476584 -3.261362,0.543886 -1.744493,0.04214 -3.423439,0.01418 -3.730993,-0.06212 -0.438285,-0.108746 -0.832223,-0.868987 -1.822016,-3.516207 -1.751716,-4.684993 -1.864209,-4.882274 -2.727153,-4.782642 l -0.712475,0.08224 -0.07354,3.957701 c -0.05127,2.759639 -0.171413,4.019892 -0.396875,4.163137 -0.427082,0.271349 -6.049097,0.26579 -6.477876,-0.0064 z m 11.359224,-13.976274 c 0.678077,-0.61365 0.660207,-2.359533 -0.02792,-2.727809 -0.281474,-0.150632 -1.412568,-0.273883 -2.513541,-0.273883 H 33.67971 v 1.719791 1.719792 h 2.029688 c 1.517348,0 2.151821,-0.110532 2.513541,-0.437883 z"
               id="path4693"
               inkscape:connector-curvature="0" />
            <path
               style="fill:#fefefe;fill-opacity:1;stroke:none;stroke-width:0.26458332px;stroke-linecap:butt;stroke-linejoin:miter;stroke-opacity:1"
               d="m -93.786856,-65.125855 11.27197,54.377063 -8.110961,32.46026 c 1.444819,41.667231 38.849611,54.314133 78.651771,65.026317 C 18.183549,74.433284 54.655107,82.505566 70.935555,25.415632 L 59.396557,-10.798193 70.898802,-65.145768 c -27.429522,3.18768 -54.859045,-1.18647 -82.288567,-9.627907 -27.465697,11.162244 -54.931394,11.355907 -82.397091,9.64782 z"
               id="path5618"
               inkscape:connector-curvature="0"
               sodipodi:nodetypes="ccccccccc" />
            <path
               style="fill:#909090;stroke-width:0.26458332"
               d="m -14.342165,86.143542 c -0.582083,-0.126756 -2.665677,-0.489299 -4.630208,-0.805653 -7.849013,-1.263941 -17.358403,-3.653502 -25.16251,-6.322941 -22.816683,-7.804574 -38.549006,-20.295489 -45.595016,-36.200847 -2.460824,-5.554957 -3.715621,-10.723716 -4.183724,-17.233615 l -0.311574,-4.333062 4.070509,-16.2960213 4.070509,-16.2960207 -0.298818,-2.257372 c -0.164351,-1.241558 -0.605798,-4.221906 -0.980993,-6.623 -0.375198,-2.401094 -1.094864,-7.044531 -1.599263,-10.31875 -0.504399,-3.274219 -1.035241,-6.6675 -1.179648,-7.540625 -0.144404,-0.873125 -0.571841,-3.611562 -0.949857,-6.085417 -0.378015,-2.473854 -0.86406,-5.62901 -1.080098,-7.011458 -0.21604,-1.382448 -0.552672,-3.585104 -0.748072,-4.894792 -0.195397,-1.309687 -0.566346,-3.690937 -0.824328,-5.291666 -0.257982,-1.60073 -0.47626,-3.311856 -0.485066,-3.802502 l -0.01601,-0.892082 13.361459,-0.06409 c 11.316226,-0.05428 14.202423,-0.14903 18.855462,-0.618993 5.438942,-0.549341 9.81529,-1.11352 12.629954,-1.628193 10.872317,-1.988053 19.646064,-4.386546 31.493945,-8.609552 3.124006,-1.113507 5.877808,-2.085049 6.119555,-2.158979 0.241748,-0.07393 2.3848725,0.639871 4.7625004,1.58623 9.4760653,3.771725 17.5975166,5.976101 30.9135836,8.390763 9.397185,1.704033 21.352346,2.661295 35.851041,2.870631 l 11.377084,0.164267 -0.01601,0.926041 c -0.0088,0.509323 -0.225491,2.23573 -0.481528,3.836459 -0.256035,1.600729 -0.634384,4.04151 -0.840774,5.423958 -0.206394,1.382448 -0.555295,3.644635 -0.775338,5.027083 -0.220043,1.382448 -0.756155,4.835261 -1.191358,7.672917 -0.435203,2.837656 -1.570604,10.16 -2.523117,16.271875 -2.68346,17.2186362 -2.580471,14.482665 -0.836602,22.225 0.81942,3.6380208 1.91312,8.4600521 2.430441,10.715625 0.517319,2.2555729 1.111766,4.874948 1.320988,5.820833 0.209222,0.945886 0.9202,4.101042 1.579946,7.011459 1.296258,5.718315 1.391624,6.938758 0.930376,11.90625 C 68.166332,58.158648 43.352043,77.687115 2.1409242,84.674277 -6.3254249,86.10971 -12.123991,86.626582 -14.342162,86.143542 Z m 10.5833333,-4.48683 C 11.78196,79.39114 25.437632,75.455191 35.827952,70.24668 53.581094,61.347303 63.80365,48.970793 66.486321,33.128406 67.437778,27.509614 67.285228,25.393463 65.29559,16.610934 64.348699,12.431229 63.456032,8.5352183 63.311884,7.953135 63.167737,7.3710517 62.274768,3.4419892 61.327509,-0.778115 c -0.947258,-4.2201042 -1.856647,-8.1812289 -2.020858,-8.8024996 -0.398526,-1.5077464 -0.270036,-2.7974824 1.205402,-12.0995834 0.974709,-6.145186 1.233948,-7.809421 1.607344,-10.31875 0.21654,-1.455209 0.573728,-3.776927 0.79375,-5.159375 0.220022,-1.382448 0.577209,-3.704167 0.79375,-5.159375 0.21654,-1.455209 0.563065,-3.717396 0.770056,-5.027084 0.206989,-1.309687 0.684761,-4.405312 1.061712,-6.879166 0.37695,-2.473855 0.813631,-5.199499 0.970397,-6.056988 0.209796,-1.147534 0.206052,-1.607883 -0.01418,-1.743998 -0.164571,-0.101708 -4.013666,-0.267012 -8.553548,-0.367339 -10.823551,-0.239189 -18.79324,-0.780757 -27.436622,-1.864419 -13.716132,-1.719651 -27.370823,-5.055391 -38.2279895,-9.33881 l -3.6998675,-1.459687 -1.194924,0.403397 c -0.657209,0.221866 -3.271264,1.134125 -5.809012,2.027245 -13.515332,4.756494 -25.39351,7.667397 -36.793207,9.016659 -1.236927,0.146402 -3.201458,0.384519 -4.365625,0.529145 -4.175802,0.518771 -17.316085,1.083218 -23.47599,1.00842 -4.126137,-0.0501 -6.373159,0.01887 -6.55548,0.201178 -0.187365,0.187365 -0.196123,0.700249 -0.02698,1.580055 0.137734,0.716452 0.446297,2.612329 0.685692,4.213058 0.557262,3.726207 1.386138,9.074539 1.722191,11.1125 0.315124,1.911028 1.505458,9.65403 1.993048,12.964584 0.341633,2.319544 0.767405,5.058481 1.583507,10.186458 0.889961,5.592061 1.220619,7.880228 1.357321,9.392708 0.128688,1.423837 -0.270912,3.2377727 -3.876053,17.594792 l -4.019532,16.007292 0.140457,3.439583 c 0.43524,10.658372 4.701738,20.855207 12.288295,29.36875 9.814512,11.013728 25.866558,19.57709 46.361649,24.732766 5.13297,1.291233 12.069937,2.688465 17.594792,3.543911 1.471406,0.227825 6.324806,-0.06693 10.0541663,-0.6106 z M -16.673874,75.826885 c -5.484432,-1.459399 -12.41651,-3.558556 -16.177393,-4.898802 -27.950178,-9.960454 -44.99138,-24.479711 -49.496046,-42.17107 -0.830879,-3.263151 -1.050266,-6.003248 -0.680611,-8.500753 0.161538,-1.091406 0.470402,-3.234531 0.686363,-4.7625 1.486006,-10.5137268 2.721994,-15.33019646 6.229506,-24.2755208 l 1.374617,-3.5057292 h 63.188791 c 34.753836,0 63.248387,0.09642 63.321221,0.214273 0.149628,0.242101 3.820833,15.7660444 4.805625,20.3209232 0.824756,3.8146668 1.999559,11.1808448 2.401708,15.0590328 0.367199,3.541152 -1.594425,11.239479 -4.245409,16.660979 C 51.07001,47.461914 43.990306,54.98088 35.385809,60.516892 25.527202,66.85978 12.404609,71.876439 -4.0013884,75.574296 -10.747703,77.09489 -11.8278,77.11642 -16.673874,75.826885 Z M -27.078262,15.099822 c 2.18744,-0.463447 3.591668,-1.255689 5.244502,-2.958862 2.282722,-2.3522411 3.210629,-4.9403609 3.208925,-8.950325 -0.0027,-6.3122334 -3.28013,-10.4937586 -9.068663,-11.5702503 -2.069534,-0.3848682 -5.03715,0.050012 -7.042758,1.0320628 -6.800432,3.3298448 -7.987782,14.9864895 -2.056945,20.1938305 1.717738,1.508197 4.481425,2.524086 7.105203,2.611769 0.436562,0.01458 1.610942,-0.146611 2.609736,-0.358225 z m -4.276812,-5.4345683 c -1.145715,-1.0673979 -1.464006,-2.1027548 -1.585905,-5.1587294 -0.152733,-3.82897059 0.239583,-5.7637415 1.405043,-6.929202 0.719045,-0.7190449 1.067562,-0.867963 2.019917,-0.8630946 1.323898,0.00677 2.05913,0.4957339 2.776019,1.846199 0.414927,0.78163205 0.49059,1.52430688 0.485206,4.7625 -0.0057,3.4279416 -0.06951,3.9659507 -0.599215,5.0525389 -0.331089,0.6791563 -0.888659,1.3508646 -1.262843,1.5213541 -1.064366,0.4849573 -2.585913,0.3761503 -3.238222,-0.231566 z m 45.133217,5.4288483 c 2.26082,-0.533022 3.596177,-1.261423 5.136645,-2.801888 4.511199,-4.5111984 4.529868,-13.28603056 0.03782,-17.7780735 -2.404531,-2.4045307 -6.026648,-3.4924232 -9.5384173,-2.8648342 -3.8767464,0.6928114 -6.10226,2.3356676 -7.796911,5.7556188 C 0.53114631,-0.40315544 0.49916348,-0.262749 0.39025304,2.7919767 0.2961725,5.430706 0.36596429,6.2166296 0.82999054,7.7443576 1.913835,11.312687 4.9371441,14.308347 8.0991107,14.947006 c 0.7541736,0.152329 1.6093493,0.323853 1.900391,0.381167 1.0850163,0.213662 2.1627493,0.146899 3.7786413,-0.234071 z M 9.3364532,9.4474567 C 8.1599702,8.2709737 7.6675726,6.158924 7.8235022,2.9579181 c 0.1550432,-3.18286873 0.4738343,-4.3417437 1.495089,-5.4350021 1.3358018,-1.4299803 3.7151498,-1.0342192 4.6499198,0.77343 0.701185,1.35593935 0.974206,4.376764 0.64521,7.13885 -0.44374,3.72541 -1.180142,4.766897 -3.370527,4.766897 -0.914069,0 -1.3080205,-0.155916 -1.9067408,-0.7546363 z M -64.112139,14.546078 c 0.08833,-0.230182 0.160599,-3.766338 0.160599,-7.8581249 0,-5.182534 0.08405,-7.35556222 0.277027,-7.16258308 0.152365,0.1523656 1.160245,3.58912058 2.239732,7.63723228 1.079489,4.0481147 2.067449,7.4649487 2.195468,7.5929677 0.128018,0.128019 1.163624,0.197654 2.301348,0.154747 l 2.068589,-0.07801 0.482105,-1.852084 c 2.833426,-10.8850559 3.401595,-12.93940525 3.646321,-13.1841316 0.201158,-0.20115742 0.284332,1.8584492 0.287211,7.1119444 0.0021,4.0673072 0.101079,7.5480202 0.219667,7.7349192 0.159798,0.251844 0.997818,0.320339 3.237095,0.264583 l 3.021479,-0.07523 V 3.4552183 -7.921865 h -4.603203 -4.603205 l -0.601913,2.2054291 c -0.331052,1.2129876 -0.986142,3.7133001 -1.455756,5.55624998 -0.818471,3.21201522 -1.12829,4.01123152 -1.435773,3.70375132 -0.07753,-0.077528 -0.679248,-2.0936533 -1.337159,-4.48027959 -0.65791,-2.38662371 -1.374507,-4.96718961 -1.592437,-5.73458711 l -0.396237,-1.3952723 -4.554868,0.072356 -4.554866,0.072353 -0.07356,10.8479167 c -0.04046,5.9663541 -0.0084,11.1158069 0.07119,11.4432289 0.136588,0.561763 0.277063,0.595312 2.492647,0.595312 1.896904,0 2.378753,-0.08039 2.508502,-0.418515 z m 58.1614143,0.352369 c 0.031388,-0.03638 0.1206844,-3.995208 0.1984375,-8.7973953 l 0.1413722,-8.73125 2.2489583,-0.1322917 2.2489584,-0.1322917 V -5.4083233 -7.921865 H -9.18279 -17.252582 v 2.5135417 2.5135416 l 2.248959,0.1322917 2.248958,0.1322917 0.06682,8.4666666 c 0.03675,4.6566667 0.122309,8.6154947 0.190132,8.7973957 0.08927,0.239424 1.002136,0.330729 3.3066224,0.330729 1.7508167,0 3.2089831,-0.02977 3.2403679,-0.06615 z m 38.5124167,-4.346022 0.0726,-4.2798731 0.777185,-0.1706985 c 0.42745,-0.093885 0.990092,-0.052388 1.250309,0.092212 0.283332,0.1574456 1.110155,1.9428169 2.061113,4.4505756 l 1.587984,4.187661 3.769828,0.07341 c 2.580317,0.05025 3.769828,-0.01723 3.769828,-0.213852 0,-0.157993 -0.833437,-2.322542 -1.852083,-4.8101098 -1.018646,-2.4875649 -1.852083,-4.6125844 -1.852083,-4.7222648 0,-0.109683 0.591333,-0.6242526 1.314074,-1.1434895 1.901367,-1.3659961 2.519336,-2.6783585 2.506639,-5.3232791 -0.0069,-1.4278372 -0.149223,-2.3749767 -0.437476,-2.9104166 -0.659378,-1.2248092 -2.070602,-2.5386692 -3.383237,-3.1498223 -1.122492,-0.5226235 -1.629696,-0.5543444 -8.863542,-0.5543444 h -7.672917 l -0.0691,11.112418 c -0.03801,6.1118326 -0.01061,11.2648605 0.06089,11.4511755 0.09836,0.256323 0.952145,0.320725 3.508687,0.264665 l 3.378692,-0.07409 z m 0.115131,-11.5289775 0.07684,-2.1828125 2.267215,-0.075748 c 1.974096,-0.065955 2.358924,-0.0036 2.976562,0.4822243 0.5754,0.4526069 0.709348,0.7755493 0.709348,1.71019 0,0.92962145 -0.134681,1.25815722 -0.69714,1.70058817 C 37.422908,1.1194237 36.939387,1.20626 34.956245,1.20626 H 32.599977 Z M -69.115185,-14.991029 c -0.06954,-0.186542 -0.156554,-3.911044 -0.193371,-8.276669 l -0.06694,-7.9375 -2.116667,-0.132292 -2.116667,-0.132292 -0.07573,-2.579687 -0.07573,-2.579688 h 7.824369 7.824369 l -0.07573,2.579688 -0.07573,2.579687 -2.116667,0.132292 -2.116667,0.132292 -0.132291,8.202083 -0.132292,8.202083 -3.113918,0.07459 c -2.345246,0.05617 -3.145129,-0.0091 -3.240352,-0.264583 z m 9.926145,0.04874 c 0,-0.252341 4.887828,-16.255029 6.118908,-20.033226 l 0.538818,-1.653646 h 3.563805 3.563803 l 0.357971,0.859896 c 0.483415,1.16123 6.494195,20.407604 6.494195,20.794253 0,0.216225 -1.008893,0.306268 -3.431622,0.306268 h -3.431622 l -0.623557,-2.050521 -0.623559,-2.050521 h -2.879363 -2.879362 l -0.542473,1.719792 c -0.298357,0.945885 -0.637654,1.86862 -0.753988,2.050521 -0.267671,0.418534 -5.471954,0.472919 -5.471954,0.05718 z m 10.934763,-9.81488 c -0.08636,-1.322059 -1.185865,-4.590264 -1.407853,-4.18474 -0.423936,0.774449 -1.348181,4.496324 -1.182949,4.763675 0.09386,0.15186 0.725405,0.24026 1.403445,0.196445 1.148204,-0.0742 1.229683,-0.127405 1.187357,-0.77538 z m 11.819404,-0.882528 v -10.989464 h 3.167078 c 3.711226,0 2.894483,-0.658884 6.723457,5.423959 1.374018,2.182812 2.682007,4.206875 2.906638,4.497916 0.372351,0.482428 0.409467,0.06681 0.420209,-4.705609 l 0.01178,-5.234779 2.711979,0.0754 2.71198,0.0754 v 10.847917 10.847916 h -2.778125 -2.778125 l -3.175,-5.088755 c -1.74625,-2.798813 -3.413125,-5.477719 -3.704167,-5.953125 l -0.529167,-0.86437 -0.132291,5.953125 -0.132292,5.953125 -2.711979,0.0754 -2.711979,0.0754 z m 22.489583,-0.0093 v -10.980208 h 3.175 3.175 l 0.00405,3.770313 c 0.00212,2.073671 0.1011899,3.923405 0.2199111,4.110521 0.1469999,0.231677 1.0864162,-0.971108 2.9447437,-3.770312 l 2.7288861,-4.110517 h 3.0043305 c 1.6523811,0 3.0043305,0.09994 3.0043305,0.222078 0,0.122143 -1.1310938,1.858378 -2.5135417,3.858305 -1.38244788,1.999925 -2.51354163,3.805942 -2.51354163,4.013372 0,0.207428 1.42875,3.23274 3.17500003,6.722912 1.74625,3.490172 3.175,6.525313 3.175,6.744758 0,0.335966 -0.5661819,0.398992 -3.5841808,0.398992 H -1.534483 l -0.4037145,-0.727604 c -0.2220436,-0.400182 -1.0223552,-2.087626 -1.7784683,-3.749876 -0.7561156,-1.66225 -1.5133664,-3.068476 -1.6827791,-3.124946 -0.1694153,-0.05647 -0.7327847,0.528055 -1.2519342,1.298948 -0.9133523,1.356249 -0.943909,1.480965 -0.943909,3.85255 v 2.450928 h -3.1749999 -3.175 v -10.980208 z m 21.5536145,10.652871 c -0.070705,-0.18425 -0.097393,-5.097303 -0.059312,-10.917893 l 0.069239,-10.582889 h 8.2020835 8.202083 v 2.38125 2.38125 l -4.7625,0.147807 c -2.619375,0.0813 -4.792265,0.170593 -4.828645,0.198437 -0.03638,0.02785 -0.06615,0.643676 -0.06615,1.368507 0,1.60228 -0.08663,1.570305 4.497916,1.660073 l 3.307292,0.06476 0.07619,2.142083 c 0.05529,1.554496 -0.02207,2.22363 -0.28203,2.439376 -0.214852,0.178311 -1.78077,0.326978 -3.912648,0.371459 l -3.554426,0.07417 -0.07935,1.521354 c -0.04364,0.836745 -0.04364,1.544137 0,1.571985 0.04364,0.02784 2.222473,0.117141 4.841848,0.198437 l 4.7625,0.147807 v 2.513542 2.513541 l -8.142769,0.06998 c -6.3771673,0.05481 -8.1706454,-0.0027 -8.2713247,-0.265025 z m 19.0882345,-0.09118 c -0.209711,-0.546496 -0.209711,-20.576889 0,-21.123386 0.140716,-0.366699 1.007571,-0.418515 7.001534,-0.418515 7.782309,0 8.811972,0.197871 10.691233,2.054532 1.33509,1.31904 1.725801,2.336787 1.725801,4.49549 0,2.257648 -0.72911,3.82982 -2.298938,4.957178 -0.609571,0.437759 -1.115587,0.968701 -1.12448,1.179872 -0.0089,0.211172 0.757741,2.25877 1.703626,4.550217 0.945885,2.291445 1.719792,4.294828 1.719792,4.451962 0,0.194534 -1.194324,0.26227 -3.742963,0.212285 l -3.74296,-0.07341 -1.521608,-3.952885 c -1.141584,-2.965657 -1.660604,-4.004305 -2.078164,-4.158771 -1.242071,-0.45947 -1.349722,-0.160163 -1.349722,3.752699 0,2.00982 -0.07227,3.842552 -0.160599,4.072734 -0.134388,0.350208 -0.691161,0.418515 -3.411276,0.418515 -2.720115,0 -3.276888,-0.06831 -3.411276,-0.418515 z M 38.470925,-28.66142 c 0.638323,-0.788297 0.636545,-1.65553 -0.005,-2.448327 -0.453453,-0.56034 -0.718944,-0.624623 -2.579687,-0.624623 h -2.074212 l -0.08044,1.557874 c -0.120734,2.338263 -0.106494,2.352543 2.228559,2.234626 1.719205,-0.08681 2.082827,-0.191021 2.510804,-0.71955 z"
               id="path4691"
               inkscape:connector-curvature="0" />
            <path
               style="fill:#6f6f6f;stroke-width:0.26458332"
               d="M -12.886957,86.23312 C -13.250759,86.16886 -15.69154,85.763207 -18.310915,85.331661 -41.029082,81.588804 -60.345256,73.94274 -73.08806,63.648824 -86.055297,53.173604 -93.042165,40.037195 -93.986058,24.357302 l -0.175202,-2.910417 4.116998,-16.4833485 4.116999,-16.4833485 -0.501795,-3.22811 c -0.27599,-1.77546 -1.651072,-10.669516 -3.055737,-19.764568 -1.404667,-9.095052 -3.063483,-19.810677 -3.686257,-23.8125 -0.632018,-4.061222 -1.032936,-7.386201 -0.907394,-7.525364 0.13539,-0.150077 4.254231,-0.222131 10.34727,-0.181012 20.950139,0.141378 33.507794,-1.294844 49.802669,-5.695945 3.929689,-1.061373 13.92846,-4.304236 19.12113,-6.201481 l 3.503539,-1.280086 2.1455299,0.918324 c 11.1858769,4.787757 25.0976501,8.333996 40.3832241,10.294064 9.887866,1.267918 29.147786,2.242315 36.327043,1.837854 2.430418,-0.136924 3.106309,-0.09782 3.334528,0.192937 0.303612,0.386802 0.52627,-1.116322 -7.587498,51.221934 l -0.501084,3.232266 4.094027,18.0062692 c 2.466449,10.8478818 4.093941,18.5562158 4.093806,19.3896088 -1.22e-4,0.760836 -0.123717,2.693027 -0.274654,4.293756 C 68.973563,48.60479 57.868135,63.322926 38.175793,73.297482 27.800176,78.552935 15.992994,82.21488 1.532835,84.662127 -5.1901905,85.799936 -11.46748,86.483828 -12.886957,86.23312 Z m 6.7661105,-4.189265 C 8.4954327,80.134836 20.62692,77.034319 31.149187,72.518533 54.197028,62.627204 66.784107,46.663328 67.091886,26.933309 67.138736,23.930021 67.078181,23.563351 65.246137,15.758343 64.204335,11.319958 62.381152,3.4097047 61.194617,-1.8199939 l -2.157333,-9.5085451 0.813864,-5.308122 c 1.79723,-11.721729 4.59554,-29.810437 5.72794,-37.026262 0.659525,-4.202581 1.162151,-7.833987 1.116947,-8.069792 -0.07268,-0.379166 -1.198298,-0.464076 -9.736235,-0.734444 -12.89671,-0.408394 -18.910697,-0.873381 -28.83634,-2.229564 -13.190328,-1.802249 -25.6136008,-4.946811 -36.2479167,-9.175025 -1.6734895,-0.665382 -3.2213023,-1.196313 -3.4395833,-1.179846 -0.218281,0.01646 -2.599531,0.815507 -5.291667,1.775645 -12.737777,4.542878 -25.20324,7.766058 -35.851041,9.269961 -8.193958,1.157321 -13.38616,1.494387 -25.222698,1.637403 -9.16432,0.110728 -11.757281,0.215556 -11.858535,0.479422 -0.07128,0.18574 0.170998,2.284053 0.538388,4.662919 0.367387,2.378866 1.39782,9.028181 2.289847,14.776254 0.892026,5.748073 1.959033,12.653698 2.371121,15.345833 0.412089,2.692136 1.126239,7.335573 1.587,10.31875 l 0.837748,5.423959 -4.12178,16.5194374 -4.121782,16.5194406 0.278289,3.698433 c 0.330678,4.394724 0.933825,7.494857 2.250654,11.568213 1.206963,3.733511 4.049077,9.36562 6.399141,12.680934 2.257563,3.184819 8.878043,9.859944 12.311983,12.413604 10.714128,7.967594 24.932222,13.988206 42.164434,17.854409 3.951084,0.88646 14.061382,2.719853 15.325842,2.779176 0.301619,0.01415 2.8019318,-0.268603 5.5562495,-0.628344 z M -14.73904,76.184113 c -19.31648,-4.955334 -33.242811,-10.644394 -44.45,-18.15831 -13.599335,-9.117742 -21.615294,-20.063716 -23.687336,-32.345585 -0.442791,-2.624605 -0.440791,-2.685102 0.249187,-7.540625 1.885135,-13.2661075 3.100332,-18.11549927 6.961629,-27.7812497 l 1.004118,-2.5135413 63.156065,-0.06669 63.156063,-0.06669 0.262882,0.992732 c 0.769853,2.9072342 4.388893,18.7233194 5.040249,22.027108 2.062687,10.462297 2.266699,14.844469 0.940877,20.210148 -1.31449,5.319815 -3.111095,9.370689 -6.187022,13.950103 C 41.71445,59.769339 21.968304,70.188085 -7.6978213,76.235897 -11.461554,77.003181 -11.548713,77.00254 -14.73904,76.184113 Z M -26.362583,15.068014 c 4.23435,-1.254459 6.997385,-4.680085 7.708146,-9.5566022 0.858809,-5.89229197 -1.483079,-10.9421215 -6.085665,-13.1225501 -1.673252,-0.7926891 -1.944685,-0.8398934 -4.829437,-0.8398934 -3.002754,0 -3.092133,0.017595 -5.078939,0.9995773 -2.954324,1.4601878 -4.703596,3.7159142 -5.625058,7.25365002 -0.518321,1.98996828 -0.47739,5.60347018 0.08783,7.75406438 0.977861,3.720637 4.061429,6.804321 7.649327,7.64962 1.631886,0.384469 4.637214,0.317357 6.173795,-0.137866 z m -4.51604,-5.1862861 c -0.363802,-0.1876002 -0.959115,-0.9364054 -1.322917,-1.6640096 -0.603792,-1.2075848 -0.661458,-1.6227769 -0.661458,-4.7625 0,-3.0767443 0.06566,-3.57292007 0.622408,-4.703572 0.965991,-1.9617319 2.914558,-2.6389912 4.348197,-1.511292 1.187027,0.9337172 1.646798,2.65843012 1.62148,6.0825724 -0.02476,3.3503817 -0.354396,4.9313332 -1.243748,5.9652667 -0.69927,0.8129506 -2.367629,1.1073126 -3.363962,0.5935345 z m 45.819409,5.1023231 c 2.809367,-0.86101 5.633895,-3.776525 6.744147,-6.961402 C 22.442147,5.8504992 22.360695,0.28931735 21.541375,-1.7788512 20.41075,-4.6328296 17.985222,-7.0420408 15.291168,-7.9870054 13.268304,-8.6965438 8.8937418,-8.6082074 6.8814982,-7.8171879 3.4140437,-6.4541181 0.92458437,-2.9627002 0.28339048,1.4365322 -0.66498467,7.9433216 2.5265491,13.546157 8.0639132,15.09548 9.6410045,15.536739 13.332603,15.476925 14.940786,14.984051 Z M 9.8358516,9.8187306 C 7.9639166,8.7627282 7.2313171,3.1851872 8.4536841,-0.70415867 9.1797855,-3.0144792 11.293777,-3.9864763 12.879523,-2.7391273 c 1.237414,0.9733492 1.569757,1.98123705 1.695876,5.1430396 0.203261,5.095711 -0.703384,7.4275395 -2.988397,7.6859637 -0.650841,0.0736 -1.325092,-0.03079 -1.7511504,-0.2711454 z M -64.370055,15.068577 c 0.367789,-0.141134 0.418515,-1.055081 0.418515,-7.5406248 0,-7.34974926 0.167375,-8.6349469 0.814679,-6.2555464 0.168251,0.6184636 1.056843,3.9098802 1.974651,7.3142581 0.917805,3.4043801 1.826533,6.2898231 2.019393,6.4120951 0.431405,0.273513 3.675507,0.295643 4.094371,0.02793 0.167275,-0.106912 0.977458,-2.813761 1.800405,-6.0152197 2.094984,-8.14999478 2.301118,-8.86354163 2.560534,-8.86354163 0.126344,0 0.229717,3.32101293 0.229717,7.38002553 0,6.4855438 0.05073,7.3994908 0.418515,7.5406248 0.616868,0.236715 5.479302,0.187608 5.868186,-0.05926 0.261766,-0.166174 0.318725,-2.685701 0.264583,-11.7037615 l -0.06899,-11.4919998 h -4.62828 -4.628279 l -1.494198,5.6374083 c -1.426794,5.3831066 -1.667391,6.1097212 -1.93458,5.8425318 -0.0647,-0.064696 -0.785289,-2.55037963 -1.601319,-5.5237433 -0.816031,-2.9733611 -1.61344,-5.5624492 -1.772021,-5.7535286 -0.221506,-0.2668985 -1.306705,-0.3306419 -4.682535,-0.2750424 l -4.394205,0.072374 -0.06899,11.4919998 c -0.05414,9.0180607 0.0028,11.5375877 0.264584,11.7037617 0.390382,0.247822 3.933507,0.294021 4.545269,0.05926 z m 58.2083331,0 c 0.3698557,-0.141925 0.4185152,-1.169178 0.4185152,-8.8352337 0,-7.666056 0.04866,-8.6933087 0.4185153,-8.8352339 0.2301822,-0.088331 1.3059093,-0.1605994 2.3905051,-0.1605994 h 1.97199253 l -0.0754036,-2.7119792 -0.075401,-2.7119791 H -9.18279 -17.252582 l -0.0754,2.7119791 -0.0754,2.7119792 h 1.971992 c 1.084596,0 2.160323,0.072268 2.390505,0.1605994 0.369864,0.1419305 0.418516,1.1697282 0.418516,8.841494 0,6.6971516 0.07558,8.7113876 0.330729,8.8143446 0.477607,0.19272 5.6337595,0.205026 6.1299221,0.01463 z m 38.4453709,-0.05318 c 0.227838,-0.144751 0.345401,-1.456314 0.396875,-4.427717 l 0.07314,-4.222044 0.948688,-0.079523 c 0.549918,-0.046098 1.064297,0.065117 1.223727,0.2645834 0.15127,0.1892591 0.951791,2.127369 1.778936,4.3069106 0.827143,2.179543 1.645687,4.052954 1.818982,4.163137 0.427355,0.271714 6.842164,0.255834 7.273885,-0.01802 0.265131,-0.168172 -0.106474,-1.307065 -1.617361,-4.956887 -1.078868,-2.6061903 -1.912572,-4.8575986 -1.852671,-5.0031195 0.0599,-0.1455208 0.629997,-0.5955453 1.266886,-1.0000535 1.658062,-1.053092 2.520387,-2.8727136 2.520387,-5.3183605 0,-2.2577213 -0.634098,-3.7282623 -2.177156,-5.0490649 -2.003369,-1.7148096 -2.875325,-1.8616877 -11.052011,-1.8616877 h -7.276042 l -0.06899,11.4919998 c -0.05414,9.0180603 0.0028,11.5375873 0.264583,11.7037613 0.428908,0.27228 6.050843,0.277559 6.47814,0.0061 z M 32.742752,0.87634575 C 32.661697,0.66512094 32.630994,-0.32932346 32.674524,-1.333531 l 0.07914,-1.825834 1.846549,-0.079616 c 1.015603,-0.043788 2.119958,-0.011007 2.454126,0.072874 1.671797,0.4195948 2.213581,2.4299307 0.969833,3.59864291 C 37.435593,0.98560504 37.034943,1.0868082 35.115838,1.167178 33.352382,1.241031 32.859511,1.180619 32.742748,0.87634535 Z M -69.082607,-15.087255 c -0.08833,-0.230182 -0.1606,-3.980651 -0.1606,-8.334375 v -7.91586 h -1.951979 c -1.352386,0 -2.046616,-0.114033 -2.260071,-0.371232 -0.195397,-0.235439 -0.279834,-1.179062 -0.230836,-2.579687 l 0.07726,-2.208456 h 7.672917 7.672917 v 2.513542 2.513541 l -2.182813,0.07685 -2.182812,0.07684 v 7.90516 c 0,4.34784 -0.07227,8.093494 -0.1606,8.323676 -0.133318,0.347421 -0.66784,0.418515 -3.146692,0.418515 -2.478852,0 -3.013374,-0.07109 -3.146692,-0.418515 z m 10.15815,-0.107307 c 0,-0.448461 4.472096,-15.230997 6.044277,-19.979386 l 0.438015,-1.322917 h 3.564329 3.564329 l 3.361624,10.706071 c 1.84889,5.888339 3.303775,10.799667 3.233076,10.914062 -0.0707,0.114396 -1.552821,0.207992 -3.293605,0.207992 -3.596724,0 -3.218611,0.254273 -4.131177,-2.778125 l -0.477743,-1.5875 -2.645833,-0.06704 c -1.455208,-0.03687 -2.77681,0.02265 -2.936891,0.132292 -0.160081,0.109632 -0.586449,1.0923 -0.947489,2.183706 l -0.656431,1.984375 -2.55824,0.07573 c -2.431111,0.07196 -2.558241,0.04864 -2.558241,-0.469257 z m 10.85374,-9.197616 c 0.01098,-0.872664 -1.186008,-4.828645 -1.461031,-4.828645 -0.275024,0 -1.47201,3.955981 -1.461032,4.828645 0.0048,0.384144 0.253727,0.463021 1.461032,0.463021 1.207304,0 1.4562,-0.07888 1.461031,-0.463021 z m 11.760571,9.402255 c -0.072,-0.187635 -0.09976,-5.103458 -0.06167,-10.924048 l 0.06924,-10.582894 h 3.142869 3.142869 l 3.24969,5.122558 c 1.787331,2.817408 3.349783,5.222653 3.472116,5.344986 0.122333,0.122332 0.222245,-2.182818 0.222025,-5.122558 l -4.02e-4,-5.344986 2.49143,-0.07666 c 1.814823,-0.05584 2.550227,0.01601 2.707929,0.264584 0.247629,0.39031 0.30853,20.584451 0.064,21.221684 -0.130408,0.339841 -0.615352,0.417753 -2.579688,0.414464 -1.330497,-0.0021 -2.556129,-0.09152 -2.723623,-0.198437 -0.31677,-0.202197 -5.035722,-7.692052 -6.666926,-10.581656 -0.514159,-0.91081 -1.028806,-1.562047 -1.143656,-1.447197 -0.114853,0.114853 -0.240938,2.884125 -0.280186,6.153936 l -0.07136,5.945113 -2.451868,0.07613 c -1.814091,0.05633 -2.485919,-0.01262 -2.58278,-0.265025 z m 22.489094,-0.0013 c -0.07173,-0.186933 -0.09927,-5.102183 -0.06119,-10.922773 l 0.06924,-10.582846 h 3.042708 3.0427083 l 0.073144,4.054613 c 0.052485,2.909477 0.1590357,4.025979 0.3772614,3.953237 0.167267,-0.05576 1.5070244,-1.88033 2.9772425,-4.054613 l 2.6731225,-3.953237 2.8698825,-0.07543 c 2.6455502,-0.06954 2.8599632,-0.03852 2.7430042,0.396875 -0.069781,0.25977 -1.2359243,2.067128 -2.5914271,4.016348 l -2.4645488,3.544038 3.3690666,6.744304 c 1.9855233,3.974682 3.2717052,6.841667 3.1319841,6.981388 -0.1303973,0.130397 -1.7657287,0.20361 -3.6340706,0.1627 l -3.3969881,-0.07438 -1.7535234,-3.836458 c -0.9644406,-2.110052 -1.8880614,-3.836458 -2.052492,-3.836458 -0.1644306,0 -0.6945392,0.535781 -1.1780202,1.190625 -0.8254101,1.117965 -0.8871268,1.352089 -1.011346,3.836458 l -0.1322917,2.645833 -2.9815232,0.07486 c -2.239534,0.05623 -3.01398,-0.0097 -3.111947,-0.265025 z m 21.4676114,-0.09606 c -0.2879857,-0.75048 -0.1817052,-20.478919 0.113292,-21.030128 0.261403,-0.488432 0.6341824,-0.511773 8.1737756,-0.511773 6.959587,0 7.919,0.04982 8.060484,0.418515 0.231357,0.602903 0.190214,3.88774 -0.0535,4.271357 -0.146693,0.230904 -1.535578,0.345154 -4.824595,0.396875 l -4.618599,0.07268 v 1.455209 1.455208 l 3.704167,0.132292 3.704167,0.132291 0.07645,2.315104 0.07645,2.315105 -3.516032,0.004 c -1.933815,0.0021 -3.671358,0.102571 -3.861204,0.22298 -0.236591,0.150058 -0.319821,0.710599 -0.264584,1.781887 l 0.08059,1.56296 4.618599,0.07263 c 3.289017,0.05172 4.677902,0.16597 4.824595,0.396875 0.243491,0.383265 0.285342,3.931766 0.0535,4.53594 -0.141553,0.368884 -1.110883,0.418515 -8.173776,0.418515 -7.0628933,0 -8.0322235,-0.04963 -8.1737756,-0.418515 z m 19.2781156,0.09579 c -0.07167,-0.186785 -0.09916,-5.101913 -0.06108,-10.922503 l 0.06924,-10.582846 7.011458,0.0024 c 6.815749,0.0024 7.050553,0.02006 8.412031,0.632847 3.028569,1.36312 4.387937,4.430831 3.47024,7.831354 -0.201888,0.748088 -0.747993,1.496018 -1.862915,2.551393 l -1.577303,1.49306 1.7321,4.178098 c 0.952653,2.298042 1.732097,4.394367 1.732097,4.658588 0,0.43928 -0.291671,0.480404 -3.407187,0.480404 -2.41108,0 -3.482986,-0.09669 -3.666461,-0.330729 -0.142603,-0.181901 -0.82123,-1.819011 -1.508062,-3.638021 -1.554485,-4.116911 -1.791361,-4.497917 -2.796431,-4.497917 -0.994598,0 -1.042787,0.203986 -1.125083,4.7625 l -0.06448,3.571875 -3.113918,0.07459 c -2.345831,0.05619 -3.146065,-0.0092 -3.244242,-0.265022 z m 11.071908,-13.21063 c 0.802701,-0.42251 0.966078,-0.737658 0.970743,-1.872522 0.006,-1.458047 -0.719908,-1.835592 -3.340719,-1.737535 l -2.079189,0.07784 -0.08044,1.557875 c -0.04424,0.856829 -0.0182,1.720032 0.05784,1.918229 0.175218,0.456607 3.628581,0.499978 4.471763,0.05616 z"
               id="path4689"
               inkscape:connector-curvature="0" />
            <path
               style="fill:#525252;stroke-width:0.26458332"
               d="M -12.093207,86.208619 C -14.789673,85.855065 -21.88275,84.636539 -25.05779,83.98142 -57.453082,77.297191 -79.809451,63.292567 -88.983809,43.936468 -91.672552,38.263751 -93.034773,33.116272 -93.7451,25.944802 l -0.419306,-4.233334 4.14837,-16.536458 4.148373,-16.536458 -0.28245,-2.116667 c -0.155348,-1.164167 -0.45234,-3.188229 -0.659982,-4.497917 -0.207643,-1.309687 -0.686814,-4.405312 -1.064821,-6.879166 -0.37801,-2.473855 -0.805442,-5.212292 -0.949847,-6.085417 -0.144406,-0.873125 -0.675341,-4.266406 -1.179853,-7.540625 -1.855838,-12.044132 -2.312604,-15.0001 -2.677909,-17.330208 -0.57059,-3.6395 -1.193028,-7.806762 -1.359871,-9.104437 l -0.150035,-1.166937 7.249091,0.174035 c 11.403934,0.273783 23.86456,-0.313468 32.849979,-1.548175 12.22229,-1.67949 24.199903,-4.866333 40.305435,-10.723928 l 2.406322,-0.87518 4.7374276,1.878536 c 18.2983344,7.255856 39.1458264,10.716527 66.8816074,11.102311 l 10.815016,0.150429 -0.161242,1.352505 c -0.08868,0.743878 -0.332473,2.42407 -0.541756,3.733757 -0.209283,1.309688 -0.689549,4.405313 -1.06726,6.879167 -0.377711,2.473854 -0.861195,5.569479 -1.074407,6.879167 -0.213214,1.309687 -0.748969,4.7625 -1.190572,7.672916 -0.441603,2.910417 -0.973182,6.363229 -1.18129,7.672917 -0.208109,1.309687 -0.560248,3.571875 -0.782535,5.027083 -0.222289,1.455209 -0.635624,4.134115 -0.918527,5.953125 -0.282903,1.819011 -0.722247,4.654751 -0.976321,6.301648 l -0.461952,2.994358 0.829501,3.6202251 c 3.225882,14.078839 6.798656,29.8935749 7.223381,31.9739799 0.60483,2.962601 -0.607226,11.522173 -2.416415,17.064784 -1.098008,3.363846 -4.139131,9.378902 -6.175426,12.21441 C 51.626522,68.079653 33.069708,78.27807 7.4557261,83.478209 0.25084408,84.940942 -10.407673,86.429621 -12.093207,86.208619 Z M -4.1561591,81.90034 C 9.8454216,79.909118 21.52037,76.827074 31.512762,72.484174 54.054362,62.687132 66.388327,47.284797 67.191748,27.929177 67.323547,24.753933 67.285439,24.431734 66.237279,19.859385 65.636815,17.24001 64.486698,12.179854 63.681462,8.6145933 62.876227,5.0493329 61.999085,1.1798017 61.732258,0.015635 c -2.88491,-12.586946 -2.706782,-10.860857 -1.747459,-16.933333 0.229894,-1.455209 0.775097,-4.967552 1.211564,-7.805209 0.436465,-2.837656 0.973604,-6.290468 1.193639,-7.672916 0.220033,-1.382448 0.575381,-3.704167 0.789665,-5.159375 0.214281,-1.455209 0.806857,-5.303153 1.316834,-8.55099 0.951621,-6.060461 1.50667,-9.646208 2.086274,-13.477867 0.181795,-1.201809 0.264617,-2.282166 0.184049,-2.400792 -0.08057,-0.118623 -4.432739,-0.362757 -9.671489,-0.542515 -11.899442,-0.408307 -18.286971,-0.854064 -25.4,-1.77256 -15.385828,-1.986748 -28.4454785,-5.150461 -39.7260736,-9.623684 l -3.4781574,-1.379236 -1.945801,0.710152 c -25.004622,9.125823 -42.480203,12.29895 -67.734847,12.29895 h -8.691163 v 0.843862 c 0,0.741101 0.507945,4.31237 1.328807,9.342596 0.142483,0.873125 0.678637,4.325938 1.191455,7.672917 1.592414,10.393116 2.637904,17.153739 3.027805,19.579167 0.140359,0.873125 0.50741,3.254375 0.815668,5.291666 0.308258,2.037292 0.726038,4.685446 0.928399,5.884783 l 0.36793,2.180617 -4.122434,16.4725085 -4.122433,16.4725085 0.156453,3.042708 c 1.337541,26.012521 22.230684,45.261792 59.16585,54.510676 4.842997,1.212728 8.094763,1.891435 14.022917,2.926855 4.984226,0.870553 6.678999,0.86705 12.9641309,-0.02678 z m -9.3922559,-5.554451 c -5.827078,-1.304149 -15.287577,-4.14841 -21.563542,-6.48299 -19.164141,-7.128819 -33.257244,-16.760431 -40.94893,-27.985617 -4.037123,-5.891747 -6.940653,-13.709277 -6.940653,-18.687176 0,-2.626551 1.7228,-14.220545 2.778289,-18.6971601 1.059389,-4.49316737917 4.858205,-15.3832639 5.734492,-16.4391259 0.229838,-0.276937 12.129976,-0.34131 63.095957,-0.34131 H 51.41989 l 0.274291,0.721439 c 0.15086,0.396791 0.45837,1.55765 0.683355,2.5796879 0.621483,2.82321 0.996506,4.4383087 1.936658,8.34053977 1.671243,6.93674263 2.660644,11.63267033 3.289009,15.61041633 1.466059,9.280629 1.478565,9.596829 0.559202,14.137407 -3.378269,16.684686 -15.364987,29.288092 -36.388945,38.261068 -8.56528,3.655642 -22.45533038,7.637402 -32.676042,9.367002 -0.291041,0.04925 -1.481666,-0.12363 -2.645833,-0.384181 z M -24.677602,14.548261 c 2.877801,-1.41854 4.986631,-4.071133 5.874205,-7.388876 0.459068,-1.7159975 0.454165,-5.9734715 -0.0089,-7.7125539 -0.837843,-3.1467081 -3.064195,-5.8487363 -5.923227,-7.1887636 -1.388489,-0.650785 -1.785385,-0.7090992 -4.826196,-0.7090992 -3.201649,0 -3.371974,0.028898 -5.054865,0.8575887 -2.171723,1.0694035 -3.954706,2.9316945 -5.075277,5.3010303 -0.782407,1.65432314 -0.84786,2.01336537 -0.934775,5.1276832 -0.07167,2.5682284 0.0098,3.7041031 0.349673,4.8731196 0.779026,2.6797479 2.95883,5.4484239 5.215332,6.6242459 1.839338,0.958445 2.942648,1.159155 5.902785,1.073819 2.588641,-0.07462 3.084087,-0.169508 4.481229,-0.858194 z m -5.539563,-4.542229 c -1.775309,-0.4071146 -2.653197,-2.5976952 -2.625278,-6.5508137 0.03173,-4.4933129 1.09447,-6.5352083 3.401349,-6.5352083 1.675309,0 2.564619,1.1955568 3.076715,4.136218 0.349604,2.0075869 -0.015,6.0120954 -0.661162,7.2616378 -0.683273,1.3213027 -1.925704,1.9784692 -3.191624,1.6881662 z m 46.240766,4.631743 c 2.735099,-1.266418 4.95517,-3.947364 5.953435,-7.1893301 0.576437,-1.8720408 0.561768,-6.436188 -0.02704,-8.41427913 C 20.932191,-4.3851002 18.005912,-7.3117967 14.708074,-8.2087898 12.233217,-8.8819347 8.2785987,-8.6391901 6.3503101,-7.695768 2.2779255,-5.7033364 0.068906,-1.7293794 0.08409573,3.5769531 c 0.0076465,2.6681563 0.291211,4.0514535 1.24359987,6.0663984 1.1965146,2.5314355 4.0910986,4.9207265 6.8039509,5.6162155 0.4452356,0.114146 2.0596785,0.179935 3.5876465,0.146201 2.374678,-0.05243 2.999761,-0.163957 4.304308,-0.767993 z M 10.131793,9.7386624 C 8.6654963,9.0061634 8.1769961,7.7037679 8.0592909,4.213157 7.9115344,-0.16858908 8.7064697,-2.4801399 10.538535,-2.9961118 c 2.360297,-0.6647392 3.852619,1.2985433 4.04496,5.3214984 0.117266,2.4527378 -0.266681,5.1035162 -0.923062,6.3728151 -0.213831,0.4135067 -0.793771,0.9210437 -1.288757,1.1278605 -1.126582,0.4707148 -1.122325,0.4708818 -2.239883,-0.0874 z M -63.940835,7.8208433 c 0.07865,-4.0018229 0.17549,-7.33557288 0.215207,-7.4083333 0.143333,-0.26257779 0.561451,1.1169967 2.297827,7.5816407 0.9711,3.6154623 1.886667,6.7223953 2.034595,6.9042963 0.174006,0.213972 1.006782,0.33073 2.358901,0.33073 1.915043,0 2.111385,-0.04982 2.346161,-0.595313 0.140922,-0.327422 0.917588,-3.155156 1.725927,-6.283854 0.808339,-3.1286979 1.591281,-6.1470434 1.739874,-6.7074362 0.14859,-0.5603928 0.351636,-0.93764365 0.451212,-0.83833495 0.09958,0.0993087 0.240581,3.35577925 0.313341,7.23660285 l 0.132292,7.0560433 h 3.175 3.175 l 0.0689,-11.7078125 0.0689,-11.7078125 h -4.765252 c -2.620888,0 -4.765252,0.031425 -4.765252,0.069834 0,0.2845382 -2.935197,11.1556403 -3.040438,11.260881 -0.237905,0.2379054 -0.317719,-0.00407 -1.73015,-5.2452984 -0.764701,-2.8376563 -1.496624,-5.3677344 -1.626492,-5.6223959 -0.211267,-0.4142846 -0.722505,-0.4630208 -4.857019,-0.4630208 h -4.620901 V 3.2788286 c 0,6.3786649 0.08353,11.6810944 0.185613,11.7831814 0.102085,0.102087 1.262944,0.151696 2.579688,0.110244 l 2.394074,-0.07537 z m 58.1976283,-1.4552083 0.1322917,-8.73125 2.1934964,-0.077018 c 2.0983178,-0.073678 2.2050481,-0.1074076 2.45976243,-0.777359 0.14644688,-0.3851857 0.24136086,-1.4816217 0.2109179,-2.4365215 -0.094279,-2.957314 0.84107337,-2.6622269 -8.43860233,-2.6622269 -7.1812014,0 -8.1618854,0.04943 -8.3035164,0.4185153 -0.316995,0.8260715 -0.174588,4.7967476 0.182665,5.0932424 0.188799,0.1566889 1.290127,0.3200955 2.447396,0.3631274 l 2.104131,0.07824 0.06682,8.4666667 c 0.03675,4.6566666 0.123722,8.6191776 0.193273,8.8055826 0.09549,0.255923 0.921387,0.320712 3.3727678,0.264583 l 3.2463079,-0.07433 z m 38.2828217,8.532812 c 0.117729,-0.181901 0.273585,-2.176197 0.346345,-4.43177 l 0.132292,-4.101042 h 0.919702 0.919705 l 1.593837,4.11017 c 0.876612,2.260592 1.690163,4.254889 1.807892,4.431771 0.328896,0.494149 7.558186,0.450802 7.749003,-0.04646 0.07768,-0.202439 -0.708054,-2.41058 -1.746081,-4.9069849 C 43.224284,7.4577265 42.412849,5.3151439 42.459119,5.1928376 42.505392,5.0705287 43.073379,4.5682516 43.721312,4.076669 45.170363,2.9772803 45.77488,1.977322 46.1204,0.10823917 46.646426,-2.7372911 45.620067,-5.4088128 43.448809,-6.8456829 41.52605,-8.1181038 40.025715,-8.31874 32.433496,-8.31874 H 25.477627 V 3.2788286 c 0,6.3786649 0.07938,11.6769464 0.176389,11.7739584 0.341133,0.341132 6.656541,0.199575 6.885599,-0.15434 z M 33.06235,1.0298702 c -0.09701,-0.0970121 -0.17639,-1.04724462 -0.17639,-2.1116237 0,-1.8626349 0.02577,-1.9417056 0.686797,-2.1076126 1.043245,-0.261837 3.844129,0.1101513 4.362652,0.5794084 1.174376,1.0627968 0.731258,2.94003941 -0.819219,3.47055545 C 36.118851,1.2018494 33.349947,1.3174697 33.06235,1.0298702 Z M -68.793817,-14.836711 c -0.101642,-0.101645 -0.184806,-3.79218 -0.184806,-8.201191 0,-9.242005 0.219292,-8.564171 -2.770659,-8.564171 h -1.747115 l 0.07607,-2.447396 0.07608,-2.447396 h 7.408333 7.408333 l 0.07608,2.447396 0.07607,2.447396 h -1.811441 c -2.879942,0 -2.692413,-0.590939 -2.770783,8.73125 l -0.06784,8.069791 -2.791757,0.07456 c -1.535464,0.04101 -2.874917,-0.0086 -2.976562,-0.110244 z m 10.002647,-0.095 c -0.08939,-0.144635 0.430551,-2.198463 1.155425,-4.564063 4.085537,-13.333028 5.185251,-16.755578 5.440135,-16.930893 0.50877,-0.349941 6.40838,-0.236953 6.696035,0.12824 0.429032,0.544677 6.713572,20.904981 6.568974,21.281795 -0.184586,0.481029 -5.785032,0.496594 -6.175517,0.01717 -0.148154,-0.181901 -0.52496,-1.193933 -0.837351,-2.248959 l -0.567979,-1.918229 h -2.866816 c -1.975709,0 -2.949199,0.102801 -3.131857,0.330729 -0.145769,0.181901 -0.469259,1.045105 -0.718862,1.91823 -0.249603,0.873125 -0.576212,1.736328 -0.725797,1.918229 -0.330814,0.402283 -4.592738,0.461991 -4.83639,0.06776 z m 10.947741,-9.151221 c 0.228283,-0.208224 -1.379648,-5.402474 -1.672389,-5.402474 -0.263752,0 -1.735722,4.471797 -1.735722,5.273072 0,0.435105 2.950157,0.547119 3.408111,0.129402 z m 11.726056,9.096693 c -0.455954,-0.455954 -0.455954,-20.869463 0,-21.325417 0.205216,-0.205216 1.266766,-0.3175 3.0017,-0.3175 2.226408,0 2.752963,0.07897 3.087368,0.463021 0.221739,0.254662 1.719728,2.546615 3.328863,5.093229 1.609135,2.546615 3.099033,4.868037 3.310884,5.158719 0.340371,0.467022 0.369152,-0.08745 0.247383,-4.765844 -0.118697,-4.560303 -0.08125,-5.341287 0.270066,-5.632855 0.278093,-0.230799 1.110533,-0.313918 2.616321,-0.261239 l 2.208456,0.07726 0.06919,10.698128 c 0.05422,8.382879 -0.003,10.743986 -0.264583,10.910012 -0.183574,0.116536 -1.243317,0.213706 -2.354983,0.215934 -1.553016,0.0031 -2.14263,-0.103203 -2.545392,-0.45897 -0.490389,-0.433168 -5.100997,-7.758104 -6.827943,-10.847647 -0.426958,-0.763836 -0.865585,-1.388914 -0.974725,-1.389062 -0.109141,-1.48e-4 -0.198438,2.784962 -0.198438,6.189131 0,5.399849 -0.05339,6.209887 -0.418515,6.35 -0.762743,0.292692 -4.225311,0.173439 -4.555651,-0.156901 z m 22.489583,0 c -0.455954,-0.455954 -0.455954,-20.869463 0,-21.325417 0.432454,-0.432453 5.2825465,-0.432453 5.715,0 0.2183421,0.218342 0.3175,1.540463 0.3175,4.233334 0,2.391717 0.1013328,3.915833 0.26035,3.915833 0.1431925,0 1.4717077,-1.815703 2.9522579,-4.034896 1.4805501,-2.219193 2.8219082,-4.12237 2.9807958,-4.229282 0.40892678,-0.275156 5.1227937,-0.250471 5.2947305,0.02773 0.078256,0.126616 -0.986282,1.862854 -2.3656342,3.858302 -1.37935498,1.995451 -2.50791667,3.797806 -2.50791667,4.005236 0,0.207428 1.43616627,3.247562 3.19148087,6.75585 1.755312,3.508288 3.1282693,6.543429 3.051011,6.744758 -0.1079262,0.281252 -0.8206528,0.366054 -3.076583,0.366054 -1.61486316,0 -3.14159366,-0.109969 -3.3927362,-0.244377 -0.2511425,-0.134406 -1.2123181,-1.920343 -2.1359495,-3.96875 -0.9578207,-2.124237 -1.8329777,-3.724373 -2.036953,-3.724373 -0.1966965,0 -0.7725515,0.565547 -1.2796811,1.256771 -0.8907647,1.214125 -0.9222766,1.338022 -0.9286134,3.65125 -0.0041,1.501317 -0.1249891,2.512909 -0.324059,2.711979 -0.4324535,0.432454 -5.282546,0.432454 -5.715,0 z m 21.558586,0.144973 c -0.099139,-0.09914 -0.1802527,-4.98017 -0.1802527,-10.846736 v -10.66649 l 0.5953125,-0.145404 c 0.3274219,-0.07997 3.9290622,-0.112006 8.0036462,-0.07119 l 7.408333,0.07422 v 2.38125 2.38125 l -4.7625,0.132292 -4.7625,0.132291 v 1.455209 1.455208 l 3.307292,0.06476 c 4.83494,0.09467 4.534013,-0.07621 4.442346,2.522623 l -0.07672,2.175118 -3.836459,0.132292 -3.836458,0.132291 v 1.719792 1.719792 l 4.7625,0.132291 4.7625,0.132292 v 2.513542 2.513541 l -7.823393,0.07001 c -4.302866,0.03851 -7.9045066,-0.01111 -8.003647,-0.110244 z m 19.200476,-0.0027 c -0.256905,-0.103663 -0.330729,-2.514068 -0.330729,-10.79872 0,-9.481256 0.04646,-10.683099 0.418516,-10.825869 0.701053,-0.26902 10.977544,-0.174987 12.776459,0.116907 2.115378,0.343246 3.381343,0.982977 4.587769,2.318345 2.26835,2.510795 1.775629,6.894071 -0.994442,8.846598 -0.647837,0.456636 -1.177885,0.996915 -1.177885,1.200618 0,0.203703 0.776452,2.231411 1.725446,4.506016 0.948997,2.274604 1.667108,4.287676 1.595805,4.47349 -0.145084,0.378081 -6.107803,0.49258 -6.680861,0.128286 -0.174295,-0.1108 -0.930254,-1.805617 -1.679909,-3.766262 -1.809885,-4.733565 -1.68348,-4.536596 -2.849139,-4.439642 l -0.974884,0.08108 -0.07353,3.957701 c -0.05127,2.759639 -0.171413,4.019891 -0.396875,4.163137 -0.351446,0.22329 -5.406583,0.255862 -5.945736,0.03831 z m 10.778935,-13.252786 c 1.142921,-0.572709 1.540282,-1.554887 1.079307,-2.66778 -0.182142,-0.439732 -0.518785,-0.871509 -0.748088,-0.959504 -0.740312,-0.284083 -3.432406,-0.48238 -4.139502,-0.304911 -0.661913,0.166129 -0.686797,0.24329 -0.686797,2.129661 0,1.318265 0.107976,2.000855 0.330729,2.090737 0.797168,0.321665 3.291813,0.149016 4.164351,-0.288203 z"
               id="path4687"
               inkscape:connector-curvature="0" />
            <path
               style="fill:#2e2e2e;stroke-width:0.26458332"
               d="m -13.812998,85.8397 c -38.17061,-5.624457 -64.28318,-20.079867 -74.739016,-41.374065 -3.028516,-6.167829 -4.547987,-11.919506 -5.067552,-19.182292 l -0.29338,-4.101041 4.141099,-16.5002981 c 2.277603,-9.075166 4.08086,-16.6951659 4.007237,-16.9333329 -0.07363,-0.23817 -0.492736,-2.814286 -0.931357,-5.724703 -0.438624,-2.910416 -1.573901,-10.292291 -2.522839,-16.404166 -0.948939,-6.111875 -1.897116,-12.243594 -2.107057,-13.626042 -0.209945,-1.382448 -0.86785,-5.668698 -1.462017,-9.525 -0.594166,-3.856302 -1.105855,-7.307699 -1.137086,-7.669773 l -0.05678,-0.658316 9.789583,0.084 c 26.871983,0.230582 42.794568,-2.42267 67.396635,-11.230602 l 5.484135,-1.963407 3.1148235,1.308526 c 13.3141641,5.593234 30.0724545,9.275829 50.0783645,11.004603 5.195774,0.448985 20.950799,0.884248 25.758757,0.711639 1.579763,-0.05672 2.966876,-0.0026 3.082472,0.120208 0.115597,0.122831 0.0462,1.29489 -0.15422,2.604577 -0.200419,1.309688 -1.142397,7.381875 -2.093283,13.49375 -0.950888,6.111875 -2.083313,13.434219 -2.516499,16.271875 -0.43319,2.837657 -1.3711,8.929839 -2.08425,13.538182 l -1.296636,8.378809 1.272839,5.6441075 c 0.700061,3.104261 1.882749,8.3230164 2.628194,11.5972352 0.745447,3.2742187 2.026285,8.9296873 2.846308,12.5677083 l 1.490948,6.614583 -0.30321,4.101042 c -0.493226,6.67108 -1.885077,12.071562 -4.552341,17.663388 -9.103897,19.086009 -31.733094,32.349048 -64.428037,37.761463 -5.6696134,0.938564 -11.907811,1.743913 -13.096875,1.690803 -0.363802,-0.01625 -1.375833,-0.13481 -2.248958,-0.263464 z m 6.6414541,-3.397165 C 20.60257,78.88739 41.189741,70.683195 53.680596,58.192337 62.046261,49.826675 66.466914,40.253611 67.298015,28.703387 L 67.556439,25.11197 65.165005,14.548179 C 63.849719,8.7380929 61.986941,0.53924277 61.025501,-3.6714872 l -1.748073,-7.6558718 0.857948,-5.573295 c 0.471869,-3.065312 1.077355,-7.002044 1.345523,-8.748294 0.268168,-1.74625 1.207034,-7.818438 2.086369,-13.49375 3.6693,-23.681968 3.56316,-22.917547 3.212193,-23.134458 -0.182557,-0.112826 -3.924448,-0.285999 -8.315315,-0.384831 -26.847038,-0.604279 -48.235256,-4.232389 -65.8452981,-11.169415 -1.9922755,-0.784807 -3.8573019,-1.426921 -4.1445019,-1.426921 -0.287203,0 -2.10997,0.580609 -4.050599,1.290246 -11.155177,4.079147 -23.331993,7.432923 -32.74218,9.017952 -10.035556,1.690365 -15.877881,2.15029 -29.126857,2.292945 -6.330156,0.06816 -11.792074,0.183801 -12.137599,0.256985 -0.75501,0.159911 -0.838922,-0.771295 0.987118,10.954372 0.736515,4.729427 2.178706,14.075833 3.204866,20.769791 1.026163,6.693959 2.039274,13.242396 2.251358,14.552084 0.826852,5.10604 1.078172,3.51831 -3.392334,21.4312497 l -4.093966,16.4041663 0.234455,3.501734 c 1.016725,15.185507 8.784346,28.227269 22.735685,38.173001 12.808016,9.130673 30.799511,15.588018 53.313542,19.134807 3.148372,0.495986 2.639187,0.501558 7.1706211,-0.07847 z M -13.812998,76.162718 C -33.321767,71.280677 -47.554403,65.505566 -59.188323,57.750978 -72.410833,48.937519 -80.099037,38.564096 -82.535971,26.248819 l -0.568108,-2.870984 0.87548,-6.257141 c 1.752533,-12.5255237 3.024102,-17.40720523 7.298491,-28.019667 l 0.453128,-1.125026 63.000893,0.06669 63.000892,0.06669 1.92282,8.0697917 c 2.453682,10.2977473 3.827201,17.1165043 4.697992,23.3229443 0.676667,4.822822 0.682845,4.993298 0.273198,7.539003 -1.096859,6.816354 -3.20444,12.28761 -6.783996,17.611172 -9.937162,14.778678 -29.055756,24.979193 -58.4016457,31.15955 -4.2358943,0.892099 -4.7759593,0.918991 -7.0461713,0.350872 z M -26.94021,15.477914 c 5.904568,-1.361244 9.513773,-7.4190409 8.536688,-14.3282246 -0.543245,-3.8413901 -2.69471,-7.1945844 -5.551167,-8.6518406 -4.625084,-2.3595409 -10.729791,-1.4417569 -13.867937,2.0849114 -1.325168,1.4892338 -2.485136,3.8990905 -2.874497,5.97182576 -0.374872,1.99560654 -0.144275,5.92960884 0.449186,7.66313234 0.905034,2.6436427 3.014816,5.1461377 5.329166,6.3211317 2.161749,1.097515 5.557575,1.4972 7.978561,0.939064 z m -4.006419,-5.8272229 c -0.255686,-0.1488996 -0.731936,-0.7703556 -1.058334,-1.3810165 -0.52751,-0.986917 -0.593452,-1.4924882 -0.593452,-4.5498729 0,-2.1703163 0.128561,-3.80252291 0.34839,-4.42311105 0.655201,-1.84967565 2.580315,-2.82819745 4.033766,-2.05033295 0.280998,0.1503865 0.775377,0.7754646 1.098619,1.3890625 0.519541,0.9862264 0.587962,1.51501207 0.58987,4.5587946 0.0031,5.0024506 -0.782648,6.7545426 -3.020663,6.7352492 -0.513324,-0.00442 -1.142513,-0.1298734 -1.398196,-0.2787729 z M 14.605643,15.257074 C 17.943476,14.218225 20.515737,11.764402 21.783752,8.4094804 22.500527,6.5130291 22.7735,2.2710412 22.319121,0.08985592 21.400226,-4.3211848 18.013056,-7.7911529 13.856746,-8.579381 6.6362374,-9.9487215 0.95065377,-5.776872 0.05467406,1.5480223 -0.48064152,5.9243735 0.50709833,9.4922189 2.9882841,12.144617 6.0125245,15.377539 10.422467,16.559025 14.605643,15.257074 Z M 9.9472597,9.6207932 C 8.5754983,8.9580331 7.799994,5.2821768 8.2521219,1.585908 c 0.4068339,-3.3259845 1.2855337,-4.6129813 3.1495211,-4.6129813 1.121796,0 2.271551,1.0903452 2.672482,2.5343908 0.376203,1.35498681 0.372067,5.7928192 -0.007,7.5605719 C 13.552496,9.4673401 11.83389,10.532301 9.9472703,9.6207932 Z M -54.699934,15.056324 c 0.110612,-0.123213 0.763214,-2.426679 1.450229,-5.118814 1.643113,-6.4386936 2.210131,-8.5022425 2.38401,-8.6761241 0.07883,-0.078827 0.143322,2.9679583 0.143322,6.7706346 0,6.5648335 0.02585,6.9277835 0.511773,7.1878485 0.281474,0.15064 1.658519,0.273891 3.060102,0.273891 1.401582,0 2.778627,-0.123251 3.060102,-0.273891 0.493868,-0.264311 0.511773,-0.67437 0.511773,-11.721042 0,-8.5505608 -0.08034,-11.5274911 -0.3175,-11.7646503 -0.45761,-0.4576101 -9.037826,-0.4455504 -9.41359,0.013229 -0.228454,0.2789264 -0.815652,2.3826206 -2.732534,9.7895834 -0.141224,0.5457031 -0.35297,0.9921875 -0.470543,0.9921875 -0.117573,0 -0.849289,-2.33514639 -1.626037,-5.1892121 -0.776748,-2.8540657 -1.577435,-5.3543782 -1.779304,-5.55625 -0.527767,-0.5277644 -8.858007,-0.5329449 -9.295516,-0.00577 -0.215604,0.2597864 -0.28044,3.585509 -0.230833,11.8401042 l 0.06898,11.4788343 h 2.778125 2.778125 l 0.132291,-7.0114585 c 0.07276,-3.8563021 0.215406,-6.8328646 0.31699,-6.6145834 0.101581,0.2182813 0.963149,3.3139063 1.914593,6.8791667 0.951442,3.5652602 1.89706,6.6049262 2.101374,6.7548152 0.436116,0.319942 4.360016,0.279051 4.654066,-0.0485 z m 49.2213107,-8.690689 0.1322916,-8.73125 2.2489584,-0.1322917 2.2489583,-0.1322916 0.0760545,-2.6067862 c 0.0494453,-1.694815 -0.0313108,-2.7361488 -0.2308358,-2.9765625 -0.2503011,-0.3015932 -1.7522957,-0.3690302 -8.1458435,-0.3657256 -4.3114282,0.00212 -7.9921732,0.101264 -8.1794352,0.2200778 -0.250383,0.1588611 -0.320394,0.9454277 -0.264583,2.9725117 l 0.07589,2.7564848 2.248958,0.1322916 2.248959,0.1322917 0.06682,8.4666667 c 0.03675,4.6566663 0.123642,8.6189663 0.193095,8.8051133 0.0958,0.256763 0.973664,0.32062 3.6373489,0.264584 l 3.5110711,-0.07386 z m 38.3050653,4.416195 0.07278,-4.3150554 0.972378,0.081722 0.972379,0.081722 1.611082,4.2333334 1.611082,4.233333 3.937783,0.07348 c 2.165784,0.04041 4.037772,-0.02651 4.159978,-0.148712 0.122206,-0.122205 -0.563499,-2.119804 -1.523788,-4.439105 -0.96029,-2.3193025 -1.849374,-4.4785671 -1.975747,-4.7983663 -0.197956,-0.5009436 -0.05095,-0.7127214 1.06172,-1.5294928 2.294591,-1.6843851 3.23719,-4.7735675 2.388618,-7.8282191 -0.612452,-2.204683 -3.188065,-4.1628351 -6.210371,-4.7215399 -2.211824,-0.4088765 -13.959568,-0.384974 -14.373789,0.029247 -0.23713,0.2371301 -0.3175,3.2063584 -0.3175,11.7298602 0,6.2768004 0.08259,11.4949469 0.183523,11.5958829 0.100936,0.100939 1.797577,0.150548 3.770313,0.110244 l 3.586789,-0.07328 z m 0.113514,-11.73073354 0.0783,-1.94587816 1.711629,-0.080277 c 2.789618,-0.1308338 3.712329,0.3439663 3.712329,1.910252 0,1.42313288 -0.740489,1.85852592 -3.347029,1.96798669 l -2.23352,0.0937948 z M -68.850385,-15.255051 c -0.06966,-0.186852 -0.156771,-3.911606 -0.193588,-8.277231 l -0.06694,-7.9375 -2.116667,-0.132291 -2.116666,-0.132292 v -2.248958 -2.248959 l 7.48484,-0.07028 7.48484,-0.07028 -0.07651,2.319243 -0.07651,2.319242 -2.116666,0.132292 -2.116667,0.132291 -0.132292,8.202084 -0.132291,8.202083 -2.849121,0.07515 c -2.132806,0.05625 -2.880961,-0.01027 -2.975766,-0.264583 z m 10.142934,0.185957 c -0.116692,-0.116692 1.322928,-4.920353 5.490038,-18.318917 l 0.925746,-2.976562 h 3.38673 3.38673 l 2.019967,6.416145 c 4.054448,12.878409 4.611949,14.732495 4.471963,14.872478 -0.07844,0.07844 -1.486958,0.142627 -3.130031,0.142627 h -2.987408 l -0.567978,-1.91823 c -0.312391,-1.055026 -0.689197,-2.067057 -0.837351,-2.248958 -0.181859,-0.223282 -1.102,-0.330729 -2.83224,-0.330729 -1.645256,0 -2.716363,0.118414 -2.991578,0.330729 -0.235794,0.181901 -0.686866,1.193932 -1.002384,2.248958 l -0.573667,1.91823 h -2.311382 c -1.271262,0 -2.372481,-0.0611 -2.447155,-0.135771 z m 10.801686,-8.997236 c 0.08479,-0.220967 0.01423,-0.965107 -0.156789,-1.653646 -1.074373,-4.325329 -1.58459,-5.017058 -2.143112,-2.905535 -0.163589,0.618464 -0.482507,1.798841 -0.708702,2.623058 -0.569709,2.075916 -0.414782,2.33788 1.38262,2.33788 1.072152,0 1.513678,-0.109096 1.625983,-0.401757 z m 11.735475,-1.572689 v -10.725554 h 2.987797 2.987799 l 2.801469,4.43177 c 1.540809,2.437474 3.121927,4.949037 3.513593,5.581248 0.391668,0.632212 0.792625,1.068975 0.891019,0.970582 0.09839,-0.09839 0.136818,-2.614586 0.0854,-5.591543 l -0.0935,-5.41265 2.475193,0.07644 2.47519,0.07644 v 10.583334 10.583333 l -2.397995,0.07542 c -2.031016,0.06388 -2.461374,0.0031 -2.812145,-0.396875 -0.498502,-0.568489 -4.85275,-7.590351 -6.48643,-10.460318 -0.641972,-1.127786 -1.256004,-2.050521 -1.364512,-2.050521 -0.108505,0 -0.190717,2.887266 -0.182684,6.416146 l 0.0146,6.416146 -2.447396,0.07608 -2.447396,0.07607 v -10.725553 z m 22.489583,-0.0099 v -10.715625 h 2.903699 2.9036965 l 0.072866,4.14543 c 0.046538,2.647646 0.1751701,4.179428 0.3560154,4.239525 0.1557338,0.05175 1.5705561,-1.813695 3.1440491,-4.145433 l 2.8608946,-4.23953 H 1.19946 c 2.0072403,0 2.6084636,0.07944 2.5116023,0.331856 -0.070041,0.182523 -1.23394,1.926167 -2.586445,3.874767 l -2.459101,3.542911 3.3518872,6.709916 c 1.8435399,3.690453 3.3518898,6.76884 3.3518898,6.840857 0,0.07202 -1.4737027,0.130943 -3.2748961,0.130943 -2.30123995,0 -3.3542102,-0.09833 -3.5416781,-0.33073 -0.1467326,-0.181901 -1.0102479,-1.967838 -1.918925,-3.96875 -0.908677,-2.000911 -1.8058183,-3.63802 -1.993646,-3.63802 -0.1878303,0 -0.8271748,0.684606 -1.4207649,1.521349 -1.0751899,1.515612 -1.0792565,1.530569 -1.0792565,3.96875 v 2.447401 h -2.9104167 -2.910417 v -10.715625 z m 21.5535857,10.388211 c -0.070768,-0.18442 -0.09748,-4.978464 -0.059357,-10.653427 l 0.069313,-10.318126 h 7.9375003 7.9375 v 2.116667 2.116667 l -4.7625,0.132291 -4.7625,0.132292 v 1.719792 1.719791 l 3.811402,0.132292 3.811403,0.132292 0.08198,1.528373 c 0.04509,0.840605 -0.02998,1.822871 -0.166833,2.182813 -0.24842,0.653394 -0.254759,0.654439 -3.971123,0.654439 h -3.722306 l 0.07774,1.918229 0.07774,1.918229 4.7625,0.132292 4.7625,0.132291 v 2.248959 2.248958 l -7.878143,0.07009 c -6.1675175,0.05487 -7.9060814,-0.0027 -8.0068136,-0.265215 z M 27.065127,-25.668424 v -10.735104 l 6.945312,0.08563 6.945313,0.08562 1.5875,0.79375 c 2.25657,1.128284 3.0842,2.394167 3.232811,4.944669 0.0958,1.644168 0.0205,2.112862 -0.501713,3.122948 -0.337937,0.653648 -1.111489,1.546617 -1.719001,1.984375 -0.607512,0.437759 -1.170263,0.947201 -1.250556,1.132094 -0.08029,0.184893 0.625126,2.187959 1.56759,4.45126 0.942467,2.263299 1.713577,4.28847 1.713577,4.50038 0,0.320998 -0.560792,0.372935 -3.360632,0.311243 l -3.360629,-0.07405 -1.491332,-3.926665 c -0.820229,-2.159664 -1.659432,-4.033076 -1.864889,-4.163134 -0.663998,-0.420328 -1.7936,-0.275501 -2.084043,0.267197 -0.151562,0.283197 -0.273892,2.173941 -0.273892,4.233333 v 3.721561 h -3.042708 -3.042708 z m 11.093577,-2.351987 c 1.285073,-0.664538 1.498436,-2.390786 0.427823,-3.461396 -0.586904,-0.586907 -0.864388,-0.649433 -2.882109,-0.649433 -2.548514,0 -2.553875,0.0047 -2.553875,2.248958 0,2.212989 0.03664,2.248959 2.290406,2.248959 1.210794,0 2.257499,-0.149082 2.717755,-0.387088 z"
               id="path4685"
               inkscape:connector-curvature="0" />
            <path
               style="fill:#010101;stroke-width:0.26458332"
               d="M -15.268207,85.445887 C -41.579889,81.205457 -61.238166,73.364795 -74.702593,61.740606 -86.423793,51.621392 -92.749743,39.051384 -93.449444,24.489593 l -0.171632,-3.571875 3.986853,-15.9506123 c 2.192766,-8.7728372 3.98685,-16.2991247 3.98685,-16.7250827 0,-0.425958 -0.715481,-5.392557 -1.589956,-11.036887 -0.874474,-5.64433 -1.945994,-12.584136 -2.381154,-15.421793 -0.435161,-2.837656 -0.97123,-6.290468 -1.191266,-7.672916 -0.220032,-1.382448 -0.577231,-3.704167 -0.793771,-5.159375 -0.21654,-1.455209 -0.573736,-3.776927 -0.793766,-5.159375 -0.220033,-1.382448 -0.572174,-3.644636 -0.782539,-5.027084 -0.210365,-1.382448 -0.459812,-2.942407 -0.554324,-3.466578 l -0.171839,-0.953038 8.957953,0.12431 c 26.631631,0.36957 42.540291,-2.255261 68.046809,-11.227306 l 5.643023,-1.984962 2.1621858,0.928732 c 11.7477248,5.046036 26.6326882,8.695854 43.3048942,10.618436 8.288004,0.955744 13.648438,1.253194 24.966125,1.385358 l 11.60467,0.13552 -0.183041,1.095285 c -0.275963,1.651315 -0.845772,5.285626 -1.727338,11.01716 -0.436459,2.837656 -0.97359,6.290469 -1.193625,7.672917 -0.220033,1.382448 -0.577231,3.704166 -0.793771,5.159375 -0.21654,1.455208 -0.561705,3.717395 -0.767035,5.027083 -0.205327,1.309687 -0.682604,4.405312 -1.060612,6.879167 -0.37801,2.473854 -0.805762,5.212291 -0.950563,6.085416 -0.857512,5.170668 -1.584394,10.250197 -1.584394,11.071908 0,0.751565 2.674327,13.0808015 3.968756,18.2968423 0.144452,0.5820834 0.860769,3.7372397 1.59182,7.0114587 0.731049,3.274218 1.512025,6.6675 1.735503,7.540625 0.61708,2.410917 0.741995,5.222838 0.402556,9.06187 -0.573742,6.488989 -1.93933,11.233172 -4.969405,17.264171 -6.945553,13.824292 -20.986001,24.431866 -41.358396,31.246318 -7.722966,2.583289 -17.6064178,4.875417 -26.0614587,6.04406 -2.1828125,0.301707 -4.7655903,0.666827 -5.7395083,0.811382 -2.282844,0.338831 -4.549971,0.288229 -7.357367,-0.164216 z M -2.7004983,82.034952 C 30.611255,77.062103 53.21177,64.751745 62.63227,46.448605 65.843815,40.208878 67.475601,33.820215 67.570295,27.115567 67.607051,24.513059 67.465226,23.722312 65.058764,13.11251 63.655996,6.9278746 62.340194,1.1533433 62.134761,0.28021833 61.929328,-0.59290667 61.253373,-3.5415186 60.63264,-6.2722514 59.378343,-11.790166 59.384264,-11.056738 60.53602,-18.240615 c 0.209976,-1.309687 0.693211,-4.405312 1.073857,-6.879167 0.380645,-2.473854 0.860089,-5.569479 1.065429,-6.879166 0.326083,-2.079808 0.878639,-5.652572 2.38351,-15.41153 0.207531,-1.345821 0.545679,-3.548478 0.751443,-4.894791 0.538009,-3.520215 1.175184,-7.574833 1.378402,-8.771374 0.271002,-1.595642 -0.118316,-1.746086 -4.521496,-1.747235 -27.22264,-0.0071 -52.499067,-4.110463 -70.7515333,-11.485755 -1.6514445,-0.667301 -3.1848527,-1.213274 -3.4075737,-1.213274 -0.222721,0 -1.252789,0.311235 -2.28904,0.691632 -13.770976,5.055192 -27.547158,8.761357 -38.132012,10.258541 -9.336829,1.320657 -21.725787,2.095355 -31.485417,1.96882 -3.4925,-0.04528 -6.512859,0.0217 -6.71191,0.14881 -0.384993,0.245877 -0.38644,0.226063 0.359661,4.923864 0.827453,5.210032 1.242671,7.880874 1.604187,10.31875 0.205005,1.382448 0.913387,5.966354 1.574181,10.186458 0.660797,4.220104 1.379432,8.863542 1.596967,10.31875 0.217532,1.455209 0.565399,3.717396 0.773033,5.027084 0.207635,1.309687 0.645438,4.185973 0.972897,6.391743 l 0.595378,4.010496 -4.05548,16.230129 -4.055483,16.230132 0.153503,3.571875 c 0.631582,14.696294 8.040981,27.734 21.518108,37.863631 9.711055,7.298995 24.253007,13.590855 39.649958,17.155335 1.309687,0.303199 2.8575,0.662702 3.439583,0.798894 2.078755,0.486373 5.078114,1.054422 8.334375,1.578454 1.819011,0.292732 3.604948,0.587322 3.96875,0.654642 1.351968,0.250177 6.6207167,-0.119388 10.9802087,-0.770181 z M -14.077582,75.91224 C -26.69256,72.753335 -37.623805,68.947354 -46.753623,64.535281 -67.082214,54.711289 -79.059502,42.002131 -82.179765,26.944429 c -0.686681,-3.313776 -0.688528,-3.893235 -0.02741,-8.602763 1.876105,-13.3645088 2.755252,-16.8987627 6.911504,-27.7848852 l 0.883891,-2.3151038 h 62.887241 62.887241 l 0.569124,2.4473955 c 0.313018,1.3460677 1.206481,5.1263021 1.985473,8.40052083 C 55.68657,6.5261127 56.51783,10.475707 57.202778,14.70001 c 1.460379,9.006628 1.500407,9.647484 0.834589,13.361458 -2.690995,15.010527 -12.45761,26.867041 -29.397077,35.68758 -9.595498,4.996468 -21.9151169,9.104365 -35.8382804,11.950046 -3.6171606,0.739291 -4.6505866,0.771308 -6.8795956,0.213146 z M -27.301525,15.734986 c 2.210437,-0.408623 4.276288,-1.540888 5.852538,-3.207703 2.409304,-2.5477307 3.362627,-5.1913415 3.366929,-9.336648 0.0031,-3.01805975 -0.613858,-5.310161 -1.987706,-7.3842959 -3.083862,-4.6557804 -9.571779,-6.2101361 -14.958801,-3.5837839 -4.357307,2.1243343 -6.7797,7.62813326 -5.947476,13.5129693 0.407818,2.8837599 1.47575,5.1398305 3.293387,6.9574645 2.756787,2.756789 6.302875,3.795903 10.381129,3.041997 z m -3.963506,-6.7372257 c -0.944319,-1.0189369 -1.290733,-2.9348245 -1.141619,-6.3138447 0.17553,-3.9776003 0.980061,-5.4464056 2.983235,-5.4464056 2.064988,0 2.652556,1.419643 2.628159,6.35 -0.0154,3.1124049 -0.09053,3.7123264 -0.584041,4.6637231 -0.624488,1.2038912 -0.983433,1.4216936 -2.342975,1.4216936 -0.643277,0 -1.103832,-0.2015543 -1.542759,-0.6751664 z M 14.101795,15.607724 C 17.752272,14.77744 20.76672,11.96126 22.082499,8.1519323 22.605186,6.6386876 22.697284,5.860085 22.684997,3.0583433 22.671768,0.04410417 22.603857,-0.40958746 21.91846,-2.0618575 19.893072,-6.9444121 14.804274,-9.7281093 9.4310841,-8.8927562 4.7168308,-8.1598498 1.6484288,-5.4128662 0.23942467,-0.66394729 -0.39887204,1.4873824 -0.34021921,6.0596655 0.35203662,8.114597 c 1.34420508,3.990208 4.37286668,6.731251 8.32454838,7.534 2.204529,0.447831 3.313269,0.439478 5.42521,-0.04087 z M 9.5131631,8.8818225 C 7.6259272,6.6389707 8.0325918,-1.3744488 10.089513,-2.4752795 c 1.385745,-0.7416271 3.050614,-0.088389 3.581291,1.4051783 0.754968,2.1248158 0.614786,7.78315 -0.233457,9.4234714 -0.810813,1.567942 -2.821655,1.8387328 -3.9241839,0.5284523 z M -63.696265,14.981987 c 0.164468,-0.307314 0.282237,-2.97634 0.294781,-6.6807291 0.01148,-3.3929267 0.06319,-6.0498937 0.114887,-5.9043729 0.0517,0.1455208 0.706699,2.5863021 1.455555,5.4239583 0.748855,2.8376567 1.54155,5.7291027 1.761543,6.4254327 l 0.399989,1.266058 2.52726,-0.07543 c 1.922862,-0.05739 2.576399,-0.170347 2.732731,-0.472308 0.113008,-0.218281 0.631507,-2.06375 1.152223,-4.101041 0.520716,-2.037292 1.235837,-4.7757295 1.589159,-6.085417 l 0.642406,-2.38125 0.02299,5.953125 c 0.01265,3.274219 0.09479,6.221016 0.182539,6.548437 0.154948,0.578194 0.257291,0.595313 3.558952,0.595313 3.090114,0 3.424336,-0.04656 3.673309,-0.511773 0.294907,-0.55104 0.394464,-21.897803 0.107127,-22.9699978 -0.15829,-0.5906559 -0.198528,-0.5953125 -5.145564,-0.5953125 h -4.986025 l -0.260072,0.9921875 c -1.093709,4.1725691 -2.173994,8.26448528 -2.354684,8.9190883 -0.118893,0.4307337 -0.288742,0.6657234 -0.377446,0.5221975 -0.0887,-0.1435232 -0.719304,-2.34140904 -1.401334,-4.8841925 -0.682032,-2.5427807 -1.350497,-4.8315985 -1.485477,-5.08626 -0.220088,-0.4152318 -0.746474,-0.4630208 -5.100042,-0.4630208 -4.810765,0 -4.856065,0.00537 -5.014161,0.5953125 -0.287338,1.0721948 -0.18778,22.4189578 0.107127,22.9699978 0.242567,0.453226 0.574455,0.511773 2.901117,0.511773 2.326661,0 2.658549,-0.05855 2.901108,-0.511773 z m 58.2083336,0 C -5.3157247,14.660214 -5.21404,11.369557 -5.21404,6.1184454 v -8.3517687 h 2.06375 c 1.2523602,0 2.18857777,-0.1248278 2.38125,-0.3175 0.36136527,-0.3613653 0.4430051,-5.1605604 0.0970598,-5.7055518 -0.1654493,-0.2606437 -2.078019,-0.3190716 -8.6610534,-0.2645833 l -8.4487144,0.069927 -0.07757,2.5135417 c -0.118208,3.8303914 -0.202168,3.7041667 2.463858,3.7041667 h 2.243918 l 0.0036,8.2682291 c 0.0021,4.5475259 0.07541,8.5361199 0.163153,8.8635409 0.155342,0.57966 0.252391,0.595313 3.6912444,0.595313 3.2209052,0 3.5558095,-0.04504 3.8056,-0.511773 z m 38.4778754,0.09326 c 0.08833,-0.230182 0.160599,-2.194714 0.160599,-4.365625 V 6.76251 h 0.765443 c 0.420994,0 0.820883,0.1488281 0.888645,0.3307292 1.914835,5.1402828 2.964408,7.8060658 3.179813,8.0763188 0.201858,0.253257 1.297302,0.319154 4.398184,0.264583 l 4.129374,-0.07267 -0.06924,-0.630362 C 46.404684,14.38441 45.766403,12.658003 45.024363,10.894648 44.282324,9.1312955 43.453416,7.1265634 43.18235,6.4396892 L 42.6895,5.1908294 43.866941,4.3807282 c 2.272593,-1.5635843 3.259955,-4.55776543 2.520045,-7.6420557 -0.424767,-1.7706287 -2.130713,-3.6981791 -4.034385,-4.5584613 -1.354619,-0.6121585 -1.632072,-0.6336956 -9.177208,-0.7123297 -6.184448,-0.064453 -7.82533,-0.010187 -7.999595,0.2645833 -0.248812,0.392303 -0.305964,22.2503122 -0.06057,23.1659822 0.155999,0.582113 0.243295,0.595313 3.936828,0.595313 3.200321,0 3.801825,-0.06393 3.937892,-0.418515 z M 33.150543,-1.0426983 V -2.76249 h 2.075659 c 2.357988,0 2.951425,0.3602673 2.951425,1.79176892 0,1.23157191 -0.783469,1.64781441 -3.101581,1.64781441 H 33.150543 Z M -68.71404,-23.371682 c 0,-7.20934 -0.04938,-8.192725 -0.418515,-8.334375 -0.230182,-0.08833 -1.242214,-0.1606 -2.248959,-0.1606 h -1.830443 v -2.116666 -2.116667 h 7.276042 7.276042 v 2.116667 2.116666 h -1.931459 c -1.149466,0 -2.060003,0.128545 -2.248958,0.3175 -0.232974,0.232974 -0.3175,2.451807 -0.3175,8.334375 v 8.016875 h -2.778125 -2.778125 z m 10.318157,7.456323 c 0.133948,-0.405765 0.716114,-2.285569 1.293702,-4.177339 0.577585,-1.891771 1.921907,-6.268702 2.987378,-9.726515 l 1.937221,-6.286931 3.28689,0.06922 3.28689,0.06922 2.867731,9.128125 c 1.577255,5.020468 3.038533,9.693672 3.24729,10.384896 l 0.379552,1.25677 h -3.028447 c -2.09391,0 -3.028447,-0.09325 -3.028447,-0.302204 0,-0.166211 -0.243168,-1.118711 -0.540372,-2.116667 l -0.540369,-1.814462 h -3.148182 c -2.201968,0 -3.212515,0.09798 -3.362232,0.325998 -0.117729,0.179298 -0.455835,1.102032 -0.751343,2.050521 l -0.537289,1.724523 -2.296758,0.0763 -2.296756,0.0763 z m 10.429994,-7.64523 c 0.57838,-0.221946 0.522134,-0.900886 -0.315483,-3.808151 -0.594969,-2.065065 -0.815986,-2.513542 -1.238714,-2.513542 -0.42197,0 -0.646752,0.452179 -1.249508,2.513542 -0.816898,2.793717 -0.904853,3.596185 -0.4158,3.793522 0.478351,0.193019 2.727994,0.203239 3.219505,0.01463 z m 12.060182,-2.088359 V -36.09999 l 2.844271,0.0024 2.844271,0.0024 1.5875,2.547463 c 0.873125,1.401104 2.436257,3.930116 3.473627,5.620028 1.037371,1.68991 2.049402,3.072564 2.248959,3.072564 0.299013,0 0.345953,-0.988914 0.26688,-5.622396 l -0.09595,-5.622396 h 2.278766 2.278764 v 10.451042 10.451042 h -2.363235 c -2.278195,0 -2.381562,-0.02619 -2.872618,-0.727604 -0.714304,-1.020308 -6.193433,-10.006767 -6.961852,-11.418308 -0.349022,-0.641136 -0.75321,-1.176917 -0.898194,-1.190625 -0.170987,-0.01617 -0.231122,2.322337 -0.171151,6.655808 l 0.09246,6.680729 h -2.276245 -2.276245 v -10.451042 z m 22.489584,0 V -36.09999 h 2.645833 2.6458333 l 0.00405,3.902604 c 0.00407,3.923742 0.1602898,4.760675 0.8399171,4.499877 0.2025147,-0.07771 1.6074337,-2.000062 3.122041,-4.271888 l 2.7538363,-4.130593 h 2.4913404 2.4913432 l -0.3902975,0.595313 c -0.2146644,0.327421 -1.2999217,1.900846 -2.41167973,3.496497 -1.11176064,1.595652 -2.02138227,3.152971 -2.02138227,3.460711 0,0.307739 0.58643308,1.740643 1.30318404,3.184231 0.71674831,1.443588 2.14814146,4.325033 3.18086846,6.40321 l 1.8776871,3.778502 -3.2353303,-0.07433 -3.235333,-0.07434 -1.7429877,-3.835054 c -1.0838841,-2.384837 -1.9062197,-3.866486 -2.1746448,-3.91818 -0.2714254,-0.05227 -0.8564271,0.487376 -1.5759853,1.453803 -1.1296041,1.517145 -1.1455135,1.568435 -1.2360196,3.984327 l -0.091686,2.447395 h -2.6202927 -2.620293 z m 21.4312497,0 V -36.09999 h 7.8052083 7.805208 v 1.984375 1.984375 h -4.383018 c -2.515352,0 -4.601094,0.11671 -4.894792,0.273891 -0.417642,0.223518 -0.511773,0.562457 -0.511773,1.842776 0,1.280318 0.09413,1.619258 0.511773,1.842775 0.281474,0.15064 2.072629,0.273891 3.980341,0.273891 h 3.468569 l -0.07774,1.918229 -0.07774,1.91823 -3.836458,0.132291 -3.836458,0.132292 -0.0796,1.845797 c -0.06511,1.509755 0.0043,1.907151 0.381299,2.182812 0.330025,0.241319 1.723731,0.337016 4.908245,0.337016 h 4.447347 v 2.116667 2.116666 H 15.820335 8.0151267 Z m 19.0536113,0.595312 c 0.0021,-5.420651 0.07726,-10.130713 0.167275,-10.466808 l 0.163661,-0.611076 6.910329,0.08191 6.910332,0.08191 1.387853,0.731448 c 1.92381,1.013918 2.791069,2.379761 2.933737,4.620337 0.145061,2.278147 -0.308874,3.570332 -1.655474,4.712504 -0.593238,0.503182 -1.28307,1.089798 -1.532961,1.303597 -0.53503,0.457753 -0.537779,0.448384 1.730258,5.896176 l 1.459514,3.505729 h -3.255288 -3.255288 l -0.668711,-1.785937 c -2.167961,-5.790012 -2.353812,-6.183974 -3.040456,-6.445036 -0.372573,-0.14165 -1.013908,-0.183639 -1.425189,-0.09331 l -0.747787,0.16424 v 4.08002 4.080018 h -3.042708 -3.042708 l 0.0036,-9.855729 z m 11.114186,-2.714717 c 1.456359,-0.753113 1.769856,-2.484269 0.679603,-3.752821 -0.614402,-0.714878 -0.729477,-0.742358 -3.108854,-0.742358 h -2.470838 l -0.07804,2.09328 c -0.04293,1.151303 -0.01691,2.252631 0.05784,2.447396 0.19685,0.51298 3.90665,0.478677 4.920293,-0.0455 z"
               id="path4683"
               inkscape:connector-curvature="0" />
          </g>
        </g>
      </g>
    </g>
  </g>
</svg>
