<?xml version="1.0" encoding="UTF-8" standalone="no"?>
<!-- Created with Inkscape (http://www.inkscape.org/) -->

<svg
   xmlns:dc="http://purl.org/dc/elements/1.1/"
   xmlns:cc="http://creativecommons.org/ns#"
   xmlns:rdf="http://www.w3.org/1999/02/22-rdf-syntax-ns#"
   xmlns:svg="http://www.w3.org/2000/svg"
   xmlns="http://www.w3.org/2000/svg"
   xmlns:sodipodi="http://sodipodi.sourceforge.net/DTD/sodipodi-0.dtd"
   xmlns:inkscape="http://www.inkscape.org/namespaces/inkscape"
   width="47.625mm"
   height="47.625mm"
   viewBox="0 0 47.625 47.625"
   version="1.1"
   id="svg8"
   inkscape:version="0.92.1 r15371"
   sodipodi:docname="tomigra.svg">
  <defs
     id="defs2" />
  <sodipodi:namedview
     id="base"
     pagecolor="#ff7659"
     bordercolor="#666666"
     borderopacity="1.0"
     inkscape:pageopacity="0"
     inkscape:pageshadow="2"
     inkscape:zoom="1.2861069"
     inkscape:cx="85.563877"
     inkscape:cy="-73.234959"
     inkscape:document-units="mm"
     inkscape:current-layer="g5244"
     showgrid="false"
     fit-margin-top="0"
     fit-margin-left="0"
     fit-margin-right="0"
     fit-margin-bottom="0"
     inkscape:window-width="1536"
     inkscape:window-height="841"
     inkscape:window-x="-8"
     inkscape:window-y="-8"
     inkscape:window-maximized="1" />
  <metadata
     id="metadata5">
    <rdf:RDF>
      <cc:Work
         rdf:about="">
        <dc:format>image/svg+xml</dc:format>
        <dc:type
           rdf:resource="http://purl.org/dc/dcmitype/StillImage" />
        <dc:title></dc:title>
      </cc:Work>
    </rdf:RDF>
  </metadata>
  <g
     inkscape:label="Layer 1"
     inkscape:groupmode="layer"
     id="layer1"
     transform="translate(198.76973,89.924294)">
    <g
       id="g4496"
       transform="translate(-171.41717,58.14693)">
      <g
         id="g4538"
         transform="translate(145.65313,113.63854)">
        <g
           id="g4567"
           transform="translate(-190.86895,62.30846)">
          <g
             id="g5155">
            <g
               id="g5184">
              <g
                 id="g5215"
                 transform="translate(-0.2057242,-0.20572424)">
                <g
                   id="g5244">
                  <path
                     style="fill:#f0e09c;stroke-width:0.26458332"
                     d="m 30.018285,-277.4841 c -1.895406,-2.78103 -2.734222,-6.54551 -2.168579,-9.73225 1.356592,-7.64284 6.637358,-12.24326 14.063461,-12.25162 6.411421,-0.007 11.186991,3.26023 13.484146,9.22584 0.699514,1.81662 0.771676,2.30326 0.771676,5.20407 0,3.94188 -0.289536,4.98111 -2.225741,7.98886 l -0.552384,0.85808 -11.244792,0.001 -11.244791,10e-4 -0.882996,-1.29557 z m -4.937838,-0.51859 c -0.99703,-0.61586 -1.610227,-1.30177 -1.940599,-2.17071 -0.178326,-0.46904 -0.583693,-0.77533 -1.316793,-0.99497 -1.509875,-0.45237 -2.695733,-1.87922 -2.695733,-3.24356 0,-1.24608 0.522893,-2.37262 1.419879,-3.05904 0.371016,-0.28393 1.026857,-1.45058 1.557293,-2.77023 1.246015,-3.0999 2.45652,-4.83233 5.202267,-7.44526 3.42991,-3.26401 6.733088,-4.90668 11.53202,-5.7349 l 2.645833,-0.45662 0.07898,-0.91879 c 0.0696,-0.80971 -0.03992,-0.99574 -0.922436,-1.56683 -1.398957,-0.9053 -1.461023,-1.51632 -0.164871,-1.62311 0.944928,-0.0779 1.006083,-0.13523 0.972638,-0.91242 -0.01963,-0.45614 -0.304864,-1.73607 -0.633856,-2.84428 -0.583902,-1.96688 -0.618395,-2.01492 -1.446537,-2.01492 -0.997373,0 -2.601947,-0.99734 -2.737567,-1.70156 -0.06989,-0.3629 0.01657,-0.4474 0.328897,-0.32142 0.233041,0.094 0.616155,0.24848 0.851365,0.3433 0.372236,0.15007 0.385038,0.0928 0.09879,-0.44207 -0.270051,-0.5046 -0.260794,-0.66555 0.05176,-0.90002 0.209344,-0.15704 0.464653,-0.50912 0.567355,-0.7824 0.156173,-0.41557 0.348322,-0.46593 1.174228,-0.30773 0.543124,0.10403 1.225624,0.15962 1.516666,0.12353 1.962842,-0.24339 2.985573,-0.0868 3.877934,0.59387 0.639794,0.48799 1.040188,0.63146 1.301239,0.46625 0.572815,-0.36253 0.773952,-0.29649 0.773952,0.25411 0,0.27547 0.178593,0.56939 0.396875,0.65315 0.565573,0.21703 0.490513,0.68048 -0.148498,0.91687 -0.491971,0.18199 -0.55427,0.46105 -0.636262,2.85008 -0.05201,1.51559 -0.256032,3.04358 -0.476985,3.5724 -0.370864,0.8876 -1.822784,2.35455 -2.33043,2.35455 -0.134356,0 -0.244284,0.5223 -0.244284,1.16067 v 1.16067 l 1.785938,0.33111 c 4.811143,0.89198 8.496551,2.81814 11.843554,6.18996 2.484901,2.50333 4.043908,4.99183 5.032552,8.03299 0.249831,0.7685 0.694579,1.56561 0.988333,1.77137 2.173814,1.5226 1.942375,4.9302 -0.410689,6.04681 -0.512114,0.24301 -1.050639,0.44184 -1.196721,0.44184 -0.146079,0 -0.583962,0.54324 -0.973071,1.20721 -0.878925,1.49977 -2.030439,2.23008 -3.518302,2.23138 -1.485993,0.001 -1.59175,-0.34956 -0.819214,-2.71789 0.89748,-2.75137 0.839187,-6.60084 -0.146201,-9.65478 -0.388149,-1.20296 -0.633365,-2.30429 -0.544922,-2.4474 0.215955,-0.34942 1.351295,-0.3298 2.0652,0.0357 0.317854,0.16273 1.03183,0.72827 1.586608,1.25677 l 1.008692,0.96091 -0.292933,-0.77599 c -0.566833,-1.50156 -2.664815,-4.33281 -4.478396,-6.04365 -3.32567,-3.13727 -7.492087,-4.87177 -12.327303,-5.13194 -7.13071,-0.38367 -13.591285,2.74561 -17.579648,8.51498 -0.766058,1.10815 -1.338036,2.0696 -1.271061,2.13658 0.06697,0.067 0.644845,-0.17724 1.284157,-0.54269 1.113754,-0.63666 2.090524,-0.84513 2.419314,-0.51634 0.08497,0.085 -0.07218,0.81334 -0.349225,1.6186 -1.153568,3.3529 -1.131939,7.92407 0.05247,11.08969 0.298228,0.79709 0.475818,1.62232 0.394645,1.83386 -0.214635,0.55933 -2.23701,0.49143 -3.206904,-0.10767 z"
                     id="path5258"
                     inkscape:connector-curvature="0" />
                  <path
                     style="fill:#f6d059;stroke-width:0.26458332"
                     d="m 31.033572,-276.58376 c 0,-0.21795 -0.398859,-0.96209 -0.886354,-1.65365 -1.666852,-2.3646 -2.342993,-5.84695 -1.7756,-9.14493 0.179977,-1.04612 0.479176,-2.19969 0.664888,-2.56349 0.185711,-0.36381 0.420561,-1.0085 0.521887,-1.43266 0.101326,-0.42417 0.444928,-1.11506 0.763559,-1.53533 2.181664,-2.87759 3.753523,-4.10085 6.929329,-5.39262 1.613789,-0.65641 2.192503,-0.75266 4.497916,-0.7481 5.002358,0.01 9.152258,2.1142 11.627671,5.89604 1.715396,2.62072 2.075238,3.8812 2.202788,7.71612 0.125066,3.76012 -0.233918,5.52085 -1.5143,7.42729 -0.415431,0.61856 -0.694635,1.28282 -0.620456,1.47612 0.110839,0.28885 -1.873705,0.35147 -11.138228,0.35147 -9.836401,0 -11.2731,-0.0505 -11.2731,-0.39626 z m -5.748006,-1.31831 c -0.533605,-0.23198 -1.205654,-0.92188 -1.794068,-1.84172 -0.517469,-0.80894 -1.121701,-1.47079 -1.342737,-1.47079 -0.756161,0 -1.986225,-0.81898 -2.502984,-1.66649 -0.912919,-1.49724 -0.655374,-2.71174 0.937077,-4.41893 0.475091,-0.50932 1.013049,-1.40229 1.195463,-1.98437 1.490047,-4.75473 5.820664,-9.63691 10.761405,-12.132 1.735872,-0.87662 5.280195,-1.90564 7.397268,-2.14763 1.624739,-0.18572 1.627553,-0.18755 1.736935,-1.12448 0.117105,-1.00309 0.01869,-1.14825 -1.31379,-1.9379 -1.173169,-0.69524 -1.118502,-1.25777 0.132291,-1.36129 0.951651,-0.0788 0.991127,-0.12072 0.966213,-1.0269 -0.01429,-0.51963 -0.280785,-1.78368 -0.59222,-2.80902 l -0.566246,-1.86424 -1.104665,-0.14817 c -1.113221,-0.14931 -2.346043,-0.8632 -2.55064,-1.47699 -0.08255,-0.24764 0.148179,-0.28576 0.90936,-0.15024 0.839826,0.14951 0.961557,0.11984 0.68924,-0.16801 -0.451959,-0.47774 -0.416271,-1.03751 0.06615,-1.03751 0.246944,0 0.396875,-0.24988 0.396875,-0.66146 0,-0.72729 0.346214,-0.81851 1.476095,-0.38893 0.501271,0.19058 0.984049,0.18432 1.605641,-0.0208 1.125381,-0.37141 2.272735,-0.12275 3.257686,0.70604 0.568685,0.47851 0.948182,0.60373 1.448872,0.47807 0.463399,-0.11631 0.678373,-0.063 0.678373,0.16831 0,0.18622 0.191958,0.55069 0.426574,0.80994 0.397605,0.43935 0.379638,0.48314 -0.264583,0.64483 -0.688531,0.17281 -0.691158,0.18371 -0.691158,2.86685 0,3.19786 -0.555345,4.64491 -2.186088,5.69622 -0.92552,0.59667 -0.983256,0.70821 -0.821732,1.5875 0.20982,1.14219 0.338447,1.23622 1.990957,1.45544 3.085204,0.40926 7.318095,2.33551 10.283921,4.67986 2.569067,2.03073 5.844029,6.88382 6.49656,9.62711 0.103841,0.43656 0.643599,1.29273 1.19946,1.90259 1.142976,1.25401 1.42694,2.06391 1.181804,3.3706 -0.196633,1.04814 -1.58174,2.39694 -2.717663,2.64643 -0.544324,0.11956 -0.927497,0.49653 -1.38907,1.3666 -0.692994,1.30631 -2.093267,2.22615 -3.378129,2.2191 -1.453925,-0.008 -1.547442,-0.27544 -0.845524,-2.41829 0.531022,-1.62114 0.632921,-2.44769 0.614675,-4.98599 -0.01849,-2.57421 -0.131193,-3.36126 -0.731888,-5.11156 -0.390509,-1.13787 -0.641532,-2.17967 -0.557829,-2.31511 0.460698,-0.74542 3.087521,0.46297 4.101286,1.88667 0.955037,1.34123 0.891852,0.66669 -0.117425,-1.25357 -1.606558,-3.05667 -4.57826,-6.1965 -7.476577,-7.89959 -2.142768,-1.25911 -5.827716,-2.29245 -8.689446,-2.4367 -6.073727,-0.30615 -10.94528,1.40197 -15.133766,5.30637 -1.542433,1.43782 -4.313109,5.14218 -4.313109,5.76657 0,0.12385 0.506015,-0.12859 1.124479,-0.56098 0.618463,-0.43239 1.528822,-0.86501 2.023019,-0.96139 1.025244,-0.19994 1.018644,-0.3356 0.137034,2.81679 -0.754197,2.69679 -0.655643,6.98099 0.219113,9.525 0.48286,1.40428 0.602431,2.08106 0.409026,2.3151 -0.358592,0.43395 -1.711389,0.40432 -2.781511,-0.0609 z"
                     id="path5256"
                     inkscape:connector-curvature="0" />
                  <path
                     style="fill:#d1b25e;stroke-width:0.26458332"
                     d="m 25.285566,-277.90207 c -0.533605,-0.23198 -1.205654,-0.92188 -1.794068,-1.84172 -0.517469,-0.80894 -1.121701,-1.47079 -1.342737,-1.47079 -0.756161,0 -1.986225,-0.81898 -2.502984,-1.66649 -0.912919,-1.49724 -0.655374,-2.71174 0.937077,-4.41893 0.475091,-0.50932 1.013049,-1.40229 1.195463,-1.98437 1.490047,-4.75473 5.820664,-9.63691 10.761405,-12.132 1.735872,-0.87662 5.280195,-1.90564 7.397268,-2.14763 1.624739,-0.18572 1.627553,-0.18755 1.736935,-1.12448 0.117105,-1.00309 0.01869,-1.14825 -1.31379,-1.9379 -1.173169,-0.69524 -1.118502,-1.25777 0.132291,-1.36129 0.951651,-0.0788 0.991127,-0.12072 0.966213,-1.0269 -0.01429,-0.51963 -0.280785,-1.78368 -0.59222,-2.80902 l -0.566246,-1.86424 -1.104665,-0.14817 c -1.113221,-0.14931 -2.346043,-0.8632 -2.55064,-1.47699 -0.08255,-0.24764 0.148179,-0.28576 0.90936,-0.15024 0.839826,0.14951 0.961557,0.11984 0.68924,-0.16801 -0.451959,-0.47774 -0.416271,-1.03751 0.06615,-1.03751 0.246944,0 0.396875,-0.24988 0.396875,-0.66146 0,-0.72729 0.346214,-0.81851 1.476095,-0.38893 0.501271,0.19058 0.984049,0.18432 1.605641,-0.0208 1.125381,-0.37141 2.272735,-0.12275 3.257686,0.70604 0.568685,0.47851 0.948182,0.60373 1.448872,0.47807 0.463399,-0.11631 0.678373,-0.063 0.678373,0.16831 0,0.18622 0.191958,0.55069 0.426574,0.80994 0.397605,0.43935 0.379638,0.48314 -0.264583,0.64483 -0.688531,0.17281 -0.691158,0.18371 -0.691158,2.86685 0,3.19786 -0.555345,4.64491 -2.186088,5.69622 -0.92552,0.59667 -0.983256,0.70821 -0.821732,1.5875 0.20982,1.14219 0.338447,1.23622 1.990957,1.45544 3.085204,0.40926 7.318095,2.33551 10.283921,4.67986 2.569067,2.03073 5.844029,6.88382 6.49656,9.62711 0.103841,0.43656 0.643599,1.29273 1.19946,1.90259 1.142976,1.25401 1.42694,2.06391 1.181804,3.3706 -0.196633,1.04814 -1.58174,2.39694 -2.717663,2.64643 -0.544324,0.11956 -0.927497,0.49653 -1.38907,1.3666 -0.692994,1.30631 -2.093267,2.22615 -3.378129,2.2191 -1.453925,-0.008 -1.547442,-0.27544 -0.845524,-2.41829 0.531022,-1.62114 0.632921,-2.44769 0.614675,-4.98599 -0.01849,-2.57421 -0.131193,-3.36126 -0.731888,-5.11156 -0.390509,-1.13787 -0.641532,-2.17967 -0.557829,-2.31511 0.460698,-0.74542 3.087521,0.46297 4.101286,1.88667 0.955037,1.34123 0.891852,0.66669 -0.117425,-1.25357 -1.606558,-3.05667 -4.57826,-6.1965 -7.476577,-7.89959 -2.142768,-1.25911 -5.827716,-2.29245 -8.689446,-2.4367 -6.073727,-0.30615 -10.94528,1.40197 -15.133766,5.30637 -1.542433,1.43782 -4.313109,5.14218 -4.313109,5.76657 0,0.12385 0.506015,-0.12859 1.124479,-0.56098 0.618463,-0.43239 1.528822,-0.86501 2.023019,-0.96139 1.025244,-0.19994 1.018644,-0.3356 0.137034,2.81679 -0.754197,2.69679 -0.655643,6.98099 0.219113,9.525 0.48286,1.40428 0.602431,2.08106 0.409026,2.3151 -0.358592,0.43395 -1.711389,0.40432 -2.781511,-0.0609 z m 14.397414,-7.2927 c -1.908594,-0.32064 -3.835489,-0.9815 -5.606699,-1.92292 -1.279378,-0.68 -1.60375,-0.98499 -1.67122,-1.57137 -0.06917,-0.60114 0.01877,-0.72761 0.505921,-0.72761 0.324302,0 1.076351,0.2813 1.67122,0.62511 2.322677,1.3424 4.558523,1.88068 7.828454,1.8847 3.49373,0.004 4.900686,-0.36164 7.719078,-2.00763 2.056863,-1.20124 3.213008,-1.36485 3.081094,-0.43603 -0.10737,0.756 -2.394426,2.31256 -4.714756,3.20883 -2.965402,1.14544 -5.811321,1.45123 -8.813092,0.94692 z m 6.491471,-3.63745 c -0.938548,-0.14627 -1.426585,-1.15978 -1.473168,-3.05931 -0.05001,-2.03957 0.455544,-2.8168 1.832219,-2.8168 1.324607,0 1.96257,0.98154 1.96257,3.01951 0,2.28314 -0.674677,3.11329 -2.321621,2.8566 z M 37.48168,-289.564 c -1.106104,-1.68813 -0.57911,-4.94712 0.858311,-5.30789 1.6723,-0.41972 2.974283,1.43483 2.628083,3.74346 -0.228435,1.52331 -0.90835,2.24093 -2.123194,2.24093 -0.694762,0 -1.028441,-0.16559 -1.3632,-0.6765 z"
                     id="path5254"
                     inkscape:connector-curvature="0" />
                  <path
                     style="fill:#a1a0a0;stroke-width:0.26458332"
                     d="m 25.285566,-277.90207 c -0.533605,-0.23198 -1.205654,-0.92188 -1.794068,-1.84172 -0.517469,-0.80894 -1.121701,-1.47079 -1.342737,-1.47079 -0.756161,0 -1.986225,-0.81898 -2.502984,-1.66649 -0.912919,-1.49724 -0.655374,-2.71174 0.937077,-4.41893 0.475091,-0.50932 1.013049,-1.40229 1.195463,-1.98437 1.490047,-4.75473 5.820664,-9.63691 10.761405,-12.132 1.735872,-0.87662 5.280195,-1.90564 7.397268,-2.14763 1.624739,-0.18572 1.627553,-0.18755 1.736935,-1.12448 0.117105,-1.00309 0.01869,-1.14825 -1.31379,-1.9379 -1.173169,-0.69524 -1.118502,-1.25777 0.132291,-1.36129 0.951651,-0.0788 0.991127,-0.12072 0.966213,-1.0269 -0.01429,-0.51963 -0.280785,-1.78368 -0.59222,-2.80902 l -0.566246,-1.86424 -1.104665,-0.14817 c -1.113221,-0.14931 -2.346043,-0.8632 -2.55064,-1.47699 -0.08255,-0.24764 0.148179,-0.28576 0.90936,-0.15024 0.839826,0.14951 0.961557,0.11984 0.68924,-0.16801 -0.451959,-0.47774 -0.416271,-1.03751 0.06615,-1.03751 0.246944,0 0.396875,-0.24988 0.396875,-0.66146 0,-0.72729 0.346214,-0.81851 1.476095,-0.38893 0.501271,0.19058 0.984049,0.18432 1.605641,-0.0208 1.125381,-0.37141 2.272735,-0.12275 3.257686,0.70604 0.568685,0.47851 0.948182,0.60373 1.448872,0.47807 0.463399,-0.11631 0.678373,-0.063 0.678373,0.16831 0,0.18622 0.191958,0.55069 0.426574,0.80994 0.397605,0.43935 0.379638,0.48314 -0.264583,0.64483 -0.688531,0.17281 -0.691158,0.18371 -0.691158,2.86685 0,3.19786 -0.555345,4.64491 -2.186088,5.69622 -0.92552,0.59667 -0.983256,0.70821 -0.821732,1.5875 0.20982,1.14219 0.338447,1.23622 1.990957,1.45544 3.085204,0.40926 7.318095,2.33551 10.283921,4.67986 2.569067,2.03073 5.844029,6.88382 6.49656,9.62711 0.103841,0.43656 0.643599,1.29273 1.19946,1.90259 1.142976,1.25401 1.42694,2.06391 1.181804,3.3706 -0.196633,1.04814 -1.58174,2.39694 -2.717663,2.64643 -0.544324,0.11956 -0.927497,0.49653 -1.38907,1.3666 -0.692994,1.30631 -2.093267,2.22615 -3.378129,2.2191 -1.453925,-0.008 -1.547442,-0.27544 -0.845524,-2.41829 0.531022,-1.62114 0.632921,-2.44769 0.614675,-4.98599 -0.01849,-2.57421 -0.131193,-3.36126 -0.731888,-5.11156 -0.390509,-1.13787 -0.641532,-2.17967 -0.557829,-2.31511 0.460698,-0.74542 3.087521,0.46297 4.101286,1.88667 0.955037,1.34123 0.891852,0.66669 -0.117425,-1.25357 -1.606558,-3.05667 -4.57826,-6.1965 -7.476577,-7.89959 -2.142768,-1.25911 -5.827716,-2.29245 -8.689446,-2.4367 -6.073727,-0.30615 -10.94528,1.40197 -15.133766,5.30637 -1.542433,1.43782 -4.313109,5.14218 -4.313109,5.76657 0,0.12385 0.506015,-0.12859 1.124479,-0.56098 0.618463,-0.43239 1.528822,-0.86501 2.023019,-0.96139 1.025244,-0.19994 1.018644,-0.3356 0.137034,2.81679 -0.754197,2.69679 -0.655643,6.98099 0.219113,9.525 0.48286,1.40428 0.602431,2.08106 0.409026,2.3151 -0.358592,0.43395 -1.711389,0.40432 -2.781511,-0.0609 z m 14.736662,-7.54751 c -3.611633,-0.56594 -8.122744,-2.80453 -7.303166,-3.6241 0.08985,-0.0898 1.086824,0.26798 2.215499,0.79519 2.813142,1.31402 4.783464,1.7728 7.597829,1.7691 3.316785,-0.004 5.791828,-0.71663 8.246304,-2.37313 0.65092,-0.4393 1.415645,-0.79873 1.699392,-0.79873 2.037752,0 -2.847221,3.13393 -6.09868,3.91257 -1.794108,0.42965 -4.71581,0.5763 -6.357178,0.3191 z m -1.891206,-3.97717 c -1.2846,-0.74953 -1.125433,-4.47099 0.217393,-5.08282 0.523353,-0.23846 0.76688,-0.19441 1.355726,0.24523 2.200046,1.64257 0.725028,6.17848 -1.573119,4.83759 z m 7.341164,-0.32093 c -0.460732,-0.70317 -0.616455,-2.3051 -0.277405,-2.8537 0.13139,-0.21259 0.243322,-0.61117 0.248738,-0.88573 0.02466,-1.25032 2.069256,-1.21597 2.555962,0.0429 0.349364,0.90366 0.171815,3.33013 -0.283847,3.87917 -0.51815,0.62433 -1.782109,0.52141 -2.243448,-0.18268 z"
                     id="path5252"
                     inkscape:connector-curvature="0" />
                  <path
                     style="fill:#8d723f;stroke-width:0.26458332"
                     d="m 25.370083,-278.17914 c -0.905073,-0.47199 -1.367605,-1.00248 -1.892806,-2.17091 -0.25067,-0.55768 -0.637038,-0.91583 -1.110423,-1.02932 -3.022207,-0.72459 -3.920176,-3.52652 -1.777743,-5.5471 0.571074,-0.53859 1.175631,-1.58404 1.695369,-2.93177 2.22095,-5.75911 7.09476,-10.41282 12.922475,-12.3389 2.787027,-0.92112 7.494131,-1.61988 8.612955,-1.27858 0.461837,0.14089 1.315954,0.33147 1.898037,0.42351 1.777701,0.28109 4.930648,1.41978 6.814572,2.46108 4.335489,2.39637 8.045995,6.78529 9.463518,11.19379 0.39442,1.22665 0.793163,1.94895 1.23615,2.2392 0.717431,0.47008 1.403469,1.86478 1.403469,2.85322 0,1.05207 -1.094195,2.37819 -2.342846,2.83944 -0.825111,0.30479 -1.295609,0.69909 -1.712521,1.43518 -0.316161,0.55821 -0.882806,1.2432 -1.259208,1.5222 -0.801933,0.59442 -2.737297,0.92562 -2.992826,0.51216 -0.09566,-0.15478 0.09133,-1.03158 0.41552,-1.94846 0.882714,-2.49648 0.831932,-7.21338 -0.108402,-10.06904 -0.396947,-1.20547 -0.571741,-2.11624 -0.423709,-2.20773 0.8241,-0.50932 3.298676,1.32066 4.215196,3.11719 0.506851,0.9935 1.033796,1.33606 1.033796,0.67204 0,-0.18601 -0.423934,-1.2228 -0.942073,-2.30398 -2.556023,-5.33352 -6.352178,-8.78237 -11.669855,-10.60222 -2.475286,-0.8471 -2.787902,-0.89082 -6.438072,-0.90041 -3.237784,-0.009 -4.166762,0.0851 -5.953125,0.60003 -5.363158,1.54587 -10.195203,5.64031 -12.550091,10.63435 -0.988199,2.09569 -1.053105,2.81132 -0.131855,1.45378 0.373732,-0.55073 0.939279,-1.21506 1.256771,-1.4763 0.747102,-0.61472 2.524632,-1.42559 2.712737,-1.23748 0.08014,0.0801 -0.124495,1.0215 -0.454745,2.09192 -0.828053,2.68391 -0.829919,7.23914 -0.004,9.75142 0.785565,2.38951 0.75764,2.64618 -0.287677,2.6442 -0.472943,-7.9e-4 -1.20581,-0.18202 -1.628594,-0.40251 z m 14.652145,-7.27044 c -3.611633,-0.56594 -8.122744,-2.80453 -7.303166,-3.6241 0.08985,-0.0898 1.086824,0.26798 2.215499,0.79519 2.813142,1.31402 4.783464,1.7728 7.597829,1.7691 3.316785,-0.004 5.791828,-0.71663 8.246304,-2.37313 0.65092,-0.4393 1.415645,-0.79873 1.699392,-0.79873 2.037752,0 -2.847221,3.13393 -6.09868,3.91257 -1.794108,0.42965 -4.71581,0.5763 -6.357178,0.3191 z m -1.891206,-3.97717 c -1.2846,-0.74953 -1.125433,-4.47099 0.217393,-5.08282 0.523353,-0.23846 0.76688,-0.19441 1.355726,0.24523 2.200046,1.64257 0.725028,6.17848 -1.573119,4.83759 z m 0.575467,-3.57741 c 0,-0.20969 -0.238125,-0.38126 -0.529167,-0.38126 -0.595256,0 -0.678605,0.2739 -0.222228,0.73027 0.364727,0.36473 0.751395,0.18513 0.751395,-0.34901 z m 6.774066,3.25676 c -0.340952,-0.5315 -0.531098,-1.58734 -0.452101,-2.51042 0.01542,-0.18018 0.295926,-0.29925 0.623347,-0.26458 0.380789,0.0403 0.595313,-0.08 0.595313,-0.33385 0,-0.22054 -0.212029,-0.3795 -0.477216,-0.35776 -0.299648,0.0245 -0.44732,-0.11256 -0.396875,-0.36852 0.229873,-1.16632 2.161395,-1.06457 2.626458,0.13836 0.349364,0.90366 0.171815,3.33013 -0.283847,3.87917 -0.518764,0.62508 -1.783297,0.52188 -2.235079,-0.1824 z M 41.2406,-306.4205 c -1.355134,-0.77169 -1.474502,-1.1943 -0.36736,-1.3006 0.835754,-0.0803 0.874975,-0.13268 0.854563,-1.14244 -0.01177,-0.58208 -0.297002,-1.98107 -0.633855,-3.10886 -0.575041,-1.92523 -0.657842,-2.05052 -1.355219,-2.05052 -0.830068,0 -2.090573,-0.49919 -2.090573,-0.82791 0,-0.1176 0.172892,-0.14747 0.384205,-0.0664 0.653545,0.25079 0.962918,-0.12917 0.602564,-0.74004 -0.258335,-0.43793 -0.25722,-0.57613 0.0054,-0.67124 0.181901,-0.0659 0.330729,-0.40751 0.330729,-0.75918 0,-0.70201 0.28122,-0.79073 1.10649,-0.34906 0.398426,0.21323 0.844583,0.20579 1.679666,-0.028 1.316122,-0.36849 2.663298,-0.0529 3.440567,0.80596 0.258432,0.28556 0.693282,0.51921 0.966338,0.51921 0.602691,0 0.928886,0.71513 0.514987,1.12903 -0.182607,0.18261 -0.301984,1.33868 -0.305525,2.95878 -0.0073,3.35648 -0.474601,4.54703 -2.17594,5.54408 -1.420646,0.83255 -1.63695,0.83893 -2.957055,0.0872 z m 2.71081,-9.36643 c -0.128733,-0.66378 -0.747004,-0.75492 -0.747004,-0.11012 0,0.325 0.170838,0.55122 0.416275,0.55122 0.24639,0 0.381363,-0.18002 0.330729,-0.4411 z"
                     id="path5250"
                     inkscape:connector-curvature="0" />
                  <path
                     style="fill:#5e5d5d;stroke-width:0.26458332"
                     d="m 25.370083,-278.17914 c -0.905073,-0.47199 -1.367605,-1.00248 -1.892806,-2.17091 -0.25067,-0.55768 -0.637038,-0.91583 -1.110423,-1.02932 -3.022207,-0.72459 -3.920176,-3.52652 -1.777743,-5.5471 0.571074,-0.53859 1.175631,-1.58404 1.695369,-2.93177 2.22095,-5.75911 7.09476,-10.41282 12.922475,-12.3389 2.787027,-0.92112 7.494131,-1.61988 8.612955,-1.27858 0.461837,0.14089 1.315954,0.33147 1.898037,0.42351 1.777701,0.28109 4.930648,1.41978 6.814572,2.46108 4.335489,2.39637 8.045995,6.78529 9.463518,11.19379 0.39442,1.22665 0.793163,1.94895 1.23615,2.2392 0.717431,0.47008 1.403469,1.86478 1.403469,2.85322 0,1.05207 -1.094195,2.37819 -2.342846,2.83944 -0.825111,0.30479 -1.295609,0.69909 -1.712521,1.43518 -0.316161,0.55821 -0.882806,1.2432 -1.259208,1.5222 -0.801933,0.59442 -2.737297,0.92562 -2.992826,0.51216 -0.09566,-0.15478 0.09133,-1.03158 0.41552,-1.94846 0.882714,-2.49648 0.831932,-7.21338 -0.108402,-10.06904 -0.396947,-1.20547 -0.571741,-2.11624 -0.423709,-2.20773 0.8241,-0.50932 3.298676,1.32066 4.215196,3.11719 0.506851,0.9935 1.033796,1.33606 1.033796,0.67204 0,-0.18601 -0.423934,-1.2228 -0.942073,-2.30398 -2.556023,-5.33352 -6.352178,-8.78237 -11.669855,-10.60222 -2.475286,-0.8471 -2.787902,-0.89082 -6.438072,-0.90041 -3.237784,-0.009 -4.166762,0.0851 -5.953125,0.60003 -5.363158,1.54587 -10.195203,5.64031 -12.550091,10.63435 -0.988199,2.09569 -1.053105,2.81132 -0.131855,1.45378 0.373732,-0.55073 0.939279,-1.21506 1.256771,-1.4763 0.747102,-0.61472 2.524632,-1.42559 2.712737,-1.23748 0.08014,0.0801 -0.124495,1.0215 -0.454745,2.09192 -0.828053,2.68391 -0.829919,7.23914 -0.004,9.75142 0.785565,2.38951 0.75764,2.64618 -0.287677,2.6442 -0.472943,-7.9e-4 -1.20581,-0.18202 -1.628594,-0.40251 z m 13.997864,-7.71311 c -1.392459,-0.31147 -4.589825,-1.46557 -5.357812,-1.93391 -1.55861,-0.9505 -0.895299,-1.03061 0.926042,-0.11185 2.146125,1.08259 4.232364,1.63866 6.925973,1.84603 2.589958,0.19939 5.393341,-0.50826 8.175544,-2.06375 2.549633,-1.42545 2.674098,-1.47017 2.030253,-0.72949 -0.632703,0.72786 -4.301773,2.5049 -5.961631,2.88739 -1.160177,0.26734 -5.697383,0.33843 -6.738369,0.10558 z m -1.284962,-4.01164 c -0.242515,-0.26798 -0.469328,-0.95259 -0.504028,-1.52136 -0.05275,-0.86462 0.02009,-1.03431 0.444399,-1.03525 0.638579,-10e-4 0.838298,-0.55144 0.394431,-1.08627 -0.277381,-0.33422 -0.269931,-0.45168 0.04113,-0.64851 0.529098,-0.3348 0.63629,-0.31473 1.333288,0.24967 0.510155,0.4131 0.615175,0.7489 0.615175,1.96704 0,2.18741 -1.229353,3.28469 -2.324397,2.07468 z m 7.67597,0.003 c -0.555329,-0.61362 -0.597633,-2.42655 -0.05662,-2.42655 0.552558,0 0.772062,-0.49279 0.41249,-0.92604 -0.170577,-0.20554 -0.23333,-0.49798 -0.139454,-0.64987 0.292119,-0.47266 1.148594,-0.30357 1.579661,0.31186 0.469651,0.67053 0.553151,2.88694 0.137985,3.66269 -0.345839,0.64621 -1.361252,0.66087 -1.934059,0.0279 z M 41.2406,-306.4205 c -1.355134,-0.77169 -1.474502,-1.1943 -0.36736,-1.3006 0.835754,-0.0803 0.874975,-0.13268 0.854563,-1.14244 -0.01177,-0.58208 -0.297002,-1.98107 -0.633855,-3.10886 -0.575041,-1.92523 -0.657842,-2.05052 -1.355219,-2.05052 -0.830068,0 -2.090573,-0.49919 -2.090573,-0.82791 0,-0.1176 0.172892,-0.14747 0.384205,-0.0664 0.653545,0.25079 0.962918,-0.12917 0.602564,-0.74004 -0.258335,-0.43793 -0.25722,-0.57613 0.0054,-0.67124 0.181901,-0.0659 0.330729,-0.40751 0.330729,-0.75918 0,-0.70201 0.28122,-0.79073 1.10649,-0.34906 0.398426,0.21323 0.844583,0.20579 1.679666,-0.028 1.316122,-0.36849 2.663298,-0.0529 3.440567,0.80596 0.258432,0.28556 0.693282,0.51921 0.966338,0.51921 0.602691,0 0.928886,0.71513 0.514987,1.12903 -0.182607,0.18261 -0.301984,1.33868 -0.305525,2.95878 -0.0073,3.35648 -0.474601,4.54703 -2.17594,5.54408 -1.420646,0.83255 -1.63695,0.83893 -2.957055,0.0872 z m 2.71081,-9.36643 c -0.128733,-0.66378 -0.747004,-0.75492 -0.747004,-0.11012 0,0.325 0.170838,0.55122 0.416275,0.55122 0.24639,0 0.381363,-0.18002 0.330729,-0.4411 z"
                     id="path5248"
                     inkscape:connector-curvature="0" />
                  <path
                     style="fill:#0e0d0d;stroke-width:0.26458332"
                     d="m 25.311944,-278.54574 c -0.45476,-0.27731 -1.111843,-1.021 -1.460186,-1.65266 -0.485488,-0.88035 -0.878815,-1.229 -1.684777,-1.49341 -1.354351,-0.44432 -2.198276,-1.24877 -2.391703,-2.27982 -0.204159,-1.08826 0.175331,-2.00669 1.278554,-3.09431 0.604531,-0.59599 1.149804,-1.57751 1.630216,-2.93447 1.525164,-4.30797 5.458399,-8.54706 10.069316,-10.85232 3.672881,-1.83628 8.204986,-2.63615 11.809844,-2.08431 1.170493,0.17918 2.385396,0.44043 2.699787,0.58054 0.521361,0.23236 0.513464,0.24083 -0.08984,0.0963 -1.796532,-0.43026 -7.106326,-0.4417 -9.277806,-0.02 -4.818974,0.93586 -10.022819,4.42778 -12.77547,8.5727 -1.200014,1.80696 -2.552974,4.5891 -2.552974,5.24975 0,0.72676 0.795283,0.33999 1.29179,-0.62824 0.279838,-0.5457 0.788273,-1.24615 1.129857,-1.55655 0.745592,-0.67752 2.220503,-1.45216 2.407973,-1.26469 0.07382,0.0738 -0.108096,0.87273 -0.40425,1.77538 -0.779235,2.37503 -0.764915,7.30391 0.02821,9.71097 0.31167,0.94588 0.568209,1.86862 0.570087,2.05052 0.0052,0.49985 -1.341189,0.39619 -2.278632,-0.17543 z m 31.351691,0.38465 c -0.09175,-0.0924 0.07649,-0.90655 0.373851,-1.80919 0.717545,-2.1781 0.782283,-6.99379 0.125209,-9.31409 -0.247253,-0.87313 -0.529889,-1.86895 -0.628073,-2.21294 -0.160597,-0.56264 -0.114858,-0.6065 0.455525,-0.4368 1.082231,0.32197 2.41907,1.56296 3.155154,2.92892 0.662683,1.22975 1.579938,1.89179 1.579938,1.14034 0,-0.1865 0.534868,0.18586 1.188598,0.82744 2.1506,2.11066 1.864101,4.32127 -0.67556,5.21258 -1.164392,0.40866 -1.440082,0.64371 -1.901447,1.62121 -0.29678,0.62879 -0.80758,1.31884 -1.13511,1.53345 -0.672582,0.44069 -2.284921,0.76409 -2.538085,0.50908 z m -10.959189,-12.17312 c -0.519997,-1.24453 -0.489088,-1.43661 0.278085,-1.72829 0.683003,-0.25968 0.906944,-1.13997 0.373822,-1.46946 -0.203208,-0.12559 -0.205045,-0.26036 -0.0062,-0.45915 0.198792,-0.19879 0.438545,-0.13916 0.816803,0.20316 0.426847,0.38629 0.535419,0.81424 0.535419,2.11042 0,0.91178 -0.139446,1.76531 -0.3175,1.94336 -0.597477,0.59748 -1.282179,0.35298 -1.680376,-0.60004 z m -7.782398,0.14119 c -0.472461,-0.8828 -0.342645,-1.86948 0.245965,-1.86948 0.778676,0 1.131766,-0.84904 0.643181,-1.54659 -0.368972,-0.52679 -0.35911,-0.57008 0.129872,-0.57008 1.126291,0 1.737009,2.13033 1.094888,3.81924 -0.325954,0.85732 -1.686898,0.96478 -2.113906,0.16691 z m 22.022662,-2.36246 c -0.61549,-1.11131 -0.870879,-1.72404 -0.567532,-1.36163 0.584727,0.69858 1.912364,3.17771 1.770536,3.30617 -0.04616,0.0418 -0.587515,-0.83323 -1.203004,-1.94454 z m -3.455096,-4.46796 c -0.62402,-0.61846 -1.035138,-1.12448 -0.913593,-1.12448 0.265546,0 2.327934,2.07639 2.163275,2.17796 -0.0633,0.0391 -0.62566,-0.43501 -1.249682,-1.05348 z m -7.332083,-4.56406 c -0.348917,-0.14993 -0.393981,-0.23235 -0.132292,-0.24194 0.218281,-0.008 0.575469,0.10088 0.79375,0.24194 0.48365,0.31256 0.06591,0.31256 -0.661458,0 z m -7.739063,-5.03533 c -0.724456,-0.29119 -0.783894,-0.7855 -0.09445,-0.7855 1.057272,0 1.063673,-1.13536 0.02667,-4.73052 -0.43566,-1.51038 -0.79211,-3.06951 -0.79211,-3.46472 0,-1.57556 2.276392,-2.28442 3.826122,-1.19146 0.407984,0.28774 0.992716,0.66743 1.299405,0.84377 0.521494,0.29984 0.55235,0.50553 0.476295,3.175 -0.09602,3.37018 -0.355833,4.54694 -1.167077,5.28595 -1.226126,1.11696 -2.303665,1.37844 -3.574849,0.86748 z m 2.713443,-8.72537 c 0.283583,-0.45885 -0.146243,-1.32055 -0.658703,-1.32055 -0.594317,0 -0.81056,0.49795 -0.488324,1.12448 0.261591,0.50862 0.887714,0.61565 1.147027,0.19607 z m -4.952718,0.26678 c -0.06594,-0.44928 -0.01031,-0.8846 0.123627,-0.96738 0.133935,-0.0828 0.184762,-0.37519 0.112948,-0.64981 -0.08026,-0.30691 0.0068,-0.49931 0.225918,-0.49931 0.553675,0 0.653574,0.36009 0.442661,1.59557 -0.233473,1.36764 -0.738247,1.65814 -0.905154,0.52093 z"
                     id="path5246"
                     inkscape:connector-curvature="0" />
                </g>
              </g>
            </g>
          </g>
        </g>
      </g>
    </g>
  </g>
</svg>
