<?xml version="1.0" encoding="UTF-8" standalone="no"?>
<!-- Created with Inkscape (http://www.inkscape.org/) -->

<svg
   xmlns:dc="http://purl.org/dc/elements/1.1/"
   xmlns:cc="http://creativecommons.org/ns#"
   xmlns:rdf="http://www.w3.org/1999/02/22-rdf-syntax-ns#"
   xmlns:svg="http://www.w3.org/2000/svg"
   xmlns="http://www.w3.org/2000/svg"
   xmlns:sodipodi="http://sodipodi.sourceforge.net/DTD/sodipodi-0.dtd"
   xmlns:inkscape="http://www.inkscape.org/namespaces/inkscape"
   width="185.20833mm"
   height="185.20833mm"
   viewBox="0 0 185.20834 185.20834"
   version="1.1"
   id="svg8"
   sodipodi:docname="uflash.svg"
   inkscape:version="0.92.1 r15371"
   inkscape:export-filename="C:\xampp\htdocs\portfolio\img\projects\uflash.png"
   inkscape:export-xdpi="96"
   inkscape:export-ydpi="96">
  <defs
     id="defs2" />
  <sodipodi:namedview
     id="base"
     pagecolor="#ffffff"
     bordercolor="#666666"
     borderopacity="1.0"
     inkscape:pageopacity="0.0"
     inkscape:pageshadow="2"
     inkscape:zoom="0.72778342"
     inkscape:cx="588.38604"
     inkscape:cy="15.607036"
     inkscape:document-units="mm"
     inkscape:current-layer="g4496"
     showgrid="false"
     fit-margin-top="0"
     fit-margin-left="0"
     fit-margin-right="0"
     fit-margin-bottom="0"
     inkscape:window-width="1920"
     inkscape:window-height="1051"
     inkscape:window-x="-9"
     inkscape:window-y="-9"
     inkscape:window-maximized="1" />
  <metadata
     id="metadata5">
    <rdf:RDF>
      <cc:Work
         rdf:about="">
        <dc:format>image/svg+xml</dc:format>
        <dc:type
           rdf:resource="http://purl.org/dc/dcmitype/StillImage" />
        <dc:title />
      </cc:Work>
    </rdf:RDF>
  </metadata>
  <g
     inkscape:label="Layer 1"
     inkscape:groupmode="layer"
     id="layer1"
     transform="translate(45.36269,63.659672)">
    <g
       id="g4496">
      <g
         id="g4594">
        <path
           style="fill:#fefefe;stroke-width:0.26458332"
           d="M -45.36269,28.944493 V -63.659672 H 47.241475 139.84564 V 28.944493 121.54866 H 47.241475 -45.36269 Z"
           id="path4610"
           inkscape:connector-curvature="0" />
        <path
           style="fill:#d0d0d0;stroke-width:0.26458332"
           d="M 46.271894,91.066777 C 46.129188,90.878635 44.545535,87.510013 42.752663,83.58095 37.293642,71.617566 33.343156,64.134076 32.486785,64.134076 c -0.969907,0 -9.419495,4.740063 -26.3880176,14.803194 -14.2028754,8.42297 -19.4539494,11.390555 -20.1553364,11.390555 -1.9823,0 -1.381228,-1.128813 17.1430446,-32.194584 5.2220203,-8.757488 9.4945834,-16.021952 9.4945834,-16.14325 0,-0.121298 -0.684609,-0.531953 -1.521354,-0.912566 -7.1440914,-3.249653 -15.9869583,-7.170762 -20.7574301,-9.204267 -5.6129259,-2.392622 -6.6324219,-2.965987 -6.1394819,-3.45286 0.132078,-0.130453 4.288266,-2.038009 9.2359746,-4.239014 12.7319218,-5.66384 17.8593744,-8.43793 17.8593744,-9.662398 0,-0.937075 -2.8996848,-6.3310504 -9.3132217,-17.3243924 C -5.2604193,-15.156063 -10.608191,-24.605741 -12.803804,-28.866964 c -2.962444,-5.749478 -2.353908,-6.138368 3.6950255,-2.361322 14.9459418,9.332473 41.3335275,24.718613 42.3929905,24.718613 0.417851,0 0.615627,-0.3915595 6.080615,-12.038541 5.626192,-11.990544 6.937359,-14.419792 7.782951,-14.419792 0.501978,0 2.536219,4.180155 6.208829,12.75851 3.518455,8.218289 6.143053,13.6484197 6.700144,13.8621978 0.59712,0.2291344 9.202531,-4.6886808 32.693057,-18.6834088 10.937922,-6.516386 15.639262,-9.069485 16.261242,-8.830807 1.02703,0.394107 1.22055,0.03817 -13.791471,25.367466 C 84.638384,9.3592651 81.482601,14.98637 81.780765,15.468809 c 0.445283,0.720482 7.766502,4.075832 19.700295,9.028737 4.5839,1.902468 8.50871,3.62178 8.7218,3.820697 0.34018,0.317561 0.34018,0.4064 0,0.728485 -0.21309,0.201747 -4.61415,2.177918 -9.78014,4.391488 -14.279399,6.118569 -18.256246,8.2027 -18.256246,9.567487 0,0.290914 0.318792,1.085918 0.708422,1.766675 3.10905,5.432055 8.512815,14.498489 16.943462,28.427725 5.440052,8.988139 9.818552,16.459311 9.729992,16.602604 -0.0886,0.143295 -0.44651,0.260535 -0.79544,0.260535 -1.23348,0 -12.933243,-6.292678 -26.718727,-14.370571 C 67.463103,67.15444 61.914949,64.134076 60.802021,64.134076 c -1.18678,0 -2.851755,2.959187 -6.550138,11.641666 -3.538178,8.306372 -6.918397,15.469534 -7.340523,15.555619 -0.209003,0.04262 -0.496763,-0.07644 -0.639466,-0.264584 z M 48.686706,59.44591 c 3.259452,-4.959072 6.188869,-8.276417 7.308577,-8.276417 1.092917,0 3.519951,1.097332 13.206608,5.971098 9.707195,4.884099 10.583333,5.286885 10.583333,4.865462 0,-0.479203 -2.650468,-5.554527 -6.349999,-12.159477 -5.212514,-9.306147 -6.429243,-11.792968 -6.084832,-12.436512 0.37211,-0.695293 2.662518,-2.222452 6.776587,-4.518374 3.93572,-2.196394 6.187411,-3.637298 6.187411,-3.95946 0,-0.421521 -1.785064,-1.588538 -6.91602,-4.521462 -2.817387,-1.610458 -5.330881,-3.113114 -5.585542,-3.339238 -0.254662,-0.226123 -0.463021,-0.691329 -0.463021,-1.03379 0,-0.342461 1.372195,-3.365061 3.049325,-6.716887 3.873162,-7.740711 7.726784,-15.8804186 7.961958,-16.8174352 l 0.181669,-0.7238259 -2.090746,1.1461538 C 75.302103,-2.4438686 71.40831,-0.152876 67.799142,2.0168396 59.585462,6.9546418 56.611937,8.4363296 55.650084,8.0706331 54.321905,7.56566 52.076301,4.3612172 48.445506,-2.2101939 c -0.824124,-1.4915886 -1.593095,-2.7119792 -1.70883,-2.7119792 -0.115731,0 -0.890822,1.4585156 -1.722424,3.2411458 -2.758514,5.9131834 -5.513816,9.9880207 -6.753648,9.9880207 -0.687435,0 -7.947147,-3.6558881 -13.905587,-7.0026582 -5.503436,-3.0911985 -10.85773,-5.7873026 -11.223529,-5.6515052 -0.379212,0.1407769 1.102045,3.56761516 5.168913,11.9581055 4.700352,9.6974575 5.981567,12.6623655 5.873191,13.5913675 -0.119393,1.023448 -2.051245,2.393585 -6.300866,4.468794 -4.310682,2.105028 -5.027084,2.587681 -5.027084,3.386841 0,0.692026 1.336085,1.488054 5.55625,3.310364 3.09399,1.336016 5.064255,2.658644 5.689224,3.819144 0.372825,0.69229 0.444701,1.257355 0.334532,2.629865 -0.172231,2.145618 -1.467014,4.913075 -7.264546,15.527182 -2.185836,4.001822 -4.118094,7.5502 -4.293909,7.885284 l -0.319662,0.609243 1.008951,-0.517165 c 0.554924,-0.284438 4.878483,-2.618444 9.60791,-5.186675 10.963177,-5.95336 14.312051,-7.628689 14.842434,-7.425161 0.616186,0.236453 1.90177,2.536629 4.856157,8.688671 1.444983,3.008942 2.69385,5.468389 2.775263,5.465439 0.08141,-0.003 1.453218,-1.991148 3.04846,-4.418219 z"
           id="path4608"
           inkscape:connector-curvature="0" />
        <path
           style="fill:#b0b0b0;stroke-width:0.26458332"
           d="M 45.6875,89.490318 C 37.817295,72.092528 33.581649,63.869492 32.490343,63.869492 c -0.954185,0 -9.646517,4.912829 -29.6908794,16.78101 -16.1006386,9.533123 -17.4704876,10.23167 -17.4704876,8.908973 0,-1.039262 4.9811649,-9.710242 19.8040437,-34.473972 4.2419428,-7.086764 7.7126223,-12.996322 7.7126223,-13.13235 0,-0.319905 -9.2987623,-4.590066 -19.7114577,-9.051861 -4.5111453,-1.933006 -8.3755733,-3.672742 -8.5876183,-3.866079 -0.240099,-0.218919 -0.290004,-0.436917 -0.132291,-0.577889 0.139284,-0.1245 3.586993,-1.689383 7.661576,-3.47752 12.7867937,-5.611492 19.446875,-9.159332 19.446875,-10.359392 0,-0.784164 -3.4860789,-7.4322436 -7.2646992,-13.85404349 C -5.3032077,-15.483038 -13.621676,-30.371406 -14.195224,-32.261198 c -0.247351,-0.814999 -0.238085,-1.055849 0.04741,-1.232292 0.512855,-0.316962 0.630524,-0.254751 7.017417,3.710184 13.4998616,8.38061 34.339659,20.5925334 39.089739,22.9062167 1.492197,0.7268236 1.525604,0.7307447 1.899788,0.2228956 0.209484,-0.284316 2.021589,-4.0292813 4.026895,-8.3221463 4.535649,-9.709694 8.188145,-17.042682 8.700677,-17.468045 0.877657,-0.72839 1.445673,0.344257 6.909869,13.048636 3.426497,7.966689 5.243959,11.7968155 6.097651,12.8502038 l 0.506989,0.6255834 1.692357,-0.8542998 c 2.649101,-1.3372624 12.808257,-7.2242684 25.709967,-14.8983614 18.543635,-11.029982 20.824525,-12.303763 21.397505,-11.949645 0.73082,0.451676 1.18002,-0.366686 -12.110535,22.063144 C 89.187275,1.2724688 83.103888,11.77172 81.862897,14.204259 l -0.553337,1.084631 0.626896,0.519877 c 0.735227,0.609719 7.304162,3.788346 11.47481,5.552524 1.600729,0.677104 6.006041,2.52036 9.789584,4.096123 4.2126,1.754458 6.87917,3.004312 6.87917,3.224356 0,0.220051 -3.64067,1.926299 -9.39271,4.402023 -10.942968,4.709935 -17.021487,7.661833 -18.090819,8.785405 -0.555479,0.583658 -0.71873,0.964385 -0.605324,1.411721 0.288266,1.137071 4.528373,8.329991 19.302493,32.74477 4.35405,7.195232 7.9702,13.22229 8.03588,13.393462 0.31135,0.81136 -0.9691,0.480234 -4.06875,-1.052185 -5.503332,-2.720765 -14.277537,-7.627172 -26.533899,-14.837364 -11.04261,-6.496167 -16.927475,-9.66011 -17.967597,-9.66011 -1.217941,0 -2.821477,2.784028 -6.324349,10.980209 -4.435141,10.37755 -7.118254,16.060557 -7.657512,16.219111 -0.194469,0.05718 -0.645491,-0.596011 -1.089933,-1.578494 z m 3.101655,-29.840334 c 3.375956,-5.145551 6.093349,-8.215908 7.271419,-8.215908 1.159868,0 4.079396,1.322583 14.130629,6.401353 5.128027,2.59113 9.444042,4.711147 9.591145,4.711147 0.800931,0 -0.149402,-1.986603 -5.822166,-12.170833 -4.784148,-8.58891 -6.610374,-12.059653 -6.610374,-12.563028 0,-0.572939 2.353424,-2.231165 6.217708,-4.381008 4.260726,-2.370399 7.011458,-4.127717 7.011458,-4.479306 0,-0.457536 -2.329606,-2.001324 -7.230356,-4.791432 -2.594247,-1.476965 -5.031491,-2.956062 -5.416092,-3.286884 l -0.699278,-0.601493 1.689712,-3.535405 c 0.929341,-1.94447 2.985071,-6.134851 4.56829,-9.3119573 4.239358,-8.5072827 5.660718,-11.8182361 5.073452,-11.8182361 -0.288314,0 -4.854753,2.6248545 -10.818019,6.2183512 -7.104615,4.281281 -11.076429,6.3166862 -11.915299,6.106144 -1.191987,-0.2991697 -3.699983,-3.8424273 -6.991508,-9.8774936 -1.05173,-1.928368 -2.013323,-3.44365 -2.13687,-3.3672939 -0.123548,0.076356 -1.060249,1.8689003 -2.081562,3.9834317 -3.013906,6.2400126 -5.188395,9.372277 -6.506443,9.372277 -0.709493,0 -7.62337,-3.4839962 -13.495401,-6.8005112 -4.317806,-2.4386936 -10.105866,-5.4158196 -11.178645,-5.7498084 -0.440039,-0.1369986 -0.595313,-0.07897 -0.595313,0.2224775 0,0.8038041 1.697117,4.65231153 5.560579,12.6095784 2.159534,4.4478207 4.358703,9.1312207 4.887044,10.4075577 0.913162,2.20596 0.939541,2.352786 0.533959,2.971784 -0.576371,0.879654 -2.845285,2.296091 -6.174521,3.854629 -3.855968,1.805123 -5.124741,2.713477 -5.020828,3.594577 0.08911,0.755623 0.698529,1.114864 6.563767,3.869264 3.351427,1.573874 4.601263,2.599025 5.068022,4.156926 0.622197,2.07671 -0.536511,4.744231 -7.955954,18.315821 -2.21538,4.052356 -3.967141,7.428741 -3.892804,7.503078 0.07434,0.07434 3.880498,-1.902389 8.458136,-4.392726 4.577636,-2.490335 10.228911,-5.509535 12.558384,-6.709328 l 4.235408,-2.181445 0.647568,0.605068 c 0.630663,0.589269 3.043719,5.218925 5.717987,10.970453 0.727368,1.564349 1.433258,2.844271 1.56864,2.844271 0.135382,0 1.570038,-2.017842 3.188126,-4.484092 z"
           id="path4606"
           inkscape:connector-curvature="0" />
        <path
           style="fill:#8f8f8f;stroke-width:0.26458332"
           d="M 46.057457,89.997096 C 45.857659,89.524153 43.918674,85.309389 41.748601,80.630952 37.527526,71.530778 34.636802,65.972446 33.343619,64.4697 l -0.800984,-0.930781 -1.977141,0.994495 c -3.340888,1.680451 -10.522151,5.778442 -20.76256,11.848166 -12.7386845,7.550509 -21.120232,12.418927 -22.68815,13.178409 -0.970867,0.470273 -1.328468,0.53726 -1.571374,0.294354 -0.547087,-0.547087 2.459138,-5.855994 18.8314727,-33.255823 4.6938326,-7.855336 8.5854803,-14.415957 8.6481073,-14.579158 0.163039,-0.424875 -5.436452,-2.99467 -26.106514,-11.98115 -1.236927,-0.537763 -2.248958,-1.127998 -2.248958,-1.311632 0,-0.183635 3.631406,-1.940082 8.0697913,-3.903216 C 4.6135977,19.57038 11.203723,16.128278 11.664307,14.937563 11.907832,14.307989 8.6436304,8.0069321 3.7062568,-0.42425647 -4.2435779,-13.999609 -11.054638,-26.030647 -13.184738,-30.260459 c -1.009668,-2.004935 -1.227759,-3.236714 -0.573069,-3.236714 0.211228,0 3.336618,1.824908 6.9453128,4.055351 13.3009849,8.221004 33.1857132,19.8924225 38.1039412,22.3652607 2.018372,1.0148173 2.154013,1.0470673 2.552372,0.6068853 0.231394,-0.255688 1.980571,-3.792334 3.887057,-7.859212 7.184914,-15.326709 8.626158,-18.109951 9.37786,-18.109951 0.480433,0 2.34246,3.854725 5.815227,12.038541 2.659398,6.267061 5.860306,13.1106307 6.546172,13.9957863 0.273889,0.3534701 0.577358,0.4539985 1.025486,0.3397117 1.245661,-0.3176852 8.073302,-4.232439 27.171379,-15.579214 19.84321,-11.789481 21.48697,-12.669321 21.48697,-11.501088 0,0.395737 -3.06143,5.677392 -12.908355,22.269804 C 89.115988,1.13837 82.749796,12.134697 81.83941,14.008547 c -0.299667,0.616802 -0.477242,1.297636 -0.394613,1.512964 0.313142,0.816039 7.167665,4.001892 20.830013,9.681398 4.40862,1.832687 7.54062,3.277679 7.54062,3.478972 0,0.189362 -1.25015,0.87539 -2.77812,1.524505 -7.369942,3.130915 -17.600147,7.667215 -19.954174,8.848127 -3.373154,1.692161 -4.539244,2.436392 -5.058044,3.228179 -0.393629,0.600755 -0.375661,0.72659 0.292928,2.051428 1.399601,2.773376 7.755699,13.455557 20.30612,34.126862 3.59141,5.915266 6.52983,10.886125 6.52983,11.046354 0,0.160227 -0.18604,0.291323 -0.41342,0.291323 -1.04307,0 -13.964963,-7.011337 -26.970951,-14.634274 C 70.275637,68.42766 67.25563,66.721486 63.968907,65.107756 l -3.248613,-1.59502 -0.703093,0.524933 c -1.095616,0.817997 -2.950075,4.31192 -5.614974,10.578984 -3.852286,9.059442 -7.222223,16.240339 -7.62146,16.240339 -0.198025,0 -0.523513,-0.386953 -0.72331,-0.859896 z M 48.6759,60.034434 c 2.905041,-4.454202 6.080805,-8.21971 7.161012,-8.490826 0.879091,-0.220636 3.439657,0.922782 14.042305,6.270583 8.780213,4.428598 10.435174,5.136403 10.435174,4.462994 0,-0.418544 -2.354625,-4.999479 -4.893434,-9.520192 -4.780053,-8.511575 -7.806566,-14.221757 -7.806566,-14.728804 0,-0.913109 1.766938,-2.191237 6.913428,-5.000884 3.479218,-1.899425 6.315739,-3.729543 6.315739,-4.074904 0,-0.453093 -2.310929,-1.985163 -7.157053,-4.744897 -5.07509,-2.890118 -6.072114,-3.571986 -6.072114,-4.152738 0,-0.211561 1.916856,-4.28081 4.259681,-9.042776 4.228303,-8.5943464 6.615218,-13.66684 6.968852,-14.8096839 0.406212,-1.3127593 -0.97967,-0.6264884 -11.360824,5.6257401 -6.469674,3.896471 -10.382531,5.9497805 -11.3381,5.9497805 -1.27772,0 -3.552539,-3.083253 -7.070291,-9.5829568 -1.080489,-1.9964082 -2.108753,-3.6335176 -2.285031,-3.6380208 -0.176279,-0.0045 -1.196536,1.8102924 -2.267241,4.0328823 -1.954903,4.0580151 -4.233135,7.9004185 -5.20672,8.7814995 -0.287306,0.2600087 -0.812416,0.4727416 -1.16691,0.4727416 -0.86156,0 -5.995525,-2.5364227 -12.469873,-6.1607116 -5.363993,-3.0027192 -11.382986,-6.1071362 -12.540684,-6.4681099 -0.593167,-0.1849491 -0.623985,-0.1455658 -0.473779,0.6054672 0.226068,1.130337 2.747775,6.7644035 5.470253,12.2217918 2.928866,5.871101 5.500277,11.542318 5.710859,12.595227 0.144301,0.721506 0.0312,0.928024 -0.986203,1.800723 -0.632058,0.542163 -2.840971,1.810485 -4.908698,2.818492 -3.622942,1.766171 -5.633206,3.122671 -5.633206,3.801221 0,0.675005 1.351872,1.533359 5.037092,3.198233 4.438298,2.005092 5.639551,2.744589 6.349331,3.908671 1.423961,2.335393 0.620937,4.392888 -7.55635,19.36079 -2.27989,4.173165 -4.078665,7.65416 -3.997279,7.735549 0.08139,0.08139 3.932536,-1.911027 8.558111,-4.427585 11.522612,-6.268908 16.293981,-8.722572 16.961824,-8.722572 0.788212,0 2.026462,2.22335 6.225714,11.178646 0.80178,1.70987 1.565071,3.108854 1.696202,3.108854 0.131132,0 1.519282,-1.963901 3.084779,-4.364225 z"
           id="path4604"
           inkscape:connector-curvature="0" />
        <path
           style="fill:#6f6f6f;stroke-width:0.26458332"
           d="M 46.523438,90.537476 C 46.373687,90.349407 44.617713,86.623659 42.621273,82.258034 37.107153,70.200273 33.535336,63.604909 32.519397,63.604909 c -0.984374,0 -9.477314,4.795441 -29.7199334,16.78101 -15.7171386,9.306052 -17.2059046,10.083964 -17.2059046,8.990446 0,-0.842092 5.7966349,-10.878603 19.8060099,-34.292878 4.2408607,-7.087873 7.7106571,-13.019489 7.7106571,-13.181364 0,-0.444122 -12.13052158,-6.002441 -24.276402,-11.123679 -2.527768,-1.065818 -4.010731,-1.830019 -3.96875,-2.045178 0.03687,-0.188937 3.638902,-1.923659 8.004527,-3.85494 C 5.7029693,19.201053 11.787309,15.899347 11.787309,14.612504 11.787309,13.837203 8.29333,7.1756192 4.5250549,0.76636851 -4.5825753,-14.724295 -12.911913,-29.559199 -13.784127,-31.843056 c -0.774317,-2.027523 -0.249222,-1.969373 3.528446,0.390753 13.3159232,8.319225 33.375763,20.172796 40.687659,24.0427662 1.53912,0.8146097 2.964015,1.4175581 3.166432,1.3398817 0.389671,-0.1495292 2.086486,-3.563313 7.123031,-14.3306429 3.819787,-8.1661 5.792345,-11.90625 6.279361,-11.90625 0.494731,0 2.265384,3.624916 5.557329,11.377084 3.336663,7.857471 6.701116,14.8336072 7.256791,15.0468402 0.731594,0.2807388 5.904375,-2.5985707 24.283191,-13.5166762 24.321867,-14.448633 24.791277,-14.706806 24.791277,-13.635212 0,0.560573 -1.00486,2.306019 -12.36347,21.475388 -7.524578,12.6988593 -13.685383,23.328428 -14.893594,25.696714 -0.285629,0.559877 -0.446506,1.207722 -0.357505,1.439653 0.089,0.231931 2.201267,1.415084 4.693925,2.629231 4.133535,2.013402 7.405952,3.429293 19.481064,8.428969 2.32274,0.961728 4.10104,1.847424 4.10104,2.042559 0,0.195207 -2.1215,1.251006 -4.89479,2.435974 -17.6164,7.527107 -22.543151,9.994508 -22.915041,11.476238 -0.08422,0.335574 0.101145,1.067948 0.439301,1.735638 1.240229,2.448829 6.552404,11.395522 17.93528,30.206354 4.82559,7.974544 8.77379,14.612278 8.77379,14.75052 0,0.507865 -0.87098,0.216713 -3.91205,-1.307729 -5.61446,-2.814442 -15.249442,-8.22489 -27.705657,-15.557894 -11.081213,-6.523538 -15.8335,-8.981091 -16.8613,-8.7195 -0.637932,0.162362 -2.341319,2.527856 -3.457983,4.802098 -0.357256,0.727604 -1.623375,3.628898 -2.813597,6.447319 -2.335427,5.530251 -6.808925,15.381401 -7.139842,15.722747 -0.111787,0.115308 -0.325771,0.05578 -0.475523,-0.132291 z m 2.305537,-30.526162 c 3.524438,-5.376679 6.077556,-8.312655 7.228663,-8.312655 1.158679,0 4.131037,1.333453 13.011962,5.837394 9.477258,4.80637 10.907162,5.453986 11.260965,5.100182 C 80.68395,62.28285 79.113061,59.154377 73.64284,49.317409 67.893625,38.978731 67.549161,38.298083 67.748427,37.670247 c 0.190717,-0.600889 2.681046,-2.273358 6.480548,-4.352237 3.693644,-2.020956 6.464339,-3.87908 6.560087,-4.39942 0.102557,-0.557334 -1.556801,-1.674344 -7.727818,-5.202047 -2.752304,-1.573373 -5.119632,-3.043697 -5.260732,-3.267384 -0.192754,-0.305578 1.061879,-3.099282 5.045732,-11.2353751 5.328642,-10.882516 6.435772,-13.4044449 6.052724,-13.7874901 -0.270534,-0.2705338 -2.589403,0.99999 -10.510708,5.7588889 -6.518645,3.9162196 -11.493372,6.592644 -12.253888,6.592644 -0.558787,0 -2.347672,-1.9124242 -3.630141,-3.8808315 -0.585518,-0.898689 -2.038935,-3.39024115 -3.229814,-5.5367845 -1.190879,-2.1465408 -2.301902,-3.9476706 -2.468941,-4.0025081 -0.17149,-0.056301 -1.175851,1.6992917 -2.307053,4.0326573 -3.15627,6.5105385 -5.111673,9.3874668 -6.380514,9.3874668 -0.717743,0 -7.633975,-3.4881581 -13.610624,-6.86443717 C 19.78606,-1.7536819 13.5163,-4.9221731 12.959961,-4.9221731 c -0.19122,0 -0.407009,0.096007 -0.479528,0.2133495 -0.237776,0.3847279 1.920155,5.34110128 5.78209,13.2804003 4.758158,9.7817413 5.804289,12.2671543 5.445508,12.9375403 -0.406183,0.758962 -2.753354,2.210332 -6.416193,3.967445 -3.741203,1.794706 -4.975362,2.689119 -4.975362,3.605726 0,0.84854 0.920586,1.448562 5.087778,3.316123 3.971536,1.779879 5.356101,2.656406 6.219246,3.937228 1.44114,2.138508 0.61441,4.202496 -7.953973,19.857672 -2.109647,3.854505 -3.776382,7.104208 -3.703854,7.221561 0.07253,0.117351 1.103862,-0.312558 2.291857,-0.955355 1.187993,-0.642797 5.672331,-3.074985 9.965195,-5.40486 4.292865,-2.329874 9.078934,-4.869355 10.635708,-5.643288 2.749685,-1.366975 2.845533,-1.393544 3.357089,-0.930592 0.502867,0.455086 3.393863,6.0994 5.942898,11.602778 0.657167,1.418828 1.292276,2.577404 1.411349,2.574613 0.119073,-0.0028 1.585716,-2.093873 3.259206,-4.646854 z"
           id="path4602"
           inkscape:connector-curvature="0" />
        <path
           style="fill:#4f4f4f;stroke-width:0.26458332"
           d="M 45.261881,87.754649 C 39.67522,75.303188 34.905627,65.824075 33.410027,64.200222 33.108465,63.8728 32.624651,63.604909 32.334882,63.604909 c -0.947708,0 -8.75412,4.353385 -23.722573,13.229315 -18.99345,11.262656 -22.551961,13.256961 -22.945209,12.859247 -0.391644,-0.396089 4.071983,-8.187449 19.1426651,-33.413948 4.7107738,-7.885266 8.5650439,-14.411722 8.5650439,-14.503236 0,-0.319987 -11.9442996,-5.745274 -23.763705,-10.793846 -2.519778,-1.076304 -4.589653,-2.060123 -4.599726,-2.186263 -0.02609,-0.326668 -0.05128,-0.314521 8.2198105,-3.963196 C 4.6517215,19.794974 11.428166,16.22248 11.913674,14.983703 12.190537,14.277287 9.0722448,8.3399843 2.6402003,-2.6732148 -6.3925714,-18.139481 -12.596064,-29.240474 -13.738114,-31.981801 c -0.363617,-0.872804 -0.3669,-1.016952 -0.02614,-1.147712 0.227523,-0.08731 2.679983,1.275937 5.8930296,3.275748 10.4639981,6.512827 24.2813594,14.723499 33.8137414,20.0930931 5.346814,3.0118605 6.868895,3.7801655 7.488857,3.7801655 0.505227,0 3.074971,-5.0386956 8.096268,-15.8749996 2.81772,-6.080829 5.02204,-10.186458 5.469125,-10.186458 0.509016,0 2.239875,3.564998 5.973345,12.303125 3.477741,8.139599 6.070763,13.4379937 6.787189,13.8684416 0.386186,0.2320317 0.971182,0.025427 3.064954,-1.0825083 3.536588,-1.8713952 13.729351,-7.7984163 26.091094,-15.1717903 16.660391,-9.937377 19.433381,-11.474164 19.886491,-11.021054 0.23397,0.233971 0.15422,0.372036 -15.30881,26.5037853 C 83.697147,9.9092068 80.933868,14.879545 81.175694,15.50974 c 0.366509,0.955101 6.274435,3.758959 19.710046,9.354243 4.83857,2.01503 8.7974,3.734615 8.7974,3.8213 0,0.08669 -3.83977,1.803779 -8.53281,3.81576 -10.327708,4.427646 -17.254272,7.744225 -18.550555,8.882377 -1.078035,0.946526 -1.205445,1.660414 -0.532961,2.986191 1.032145,2.034842 7.796384,13.425212 16.97215,28.57958 5.446746,8.995658 9.826626,16.432291 9.733066,16.525856 -0.498,0.498001 -14.220275,-7.023098 -34.14618,-18.715326 -6.232451,-3.65711 -11.34989,-6.40616 -13.026253,-6.99761 -1.075346,-0.379396 -1.149241,-0.370554 -1.853189,0.221779 -1.169498,0.98407 -2.755003,4.032623 -5.857544,11.262685 -3.632851,8.465886 -6.734828,15.154495 -7.081851,15.270168 -0.146333,0.04878 -0.841642,-1.194165 -1.545132,-2.762094 z m 3.63143,-27.65802 c 3.092413,-4.691967 5.888643,-8.023658 6.959732,-8.292486 0.873461,-0.219223 4.200874,1.270834 14.504813,6.495434 8.366302,4.242125 10.221118,4.99828 10.221118,4.166856 0,-0.625395 -1.974553,-4.438906 -6.671286,-12.88444 -5.425164,-9.755383 -6.028713,-10.918632 -6.028713,-11.619405 0,-0.798073 1.459425,-1.780958 8.70582,-5.863135 1.659504,-0.934862 3.384561,-2.041956 3.833458,-2.460207 l 0.816182,-0.760452 -0.959305,-0.827047 c -0.527619,-0.454875 -2.490801,-1.709434 -4.362628,-2.787904 -6.197838,-3.570955 -7.894941,-4.658667 -7.983127,-5.116582 -0.048,-0.24925 2.227657,-5.188166 5.057016,-10.9753712 5.774724,-11.8116798 6.49524,-13.4451564 6.103405,-13.836991 -0.344143,-0.3441436 -2.320107,0.7009923 -9.755613,5.15997017 C 61.046356,5.4649715 57.698189,7.280508 56.531752,7.4369614 55.550849,7.5685281 55.463201,7.5136667 54.168174,5.9575331 52.728685,4.2278117 51.759926,2.6693074 48.896505,-2.5233336 47.898766,-4.3326682 46.967957,-5.8511939 46.828037,-5.897832 46.688117,-5.9444728 45.581,-3.9878579 44.367775,-1.5497992 42.05208,3.1037532 39.608302,7.0671718 38.782037,7.5093752 38.438089,7.6934484 37.952462,7.6509299 37.144861,7.3660319 35.727539,6.8660382 30.021336,3.8887005 24.222725,0.62361786 17.955313,-2.9054369 12.884076,-5.3310231 12.524655,-4.9716025 c -0.505566,0.5055658 1.622412,5.57600103 6.072486,14.4692208 2.646953,5.2897827 5.096418,10.8104857 5.096418,11.4865147 0,0.836832 -1.739808,2.050516 -5.953125,4.152889 -4.166603,2.079065 -4.889923,2.545035 -5.384162,3.468527 -0.502304,0.938561 0.630478,1.96429 3.597084,3.257142 7.014199,3.056803 8.010078,3.869383 7.999944,6.527517 -0.0074,1.933461 -1.270661,4.676918 -7.00079,15.203447 -2.84086,5.218801 -5.165201,9.606299 -5.165201,9.749991 0,0.143695 0.136374,0.261263 0.303051,0.261263 0.16668,0 3.946914,-1.985372 8.400521,-4.41194 4.453609,-2.426568 10.139579,-5.465874 12.635491,-6.754016 4.12236,-2.127554 4.576043,-2.304058 4.953122,-1.926976 0.634987,0.634984 2.534174,4.262043 4.950751,9.454911 1.202034,2.582995 2.335763,4.696354 2.519394,4.696354 0.183634,0 1.688285,-2.054976 3.343672,-4.566613 z"
           id="path4600"
           inkscape:connector-curvature="0" />
        <path
           style="fill:#2e2e2e;stroke-width:0.26458332"
           d="M 42.503523,81.461789 C 36.953615,69.393373 33.610602,63.340326 32.495299,63.340326 c -0.989865,0 -8.217784,4.099573 -32.61423981,18.498333 C -11.059657,88.295857 -13.740214,89.759328 -14.053312,89.446231 -14.455251,89.044294 -10.685531,82.459448 4.4085112,57.197595 9.339974,48.944146 13.374809,42.022556 13.374809,41.816287 c 0,-0.431189 -7.2870959,-3.836644 -19.9048632,-9.302075 C -11.14757,30.514115 -14.869932,28.787698 -14.801966,28.677727 -14.734,28.567755 -11.372749,27.021139 -7.3325195,25.2408 5.2396918,19.700819 11.798429,16.136284 12.001592,14.733117 12.109489,13.98792 8.7362187,7.4655919 4.6413181,0.50178518 -6.6060425,-18.625523 -13.877274,-31.724361 -13.877274,-32.858736 c 0,-0.585044 0.196115,-0.489664 4.2738464,2.078575 11.4923594,7.238121 35.5512046,21.4093844 41.0389456,24.1729652 1.01164,0.5094552 2.001899,0.8639043 2.200574,0.7876646 0.425302,-0.163203 2.723012,-4.6894328 6.461633,-12.7286828 3.431302,-7.378417 5.876713,-12.255672 6.566657,-13.096875 l 0.542517,-0.661459 1.314516,2.778125 c 0.722985,1.527969 2.583276,5.754688 4.133977,9.392709 3.147521,7.384229 6.264273,13.9011415 6.901053,14.4296202 0.353804,0.293632 0.654833,0.2327857 1.923592,-0.388821 2.464126,-1.2072567 10.446383,-5.8091122 22.603934,-13.0314092 21.433199,-12.732578 24.175219,-14.295934 24.500999,-13.969222 0.24777,0.248484 -0.60823,1.751727 -10.619122,18.648373 -9.604033,16.2099438 -15.844546,26.988124 -16.613542,28.693755 -0.330334,0.732679 -0.395948,1.185132 -0.219643,1.514562 0.483034,0.90256 8.650388,4.660072 22.928077,10.548406 2.9468,1.215303 5.35782,2.290588 5.35782,2.389523 0,0.09894 -1.22039,0.685501 -2.71198,1.303473 -1.49159,0.617974 -5.9862,2.551882 -9.988023,4.297574 -11.325949,4.940652 -14.884579,6.86553 -15.228887,8.23736 -0.09987,0.397923 0.05847,1.062559 0.426067,1.788372 1.240599,2.44956 6.552313,11.395371 17.946914,30.225584 4.831979,7.985122 8.715779,14.588042 8.630659,14.673161 -0.44983,0.44984 -15.358087,-7.702391 -31.353919,-17.145163 -11.017123,-6.503707 -15.693019,-8.908555 -16.787397,-8.633883 -0.67578,0.169611 -2.186096,2.157444 -3.292853,4.333959 -0.316563,0.622541 -1.868083,4.134885 -3.447822,7.805208 -3.620397,8.411536 -6.462612,14.553779 -6.783525,14.659716 -0.136279,0.04498 -2.0822,-3.907205 -4.324271,-8.782645 z M 48.7721,60.496055 c 3.265493,-4.955352 5.515126,-7.80256 6.613898,-8.370755 0.655574,-0.339011 0.892577,-0.325745 2.182437,0.12215 0.795848,0.276355 5.971373,2.766174 11.501165,5.532935 5.529791,2.766761 10.365451,5.098931 10.745909,5.182597 0.463568,0.101947 0.73929,0.02822 0.835887,-0.223504 0.217273,-0.566208 -1.611675,-4.20507 -6.770854,-13.471249 -2.567268,-4.610955 -4.997632,-9.058746 -5.40081,-9.883979 l -0.733049,-1.500426 1.095444,-0.963935 c 0.602493,-0.530167 2.686087,-1.843265 4.630208,-2.917997 5.16505,-2.855301 7.635806,-4.492701 7.635806,-5.060341 0,-0.681826 -1.745131,-1.876655 -7.77176,-5.321054 -2.89202,-1.652876 -5.312595,-3.146928 -5.379053,-3.320113 -0.06646,-0.173189 2.256732,-5.174972 5.162643,-11.1150745 2.905911,-5.9401048 5.534604,-11.4886288 5.841542,-12.3300514 0.491215,-1.3465969 0.50899,-1.5486962 0.148384,-1.6870733 C 78.557542,-5.0437729 76.103558,-3.7291801 68.408141,0.90108375 61.598224,4.9985508 56.962309,7.5132434 56.218414,7.5132434 c -1.078492,0 -3.556698,-3.4429779 -7.005724,-9.7330708 -1.351627,-2.4650012 -2.204916,-3.7535828 -2.452868,-3.7041666 -0.209119,0.04168 -1.55208,2.397498 -2.984357,5.2351542 -2.866551,5.6792732 -4.605787,8.2020832 -5.654558,8.2020832 -0.747856,0 -7.332798,-3.3213357 -13.613622,-6.86648243 C 19.34483,-2.2671376 13.499293,-5.1867564 12.827669,-5.1867564 c -0.26398,0 -0.552926,0.1180571 -0.642104,0.2623476 -0.274354,0.4439153 1.601483,4.78270616 5.949259,13.7605688 4.564137,9.424633 5.638798,11.918915 5.401585,12.537075 -0.245999,0.641064 -2.668,2.130634 -6.307629,3.879294 -5.142082,2.470512 -6.172113,3.699687 -4.29809,5.129077 0.483341,0.36866 2.466372,1.383173 4.406738,2.25447 5.743813,2.57919 6.759959,3.507616 6.529367,5.965708 -0.185301,1.975313 -1.668476,5.114952 -7.270811,15.391117 -2.790293,5.118137 -5.073258,9.434152 -5.073258,9.591146 0,0.156995 0.143274,0.285445 0.318389,0.285445 0.175114,0 4.074411,-2.044028 8.665104,-4.542287 9.706697,-5.28239 16.739367,-8.951462 17.157654,-8.951462 0.463167,0 2.236719,3.236595 4.999421,9.12356 1.40116,2.985688 2.691736,5.428523 2.867951,5.428523 0.176216,0 1.634599,-1.994297 3.240855,-4.431771 z"
           id="path4598"
           inkscape:connector-curvature="0" />
        <path
           style="fill:#000000;stroke-width:0.26458332"
           d="M 46.513405,89.648963 C 46.365077,89.367494 44.908067,86.220169 43.275609,82.654909 39.732426,74.916661 36.035546,67.531278 34.577048,65.277507 33.04627,62.912037 32.769936,62.823502 30.476536,63.963734 27.311984,65.537087 19.63444,69.933779 7.5539757,77.090782 -10.613607,87.854061 -13.877274,89.687407 -13.877274,89.129654 c 0,-0.651031 5.5711937,-10.259504 18.7017102,-32.25429 4.8592263,-8.139636 8.7994198,-14.983856 8.7559888,-15.209382 -0.08708,-0.452181 -8.6152675,-4.415417 -20.5068356,-9.529984 -4.0345704,-1.735267 -7.3665474,-3.252536 -7.4043964,-3.371707 -0.03785,-0.119171 3.174103,-1.641661 7.13767,-3.383312 C 6.6017615,19.31929 12.316476,16.175067 12.316476,14.646828 12.316476,13.919512 8.8299526,7.2660088 5.3202257,1.2955352 -3.2871648,-13.346678 -12.456374,-29.636111 -13.338302,-31.852009 c -0.19009,-0.47761 -0.291827,-0.922171 -0.226086,-0.987912 0.06574,-0.06574 1.837941,0.965676 3.9382194,2.292038 10.31759096,6.515742 36.4014036,21.8617766 41.1357936,24.2016484 1.024618,0.506394 2.050548,0.8487277 2.279844,0.7607379 0.400486,-0.1536806 3.018575,-5.3634693 6.66398,-13.2607943 2.312824,-5.010449 6.183244,-12.720836 6.476527,-12.902094 0.302725,-0.187095 2.202505,3.826777 5.727956,12.102099 3.39883,7.978093 6.106303,13.5524877 6.827909,14.0579212 0.447371,0.3133514 0.671079,0.3186906 1.356326,0.032377 1.957549,-0.817917 12.471582,-6.9175522 34.950349,-20.2761792 8.545734,-5.078534 12.567704,-7.301397 12.567704,-6.945902 0,0.333832 -2.50366,4.651136 -11.244068,19.389229 -12.743981,21.4889265 -16.272594,27.741819 -16.272594,28.835927 0,0.323588 0.345186,0.755732 0.859896,1.076518 2.29022,1.427342 12.307826,5.895943 23.415626,10.445117 2.07367,0.849268 3.77031,1.618385 3.77031,1.709148 0,0.09076 -3.83976,1.8122 -8.53281,3.825414 -10.343953,4.43733 -16.64723,7.468381 -18.035766,8.672838 -1.506607,1.306875 -1.417746,1.892017 0.902837,5.94509 2.081491,3.63548 13.239046,22.24239 20.592949,34.341857 2.47608,4.073914 4.45372,7.455355 4.39476,7.514312 -0.32267,0.322678 -13.515883,-6.853195 -25.295199,-13.758224 -11.826383,-6.932618 -15.940807,-9.26582 -18.962502,-10.753225 -2.518691,-1.239803 -3.11222,-1.437666 -3.704167,-1.23484 -1.215551,0.4165 -3.26518,3.942644 -5.887228,10.128277 -2.414058,5.694976 -6.032984,13.791565 -7.044422,15.760427 -0.486095,0.946229 -0.559279,0.99437 -0.804437,0.529167 z m 2.144318,-28.623741 c 2.975986,-4.549143 5.59357,-7.946253 6.662547,-8.646674 0.641954,-0.420624 0.766048,-0.420393 2.056876,0.0038 0.755537,0.248306 5.338691,2.45808 10.184789,4.910608 9.55321,4.834724 12.396674,6.13895 12.934294,5.932644 0.191031,-0.07331 0.346937,-0.404908 0.346458,-0.736899 -0.0011,-0.769713 -2.466599,-5.601031 -6.721514,-13.171323 -1.840288,-3.274219 -3.967861,-7.1827 -4.727943,-8.685514 l -1.381964,-2.732395 0.96765,-0.839486 c 0.532207,-0.461716 2.470412,-1.672923 4.307126,-2.691569 5.382194,-2.984981 8.086682,-4.794842 8.086682,-5.411663 0,-0.335021 -0.471709,-0.879726 -1.25677,-1.451253 -1.257361,-0.915363 -2.287104,-1.535869 -8.598959,-5.181584 -1.85539,-1.071671 -3.373437,-2.078926 -3.373437,-2.238348 0,-0.159422 1.998456,-4.333341 4.441015,-9.275379 6.578775,-13.3108643 7.675531,-15.9969804 6.531647,-15.9969804 -0.68404,0 -3.419194,1.491226 -10.30125,5.61632091 C 61.194491,4.9972676 57.074045,7.2486601 56.33481,7.2486601 c -1.152022,0 -3.052964,-2.5831297 -6.620084,-8.9958332 -1.61535,-2.9039555 -2.590948,-4.3901836 -2.913854,-4.4389727 -0.388212,-0.058655 -1.026437,1.0011912 -3.186578,5.29166655 C 40.646601,4.9999637 39.267203,7.0716723 38.228447,7.1945025 37.388881,7.2937768 32.506552,4.8908707 24.884184,0.62693309 18.045782,-3.198455 13.310301,-5.5307544 12.653348,-5.3969493 c -1.261633,0.2569607 -0.360492,2.6675582 5.597896,14.9746464 3.93343,8.1245229 5.177731,10.8902869 5.177731,11.5087639 0,0.571103 -1.937747,1.805747 -6.26819,3.993808 -3.896855,1.968979 -5.373476,3.082383 -5.373476,4.051721 0,0.756158 1.726631,2.051312 4.116165,3.087552 6.56422,2.846629 7.790085,3.76818 7.790085,5.856243 0,2.209363 -0.88668,4.119351 -7.804441,16.811466 -2.547035,4.673084 -4.630976,8.665337 -4.630976,8.871672 0,0.206333 0.187981,0.375153 0.417738,0.375153 0.229753,0 4.545769,-2.244336 9.591145,-4.987412 13.542521,-7.362817 16.018264,-8.626885 16.519493,-8.434543 0.390832,0.149973 4.358513,7.89107 6.506462,12.694351 0.500573,1.119391 0.955391,1.785937 1.218636,1.785937 0.250433,0 1.520579,-1.682374 3.146107,-4.167187 z"
           id="path4596"
           inkscape:connector-curvature="0" />
      </g>
    </g>
  </g>
</svg>
