<?xml version="1.0" encoding="UTF-8" standalone="no"?>
<!-- Created with Inkscape (http://www.inkscape.org/) -->

<svg
   xmlns:dc="http://purl.org/dc/elements/1.1/"
   xmlns:cc="http://creativecommons.org/ns#"
   xmlns:rdf="http://www.w3.org/1999/02/22-rdf-syntax-ns#"
   xmlns:svg="http://www.w3.org/2000/svg"
   xmlns="http://www.w3.org/2000/svg"
   xmlns:sodipodi="http://sodipodi.sourceforge.net/DTD/sodipodi-0.dtd"
   xmlns:inkscape="http://www.inkscape.org/namespaces/inkscape"
   width="238.125mm"
   height="238.125mm"
   viewBox="0 0 238.12502 238.12502"
   version="1.1"
   id="svg8"
   sodipodi:docname="uflash2.svg"
   inkscape:version="0.92.1 r15371"
   inkscape:export-filename="C:\xampp\htdocs\portfolio\img\projects\uflash2.png"
   inkscape:export-xdpi="96"
   inkscape:export-ydpi="96">
  <defs
     id="defs2" />
  <sodipodi:namedview
     id="base"
     pagecolor="#efb3b3"
     bordercolor="#666666"
     borderopacity="1.0"
     inkscape:pageopacity="0"
     inkscape:pageshadow="2"
     inkscape:zoom="0.44124695"
     inkscape:cx="403.78734"
     inkscape:cy="169.8379"
     inkscape:document-units="mm"
     inkscape:current-layer="g4623"
     showgrid="false"
     fit-margin-top="0"
     fit-margin-left="0"
     fit-margin-right="0"
     fit-margin-bottom="0"
     inkscape:window-width="1920"
     inkscape:window-height="1051"
     inkscape:window-x="-9"
     inkscape:window-y="-9"
     inkscape:window-maximized="1" />
  <metadata
     id="metadata5">
    <rdf:RDF>
      <cc:Work
         rdf:about="">
        <dc:format>image/svg+xml</dc:format>
        <dc:type
           rdf:resource="http://purl.org/dc/dcmitype/StillImage" />
        <dc:title />
      </cc:Work>
    </rdf:RDF>
  </metadata>
  <g
     inkscape:label="Layer 1"
     inkscape:groupmode="layer"
     id="layer1"
     transform="translate(53.455368,86.663757)">
    <g
       id="g4496">
      <g
         id="g4623">
        <path
           style="fill:#d1d1d1;stroke-width:0.26458332"
           d="m -4.1105763,51.260291 c -3.2057287,-0.440897 -5.9202477,-1.929508 -7.7643597,-4.257887 -2.228508,-2.813722 -2.686682,-5.509892 -2.686682,-15.810045 0,-6.694178 0.05672,-7.808372 0.415774,-8.167425 0.55031,-0.55031 3.097641,-0.568727 3.64005,-0.02633 0.323678,0.323678 0.405075,1.899933 0.48192,9.332486 l 0.092464,8.943031 0.8464921,1.713867 c 0.6608736,1.338046 1.1284135,1.897433 2.1321315,2.550986 3.6752213,2.393045 9.3352991,1.403829 11.2380475,-1.964084 1.0161164,-1.798556 1.2449704,-4.208412 1.2542837,-13.207781 0.00827,-7.985246 -0.057835,-7.757953 2.2561286,-7.757953 2.4081376,0 2.3001236,-0.488151 2.1889878,9.89295 -0.091675,8.56342 -0.1276535,9.118267 -0.7037758,10.853965 -0.780624,2.351805 -1.4930966,3.459092 -3.2430323,5.040159 -1.6717221,1.510406 -2.907829,2.10652 -5.49783525,2.651345 -1.84627305,0.388377 -2.99223645,0.440791 -4.65059445,0.212712 z M 61.471157,50.941547 c -4.907502,-1.329936 -8.597122,-4.848809 -10.454192,-9.970394 -0.42876,-1.182473 -0.570601,-2.202479 -0.584984,-4.206785 -0.03268,-4.554164 1.21057,-7.446391 4.626735,-10.763388 2.177783,-2.114563 4.297042,-3.195933 7.494645,-3.824208 2.068685,-0.406461 2.438525,-0.409667 4.327494,-0.03752 2.529403,0.498319 4.683686,1.489826 6.563198,3.020711 l 1.423496,1.159451 v -1.439351 c 0,-1.908758 0.379743,-2.270903 2.38125,-2.270903 2.564452,0 2.38125,-1.078865 2.38125,14.022916 0,15.101782 0.183202,14.022917 -2.38125,14.022917 -2.009677,0 -2.38125,-0.359137 -2.38125,-2.301555 v -1.470006 l -1.164323,1.073234 c -3.085592,2.8442 -8.171561,4.085281 -12.232069,2.984881 z m 8.599546,-5.188878 c 3.236963,-1.744285 4.800579,-4.268753 5.001607,-8.075137 0.163052,-3.087327 -0.264502,-4.925539 -1.613829,-6.938446 -3.527306,-5.261978 -11.564895,-5.91134 -15.741827,-1.271791 -2.02928,2.254033 -2.820763,4.646366 -2.628181,7.943934 0.210392,3.60248 1.656903,6.170525 4.50522,7.998286 2.079254,1.334254 2.962288,1.555051 5.881147,1.470551 2.512521,-0.07274 2.744087,-0.129542 4.595863,-1.127397 z m 19.878096,5.334238 c -0.654844,-0.190209 -1.747322,-0.592717 -2.42773,-0.894464 -1.374238,-0.609444 -3.657687,-2.575287 -3.657687,-3.148933 0,-0.509077 2.094516,-2.738517 2.572785,-2.738517 0.213796,0 0.923043,0.470329 1.576104,1.045176 1.471308,1.295095 2.63807,1.695772 4.490693,1.542139 1.601029,-0.13277 2.532105,-0.688586 3.488468,-2.082477 0.714164,-1.040881 0.684004,-2.668735 -0.07079,-3.820686 -0.49471,-0.755026 -2.635645,-2.19886 -5.045806,-3.402865 -0.902091,-0.450643 -2.348616,-1.541798 -3.35035,-2.527268 -1.428144,-1.404953 -1.84259,-2.007084 -2.182812,-3.171312 -0.483251,-1.653656 -0.514654,-2.594044 -0.140769,-4.215622 0.830813,-3.603315 4.996503,-6.288865 8.733824,-5.63055 0.8602,0.151521 2.071439,0.503568 2.691638,0.782325 1.4433,0.648711 3.905763,2.622622 3.905763,3.13086 0,0.54864 -1.882692,2.739863 -2.354082,2.739863 -0.214466,0 -0.635738,-0.227782 -0.936159,-0.506185 -1.120487,-1.038362 -3.099602,-1.875065 -4.435224,-1.875065 -2.261767,0 -3.65162,1.216734 -3.65162,3.196778 0,1.729925 1.042707,2.741941 5.154062,5.002358 3.980519,2.188485 5.682242,4.008559 6.306443,6.745034 0.63565,2.786737 -0.0759,5.249698 -2.116935,7.327421 -2.189652,2.229022 -5.82602,3.293157 -8.54982,2.50199 z M 17.604156,50.239219 c -0.369808,-0.369806 -0.415774,-2.400721 -0.415774,-18.369643 0,-15.968921 0.04597,-17.999837 0.415774,-18.369642 0.361604,-0.361604 1.582918,-0.415774 9.373809,-0.415774 10.329323,0 9.789584,-0.131289 9.789584,2.38125 0,2.466588 0.275658,2.38125 -7.691816,2.38125 h -6.860268 v 5.159375 5.159375 h 6.860268 c 7.967474,0 7.691816,-0.08534 7.691816,2.38125 0,2.466588 0.275658,2.38125 -7.691816,2.38125 h -6.860268 v 8.447767 c 0,9.809335 0.143569,9.279316 -2.513541,9.279316 -1.176309,0 -1.806996,-0.125002 -2.097768,-0.415774 z m 23.547917,0 c -0.370041,-0.370041 -0.415774,-2.448827 -0.415774,-18.898809 0,-16.449982 0.04573,-18.528769 0.415774,-18.898809 0.283329,-0.28333 0.909434,-0.415775 1.965476,-0.415775 1.056042,0 1.682146,0.132445 1.965475,0.415775 0.370041,0.37004 0.415775,2.448827 0.415775,18.898809 0,16.449982 -0.04573,18.528768 -0.415775,18.898809 -0.283329,0.283329 -0.909433,0.415774 -1.965475,0.415774 -1.056042,0 -1.682147,-0.132445 -1.965476,-0.415774 z m 65.087497,0 c -0.36999,-0.369991 -0.41577,-2.438519 -0.41577,-18.785417 0,-18.016865 0.0102,-18.379805 0.52917,-18.898809 0.39919,-0.399195 0.88194,-0.529167 1.96547,-0.529167 2.33218,0 2.26786,-0.215056 2.26786,7.582424 v 6.750876 l 1.65364,-1.386568 c 1.90707,-1.599051 3.09763,-2.184328 5.64519,-2.775146 4.41696,-1.02436 9.17992,1.17143 11.2215,5.173274 1.20799,2.367852 1.37894,3.878157 1.51464,13.381993 0.14893,10.429824 0.26878,9.905084 -2.26064,9.898263 -0.82635,-0.0021 -1.68105,-0.116776 -1.89933,-0.25455 -0.3361,-0.212138 -0.42049,-1.720903 -0.55108,-9.851678 -0.17079,-10.634338 -0.21738,-10.950411 -1.86389,-12.647028 -1.17118,-1.206823 -2.32554,-1.58087 -4.88496,-1.582883 -1.56324,-0.0013 -2.14489,0.132908 -3.4892,0.804664 -1.9373,0.968081 -3.03457,2.155703 -4.13267,4.472993 l -0.82091,1.732325 -0.13229,8.410622 c -0.1115,7.088675 -0.19467,8.449982 -0.52917,8.661051 -0.66888,0.422069 -3.34863,0.311695 -3.81756,-0.157239 z m 23.9259,-30.951652 c 0,-0.433062 0.93567,-2.217748 2.74794,-5.24138 1.67965,-2.802368 1.74205,-2.928588 1.54128,-3.117887 -0.1035,-0.09759 -1.11092,-0.561919 -2.2387,-1.0318456 -1.38658,-0.5777601 -2.05052,-0.9960875 -2.05052,-1.2919631 0,-0.2932509 0.74167,-0.7715858 2.24895,-1.4504326 1.23693,-0.5570855 2.24896,-1.0437125 2.24896,-1.0813944 0,-0.037682 -0.85402,-1.5413699 -1.89782,-3.3415288 -2.45798,-4.2390933 -2.59653,-4.5088254 -2.59846,-5.058955 -0.003,-0.9206891 0.40036,-0.7488767 5.63317,2.39799019 1.66894,1.00365451 2.95155,1.61857791 3.08487,1.47897851 0.12551,-0.1314212 0.61269,-1.16168224 1.08261,-2.2894687 0.59473,-1.4273027 0.99219,-2.0505208 1.30773,-2.0505208 0.40848,0 1.02682,1.1261248 2.27759,4.1479417 0.22968,0.5549159 0.37443,0.4945221 3.9426,-1.64503632 2.0373,-1.22160508 3.83842,-2.22497648 4.0025,-2.22971258 0.16409,-0.00474 0.43875,0.1605783 0.61036,0.3673634 0.34488,0.4155467 -0.43348,2.20582333 -1.87032,4.3019081 -0.41699,0.6083009 -0.75816,1.1863466 -0.75816,1.2845441 0,0.098197 -0.36518,0.719627 -0.8115,1.380953 -0.63071,0.9345375 -0.73386,1.2516406 -0.46302,1.4233816 0.19166,0.1215337 0.45265,0.2227951 0.57997,0.2250229 0.54989,0.00963 3.31825,1.4168437 3.44692,1.7521449 0.32392,0.8441161 -0.0434,1.1215925 -3.0831,2.3287805 -0.5457,0.216723 -0.99219,0.492493 -0.99219,0.612823 0,0.120329 0.53578,1.079724 1.19063,2.131991 0.65484,1.052264 1.19062,1.966632 1.19062,2.031928 0,0.06529 0.30958,0.57049 0.68795,1.122654 2.01138,2.935285 1.10631,3.859721 -1.87857,1.91875 -0.87313,-0.567766 -1.94469,-1.196559 -2.38125,-1.397322 -0.43657,-0.200761 -1.25685,-0.680342 -1.82286,-1.065734 -0.56601,-0.385392 -1.12233,-0.700715 -1.23625,-0.700715 -0.11393,0 -0.3517,0.446485 -0.52837,0.992188 -0.17667,0.545703 -0.60463,1.557734 -0.95102,2.248958 -1.0487,2.092706 -1.61056,1.702848 -3.17277,-2.201495 l -0.42193,-1.054512 -0.96048,0.579607 c -3.50196,2.11325 -6.85037,3.930552 -7.24434,3.931755 -0.25467,7.94e-4 -0.46302,-0.183612 -0.46302,-0.40976 z m 12.85359,-6.999541 c 0.30276,0.0013 1.1362,0.299543 1.85208,0.662733 0.71589,0.363194 1.32883,0.66085 1.36209,0.661459 0.13082,0.0024 -0.59026,-1.493089 -1.03976,-2.156402 -0.68162,-1.005848 -0.59008,-1.6297117 0.31783,-2.1660274 0.43656,-0.2578841 0.79375,-0.5744792 0.79375,-0.7035456 0,-0.1290664 -0.35719,-0.4456615 -0.79375,-0.7035456 -0.96703,-0.5712381 -0.9891,-1.0452047 -0.12783,-2.7448325 0.36625,-0.7227676 0.57248,-1.3141219 0.45829,-1.3141219 -0.11419,0 -0.64566,0.2976563 -1.18105,0.6614583 -1.34576,0.9144715 -2.1458,0.8614834 -2.80905,-0.186047 l -0.5366,-0.8475081 -0.48157,0.8458333 c -0.60344,1.0598943 -1.09915,1.0644954 -2.91245,0.02703 -0.79034,-0.4521809 -1.49448,-0.7646379 -1.56477,-0.694346 -0.0703,0.070292 0.1749,0.8122602 0.54486,1.6488224 0.84002,1.8994358 0.84177,2.3335853 0.0112,2.7780906 -0.84108,0.450133 -0.83024,0.5477061 0.13229,1.190625 0.99852,0.6669591 0.9952,1.1709905 -0.0194,2.9443545 -0.44724,0.781698 -0.74903,1.42127 -0.67065,1.42127 0.0784,0 0.70575,-0.357187 1.39414,-0.79375 1.66502,-1.055923 2.26218,-1.026652 2.8914,0.141738 l 0.50379,0.935484 0.66235,-0.805579 c 0.36429,-0.443069 0.91006,-0.804506 1.21282,-0.803193 z"
           id="path4637"
           inkscape:connector-curvature="0" />
        <path
           style="fill:#a5a5a5;stroke-width:0.26458332"
           d="m -5.2856438,50.772547 c -2.4668798,-0.53491 -4.3095678,-1.533874 -5.7320022,-3.107441 -1.557515,-1.723001 -2.429843,-3.594076 -2.896963,-6.21374 -0.485573,-2.723171 -0.539133,-17.785916 -0.06493,-18.260123 0.421053,-0.421053 2.981026,-0.410874 3.327414,0.01323 0.167163,0.204666 0.30825,3.709202 0.370149,9.194271 l 0.100026,8.863542 0.6812595,1.455208 c 0.862449,1.842246 1.8333191,2.811714 3.6703185,3.665024 1.2117917,0.562891 1.8313982,0.673823 3.7041667,0.663165 1.8716069,-0.01064 2.4712718,-0.125963 3.5739123,-0.687255 3.8851178,-1.977694 4.3436249,-3.657179 4.3564175,-15.957288 0.00521,-4.999633 0.094361,-6.979587 0.3246702,-7.209896 0.4550965,-0.455097 2.9823277,-0.407823 3.3731544,0.0631 0.2353945,0.283631 0.2910416,2.659761 0.2184241,9.326563 -0.09235,8.478287 -0.1291696,9.041595 -0.7043394,10.775174 -0.7694453,2.319132 -1.5062755,3.480943 -3.1141167,4.910246 -1.5293816,1.359554 -2.9252942,2.023499 -5.3223107,2.531478 -2.1819235,0.462397 -3.6454054,0.456097 -5.8652542,-0.02524 z M 61.424228,50.665878 c -4.845793,-1.313296 -8.39293,-4.632915 -10.004639,-9.362924 -1.835965,-5.388147 -0.59608,-10.744777 3.4315,-14.824983 5.334651,-5.40435 13.101061,-5.78064 18.759689,-0.908926 l 1.521354,1.309789 v -1.685047 c 0,-0.957813 0.137028,-1.822072 0.3175,-2.002544 0.174625,-0.174625 0.98425,-0.3175 1.799167,-0.3175 0.814916,0 1.624541,0.142875 1.799166,0.3175 0.439222,0.439222 0.459002,26.31299 0.02053,26.841328 -0.375015,0.451864 -3.176106,0.483087 -3.618854,0.04034 -0.174625,-0.174625 -0.3175,-1.008063 -0.3175,-1.852084 0,-0.84402 -0.07598,-1.534583 -0.16885,-1.534583 -0.09287,0 -0.676343,0.467791 -1.296614,1.039537 -3.077461,2.836704 -8.138882,4.052237 -12.24244,2.940098 z m 8.4128,-4.517917 c 2.176095,-1.162534 3.463804,-2.44735 4.557488,-4.547256 0.8368,-1.606682 0.865285,-1.765787 0.865801,-4.836337 5.3e-4,-2.929657 -0.05582,-3.289983 -0.728726,-4.663014 -1.137274,-2.320547 -2.593993,-3.785928 -4.893124,-4.922221 -1.910581,-0.944258 -2.15614,-0.998098 -4.552342,-0.998098 -2.346568,0 -2.667418,0.06626 -4.363024,0.901001 -2.261264,1.113216 -3.827952,2.69053 -4.962324,4.995979 -0.82505,1.676794 -0.868939,1.914948 -0.862748,4.681715 0.0062,2.75999 0.05181,3.002409 0.857922,4.557247 1.072671,2.068978 2.099254,3.241537 3.785148,4.323371 2.136592,1.371047 2.998938,1.589436 5.933741,1.502717 2.436858,-0.072 2.781398,-0.150601 4.362188,-0.995104 z m 19.91351,4.643075 c -0.763886,-0.214328 -1.870577,-0.635433 -2.459318,-0.935783 -1.316635,-0.671701 -3.163255,-2.307521 -3.163255,-2.80216 0,-0.544295 1.844755,-2.483517 2.362536,-2.483517 0.246883,0 0.782807,0.348547 1.190945,0.77455 1.819363,1.899007 5.179037,2.399225 7.13099,1.061725 1.076214,-0.737434 2.015529,-2.261315 2.015529,-3.269859 0,-1.971093 -1.198567,-3.229543 -5.060458,-5.313291 -4.815162,-2.598102 -6.780659,-5.24647 -6.507945,-8.76899 0.252346,-3.25946 2.089727,-5.5124 5.287846,-6.4838 2.004015,-0.6087 3.346535,-0.533749 5.569585,0.310944 1.555784,0.591151 4.150557,2.505374 4.150557,3.061962 0,0.508005 -1.610208,2.475958 -2.031141,2.482406 -0.171239,0.0026 -1.033537,-0.493583 -1.916216,-1.102681 -1.333011,-0.919853 -1.866942,-1.126408 -3.15196,-1.219356 -1.851009,-0.133889 -2.993462,0.35601 -3.759311,1.612048 -1.172501,1.922966 -0.23363,4.10954 2.420379,5.636911 0.784736,0.451612 2.317059,1.336212 3.405166,1.96578 4.676376,2.705696 6.291883,6.121797 4.890433,10.341155 -1.298161,3.908412 -6.16124,6.314065 -10.374362,5.131956 z M 17.770465,50.07291 c -0.459144,-0.459145 -0.459144,-35.947522 0,-36.406667 0.454711,-0.45471 17.96029,-0.45471 18.415,0 0.412232,0.412231 0.412232,3.186102 0,3.598333 -0.230849,0.230849 -2.216621,0.3175 -7.276041,0.3175 h -6.958542 v 5.423959 5.423958 h 6.958542 c 5.05942,0 7.045192,0.08665 7.276041,0.3175 0.412232,0.412231 0.412232,3.186102 0,3.598333 -0.230849,0.230849 -2.216621,0.3175 -7.276041,0.3175 h -6.958542 v 8.546042 c 0,6.294144 -0.08366,8.629703 -0.3175,8.863542 -0.177546,0.177546 -1.028935,0.3175 -1.931458,0.3175 -0.902523,0 -1.753913,-0.139954 -1.931459,-0.3175 z m 23.547917,0 c -0.459272,-0.459272 -0.459272,-37.005729 0,-37.465 0.412231,-0.412232 3.186102,-0.412232 3.598333,0 0.459272,0.459271 0.459272,37.005728 0,37.465 -0.174625,0.174625 -0.98425,0.3175 -1.799166,0.3175 -0.814917,0 -1.624542,-0.142875 -1.799167,-0.3175 z m 65.087498,0 c -0.24083,-0.240829 -0.3175,-4.740662 -0.3175,-18.634226 0,-16.298791 0.0458,-18.362533 0.41578,-18.7325 0.50194,-0.501941 3.02553,-0.572799 3.50006,-0.09827 0.23085,0.230851 0.3175,2.217023 0.3175,7.277856 v 6.960357 l 1.88479,-1.582547 c 3.07987,-2.585963 6.68627,-3.625612 9.85999,-2.842419 2.28579,0.564076 3.32891,1.072367 4.72793,2.303836 1.38512,1.219232 2.41751,3.049646 2.99799,5.315421 0.57622,2.249109 0.8921,19.327696 0.36914,19.957828 -0.41445,0.499385 -3.24543,0.543324 -3.64934,0.05664 -0.17972,-0.216543 -0.30849,-3.671522 -0.36313,-9.742948 l -0.0847,-9.407421 -0.79706,-1.55774 c -0.52702,-1.02996 -1.17729,-1.824966 -1.91927,-2.346452 -0.99857,-0.701821 -1.38523,-0.801285 -3.50974,-0.902859 -2.25515,-0.10782 -2.48092,-0.06818 -4.07153,0.714875 -2.03747,1.003041 -3.37577,2.424203 -4.48249,4.760008 l -0.83032,1.752436 -0.091,8.202083 c -0.0565,5.091258 -0.19421,8.32752 -0.36313,8.532812 -0.3509,0.426448 -3.17041,0.436828 -3.59401,0.01323 z m 24.02417,-31.001349 c 0,-0.31175 2.08477,-4.052998 3.92616,-7.045735 0.31338,-0.509323 0.57022,-1.006784 0.57077,-1.105469 5.2e-4,-0.09868 -0.66356,-0.428064 -1.47577,-0.731953 -2.00532,-0.7502847 -3.02116,-1.2970329 -3.02116,-1.6260502 0,-0.1511856 1.01203,-0.742442 2.24896,-1.313905 1.23692,-0.5714629 2.24896,-1.0852097 2.24896,-1.1416585 0,-0.1337152 -3.66776,-6.49003078 -4.13761,-7.1705656 -0.45422,-0.6579155 -0.4664,-1.4624817 -0.0221,-1.4624817 0.186,0 2.0017,1.0101977 4.03489,2.24488375 2.03319,1.23468606 3.82835,2.24671735 3.98925,2.24895835 0.1609,0.00212 0.7036,-0.97057635 1.206,-2.16181518 0.5024,-1.19123882 1.05676,-2.21365502 1.23191,-2.27203792 0.27958,-0.093194 1.01076,1.27957 2.13118,4.0012038 0.28918,0.7024396 0.35057,0.72821 0.89937,0.3775498 3.16692,-2.02353333 7.16808,-4.1936352 7.49837,-4.0668866 0.5786,0.2220251 0.32959,0.8172265 -1.92764,4.6077505 -1.08048,1.8144173 -1.98854,3.4139611 -2.01791,3.5545369 -0.0294,0.1405757 0.77049,0.5943282 1.77747,1.008335 3.21929,1.3235781 3.24236,1.8449105 0.13417,3.0326176 -1.00801,0.385183 -1.83275,0.832823 -1.83275,0.994759 0,0.161933 0.87821,1.73764 1.95157,3.501567 2.27822,3.743947 2.50367,4.29128 1.86808,4.535181 -0.24759,0.09501 -0.64275,0.05297 -0.87814,-0.09342 -0.23538,-0.146389 -1.91279,-1.124599 -3.72757,-2.173799 -3.0379,-1.756341 -3.32644,-1.870929 -3.63802,-1.444815 -0.18613,0.25455 -0.33842,0.574003 -0.33842,0.709893 0,0.135892 -0.31623,0.951727 -0.70273,1.812967 -1.00896,2.248252 -1.28204,2.129086 -2.73803,-1.194818 l -0.79362,-1.811764 -0.99166,0.59345 c -4.06265,2.43124 -6.80371,3.956119 -7.11136,3.956119 -0.19943,0 -0.3626,-0.163169 -0.3626,-0.362599 z m 11.38805,-5.611013 c 0.62222,-1.162643 1.07533,-1.218552 2.89629,-0.35737 0.91619,0.433287 1.72284,0.730742 1.79257,0.661014 0.0697,-0.06973 -0.24483,-0.785239 -0.69902,-1.590022 -0.4542,-0.804786 -0.82581,-1.642546 -0.82581,-1.861695 0,-0.219147 0.41525,-0.6674356 0.92277,-0.9961963 0.50752,-0.328758 0.92276,-0.6572753 0.92276,-0.7300357 0,-0.07276 -0.41524,-0.4012777 -0.92276,-0.7300357 -0.50752,-0.3287607 -0.92277,-0.7786396 -0.92277,-0.9997334 0,-0.2210938 0.3589,-1.1129671 0.79756,-1.9819435 0.43866,-0.8689737 0.70009,-1.5799541 0.58097,-1.5799541 -0.11913,0 -0.74592,0.3342243 -1.39287,0.7427225 -1.88232,1.1885216 -1.99469,1.1932047 -2.87933,0.1199832 -0.43773,-0.5310399 -0.83519,-0.9126272 -0.88326,-0.847971 -0.0481,0.064656 -0.29223,0.4449789 -0.54258,0.8451612 -0.59795,0.9558099 -1.13578,0.9185195 -3.21201,-0.2227183 -0.95089,-0.5226765 -1.72889,-0.8764694 -1.72889,-0.7862041 0,0.090263 0.35718,0.8717015 0.79375,1.7365265 1.00588,1.9926538 1.00618,2.5495621 0.002,3.12116 -0.43564,0.2478934 -0.79207,0.5102463 -0.79207,0.5830067 0,0.07276 0.3585,0.3362986 0.79667,0.585642 1.20546,0.6859825 1.25291,1.175705 0.28345,2.925749 -0.47502,0.857504 -0.80113,1.621642 -0.72469,1.698086 0.0764,0.07644 0.78563,-0.230979 1.57596,-0.68316 0.79033,-0.452183 1.63485,-0.82215 1.8767,-0.82215 0.24186,0 0.68561,0.416718 0.98612,0.926041 0.65283,1.106469 0.82044,1.137968 1.29882,0.244097 z"
           id="path4635"
           inkscape:connector-curvature="0" />
        <path
           style="fill:#6e6e6e;stroke-width:0.26458332"
           d="m -5.4629279,50.525773 c -3.2784124,-0.71316 -5.6177581,-2.507721 -7.0805251,-5.431623 -1.303242,-2.605027 -1.525114,-4.774258 -1.433804,-14.018324 l 0.0771,-7.805208 h 1.5875 1.5875 l 0.154353,8.863542 c 0.144298,8.286117 0.192103,8.960424 0.7338245,10.350714 1.0159074,2.607246 3.0046454,4.166272 6.0053749,4.707774 4.58732731,0.827815 8.677111,-1.720342 9.5182187,-5.930363 0.116295,-0.582084 0.2812204,-4.868334 0.3665035,-9.525 l 0.1550591,-8.466667 h 1.5875 1.5875 l 0.069861,8.399629 c 0.076896,9.24532 -0.1081194,10.998542 -1.4380369,13.627079 -0.8134747,1.607801 -2.6702041,3.457482 -4.3108351,4.294473 -2.4071659,1.228043 -6.0902374,1.603288 -9.1670902,0.933974 z m 67.0435359,7.94e-4 C 50.88244,47.807158 47.202758,34.380782 55.014676,26.568866 c 5.362263,-5.362265 13.494917,-5.591823 18.814859,-0.531085 0.618279,0.588156 1.21861,1.069375 1.334072,1.069375 0.115459,0 0.244909,-0.863203 0.287663,-1.918229 l 0.07774,-1.91823 h 1.719792 1.719791 V 36.632156 49.993614 H 77.248802 75.52901 l -0.07823,-1.785937 c -0.08773,-2.002735 -0.360606,-2.215359 -1.397,-1.088541 -2.655699,2.887408 -8.373761,4.449474 -12.473164,3.407431 z m 8.134707,-4.088601 c 2.30188,-1.133213 3.911774,-2.748418 4.973799,-4.990206 0.785116,-1.657273 0.839893,-1.962705 0.839893,-4.683313 0,-2.718712 -0.05515,-3.026825 -0.837279,-4.67773 -1.536975,-3.244217 -4.179507,-5.339887 -7.61759,-6.04116 -3.860617,-0.78746 -7.996939,0.830395 -10.372153,4.056896 -3.798123,5.159383 -2.503721,12.374071 2.834655,15.799697 1.975837,1.267892 3.227904,1.582418 5.965119,1.498465 2.11537,-0.06488 2.627675,-0.181924 4.213556,-0.962649 z m 20.166258,4.211047 c -2.187133,-0.552119 -5.489024,-2.719765 -5.489024,-3.603548 0,-0.208843 0.463558,-0.876673 1.030131,-1.484066 l 1.030131,-1.104355 1.07073,0.96734 c 1.677289,1.51533 2.604899,1.904376 4.564546,1.914401 1.494568,0.0076 1.897819,-0.09878 2.834966,-0.748223 0.639754,-0.443349 1.325393,-1.238123 1.65437,-1.9177 1.249416,-2.580947 -0.15205,-4.661879 -4.790281,-7.112728 -3.202487,-1.692198 -5.549897,-3.924644 -6.05853,-5.761807 -0.514453,-1.858185 -0.241577,-4.38726 0.634691,-5.8825 1.863008,-3.178985 6.214544,-4.392195 9.902523,-2.760827 1.249746,0.552823 4.003824,2.506134 3.998874,2.836167 -0.002,0.104428 -0.488387,0.697577 -1.081813,1.318112 l -1.078958,1.128244 -0.836419,-0.706279 c -1.233816,-1.041844 -3.335306,-1.941613 -4.540586,-1.944089 -2.068261,-0.0043 -4.101042,1.7238 -4.101042,3.486256 0,1.974678 1.462437,3.498728 5.339609,5.564571 3.134728,1.670253 4.799899,3.094789 5.650992,4.834355 1.886527,3.855927 0.05664,8.749025 -3.91006,10.455455 -1.486921,0.639654 -4.342945,0.895181 -5.82485,0.521142 z M 17.84384,49.807347 C 17.77178,49.618752 17.743645,41.427729 17.78133,31.605072 l 0.06851,-17.859375 h 9.128125 9.128125 v 1.719792 1.719792 l -7.14375,0.132291 -7.14375,0.132292 v 5.55625 5.55625 l 7.14375,0.132292 7.14375,0.132291 v 1.719792 1.719792 l -7.14375,0.132291 -7.14375,0.132292 -0.132291,8.73125 -0.132292,8.73125 -1.78957,0.07832 c -1.28052,0.05604 -1.826842,-0.01924 -1.920597,-0.264584 z m 23.548152,5.3e-4 c -0.07217,-0.188961 -0.100388,-8.618353 -0.06272,-18.732051 l 0.06849,-18.388541 h 1.719792 1.719791 V 31.34041 49.993535 l -1.657069,0.07886 c -1.173927,0.05587 -1.695329,-0.02127 -1.788279,-0.264584 z m 65.087498,0 c -0.0722,-0.188961 -0.10039,-8.618353 -0.0627,-18.732051 l 0.0685,-18.388541 h 1.71979 1.71979 l 0.0704,7.209896 c 0.0387,3.965442 0.16312,7.209895 0.27645,7.209895 0.11333,0 0.85555,-0.601599 1.64939,-1.336886 5.42587,-5.025684 13.51679,-4.286383 16.58253,1.515213 1.38043,2.612324 1.51354,3.81164 1.52194,13.712298 l 0.008,8.995834 h -1.7198 -1.71979 l -0.14494,-9.392709 c -0.15694,-10.170988 -0.22166,-10.643666 -1.72766,-12.618127 -1.18335,-1.551456 -2.52671,-2.064785 -5.40344,-2.064785 -2.11268,0 -2.69478,0.09665 -3.64994,0.606042 -2.32335,1.239036 -3.94791,3.156667 -4.98429,5.883457 -0.37297,0.981308 -0.47548,2.574325 -0.60385,9.384038 l -0.15463,8.202084 -1.65707,0.07886 c -1.17392,0.05587 -1.69533,-0.02127 -1.78828,-0.264584 z M 130.69463,18.93927 c 0,-0.229542 3.1529,-5.75323 3.86083,-6.763946 0.80691,-1.15203 0.51057,-1.582859 -1.67802,-2.4395008 -1.12778,-0.4414308 -2.05052,-0.9480682 -2.05052,-1.1258603 0,-0.1777894 0.83344,-0.6853529 1.85209,-1.1279188 1.01864,-0.4425632 1.99925,-0.943311 2.17913,-1.1127687 0.31138,-0.2933567 -0.35565,-1.6104129 -3.79307,-7.4893884 -0.27104,-0.46355 -0.40699,-0.9286187 -0.30212,-1.033489 0.10487,-0.1048702 1.91936,0.8522891 4.03219,2.12702515 2.11283,1.27473605 3.99148,2.26015285 4.17477,2.18981605 0.1833,-0.070337 0.7343,-1.0992221 1.22446,-2.28641543 0.49015,-1.18719597 1.00323,-2.12118837 1.14017,-2.07554247 0.21421,0.071403 1.39269,2.55723495 1.88301,3.9719409 0.0883,0.2546614 0.33422,0.4630208 0.54658,0.4630208 0.21236,0 1.98884,-0.9525 3.94773,-2.11666667 1.9589,-1.16416663 3.69388,-2.11666663 3.85553,-2.11666663 0.55188,0 0.29299,0.5893593 -1.82276,4.1494366 -1.16416,1.958893 -2.11666,3.7353716 -2.11666,3.9477315 0,0.2123572 0.20835,0.4556601 0.46302,0.5406681 1.34049,0.4474765 3.77031,1.6888486 3.77031,1.9262196 0,0.3123379 -1.50672,1.1160363 -2.99509,1.5976045 -0.55589,0.179861 -1.07503,0.494633 -1.15364,0.699495 -0.0786,0.204861 0.83413,1.9822 2.02832,3.949639 2.38502,3.929348 2.59713,4.858679 0.86366,3.783841 -3.24191,-2.010133 -6.82876,-3.883705 -7.03683,-3.67564 -0.2318,0.231796 -1.39402,2.853923 -1.68318,3.797462 -0.28352,0.925128 -0.96407,0.294079 -1.7972,-1.666457 -0.481,-1.131898 -1.02523,-2.019912 -1.26685,-2.067095 -0.37488,-0.07321 -1.47968,0.524214 -6.34389,3.43049 -1.30399,0.779105 -1.78197,0.919379 -1.78197,0.522965 z m 11.37709,-5.458235 c 0.31478,-0.509323 0.68464,-0.926042 0.82193,-0.926042 0.13729,0 1.09228,0.42436 2.1222,0.943023 1.02993,0.518662 1.93391,0.881713 2.00884,0.80678 0.0749,-0.07493 -0.35557,-1.03234 -0.95667,-2.127572 l -1.0929,-1.991331 1.06184,-0.702694 c 0.58401,-0.3864795 1.06184,-0.7901093 1.06184,-0.896956 0,-0.1068467 -0.47674,-0.5097515 -1.05941,-0.89535 l -1.05941,-0.7010823 0.94171,-1.8699877 c 0.51794,-1.0284936 0.90412,-1.9827584 0.85817,-2.1205878 -0.0459,-0.1378321 -0.89557,0.2391622 -1.88806,0.8377634 -1.71961,1.0371402 -1.82812,1.0670276 -2.30556,0.6349524 -0.27556,-0.2493777 -0.57161,-0.6758358 -0.65789,-0.9476846 -0.2326,-0.7328694 -0.84691,-0.599604 -1.30317,0.2826994 -0.22098,0.4273338 -0.51831,0.848987 -0.66073,0.9370086 -0.14242,0.088019 -1.16116,-0.3351292 -2.26387,-0.9403318 -1.10271,-0.6052 -2.08263,-1.0226649 -2.1776,-0.9276953 -0.095,0.094969 0.27962,1.0867311 0.83242,2.2039157 1.10709,2.2373881 1.13773,2.055876 -0.53617,3.1756508 -0.48159,0.3221673 -0.48166,0.3392911 -0.003,0.6614584 0.27043,0.181901 0.77802,0.548968 1.12798,0.8157077 l 0.6363,0.4849761 -0.99124,1.812531 c -0.54518,0.996889 -0.89602,1.907741 -0.77965,2.024112 0.11637,0.116369 1.03523,-0.238852 2.04191,-0.789387 l 1.83032,-1.000969 0.53234,0.873128 c 0.29279,0.480221 0.53278,0.962427 0.53333,1.071568 0.003,0.539416 0.81766,0.09152 1.3239,-0.727604 z"
           id="path4633"
           inkscape:connector-curvature="0" />
        <path
           style="fill:#565656;stroke-width:0.26458332"
           d="m -5.1689097,50.480548 c -2.3495793,-0.502227 -4.0665638,-1.43533 -5.5403593,-3.010937 -2.821024,-3.015904 -3.323182,-5.45039 -3.323182,-16.110942 0,-5.546934 0.08532,-7.670666 0.3175,-7.902843 0.418314,-0.418314 2.453296,-0.408696 2.799482,0.01323 0.167735,0.204433 0.315968,3.664948 0.388181,9.06198 0.130005,9.716666 0.212529,10.238023 1.9399696,12.256151 0.5051716,0.590179 1.5848013,1.39905 2.3991782,1.797486 1.2805648,0.62652 1.8070962,0.725162 3.8957911,0.729832 1.87342464,0.0042 2.68215006,-0.115618 3.6057311,-0.534165 1.5993454,-0.724791 2.7802126,-1.762066 3.6015877,-3.163638 0.8979376,-1.532216 1.1391715,-4.273164 1.1514746,-13.083271 0.00683,-4.894085 0.097078,-6.847744 0.3269377,-7.077604 0.174625,-0.174625 0.8056562,-0.3175 1.4022917,-0.3175 0.5966354,0 1.2276666,0.142875 1.4022916,0.3175 0.233172,0.233172 0.3170079,2.464364 0.3156453,8.400521 -0.00159,7.193076 -0.060688,8.328454 -0.5362337,10.312186 -0.6137143,2.560108 -1.1722444,3.608787 -2.8757483,5.399418 -1.4774783,1.553043 -2.9851085,2.353665 -5.50193633,2.921775 -2.28226677,0.515163 -3.32331747,0.513509 -5.76860197,-0.0092 z m 66.8072917,-0.07178 c -2.503043,-0.673926 -4.249113,-1.655813 -6.215404,-3.49518 -2.083157,-1.948691 -3.383359,-4.1591 -4.104103,-6.977179 -0.638045,-2.494741 -0.655878,-3.500229 -0.109241,-6.159762 0.56715,-2.75934 1.734196,-4.852141 3.946456,-7.07698 2.280862,-2.293826 4.291285,-3.38346 7.35234,-3.984906 2.118148,-0.416179 2.476304,-0.419904 4.376647,-0.04552 2.66449,0.524934 4.693574,1.531094 6.64015,3.292645 0.856814,0.775372 1.628413,1.409766 1.714664,1.409766 0.08625,0 0.156824,-0.809625 0.156824,-1.799167 0,-1.046575 0.132811,-1.931977 0.3175,-2.116667 0.174625,-0.174625 0.865188,-0.3175 1.534584,-0.3175 0.669395,0 1.359958,0.142875 1.534583,0.3175 0.439103,0.439103 0.458867,25.783985 0.02053,26.312162 -0.370594,0.446537 -2.653681,0.476345 -3.089688,0.04034 -0.17975,-0.17975 -0.3175,-1.040693 -0.3175,-1.984375 0,-1.13199 -0.103211,-1.666875 -0.321641,-1.666875 -0.176903,0 -0.861512,0.526085 -1.521354,1.169078 -1.500002,1.461698 -3.94435,2.708142 -6.282367,3.203559 -2.280219,0.483171 -3.485314,0.457298 -5.632971,-0.120941 z m 8.344839,-3.987112 c 2.292303,-1.159108 3.677002,-2.556481 4.719312,-4.7625 0.701165,-1.483995 0.826215,-2.082554 0.912064,-4.365625 0.0828,-2.202037 0.0021,-2.933909 -0.48038,-4.363292 -1.412174,-4.182583 -4.793234,-6.770288 -9.244616,-7.075392 -5.008639,-0.343299 -9.308941,2.526977 -10.885966,7.265945 -0.464947,1.397164 -0.549722,2.157735 -0.46069,4.13312 0.170352,3.779605 1.672648,6.563654 4.584888,8.496686 2.26713,1.504836 3.08552,1.722366 6.2303,1.65603 2.609842,-0.05505 2.91424,-0.119877 4.625088,-0.984972 z m 20.035573,4.102827 c -1.960864,-0.54619 -3.760581,-1.522362 -4.796673,-2.60173 l -0.89022,-0.927404 1.05229,-1.128109 1.05229,-1.128112 1.181246,0.967944 c 1.555996,1.275021 2.810034,1.772917 4.465399,1.772917 3.174146,0 5.438606,-2.524096 4.889648,-5.450279 -0.2521,-1.343814 -1.948632,-2.878878 -4.938479,-4.46845 -1.697636,-0.902563 -3.036724,-1.866469 -4.235971,-3.049148 -1.550483,-1.529062 -1.793619,-1.908191 -2.099086,-3.273161 -0.898046,-4.012896 1.600237,-7.755914 5.735405,-8.592986 1.868996,-0.378336 3.855289,0.0059 5.739852,1.110323 1.327841,0.778167 2.833845,1.980296 2.818535,2.249824 -0.0055,0.09621 -0.407127,0.638945 -0.892588,1.206087 l -0.882655,1.031169 -0.900872,-0.687131 c -3.044163,-2.321896 -6.742631,-2.348661 -8.157696,-0.05904 -0.694185,1.123215 -0.677104,2.589316 0.04514,3.874376 0.583076,1.037442 1.683337,1.841148 5.741347,4.193874 2.411556,1.398156 3.861642,2.685015 4.610225,4.091283 0.772799,1.451769 0.820929,5.108271 0.08556,6.500339 -1.82036,3.445979 -6.045774,5.363747 -9.6227,4.367411 z M 18.035049,49.808326 c -0.459082,-0.459081 -0.459082,-35.418418 0,-35.8775 0.45444,-0.45444 17.431393,-0.45444 17.885833,0 0.411641,0.411642 0.411641,2.657526 0,3.069167 -0.230849,0.230849 -2.216621,0.3175 -7.276042,0.3175 h -6.958541 v 5.688542 5.688541 h 6.958541 c 5.059421,0 7.045193,0.08665 7.276042,0.3175 0.174625,0.174625 0.3175,0.865188 0.3175,1.534584 0,0.669395 -0.142875,1.359958 -0.3175,1.534583 -0.230849,0.230849 -2.216621,0.3175 -7.276042,0.3175 h -6.958541 v 8.546042 c 0,6.294143 -0.08366,8.629703 -0.3175,8.863541 -0.174625,0.174625 -0.924719,0.3175 -1.666875,0.3175 -0.742157,0 -1.49225,-0.142875 -1.666875,-0.3175 z m 23.547916,0 c -0.45921,-0.459211 -0.45921,-36.476622 0,-36.935833 0.174625,-0.174625 0.865188,-0.3175 1.534584,-0.3175 0.669395,0 1.359958,0.142875 1.534583,0.3175 0.459211,0.459211 0.459211,36.476622 0,36.935833 -0.174625,0.174625 -0.865187,0.3175 -1.534583,0.3175 -0.669396,0 -1.359959,-0.142875 -1.534584,-0.3175 z m 65.087505,0 c -0.24079,-0.240789 -0.3175,-4.713393 -0.3175,-18.511525 0,-17.717109 0.0134,-18.201203 0.51177,-18.467917 0.69722,-0.373139 2.48527,-0.346016 2.87489,0.04361 0.23115,0.231148 0.3175,2.246019 0.3175,7.408333 0,3.899959 0.0726,7.090834 0.16134,7.090834 0.0887,0 0.82167,-0.603502 1.62873,-1.341112 3.04409,-2.782121 6.55288,-4.029073 9.67192,-3.4372 4.27161,0.810588 6.87944,3.329784 8.01911,7.746545 0.56884,2.204514 0.87391,18.773034 0.35713,19.395715 -0.40612,0.489342 -2.72602,0.52768 -3.12115,0.05158 -0.18243,-0.219821 -0.31362,-3.58516 -0.37386,-9.591146 -0.10463,-10.430071 -0.17801,-10.884416 -2.062,-12.76841 -1.25612,-1.256115 -2.48224,-1.644232 -5.18379,-1.640885 -1.64939,0.0021 -2.37466,0.136993 -3.46532,0.644789 -2.77378,1.291421 -4.83361,4.153088 -5.37682,7.469839 -0.13872,0.847042 -0.25291,4.701188 -0.25376,8.564766 -0.001,5.109088 -0.0881,7.111267 -0.31903,7.342187 -0.17462,0.174625 -0.86519,0.3175 -1.53458,0.3175 -0.6694,0 -1.35996,-0.142875 -1.53458,-0.3175 z m 24.19596,-30.819733 c -0.12132,-0.121311 1.57173,-3.168404 3.47653,-6.256946 0.68525,-1.111117 0.88185,-1.653077 0.7022,-1.935829 -0.13722,-0.215982 -1.08292,-0.726122 -2.10157,-1.1336469 -1.01865,-0.4075245 -1.85208,-0.8837136 -1.85208,-1.0581957 0,-0.1744822 0.89297,-0.7102184 1.98437,-1.1905218 1.09141,-0.4803035 2.01862,-1.0456757 2.06047,-1.2563819 0.0599,-0.3016145 -2.30423,-4.6741662 -4.00886,-7.4145246 -0.15429,-0.2480442 -0.20532,-0.5261981 -0.1134,-0.6181222 0.1622,-0.1621976 2.9746,1.41477995 6.1164,3.4296032 0.84759,0.5435547 1.68318,0.933749 1.85688,0.8670978 0.17369,-0.066654 0.71498,-1.0880169 1.20286,-2.26970167 0.48788,-1.18168213 0.98301,-2.14851453 1.10029,-2.14851453 0.23347,0 1.49229,2.6212588 1.74789,3.6396427 0.0879,0.3500358 0.32182,0.698627 0.51993,0.7746497 0.19811,0.076023 1.52224,-0.569849 2.94252,-1.43526931 3.70849,-2.25970839 4.80115,-2.83275089 5.00766,-2.62624619 0.20651,0.2065073 -0.36654,1.29917292 -2.62624,5.0076629 -1.48315,2.4340476 -1.74203,3.3705191 -0.93189,3.3710192 0.57215,2.646e-4 3.64633,1.5476405 3.64633,1.8352611 0,0.3100255 -1.51146,1.1149039 -2.99509,1.5949402 -1.25973,0.407593 -1.43755,0.838221 -0.74672,1.808401 1.06016,1.488858 3.74181,6.18786 3.74181,6.556705 0,0.506479 -0.0387,0.495702 -1.64201,-0.457052 -4.16379,-2.474335 -5.91021,-3.411421 -6.23186,-3.343875 -0.30965,0.06503 -0.70602,0.858726 -1.93478,3.874272 -0.36444,0.894395 -0.7977,0.428475 -1.71085,-1.83983 -0.41731,-1.036624 -0.91217,-1.943648 -1.09969,-2.015604 -0.18751,-0.07196 -0.78842,0.139393 -1.33536,0.469667 -3.49616,2.111214 -6.66957,3.877514 -6.77574,3.771339 z m 11.20529,-5.242975 c 0.31478,-0.509323 0.74418,-0.926042 0.95422,-0.926042 0.21005,0 1.19817,0.411068 2.19584,0.913485 0.99767,0.502417 1.88743,0.839994 1.97725,0.750173 0.0898,-0.08982 -0.32257,-1.064096 -0.91642,-2.165059 l -1.07973,-2.00175 0.64529,-0.5343632 c 0.35491,-0.2938992 0.87078,-0.6831886 1.1464,-0.8650896 0.49175,-0.3245565 0.49175,-0.3369019 0,-0.6614584 -0.27562,-0.181901 -0.79529,-0.5744607 -1.15485,-0.872355 l -0.65373,-0.5416233 0.9564,-1.8991659 c 0.52603,-1.0445406 0.95641,-1.9616711 0.95641,-2.0380643 0,-0.3800078 -0.96738,-0.044087 -2.26681,0.787146 -0.7962,0.5093229 -1.60517,0.9260417 -1.79771,0.9260417 -0.19254,0 -0.57449,-0.4167188 -0.84878,-0.9260417 -0.27428,-0.5093229 -0.65215,-0.9260416 -0.83969,-0.9260416 -0.18754,0 -0.53971,0.4167187 -0.78259,0.9260416 -0.24288,0.5093229 -0.589,0.9260417 -0.76915,0.9260417 -0.18016,0 -1.23584,-0.489921 -2.34596,-1.0887154 -1.11013,-0.5987918 -2.0958,-1.0113196 -2.1904,-0.9167284 -0.0946,0.094594 0.26877,1.062736 0.80747,2.151425 0.5387,1.0886916 0.97945,2.1340128 0.97945,2.3229332 0,0.1889231 -0.41672,0.5422133 -0.92604,0.7850928 -0.50932,0.2428796 -0.92604,0.5549689 -0.92604,0.6935338 0,0.1385623 0.47625,0.519602 1.05833,0.8467513 0.58209,0.3271494 1.05834,0.7023737 1.05834,0.8338347 0,0.131458 -0.43184,1.011203 -0.95963,1.954987 -1.2953,2.316216 -0.98738,2.571756 1.4978,1.243016 1.0502,-0.561507 1.95452,-0.901859 2.0096,-0.756338 0.25755,0.680378 1.17458,1.984375 1.39551,1.984375 0.13579,0 0.50444,-0.416719 0.81922,-0.926042 z"
           id="path4631"
           inkscape:connector-curvature="0" />
        <path
           style="fill:#2e2e2e;stroke-width:0.26458332"
           d="m -5.4993319,50.253763 c -4.3215904,-0.938795 -7.0615681,-3.917455 -7.8936581,-8.58129 -0.246137,-1.379585 -0.359273,-4.515024 -0.365647,-10.133626 l -0.0092,-8.135937 h 1.42648 1.42648 l 0.115538,8.797395 c 0.109061,8.304366 0.148386,8.881534 0.701696,10.298708 1.0459484,2.678944 3.2352326,4.411284 6.2660664,4.958218 3.78363691,0.682784 7.4933651,-1.034378 9.1190789,-4.221038 0.7584413,-1.486665 1.038098,-4.967208 1.0461678,-13.020263 l 0.00683,-6.81302 H 7.7956737 9.250882 l -0.0046,8.400521 c -0.00503,9.197083 -0.1970325,10.926778 -1.4984227,13.49893 -2.1119121,4.174122 -7.52006685,6.195528 -13.247198,4.951402 z m 67.0799399,0.0081 C 54.426907,48.443486 50.048756,41.520857 51.312808,34.026711 53.112917,23.354454 66.571909,18.876995 73.97013,26.489203 c 0.633312,0.651632 1.272907,1.109734 1.421323,1.018008 0.148415,-0.09173 0.269846,-1.052724 0.269846,-2.135542 V 23.40291 h 1.5875 1.5875 v 13.229166 13.229167 h -1.5875 -1.5875 v -1.836468 c 0,-1.043365 -0.124923,-1.913675 -0.289264,-2.015244 -0.159094,-0.09832 -0.784172,0.29768 -1.389062,0.880015 -3.176136,3.0577 -8.231976,4.432446 -12.402365,3.372358 z m 8.145809,-3.5649 c 3.64677,-1.795299 5.857073,-5.024676 6.126167,-8.950675 0.242896,-3.543779 -0.637013,-6.197243 -2.86255,-8.632333 -4.60411,-5.037629 -12.45271,-4.580972 -16.533181,0.961957 -3.878259,5.26824 -2.48821,12.517726 3.086074,16.094736 1.969368,1.26374 3.223704,1.578316 5.958832,1.49443 2.118582,-0.06498 2.626603,-0.181395 4.224658,-0.968115 z m 20.155156,3.687347 c -2.086506,-0.526651 -5.224441,-2.511388 -5.224441,-3.304461 0,-0.552699 1.319096,-1.981155 1.829483,-1.981155 0.25274,0 0.74817,0.309242 1.10096,0.687208 1.144759,1.226452 2.585683,1.805802 4.517999,1.816547 1.56066,0.0087 1.890151,-0.08431 2.910416,-0.821426 1.586487,-1.146185 2.45386,-2.865964 2.207067,-4.376044 -0.258239,-1.580105 -2.190745,-3.398046 -5.432854,-5.110784 -3.172367,-1.675895 -5.293402,-3.68717 -5.79584,-5.495917 -0.517359,-1.862458 -0.243703,-4.38563 0.639016,-5.891874 1.730539,-2.952941 6.039673,-4.073859 9.604939,-2.498492 1.587275,0.701362 3.500064,2.125003 3.500064,2.60501 0,0.4245 -1.268431,1.887855 -1.63639,1.887855 -0.117956,0 -0.78029,-0.401396 -1.471853,-0.891992 -3.055969,-2.167917 -5.932247,-1.933752 -7.673528,0.624718 -0.733031,1.077045 -0.754898,2.092209 -0.07382,3.427222 0.665208,1.303914 1.90944,2.322986 4.593548,3.762283 3.520855,1.887987 5.039675,3.140784 5.87325,4.84455 1.865551,3.81305 0.172291,8.554238 -3.640894,10.194626 -1.489187,0.64063 -4.344107,0.896434 -5.827118,0.522118 z M 17.982132,31.869576 V 13.87791 h 8.995833 8.995834 v 1.5875 1.5875 h -6.958542 c -5.059421,0 -7.045193,0.08665 -7.276042,0.3175 -0.448762,0.448762 -0.448762,10.822487 0,11.27125 0.230849,0.230849 2.216621,0.3175 7.276042,0.3175 h 6.958542 v 1.5875 1.5875 h -6.958542 c -5.059421,0 -7.045193,0.08665 -7.276042,0.3175 -0.233838,0.233838 -0.3175,2.569398 -0.3175,8.863541 v 8.546042 H 19.701924 17.982132 Z M 41.530049,31.34041 V 12.819576 h 1.5875 1.5875 V 31.34041 49.861243 h -1.5875 -1.5875 z m 65.151851,0.06615 0.0679,-18.454687 1.52135,-0.07935 1.52136,-0.07935 V 20.0668 c 0,4.446185 0.10042,7.335692 0.25832,7.433283 0.14208,0.08781 0.90228,-0.474094 1.68933,-1.248674 6.24037,-6.141451 15.52448,-4.171961 17.5718,3.727598 0.28893,1.114861 0.41977,3.825565 0.51588,10.687965 l 0.12876,9.194271 h -1.59723 -1.59724 l -0.0981,-9.326563 c -0.11262,-10.710169 -0.17032,-11.039072 -2.31241,-13.181163 -1.47381,-1.473806 -3.09525,-1.968047 -5.81751,-1.773272 -4.19816,0.300379 -7.80907,4.016224 -8.49214,8.738939 -0.13137,0.908288 -0.24124,4.776825 -0.24417,8.596747 l -0.005,6.945312 h -1.5893 -1.5893 z m 25.19673,-14.235837 c 0.56251,-1.010679 1.59002,-2.782686 2.28335,-3.937788 1.34535,-2.241373 1.3772,-2.838286 0.17095,-3.203848 -1.20852,-0.3662521 -3.10913,-1.2495291 -3.10913,-1.4449186 0,-0.1108234 0.88758,-0.5915581 1.97239,-1.0683002 1.08482,-0.4767421 2.03161,-1.0211065 2.10398,-1.2096962 0.11083,-0.2888244 -1.83029,-3.9064962 -3.84674,-7.16918702 -0.34702,-0.56148288 -0.42383,-0.86948698 -0.21685,-0.86948698 0.17628,0 1.88978,0.9525 3.80776,2.11666667 1.91798,1.16416663 3.67408,2.11666663 3.90243,2.11666663 0.26979,0 0.72127,-0.7413148 1.28912,-2.11666663 0.48065,-1.16416667 0.95501,-2.11666667 1.05415,-2.11666667 0.18318,0 1.37438,2.55189302 1.69819,3.6380208 0.1015,0.3404526 0.38822,0.5953125 0.66974,0.5953125 0.27075,0 2.11572,-0.9648163 4.09995,-2.14403513 1.98421,-1.17921882 3.67199,-2.07971497 3.7506,-2.00110457 0.0786,0.078613 -0.82188,1.7663874 -2.0011,3.7506063 -1.17922,1.9842215 -2.14404,3.8291955 -2.14404,4.099941 0,0.281522 0.25486,0.5682483 0.59531,0.6697477 1.10227,0.3286205 3.63803,1.5162795 3.63803,1.7039246 0,0.2136484 -0.86251,0.6305444 -2.84428,1.3747856 -0.8885,0.3336742 -1.38906,0.6759392 -1.38906,0.9497982 0,0.23548 0.96584,2.019372 2.1463,3.964205 2.03714,3.356213 2.36666,4.237469 1.3474,3.60344 -2.99491,-1.862977 -7.0342,-4.009726 -7.33061,-3.895979 -0.20696,0.07941 -0.45265,0.40128 -0.546,0.715258 -0.3162,1.063546 -1.5091,3.613579 -1.69043,3.613579 -0.0991,0 -0.5735,-0.9525 -1.05415,-2.116667 -0.67009,-1.622994 -0.9942,-2.116666 -1.38964,-2.116666 -0.28365,0 -1.3706,0.516067 -2.41544,1.146815 -1.04485,0.630748 -2.72664,1.606497 -3.73732,2.168329 l -1.8376,1.021517 z M 145.049,13.773431 c 1.11715,0.552778 2.1237,0.912516 2.2368,0.79942 0.1131,-0.113099 -0.24251,-1.059868 -0.79024,-2.103932 -0.54772,-1.044067 -0.99325,-2.028381 -0.99006,-2.187366 0.003,-0.158986 0.42252,-0.5134824 0.93184,-0.7877706 0.50932,-0.2742883 0.92604,-0.6826806 0.92604,-0.9075394 0,-0.2248588 -0.41672,-0.6332511 -0.92604,-0.9075394 -0.50932,-0.2742882 -0.92604,-0.6619451 -0.92604,-0.8614621 0,-0.1995144 0.35719,-1.0703401 0.79375,-1.9351652 0.82335,-1.6310451 0.98802,-2.38125 0.52268,-2.38125 -0.14909,0 -1.02516,0.47625 -1.94682,1.0583334 -0.92167,0.5820833 -1.75069,1.0583333 -1.84228,1.0583333 -0.0916,0 -0.46717,-0.47625 -0.83462,-1.0583333 -0.36746,-0.5820834 -0.78325,-1.0583334 -0.92399,-1.0583334 -0.14073,0 -0.49885,0.47625 -0.7958,1.0583334 -0.29696,0.5820833 -0.60265,1.0583333 -0.6793,1.0583333 -0.0767,0 -1.00713,-0.47625 -2.06772,-1.0583333 -1.06058,-0.5820834 -2.06701,-1.0583334 -2.23649,-1.0583334 -0.51978,0 -0.34894,0.7259797 0.62672,2.6633938 0.51419,1.0210403 0.87393,1.9550644 0.79943,2.0756112 -0.0745,0.1205468 -0.4952,0.3681863 -0.93488,0.5503096 -1.06741,0.4421346 -1.01567,1.1241431 0.12661,1.6688593 1.13432,0.5409221 1.15555,0.9740688 0.13229,2.6991178 -1.39342,2.349074 -0.89386,2.848629 1.45521,1.455208 1.27133,-0.754123 2.24787,-1.012507 2.24995,-0.595312 5.3e-4,0.10914 0.25224,0.610595 0.55934,1.114345 l 0.55835,0.915909 0.97205,-1.139944 0.97205,-1.139942 z"
           id="path4629"
           inkscape:connector-curvature="0" />
        <path
           style="fill:#1a1a1a;stroke-width:0.26458332"
           d="m -3.4711657,50.545143 c -0.060635,-0.06042 -0.6343915,-0.187933 -1.2750139,-0.283371 -2.2487837,-0.335013 -4.0423491,-1.207511 -5.5201874,-2.685349 -3.005407,-3.00541 -3.538855,-5.545373 -3.439506,-16.376922 l 0.0703,-7.6643 h 1.322916 1.322917 l 0.161719,8.863542 c 0.08894,4.874948 0.282453,9.227685 0.430014,9.672749 0.7706092,2.32424 2.1120309,3.835677 4.3014474,4.846627 1.2188004,0.562774 1.8458762,0.672676 3.8380696,0.672676 1.99219344,0 2.61926917,-0.109902 3.8380696,-0.672676 2.2525779,-1.040115 3.7593085,-2.810264 4.3637571,-5.126668 0.1139163,-0.436562 0.2796408,-4.722812 0.3682735,-9.525 L 6.47276,23.535201 h 1.3229167 1.3229166 l 0.070006,8.161457 c 0.063534,7.407013 0.020796,8.368633 -0.4622773,10.40266 -0.2927562,1.232662 -0.8355542,2.758694 -1.2062169,3.39118 -0.8785304,1.4991 -2.7692297,3.226054 -4.2481791,3.880266 -1.922407,0.850371 -6.3026555,1.613238 -6.7430888,1.174379 z M 61.734172,50.147025 c -2.55551,-0.692002 -4.238086,-1.587238 -5.986505,-3.185195 -1.842921,-1.684327 -2.92477,-3.360832 -3.780679,-5.85879 -0.899533,-2.625278 -1.058857,-4.674444 -0.549809,-7.071355 0.550066,-2.59004 1.390157,-4.344641 3.013781,-6.294519 5.052764,-6.068087 13.680506,-6.650339 19.249845,-1.299097 0.847064,0.813891 1.633387,1.386531 1.747385,1.272533 0.113996,-0.113996 0.242848,-1.100098 0.286335,-2.191335 l 0.07906,-1.984066 h 1.455209 1.455208 V 36.632076 49.728951 H 77.248799 75.79359 l -0.07962,-1.852083 c -0.04379,-1.018646 -0.189256,-1.96183 -0.323257,-2.095966 -0.148569,-0.148719 -0.79615,0.278659 -1.659586,1.095262 -3.255438,3.078855 -7.964614,4.362772 -11.996955,3.270861 z m 8.226255,-3.434043 c 2.242109,-1.104927 3.810056,-2.63357 4.957911,-4.833633 0.858242,-1.644971 0.874128,-1.737866 0.874631,-5.114981 5.29e-4,-3.23065 -0.04441,-3.531068 -0.739019,-4.945647 -1.145913,-2.333665 -2.827305,-4.02037 -5.154001,-5.170287 -1.905286,-0.941644 -2.154156,-0.996222 -4.543322,-0.996389 -3.056808,-2.14e-4 -4.237879,0.330208 -6.405486,1.792028 -1.971804,1.329773 -3.662709,3.646126 -4.327834,5.928654 -0.707451,2.42778 -0.466873,5.820675 0.56969,8.034383 0.944367,2.016813 2.081784,3.394548 3.749995,4.542305 2.168366,1.491875 3.31338,1.800726 6.407005,1.728185 2.565979,-0.06017 2.929429,-0.136208 4.61043,-0.964618 z m 20.054695,3.545983 c -2.542516,-0.708057 -5.093407,-2.351831 -5.093407,-3.282157 0,-0.25088 0.352663,-0.794019 0.783696,-1.206976 l 0.783699,-0.750829 1.027747,0.928507 c 2.986482,2.698108 7.511592,2.296473 9.264431,-0.822282 0.316714,-0.563515 0.575844,-1.458672 0.575844,-1.989236 0,-2.263494 -1.275001,-3.664995 -5.315114,-5.842457 -4.654799,-2.508756 -6.561638,-5.049729 -6.235094,-8.308637 0.451443,-4.505433 4.704207,-7.173976 9.363996,-5.875755 1.199425,0.334158 4.43517,2.407272 4.43517,2.841572 0,0.143711 -0.322527,0.644596 -0.716727,1.113078 l -0.716727,0.851781 -1.267648,-0.89563 c -1.590535,-1.123762 -2.700509,-1.500635 -4.415983,-1.499378 -4.117348,0.003 -5.605494,4.702675 -2.341131,7.39344 0.508103,0.418819 1.886847,1.277895 3.063877,1.909051 4.85524,2.603521 6.477477,4.406299 6.723547,7.471817 0.427182,5.321742 -4.681413,9.423011 -9.920176,7.964091 z M 18.108841,49.543812 c -0.07231,-0.189214 -0.100637,-8.261684 -0.06295,-17.938819 l 0.06853,-17.594792 h 8.863541 8.863542 v 1.455209 1.455208 l -7.14375,0.132292 -7.14375,0.132291 v 5.820834 5.820833 l 7.14375,0.132292 7.14375,0.132291 v 1.455209 1.455208 l -7.14375,0.132292 -7.14375,0.132291 -0.132292,8.73125 -0.132291,8.73125 -1.524556,0.07944 c -1.067237,0.05562 -1.563992,-0.02376 -1.656027,-0.264583 z m 23.548187,5.29e-4 C 41.5846,49.354881 41.556166,41.044003 41.59384,31.075826 l 0.0685,-18.123958 h 1.455209 1.455208 V 31.34041 49.728951 l -1.392021,0.08008 c -0.960503,0.05525 -1.432843,-0.02677 -1.523708,-0.264583 z m 65.148792,0.152294 c -0.10355,-0.103447 -0.18827,-8.38137 -0.18827,-18.39528 V 13.09424 l 0.62485,-0.156826 c 0.34366,-0.08625 1.02827,-0.118287 1.52135,-0.07119 l 0.89651,0.08564 0.0705,7.26717 c 0.0388,3.996942 0.16653,7.363198 0.2839,7.48057 0.11738,0.117372 0.96735,-0.504005 1.88884,-1.380839 1.89851,-1.806522 3.56292,-2.709802 6.17564,-3.351535 1.68346,-0.413494 1.94039,-0.413782 3.83646,-0.0043 3.52699,0.761648 6.08501,3.062775 7.06205,6.352837 0.7178,2.417085 0.95084,5.971376 0.87003,13.26946 l -0.0791,7.14375 h -1.45521 -1.45521 l -0.14969,-9.392709 c -0.16189,-10.157722 -0.22201,-10.612985 -1.64684,-12.47158 -1.28651,-1.678167 -2.50618,-2.195583 -5.43384,-2.305179 -2.31871,-0.0868 -2.56856,-0.04282 -4.13348,0.727585 -2.05519,1.01177 -3.6291,2.676938 -4.73148,5.005819 l -0.83656,1.767314 -0.13301,8.334375 -0.13301,8.334375 -1.33308,0.07803 c -0.7332,0.04292 -1.41781,-0.0067 -1.52136,-0.110244 z m 33.45192,-33.176448 c -1.00983,-2.403306 -1.19107,-2.487366 -2.96287,-1.37418 -2.45031,1.539489 -5.59386,3.265953 -5.71893,3.140888 -0.0716,-0.07156 0.55337,-1.30124 1.38873,-2.73262 2.48574,-4.25927 2.59221,-4.474488 2.42682,-4.90547 -0.0873,-0.227436 -1.00117,-0.7354543 -2.03089,-1.1289294 -1.02972,-0.3933746 -1.87222,-0.8078867 -1.87222,-0.9210358 0,-0.1131491 0.89297,-0.5950691 1.98438,-1.0709301 1.38047,-0.601898 1.98437,-1.0056707 1.98437,-1.3267717 0,-0.403008 -3.32253,-6.44693008 -4.03411,-7.3383325 -0.59835,-0.749554 0.48817,-0.2351987 3.83021,1.81320281 2.58431,1.58397839 3.60098,2.07890269 3.8926,1.89495379 0.21709,-0.1369378 0.74845,-1.1017065 1.1808,-2.143932 0.43234,-1.0422255 0.86654,-1.8949538 0.96487,-1.8949538 0.18205,0 1.37415,2.5560391 1.69673,3.6380209 0.0976,0.3274218 0.35834,0.5953125 0.57939,0.5953125 0.22105,0 2.00318,-0.9525 3.9603,-2.1166667 1.95711,-1.16416667 3.61676,-2.1166667 3.6881,-2.1166667 0.19153,0 -0.54647,1.37445489 -2.43502,4.5349716 -0.92521,1.548347 -1.6822,2.992419 -1.6822,3.2090439 0,0.2166276 0.38695,0.53789 0.85989,0.7139147 1.70322,0.6339231 3.37344,1.4255988 3.37344,1.5989935 0,0.2050018 -0.8846,0.629748 -2.84427,1.3656918 -0.76398,0.2869092 -1.38906,0.6849402 -1.38906,0.8845102 0,0.199572 0.9525,1.91689 2.11667,3.816265 2.02366,3.30168 2.53356,4.382537 1.78593,3.785725 -0.91283,-0.728689 -6.9403,-4.034116 -7.35623,-4.034116 -0.26824,0 -0.55765,0.262253 -0.65694,0.595313 -0.30967,1.038698 -1.51139,3.638161 -1.68025,3.634568 -0.0893,-0.0019 -0.56188,-0.9544 -1.05024,-2.116667 z m 1.87769,-2.506813 c 0.32876,-0.507521 0.75893,-0.92424 0.95593,-0.926042 0.197,-0.0019 1.17251,0.424643 2.1678,0.947655 1.65066,0.867397 2.36881,0.982618 2.36881,0.380061 0,-0.123904 -0.49217,-1.093816 -1.09371,-2.155359 l -1.09371,-1.93008 0.61632,-0.4087124 c 0.33898,-0.2247927 0.86092,-0.6170745 1.15986,-0.871736 L 147.76026,8.586243 147.21673,8.1232222 C 146.91779,7.8685607 146.39947,7.4786786 146.0649,7.2568176 l -0.60829,-0.4033811 1.00972,-2.0406016 c 1.35356,-2.7355033 1.06207,-3.07095 -1.35283,-1.5568163 -0.96219,0.6032897 -1.86012,1.0968911 -1.99541,1.0968911 -0.1353,0 -0.54444,-0.4727813 -0.90921,-1.0506234 -0.76559,-1.212768 -1.17151,-1.182579 -1.88382,0.1401101 -0.26969,0.5007822 -0.58599,0.9105133 -0.70288,0.9105133 -0.11689,0 -1.05297,-0.47625 -2.08019,-1.0583334 -2.93854,-1.6651658 -3.20147,-1.4178835 -1.68798,1.5875 0.50932,1.0113804 0.92604,1.9628353 0.92604,2.114341 0,0.1515084 -0.41672,0.4741889 -0.92604,0.7170685 -1.13612,0.5417793 -1.19422,1.2266427 -0.14107,1.6628745 1.42101,0.5886 1.465,0.8698997 0.42643,2.7270397 -1.57142,2.809951 -1.19729,3.197762 1.58428,1.642218 0.91076,-0.509323 1.72345,-0.926042 1.80599,-0.926042 0.0825,0 0.39303,0.47625 0.68999,1.058334 0.66347,1.300509 1.13936,1.334182 1.9158,0.135567 z"
           id="path4627"
           inkscape:connector-curvature="0" />
        <path
           style="fill:#030303;stroke-width:0.26458332"
           d="m -5.2347486,50.006065 c -3.1870121,-0.724876 -5.1633624,-2.201579 -6.6856264,-4.995412 -1.320917,-2.424295 -1.563156,-4.498039 -1.573678,-13.471806 l -0.0092,-7.871354 h 1.163818 1.16382 l 0.127415,8.665104 c 0.138144,9.394722 0.253201,10.270485 1.5987212,12.168868 2.8832572,4.06796 9.94057574,4.576955 13.5409199,0.976611 2.1277474,-2.127745 2.4889143,-4.309845 2.5042019,-15.129854 l 0.00944,-6.680729 h 1.190625 1.190625 v 8.184785 c 0,9.149281 -0.2200778,10.988752 -1.6041344,13.407832 -1.1942127,2.087263 -3.1223902,3.69144 -5.2344637,4.354891 -2.27521562,0.714695 -5.2635865,0.872995 -7.3824492,0.391064 z m 67.0831936,0.0099 C 57.0195,48.625541 53.918901,45.736923 52.026419,40.86541 c -0.804209,-2.070151 -0.794965,-6.02605 0.02011,-8.598959 1.799283,-5.679797 8.163333,-9.914911 13.927452,-9.268372 2.97306,0.333475 6.464009,2.075823 8.075039,4.030284 0.482661,0.585549 0.940109,0.888127 1.252479,0.82845 0.420907,-0.08041 0.503285,-0.390266 0.569378,-2.141667 l 0.07727,-2.047653 h 1.311786 1.311788 V 36.632076 49.59666 H 77.26039 75.949065 l -0.07774,-1.840492 c -0.119751,-2.835169 -0.470308,-2.921791 -2.736168,-0.676111 -2.553229,2.530491 -7.881249,3.916402 -11.286715,2.935875 z m 8.720553,-3.441948 c 2.103255,-1.079037 2.577751,-1.45106 3.366638,-2.639568 1.494083,-2.25093 2.002912,-3.671639 2.16571,-6.04691 0.275532,-4.020052 -0.616239,-6.690423 -3.072591,-9.200745 -1.827702,-1.867863 -3.523638,-2.746605 -6.153748,-3.188541 -3.949708,-0.663668 -7.804697,0.784407 -10.331399,3.88085 -1.874264,2.296888 -2.425187,3.908396 -2.436517,7.127047 -0.0081,2.31861 0.0862,2.889467 0.750258,4.539027 0.940933,2.337322 2.59914,4.277429 4.716608,5.518444 2.107933,1.235424 3.028167,1.440704 6.033175,1.345824 2.409071,-0.07606 2.6153,-0.131564 4.961866,-1.335428 z m 19.639526,3.557659 c -2.463585,-0.62632 -5.022225,-2.235317 -5.022225,-3.158218 0,-0.252741 0.293023,-0.734806 0.651163,-1.071261 l 0.651163,-0.611738 0.939909,0.825252 c 1.629918,1.431089 2.472624,1.750208 4.636931,1.755936 1.798204,0.0048 2.096487,-0.07263 3.179369,-0.824849 1.687369,-1.172133 2.484612,-2.834008 2.240237,-4.66984 -0.16098,-1.20935 -0.352049,-1.542167 -1.551302,-2.702142 -0.75224,-0.727604 -2.333321,-1.829943 -3.513516,-2.449642 -1.180192,-0.6197 -2.293186,-1.304309 -2.47332,-1.521355 -0.180131,-0.217045 -0.480494,-0.394628 -0.667472,-0.394628 -0.639588,0 -2.683095,-2.580183 -3.032837,-3.829339 -0.755388,-2.697985 0.278326,-5.746662 2.456704,-7.245426 3.137485,-2.158646 6.416114,-1.761427 10.113037,1.225235 l 0.744558,0.601511 -0.734091,0.766226 -0.734092,0.766225 -1.227699,-0.864364 c -3.953256,-2.783298 -8.636034,-1.360784 -8.636034,2.623417 0,2.2816 0.859015,3.23364 5.291667,5.86472 5.204544,3.089254 6.29436,4.462494 6.271199,7.902128 -0.02553,3.791966 -3.151373,6.906519 -7.183332,7.1574 -0.808014,0.05028 -1.888022,-0.01508 -2.400017,-0.145251 z M 18.246715,31.869576 V 14.142493 h 8.73125 8.73125 v 1.322917 1.322916 h -6.958541 c -5.059421,0 -7.045193,0.08665 -7.276042,0.3175 -0.449466,0.449467 -0.449466,11.350951 0,11.800417 0.230849,0.230849 2.216621,0.3175 7.276042,0.3175 h 6.958541 v 1.322917 1.322916 h -6.958541 c -5.059421,0 -7.045193,0.08665 -7.276042,0.3175 -0.233839,0.233839 -0.3175,2.569398 -0.3175,8.863542 V 49.59666 H 19.701924 18.246715 Z M 41.794632,31.34041 V 13.08416 h 1.322917 1.322916 v 18.25625 18.25625 h -1.322916 -1.322917 z m 65.087498,0 V 13.08416 h 1.31873 1.31873 l 0.0703,7.338668 c 0.082,8.559128 0.0325,8.437732 2.46438,6.044425 1.78406,-1.75578 4.16375,-2.988786 6.56077,-3.399377 3.62033,-0.620136 7.50308,1.160258 9.23009,4.232359 1.48329,2.63856 1.57989,3.382148 1.71926,13.234445 l 0.12819,9.06198 h -1.33273 -1.33272 l -0.0996,-9.194271 c -0.11618,-10.725126 -0.19834,-11.200506 -2.29867,-13.30084 -1.05404,-1.054036 -1.52117,-1.316945 -2.81838,-1.586246 -2.24914,-0.466918 -4.81601,-0.215749 -6.57122,0.642996 -2.76416,1.352378 -4.97834,4.553474 -5.46183,7.896302 -0.13137,0.908288 -0.24125,4.776824 -0.24417,8.596746 l -0.005,6.945313 h -1.32292 -1.32292 z m 25.46076,-14.353091 c 0.3201,-0.618767 1.21129,-2.130758 1.98042,-3.359975 1.899,-3.035001 1.86845,-3.258296 -0.56966,-4.1635469 -0.71236,-0.264496 -1.34096,-0.6181857 -1.39689,-0.7859765 -0.0559,-0.1677935 0.6783,-0.6736107 1.63163,-1.1240373 1.23003,-0.5811626 1.73333,-0.9634485 1.73333,-1.3165852 0,-0.2736956 -0.84156,-1.9524425 -1.87014,-3.7305483 -1.02857,-1.77810582 -1.82376,-3.2792908 -1.76708,-3.3359672 0.0567,-0.0566764 1.56998,0.79395902 3.36289,1.8902998 1.79292,1.0963407 3.447,1.9573054 3.67574,1.9132523 0.23226,-0.044728 0.7706,-0.9247108 1.21922,-1.9929422 0.44183,-1.05207065 0.87454,-1.91447208 0.96158,-1.91645117 0.15334,-0.003493 0.58952,0.91942709 1.40508,2.97296417 0.48113,1.211498 0.882,1.2423457 2.57856,0.1984375 1.39844,-0.86047 1.54665,-0.9140058 1.54665,-0.5587206 0,0.2604637 -3.32142,2.4108039 -3.72373,2.4108039 -0.13947,0 -0.4523,-0.4167187 -0.69518,-0.9260416 -0.31,-0.6500628 -0.6177,-0.9260417 -1.03248,-0.9260417 -0.38988,0 -0.78556,0.3150023 -1.1632,0.9260417 -0.57119,0.924216 -0.90415,1.1249871 -1.16519,0.7026142 -0.26837,-0.4342262 -3.62947,-1.937512 -4.00757,-1.7924224 -0.58177,0.2232475 -0.47098,0.7969859 0.54255,2.8095998 0.50933,1.0113804 0.92605,1.9388561 0.92605,2.0610566 0,0.1222031 -0.41672,0.4209044 -0.92605,0.663784 -1.27746,0.6091793 -1.22984,1.3427525 0.1323,2.0376594 0.58208,0.2969578 1.05833,0.6011017 1.05833,0.6758777 0,0.07478 -0.43893,0.940642 -0.9754,1.924143 -1.53542,2.81486 -0.9388,3.36378 1.919,1.765604 0.91076,-0.509323 1.70779,-0.926041 1.77119,-0.926041 0.0634,0 0.33002,0.47625 0.5925,1.058333 0.61411,1.36185 1.35819,1.405782 2.18524,0.129016 0.32877,-0.507521 0.74548,-0.920062 0.92605,-0.916757 0.18056,0.0033 1.09706,0.420232 2.03666,0.926502 1.64325,0.885407 2.65862,1.002546 2.65615,0.30643 -10e-4,-0.369896 -1.04922,-2.480101 -1.67591,-3.37483 -0.24181,-0.345228 -0.43965,-0.698333 -0.43965,-0.78468 0,-0.08634 0.47625,-0.424656 1.05834,-0.7518053 1.25649,-0.7061862 1.37674,-1.4332876 0.33072,-1.9996918 -1.51029,-0.8178059 -1.4955,-0.7186506 -0.42888,-2.8742481 0.89505,-1.8088689 0.96021,-2.0764738 0.64774,-2.6603272 -0.19108,-0.3570314 -0.26528,-0.7820475 -0.1649,-0.9444752 0.19946,-0.32272815 2.78969,-1.86530719 3.13887,-1.86931827 0.39485,-0.004524 -0.0977,1.0145977 -1.81802,3.76146487 -0.93633,1.4950889 -1.70313,2.9327792 -1.70398,3.1948675 -0.001,0.3049111 0.35577,0.6184292 0.99063,0.8705612 2.13624,0.8483944 2.97657,1.2547018 2.97657,1.4391958 0,0.1058068 -0.86321,0.5343207 -1.91823,0.9522592 -2.21809,0.8786733 -2.48756,1.4056383 -1.43406,2.8043743 0.3585,0.475983 1.32445,1.979999 2.14656,3.342264 l 1.49474,2.476844 -1.13669,-0.647472 c -0.62519,-0.356108 -2.19558,-1.262327 -3.48977,-2.013821 -1.29419,-0.751496 -2.58019,-1.366353 -2.85777,-1.366353 -0.33677,0 -0.63581,0.330137 -0.89874,0.992188 -0.81556,2.053537 -1.25174,2.976451 -1.40508,2.972964 -0.087,-0.0019 -0.51975,-0.864381 -0.96158,-1.916452 -0.51595,-1.228566 -0.97393,-1.945706 -1.28022,-2.004692 -0.26229,-0.05051 -1.38908,0.475464 -2.50397,1.168837 -1.11489,0.693372 -2.65037,1.597353 -3.41218,2.008846 l -1.3851,0.748173 z"
           id="path4625"
           inkscape:connector-curvature="0" />
      </g>
    </g>
  </g>
</svg>
