<?xml version="1.0" encoding="UTF-8" standalone="no"?>
<!-- Created with Inkscape (http://www.inkscape.org/) -->

<svg
   xmlns:dc="http://purl.org/dc/elements/1.1/"
   xmlns:cc="http://creativecommons.org/ns#"
   xmlns:rdf="http://www.w3.org/1999/02/22-rdf-syntax-ns#"
   xmlns:svg="http://www.w3.org/2000/svg"
   xmlns="http://www.w3.org/2000/svg"
   xmlns:sodipodi="http://sodipodi.sourceforge.net/DTD/sodipodi-0.dtd"
   xmlns:inkscape="http://www.inkscape.org/namespaces/inkscape"
   width="206.11041mm"
   height="206.11041mm"
   viewBox="0 0 206.11043 206.11043"
   version="1.1"
   id="svg8"
   sodipodi:docname="wellton.svg"
   inkscape:version="0.92.1 r15371"
   inkscape:export-filename="C:\xampp\htdocs\portfolio\img\projects\wellton.png"
   inkscape:export-xdpi="96"
   inkscape:export-ydpi="96">
  <defs
     id="defs2" />
  <sodipodi:namedview
     id="base"
     pagecolor="#db6f6f"
     bordercolor="#666666"
     borderopacity="1.0"
     inkscape:pageopacity="0"
     inkscape:pageshadow="2"
     inkscape:zoom="0.62401744"
     inkscape:cx="278.39587"
     inkscape:cy="255.50636"
     inkscape:document-units="mm"
     inkscape:current-layer="g4652"
     showgrid="false"
     fit-margin-top="0"
     fit-margin-left="0"
     fit-margin-right="0"
     fit-margin-bottom="0"
     inkscape:window-width="1920"
     inkscape:window-height="1051"
     inkscape:window-x="-9"
     inkscape:window-y="-9"
     inkscape:window-maximized="1" />
  <metadata
     id="metadata5">
    <rdf:RDF>
      <cc:Work
         rdf:about="">
        <dc:format>image/svg+xml</dc:format>
        <dc:type
           rdf:resource="http://purl.org/dc/dcmitype/StillImage" />
        <dc:title />
      </cc:Work>
    </rdf:RDF>
  </metadata>
  <g
     inkscape:label="Layer 1"
     inkscape:groupmode="layer"
     id="layer1"
     transform="translate(119.41673,96.540497)">
    <g
       id="g4496">
      <g
         id="g4623">
        <g
           id="g4652">
          <path
             style="fill:#d0d0d0;stroke-width:0.26458332"
             d="M -45.002318,73.91731 C -45.483939,73.489524 -50.748785,64.399787 -89.789242,-3.4071667 -112.1348,-42.217786 -116.82889,-50.499416 -116.68863,-50.864925 c 0.18379,-0.478938 31.64434,-0.696452 100.701591,-0.696237 68.475016,2.11e-4 100.033436,0.217357 100.214636,0.689551 0.172159,0.448646 -4.899139,9.329095 -49.084054,85.952023 -12.16475,21.095406 -22.330269,38.567827 -22.590045,38.827603 -0.447474,0.447474 -1.959774,0.472316 -28.753421,0.472316 -26.559408,0 -28.312839,-0.02819 -28.802395,-0.463021 z m 0.442534,-36.710936 c 0.02939,-4.656667 0.14669,-9.419167 0.260673,-10.583333 0.202202,-2.065203 0.271587,-2.226027 2.853809,-6.614583 4.209097,-7.153479 14.95349,-25.7416772 19.881558,-34.395833 2.485985,-4.365625 4.644596,-8.08225 4.796917,-8.259169 0.406098,-0.471676 0.861801,-0.192307 1.503191,0.921528 0.312795,0.543202 1.843254,3.190298 3.40102,5.882433 1.557763,2.692135 7.5906069,13.1390783 13.4063151,23.21543 l 10.5740169,18.320641 0.156178,17.611089 c 0.121306,13.678985 0.226761,17.534001 0.472303,17.265819 0.173868,-0.189902 3.51102,-5.881679 7.415897,-12.648398 3.904877,-6.766718 8.164843,-14.148593 9.466591,-16.404166 1.301747,-2.255573 3.703698,-6.42276 5.337666,-9.260416 1.633969,-2.837656 5.861982,-10.16 9.395587,-16.2718746 11.117135,-19.2286724 13.220665,-22.8835794 16.185581,-28.1226304 1.588632,-2.807134 4.170799,-7.271977 5.738148,-9.921875 5.239358,-8.858109 7.292197,-12.597942 7.048915,-12.841615 -0.098,-0.09815 -3.509393,-0.178461 -7.580881,-0.178461 h -7.402708 l -4.252709,7.276041 c -2.338988,4.001823 -7.254276,12.514791 -10.922859,18.917708 C 27.125901,9.1265502 21.014785,19.571001 20.471469,19.917832 19.92884,20.264225 19.492315,19.784535 17.94509,17.141644 17.07913,15.662454 14.556381,11.36456 12.338984,7.5907657 10.121586,3.8169741 4.7947164,-5.4103694 0.50149477,-12.914442 -10.63999,-32.388513 -15.975673,-41.507165 -16.229233,-41.507165 c -0.07488,0 -0.478227,0.565546 -0.896327,1.25677 -1.369171,2.263582 -15.239147,26.328785 -24.360684,42.2671865 -4.913606,8.5857285 -9.29002,16.1759625 -9.725366,16.8671865 -0.911114,1.446634 -1.528918,1.591403 -2.25824,0.529167 -0.851548,-1.240255 -13.958609,-23.9624782 -21.63416,-37.504686 -4.437875,-7.829881 -10.872788,-18.895515 -14.817892,-25.481216 l -0.99963,-1.668714 -7.346819,0.08121 c -4.040749,0.04467 -7.428499,0.163095 -7.528339,0.263171 -0.25572,0.256339 1.24928,2.902495 27.209038,47.8399191 5.674418,9.8226559 10.970289,18.9904679 11.7686,20.3729159 0.798311,1.382448 2.311074,4.001823 3.361695,5.820833 1.050621,1.819011 2.562852,4.438386 3.360515,5.820833 0.797663,1.382448 3.923427,6.799792 6.946141,12.038542 6.021212,10.435528 7.149369,12.371104 7.78778,13.361458 0.399357,0.619511 0.43665,0.174873 0.588052,-7.011459 0.08891,-4.220104 0.185698,-11.482916 0.215085,-16.139582 z m 0.954289,-44.6493413 8.739364,-15.1464907 -3.976864,-0.16342 c -5.818868,-0.239112 -31.044999,-0.267438 -31.184693,-0.03502 -0.138047,0.229677 1.398783,2.982957 9.488783,16.9994784 7.686355,13.3171719 7.791246,13.493903 8.008284,13.4928447 0.102171,-5.292e-4 4.118477,-6.81682533 8.925126,-15.1473954 z M 23.45154,2.2101225 c 7.739708,-13.3085435 14.238377,-24.8081815 14.12409,-24.9931045 -0.145883,-0.236045 -25.301291,-0.211772 -31.1987715,0.0301 l -3.9845322,0.16342 4.7341021,8.202083 C 16.327874,1.55462 19.863663,7.4453454 20.22525,7.4356432 c 0.104669,-0.0028 1.556499,-2.3542915 3.22629,-5.2255207 z"
             id="path4666"
             inkscape:connector-curvature="0" />
          <path
             style="fill:#aeaeae;stroke-width:0.26458332"
             d="M -44.855741,73.785018 C -45.08522,73.603117 -54.02171,58.273821 -64.714606,39.719915 -75.407506,21.16601 -87.518424,0.15147904 -91.627758,-6.9790416 -111.97996,-42.294198 -116.59919,-50.515952 -116.27197,-50.843179 c 0.46964,-0.469638 199.615964,-0.469503 200.085605,1.35e-4 0.39306,0.39306 -1.170363,3.139319 -51.556815,90.562959 -10.693508,18.553906 -19.6304,33.883202 -19.859759,34.065103 -0.327719,0.259908 -6.4576698,0.330729 -28.626294,0.330729 -22.168508,0 -28.298624,-0.07082 -28.626508,-0.330729 z m 0.421184,-29.262735 c 0.103627,-9.291407 0.290394,-17.614955 0.415039,-18.496775 0.191072,-1.351774 0.639374,-2.302348 2.857563,-6.059135 3.526732,-5.972969 11.150944,-19.16190496 18.17665,-31.443331 7.252935,-12.678635 6.438606,-11.422356 7.00946,-10.813608 0.255228,0.272172 3.654412,6.031264 7.5537433,12.7979829 3.8993285,6.7667185 9.01436707,15.6368744 11.3667536,19.7114581 2.3523865,4.074583 5.3406779,9.253801 6.6406525,11.509374 l 2.3635866,4.101042 0.0716,17.813461 c 0.05156,12.827375 0.153199,17.786259 0.363135,17.71628 0.295095,-0.09836 1.375611,-1.936933 14.116645,-24.020367 3.904057,-6.766718 11.230221,-19.446874 16.280362,-28.1781238 5.050142,-8.73124967 11.739346,-20.3398432 14.864898,-25.7968742 3.125554,-5.457031 7.525734,-13.077031 9.778182,-16.933333 5.145457,-8.809286 6.478942,-11.291678 6.210138,-11.560709 -0.117187,-0.117287 -3.626273,-0.213249 -7.797972,-0.213249 h -7.584902 l -4.173691,7.14375 c -2.29553,3.929062 -8.061288,13.930312 -12.812794,22.224999 -11.334458,19.7865071 -20.112795,34.813218 -20.66797,35.37931 -0.245052,0.24987 -0.578189,0.368932 -0.740305,0.264583 C 19.694102,19.564669 18.277846,17.276635 16.70898,14.584499 15.140118,11.892364 12.760487,7.8442392 11.420915,5.5886664 10.081343,3.3330935 5.1701919,-5.179875 0.50724681,-13.329041 -8.4917771,-29.056128 -15.00299,-40.237568 -15.766213,-41.274792 l -0.46302,-0.629248 -0.463021,0.630623 c -0.65387,0.890556 -9.383101,15.972097 -22.299927,38.5277086 -12.607334,22.0151744 -12.894077,22.4895824 -13.593196,22.4895824 -0.547346,0 -3.279925,-4.593516 -16.211655,-27.2520822 -9.341471,-16.3678308 -17.050064,-29.7145248 -19.713037,-34.1312488 l -2.233351,-3.704167 -5.010092,-0.08271 c -5.756448,-0.09503 -10.434048,0.14328 -10.434048,0.531588 0,0.421087 8.573384,15.393815 32.542822,56.833413 3.74565,6.475677 11.48195,19.870208 17.191772,29.765624 11.869878,20.57111 11.36273,19.711458 11.628654,19.711458 0.110739,0 0.286131,-7.602058 0.389755,-16.893465 z m 0.04098,-50.1784079 c 4.191323,-7.2760411 8.075745,-14.0149871 8.63205,-14.9754321 0.556305,-0.960448 1.011462,-1.864857 1.011462,-2.009804 0,-0.28674 -30.413769,-0.659675 -33.787436,-0.414306 l -1.905146,0.138565 0.621052,1.222156 c 0.661027,1.300826 8.468002,14.9621812 13.897895,24.3197949 2.608797,4.4958766 3.334533,5.5657008 3.589702,5.2916665 0.175909,-0.1889098 3.749098,-6.2965989 7.940421,-13.5726403 z M 23.197661,3.0089789 C 27.3592,-4.0883338 36.65905,-20.30722 37.370067,-21.707612 l 0.626949,-1.234821 -1.911562,-0.152098 c -1.051361,-0.08366 -9.146534,-0.06377 -17.989277,0.0442 l -16.0777123,0.196294 1.7555977,3.042708 c 0.965581,1.67349 3.3001319,5.721615 5.1878916,8.995833 6.058241,10.50769149 10.902317,18.520833 11.19615,18.520833 0.157208,0 1.525008,-2.1133593 3.039557,-4.6963541 z"
             id="path4664"
             inkscape:connector-curvature="0" />
          <path
             style="fill:#8f8f8f;stroke-width:0.26458332"
             d="m -45.002786,73.520435 c -0.251653,-0.316039 -22.511908,-38.88384 -52.112318,-90.28906 -14.743616,-25.604329 -19.174676,-33.49211 -19.028546,-33.87292 0.13181,-0.343482 12.18897,-0.39062 99.914417,-0.39062 87.461751,0 99.782899,0.04789 99.913542,0.388347 0.08536,0.222457 -1.966724,4.09343 -4.803957,9.061979 C 73.038296,-31.351264 51.016635,6.959081 43.096621,20.669916 42.298056,22.052364 35.156619,34.434863 27.226765,48.186582 19.296912,61.9383 12.690076,73.338534 12.54491,73.520435 c -0.208214,0.260903 -6.2831346,0.330729 -28.774143,0.330729 -22.491324,0 -28.565802,-0.06982 -28.773553,-0.330729 z m 0.553355,-17.174432 c 0.0959,-3.0794 0.183684,-9.598072 0.195072,-14.485937 0.01138,-4.887864 0.107211,-10.732494 0.212941,-12.988067 l 0.192239,-4.101042 2.795913,-4.762499 c 6.610937,-11.260926 21.584752,-37.230578 23.529927,-40.808838 0.493477,-0.90778 1.022421,-1.65192 1.175429,-1.653645 0.283975,-0.0032 6.8423581,11.236589 25.4111254,43.549719 l 2.7533836,4.791406 2.65e-4,5.924219 c 1.74e-4,3.258322 0.07921,11.377339 0.175633,18.042265 0.14175,9.797914 0.239604,12.052162 0.511082,11.773958 0.184671,-0.189249 1.396754,-2.189554 2.693519,-4.445127 4.026776,-7.004111 29.00895,-50.2711786 33.532796,-58.07604009 2.361705,-4.07458321 7.095831,-12.28989591 10.52028,-18.25624991 3.424449,-5.966353 7.585371,-13.169634 9.246494,-16.007291 4.263147,-7.282632 5.349867,-9.366363 5.152731,-9.880091 -0.151333,-0.394499 -0.938715,-0.438658 -7.821578,-0.438658 h -7.6533 l -5.422579,9.326562 c -2.982418,5.129609 -9.111853,15.755937 -13.620967,23.614062 C 26.06226,10.239824 20.614275,19.47337 20.193974,19.560193 19.939955,19.612665 19.269975,18.729409 18.28736,17.046651 17.454124,15.619708 14.780115,11.058927 12.34512,6.911583 9.9101254,2.7642394 4.1686911,-7.1774791 -0.41362752,-15.181125 -4.9959435,-23.18477 -9.970483,-31.816801 -11.468162,-34.363416 c -1.497677,-2.546614 -3.087632,-5.255286 -3.53323,-6.01927 -0.445598,-0.763985 -0.945232,-1.389063 -1.110295,-1.389063 -0.485772,0 -0.99627,0.725554 -3.164721,4.497917 -1.129263,1.964531 -4.223456,7.322343 -6.875986,11.906249 -4.802788,8.299828 -16.515111,28.6906276 -22.264292,38.761457 -1.661483,2.910417 -3.249105,5.589323 -3.528047,5.953125 -0.450789,0.587928 -0.551265,0.617339 -0.903833,0.264584 C -53.329097,19.130792 -59.870401,7.904805 -69.344841,-8.6988332 -80.288407,-27.877063 -83.230989,-32.984182 -87.066656,-39.456645 l -3.567097,-6.01927 h -7.612217 c -6.00226,0 -7.67384,0.07425 -7.90358,0.351073 -0.36158,0.435676 -1.35547,-1.308886 44.544276,78.188 9.167813,15.878357 16.739113,28.872443 16.825113,28.875748 0.086,0.0033 0.234826,-2.513502 0.33073,-5.592903 z m 0.962056,-63.3542599 c 4.843214,-8.3835161 8.82019,-15.4379691 8.837721,-15.6765621 0.02921,-0.397444 -1.470607,-0.439504 -17.893641,-0.501801 -13.563652,-0.05145 -17.92552,0.0074 -17.92552,0.242012 0,0.500965 4.222766,8.013589 13.43566,23.90306618 4.005506,6.90829702 4.235376,7.27604142 4.548077,7.27604142 0.105523,0 4.154492,-6.8592407 8.997703,-15.2427565 z m 65.20492,12.7953608 c 8.595479,-14.6511244 16.292803,-28.2078419 16.292803,-28.6952869 0,-0.277201 -3.411815,-0.342733 -17.843758,-0.342733 -11.7523869,0 -17.9002557,0.09141 -18.0092561,0.267779 -0.1902433,0.307817 -0.3269271,0.05992 7.3654415,13.3582622 C 17.358657,3.9215665 19.825901,7.9699163 20.245827,7.9699163 c 0.105114,0 0.767387,-0.9822656 1.471718,-2.1828124 z"
             id="path4662"
             inkscape:connector-curvature="0" />
          <path
             style="fill:#6d6d6d;stroke-width:0.26458332"
             d="m -44.697208,73.648676 c -0.159417,-0.106913 -4.101905,-6.802355 -8.761082,-14.878761 -22.227119,-38.529383 -39.182965,-67.9557191 -50.08194,-86.915623 -9.19764,-16.000242 -12.76014,-22.386842 -12.58518,-22.561798 0.25168,-0.251679 199.540897,-0.251473 199.792574,2.09e-4 0.105916,0.105918 -2.16921,4.332637 -5.055833,9.392709 -7.16168,12.553986 -21.75943,37.9320964 -41.665671,72.435545 -6.212748,10.768542 -14.180918,24.579791 -17.707046,30.691666 -3.526129,6.111875 -6.597512,11.320859 -6.825295,11.57552 -0.389567,0.435536 -2.088359,0.46278 -28.617414,0.45897 -15.511793,-0.0021 -28.333694,-0.09152 -28.493113,-0.198437 z m 0.440023,-21.310523 c 0.0098,-5.266541 0.106645,-13.576561 0.215135,-18.466709 l 0.197252,-8.89118 2.480315,-4.205695 c 3.917929,-6.643351 15.073082,-25.9587064 20.126134,-34.848772 2.649921,-4.662128 4.755139,-8.087204 4.948111,-8.050308 0.184726,0.03532 6.5843356,10.893978 14.2213534,24.1303487 L 11.816599,26.071967 v 17.920858 c 0,10.13515 0.101923,17.983853 0.234603,18.065852 0.129032,0.07975 0.352592,-0.0026 0.496801,-0.182821 C 12.692208,61.695558 17.960372,52.620697 24.255032,41.7095 30.549691,30.798303 40.069981,14.308147 45.411231,5.0647094 50.75248,-4.1787287 57.03009,-15.075291 59.361476,-19.149875 c 2.331384,-4.074583 6.079959,-10.563489 8.330163,-14.419791 5.765149,-9.880052 6.499312,-11.285645 6.10213,-11.682827 -0.234548,-0.234548 -2.386827,-0.355195 -7.801065,-0.437293 -7.050677,-0.106913 -7.501693,-0.08518 -7.907498,0.380976 -0.5421,0.622721 -7.363055,12.328789 -17.63205,30.259977 C 27.466131,7.6284371 20.637619,19.209527 20.202242,19.296527 19.923403,19.352249 19.20774,18.381654 17.958718,16.253819 16.949979,14.535329 14.098942,9.6764787 11.623085,5.4563747 9.1472259,1.2362707 3.9941534,-7.6934165 0.17181336,-14.387375 -12.035947,-35.766488 -15.750316,-42.036332 -16.207929,-42.036332 c -0.137419,0 -0.481364,0.327422 -0.764318,0.727604 -0.687001,0.971621 -9.888429,16.888089 -23.134835,40.0182279 -11.960838,20.8853501 -11.970805,20.9020831 -12.45036,20.9020831 -0.185555,0 -0.701257,-0.625079 -1.146011,-1.389063 -5.056132,-8.6852994 -18.185854,-31.515705 -20.731982,-36.049478 -5.839013,-10.397251 -15.292718,-26.519475 -16.115455,-27.483079 -0.399791,-0.468244 -0.835951,-0.488905 -7.906711,-0.374547 -5.362779,0.08673 -7.574349,0.211804 -7.803879,0.44133 -0.25067,0.250674 -0.0941,0.734679 0.72044,2.22663 2.35701,4.317365 60.047901,104.281033 60.535401,104.89248 0.143751,0.180297 0.366938,0.262569 0.49597,0.182821 0.129032,-0.07975 0.242649,-4.453982 0.252484,-9.720524 z M -50.962036,6.1839788 c 0.712427,-1.2733072 4.25723,-7.4347914 7.877341,-13.692187 9.073676,-15.6839438 8.850466,-15.2856428 8.701389,-15.5268528 -0.158514,-0.256482 -35.917493,-0.295677 -36.173517,-0.03965 -0.204806,0.204803 0.66208,1.823598 5.714833,10.671711 8.76006,15.3401472 12.049045,20.9020829 12.360206,20.9020829 0.123433,0 0.807323,-1.0417968 1.519748,-2.3151041 z M 22.750635,4.1996039 C 31.31771,-10.358959 38.300969,-22.73015 38.118518,-23.025364 c -0.181787,-0.294135 -36.0171884,-0.295264 -36.1989651,-0.0011 -0.076282,0.123425 2.7485577,5.213347 6.2774246,11.310937 C 16.966841,3.4380352 19.720648,7.9699163 20.158898,7.9699163 c 0.20519,0 1.371473,-1.6966406 2.591737,-3.7703124 z"
             id="path4660"
             inkscape:connector-curvature="0" />
          <path
             style="fill:#505050;stroke-width:0.26458332"
             d="M -44.604697,73.520435 C -44.841621,73.338534 -49.700582,65.093456 -55.40239,55.19804 -61.104198,45.302623 -69.547282,30.657936 -74.164798,22.654291 -78.782314,14.650645 -85.574533,2.8634581 -89.258615,-3.5394583 c -3.684082,-6.4029165 -7.968805,-13.8443227 -9.521604,-16.5364577 -8.529811,-14.788385 -16.999331,-29.700037 -17.110511,-30.125193 -0.12311,-0.470792 1.80758,-0.490961 60.152047,-0.628369 75.283518,-0.177306 139.257363,0.02189 139.257363,0.433609 0,0.160425 -3.610858,6.601558 -8.02413,14.31363 -8.311509,14.524143 -30.95559,53.869805 -43.092437,74.876113 -1.681557,2.910416 -6.829525,11.840103 -11.439935,19.843749 -4.610406,8.003646 -8.576995,14.700911 -8.814638,14.882812 -0.339373,0.259768 -6.4278509,0.330729 -28.376773,0.330729 -21.949621,0 -28.037107,-0.07095 -28.375464,-0.330729 z m 0.418679,-19.976041 c 0.09608,-4.911328 0.181568,-12.203906 0.189982,-16.205729 0.0084,-4.001822 0.106966,-8.466666 0.219009,-9.921874 l 0.203713,-2.645834 5.171056,-8.863541 c 5.537578,-9.4917892 14.118592,-24.3528286 18.992741,-32.892599 2.411164,-4.224491 3.055898,-5.175838 3.317232,-4.894792 0.178409,0.191868 3.656047,6.123382 7.728082,13.1811418 C -4.2921677,-1.641073 1.8250464,8.9554892 5.2296094,14.849083 l 6.1901146,10.715624 0.164089,7.408333 c 0.09025,4.074584 0.179549,12.389115 0.198438,18.476735 0.02707,8.723437 0.104418,11.045629 0.365077,10.960901 0.181901,-0.05912 4.624403,-7.540217 9.872229,-16.624651 5.247825,-9.084434 14.28892,-24.732463 20.091322,-34.7734 5.802405,-10.04093765 13.006559,-22.5425 16.009236,-27.78125 3.002674,-5.238749 7.365441,-12.799218 9.695037,-16.801041 7.131867,-12.251253 6.928339,-11.766618 5.054049,-12.034604 -0.618463,-0.08843 -4.218709,-0.125489 -8.000544,-0.08236 l -6.876066,0.07842 -4.466497,7.672916 C 51.06952,-33.715187 46.258932,-25.380812 42.835898,-19.414458 28.0596,6.3406598 20.976254,18.494681 20.409152,19.066668 c -0.207828,0.209619 -0.429496,0.328681 -0.492591,0.264583 -0.0631,-0.0641 -1.117523,-1.84295 -2.343174,-3.953002 C 16.347737,13.268197 13.947064,9.1749161 12.238559,6.2820705 10.530055,3.3892249 5.6126466,-5.1237436 1.3109874,-12.635637 -14.276767,-39.856176 -15.616233,-42.087018 -16.310402,-41.983545 c -0.394272,0.05877 -2.011582,2.632694 -6.201185,9.869088 -6.285569,10.856602 -21.920946,38.0638272 -26.193649,45.579742 -1.511411,2.65865 -3.018417,5.148265 -3.348902,5.53248 l -0.600885,0.698569 -1.332362,-2.225188 c -2.645513,-4.418282 -13.408702,-23.121384 -22.901661,-39.79602 -4.943266,-8.68298 -11.509475,-19.948824 -13.069323,-22.423437 l -0.625417,-0.992188 h -7.107358 c -7.896096,0 -8.761006,0.08208 -8.761006,0.831414 0,0.604946 0.37895,1.283628 11.723556,20.996711 9.96888,17.3225319 10.485161,18.217993 18.305519,31.7499986 3.027556,5.2387494 11.212126,19.4071864 18.187932,31.4854154 14.000249,24.240672 13.35738,23.151041 13.658775,23.151041 0.118618,0 0.294275,-4.018359 0.39035,-8.929687 z M -47.774752,0.82616652 c 2.390063,-4.14734362 6.417434,-11.12252252 8.949711,-15.50039752 2.53228,-4.377875 4.604142,-8.080202 4.604142,-8.227398 0,-0.443873 -5.88844,-0.611661 -21.505698,-0.612796 -12.422328,-7.94e-4 -14.781376,0.05769 -14.901277,0.370149 -0.185402,0.483148 0.01032,0.852694 5.898755,11.138151 9.75641,17.0417011 11.83799,20.5218344 12.229539,20.4461873 0.208589,-0.040299 2.334762,-3.4665522 4.724828,-7.61389578 z M 23.882474,2.4798123 c 6.975171,-11.8721819 14.405062,-25.0730063 14.330368,-25.4610303 -0.06781,-0.352259 -1.795344,-0.412126 -13.964417,-0.483918 -14.9671057,-0.0883 -22.4859923,0.09459 -22.4859923,0.546936 0,0.457232 14.5797083,25.568658 17.7416373,30.5573871 0.207526,0.3274219 0.516835,0.5953125 0.687356,0.5953125 0.170521,0 1.831493,-2.5896093 3.691048,-5.7546873 z"
             id="path4658"
             inkscape:connector-curvature="0" />
          <path
             style="fill:#2c2c2c;stroke-width:0.26458332"
             d="M -45.173736,72.594393 C -45.526614,72.04869 -55.630818,54.576269 -67.627523,33.76679 c -46.020007,-79.826284 -48.428307,-84.055987 -48.010727,-84.321313 0.38786,-0.246444 197.709614,-0.234763 198.559538,0.01175 0.70226,0.203687 1.6983,-1.583629 -24.203564,43.4314375 C 49.002955,9.7720409 45.795773,15.342734 43.637353,19.082411 42.33551,21.337983 34.989465,34.077671 27.312811,47.392826 19.636153,60.707982 13.066898,72.048685 12.714465,72.594388 l -0.640791,0.992193 H -16.229233 -44.53214 Z m 0.996489,-10.451041 c 0.08775,-0.327422 0.169548,-5.476875 0.181782,-11.443229 0.01222,-5.966354 0.110935,-14.196062 0.219335,-18.288243 l 0.19709,-7.440326 2.789942,-4.730507 c 3.386224,-5.741542 14.22365,-24.4880091 20.013781,-34.619635 2.325825,-4.069749 4.329932,-7.428841 4.453575,-7.464649 0.12364,-0.03581 1.671137,2.460548 3.438879,5.54746 1.767745,3.086915 7.9887603,13.8832399 13.8244789,23.9918363 l 10.6104001,18.3792677 0.0036,17.736356 c 0.0021,9.754997 0.07668,18.009116 0.165981,18.342488 0.0893,0.333372 0.289343,0.563806 0.444535,0.512077 0.155194,-0.05173 3.513158,-5.682303 7.462144,-12.512383 20.853148,-36.067126 34.620519,-59.9226096 39.156456,-67.848531 2.789893,-4.874948 6.677887,-11.601979 8.639992,-14.948958 4.623766,-7.887274 6.833542,-11.900889 6.833542,-12.411757 0,-0.677757 -1.123887,-0.779622 -8.814718,-0.798931 -6.269024,-0.01574 -7.396231,0.04033 -7.607329,0.378397 -1.112086,1.780968 -10.188575,17.434133 -16.569213,28.574999 C 28.91773,4.6614394 20.453371,19.082416 20.146674,19.082416 c -0.155443,0 -0.749446,-0.803672 -1.320001,-1.785938 -0.57056,-0.982265 -3.13809,-5.357812 -5.705625,-9.7234367 C 10.553513,3.2074164 5.0854591,-6.258052 0.96981519,-13.461333 -12.31788,-36.717728 -15.474057,-42.025474 -16.138944,-42.233153 c -0.168622,-0.05267 -0.602628,0.29749 -0.964457,0.778132 -0.629033,0.835588 -9.053332,15.324309 -18.58419,31.9624379 -13.925427,24.3097781 -16.471928,28.6896081 -16.730752,28.7758841 -0.156834,0.05228 -1.22624,-1.489583 -2.376455,-3.426354 -2.328016,-3.919993 -15.991107,-27.69671 -23.081167,-40.166196 -5.500629,-9.674106 -12.354859,-21.205928 -12.78695,-21.513265 -0.364162,-0.259019 -14.897665,-0.04044 -15.615045,0.234841 -0.98942,0.379675 -3.5127,-4.126682 36.137236,64.537797 27.211273,47.123603 25.263308,43.788541 25.576315,43.788541 0.125196,0 0.299419,-0.267891 0.387162,-0.595313 z m -6.57666,-55.8941639 c 0.744847,-1.3091716 3.658973,-6.36890697 6.475836,-11.2438547 2.816862,-4.8749478 6.302274,-10.9114854 7.745356,-13.4145284 1.443085,-2.503043 2.54657,-4.675933 2.452188,-4.828645 -0.235495,-0.38104 -36.552819,-0.389015 -36.788251,-0.0081 -0.200757,0.324831 0.881444,2.32914 7.134159,13.21295 9.710846,16.9032098 10.85179,18.8041007 11.243521,18.7324807 0.210609,-0.038508 0.992344,-1.1411532 1.737191,-2.4503247 z m 73.934593,-2.316136 c 4.440917,-7.632287 13.130048,-22.7597061 14.280496,-24.8617521 0.615095,-1.123873 1.042791,-2.16567 0.950439,-2.315104 -0.235117,-0.380423 -36.5527397,-0.377222 -36.7878802,0.0033 -0.1640152,0.26538 7.0467932,13.001159 13.8509212,24.4636021 3.958712,6.6689682 4.191685,7.0120058 4.760473,7.0094896 0.295206,-0.00132 1.286756,-1.4486228 2.945551,-4.299479 z"
             id="path4656"
             inkscape:connector-curvature="0" />
          <path
             style="fill:#fefefe;stroke:#000000;stroke-width:0.26458332px;stroke-linecap:butt;stroke-linejoin:miter;stroke-opacity:1;fill-opacity:1"
             d="M -112.21887,-47.240595 -45.173737,72.594391 12.073673,73.586579 83.051226,-50.502998 57.77553,-45.872787 19.656195,15.740675 -17.104301,-48.011792 -53.093598,14.198276 -90.3329,-46.005078 Z"
             id="path7303"
             inkscape:connector-curvature="0" />
          <path
             style="fill:#000000;stroke-width:0.26458332"
             d="m -44.725291,72.992456 c -0.138822,-0.182554 -0.553474,-0.867698 -0.921449,-1.522542 -0.367974,-0.654843 -3.58975,-6.250781 -7.1595,-12.435416 -3.56975,-6.184635 -10.505046,-18.209947 -15.411762,-26.722916 -4.906719,-8.512968 -10.500772,-18.216562 -12.43123,-21.563541 -9.841458,-17.0628594 -15.116764,-26.233561 -23.210118,-40.348957 -11.52465,-20.0998 -11.58863,-20.213457 -11.58863,-20.585075 0,-0.245723 22.317532,-0.317007 99.249605,-0.317007 H 83.05123 l -0.139065,0.531788 c -0.125735,0.480809 -8.598894,15.346656 -23.92328,41.9725119 -3.086648,5.3629982 -8.112731,14.0966874 -11.169076,19.4081981 -5.638704,9.799309 -6.391764,11.10403 -13.301215,23.045167 -2.138746,3.696251 -5.472495,9.477343 -7.408333,12.84687 -1.935837,3.369524 -6.090493,10.572805 -9.232569,16.007291 l -5.712864,9.880878 -28.318856,0.06733 c -22.462026,0.05341 -28.371058,-0.0013 -28.571263,-0.264584 z m 0.804518,-14.950146 c 0.09536,-2.728515 0.180877,-9.247187 0.190042,-14.485937 0.0092,-5.238749 0.108779,-11.558407 0.221364,-14.043686 l 0.2047,-4.518683 3.524999,-6.06465 c 1.93875,-3.335554 4.499623,-7.731521 5.690833,-9.7688128 2.940896,-5.0297395 10.800275,-18.6932987 14.381977,-25.0031242 1.610764,-2.837656 3.028913,-5.327703 3.151444,-5.533435 0.16918,-0.284064 0.370858,-0.124925 0.838263,0.661459 1.644518,2.766806 26.181433,45.324383 26.530141,46.014683 0.341616,0.676264 0.425981,3.512206 0.569999,19.160246 0.09297,10.101574 0.234276,18.431737 0.314013,18.511474 0.386879,0.386879 1.248955,-0.800663 3.834326,-5.281916 C 21.283126,47.720267 34.523606,24.793074 43.709904,8.8959579 48.923519,-0.12633345 55.890791,-12.211177 59.19273,-17.95925 c 3.30194,-5.748072 7.700225,-13.368072 9.773968,-16.933332 4.470468,-7.685797 5.653301,-9.948529 5.46164,-10.447988 -0.232222,-0.605166 -1.516433,-0.68951 -9.271336,-0.608926 l -7.38147,0.07671 -4.624977,7.937499 C 50.606816,-33.569666 45.487759,-24.69951 41.774872,-18.223833 26.736426,8.0048386 20.497731,18.640093 20.153561,18.634548 20.009464,18.632167 19.401981,17.809312 18.803596,16.805851 14.809386,10.107747 7.530172,-2.4252953 0.3791726,-14.916541 -7.3528861,-28.422774 -12.928509,-38.027024 -14.786103,-41.039374 c -0.42463,-0.688602 -0.945304,-1.318482 -1.157052,-1.399739 -0.818809,-0.314206 -0.813009,-0.323561 -14.436738,23.289238 -4.386551,7.602818 -13.9032,24.1996724 -17.674481,30.823958 -2.029743,3.56526 -3.87373,6.690714 -4.097745,6.945455 -0.387278,0.440391 -0.424217,0.439013 -0.751361,-0.02805 -0.750252,-1.071134 -16.565186,-28.4615217 -20.874878,-36.153859 -3.051254,-5.446167 -10.361125,-18.072959 -13.670592,-23.614061 l -2.883948,-4.828646 h -7.645525 c -7.594367,0 -9.002887,0.141309 -9.002887,0.903198 0,0.650343 2.65168,5.301596 30.633382,53.7332586 4.287856,7.4215624 9.170334,15.8749994 10.849956,18.7854164 1.67962,2.910416 3.850056,6.660885 4.82319,8.334374 0.973138,1.67349 4.721527,8.162396 8.329758,14.419792 3.608231,6.257395 6.78911,11.704504 7.068621,12.104687 1.032833,1.478727 1.171091,1.046982 1.35563,-4.233334 z M -51.587011,8.0360621 c 0.348186,-0.5457031 4.536633,-7.7660365 9.30766,-16.0451874 8.128992,-14.1062147 8.643718,-15.0755767 8.183663,-15.4119787 -0.765162,-0.559498 -36.431343,-0.529563 -36.896544,0.03097 -0.354499,0.427148 -0.390255,0.354605 3.915714,7.944429 2.244169,3.955637 5.119859,8.9499094 11.007026,19.1161453 1.720215,2.9705484 3.269022,5.3578123 3.476038,5.3578123 0.205359,0 0.658259,-0.4464844 1.006443,-0.9921875 z M 21.791713,6.7131455 c 3.852865,-6.56758519 5.319054,-9.0991131 9.922237,-17.1317705 7.484033,-13.059798 7.198024,-12.515796 6.819815,-12.971512 -0.279323,-0.336563 -2.793433,-0.389946 -18.36462,-0.389946 -14.7157696,0 -18.1309027,0.06575 -18.5288069,0.356701 -0.457319,0.334399 -0.2509784,0.76866 3.300079,6.945312 4.8501802,8.4363242 11.0839879,19.0888193 13.1055419,22.3950975 1.980034,3.2383702 2.276097,3.3012961 3.745754,0.796118 z"
             id="path4654"
             inkscape:connector-curvature="0" />
        </g>
      </g>
    </g>
  </g>
</svg>
