<?xml version="1.0" encoding="UTF-8" standalone="no"?>
<!-- Created with Inkscape (http://www.inkscape.org/) -->

<svg
   xmlns:dc="http://purl.org/dc/elements/1.1/"
   xmlns:cc="http://creativecommons.org/ns#"
   xmlns:rdf="http://www.w3.org/1999/02/22-rdf-syntax-ns#"
   xmlns:svg="http://www.w3.org/2000/svg"
   xmlns="http://www.w3.org/2000/svg"
   xmlns:sodipodi="http://sodipodi.sourceforge.net/DTD/sodipodi-0.dtd"
   xmlns:inkscape="http://www.inkscape.org/namespaces/inkscape"
   width="66.145836mm"
   height="66.145836mm"
   viewBox="0 0 66.145836 66.145836"
   version="1.1"
   id="svg8"
   inkscape:version="0.92.1 r15371"
   sodipodi:docname="yanomebel.svg">
  <defs
     id="defs2" />
  <sodipodi:namedview
     id="base"
     pagecolor="#ff7659"
     bordercolor="#666666"
     borderopacity="1.0"
     inkscape:pageopacity="0"
     inkscape:pageshadow="2"
     inkscape:zoom="1.2861069"
     inkscape:cx="175.44399"
     inkscape:cy="74.183166"
     inkscape:document-units="mm"
     inkscape:current-layer="g5284"
     showgrid="false"
     fit-margin-top="0"
     fit-margin-left="0"
     fit-margin-right="0"
     fit-margin-bottom="0"
     inkscape:window-width="1536"
     inkscape:window-height="841"
     inkscape:window-x="-8"
     inkscape:window-y="-8"
     inkscape:window-maximized="1" />
  <metadata
     id="metadata5">
    <rdf:RDF>
      <cc:Work
         rdf:about="">
        <dc:format>image/svg+xml</dc:format>
        <dc:type
           rdf:resource="http://purl.org/dc/dcmitype/StillImage" />
        <dc:title></dc:title>
      </cc:Work>
    </rdf:RDF>
  </metadata>
  <g
     inkscape:label="Layer 1"
     inkscape:groupmode="layer"
     id="layer1"
     transform="translate(222.5505,135.2725)">
    <g
       id="g4496"
       transform="translate(-171.41717,58.14693)">
      <g
         id="g4538"
         transform="translate(145.65313,113.63854)">
        <g
           id="g4567"
           transform="translate(-190.86895,62.30846)">
          <g
             id="g5155">
            <g
               id="g5184">
              <g
                 id="g5215"
                 transform="translate(-0.2057242,-0.20572424)">
                <g
                   id="g5244">
                  <g
                     id="g5284">
                    <g
                       id="g5386"
                       style="fill:#fefefe;fill-opacity:1">
                      <path
                         style="fill:#fefefe;stroke-width:0.26458335;fill-opacity:1"
                         d="m 0.2052269,-327.09824 c -0.23615862,-0.61542 0.004802,-2.36123 0.34114239,-2.47164 0.17336453,-0.0569 0.50384391,0.26131 0.73439871,0.70715 0.5210704,1.00764 0.6873185,1.00966 1.2531916,0.0152 0.6773296,-1.19033 1.0044933,-0.97435 1.0044933,0.66312 0,0.80037 -0.1190625,1.45521 -0.2645833,1.45521 -0.1455209,0 -0.2651747,-0.32742 -0.2658976,-0.7276 l -0.00132,-0.72761 -0.604819,0.75582 -0.604819,0.75582 -0.3744373,-0.75582 -0.374437,-0.75582 -0.0953373,0.72761 c -0.10143808,0.77416 -0.51245058,0.97129 -0.7475813,0.35855 z m 14.1811431,-1.10137 v -1.47042 l 1.124479,0.0814 c 1.314057,0.0951 1.39581,0.53856 0.142704,0.77413 -0.591327,0.11116 -0.679478,0.17477 -0.274995,0.19844 0.740394,0.0433 0.803081,0.82858 0.06615,0.82858 -0.291041,0 -0.529166,0.11906 -0.529166,0.26458 0,0.14552 0.416718,0.26459 0.926041,0.26459 0.509323,0 0.926042,0.11906 0.926042,0.26458 0,0.14552 -0.535781,0.26458 -1.190625,0.26458 h -1.19063 z m 12.964584,0.0152 c 0,-1.41562 0.01979,-1.4547 0.727604,-1.43661 1.363739,0.0349 1.759331,0.34851 1.829853,1.45085 0.0761,1.18954 -0.187253,1.43129 -1.56527,1.43692 l -0.992187,0.004 z m 1.787263,0.59532 c -0.167577,-0.50885 -1.258096,-0.58213 -1.258096,-0.0845 0,0.27014 0.238873,0.41528 0.683506,0.41528 0.428508,0 0.642874,-0.12339 0.57459,-0.33073 z m -0.199763,-1.25678 c -0.517665,-0.33454 -1.058333,-0.33454 -1.058333,0 0,0.14553 0.327421,0.26277 0.727604,0.26054 0.566986,-0.003 0.639992,-0.0607 0.330729,-0.26054 z m 11.693986,0.72761 0.07997,-1.38906 1.124479,-0.0814 c 0.876422,-0.0634 1.124479,0.01 1.124479,0.33073 0,0.28509 -0.265004,0.41725 -0.859896,0.42886 -0.797245,0.0155 -0.815284,0.0347 -0.247586,0.26234 0.63528,0.25479 0.568814,0.77922 -0.09876,0.77922 -0.209692,0 -0.381259,0.11906 -0.381259,0.26458 0,0.14552 0.423746,0.26459 0.941658,0.26459 0.560395,0 0.875448,0.10712 0.778134,0.26458 -0.08994,0.14552 -0.698498,0.26458 -1.35236,0.26458 h -1.188836 z m 12.964584,0 c 0.09588,-1.66529 0.575847,-1.8492 0.690499,-0.26458 0.0791,1.09333 0.107018,1.12448 1.0078,1.12448 0.550257,0 0.860047,0.10743 0.762924,0.26458 -0.08994,0.14552 -0.698498,0.26458 -1.35236,0.26458 H 53.517051 Z M 6.1085417,-331.65563 C 6.0046805,-331.75949 5.919703,-332.287 5.919703,-332.82788 v -0.98341 l -1.7169419,-0.10933 c -3.0260231,-0.19268 -4.10279736,-1.55137 -4.10348051,-5.17784 l -4.1117e-4,-2.18281 H 1.0104143 c 0.8997498,0 0.9125882,-0.0163 0.9921876,-1.25677 l 0.080643,-1.25677 h 5.1593752 5.1593749 l 0.08064,1.25677 c 0.0796,1.24051 0.09244,1.25677 0.992187,1.25677 0.903961,0 0.911545,-0.01 0.911545,-1.19063 v -1.19062 l 5.225521,9.8e-4 c 5.676387,10e-4 6.215113,0.12205 7.371689,1.65535 l 0.482857,0.64014 0.808622,-0.85739 c 1.175395,-1.24628 2.472571,-1.49959 7.147817,-1.3958 3.90235,0.0866 4.034546,0.10838 4.962192,0.81643 0.524166,0.40008 1.028633,0.96563 1.121039,1.25677 0.215117,0.67777 0.578745,0.67777 0.793861,0 0.09241,-0.29114 0.596845,-0.85669 1.120979,-1.25677 0.938522,-0.7164 1.020035,-0.72876 5.376749,-0.81541 4.369102,-0.0869 4.437129,-0.0795 5.503897,0.59388 1.64968,1.04139 1.888945,1.73413 1.888945,5.469 0,2.81074 -0.07096,3.33788 -0.554709,4.1206 -0.94669,1.53177 -1.527966,1.67857 -6.642048,1.67747 -5.144876,-10e-4 -5.803122,-0.18785 -6.63833,-1.88324 l -0.440364,-0.89389 -0.006,1.38907 -0.006,1.38906 H 40.84475 39.786417 v -4.07173 c 0,-5.55496 0.240932,-5.29426 -4.996175,-5.40608 -3.961114,-0.0846 -3.989941,-0.081 -4.654188,0.58328 -0.657465,0.65747 -0.668387,0.7356 -0.668387,4.78146 v 4.11307 h -1.058334 c -1.045183,0 -1.058333,-0.0122 -1.058333,-0.98492 0,-0.96794 -0.0071,-0.97475 -0.412935,-0.39536 -0.851432,1.21559 -1.630167,1.38034 -6.519239,1.37929 -5.136464,-0.001 -5.848738,-0.20325 -6.714672,-1.90554 -0.243853,-0.47938 -0.470044,-0.90349 -0.502647,-0.94248 -0.0326,-0.039 -0.404414,0.10912 -0.826247,0.3291 -0.421833,0.21999 -1.444733,0.40071 -2.27311,0.40161 l -1.5061411,0.002 -0.081359,1.12448 c -0.080216,1.10869 -0.096355,1.12558 -1.149291,1.20307 -0.5873626,0.0432 -1.1529095,-0.006 -1.2567709,-0.11024 z m 18.9784523,-3.06993 c 0.226531,-0.32342 0.411876,-0.97826 0.411876,-1.45521 v -0.86717 l -4.564062,0.004 c -2.510235,0.002 -4.696844,0.0915 -4.859131,0.19844 -0.567609,0.37393 -0.690554,1.38696 -0.249941,2.05942 0.421528,0.64334 0.458503,0.64851 4.637147,0.64851 4.052865,0 4.227815,-0.0222 4.624111,-0.58804 z m 28.575001,0 c 0.642196,-0.91686 0.57654,-4.97082 -0.09391,-5.7988 -0.491347,-0.60678 -0.620453,-0.62462 -4.521293,-0.62462 -3.900839,0 -4.029946,0.0178 -4.521293,0.62462 -0.411043,0.50762 -0.50579,1.05417 -0.50579,2.9177 0,3.53408 -0.09411,3.46914 5.027083,3.46914 4.043664,0 4.218972,-0.0223 4.615207,-0.58804 z m -41.921458,-2.0578 c 0.428373,-0.42837 0.529166,-0.88194 0.529166,-2.38125 v -1.85208 H 7.3749114 2.4801195 v 1.8974 c 0,2.85298 0.020315,2.8651 4.8035075,2.8651 3.574965,0 3.975271,-0.0475 4.45691,-0.52917 z m 3.787706,-2.44036 c 0.36495,-0.20441 2.319943,-0.37504 5.305127,-0.46302 l 4.727207,-0.13932 -0.53611,-0.66146 c -0.532162,-0.65659 -0.572333,-0.66207 -5.454812,-0.74397 l -4.918702,-0.0825 v 1.20699 c 0,1.32193 0.03366,1.35582 0.87729,0.88329 z"
                         id="path5400"
                         inkscape:connector-curvature="0" />
                      <path
                         style="fill:#fefefe;stroke-width:0.26458335;fill-opacity:1"
                         d="m 0.36345277,-328.05211 c 0,-1.52627 0.32283216,-1.67499 1.04788473,-0.48274 l 0.5109401,0.84018 0.4773586,-0.83851 c 0.7149891,-1.2559 1.1388167,-1.07687 1.1388167,0.48107 0,0.72761 -0.1190625,1.32292 -0.2645833,1.32292 -0.1455209,0 -0.2665892,-0.38695 -0.2690408,-0.85989 l -0.00446,-0.8599 -0.5690592,0.8889 -0.5690592,0.88891 -0.4737265,-0.88891 -0.47372665,-0.8889 -0.0110887,0.8599 c -0.0061,0.47294 -0.13015331,0.85989 -0.27567415,0.85989 -0.14552084,0 -0.26458334,-0.59531 -0.26458334,-1.32292 z m 14.02291723,0 v -1.32291 l 1.124479,0.0423 c 0.974753,0.0367 1.009982,0.0565 0.264584,0.14906 -0.98573,0.12233 -1.197917,0.84647 -0.264584,0.90296 l 0.595313,0.036 -0.595313,0.11467 c -0.99553,0.19174 -0.725379,0.87161 0.346344,0.87161 0.560397,0 0.87545,0.10712 0.778135,0.26458 -0.08994,0.14552 -0.632744,0.26458 -1.20624,0.26458 H 14.38637 Z m 12.964584,0.0348 v -1.35775 h 1.025938 c 1.055968,0 1.909765,0.58337 1.355312,0.92604 -0.207309,0.12812 -0.199059,0.28931 0.02886,0.56394 0.44844,0.54033 0.007,0.90132 -1.319736,1.07928 l -1.090369,0.14625 z m 1.926455,0.36204 c -0.03186,-0.14552 -0.359278,-0.30226 -0.727604,-0.3483 -0.477282,-0.0597 -0.669684,0.0404 -0.669684,0.3483 0,0.31521 0.196741,0.40938 0.727604,0.3483 0.400182,-0.046 0.70154,-0.20278 0.669684,-0.3483 z m -0.206663,-1.05833 c 0,-0.14552 -0.267891,-0.30263 -0.595313,-0.34913 -0.40962,-0.0582 -0.595312,0.0507 -0.595312,0.34913 0,0.2984 0.185692,0.4073 0.595312,0.34913 0.327422,-0.0465 0.595313,-0.20361 0.595313,-0.34913 z m 11.685765,1.80798 c -0.09702,-0.097 -0.17639,-0.69232 -0.17639,-1.32291 v -1.14653 l 1.256771,0.0348 c 1.12612,0.0312 1.166297,0.0518 0.386464,0.19844 -1.012127,0.19026 -1.149425,0.62326 -0.269788,0.85082 l 0.610928,0.15804 -0.640733,0.10654 c -1.06167,0.17653 -0.992728,0.768 0.08952,0.768 0.521449,0 0.948089,0.11906 0.948089,0.26458 0,0.29221 -1.923886,0.36917 -2.20486,0.0882 z m 12.964584,0 c -0.09701,-0.097 -0.17639,-0.69232 -0.17639,-1.32291 0,-0.84275 0.105156,-1.14653 0.396875,-1.14653 0.286631,0 0.396875,0.29398 0.396875,1.05833 0,0.99954 0.0441,1.05834 0.79375,1.05834 0.436562,0 0.79375,0.11906 0.79375,0.26458 0,0.29221 -1.923886,0.36917 -2.20486,0.0882 z m -47.5368087,-5.90903 v -1.05833 H 4.7185375 c -3.2144122,0 -4.60324459,-1.61277 -4.6138573,-5.35781 l -0.0058108,-2.05052 h 0.9115449 c 0.8997498,0 0.9125882,-0.0163 0.9921876,-1.25677 l 0.080643,-1.25677 h 5.1593752 5.1593749 l 0.08064,1.25677 c 0.07932,1.23611 0.09537,1.25677 0.976974,1.25677 0.865357,0 0.899144,-0.0389 0.977691,-1.12448 l 0.08136,-1.12448 5.159375,9.7e-4 c 5.743348,10e-4 6.424422,0.16451 7.405045,1.77702 l 0.502475,0.82625 0.325004,-0.71331 c 0.178752,-0.39231 0.751043,-0.97827 1.271762,-1.30212 0.878964,-0.54665 1.259348,-0.58881 5.312381,-0.58881 5.146699,0 5.793261,0.1824 6.914679,1.95069 0.527148,0.83123 0.758238,1.03653 0.758238,0.67362 0,-0.71344 1.370124,-2.15818 2.289781,-2.41448 0.41411,-0.11541 2.598396,-0.20983 4.853969,-0.20983 4.644764,0 5.463067,0.25374 6.386222,1.98025 0.738844,1.38179 0.715587,6.64718 -0.03479,7.8779 -1.052983,1.72703 -1.715378,1.91371 -6.794148,1.91482 l -4.543764,10e-4 -0.849119,-0.71449 c -0.467016,-0.39297 -1.007272,-1.07758 -1.200568,-1.52135 -0.345734,-0.79375 -0.351618,-0.78212 -0.361807,0.71448 l -0.01036,1.52129 h -1.058334 -1.058333 l -0.004,-4.16719 c -0.0021,-2.29195 -0.09152,-4.29819 -0.198438,-4.45831 -0.484669,-0.72585 -1.485627,-0.8995 -5.184875,-0.8995 -5.101834,0 -4.931389,-0.18871 -4.931389,5.45964 v 4.06536 h -1.058334 c -1.045078,0 -1.058439,-0.0124 -1.066747,-0.99219 -0.0078,-0.92488 -0.03449,-0.95773 -0.392742,-0.48425 -1.024948,1.3546 -1.548913,1.47284 -6.53495,1.47469 l -4.687148,0.002 -0.902645,-0.79253 c -0.496454,-0.4359 -1.043915,-1.13359 -1.21658,-1.55044 l -0.313935,-0.75791 -0.965238,0.4921 c -0.611794,0.31192 -1.52605,0.49211 -2.4967925,0.49211 h -1.531556 v 1.05833 1.05834 H 7.2426197 6.1842863 Z m 18.8307297,-1.76079 c 0.329965,-0.29862 0.483854,-0.81047 0.483854,-1.60936 v -1.17147 l -4.651934,0.088 c -4.242365,0.0803 -4.684963,0.13322 -5.027083,0.60159 -0.497883,0.68162 -0.474257,1.4519 0.06273,2.04526 0.388372,0.42915 0.902054,0.48386 4.543229,0.48386 3.448773,0 4.18273,-0.07 4.589201,-0.43788 z m 28.575001,0 c 0.405337,-0.36683 0.483198,-0.84986 0.479804,-2.97657 -0.0021,-1.39627 -0.09152,-2.66968 -0.198438,-2.8298 -0.474787,-0.71105 -1.48555,-0.8995 -4.824595,-0.8995 -3.339044,0 -4.349808,0.18845 -4.824595,0.8995 -0.106913,0.16012 -0.19621,1.41284 -0.198438,2.78383 -0.0058,3.55098 -0.136019,3.46042 4.977062,3.46042 3.448772,0 4.182729,-0.07 4.5892,-0.43788 z m -41.804168,-2.11667 c 0.385089,-0.3485 0.483854,-0.83457 0.483854,-2.38125 v -1.94337 H 7.4053975 2.541092 l -0.1771643,1.41797 c -0.2074386,1.66029 0.00259,2.72128 0.6087439,3.07528 0.2384192,0.13924 2.2100522,0.25678 4.3814062,0.26121 3.3099232,0.007 4.0261092,-0.0627 4.4317712,-0.42984 z m 3.510987,-2.34866 c 0.408154,-0.30871 1.50807,-0.38846 5.357812,-0.38846 4.897764,0 5.231988,-0.0686 4.641734,-0.95258 -0.504806,-0.75602 -1.482672,-0.8995 -6.130118,-0.8995 H 14.38637 v 1.32291 c 0,1.41513 0.108345,1.52432 0.910466,0.91763 z"
                         id="path5398"
                         inkscape:connector-curvature="0" />
                      <path
                         style="fill:#fefefe;stroke-width:0.26458335;fill-opacity:1"
                         d="m 0.36345277,-328.1844 c 0,-1.38529 0.3093474,-1.5121 0.96812923,-0.39687 0.2578838,0.43656 0.532506,0.79299 0.6102713,0.79208 0.077765,-8e-4 0.3442129,-0.35811 0.5921063,-0.79375 0.6405753,-1.12574 1.0044933,-0.98135 1.0044933,0.39854 0,0.65485 -0.1190625,1.19063 -0.2645833,1.19063 -0.1455209,0 -0.2651747,-0.32742 -0.2658976,-0.72761 l -0.00132,-0.7276 -0.604819,0.75582 -0.604819,0.75582 -0.3744373,-0.75582 -0.374437,-0.75582 -0.0953373,0.7276 c -0.15402296,1.17556 -0.5893467,0.83355 -0.5893467,-0.46302 z m 14.02291723,0 v -1.19062 l 1.124479,0.0423 c 0.974753,0.0367 1.009982,0.0565 0.264584,0.14906 -0.98573,0.12233 -1.197917,0.84647 -0.264584,0.90296 l 0.595313,0.036 -0.595313,0.11467 c -0.976929,0.18816 -0.707817,0.82789 0.396875,0.94345 0.909016,0.0951 0.886837,0.10751 -0.264583,0.14826 l -1.256771,0.0445 z m 12.964584,-0.0152 v -1.20584 l 1.124479,0.0814 c 0.917149,0.0664 1.126294,0.17899 1.134324,0.61084 0.0054,0.29122 0.101741,0.67817 0.214054,0.8599 0.353113,0.57135 -0.08208,0.85958 -1.297848,0.85958 h -1.175009 z m 2.052164,0.61053 c -0.168603,-0.51347 -1.522997,-0.58792 -1.522997,-0.0837 0,0.2866 0.251658,0.41445 0.815797,0.41445 0.53417,0 0.778309,-0.11418 0.7072,-0.33073 z m -0.200081,-1.12448 c 0,-0.24695 -0.249883,-0.39688 -0.661458,-0.39688 -0.411575,0 -0.661458,0.14993 -0.661458,0.39688 0,0.24694 0.249883,0.39687 0.661458,0.39687 0.411575,0 0.661458,-0.14993 0.661458,-0.39687 z m 11.641667,0.52916 v -1.19062 l 1.12448,0.0445 1.124479,0.0445 -0.992188,0.10379 c -1.09646,0.11469 -1.415706,0.83996 -0.396875,0.90162 l 0.595313,0.036 -0.595313,0.11467 c -0.976929,0.18816 -0.707816,0.82789 0.396875,0.94345 l 0.992188,0.10378 -1.124479,0.0445 -1.12448,0.0445 z m 13.01081,-0.0661 0.04622,-1.25677 0.100542,1.10937 c 0.09625,1.06194 0.142343,1.11377 1.078256,1.21229 l 0.977713,0.10292 -1.12448,0.0445 -1.124479,0.0445 z m -47.6712277,-4.52784 v -1.02211 l -1.7515965,-0.1406 c -3.0180995,-0.24227 -3.94219125,-1.32243 -4.18582701,-4.89279 l -0.16700659,-2.44739 h 0.9210514 c 0.9110912,0 0.9219237,-0.0136 1.0016943,-1.25677 l 0.080643,-1.25677 h 5.1593752 5.1593749 l 0.08064,1.25677 c 0.0796,1.24051 0.09244,1.25677 0.992187,1.25677 h 0.911545 v 1.32291 c 0,1.43442 0.06679,1.49286 1.058333,0.92605 0.503143,-0.28763 1.785499,-0.38037 5.357813,-0.3875 4.414547,-0.009 4.696354,-0.0392 4.696354,-0.50615 0,-1.06991 -0.643215,-1.217 -5.92671,-1.35531 l -5.053498,-0.13229 -0.08212,-0.99219 -0.08212,-0.99219 h 5.320778 c 5.868401,0 6.400727,0.11571 7.337236,1.59482 l 0.519705,0.82082 0.452945,-0.69129 c 1.014334,-1.54806 1.703782,-1.72228 6.820041,-1.72336 l 4.676055,-9.9e-4 0.851699,0.71666 c 0.468437,0.39416 1.070269,1.19783 1.337408,1.78594 0.464236,1.02201 0.485963,1.03574 0.491517,0.31054 0.004,-0.52384 0.323813,-1.07673 1.033015,-1.78593 l 1.027208,-1.02721 h 4.733343 4.733343 l 0.979887,0.80771 c 1.313741,1.08289 1.60772,2.20025 1.480823,5.62832 -0.08517,2.30087 -0.200681,2.93458 -0.645435,3.541 -1.056709,1.44081 -1.93244,1.66377 -6.536492,1.66423 -4.385141,5.3e-4 -5.071994,-0.14412 -6.104102,-1.28458 -0.271478,-0.29999 -0.586433,-0.93725 -0.699897,-1.41615 -0.168449,-0.71098 -0.21127,-0.54307 -0.233383,0.9152 l -0.02708,1.78594 h -1.058334 -1.058333 v -4.35063 c 0,-5.51543 0.343945,-5.17437 -5.218248,-5.17437 -5.394809,0 -5.100502,-0.30534 -5.100502,5.29166 v 4.23334 h -1.058334 -1.058333 v -1.07864 -1.07863 l -0.680958,0.80927 c -1.004107,1.19332 -2.083822,1.40091 -6.775149,1.30262 -4.631698,-0.097 -5.104489,-0.25935 -6.169935,-2.11824 l -0.529167,-0.92324 -1.058333,0.47816 c -0.582084,0.26298 -1.683412,0.48128 -2.447396,0.48509 l -1.3890625,0.007 v 1.05833 1.05834 H 7.2426197 c -1.0520821,0 -1.0583334,-0.006 -1.0583334,-1.02211 z m 18.3397907,-1.39875 c 0.818546,-0.43085 0.96615,-0.73661 0.970743,-2.01091 l 0.004,-1.12448 h -4.439044 c -4.925663,0 -5.618727,0.18977 -5.611071,1.53635 0.0091,1.60762 0.738537,1.88551 4.97428,1.89519 2.158762,0.005 3.746929,-0.10976 4.101042,-0.29615 z m 28.575001,0 c 0.902033,-0.47479 0.96643,-0.71251 0.970743,-3.58341 0.0054,-3.58941 0.104523,-3.52073 -5.081905,-3.52073 -5.019072,0 -4.969931,-0.036 -4.964161,3.63802 0.0043,2.71596 0.07277,2.97258 0.921991,3.45415 0.715762,0.40588 7.386352,0.41568 8.153332,0.012 z m -41.313229,-2.51494 c 0.385089,-0.3485 0.483854,-0.83457 0.483854,-2.38125 v -1.94337 H 7.2426197 2.2155362 v 1.79321 c 0,2.95414 0.025279,2.96929 4.9551071,2.96929 3.4729697,0 4.2084597,-0.0698 4.6152057,-0.43788 z"
                         id="path5396"
                         inkscape:connector-curvature="0" />
                      <path
                         style="fill:#fefefe;stroke-width:0.26458335;fill-opacity:1"
                         d="m 0.36345277,-328.1844 c 0,-1.38529 0.3093474,-1.5121 0.96812923,-0.39687 0.2578838,0.43656 0.532506,0.79299 0.6102713,0.79208 0.077765,-8e-4 0.3442129,-0.35811 0.5921063,-0.79375 0.6405753,-1.12574 1.0044933,-0.98135 1.0044933,0.39854 0,0.65485 -0.1190625,1.19063 -0.2645833,1.19063 -0.1455209,0 -0.2651747,-0.32742 -0.2658976,-0.72761 l -0.00132,-0.7276 -0.604819,0.75582 -0.604819,0.75582 -0.3744373,-0.75582 -0.374437,-0.75582 -0.0953373,0.7276 c -0.15402296,1.17556 -0.5893467,0.83355 -0.5893467,-0.46302 z m 14.02291723,0 v -1.19062 l 1.124479,0.0423 c 0.974753,0.0367 1.009982,0.0565 0.264584,0.14906 -0.98573,0.12233 -1.197917,0.84647 -0.264584,0.90296 l 0.595313,0.036 -0.595313,0.11467 c -0.976929,0.18816 -0.707817,0.82789 0.396875,0.94345 0.909016,0.0951 0.886837,0.10751 -0.264583,0.14826 l -1.256771,0.0445 z m 12.964584,-0.0152 v -1.20584 l 1.124479,0.0814 c 0.917149,0.0664 1.126294,0.17899 1.134324,0.61084 0.0054,0.29122 0.101741,0.67817 0.214054,0.8599 0.353113,0.57135 -0.08208,0.85958 -1.297848,0.85958 h -1.175009 z m 2.052164,0.61053 c -0.168603,-0.51347 -1.522997,-0.58792 -1.522997,-0.0837 0,0.2866 0.251658,0.41445 0.815797,0.41445 0.53417,0 0.778309,-0.11418 0.7072,-0.33073 z m -0.200081,-1.12448 c 0,-0.24695 -0.249883,-0.39688 -0.661458,-0.39688 -0.411575,0 -0.661458,0.14993 -0.661458,0.39688 0,0.24694 0.249883,0.39687 0.661458,0.39687 0.411575,0 0.661458,-0.14993 0.661458,-0.39687 z m 11.641667,0.52916 v -1.19062 l 1.12448,0.0445 1.124479,0.0445 -0.992188,0.10379 c -1.09646,0.11469 -1.415706,0.83996 -0.396875,0.90162 l 0.595313,0.036 -0.595313,0.11467 c -0.976929,0.18816 -0.707816,0.82789 0.396875,0.94345 l 0.992188,0.10378 -1.124479,0.0445 -1.12448,0.0445 z m 13.01081,-0.0661 0.04622,-1.25677 0.100542,1.10937 c 0.09625,1.06194 0.142343,1.11377 1.078256,1.21229 l 0.977713,0.10292 -1.12448,0.0445 -1.124479,0.0445 z m -47.6712277,-4.52784 v -1.02211 l -1.7515965,-0.1406 c -3.0180995,-0.24227 -3.94219125,-1.32243 -4.18582701,-4.89279 l -0.16700659,-2.44739 h 0.9210514 c 0.9110912,0 0.9219237,-0.0136 1.0016943,-1.25677 l 0.080643,-1.25677 h 5.1593752 5.1593749 l 0.08064,1.25677 c 0.0796,1.24051 0.09244,1.25677 0.992187,1.25677 h 0.911545 v 1.32291 c 0,1.43442 0.06679,1.49286 1.058333,0.92605 0.503143,-0.28763 1.785499,-0.38037 5.357813,-0.3875 4.414547,-0.009 4.696354,-0.0392 4.696354,-0.50615 0,-1.06991 -0.643215,-1.217 -5.92671,-1.35531 l -5.053498,-0.13229 -0.08212,-0.99219 -0.08212,-0.99219 h 5.320778 c 5.868401,0 6.400727,0.11571 7.337236,1.59482 l 0.519705,0.82082 0.452945,-0.69129 c 1.014334,-1.54806 1.703782,-1.72228 6.820041,-1.72336 l 4.676055,-9.9e-4 0.851699,0.71666 c 0.468437,0.39416 1.070269,1.19783 1.337408,1.78594 0.464236,1.02201 0.485963,1.03574 0.491517,0.31054 0.004,-0.52384 0.323813,-1.07673 1.033015,-1.78593 l 1.027208,-1.02721 h 4.733343 4.733343 l 0.979887,0.80771 c 1.313741,1.08289 1.60772,2.20025 1.480823,5.62832 -0.08517,2.30087 -0.200681,2.93458 -0.645435,3.541 -1.056709,1.44081 -1.93244,1.66377 -6.536492,1.66423 -4.385141,5.3e-4 -5.071994,-0.14412 -6.104102,-1.28458 -0.271478,-0.29999 -0.586433,-0.93725 -0.699897,-1.41615 -0.168449,-0.71098 -0.21127,-0.54307 -0.233383,0.9152 l -0.02708,1.78594 h -1.058334 -1.058333 v -4.35063 c 0,-5.51543 0.343945,-5.17437 -5.218248,-5.17437 -5.394809,0 -5.100502,-0.30534 -5.100502,5.29166 v 4.23334 h -1.058334 -1.058333 v -1.07864 -1.07863 l -0.680958,0.80927 c -1.004107,1.19332 -2.083822,1.40091 -6.775149,1.30262 -4.631698,-0.097 -5.104489,-0.25935 -6.169935,-2.11824 l -0.529167,-0.92324 -1.058333,0.47816 c -0.582084,0.26298 -1.683412,0.48128 -2.447396,0.48509 l -1.3890625,0.007 v 1.05833 1.05834 H 7.2426197 c -1.0520821,0 -1.0583334,-0.006 -1.0583334,-1.02211 z m 18.3397907,-1.39875 c 0.818546,-0.43085 0.96615,-0.73661 0.970743,-2.01091 l 0.004,-1.12448 h -4.439044 c -4.925663,0 -5.618727,0.18977 -5.611071,1.53635 0.0091,1.60762 0.738537,1.88551 4.97428,1.89519 2.158762,0.005 3.746929,-0.10976 4.101042,-0.29615 z m 28.575001,0 c 0.902033,-0.47479 0.96643,-0.71251 0.970743,-3.58341 0.0054,-3.58941 0.104523,-3.52073 -5.081905,-3.52073 -5.019072,0 -4.969931,-0.036 -4.964161,3.63802 0.0043,2.71596 0.07277,2.97258 0.921991,3.45415 0.715762,0.40588 7.386352,0.41568 8.153332,0.012 z m -41.313229,-2.51494 c 0.385089,-0.3485 0.483854,-0.83457 0.483854,-2.38125 v -1.94337 H 7.2426197 2.2155362 v 1.79321 c 0,2.95414 0.025279,2.96929 4.9551071,2.96929 3.4729697,0 4.2084597,-0.0698 4.6152057,-0.43788 z m -1.9635417,-6.90312 c -1.4188282,-0.0476 -3.740547,-0.0476 -5.1593752,0 -1.4188282,0.0476 -0.2579688,0.0865 2.5796876,0.0865 2.8376563,0 3.9985153,-0.0389 2.5796876,-0.0865 z"
                         id="path5394"
                         inkscape:connector-curvature="0" />
                      <path
                         style="fill:#fefefe;stroke-width:0.26458335;fill-opacity:1"
                         d="m 0.36345277,-328.1844 c 0,-0.65484 0.0956601,-1.19062 0.2125779,-1.19062 0.11691779,0 0.46420753,0.4403 0.77175523,0.97844 l 0.5591773,0.97845 0.577296,-0.97845 c 0.3175127,-0.53814 0.684598,-0.97844 0.8157448,-0.97844 0.1311469,0 0.2384489,0.53578 0.2384489,1.19062 0,0.65485 -0.1190625,1.19063 -0.2645833,1.19063 -0.1455209,0 -0.2665892,-0.38695 -0.2690408,-0.8599 l -0.00446,-0.85989 -0.5752806,0.89873 -0.5752809,0.89873 -0.3943059,-0.83259 c -0.49769825,-1.0509 -0.7703707,-1.068 -0.61932139,-0.0388 0.0699302,0.47646 -0.00127,0.79375 -0.17811565,0.79375 -0.17278245,0 -0.29461329,-0.49236 -0.29461329,-1.19063 z m 14.02291723,0 v -1.19062 l 1.124479,0.0423 c 0.974753,0.0367 1.009982,0.0565 0.264584,0.14906 -0.98573,0.12233 -1.197917,0.84647 -0.264584,0.90296 l 0.595313,0.036 -0.595313,0.11467 c -0.904742,0.17426 -0.723292,0.8222 0.264584,0.94479 0.745398,0.0925 0.710169,0.11235 -0.264584,0.14905 l -1.124479,0.0423 z m 12.964584,0 c 0,-1.13911 0.03341,-1.19062 0.77211,-1.19062 1.018984,0 1.60914,0.24259 1.60914,0.66146 0,0.37913 -0.573881,0.66145 -1.344557,0.66145 -0.331137,0 -0.507526,0.18391 -0.507526,0.52917 0,0.29104 -0.119063,0.52917 -0.264584,0.52917 -0.145521,0 -0.264583,-0.53578 -0.264583,-1.19063 z m 1.926455,-0.52916 c -0.03186,-0.14552 -0.359278,-0.30226 -0.727604,-0.34831 -0.477282,-0.0597 -0.669684,0.0404 -0.669684,0.34831 0,0.3152 0.196741,0.40938 0.727604,0.3483 0.400182,-0.0461 0.70154,-0.20278 0.669684,-0.3483 z m -0.180189,1.54149 c 0.160081,-0.12022 0.366339,-0.39717 0.458353,-0.61545 0.117549,-0.27886 0.149016,-0.24604 0.105821,0.11036 -0.03382,0.27899 -0.240075,0.55594 -0.458357,0.61546 -0.255264,0.0696 -0.29302,0.0302 -0.105817,-0.11037 z m 11.747484,-1.01233 v -1.19062 l 0.992188,0.0423 c 0.976868,0.0417 0.978911,0.044 0.132292,0.14906 -0.985729,0.12233 -1.197917,0.84647 -0.264584,0.90296 l 0.595313,0.036 -0.595313,0.11467 c -0.976929,0.18816 -0.707816,0.82789 0.396875,0.94345 l 0.992188,0.10378 -1.124479,0.0445 -1.12448,0.0445 z m 13.01081,-0.0661 0.04622,-1.25677 0.100542,1.10937 c 0.09625,1.06194 0.142343,1.11377 1.078256,1.21229 l 0.977713,0.10292 -1.12448,0.0445 -1.124479,0.0445 z m -47.6712277,-4.6964 v -1.19062 l -1.6536459,-0.001 c -3.1168002,-0.002 -4.16718763,-1.23202 -4.16718763,-4.88059 v -2.2621 H 1.142706 c 0.7419282,0 0.7831159,-0.0602 0.8598959,-1.25677 l 0.080643,-1.25677 h 5.1593752 5.1593749 l 0.08064,1.25677 c 0.0796,1.24051 0.09244,1.25677 0.992187,1.25677 h 0.911545 v 1.45572 1.45572 l 0.988269,-0.52968 c 0.879227,-0.47124 1.492285,-0.52968 5.556251,-0.52968 4.263683,0 4.56798,-0.0325 4.56798,-0.48816 0,-0.26849 -0.250351,-0.71497 -0.556336,-0.99219 -0.496337,-0.44967 -1.081289,-0.51342 -5.423958,-0.59118 l -4.867623,-0.0872 v -0.90503 -0.90503 l 5.09323,9.8e-4 c 5.657964,10e-4 6.273879,0.15801 7.310379,1.86239 l 0.49252,0.80989 0.562123,-0.95273 c 0.883317,-1.49711 1.755468,-1.72069 6.70773,-1.71955 3.803296,8.7e-4 4.40703,0.0614 5.153499,0.51654 1.652251,1.00744 1.791038,1.48867 1.888313,6.54752 l 0.088,4.57663 h -1.080191 -1.080188 v -4.32462 c 0,-5.63344 0.281969,-5.33267 -4.999387,-5.33267 -3.27442,0 -3.998868,0.0738 -4.602716,0.46912 l -0.716647,0.46912 v 4.35952 4.35953 H 28.374872 27.28213 l 0.131254,-1.16451 0.131257,-1.1645 -0.957117,1.00614 c -1.189857,1.2508 -2.063173,1.40873 -7.093183,1.28271 -4.203214,-0.10531 -4.869241,-0.355 -5.601897,-2.10016 -0.470856,-1.12156 -0.696732,-1.21795 -1.474879,-0.62939 -0.334809,0.25323 -1.140698,0.38846 -2.315104,0.38846 H 8.3009531 v 1.19062 1.19063 H 7.2426197 6.1842863 Z m 18.7265447,-1.33792 c 0.472811,-0.33117 0.588039,-0.66816 0.588039,-1.71979 v -1.30791 h -4.543229 c -5.098658,0 -5.510938,0.1306 -5.510938,1.74579 0,1.48933 0.606835,1.69379 5.027084,1.69379 3.057242,0 3.972213,-0.0849 4.439044,-0.41188 z m -13.404819,-1.98546 c 0.786426,-0.42088 1.087102,-1.51222 0.888376,-3.22445 l -0.176642,-1.52196 H 7.2166411 2.2155362 v 1.94337 c 0,1.9783 0.2367828,2.49665 1.3229167,2.89601 0.7382754,0.27146 7.4325741,0.19335 7.9675591,-0.093 z m -1.6837047,-7.32491 c -1.4188282,-0.0476 -3.740547,-0.0476 -5.1593752,0 -1.4188282,0.0476 -0.2579688,0.0865 2.5796876,0.0865 2.8376563,0 3.9985153,-0.0389 2.5796876,-0.0865 z m 34.8698837,11.64592 c -0.86831,-0.22056 -1.737609,-0.90474 -2.141218,-1.68524 -0.275455,-0.53266 -0.383352,-1.68301 -0.383352,-4.08705 0,-3.69755 0.268616,-4.46066 1.859804,-5.2835 1.08857,-0.56292 8.948196,-0.56393 10.036223,-10e-4 1.648349,0.85239 1.862307,1.45136 1.862307,5.21348 0,4.0332 -0.254434,4.75906 -1.935776,5.52241 -0.934662,0.42435 -1.703994,0.49869 -4.943391,0.47768 -2.110052,-0.0137 -4.06962,-0.0841 -4.354597,-0.15649 z m 8.793641,-2.33555 c 0.545873,-0.38234 0.58804,-0.61655 0.58804,-3.26628 0,-3.93678 0.09672,-3.86246 -5.027084,-3.86246 -5.123807,0 -5.027083,-0.0743 -5.027083,3.86246 0,3.76628 -0.120434,3.67816 5.027083,3.67816 3.057242,0 3.972214,-0.0849 4.439044,-0.41188 z"
                         id="path5392"
                         inkscape:connector-curvature="0" />
                      <path
                         style="fill:#fefefe;stroke-width:0.26458335;fill-opacity:1"
                         d="m 2.0595108,-341.38001 c -0.0791,-0.20613 -0.1061196,-0.83379 -0.060043,-1.39479 l 0.083776,-1.02001 h 5.1593752 5.159375 v 1.32291 1.32292 l -5.0993326,0.0719 c -4.2029596,0.0592 -5.1246134,0.006 -5.2431513,-0.30291 z m 7.7627965,-2.21518 c -1.4188282,-0.0476 -3.740547,-0.0476 -5.1593752,0 -1.4188282,0.0476 -0.2579688,0.0865 2.5796876,0.0865 2.8376563,0 3.9985153,-0.0389 2.5796876,-0.0865 z"
                         id="path5390"
                         inkscape:connector-curvature="0" />
                      <path
                         style="fill:#fefefe;stroke-width:0.26458335;fill-opacity:1"
                         d="m 2.3208996,-341.65291 c -0.080966,-0.211 -0.1080294,-0.66018 -0.060141,-0.99818 l 0.087069,-0.61456 h 4.8947919 4.8947925 v 0.92604 0.92605 l -4.8346514,0.0721 c -4.0261999,0.0601 -4.859267,0.008 -4.9818612,-0.31148 z"
                         id="path5388"
                         inkscape:connector-curvature="0" />
                    </g>
                    <g
                       id="g5361"
                       transform="translate(0.2544088,0.36282)">
                      <path
                         style="fill:#e6dda7;stroke-width:0.26458335"
                         d="m 1.805102,-341.74278 c -0.0791,-0.20613 -0.1061196,-0.83379 -0.060043,-1.39479 l 0.083776,-1.02001 h 5.1593752 5.1593748 v 1.32291 1.32292 l -5.0993324,0.0719 c -4.2029596,0.0592 -5.1246134,0.006 -5.2431513,-0.30291 z"
                         id="path5373"
                         inkscape:connector-curvature="0" />
                      <path
                         style="fill:#c8b974;stroke-width:0.26458335"
                         d="m 1.805102,-341.74278 c -0.0791,-0.20613 -0.1061196,-0.83379 -0.060043,-1.39479 l 0.083776,-1.02001 h 5.1593752 5.1593748 v 1.32291 1.32292 l -5.0993324,0.0719 c -4.2029596,0.0592 -5.1246134,0.006 -5.2431513,-0.30291 z m 7.7627965,-2.21518 c -1.4188282,-0.0476 -3.740547,-0.0476 -5.1593752,0 -1.4188282,0.0476 -0.2579688,0.0865 2.5796876,0.0865 2.8376564,0 3.9985161,-0.0389 2.5796876,-0.0865 z"
                         id="path5371"
                         inkscape:connector-curvature="0" />
                      <path
                         style="fill:#ecc31c;stroke-width:0.26458335"
                         d="m 1.872933,-341.55585 c -0.097014,-0.097 -0.176389,-0.63279 -0.176389,-1.19062 v -1.01424 h 5.2916669 5.2916671 v 1.07395 c 0,0.64859 -0.104793,1.00918 -0.264584,0.91043 -0.14552,-0.0899 -0.264583,-0.0374 -0.264583,0.11667 0,0.31105 -9.5699673,0.41162 -9.877778,0.10381 z"
                         id="path5369"
                         inkscape:connector-curvature="0" />
                      <path
                         style="fill:#e1bb2c;stroke-width:0.26458335"
                         d="m 1.872933,-341.55585 c -0.097014,-0.097 -0.176389,-0.60303 -0.176389,-1.12448 v -0.94809 h 5.2916669 5.2916671 v 1.04511 c 0,1.11924 -0.398594,1.04114 -0.607619,-0.11907 -0.06554,-0.3638 -0.08603,-0.21497 -0.04554,0.33073 l 0.07363,0.99219 H 6.8748396 c -2.6540347,0 -4.9048929,-0.0794 -5.0019066,-0.17639 z m 0.5639621,-1.31273 c -0.087238,-0.69946 -0.105682,-0.68101 -0.2321113,0.23211 -0.078753,0.56878 -0.038325,0.89293 0.094768,0.75984 0.1276612,-0.12766 0.1894657,-0.57404 0.1373433,-0.99195 z"
                         id="path5367"
                         inkscape:connector-curvature="0" />
                      <path
                         style="fill:#afa46b;stroke-width:0.26458335"
                         d="m 1.8018897,-341.75115 c -0.078447,-0.20443 -0.093764,-0.76997 -0.034039,-1.25677 0.098455,-0.80247 0.1125432,-0.78067 0.150934,0.23356 l 0.042343,1.11864 4.9609377,0.0782 4.9609376,0.0782 -4.9692416,0.06 c -4.0636718,0.049 -4.9952338,-0.008 -5.1118714,-0.31175 z m 10.2854673,-0.95123 c 0,-0.65484 0.0516,-0.92273 0.114663,-0.59531 0.06306,0.32742 0.06306,0.86321 0,1.19063 -0.06306,0.32742 -0.114663,0.0595 -0.114663,-0.59532 z m -9.5970629,0 v -0.79375 h 4.4979168 4.4979171 v 0.79375 0.79375 H 6.9882109 2.4902941 Z"
                         id="path5365"
                         inkscape:connector-curvature="0" />
                      <path
                         style="fill:#eebd03;stroke-width:0.26458335"
                         d="m 2.4902941,-342.70238 v -0.79375 h 4.4979168 4.4979171 v 0.79375 0.79375 H 6.9882109 2.4902941 Z"
                         id="path5363"
                         inkscape:connector-curvature="0" />
                    </g>
                  </g>
                </g>
              </g>
            </g>
          </g>
        </g>
      </g>
    </g>
  </g>
</svg>
